<?xml version="1.0" encoding="utf-8"?>
<!-- Generator: Adobe Illustrator 24.1.3, SVG Export Plug-In . SVG Version: 6.00 Build 0)  -->
<svg version="1.1" id="Ebene_1" xmlns="http://www.w3.org/2000/svg" xmlns:xlink="http://www.w3.org/1999/xlink" x="0px" y="0px"
	 viewBox="0 0 742.61 567.43" style="enable-background:new 0 0 742.61 567.43;" xml:space="preserve">
<style type="text/css">
	.st0{fill:#4BC44B;}
	.st1{fill:#A1E2A1;}
</style>
<path class="st0" d="M719.56,319.51c23.7-26.54,29.36-70.94,11.83-101.65c-24.83-43.49-63.59-56.56-110.81-44.95
	C595.7,79,535.75,56.74,460.1,83.11C394.21-16.95,321.52-25.04,229.62,57.47c-84.13-7.11-141.64,27.98-157.98,97.93
	c-4.65,19.92-5.22,38.93-1.98,56.65c-23.54,2.44-43.04,15.35-57.48,41.01c-17.15,30.47-14.73,62.27,3.8,91.22
	c10.18,15.9,22.14,25.17,35.35,29.73c-0.16,3.17-0.25,6.38-0.21,9.67c0.88,73.4,51.54,114.76,148.42,119.49
	c16.55,32.22,42.55,52.96,81.59,54.65c38.59,1.68,65.76-17.22,86.58-47.95c68.21,89.37,186.6,72.09,219.79-42.15
	c7.35,0,15.12,0.14,22.88-0.02c54.84-1.12,98.59-35.83,110.74-87.78c4.62-19.78,3.27-40.06-3.17-58.69
	C718.49,320.66,719.03,320.1,719.56,319.51z"/>
<path class="st1" d="M692.31,316.73c21.85-24.46,27.06-65.4,10.9-93.7c-22.89-40.09-58.62-52.13-102.15-41.43
	c-22.93-86.57-78.19-107.09-147.93-82.78C392.4,6.58,325.4-0.87,240.68,75.18c-77.55-6.56-130.57,25.79-145.63,90.28
	c-4.29,18.36-4.82,35.89-1.83,52.22c-21.7,2.25-39.67,14.15-52.99,37.81c-15.8,28.09-13.58,57.4,3.51,84.09
	c9.38,14.66,20.41,23.2,32.58,27.41c-0.14,2.92-0.23,5.88-0.19,8.91c0.81,67.66,47.51,105.78,136.82,110.15
	c15.25,29.7,39.23,48.82,75.21,50.38c35.57,1.54,60.62-15.87,79.81-44.21c62.88,82.38,172.01,66.46,202.6-38.85
	c6.77,0,13.94,0.13,21.09-0.02c50.55-1.03,90.88-33.03,102.08-80.92c4.26-18.23,3.01-36.93-2.92-54.11
	C691.33,317.79,691.83,317.28,692.31,316.73z"/>
</svg>
