<?xml version="1.0" encoding="utf-8"?>
<!-- Generator: Adobe Illustrator 24.2.1, SVG Export Plug-In . SVG Version: 6.00 Build 0)  -->
<svg version="1.1" id="vorne" xmlns="http://www.w3.org/2000/svg" xmlns:xlink="http://www.w3.org/1999/xlink" x="0px" y="0px"
	 viewBox="0 0 478.5 262.6" style="enable-background:new 0 0 478.5 262.6;" xml:space="preserve">
<style type="text/css">
	.st0{fill:#E51B26;}
	.st1{fill:#C11A2B;}
	.st2{fill:#F8AC50;}
	.st3{fill:#D33C3C;}
	.st4{fill:#E31120;}
	.st5{fill:#E73E3C;}
	.st6{fill:#984A4C;}
	.st7{fill:#B33B3B;}
	.st8{fill:#1C1011;stroke:#CD914D;stroke-miterlimit:10;}
	.st9{fill:#9F2623;}
	.st10{fill:#821811;}
</style>
<g id="Tor">
	<g>
		<path class="st0" d="M166.2,159.8c0,0-0.7,12.1-1.3,14.1s-0.6,4.1,0.1,5.4c0.3,0.5,0.6,0.6,1,1.6s1.2,1,1.6,0c0.3-1,1-0.3,1.3-2.3
			c0.3-2.1-0.4-4.7-0.6-5.9c-0.2-1.2-1.7-11.8-1.7-13.3S166.2,159.8,166.2,159.8z"/>
		<circle class="st0" cx="166.6" cy="137.6" r="2.8"/>
		<g>
			<path class="st0" d="M166.6,138.2c-6.6,0-11.9,5.3-11.9,11.9c0,5.5,3.7,10.1,8.7,11.4c1,0.3,2.1,0.4,3.1,0.4s2.1-0.2,3.1-0.4
				c5-1.4,8.7-6,8.7-11.4C178.5,143.5,173.2,138.2,166.6,138.2z"/>
			<path class="st1" d="M166.6,161.9c-1.1,0-2.1-0.2-3.1-0.4v1.3c0,0.4,1.4,0.7,3.1,0.7c1.7,0,3.1-0.3,3.1-0.7v-1.3
				C168.8,161.8,167.7,161.9,166.6,161.9z"/>
		</g>
		<rect x="166.2" y="109.3" class="st0" width="0.8" height="32.2"/>
		<g>
			<path class="st2" d="M157.3,150.1c0-6.4,4.2-11.6,9.4-11.8c-0.1,0-0.2,0-0.4,0c-5.4,0-9.7,5.3-9.7,11.9c0,6.6,4.4,11.9,9.7,11.9
				c0.1,0,0.2,0,0.4,0C161.4,161.7,157.3,156.5,157.3,150.1z"/>
			<path class="st2" d="M167,138.2c-0.1,0-0.2,0-0.4,0c5.2,0.2,9.4,5.4,9.4,11.8c0,6.4-4.2,11.6-9.4,11.8c0.1,0,0.2,0,0.4,0
				c5.4,0,9.7-5.3,9.7-11.9C176.7,143.5,172.4,138.2,167,138.2z"/>
		</g>
		<g>
			<path class="st2" d="M160.9,150.1c0-6.4,2.6-11.6,5.7-11.8c-0.1,0-0.1,0-0.2,0c-3.3,0-6,5.3-6,11.9c0,6.6,2.7,11.9,6,11.9
				c0.1,0,0.1,0,0.2,0C163.4,161.7,160.9,156.5,160.9,150.1z"/>
			<path class="st2" d="M166.9,138.2c-0.1,0-0.1,0-0.2,0c3.2,0.2,5.7,5.4,5.7,11.8c0,6.4-2.6,11.6-5.7,11.8c0.1,0,0.1,0,0.2,0
				c3.3,0,6-5.3,6-11.9C172.8,143.5,170.1,138.2,166.9,138.2z"/>
		</g>
		<g>
			<path class="st2" d="M164.4,150.1c0-6.4,1-11.6,2.3-11.8c0,0-0.1,0-0.1,0c-1.3,0-2.4,5.3-2.4,11.9c0,6.6,1.1,11.9,2.4,11.9
				c0,0,0.1,0,0.1,0C165.4,161.7,164.4,156.5,164.4,150.1z"/>
			<path class="st2" d="M166.7,138.2C166.7,138.2,166.7,138.2,166.7,138.2c1.2,0.3,2.2,5.5,2.2,11.9c0,6.4-1,11.6-2.3,11.8
				c0,0,0.1,0,0.1,0c1.3,0,2.4-5.3,2.4-11.9C169.1,143.5,168,138.2,166.7,138.2z"/>
		</g>
	</g>
	<g>
		<path class="st0" d="M312.9,167.1c0,0-0.7,12.1-1.3,14.1c-0.7,2-0.6,4.1,0.1,5.4c0.3,0.5,0.6,0.6,1,1.6s1.2,1,1.6,0
			c0.3-1,1-0.3,1.3-2.3c0.3-2.1-0.4-4.7-0.6-5.9c-0.2-1.2-1.7-11.8-1.7-13.3S312.9,167.1,312.9,167.1z"/>
		<circle class="st0" cx="313.3" cy="144.9" r="2.8"/>
		<g>
			<path class="st0" d="M313.3,145.5c-6.6,0-11.9,5.3-11.9,11.9c0,5.5,3.7,10.1,8.7,11.4c1,0.3,2.1,0.4,3.1,0.4s2.1-0.2,3.1-0.4
				c5-1.4,8.7-6,8.7-11.4C325.2,150.8,319.9,145.5,313.3,145.5z"/>
			<path class="st1" d="M313.3,169.2c-1.1,0-2.1-0.2-3.1-0.4v1.3c0,0.4,1.4,0.7,3.1,0.7c1.7,0,3.1-0.3,3.1-0.7v-1.3
				C315.5,169.1,314.4,169.2,313.3,169.2z"/>
		</g>
		<rect x="312.9" y="116.6" class="st0" width="0.8" height="32.2"/>
		<g>
			<path class="st2" d="M304,157.4c0-6.4,4.2-11.6,9.4-11.8c-0.1,0-0.2,0-0.4,0c-5.4,0-9.7,5.3-9.7,11.9s4.4,11.9,9.7,11.9
				c0.1,0,0.2,0,0.4,0C308.1,169,304,163.8,304,157.4z"/>
			<path class="st2" d="M313.7,145.5c-0.1,0-0.2,0-0.4,0c5.2,0.2,9.4,5.4,9.4,11.8c0,6.4-4.2,11.6-9.4,11.8c0.1,0,0.2,0,0.4,0
				c5.4,0,9.7-5.3,9.7-11.9S319.1,145.5,313.7,145.5z"/>
		</g>
		<g>
			<path class="st2" d="M307.6,157.4c0-6.4,2.6-11.6,5.7-11.8c-0.1,0-0.1,0-0.2,0c-3.3,0-6,5.3-6,11.9s2.7,11.9,6,11.9
				c0.1,0,0.1,0,0.2,0C310.2,169,307.6,163.8,307.6,157.4z"/>
			<path class="st2" d="M313.6,145.5c-0.1,0-0.1,0-0.2,0c3.2,0.2,5.7,5.4,5.7,11.8c0,6.4-2.6,11.6-5.7,11.8c0.1,0,0.1,0,0.2,0
				c3.3,0,6-5.3,6-11.9S316.9,145.5,313.6,145.5z"/>
		</g>
		<g>
			<path class="st2" d="M311.1,157.4c0-6.4,1-11.6,2.3-11.8c0,0-0.1,0-0.1,0c-1.3,0-2.4,5.3-2.4,11.9s1.1,11.9,2.4,11.9
				c0,0,0.1,0,0.1,0C312.1,169,311.1,163.8,311.1,157.4z"/>
			<path class="st2" d="M313.4,145.5C313.4,145.5,313.4,145.5,313.4,145.5c1.2,0.3,2.2,5.5,2.2,11.9c0,6.4-1,11.6-2.3,11.8
				c0,0,0.1,0,0.1,0c1.3,0,2.4-5.3,2.4-11.9S314.7,145.5,313.4,145.5z"/>
		</g>
	</g>
	<g>
		<path class="st0" d="M346.3,193.4c0,0-0.7,12.1-1.3,14.1c-0.7,2-0.6,4.1,0.1,5.4c0.3,0.5,0.6,0.6,1,1.6c0.4,1,1.2,1,1.6,0
			s1-0.3,1.3-2.3s-0.4-4.7-0.6-5.9s-1.7-11.8-1.7-13.3S346.3,193.4,346.3,193.4z"/>
		<circle class="st0" cx="346.8" cy="171.2" r="2.8"/>
		<g>
			<path class="st0" d="M346.8,171.8c-6.6,0-11.9,5.3-11.9,11.9c0,5.5,3.7,10.1,8.7,11.4c1,0.3,2.1,0.4,3.1,0.4s2.1-0.2,3.1-0.4
				c5-1.4,8.7-6,8.7-11.4C358.6,177.2,353.3,171.8,346.8,171.8z"/>
			<path class="st1" d="M346.8,195.6c-1.1,0-2.1-0.2-3.1-0.4v1.3c0,0.4,1.4,0.7,3.1,0.7c1.7,0,3.1-0.3,3.1-0.7v-1.3
				C348.9,195.4,347.9,195.6,346.8,195.6z"/>
		</g>
		<rect x="346.4" y="142.9" class="st0" width="0.8" height="32.2"/>
		<g>
			<path class="st2" d="M337.4,183.7c0-6.4,4.2-11.6,9.4-11.8c-0.1,0-0.2,0-0.4,0c-5.4,0-9.7,5.3-9.7,11.9s4.4,11.9,9.7,11.9
				c0.1,0,0.2,0,0.4,0C341.6,195.3,337.4,190.1,337.4,183.7z"/>
			<path class="st2" d="M347.1,171.8c-0.1,0-0.2,0-0.4,0c5.2,0.2,9.4,5.4,9.4,11.8s-4.2,11.6-9.4,11.8c0.1,0,0.2,0,0.4,0
				c5.4,0,9.7-5.3,9.7-11.9S352.5,171.8,347.1,171.8z"/>
		</g>
		<g>
			<path class="st2" d="M341,183.7c0-6.4,2.6-11.6,5.7-11.8c-0.1,0-0.1,0-0.2,0c-3.3,0-6,5.3-6,11.9s2.7,11.9,6,11.9
				c0.1,0,0.1,0,0.2,0C343.6,195.3,341,190.1,341,183.7z"/>
			<path class="st2" d="M347,171.8c-0.1,0-0.1,0-0.2,0c3.2,0.2,5.7,5.4,5.7,11.8s-2.6,11.6-5.7,11.8c0.1,0,0.1,0,0.2,0
				c3.3,0,6-5.3,6-11.9S350.3,171.8,347,171.8z"/>
		</g>
		<g>
			<path class="st2" d="M344.5,183.7c0-6.4,1-11.6,2.3-11.8c0,0-0.1,0-0.1,0c-1.3,0-2.4,5.3-2.4,11.9s1.1,11.9,2.4,11.9
				c0,0,0.1,0,0.1,0C345.5,195.3,344.5,190.1,344.5,183.7z"/>
			<path class="st2" d="M346.9,171.8C346.8,171.8,346.8,171.9,346.9,171.8c1.2,0.3,2.2,5.5,2.2,11.9s-1,11.6-2.3,11.8
				c0,0,0.1,0,0.1,0c1.3,0,2.4-5.3,2.4-11.9S348.2,171.8,346.9,171.8z"/>
		</g>
	</g>
	<g>
		<path class="st0" d="M127.5,184.1c0,0-0.7,12.1-1.3,14.1s-0.6,4.1,0.1,5.4c0.3,0.5,0.6,0.6,1,1.6s1.2,1,1.6,0c0.3-1,1-0.3,1.3-2.3
			c0.3-2.1-0.4-4.7-0.6-5.9s-1.7-11.8-1.7-13.3S127.5,184.1,127.5,184.1z"/>
		<circle class="st0" cx="127.9" cy="161.9" r="2.8"/>
		<g>
			<path class="st0" d="M127.9,162.5c-6.6,0-11.9,5.3-11.9,11.9c0,5.5,3.7,10.1,8.7,11.4c1,0.3,2.1,0.4,3.1,0.4s2.1-0.2,3.1-0.4
				c5-1.4,8.7-6,8.7-11.4C139.8,167.8,134.5,162.5,127.9,162.5z"/>
			<path class="st1" d="M127.9,186.2c-1.1,0-2.1-0.2-3.1-0.4v1.3c0,0.4,1.4,0.7,3.1,0.7c1.7,0,3.1-0.3,3.1-0.7v-1.3
				C130.1,186.1,129,186.2,127.9,186.2z"/>
		</g>
		<rect x="127.5" y="133.6" class="st0" width="0.8" height="32.2"/>
		<g>
			<path class="st2" d="M118.6,174.4c0-6.4,4.2-11.6,9.4-11.8c-0.1,0-0.2,0-0.4,0c-5.4,0-9.7,5.3-9.7,11.9s4.4,11.9,9.7,11.9
				c0.1,0,0.2,0,0.4,0C122.7,186,118.6,180.8,118.6,174.4z"/>
			<path class="st2" d="M128.3,162.5c-0.1,0-0.2,0-0.4,0c5.2,0.2,9.4,5.4,9.4,11.8c0,6.4-4.2,11.6-9.4,11.8c0.1,0,0.2,0,0.4,0
				c5.4,0,9.7-5.3,9.7-11.9S133.7,162.5,128.3,162.5z"/>
		</g>
		<g>
			<path class="st2" d="M122.2,174.4c0-6.4,2.6-11.6,5.7-11.8c-0.1,0-0.1,0-0.2,0c-3.3,0-6,5.3-6,11.9s2.7,11.9,6,11.9
				c0.1,0,0.1,0,0.2,0C124.8,186,122.2,180.8,122.2,174.4z"/>
			<path class="st2" d="M128.2,162.5c-0.1,0-0.1,0-0.2,0c3.2,0.2,5.7,5.4,5.7,11.8c0,6.4-2.6,11.6-5.7,11.8c0.1,0,0.1,0,0.2,0
				c3.3,0,6-5.3,6-11.9S131.5,162.5,128.2,162.5z"/>
		</g>
		<g>
			<path class="st2" d="M125.7,174.4c0-6.4,1-11.6,2.3-11.8c0,0-0.1,0-0.1,0c-1.3,0-2.4,5.3-2.4,11.9s1.1,11.9,2.4,11.9
				c0,0,0.1,0,0.1,0C126.7,186,125.7,180.8,125.7,174.4z"/>
			<path class="st2" d="M128,162.5C128,162.5,128,162.5,128,162.5c1.2,0.3,2.2,5.5,2.2,11.9c0,6.4-1,11.6-2.3,11.8c0,0,0.1,0,0.1,0
				c1.3,0,2.4-5.3,2.4-11.9S129.3,162.5,128,162.5z"/>
		</g>
	</g>
	<g>
		<path class="st0" d="M28.8,171.7c0,0-0.7,12.1-1.3,14.1s-0.6,4.1,0.1,5.4c0.3,0.5,0.6,0.6,1,1.6c0.4,1,1.2,1,1.6,0s1-0.3,1.3-2.3
			c0.3-2.1-0.4-4.7-0.6-5.9c-0.2-1.2-1.7-11.8-1.7-13.3S28.8,171.7,28.8,171.7z"/>
		<circle class="st0" cx="29.2" cy="149.5" r="2.8"/>
		<g>
			<path class="st0" d="M29.2,150.1c-6.6,0-11.9,5.3-11.9,11.9c0,5.5,3.7,10.1,8.7,11.4c1,0.3,2.1,0.4,3.1,0.4s2.1-0.2,3.1-0.4
				c5-1.4,8.7-6,8.7-11.4C41.1,155.4,35.8,150.1,29.2,150.1z"/>
			<path class="st1" d="M29.2,173.8c-1.1,0-2.1-0.2-3.1-0.4v1.3c0,0.4,1.4,0.7,3.1,0.7c1.7,0,3.1-0.3,3.1-0.7v-1.3
				C31.4,173.7,30.3,173.8,29.2,173.8z"/>
		</g>
		<rect x="28.8" y="132.4" class="st0" width="0.8" height="21"/>
		<g>
			<path class="st2" d="M19.8,161.9c0-6.4,4.2-11.6,9.4-11.8c-0.1,0-0.2,0-0.4,0c-5.4,0-9.7,5.3-9.7,11.9s4.4,11.9,9.7,11.9
				c0.1,0,0.2,0,0.4,0C24,173.6,19.8,168.4,19.8,161.9z"/>
			<path class="st2" d="M29.6,150.1c-0.1,0-0.2,0-0.4,0c5.2,0.2,9.4,5.4,9.4,11.8c0,6.4-4.2,11.6-9.4,11.8c0.1,0,0.2,0,0.4,0
				c5.4,0,9.7-5.3,9.7-11.9S35,150.1,29.6,150.1z"/>
		</g>
		<g>
			<path class="st2" d="M23.5,161.9c0-6.4,2.6-11.6,5.7-11.8c-0.1,0-0.1,0-0.2,0c-3.3,0-6,5.3-6,11.9s2.7,11.9,6,11.9
				c0.1,0,0.1,0,0.2,0C26,173.6,23.5,168.4,23.5,161.9z"/>
			<path class="st2" d="M29.4,150.1c-0.1,0-0.1,0-0.2,0c3.2,0.2,5.7,5.4,5.7,11.8c0,6.4-2.6,11.6-5.7,11.8c0.1,0,0.1,0,0.2,0
				c3.3,0,6-5.3,6-11.9S32.7,150.1,29.4,150.1z"/>
		</g>
		<g>
			<path class="st2" d="M27,161.9c0-6.4,1-11.6,2.3-11.8c0,0-0.1,0-0.1,0c-1.3,0-2.4,5.3-2.4,11.9s1.1,11.9,2.4,11.9
				c0,0,0.1,0,0.1,0C28,173.6,27,168.4,27,161.9z"/>
			<path class="st2" d="M29.3,150.1C29.3,150.1,29.3,150.1,29.3,150.1c1.2,0.3,2.2,5.5,2.2,11.9c0,6.4-1,11.6-2.3,11.8
				c0,0,0.1,0,0.1,0c1.3,0,2.4-5.3,2.4-11.9S30.6,150.1,29.3,150.1z"/>
		</g>
	</g>
	<g>
		<path class="st0" d="M447.5,174.9c0,0-0.7,12.1-1.3,14.1c-0.7,2-0.6,4.1,0.1,5.4c0.3,0.5,0.6,0.6,1,1.6c0.4,1,1.2,1,1.6,0
			c0.3-1,1-0.3,1.3-2.3c0.3-2.1-0.4-4.7-0.6-5.9c-0.2-1.2-1.7-11.8-1.7-13.3S447.5,174.9,447.5,174.9z"/>
		<circle class="st0" cx="448" cy="152.7" r="2.8"/>
		<g>
			<path class="st0" d="M448,153.3c-6.6,0-11.9,5.3-11.9,11.9c0,5.5,3.7,10.1,8.7,11.4c1,0.3,2.1,0.4,3.1,0.4s2.1-0.2,3.1-0.4
				c5-1.4,8.7-6,8.7-11.4C459.8,158.6,454.5,153.3,448,153.3z"/>
			<path class="st1" d="M448,177c-1.1,0-2.1-0.2-3.1-0.4v1.3c0,0.4,1.4,0.7,3.1,0.7c1.7,0,3.1-0.3,3.1-0.7v-1.3
				C450.1,176.9,449.1,177,448,177z"/>
		</g>
		<rect x="447.6" y="135.6" class="st0" width="0.8" height="21"/>
		<g>
			<path class="st2" d="M438.6,165.2c0-6.4,4.2-11.6,9.4-11.8c-0.1,0-0.2,0-0.4,0c-5.4,0-9.7,5.3-9.7,11.9s4.4,11.9,9.7,11.9
				c0.1,0,0.2,0,0.4,0C442.8,176.8,438.6,171.6,438.6,165.2z"/>
			<path class="st2" d="M448.3,153.3c-0.1,0-0.2,0-0.4,0c5.2,0.2,9.4,5.4,9.4,11.8c0,6.4-4.2,11.6-9.4,11.8c0.1,0,0.2,0,0.4,0
				c5.4,0,9.7-5.3,9.7-11.9S453.7,153.3,448.3,153.3z"/>
		</g>
		<g>
			<path class="st2" d="M442.2,165.2c0-6.4,2.6-11.6,5.7-11.8c-0.1,0-0.1,0-0.2,0c-3.3,0-6,5.3-6,11.9s2.7,11.9,6,11.9
				c0.1,0,0.1,0,0.2,0C444.8,176.8,442.2,171.6,442.2,165.2z"/>
			<path class="st2" d="M448.2,153.3c-0.1,0-0.1,0-0.2,0c3.2,0.2,5.7,5.4,5.7,11.8c0,6.4-2.6,11.6-5.7,11.8c0.1,0,0.1,0,0.2,0
				c3.3,0,6-5.3,6-11.9S451.5,153.3,448.2,153.3z"/>
		</g>
		<g>
			<path class="st2" d="M445.7,165.2c0-6.4,1-11.6,2.3-11.8c0,0-0.1,0-0.1,0c-1.3,0-2.4,5.3-2.4,11.9s1.1,11.9,2.4,11.9
				c0,0,0.1,0,0.1,0C446.7,176.8,445.7,171.6,445.7,165.2z"/>
			<path class="st2" d="M448.1,153.3C448,153.3,448,153.3,448.1,153.3c1.2,0.3,2.2,5.5,2.2,11.9c0,6.4-1,11.6-2.3,11.8
				c0,0,0.1,0,0.1,0c1.3,0,2.4-5.3,2.4-11.9S449.4,153.3,448.1,153.3z"/>
		</g>
	</g>
	<rect x="51.5" y="109.7" class="st3" width="88.7" height="20.5"/>
	<rect x="336" y="109.7" class="st3" width="88.7" height="20.5"/>
	<polygon class="st4" points="21.3,129 40.2,152.8 146.3,152.8 146.3,129 	"/>
	<g>
		<rect x="39.4" y="106.5" class="st5" width="12.1" height="114.2"/>
		<path class="st6" d="M57.9,261.2H34.3v-40.1c0-2.7,2.2-4.9,4.9-4.9H53c2.7,0,4.9,2.2,4.9,4.9V261.2z"/>
	</g>
	<g>
		<g>
			<g>
				<path class="st7" d="M99.7,107.7v19.6h-7.8v-19.6H99.7 M101.4,106H90.2v23h11.2V106L101.4,106z"/>
				<path class="st7" d="M108.5,111v12.9H97.9V111H108.5 M110.2,109.3h-14v16.4h14V109.3L110.2,109.3z"/>
				<g>
					<path class="st7" d="M93.6,111v12.9H83V111H93.6 M95.3,109.3h-14v16.4h14V109.3L95.3,109.3z"/>
				</g>
				<path class="st7" d="M69.9,107.7v19.6h-7.8v-19.6H69.9 M71.6,106H60.4v23h11.2V106L71.6,106z"/>
				<path class="st7" d="M78.6,111v12.9H68.1V111H78.6 M80.3,109.3h-14v16.4h14V109.3L80.3,109.3z"/>
				<g>
					<path class="st7" d="M63.7,111v12.9H53.2V111H63.7 M65.4,109.3h-14v16.4h14V109.3L65.4,109.3z"/>
				</g>
				<path class="st7" d="M86.1,115.7v3.5H75.6v-3.5H86.1 M87.8,114h-14v7h14V114L87.8,114z"/>
				<path class="st7" d="M129.8,107.7v19.6h-7.8v-19.6H129.8 M131.5,106h-11.2v23h11.2V106L131.5,106z"/>
				<path class="st7" d="M138.5,111v12.9h-10.6V111H138.5 M140.2,109.3h-14v16.4h14V109.3L140.2,109.3z"/>
				<g>
					<path class="st7" d="M123.6,111v12.9h-10.6V111H123.6 M125.3,109.3h-14v16.4h14V109.3L125.3,109.3z"/>
				</g>
				<path class="st7" d="M116.2,115.7v3.5h-10.6v-3.5H116.2 M117.9,114h-14v7h14V114L117.9,114z"/>
			</g>
		</g>
	</g>
	<g>
		<rect x="147.9" y="92.2" class="st4" width="182" height="15.8"/>
		<rect x="147.9" y="106.5" class="st5" width="182" height="20.5"/>
		<rect x="152.3" y="67.1" class="st3" width="177.6" height="25"/>
		<g>
			<g>
				<g>
					<path class="st7" d="M200.1,71.2v19.3h-7.7V71.2H200.1 M201.8,69.5h-11.1v22.7h11.1V69.5L201.8,69.5z"/>
					<path class="st7" d="M208.7,74.5v12.7h-10.5V74.5H208.7 M210.4,72.7h-13.8v16.1h13.8V72.7L210.4,72.7z"/>
					<g>
						<path class="st7" d="M194,74.5v12.7h-10.5V74.5H194 M195.7,72.7h-13.8v16.1h13.8V72.7L195.7,72.7z"/>
					</g>
					<path class="st7" d="M170.5,71.2v19.3h-7.7V71.2H170.5 M172.2,69.5h-11.1v22.7h11.1V69.5L172.2,69.5z"/>
					<path class="st7" d="M179.2,74.5v12.7h-10.5V74.5H179.2 M180.9,72.7H167v16.1h13.8V72.7L180.9,72.7z"/>
					<g>
						<path class="st7" d="M164.4,74.5v12.7H154V74.5H164.4 M166.1,72.7h-13.8v16.1h13.8V72.7L166.1,72.7z"/>
					</g>
					<path class="st7" d="M186.6,79.1v3.5h-10.5v-3.5H186.6 M188.3,77.4h-13.8v6.9h13.8V77.4L188.3,77.4z"/>
					<path class="st7" d="M229.9,71.2v19.3h-7.7V71.2H229.9 M231.5,69.5h-11.1v22.7h11.1V69.5L231.5,69.5z"/>
					<path class="st7" d="M238.5,74.5v12.7h-10.5V74.5H238.5 M240.2,72.7h-13.8v16.1h13.8V72.7L240.2,72.7z"/>
					<g>
						<path class="st7" d="M223.8,74.5v12.7h-10.5V74.5H223.8 M225.4,72.7h-13.8v16.1h13.8V72.7L225.4,72.7z"/>
					</g>
					<path class="st7" d="M216.4,79.1v3.5h-10.5v-3.5H216.4 M218.1,77.4h-13.8v6.9h13.8V77.4L218.1,77.4z"/>
					<path class="st7" d="M246.2,79.1v3.5h-10.5v-3.5H246.2 M247.9,77.4h-13.8v6.9h13.8V77.4L247.9,77.4z"/>
				</g>
			</g>
		</g>
	</g>
	<g>
		<g>
			<g>
				<path class="st7" d="M289.7,71.2v19.3h-7.7V71.2H289.7 M291.3,69.5h-11.1v22.7h11.1V69.5L291.3,69.5z"/>
				<path class="st7" d="M298.3,74.5v12.7h-10.5V74.5H298.3 M300,72.7h-13.8v16.1H300V72.7L300,72.7z"/>
				<g>
					<path class="st7" d="M283.6,74.5v12.7h-10.5V74.5H283.6 M285.3,72.7h-13.8v16.1h13.8V72.7L285.3,72.7z"/>
				</g>
				<path class="st7" d="M260.1,71.2v19.3h-7.7V71.2H260.1 M261.8,69.5h-11.1v22.7h11.1V69.5L261.8,69.5z"/>
				<path class="st7" d="M268.8,74.5v12.7h-10.5V74.5H268.8 M270.5,72.7h-13.8v16.1h13.8V72.7L270.5,72.7z"/>
				<g>
					<path class="st7" d="M254,74.5v12.7h-10.5V74.5H254 M255.7,72.7h-13.8v16.1h13.8V72.7L255.7,72.7z"/>
				</g>
				<path class="st7" d="M276.2,79.1v3.5h-10.5v-3.5H276.2 M277.9,77.4h-13.8v6.9h13.8V77.4L277.9,77.4z"/>
				<path class="st7" d="M319.4,71.2v19.3h-7.7V71.2H319.4 M321.1,69.5H310v22.7h11.1V69.5L321.1,69.5z"/>
				<path class="st7" d="M328.1,74.5v12.7h-10.5V74.5H328.1 M329.8,72.7H316v16.1h13.8V72.7L329.8,72.7z"/>
				<g>
					<path class="st7" d="M313.3,74.5v12.7h-10.5V74.5H313.3 M315,72.7h-13.8v16.1H315V72.7L315,72.7z"/>
				</g>
				<path class="st7" d="M306,79.1v3.5h-10.5v-3.5H306 M307.7,77.4h-13.8v6.9h13.8V77.4L307.7,77.4z"/>
			</g>
		</g>
	</g>
	<g>
		<g>
			<rect x="173.6" y="100.3" class="st8" width="21.5" height="19.7"/>
			<rect x="287.1" y="100.3" class="st8" width="21.5" height="19.7"/>
		</g>
		<rect x="199.6" y="100.3" class="st8" width="83.1" height="19.7"/>
	</g>
	<g>
		<g>
			<rect x="54.7" y="133.5" class="st8" width="13" height="15"/>
			<rect x="123.4" y="133.5" class="st8" width="13" height="15"/>
		</g>
		<rect x="70.4" y="133.5" class="st8" width="50.3" height="15"/>
	</g>
	<polygon class="st4" points="455.3,129.7 436.3,153.5 330.3,153.5 330.3,129.7 	"/>
	<g>
		
			<rect x="425.1" y="107.1" transform="matrix(-1 -4.482160e-11 4.482160e-11 -1 862.2424 328.3602)" class="st5" width="12.1" height="114.2"/>
		<path class="st6" d="M418.6,261.2h23.6v-39.5c0-2.7-2.2-4.9-4.9-4.9h-13.8c-2.7,0-4.9,2.2-4.9,4.9V261.2z"/>
	</g>
	<g>
		<g>
			<g>
				<path class="st7" d="M376.8,108.4h7.8V128h-7.8V108.4 M375.1,106.7v23h11.2v-23H375.1L375.1,106.7z"/>
				<path class="st7" d="M368.1,111.8h10.6v12.9h-10.6V111.8 M366.4,110v16.4h14V110H366.4L366.4,110z"/>
				<g>
					<path class="st7" d="M383,111.8h10.6v12.9H383V111.8 M381.3,110v16.4h14V110H381.3L381.3,110z"/>
				</g>
				<path class="st7" d="M406.7,108.4h7.8V128h-7.8V108.4 M405,106.7v23h11.2v-23H405L405,106.7z"/>
				<path class="st7" d="M397.9,111.8h10.6v12.9h-10.6V111.8 M396.2,110v16.4h14V110H396.2L396.2,110z"/>
				<g>
					<path class="st7" d="M412.8,111.8h10.6v12.9h-10.6V111.8 M411.1,110v16.4h14V110H411.1L411.1,110z"/>
				</g>
				<path class="st7" d="M390.4,116.5H401v3.5h-10.6V116.5 M388.7,114.7v7h14v-7H388.7L388.7,114.7z"/>
				<path class="st7" d="M346.8,108.4h7.8V128h-7.8V108.4 M345.1,106.7v23h11.2v-23H345.1L345.1,106.7z"/>
				<path class="st7" d="M338,111.8h10.6v12.9H338V111.8 M336.3,110v16.4h14V110H336.3L336.3,110z"/>
				<g>
					<path class="st7" d="M352.9,111.8h10.6v12.9h-10.6V111.8 M351.2,110v16.4h14V110H351.2L351.2,110z"/>
				</g>
				<path class="st7" d="M360.4,116.5h10.6v3.5h-10.6V116.5 M358.7,114.7v7h14v-7H358.7L358.7,114.7z"/>
			</g>
		</g>
	</g>
	<g>
		<g>
			<path class="st9" d="M0.8,95.3c0,0,2.8,25,141.2,15.5V77.8L51.5,77L31.1,96.1l-15.3,6l-4.1-0.3l-5.9-2.5L0.8,95.3z"/>
			<path class="st10" d="M0.8,95.3c0,0,12.6,28.5,53.8-15H142v-8.4H52.9c0,0-4.8-2.6-0.6-6.7s-0.8-9.4-4.2-7.3
				c-2.1,1.3-3.2,2.6-3.8,3.4c-0.4,0.6,0,1.3,0.7,1.3c0.8,0,2-0.2,3.9-1c0,0-10.3,8.8-2.8,15.4c0,0-11.7,20.5-16.8,11.3
				c0,0-0.6,5.5,3.1,3.2c0,0-8,7.9-12.9,0.7c0,0,0.7,5.3,4.8,4.8C24.2,96.9,15.5,106.1,0.8,95.3z"/>
		</g>
		<g>
			<path class="st9" d="M475.7,96c0,0-2.8,25-141.2,15.5V78.5l90.6-0.8l20.4,19.1l15.3,6l4.1-0.3l5.9-2.5L475.7,96z"/>
			<path class="st10" d="M475.7,96c0,0-12.6,28.5-53.8-15h-87.4v-8.4h89.2c0,0,4.8-2.6,0.6-6.7s0.8-9.4,4.2-7.3
				c2.1,1.3,3.2,2.6,3.8,3.4c0.4,0.6,0,1.3-0.7,1.3c-0.8,0-2-0.2-3.9-1c0,0,10.3,8.8,2.8,15.4c0,0,11.7,20.5,16.8,11.3
				c0,0,0.6,5.5-3.1,3.2c0,0,8,7.9,12.9,0.7c0,0-0.7,5.3-4.8,4.8C452.4,97.7,461.1,106.8,475.7,96z"/>
		</g>
	</g>
	<g>
		<g>
			
				<rect x="408.9" y="134.2" transform="matrix(-1 -4.495083e-11 4.495083e-11 -1 830.7591 283.472)" class="st8" width="13" height="15"/>
			
				<rect x="340.1" y="134.2" transform="matrix(-1 -4.481139e-11 4.481139e-11 -1 693.3038 283.472)" class="st8" width="13" height="15"/>
		</g>
		
			<rect x="355.8" y="134.2" transform="matrix(-1 -4.488555e-11 4.488555e-11 -1 762.0314 283.472)" class="st8" width="50.3" height="15"/>
	</g>
	<g>
		<g>
			<rect x="140.2" y="65.2" class="st5" width="12.1" height="155.5"/>
			<path class="st6" d="M158.1,261.2h-23.6v-40.1c0-2.7,2.2-4.9,4.9-4.9h13.8c2.7,0,4.9,2.2,4.9,4.9V261.2z"/>
		</g>
		<g>
			<rect x="323.7" y="65.2" class="st5" width="12.1" height="155.5"/>
			<path class="st6" d="M341.6,261.2H318v-40.1c0-2.7,2.2-4.9,4.9-4.9h13.8c2.7,0,4.9,2.2,4.9,4.9V261.2z"/>
		</g>
	</g>
	<g>
		<g>
			<path class="st9" d="M101.9,52.6c0,0-2,23.5,141.8,17.3V30.4l-88-2.6l-10.6,16.4l-25.5,16.4l-4.4-0.3l-6.4-2.9L101.9,52.6z"/>
			<path class="st10" d="M99.8,50.3c0,0,15.6,37.8,66.7-19.9h77.1V19.2h-79.3c0,0-5.9-3.4-0.7-8.8s-1-12.5-5.2-9.7
				c-2.6,1.7-4,3.4-4.7,4.5c-0.5,0.7,0,1.8,0.8,1.8c0.9,0,2.4-0.3,4.9-1.4c0,0-12.8,11.7-3.5,20.4c0,0-14.6,27.2-20.8,14.9
				c0,0-0.7,7.3,3.8,4.3c0,0-9.9,10.5-16,0.9c0,0,0.9,7.1,5.9,6.3C128.8,52.5,118,64.6,99.8,50.3z"/>
		</g>
		<g>
			<path class="st9" d="M381.6,52.6c0,0,2,23.5-141.8,17.3V30.4l88-2.6l10.6,16.4l25.5,16.4l4.4-0.3l6.4-2.9L381.6,52.6z"/>
			<path class="st10" d="M383.6,50.3c0,0-15.6,37.8-66.7-19.9h-77.1V19.2h79.3c0,0,5.9-3.4,0.7-8.8s1-12.5,5.2-9.7
				c2.6,1.7,4,3.4,4.7,4.5c0.5,0.7,0,1.8-0.8,1.8c-0.9,0-2.4-0.3-4.9-1.4c0,0,12.8,11.7,3.5,20.4c0,0,14.6,27.2,20.8,14.9
				c0,0,0.7,7.3-3.8,4.3c0,0,9.9,10.5,16,0.9c0,0-0.9,7.1-5.9,6.3C354.6,52.5,365.5,64.6,383.6,50.3z"/>
		</g>
	</g>
	<g>
		<path class="st10" d="M29.6,108.7h-0.3C50,101.4,58.7,79,58.7,78.8h0.9C59.6,79,50.8,101.3,29.6,108.7z"/>
		<path class="st10" d="M42.6,110.5h-0.4C53.2,105,64.3,79,64.4,78.8h0.9C64.9,79.8,54,104.9,42.6,110.5z"/>
		<path class="st10" d="M53.6,111.7h-0.3c9.7-2.9,16.9-32.6,17-32.9h1C71,79.9,63.9,108.6,53.6,111.7z"/>
		<path class="st10" d="M66.3,112.3h-0.6c6.9-5.3,11.8-33.3,11.8-33.5h1C78.3,79.8,73.5,106.8,66.3,112.3z"/>
		<path class="st10" d="M79,112.7h-0.7c3-2.8,6-26.2,6.6-33.9h1C85.8,79.9,82.8,109,79,112.7z"/>
		<path class="st10" d="M91,112.7h-0.7c2.5-2.7,3.6-26.2,3.7-33.9h1C94.9,79.9,94.3,109.1,91,112.7z"/>
		<path class="st10" d="M101.9,111.8H101c2.5-5.1,2.5-32.8,2.5-33.1h1C104.5,79.9,104.4,106.5,101.9,111.8z"/>
		<polygon class="st10" points="113.6,111.8 112.6,111.8 112.3,78.8 113.3,78.8 		"/>
		<rect x="120.8" y="78.8" class="st10" width="1" height="33.1"/>
		<rect x="129.5" y="78.8" class="st10" width="1" height="32.7"/>
		<rect x="137.9" y="78.8" class="st10" width="1" height="31.8"/>
	</g>
	<g>
		<path class="st10" d="M446.1,108.7h0.3c-20.8-7.3-29.4-29.7-29.5-29.9H416C416.1,79,424.9,101.3,446.1,108.7z"/>
		<path class="st10" d="M433.1,110.5h0.4c-11.1-5.5-22.2-31.5-22.3-31.7h-0.9C410.8,79.8,421.7,104.9,433.1,110.5z"/>
		<path class="st10" d="M422,111.7h0.3c-9.7-2.9-16.9-32.6-17-32.9h-1C404.7,79.9,411.8,108.6,422,111.7z"/>
		<path class="st10" d="M409.4,112.3h0.6c-6.9-5.3-11.8-33.3-11.8-33.5h-1C397.3,79.8,402.2,106.8,409.4,112.3z"/>
		<path class="st10" d="M396.7,112.7h0.7c-3-2.8-6-26.2-6.6-33.9h-1C389.8,79.9,392.8,109,396.7,112.7z"/>
		<path class="st10" d="M384.7,112.7h0.7c-2.5-2.7-3.6-26.2-3.7-33.9h-1C380.8,79.9,381.4,109.1,384.7,112.7z"/>
		<path class="st10" d="M373.8,111.8h0.9c-2.5-5.1-2.5-32.8-2.5-33.1h-1C371.2,79.9,371.2,106.5,373.8,111.8z"/>
		<polygon class="st10" points="362.1,111.8 363.1,111.8 363.4,78.8 362.4,78.8 		"/>
		<rect x="353.8" y="78.8" class="st10" width="1" height="33.1"/>
		<rect x="345.1" y="78.8" class="st10" width="1" height="32.7"/>
		<rect x="336.8" y="78.8" class="st10" width="1" height="31.8"/>
	</g>
	<g>
		<g>
			<path class="st10" d="M129.2,65.5h-0.3c20.8-9.2,29.4-37.5,29.5-37.8h0.9C159.3,28,150.5,56.1,129.2,65.5z"/>
			<path class="st10" d="M142.3,67.8h-0.4c11.1-6.9,22.2-39.7,22.3-40h0.9C164.6,29,153.7,60.7,142.3,67.8z"/>
			<path class="st10" d="M153.3,69.2H153c9.7-3.6,16.9-41.1,17-41.5h1C170.7,29.2,163.6,65.4,153.3,69.2z"/>
			<path class="st10" d="M166,70.1h-0.6c6.9-6.6,11.8-42,11.8-42.3h1C178,29.1,173.2,63.1,166,70.1z"/>
			<path class="st10" d="M178.7,70.5H178c3-3.6,6-33.1,6.6-42.8h1C185.5,29.2,182.5,65.9,178.7,70.5z"/>
			<path class="st10" d="M190.7,70.5h-0.7c2.5-3.4,3.6-33.1,3.7-42.8h1C194.6,29.2,194,66,190.7,70.5z"/>
			<path class="st10" d="M201.5,69.5h-0.9c2.5-6.4,2.5-41.4,2.5-41.7h1C204.2,29.1,204.1,62.8,201.5,69.5z"/>
			<polygon class="st10" points="213.2,69.5 212.2,69.5 212,27.8 213,27.8 			"/>
			<rect x="220.5" y="27.8" class="st10" width="1" height="41.7"/>
			<rect x="229.2" y="27.8" class="st10" width="1" height="41.2"/>
			<rect x="237.6" y="27.8" class="st10" width="1" height="40.2"/>
		</g>
		<g>
			<path class="st10" d="M354.5,65.5h0.3c-20.8-9.2-29.4-37.5-29.5-37.8h-0.9C324.5,28,333.3,56.1,354.5,65.5z"/>
			<path class="st10" d="M341.5,67.8h0.4c-11.1-6.9-22.2-39.7-22.3-40h-0.9C319.2,29,330.1,60.7,341.5,67.8z"/>
			<path class="st10" d="M330.4,69.2h0.3c-9.7-3.6-16.9-41.1-17-41.5h-1C313.1,29.2,320.2,65.4,330.4,69.2z"/>
			<path class="st10" d="M317.8,70.1h0.6c-6.9-6.6-11.8-42-11.8-42.3h-1C305.7,29.1,310.6,63.1,317.8,70.1z"/>
			<path class="st10" d="M305.1,70.5h0.7c-3-3.6-6-33.1-6.6-42.8h-1C298.3,29.2,301.2,65.9,305.1,70.5z"/>
			<path class="st10" d="M293.1,70.5h0.7c-2.5-3.4-3.6-33.1-3.7-42.8h-1C289.2,29.2,289.8,66,293.1,70.5z"/>
			<path class="st10" d="M282.2,69.5h0.9c-2.5-6.4-2.5-41.4-2.5-41.7h-1C279.6,29.1,279.7,62.8,282.2,69.5z"/>
			<polygon class="st10" points="270.5,69.5 271.5,69.5 271.8,27.8 270.8,27.8 			"/>
			<rect x="262.3" y="27.8" class="st10" width="1" height="41.7"/>
			<rect x="253.5" y="27.8" class="st10" width="1" height="41.2"/>
			<rect x="245.2" y="27.8" class="st10" width="1" height="40.2"/>
		</g>
	</g>
</g>
</svg>
