<?xml version="1.0" encoding="UTF-8" standalone="no"?>
<!DOCTYPE svg PUBLIC "-//W3C//DTD SVG 1.1//EN" "http://www.w3.org/Graphics/SVG/1.1/DTD/svg11.dtd">
<svg width="100%" height="100%" viewBox="0 0 1487 797" version="1.1" xmlns="http://www.w3.org/2000/svg" xmlns:xlink="http://www.w3.org/1999/xlink" xml:space="preserve" xmlns:serif="http://www.serif.com/" style="fill-rule:evenodd;clip-rule:evenodd;stroke-linejoin:round;stroke-miterlimit:2;">
    <g id="_x33__chinesische_Mauer" transform="matrix(1,0,0,1,-2112,-265)">
        <g id="chinesische_Mauer">
            <g>
                <path d="M3229,310.9C3229,310.9 3172.1,316.7 3154.8,330.2C3137.6,343.7 3095.1,379.6 3083,380C3070.9,380.4 3051.4,377.4 3051.4,377.4L3053.6,384.1L3098.6,388.6C3098.6,388.6 3179.5,312.9 3229.7,321.9" style="fill:rgb(193,175,159);fill-rule:nonzero;"/>
                <path d="M3079.1,394.7L3121.9,365.2L3140.6,349.3C3142,348.1 3143.7,347.1 3145.4,346.4L3168.2,337C3178.2,330.1 3191.4,324.4 3203.4,322.8L3234.1,317.6L3270.9,324.4C3271.8,324.6 3272.8,324.6 3273.7,324.6L3291.5,323.8C3294.6,323.7 3297.6,324.7 3300,326.6L3316.3,339.9C3319.3,342.4 3323.3,343.4 3327.1,342.6L3347.7,338.5C3353.3,339.5 3359,339 3364.3,336.9L3370.4,334.5C3379.4,330.9 3389.6,331.9 3397.8,337.1L3404.5,341.3C3407.8,343.4 3411.5,344.9 3415.4,345.6L3429.4,348.1C3435.5,349.2 3441.1,352.1 3445.5,356.5L3449.7,360.7C3455.2,366.2 3462.6,369.4 3470.4,369.6L3476.1,369.7C3485.6,369.9 3494.5,374.6 3500,382.4L3513,400.6C3513.4,401.2 3513.8,401.8 3514.2,402.5L3530,428.6C3534.1,435.4 3541.9,439.1 3549.8,438.1L3568,435.8C3574.4,435 3580.8,436.9 3585.7,441.1L3591.5,446C3595.8,449.7 3601.4,451.6 3607,451.5L3612.9,451.3C3618.8,451.1 3624.6,453.2 3628.9,457.2L3637.4,464.9C3639.2,466.6 3640.8,468.5 3642,470.7L3652.2,488.8C3657.7,498.6 3669.5,502.9 3680,499.1L3682.7,498.1C3688.9,495.8 3695.7,496.3 3701.5,499.5L3711.2,504.8C3715.1,506.9 3719.5,507.9 3724,507.5L3752.1,505.3C3759.8,504.7 3767.3,508 3772,514.1L3821.4,577.8L3835.3,614.5C3837,618.9 3839.9,622.7 3843.8,625.3L3863.2,638.7C3875.7,647.4 3886.5,658.4 3894.9,671L3907.6,690L4007.2,1031.6L2999.7,1031.6L3079.1,394.7Z" style="fill:rgb(106,112,92);fill-rule:nonzero;"/>
                <path d="M2883.5,323.7C2883.5,323.7 2972.3,322.1 2991.6,363.6L2992.2,372.1C2992.2,372.1 2934.8,330.4 2884.1,332.9L2883.5,323.7Z" style="fill:rgb(193,175,159);fill-rule:nonzero;"/>
                <path d="M2884.4,332.5C2884.4,332.5 2901.6,331.8 2908.4,331.8C2915.1,331.8 2927.1,340 2934.6,341.5C2937.3,342 2946.5,347.5 2955.6,346.7C2963.4,346.1 2972.2,357.4 2978.1,362.4C2985.1,368.4 3006.6,358.1 3023.1,358.7C3044.3,359.5 3064.5,373.7 3088.3,369.9C3109,366.6 3151.2,391.6 3178.9,362.4C3189.2,351.5 3200.1,371.8 3228.6,394C3255.2,414.7 3248.5,439.9 3278.6,458.9C3306.5,476.6 3321.8,475.7 3344.5,469.5C3374.1,461.3 3400.5,500.8 3433.7,508.5C3482.6,519.9 3486.5,535.5 3489.1,544.5C3491.5,552.6 3521.7,579.1 3537,595.4C3549.9,609.1 3592.3,587.8 3607.4,588.7C3657.6,591.7 3658.9,651.6 3777.5,651.6C3799.7,651.6 3965.4,770.1 3990.2,788C3992.3,789.5 3994.1,791.2 3995.7,793.2L4235,1080L2665,1080L2467.1,410.4L2593.7,405.2L2735.3,358L2884.4,332.5Z" style="fill:rgb(105,124,82);fill-rule:nonzero;"/>
                <path d="M2439.4,448.6C2439.4,448.6 2437.9,466.6 2428.2,478.6C2418.5,490.6 2414.7,506.3 2413.2,509.3C2412.9,509.9 2407.8,518.6 2403.4,524C2395.1,534.2 2385.5,501.8 2376.5,510.8L2361.9,521.6C2356.3,525.8 2351.8,527.2 2345.8,531C2339.1,535.3 2337.3,549.8 2330.7,557.1L2321.1,567.6C2314.7,574.6 2309.9,582.8 2307.1,591.8C2303.6,603 2297.1,613 2288.3,620.7L2274.7,632.8L2167.9,662.5C2151.8,667 2138,677.5 2129.4,691.8L2125.3,698.6C2119.2,708.8 2109.5,716.3 2098.2,719.8C2076,726.6 2056.3,739.8 2041.6,757.8L2031.1,770.7L1997.2,787.2L1971.8,790.6C1970,790.8 1968.2,791.3 1966.5,792.1L1948,800C1943.5,801.9 1938.5,802.2 1933.8,800.7L1922.6,797.1C1916.6,795.2 1910,796.2 1904.8,799.8L1894.2,807.2C1893.5,807.7 1892.7,808.2 1891.9,808.6L1865.9,822C1862.2,823.9 1857.9,824.6 1853.8,824L1844.5,822.7C1832.4,821 1820.1,825.1 1811.6,833.9L1796.1,849.9C1794.2,851.9 1791.9,853.4 1789.4,854.5L1751.1,870.7C1749.2,871.5 1747.4,872.6 1745.8,874L1706,908L1670,941L1557,1078L2401,1078L2538.2,689.1L2625.9,567.7L2439.4,448.6Z" style="fill:rgb(88,137,40);fill-rule:nonzero;"/>
                <path d="M3991,1080L3921.2,934.8L3839.1,816.5C3819.2,787.8 3786.5,770.7 3751.5,770.7L3688.6,770.7C3669,770.7 3649.8,765.3 3633.1,755.2C3585.3,726.2 3483.9,667.6 3463.9,680.4C3437.4,697.2 3234.1,593.9 3201.9,596.1C3169.7,598.3 3110.5,575.9 3070,545.2C3029.5,514.5 2859.5,566.9 2783.8,564.7C2708.1,562.5 2671.5,605 2671.5,605L2268.6,753.2L2133,1080L3991,1080Z" style="fill:rgb(109,160,50);fill-rule:nonzero;"/>
                <g>
                    <rect x="2863.2" y="299.1" width="15" height="9.4" style="fill:rgb(181,163,147);"/>
                    <g>
                        <g>
                            <path d="M2867.1,303.7L2868.9,303.7C2868.9,303.7 2869,301.4 2868,301.4C2867,301.4 2867.1,303.7 2867.1,303.7Z" style="fill:rgb(153,134,117);fill-rule:nonzero;"/>
                            <path d="M2867.4,303.7L2869,303.7C2869,303.7 2869.1,302 2868.5,301.6C2867.2,301.3 2867.4,303.7 2867.4,303.7Z" style="fill:rgb(115,99,87);fill-rule:nonzero;"/>
                        </g>
                        <g>
                            <path d="M2871.8,303.7L2873.6,303.7C2873.6,303.7 2873.7,301.4 2872.7,301.4C2871.7,301.4 2871.8,303.7 2871.8,303.7Z" style="fill:rgb(153,134,117);fill-rule:nonzero;"/>
                            <path d="M2872,303.7L2873.6,303.7C2873.6,303.7 2873.7,302 2873.1,301.6C2871.8,301.3 2872,303.7 2872,303.7Z" style="fill:rgb(115,99,87);fill-rule:nonzero;"/>
                        </g>
                    </g>
                    <g>
                        <path d="M2870.6,292.8C2870.1,293.5 2865.3,299 2862,298C2861.9,298 2861.9,298.1 2861.9,298.1L2863,299.1L2870.5,299.1L2870.6,292.8C2870.7,292.8 2870.6,292.8 2870.6,292.8Z" style="fill:rgb(153,134,117);fill-rule:nonzero;"/>
                        <path d="M2878.3,299.1L2879.4,298.1C2879.5,298 2879.4,298 2879.3,298C2876,299 2871.3,293.5 2870.7,292.8L2870.6,292.8L2870.6,299.2L2878.3,299.1Z" style="fill:rgb(137,119,104);fill-rule:nonzero;"/>
                    </g>
                </g>
                <g>
                    <g>
                        <path d="M2858.5,306.7L2858.5,308.9L2856.2,354.2L2885.5,354.2L2882.6,308.9L2882.6,306.7L2858.5,306.7Z" style="fill:rgb(199,178,153);fill-rule:nonzero;"/>
                        <rect x="2858.5" y="305.5" width="2.4" height="1.2" style="fill:rgb(199,178,153);"/>
                        <rect x="2862.1" y="305.5" width="2.4" height="1.2" style="fill:rgb(199,178,153);"/>
                        <rect x="2865.7" y="305.5" width="2.4" height="1.2" style="fill:rgb(199,178,153);"/>
                        <rect x="2869.3" y="305.5" width="2.4" height="1.2" style="fill:rgb(199,178,153);"/>
                        <rect x="2872.9" y="305.5" width="2.4" height="1.2" style="fill:rgb(199,178,153);"/>
                        <rect x="2876.5" y="305.5" width="2.4" height="1.2" style="fill:rgb(199,178,153);"/>
                        <rect x="2880.1" y="305.5" width="2.4" height="1.2" style="fill:rgb(199,178,153);"/>
                        <rect x="2858" y="308.4" width="25.1" height="0.5" style="fill:rgb(153,134,117);"/>
                    </g>
                    <g>
                        <g>
                            <path d="M2861.9,317.4L2864.9,317.4C2864.9,317.4 2865.1,313.7 2863.4,313.7C2861.7,313.7 2861.9,317.4 2861.9,317.4Z" style="fill:rgb(153,134,117);fill-rule:nonzero;"/>
                            <path d="M2862.5,317.4L2865,317.4C2865,317.4 2865.1,314.7 2864.2,314C2862.2,313.6 2862.5,317.4 2862.5,317.4Z" style="fill:rgb(115,99,87);fill-rule:nonzero;"/>
                        </g>
                        <g>
                            <path d="M2868.6,317.4L2871.6,317.4C2871.6,317.4 2871.8,313.7 2870.1,313.7C2868.4,313.7 2868.6,317.4 2868.6,317.4Z" style="fill:rgb(153,134,117);fill-rule:nonzero;"/>
                            <path d="M2869.2,317.4L2871.7,317.4C2871.7,317.4 2871.8,314.7 2870.9,314C2868.9,313.6 2869.2,317.4 2869.2,317.4Z" style="fill:rgb(115,99,87);fill-rule:nonzero;"/>
                        </g>
                        <g>
                            <path d="M2876.1,317.4L2879.1,317.4C2879.1,317.4 2879.3,313.7 2877.6,313.7C2875.9,313.7 2876.1,317.4 2876.1,317.4Z" style="fill:rgb(153,134,117);fill-rule:nonzero;"/>
                            <path d="M2876.6,317.4L2879.1,317.4C2879.1,317.4 2879.2,314.7 2878.3,314C2876.3,313.6 2876.6,317.4 2876.6,317.4Z" style="fill:rgb(115,99,87);fill-rule:nonzero;"/>
                        </g>
                    </g>
                </g>
                <path d="M2491.8,399.9C2491.8,399.9 2621,402.4 2688.8,363.2C2751,327.2 2884.3,334.7 2884.3,334.7L2885.8,355.7C2885.8,355.7 2850.6,355.2 2792.9,359.4C2762.2,361.6 2726.8,366.5 2688.8,384.1C2577.2,435.8 2491.8,417.8 2491.8,417.8L2491.8,399.9Z" style="fill:rgb(193,175,159);fill-rule:nonzero;"/>
                <path d="M2443,370.1L2443,374.5L2439.4,448.6L2497.1,465.1L2491.2,374.5L2491.2,370.1L2443,370.1Z" style="fill:rgb(199,178,153);fill-rule:nonzero;"/>
                <rect x="2443" y="367.7" width="4.8" height="2.4" style="fill:rgb(199,178,153);"/>
                <rect x="2450.2" y="367.7" width="4.8" height="2.4" style="fill:rgb(199,178,153);"/>
                <rect x="2457.5" y="367.7" width="4.8" height="2.4" style="fill:rgb(199,178,153);"/>
                <rect x="2464.7" y="367.7" width="4.8" height="2.4" style="fill:rgb(199,178,153);"/>
                <rect x="2471.9" y="367.7" width="4.8" height="2.4" style="fill:rgb(199,178,153);"/>
                <rect x="2479.1" y="367.7" width="4.8" height="2.4" style="fill:rgb(199,178,153);"/>
                <rect x="2486.4" y="367.7" width="4.8" height="2.4" style="fill:rgb(199,178,153);"/>
                <rect x="2442" y="373.5" width="50.1" height="1.1" style="fill:rgb(153,134,117);"/>
                <path d="M2440.9,417.9L2491.8,417.9L2494.8,423.9L2566.7,492L2591.4,500.3L2628.9,514.5L2646.9,545.2L2500,490.5L2440.9,417.9Z" style="fill:rgb(153,134,117);fill-rule:nonzero;"/>
                <path d="M2490.3,409.6L2494.8,415.6C2494.8,415.6 2553.2,483.1 2566.7,484.5C2580.9,486 2660.9,506 2670.4,553.3L2670.1,564.7L2661.9,564.7C2661.9,564.7 2654.4,528 2625.2,522.7C2625.2,522.7 2587.7,496.6 2566.8,494.2C2547.3,492 2490.4,417.8 2490.4,417.8L2490.4,409.6L2490.3,409.6Z" style="fill:rgb(206,188,170);fill-rule:nonzero;"/>
                <path d="M2489.5,409.6L2493.2,409.6C2493.2,409.6 2550.9,483.7 2569.6,484.5C2588.3,485.3 2645.5,508.2 2654.4,524.8L2648.3,525C2648.3,525 2630.7,497.9 2571.7,487.2C2570.7,487 2569.8,487 2568.8,487C2565.1,486.9 2548,481.6 2489.5,409.6Z" style="fill:rgb(199,178,153);fill-rule:nonzero;"/>
                <path d="M2440.9,410.4L2446.1,416.4C2446.1,416.4 2503.8,484.6 2513.5,491.3C2525.3,499.4 2611.6,510.8 2620.9,554.1L2620.6,565.5L2612.4,565.5C2612.4,565.5 2601.9,572.2 2588.4,561C2588.4,561 2569.1,546.6 2530,537.8C2493.3,529.6 2439.4,447.9 2439.4,447.9L2440.9,410.4Z" style="fill:rgb(206,188,170);fill-rule:nonzero;"/>
                <path d="M2440.9,410.4L2443.1,410.4C2443.1,410.4 2509,487.3 2518,491.3C2538.2,500.3 2608.6,519 2604.3,525.6L2598.2,525.8C2598.2,525.8 2594.5,518.3 2550.3,506.3C2549.4,506 2529.5,499.1 2528.6,498.8C2505.4,491.3 2512.1,489.8 2471.7,447.9C2466.6,442.7 2446.4,417 2440.9,410.4Z" style="fill:rgb(199,178,153);fill-rule:nonzero;"/>
                <g>
                    <path d="M2589.8,510.2L2589.8,517.4L2582.6,664.4L2677.7,664.4L2668,517.4L2668,510.2L2589.8,510.2Z" style="fill:rgb(199,178,153);fill-rule:nonzero;"/>
                    <rect x="2589.8" y="506.3" width="7.8" height="3.9" style="fill:rgb(199,178,153);"/>
                    <rect x="2601.6" y="506.3" width="7.8" height="3.9" style="fill:rgb(199,178,153);"/>
                    <rect x="2613.3" y="506.3" width="7.8" height="3.9" style="fill:rgb(199,178,153);"/>
                    <rect x="2625" y="506.3" width="7.8" height="3.9" style="fill:rgb(199,178,153);"/>
                    <rect x="2636.7" y="506.3" width="7.8" height="3.9" style="fill:rgb(199,178,153);"/>
                    <rect x="2648.5" y="506.3" width="7.8" height="3.9" style="fill:rgb(199,178,153);"/>
                    <rect x="2660.2" y="506.3" width="7.8" height="3.9" style="fill:rgb(199,178,153);"/>
                    <rect x="2588.3" y="515.7" width="81.3" height="1.8" style="fill:rgb(193,175,159);"/>
                </g>
                <g>
                    <g>
                        <path d="M2611.4,570.7L2621.2,570.7C2621.2,570.7 2622,558.6 2616.3,558.6C2610.6,558.6 2611.4,570.7 2611.4,570.7Z" style="fill:rgb(153,134,117);fill-rule:nonzero;"/>
                        <path d="M2613.1,570.7L2621.2,570.7C2621.2,570.7 2621.6,561.9 2618.7,559.6C2612.1,558.2 2613.1,570.7 2613.1,570.7Z" style="fill:rgb(115,99,87);fill-rule:nonzero;"/>
                    </g>
                    <g>
                        <path d="M2624.8,581.2L2638.6,581.2C2638.6,581.2 2639.7,559.5 2631.7,559.5C2623.7,559.5 2624.8,581.2 2624.8,581.2Z" style="fill:rgb(153,134,117);fill-rule:nonzero;"/>
                        <path d="M2627,581.2L2638.5,581.2C2638.5,581.2 2639,565.4 2634.9,561.2C2625.6,558.7 2627,581.2 2627,581.2Z" style="fill:rgb(115,99,87);fill-rule:nonzero;"/>
                    </g>
                </g>
                <g>
                    <g>
                        <path d="M2601.6,545L2611.4,545C2611.4,545 2612.2,532.9 2606.5,532.9C2600.8,532.9 2601.6,545 2601.6,545Z" style="fill:rgb(153,134,117);fill-rule:nonzero;"/>
                        <path d="M2603.3,545L2611.4,545C2611.4,545 2611.8,536.2 2608.9,533.9C2602.3,532.5 2603.3,545 2603.3,545Z" style="fill:rgb(115,99,87);fill-rule:nonzero;"/>
                    </g>
                    <g>
                        <path d="M2617.3,545L2627.1,545C2627.1,545 2627.9,532.9 2622.2,532.9C2616.5,532.9 2617.3,545 2617.3,545Z" style="fill:rgb(153,134,117);fill-rule:nonzero;"/>
                        <path d="M2619,545L2627.1,545C2627.1,545 2627.5,536.2 2624.6,533.9C2618,532.5 2619,545 2619,545Z" style="fill:rgb(115,99,87);fill-rule:nonzero;"/>
                    </g>
                    <g>
                        <path d="M2633.1,545L2642.9,545C2642.9,545 2643.7,532.9 2638,532.9C2632.3,532.9 2633.1,545 2633.1,545Z" style="fill:rgb(153,134,117);fill-rule:nonzero;"/>
                        <path d="M2634.8,545L2642.9,545C2642.9,545 2643.3,536.2 2640.4,533.9C2633.8,532.5 2634.8,545 2634.8,545Z" style="fill:rgb(115,99,87);fill-rule:nonzero;"/>
                    </g>
                    <g>
                        <path d="M2648.8,545L2658.6,545C2658.6,545 2659.4,532.9 2653.7,532.9C2648,532.9 2648.8,545 2648.8,545Z" style="fill:rgb(153,134,117);fill-rule:nonzero;"/>
                        <path d="M2650.5,545L2658.6,545C2658.6,545 2659,536.2 2656.1,533.9C2649.5,532.5 2650.5,545 2650.5,545Z" style="fill:rgb(115,99,87);fill-rule:nonzero;"/>
                    </g>
                </g>
                <path d="M2449.9,391.5L2455.9,391.5C2455.9,391.5 2456.4,384 2452.9,384C2449.4,384 2449.9,391.5 2449.9,391.5Z" style="fill:rgb(153,134,117);fill-rule:nonzero;"/>
                <path d="M2450.8,391.5L2455.9,391.5C2455.9,391.5 2456.1,386.1 2454.3,384.6C2450.2,383.8 2450.8,391.5 2450.8,391.5Z" style="fill:rgb(115,99,87);fill-rule:nonzero;"/>
                <path d="M2463.3,391.5L2469.3,391.5C2469.3,391.5 2469.8,384 2466.3,384C2462.8,384 2463.3,391.5 2463.3,391.5Z" style="fill:rgb(153,134,117);fill-rule:nonzero;"/>
                <path d="M2464.2,391.5L2469.3,391.5C2469.3,391.5 2469.5,386.1 2467.7,384.6C2463.6,383.8 2464.2,391.5 2464.2,391.5Z" style="fill:rgb(115,99,87);fill-rule:nonzero;"/>
                <path d="M2471.6,417.9L2482.8,417.9C2482.8,417.9 2483.7,399.9 2477.2,399.9C2470.7,399.9 2471.6,417.9 2471.6,417.9Z" style="fill:rgb(153,134,117);fill-rule:nonzero;"/>
                <path d="M2473.4,417.9L2482.8,417.9C2482.8,417.9 2483.2,404.8 2479.9,401.4C2472.3,399.4 2473.4,417.9 2473.4,417.9Z" style="fill:rgb(115,99,87);fill-rule:nonzero;"/>
                <path d="M2478.2,391.5L2484.2,391.5C2484.2,391.5 2484.7,384 2481.2,384C2477.7,384 2478.2,391.5 2478.2,391.5Z" style="fill:rgb(153,134,117);fill-rule:nonzero;"/>
                <path d="M2479.1,391.5L2484.2,391.5C2484.2,391.5 2484.4,386.1 2482.6,384.6C2478.5,383.8 2479.1,391.5 2479.1,391.5Z" style="fill:rgb(115,99,87);fill-rule:nonzero;"/>
                <path d="M2587.7,567C2587.7,567 2573.5,596.2 2449.1,617.1C2324.7,638.1 2257.3,662.8 2257.3,662.8L2260.3,685.3L2426.6,649.3L2582.4,608.1L2588.4,587.1L2587.7,567Z" style="fill:rgb(199,178,153);fill-rule:nonzero;"/>
                <path d="M2592.9,567C2592.9,567 2582,594.7 2458,617.9C2326.1,642.6 2266.2,662.9 2266.2,662.9L2269.2,685.4L2435.5,649.4L2591.3,608.2L2592.8,588.7L2592.8,567L2592.9,567Z" style="fill:rgb(206,188,170);fill-rule:nonzero;"/>
                <path d="M2592.9,581.2L2672.2,581.2C2672.2,581.2 2663.3,660.6 2540.5,669.6C2417.6,678.6 2279.9,726.4 2276.9,732.4C2273.9,738.4 2151,734.7 2151,734.7C2151,734.7 2269.4,670.3 2387.7,649.3C2484.6,632.2 2591.2,608.9 2592.9,581.2Z" style="fill:rgb(153,134,117);fill-rule:nonzero;"/>
                <path d="M2673.1,596.2L2677.6,664.4C2677.6,664.4 2656.6,713.1 2520.3,722.1C2411.7,729.3 2311.3,773 2311.3,773L2260.4,746L2252.2,735.9L2417,685.3L2547.4,667.3L2627.3,644L2653.7,613.4L2673.1,596.2Z" style="fill:rgb(206,188,170);fill-rule:nonzero;"/>
                <path d="M2262.5,721.3C2262.5,721.3 2400.3,670.4 2482,664.4C2563.7,658.4 2622.1,647.9 2658.8,594C2658.8,594 2665.5,579.8 2666.3,568.5L2669.5,568.5C2670.5,568.5 2671.4,569.3 2671.4,570.3L2673,596.2C2673,596.2 2672.3,648.6 2583.8,666.6C2495.3,684.6 2412.2,683.1 2268.4,734L2262.5,721.3Z" style="fill:rgb(206,188,170);fill-rule:nonzero;"/>
                <path d="M3330.8,724.8C3330.8,724.8 3258.2,690.6 3160.1,689.9C3062,689.2 2833.5,791 2596.7,792.5C2449.9,793.4 2252.1,724.3 2252.1,724.3L2247.1,1081L3339.4,1081L3330.8,724.8Z" style="fill:rgb(193,175,159);fill-rule:nonzero;"/>
                <rect x="2174.1" y="614.2" width="75.7" height="47.2" style="fill:rgb(181,163,147);"/>
                <g>
                    <g>
                        <path d="M2194,637.4L2203.4,637.4C2203.4,637.4 2204.2,625.7 2198.7,625.7C2193.2,625.7 2194,637.4 2194,637.4Z" style="fill:rgb(153,134,117);fill-rule:nonzero;"/>
                        <path d="M2195.5,637.4L2203.4,637.4C2203.4,637.4 2203.8,628.9 2200.9,626.7C2194.5,625.4 2195.5,637.4 2195.5,637.4Z" style="fill:rgb(115,99,87);fill-rule:nonzero;"/>
                    </g>
                    <g>
                        <path d="M2217.4,637.4L2226.8,637.4C2226.8,637.4 2227.6,625.7 2222.1,625.7C2216.6,625.7 2217.4,637.4 2217.4,637.4Z" style="fill:rgb(153,134,117);fill-rule:nonzero;"/>
                        <path d="M2218.9,637.4L2226.8,637.4C2226.8,637.4 2227.2,628.9 2224.3,626.7C2217.9,625.4 2218.9,637.4 2218.9,637.4Z" style="fill:rgb(115,99,87);fill-rule:nonzero;"/>
                    </g>
                </g>
                <g>
                    <path d="M2211.9,582.1C2209.2,585.4 2185.1,613.5 2168.6,608.3C2168.2,608.2 2168,608.7 2168.3,608.9L2174,614.2C2174.1,614.3 2174.1,614.3 2174.2,614.3L2212.2,614.3L2212.2,582C2212.1,581.9 2212,582 2211.9,582.1Z" style="fill:rgb(153,134,117);fill-rule:nonzero;"/>
                    <path d="M2250.4,614.1L2256.1,608.8C2256.4,608.5 2256.1,608.1 2255.8,608.2C2239.3,613.4 2215.2,585.3 2212.5,582C2212.4,581.9 2212.3,581.9 2212.2,581.9L2212.2,614.2L2250.2,614.2C2250.3,614.2 2250.3,614.2 2250.4,614.1Z" style="fill:rgb(137,119,104);fill-rule:nonzero;"/>
                </g>
                <path d="M2148.6,652.6L2148.6,663.9L2127.1,1079L2277.6,1079L2272.4,663.9L2272.4,652.6L2148.6,652.6Z" style="fill:rgb(199,178,153);fill-rule:nonzero;"/>
                <rect x="2148.6" y="646.4" width="12.4" height="6.2" style="fill:rgb(199,178,153);"/>
                <rect x="2167.2" y="646.4" width="12.4" height="6.2" style="fill:rgb(199,178,153);"/>
                <rect x="2185.7" y="646.4" width="12.4" height="6.2" style="fill:rgb(199,178,153);"/>
                <rect x="2204.3" y="646.4" width="12.4" height="6.2" style="fill:rgb(199,178,153);"/>
                <rect x="2222.9" y="646.4" width="12.4" height="6.2" style="fill:rgb(199,178,153);"/>
                <rect x="2241.4" y="646.4" width="12.4" height="6.2" style="fill:rgb(199,178,153);"/>
                <rect x="2260" y="646.4" width="12.4" height="6.2" style="fill:rgb(199,178,153);"/>
                <rect x="2146.1" y="661.2" width="128.7" height="2.8" style="fill:rgb(153,134,117);"/>
                <g>
                    <path d="M2166.4,707.6L2181.8,707.6C2181.8,707.6 2183,688.4 2174.1,688.4C2165.1,688.4 2166.4,707.6 2166.4,707.6Z" style="fill:rgb(153,134,117);fill-rule:nonzero;"/>
                    <path d="M2169,707.6L2181.9,707.6C2181.9,707.6 2182.5,693.7 2177.9,690C2167.4,687.8 2169,707.6 2169,707.6Z" style="fill:rgb(115,99,87);fill-rule:nonzero;"/>
                </g>
                <g>
                    <path d="M2200.8,707.6L2216.2,707.6C2216.2,707.6 2217.4,688.4 2208.5,688.4C2199.6,688.4 2200.8,707.6 2200.8,707.6Z" style="fill:rgb(153,134,117);fill-rule:nonzero;"/>
                    <path d="M2203.3,707.6L2216.2,707.6C2216.2,707.6 2216.8,693.7 2212.2,690C2201.7,687.8 2203.3,707.6 2203.3,707.6Z" style="fill:rgb(115,99,87);fill-rule:nonzero;"/>
                </g>
                <g>
                    <path d="M2239.1,707.6L2254.5,707.6C2254.5,707.6 2255.7,688.4 2246.8,688.4C2237.8,688.4 2239.1,707.6 2239.1,707.6Z" style="fill:rgb(153,134,117);fill-rule:nonzero;"/>
                    <path d="M2241.7,707.6L2254.6,707.6C2254.6,707.6 2255.2,693.7 2250.6,690C2240.1,687.8 2241.7,707.6 2241.7,707.6Z" style="fill:rgb(115,99,87);fill-rule:nonzero;"/>
                </g>
                <path d="M2666.3,568.5L2669.8,568.5C2670.7,568.5 2671.5,569.3 2671.4,570.3C2670.5,580.2 2662.4,628.9 2589.9,652.4C2538.3,669.1 2507.4,670.1 2493.1,670C2466.3,669.7 2437.6,676.4 2428.1,677.9C2397,682.8 2364.4,692.1 2268.5,724.3L2268.5,719.1C2268.5,719.1 2403.5,666.6 2486.6,664C2569.7,661.4 2653.6,636.6 2666.3,568.5Z" style="fill:rgb(199,178,153);fill-rule:nonzero;"/>
                <g>
                    <path d="M3332.7,663.6L3332.7,685.7L3320.7,1078L3584.9,1078L3572.9,685.7L3572.9,663.6L3332.7,663.6Z" style="fill:rgb(199,178,153);fill-rule:nonzero;"/>
                    <rect x="3332.7" y="651.6" width="24" height="12" style="fill:rgb(199,178,153);"/>
                    <rect x="3368.7" y="651.6" width="24" height="12" style="fill:rgb(199,178,153);"/>
                    <rect x="3404.7" y="651.6" width="24" height="12" style="fill:rgb(199,178,153);"/>
                    <rect x="3440.8" y="651.6" width="24" height="12" style="fill:rgb(199,178,153);"/>
                    <rect x="3476.8" y="651.6" width="24" height="12" style="fill:rgb(199,178,153);"/>
                    <rect x="3512.9" y="651.6" width="24" height="12" style="fill:rgb(199,178,153);"/>
                    <rect x="3548.9" y="651.6" width="24" height="12" style="fill:rgb(199,178,153);"/>
                    <rect x="3327.9" y="680.4" width="249.9" height="5.4" style="fill:rgb(153,134,117);"/>
                </g>
                <g>
                    <g>
                        <path d="M3367.2,770.5L3397.2,770.5C3397.2,770.5 3399.6,733.3 3382.2,733.3C3364.8,733.3 3367.2,770.5 3367.2,770.5Z" style="fill:rgb(153,134,117);fill-rule:nonzero;"/>
                        <path d="M3372.2,770.5L3397.3,770.5C3397.3,770.5 3398.5,743.5 3389.5,736.3C3369.1,732.1 3372.2,770.5 3372.2,770.5Z" style="fill:rgb(115,99,87);fill-rule:nonzero;"/>
                    </g>
                    <g>
                        <path d="M3433.9,770.5L3463.9,770.5C3463.9,770.5 3466.3,733.3 3448.9,733.3C3431.5,733.3 3433.9,770.5 3433.9,770.5Z" style="fill:rgb(153,134,117);fill-rule:nonzero;"/>
                        <path d="M3438.8,770.5L3463.9,770.5C3463.9,770.5 3465.1,743.5 3456.1,736.3C3435.7,732.1 3438.8,770.5 3438.8,770.5Z" style="fill:rgb(115,99,87);fill-rule:nonzero;"/>
                    </g>
                    <g>
                        <path d="M3508.4,770.5L3538.4,770.5C3538.4,770.5 3540.8,733.3 3523.4,733.3C3506,733.3 3508.4,770.5 3508.4,770.5Z" style="fill:rgb(153,134,117);fill-rule:nonzero;"/>
                        <path d="M3513.3,770.5L3538.4,770.5C3538.4,770.5 3539.6,743.5 3530.6,736.3C3510.2,732.1 3513.3,770.5 3513.3,770.5Z" style="fill:rgb(115,99,87);fill-rule:nonzero;"/>
                    </g>
                </g>
                <g>
                    <path d="M3229.5,298.3L3229.5,300.3L3228.4,322L3251.6,322L3250.6,300.3L3250.6,298.3L3229.5,298.3Z" style="fill:rgb(199,178,153);fill-rule:nonzero;"/>
                    <rect x="3229.5" y="297.3" width="2.1" height="1.1" style="fill:rgb(199,178,153);"/>
                    <rect x="3232.6" y="297.3" width="2.1" height="1.1" style="fill:rgb(199,178,153);"/>
                    <rect x="3235.8" y="297.3" width="2.1" height="1.1" style="fill:rgb(199,178,153);"/>
                    <rect x="3239" y="297.3" width="2.1" height="1.1" style="fill:rgb(199,178,153);"/>
                    <rect x="3242.1" y="297.3" width="2.1" height="1.1" style="fill:rgb(199,178,153);"/>
                    <rect x="3245.3" y="297.3" width="2.1" height="1.1" style="fill:rgb(199,178,153);"/>
                    <rect x="3248.5" y="297.3" width="2.1" height="1.1" style="fill:rgb(199,178,153);"/>
                    <rect x="3229.1" y="299.8" width="21.9" height="0.5" style="fill:rgb(153,134,117);"/>
                </g>
                <g>
                    <g>
                        <path d="M3232.5,307.7L3235.1,307.7C3235.1,307.7 3235.3,304.4 3233.8,304.4C3232.3,304.4 3232.5,307.7 3232.5,307.7Z" style="fill:rgb(153,134,117);fill-rule:nonzero;"/>
                        <path d="M3232.9,307.7L3235.1,307.7C3235.1,307.7 3235.2,305.3 3234.4,304.7C3232.6,304.3 3232.9,307.7 3232.9,307.7Z" style="fill:rgb(115,99,87);fill-rule:nonzero;"/>
                    </g>
                    <g>
                        <path d="M3238.4,307.7L3241,307.7C3241,307.7 3241.2,304.4 3239.7,304.4C3238.2,304.4 3238.4,307.7 3238.4,307.7Z" style="fill:rgb(153,134,117);fill-rule:nonzero;"/>
                        <path d="M3238.8,307.7L3241,307.7C3241,307.7 3241.1,305.3 3240.3,304.7C3238.5,304.3 3238.8,307.7 3238.8,307.7Z" style="fill:rgb(115,99,87);fill-rule:nonzero;"/>
                    </g>
                    <g>
                        <path d="M3244.9,307.7L3247.5,307.7C3247.5,307.7 3247.7,304.4 3246.2,304.4C3244.7,304.4 3244.9,307.7 3244.9,307.7Z" style="fill:rgb(153,134,117);fill-rule:nonzero;"/>
                        <path d="M3245.3,307.7L3247.5,307.7C3247.5,307.7 3247.6,305.3 3246.8,304.7C3245,304.3 3245.3,307.7 3245.3,307.7Z" style="fill:rgb(115,99,87);fill-rule:nonzero;"/>
                    </g>
                </g>
                <path d="M2888.1,363.2L2887.4,343.7C2887.4,343.7 2840.2,339.2 2794.5,349.7C2752.5,359.3 2772.5,363.3 2711.4,373.2C2698,375.4 2684.9,379 2672.4,384C2651.3,392.4 2605,409.6 2578,414.9C2545.2,421.3 2506.1,419.8 2506.1,419.8L2545.8,439.6L2888.1,363.2Z" style="fill:rgb(105,124,82);fill-rule:nonzero;"/>
            </g>
            <g id="Bäume">
                <g>
                    <path d="M2629.1,697.1L2631.5,694.7C2630.9,694.5 2630.3,694.3 2629.7,694.1L2628.6,697C2628.8,697.1 2628.9,697.1 2629.1,697.1Z" style="fill:none;fill-rule:nonzero;"/>
                    <path d="M2619.1,699.9C2619.5,699.9 2619.9,699.9 2620.3,700C2621.6,698.5 2623.7,697.4 2626.3,697.1L2627.7,693.2C2627,692.8 2626.4,692.4 2625.9,692C2624.2,694 2621.6,695.5 2618.6,696.2L2618.6,700C2618.7,699.9 2618.9,699.9 2619.1,699.9Z" style="fill:none;fill-rule:nonzero;"/>
                    <path d="M2627.4,697C2627.8,697 2628.2,697 2628.6,697.1L2629.7,694.2C2629,693.9 2628.3,693.6 2627.6,693.2L2626.2,697.1C2626.6,697 2627,697 2627.4,697Z" style="fill:rgb(137,79,36);fill-rule:nonzero;"/>
                    <path d="M2614.9,700.7C2616,700.2 2617.2,700 2618.5,699.9L2618.5,696.1C2617.3,696.4 2616.1,696.6 2614.9,696.6L2614.9,700.7Z" style="fill:rgb(137,79,36);fill-rule:nonzero;"/>
                    <path d="M2614.9,741L2618.5,741L2618.5,712.2L2618.8,711.9C2617.4,711.9 2616,711.6 2614.9,711.1L2614.9,741Z" style="fill:rgb(137,79,36);fill-rule:nonzero;"/>
                    <path d="M2629.1,697.1C2630.4,697.3 2631.5,697.7 2632.5,698.2L2635.4,695.3C2634,695.2 2632.7,695 2631.5,694.7L2629.1,697.1Z" style="fill:rgb(137,79,36);fill-rule:nonzero;"/>
                    <path d="M2643.4,676.4C2643.8,675.5 2643.9,674.6 2643.9,673.6C2643.9,668 2637.6,663.5 2629.8,663.5C2629,663.5 2628.3,663.5 2627.6,663.6C2625.6,658.6 2620.7,655.1 2614.8,655L2614.8,696.7C2616.1,696.6 2617.3,696.5 2618.4,696.2C2621.5,695.4 2624.1,693.9 2625.7,692C2626.3,692.4 2626.9,692.9 2627.5,693.2C2628.1,693.6 2628.8,693.9 2629.6,694.2C2630.2,694.4 2630.8,694.6 2631.4,694.8C2632.6,695.1 2633.9,695.3 2635.3,695.4L2636.3,695.4C2644.1,695.4 2650.4,690.9 2650.4,685.3C2650.5,681.5 2647.6,678.2 2643.4,676.4Z" style="fill:rgb(71,150,45);fill-rule:nonzero;"/>
                    <path d="M2628.4,697.9L2629.1,697.2C2629,697.2 2628.8,697.2 2628.7,697.1L2628.4,697.9Z" style="fill:rgb(71,150,45);fill-rule:nonzero;"/>
                    <path d="M2632.5,698.2C2631.5,697.7 2630.4,697.3 2629.1,697.1L2628.4,697.8L2628.7,697C2628.3,697 2627.9,696.9 2627.5,696.9C2627.1,696.9 2626.7,696.9 2626.3,697C2623.7,697.3 2621.6,698.4 2620.3,699.9C2619.9,699.9 2619.5,699.8 2619.1,699.8L2618.6,699.8C2617.3,699.9 2616,700.1 2615,700.6L2615,711C2616.2,711.5 2617.5,711.8 2618.9,711.8L2619.1,711.8C2622.2,711.8 2624.8,710.6 2626.3,708.8C2626.7,708.8 2627.1,708.9 2627.5,708.9C2632.1,708.9 2635.9,706.2 2635.9,702.9C2635.8,701.1 2634.5,699.3 2632.5,698.2Z" style="fill:rgb(71,150,45);fill-rule:nonzero;"/>
                    <path d="M2611.5,708.5L2611.5,713.5L2604.1,702.8C2603.1,703.2 2602,703.5 2600.8,703.7L2611.5,719.1L2611.5,741L2614.9,741L2614.9,711.1C2613.4,710.5 2612.2,709.6 2611.5,708.5Z" style="fill:rgb(145,86,45);fill-rule:nonzero;"/>
                    <path d="M2613.9,696.7C2613.1,696.7 2612.3,696.6 2611.5,696.6L2611.5,703.4C2612.2,702.3 2613.4,701.4 2614.9,700.8L2614.9,696.8C2614.5,696.7 2614.2,696.7 2613.9,696.7Z" style="fill:rgb(145,86,45);fill-rule:nonzero;"/>
                    <path d="M2614.5,655C2607.2,655 2601.2,660.4 2600.5,667.2L2599.4,667.2C2591.6,667.2 2585.3,671.7 2585.3,677.3C2585.3,680.5 2587.3,683.3 2590.5,685.1C2586.3,686.9 2583.5,690.1 2583.5,693.9C2583.5,699.5 2589.8,704 2597.6,704C2598.7,704 2599.8,703.9 2600.8,703.7C2602,703.5 2603.1,703.2 2604.1,702.8C2607.6,701.5 2610.2,699.2 2611.2,696.5L2611.5,696.5C2612.3,696.6 2613.1,696.6 2613.9,696.6L2614.9,696.6L2614.9,655L2614.5,655Z" style="fill:rgb(99,170,72);fill-rule:nonzero;"/>
                    <path d="M2611.5,703.3C2611,704.1 2610.7,705 2610.7,705.9C2610.7,706.8 2611,707.7 2611.5,708.5C2612.2,709.6 2613.4,710.5 2614.9,711.1L2614.9,700.7C2613.4,701.3 2612.2,702.2 2611.5,703.3Z" style="fill:rgb(71,150,45);fill-rule:nonzero;"/>
                </g>
                <g>
                    <path d="M2783.6,585.5L2785.1,584C2784.7,583.9 2784.3,583.8 2784,583.6L2783.3,585.5C2783.4,585.4 2783.5,585.4 2783.6,585.5Z" style="fill:none;fill-rule:nonzero;"/>
                    <path d="M2777,587.2L2778,587.2C2778.8,586.2 2780.2,585.6 2781.8,585.4L2782.7,582.9C2782.3,582.7 2781.9,582.4 2781.6,582.1C2780.5,583.3 2778.9,584.3 2777,584.8L2777,587.2Z" style="fill:none;fill-rule:nonzero;"/>
                    <path d="M2781.8,585.4L2783.3,585.4L2784,583.5C2783.5,583.3 2783.1,583.1 2782.7,582.9L2781.8,585.4Z" style="fill:rgb(137,79,36);fill-rule:nonzero;"/>
                    <path d="M2774.7,587.7C2775.4,587.4 2776.2,587.2 2777,587.2L2777,584.8C2776.3,585 2775.5,585.1 2774.7,585.1L2774.7,587.7Z" style="fill:rgb(137,79,36);fill-rule:nonzero;"/>
                    <path d="M2774.7,613L2777,613L2777,594.9L2777.2,594.7C2776.3,594.7 2775.5,594.5 2774.7,594.2L2774.7,613Z" style="fill:rgb(137,79,36);fill-rule:nonzero;"/>
                    <path d="M2783.6,585.5C2784.4,585.6 2785.1,585.9 2785.7,586.2L2787.5,584.4C2786.6,584.4 2785.8,584.2 2785,584L2783.6,585.5Z" style="fill:rgb(137,79,36);fill-rule:nonzero;"/>
                    <path d="M2792.6,572.5C2792.8,571.9 2792.9,571.4 2792.9,570.8C2792.9,567.3 2788.9,564.4 2784.1,564.4C2783.6,564.4 2783.2,564.4 2782.7,564.5C2781.4,561.4 2778.3,559.2 2774.7,559.1L2774.7,585.3C2775.5,585.3 2776.3,585.1 2777,585C2778.9,584.5 2780.6,583.6 2781.6,582.3C2781.9,582.6 2782.3,582.8 2782.7,583.1C2783.1,583.3 2783.5,583.5 2784,583.7C2784.4,583.8 2784.7,584 2785.1,584.1C2785.9,584.3 2786.7,584.4 2787.6,584.5L2788.2,584.5C2793.1,584.5 2797,581.7 2797,578.1C2797,575.6 2795.2,573.6 2792.6,572.5Z" style="fill:rgb(71,150,45);fill-rule:nonzero;"/>
                    <path d="M2783.1,585.9L2783.6,585.4L2783.3,585.4L2783.1,585.9Z" style="fill:rgb(71,150,45);fill-rule:nonzero;"/>
                    <path d="M2785.7,586.2C2785.1,585.9 2784.4,585.6 2783.6,585.5L2783.1,586L2783.3,585.5L2781.7,585.5C2780.1,585.7 2778.7,586.4 2777.9,587.3L2776.9,587.3C2776.1,587.3 2775.3,587.5 2774.6,587.8L2774.6,594.3C2775.3,594.6 2776.2,594.8 2777.1,594.8L2777.3,594.8C2779.2,594.8 2780.9,594.1 2781.8,592.9L2782.5,592.9C2785.4,592.9 2787.8,591.2 2787.8,589.1C2787.8,587.9 2787,586.8 2785.7,586.2Z" style="fill:rgb(71,150,45);fill-rule:nonzero;"/>
                    <path d="M2772.5,592.6L2772.5,595.8L2767.8,589.1C2767.2,589.3 2766.5,589.5 2765.7,589.6L2772.4,599.3L2772.4,613L2774.5,613L2774.5,594.2C2773.7,593.9 2773,593.3 2772.5,592.6Z" style="fill:rgb(145,86,45);fill-rule:nonzero;"/>
                    <path d="M2774,585.2C2773.5,585.2 2773,585.2 2772.5,585.1L2772.5,589.4C2773,588.7 2773.7,588.1 2774.6,587.8L2774.6,585.3C2774.5,585.2 2774.2,585.2 2774,585.2Z" style="fill:rgb(145,86,45);fill-rule:nonzero;"/>
                    <path d="M2774.4,559C2769.8,559 2766,562.4 2765.6,566.7L2764.9,566.7C2760,566.7 2756.1,569.5 2756.1,573.1C2756.1,575.1 2757.4,576.9 2759.3,578C2756.7,579.1 2754.9,581.1 2754.9,583.5C2754.9,587 2758.9,589.9 2763.7,589.9C2764.4,589.9 2765.1,589.8 2765.7,589.7C2766.4,589.6 2767.1,589.4 2767.8,589.2C2770,588.4 2771.6,586.9 2772.3,585.2L2772.5,585.2C2773,585.3 2773.5,585.3 2774,585.3L2774.6,585.3L2774.6,559L2774.4,559Z" style="fill:rgb(99,170,72);fill-rule:nonzero;"/>
                    <path d="M2772.5,589.3C2772.2,589.8 2772,590.3 2772,590.9C2772,591.5 2772.2,592 2772.5,592.5C2773,593.2 2773.7,593.8 2774.6,594.1L2774.6,587.6C2773.7,588.1 2773,588.7 2772.5,589.3Z" style="fill:rgb(71,150,45);fill-rule:nonzero;"/>
                </g>
                <g>
                    <path d="M2842.6,564.5L2844.1,563C2843.7,562.9 2843.3,562.8 2843,562.6L2842.3,564.5C2842.4,564.4 2842.5,564.4 2842.6,564.5Z" style="fill:none;fill-rule:nonzero;"/>
                    <path d="M2836,566.2L2837,566.2C2837.8,565.2 2839.2,564.6 2840.8,564.4L2841.7,561.9C2841.3,561.7 2840.9,561.4 2840.6,561.1C2839.5,562.3 2837.9,563.3 2836,563.8L2836,566.2Z" style="fill:none;fill-rule:nonzero;"/>
                    <path d="M2840.8,564.4L2842.3,564.4L2843,562.5C2842.5,562.3 2842.1,562.1 2841.7,561.9L2840.8,564.4Z" style="fill:rgb(137,79,36);fill-rule:nonzero;"/>
                    <path d="M2833.7,566.7C2834.4,566.4 2835.2,566.2 2836,566.2L2836,563.8C2835.3,564 2834.5,564.1 2833.7,564.1L2833.7,566.7Z" style="fill:rgb(137,79,36);fill-rule:nonzero;"/>
                    <path d="M2833.7,592L2836,592L2836,573.9L2836.2,573.7C2835.3,573.7 2834.5,573.5 2833.7,573.2L2833.7,592Z" style="fill:rgb(137,79,36);fill-rule:nonzero;"/>
                    <path d="M2842.6,564.5C2843.4,564.6 2844.1,564.9 2844.7,565.2L2846.5,563.4C2845.6,563.4 2844.8,563.2 2844,563L2842.6,564.5Z" style="fill:rgb(137,79,36);fill-rule:nonzero;"/>
                    <path d="M2851.6,551.5C2851.8,550.9 2851.9,550.4 2851.9,549.8C2851.9,546.3 2847.9,543.4 2843.1,543.4C2842.6,543.4 2842.2,543.4 2841.7,543.5C2840.4,540.4 2837.3,538.2 2833.7,538.1L2833.7,564.3C2834.5,564.3 2835.3,564.1 2836,564C2837.9,563.5 2839.6,562.6 2840.6,561.3C2840.9,561.6 2841.3,561.8 2841.7,562.1C2842.1,562.3 2842.5,562.5 2843,562.7C2843.4,562.8 2843.7,563 2844.1,563.1C2844.9,563.3 2845.7,563.4 2846.6,563.5L2847.2,563.5C2852.1,563.5 2856,560.7 2856,557.1C2856,554.6 2854.2,552.6 2851.6,551.5Z" style="fill:rgb(71,150,45);fill-rule:nonzero;"/>
                    <path d="M2842.1,564.9L2842.6,564.4L2842.3,564.4L2842.1,564.9Z" style="fill:rgb(71,150,45);fill-rule:nonzero;"/>
                    <path d="M2844.7,565.2C2844.1,564.9 2843.4,564.6 2842.6,564.5L2842.1,565L2842.3,564.5L2840.7,564.5C2839.1,564.7 2837.7,565.4 2836.9,566.3L2835.9,566.3C2835.1,566.3 2834.3,566.5 2833.6,566.8L2833.6,573.3C2834.3,573.6 2835.2,573.8 2836.1,573.8L2836.3,573.8C2838.2,573.8 2839.9,573.1 2840.8,571.9L2841.5,571.9C2844.4,571.9 2846.8,570.2 2846.8,568.1C2846.8,566.9 2846,565.8 2844.7,565.2Z" style="fill:rgb(71,150,45);fill-rule:nonzero;"/>
                    <path d="M2831.5,571.6L2831.5,574.8L2826.8,568.1C2826.2,568.3 2825.5,568.5 2824.7,568.6L2831.4,578.3L2831.4,592L2833.5,592L2833.5,573.2C2832.7,572.9 2832,572.3 2831.5,571.6Z" style="fill:rgb(145,86,45);fill-rule:nonzero;"/>
                    <path d="M2833,564.2C2832.5,564.2 2832,564.2 2831.5,564.1L2831.5,568.4C2832,567.7 2832.7,567.1 2833.6,566.8L2833.6,564.3C2833.5,564.2 2833.2,564.2 2833,564.2Z" style="fill:rgb(145,86,45);fill-rule:nonzero;"/>
                    <path d="M2833.4,538C2828.8,538 2825,541.4 2824.6,545.7L2823.9,545.7C2819,545.7 2815.1,548.5 2815.1,552.1C2815.1,554.1 2816.4,555.9 2818.3,557C2815.7,558.1 2813.9,560.1 2813.9,562.5C2813.9,566 2817.9,568.9 2822.7,568.9C2823.4,568.9 2824.1,568.8 2824.7,568.7C2825.4,568.6 2826.1,568.4 2826.8,568.2C2829,567.4 2830.6,565.9 2831.3,564.2L2831.5,564.2C2832,564.3 2832.5,564.3 2833,564.3L2833.6,564.3L2833.6,538L2833.4,538Z" style="fill:rgb(99,170,72);fill-rule:nonzero;"/>
                    <path d="M2831.5,568.3C2831.2,568.8 2831,569.3 2831,569.9C2831,570.5 2831.2,571 2831.5,571.5C2832,572.2 2832.7,572.8 2833.6,573.1L2833.6,566.6C2832.7,567.1 2832,567.7 2831.5,568.3Z" style="fill:rgb(71,150,45);fill-rule:nonzero;"/>
                </g>
                <g>
                    <path d="M3122.5,641.6C3122.5,639.4 3119.4,637.5 3115,636.8L3115,636.5C3115,632.9 3109.9,630.1 3103.5,630.1C3101.9,630.1 3100.3,630.3 3098.9,630.6L3098.9,655.6C3099.6,655.7 3100.3,655.8 3101.1,655.8L3101.5,655.8C3104.5,655.7 3107.1,654.7 3108.3,653.2C3108.8,653.3 3109.4,653.3 3110,653.3C3114.8,653.3 3118.7,651.1 3118.7,648.3C3118.7,647.4 3118.3,646.6 3117.6,645.9C3120.6,644.9 3122.5,643.3 3122.5,641.6Z" style="fill:rgb(71,150,45);fill-rule:nonzero;"/>
                    <path d="M3092.9,634.1L3092.1,634.1C3085.8,634.1 3080.6,637 3080.6,640.5C3080.6,641.3 3080.9,642.1 3081.3,642.8C3078.4,643.3 3076.4,644.5 3076.4,645.9C3076.4,646.8 3077.2,647.5 3078.4,648.1C3076.5,648.7 3075.4,649.5 3075.4,650.4C3075.4,651.7 3077.7,652.7 3081,653.2C3081,653.3 3080.9,653.5 3080.9,653.6C3080.9,655.3 3084,656.7 3087.7,656.7C3089.1,656.7 3090.4,656.5 3091.4,656.2C3092.1,656 3092.8,655.7 3093.3,655.4C3094,654.9 3094.4,654.4 3094.5,653.8C3094.9,654.2 3095.4,654.5 3096,654.8C3096.8,655.2 3097.8,655.5 3098.9,655.7L3098.9,630.7C3096.2,631.2 3094,632.5 3092.9,634.1Z" style="fill:rgb(99,170,72);fill-rule:nonzero;"/>
                </g>
                <g>
                    <path d="M3103.6,650.3C3103.6,645.6 3110.2,641.6 3119.4,640.1L3119.4,639.4C3119.4,631.9 3130.2,625.9 3143.4,625.9C3146.8,625.9 3150,626.3 3153,627L3153,679.5C3151.5,679.7 3150,679.9 3148.4,679.9L3147.5,679.9C3141.2,679.7 3135.8,677.5 3133.3,674.4C3132.2,674.5 3131,674.6 3129.8,674.6C3119.7,674.6 3111.5,669.9 3111.5,664.2C3111.5,662.4 3112.3,660.6 3113.8,659.1C3107.6,657.2 3103.6,654 3103.6,650.3Z" style="fill:rgb(99,170,72);fill-rule:nonzero;"/>
                    <path d="M3153,627.1L3153,679.6C3155.2,679.2 3157.3,678.6 3159,677.8C3160.2,677.2 3161.3,676.5 3162.2,675.8C3162.3,677.1 3163.2,678.2 3164.7,679.2C3165.8,679.9 3167.1,680.5 3168.7,681C3171,681.7 3173.6,682.1 3176.5,682.1C3184.4,682.1 3190.8,679.2 3190.8,675.6C3190.8,675.3 3190.8,675 3190.7,674.7C3197.6,673.7 3202.4,671.4 3202.4,668.8C3202.4,666.9 3200,665.2 3196.1,664.1C3198.7,662.8 3200.3,661.2 3200.3,659.4C3200.3,656.5 3196.1,654 3190.1,652.9C3191.1,651.4 3191.7,649.8 3191.7,648.1C3191.7,640.6 3180.9,634.6 3167.7,634.6L3165.9,634.6C3163.5,631.2 3158.8,628.5 3153,627.1Z" style="fill:rgb(71,150,45);fill-rule:nonzero;"/>
                </g>
                <g>
                    <path d="M2494.8,694.6C2492.8,695.2 2490.6,695.6 2488.3,695.8L2488.3,701.8L2494.8,694.6Z" style="fill:none;fill-rule:nonzero;"/>
                    <path d="M2494.8,694.6L2488.3,701.8L2488.3,695.8C2487.8,695.8 2487.2,695.9 2486.7,695.9C2484.9,695.9 2483.2,695.7 2481.5,695.4L2481.5,760.8L2488.3,760.8L2488.3,709L2506.5,688.8C2505.5,688.8 2504.6,688.7 2503.7,688.6C2501.8,691.2 2498.7,693.3 2494.8,694.6Z" style="fill:rgb(137,79,36);fill-rule:nonzero;"/>
                    <path d="M2537,657.4C2537,651.4 2529.6,646.2 2519.2,644.3L2519.2,643.5C2519.2,633.9 2507.1,626.1 2492.2,626.1C2488.4,626.1 2484.7,626.6 2481.4,627.6L2481.4,695.5C2483,695.8 2484.8,696 2486.6,696C2487.1,696 2487.7,696 2488.2,695.9C2490.5,695.8 2492.7,695.4 2494.7,694.7C2498.6,693.5 2501.7,691.3 2503.6,688.7C2504.5,688.8 2505.5,688.9 2506.4,688.9L2507.5,688.9C2518.8,688.9 2528,682.9 2528,675.4C2528,673 2527.1,670.8 2525.4,668.9C2532.5,666.3 2537,662.2 2537,657.4Z" style="fill:rgb(71,150,45);fill-rule:nonzero;"/>
                    <path d="M2467.9,685C2468,685 2468,685.1 2468.1,685.1L2468.1,684.9C2468,685 2468,685 2467.9,685Z" style="fill:rgb(71,150,45);fill-rule:nonzero;"/>
                    <path d="M2475.3,693.2L2475.3,722.6L2467.9,715.2C2467.2,715.9 2466.3,716.5 2465.2,716.9L2475.2,727L2475.2,760.6L2481.4,760.6L2481.4,695.2C2479.2,694.9 2477.1,694.2 2475.3,693.2Z" style="fill:rgb(145,86,45);fill-rule:nonzero;"/>
                    <path d="M2469.1,707.1C2469.1,703.8 2466.1,701.2 2462.3,701.2C2458.5,701.2 2455.5,703.8 2455.5,707.1L2455.5,707.8C2452,708.6 2449.5,710.5 2449.5,712.8C2449.5,715.8 2453.9,718.2 2459.2,718.2C2461.4,718.2 2463.5,717.8 2465.1,717.1C2466.2,716.6 2467.1,716 2467.8,715.4C2468.5,714.6 2468.9,713.8 2468.9,712.9C2468.9,712 2468.5,711.2 2467.8,710.4C2468.7,709.4 2469.1,708.3 2469.1,707.1Z" style="fill:rgb(99,170,72);fill-rule:nonzero;"/>
                    <path d="M2467.1,637.1L2465.1,637.1C2450.2,637.1 2438.1,644.9 2438.1,654.5C2438.1,656.7 2438.7,658.8 2439.8,660.7C2433,662.1 2428.3,665.4 2428.3,669.1C2428.3,671.4 2430.1,673.5 2433.1,675.2C2428.7,676.7 2426,678.9 2426,681.3C2426,684.7 2431.4,687.6 2439.1,688.9C2439,689.3 2439,689.6 2439,690C2439,694.6 2446.2,698.3 2455.1,698.3C2463.8,698.3 2470.9,694.7 2471.2,690.3C2472.3,691.4 2473.7,692.4 2475.3,693.2C2477.1,694.1 2479.2,694.8 2481.5,695.3L2481.5,627.4C2474.9,629.3 2469.7,632.8 2467.1,637.1ZM2467.9,685L2468,684.9L2468,685.1L2467.9,685Z" style="fill:rgb(99,170,72);fill-rule:nonzero;"/>
                </g>
                <g>
                    <path d="M2696.8,710.8C2694.8,711.3 2692.6,711.6 2690.3,711.7L2690.3,716.3L2696.8,710.8Z" style="fill:none;fill-rule:nonzero;"/>
                    <path d="M2696.8,710.8L2690.3,716.3L2690.3,711.7L2688.7,711.7C2686.9,711.7 2685.2,711.6 2683.5,711.3L2683.5,761.7L2690.3,761.7L2690.3,721.9L2708.5,706.4C2707.5,706.4 2706.6,706.3 2705.7,706.2C2703.8,708.2 2700.7,709.8 2696.8,710.8Z" style="fill:rgb(137,79,36);fill-rule:nonzero;"/>
                    <path d="M2739,682.2C2739,677.6 2731.6,673.6 2721.2,672.1L2721.2,671.4C2721.2,664 2709.1,658 2694.2,658C2690.4,658 2686.7,658.4 2683.4,659.1L2683.4,711.4C2685,711.6 2686.8,711.8 2688.6,711.8L2690.2,711.8C2692.5,711.7 2694.7,711.4 2696.7,710.9C2700.6,709.9 2703.7,708.3 2705.6,706.3C2706.5,706.4 2707.5,706.4 2708.4,706.5L2709.5,706.5C2720.8,706.5 2730,701.9 2730,696.1C2730,694.3 2729.1,692.6 2727.4,691.1C2734.5,689 2739,685.8 2739,682.2Z" style="fill:rgb(71,150,45);fill-rule:nonzero;"/>
                    <path d="M2669.9,703.4C2670,703.4 2670,703.5 2670.1,703.5L2670.1,703.3C2670,703.4 2670,703.4 2669.9,703.4Z" style="fill:rgb(71,150,45);fill-rule:nonzero;"/>
                    <path d="M2677.3,709.8L2677.3,732.4L2669.9,726.7C2669.2,727.2 2668.3,727.7 2667.2,728L2677.2,735.8L2677.2,761.7L2683.4,761.7L2683.4,711.3C2681.2,711 2679.1,710.5 2677.3,709.8Z" style="fill:rgb(145,86,45);fill-rule:nonzero;"/>
                    <path d="M2671.1,720.4C2671.1,717.9 2668.1,715.9 2664.3,715.9C2660.5,715.9 2657.5,717.9 2657.5,720.4L2657.5,720.9C2654,721.5 2651.5,723 2651.5,724.7C2651.5,727 2655.9,728.8 2661.2,728.8C2663.4,728.8 2665.5,728.5 2667.1,727.9C2668.2,727.5 2669.1,727.1 2669.8,726.6C2670.5,726 2670.9,725.4 2670.9,724.6C2670.9,723.9 2670.5,723.3 2669.8,722.7C2670.7,722.2 2671.1,721.3 2671.1,720.4Z" style="fill:rgb(99,170,72);fill-rule:nonzero;"/>
                    <path d="M2669.1,666.5L2667.1,666.5C2652.2,666.5 2640.1,672.5 2640.1,679.9C2640.1,681.6 2640.7,683.2 2641.8,684.7C2635,685.8 2630.3,688.3 2630.3,691.2C2630.3,693 2632.1,694.6 2635.1,695.9C2630.7,697.1 2628,698.8 2628,700.6C2628,703.2 2633.4,705.5 2641.1,706.5C2641,706.8 2641,707.1 2641,707.4C2641,710.9 2648.2,713.8 2657.1,713.8C2665.8,713.8 2672.9,711.1 2673.2,707.6C2674.3,708.5 2675.7,709.2 2677.3,709.8C2679.1,710.5 2681.2,711.1 2683.5,711.4L2683.5,659.1C2676.9,660.5 2671.7,663.2 2669.1,666.5ZM2669.9,703.4C2669.9,703.4 2670,703.4 2670,703.3L2670,703.5L2669.9,703.4Z" style="fill:rgb(99,170,72);fill-rule:nonzero;"/>
                </g>
            </g>
        </g>
    </g>
</svg>
