<?xml version="1.0" encoding="UTF-8" standalone="no"?>
<!DOCTYPE svg PUBLIC "-//W3C//DTD SVG 1.1//EN" "http://www.w3.org/Graphics/SVG/1.1/DTD/svg11.dtd">
<svg width="100%" height="100%" viewBox="0 0 1210 827" version="1.1" xmlns="http://www.w3.org/2000/svg" xmlns:xlink="http://www.w3.org/1999/xlink" xml:space="preserve" xmlns:serif="http://www.serif.com/" style="fill-rule:evenodd;clip-rule:evenodd;stroke-linejoin:round;stroke-miterlimit:2;">
    <g transform="matrix(1,0,0,1,6366.4,-806.08)">
        <g id="_x34__fuji">
            <g id="fuji_vulkan">
                <g>
                    <g>
                        <path d="M-5156.4,1097.1C-5160.9,1095.4 -5164.3,1097.7 -5168.7,1096.1C-5173.2,1094.4 -5176.8,1092.1 -5181.1,1090.5C-5185.7,1088.8 -5193.1,1082.6 -5197.3,1081.1C-5202,1079.4 -5207.3,1081.2 -5211.4,1079.7C-5216.4,1077.8 -5216.4,1075.2 -5220.2,1073.8C-5228.5,1070.7 -5235.7,1065.9 -5235.7,1065.9C-5235.7,1065.9 -5239.1,1068.7 -5247.3,1065.1C-5251.1,1063.5 -5259.6,1060.2 -5264.6,1058C-5268.7,1056.3 -5272.6,1051.9 -5277.3,1049.9C-5281.5,1048.1 -5282.3,1049.9 -5286.9,1047.9C-5291.2,1046.1 -5299.7,1041.3 -5304.2,1039.4C-5308.5,1037.5 -5308.9,1038.5 -5313.4,1036.6C-5317.8,1034.7 -5325.9,1033 -5330.3,1031.2L-5334.7,1028.1L-5360.7,1024.1L-5565.7,983.1L-5741.7,955.1L-6000.7,969.1L-6118.7,990.1L-6140.7,990.1L-6150.2,994.3C-6150.2,994.3 -6154.7,995.7 -6160.3,997.2C-6163.6,998.1 -6168.8,998.3 -6172.2,999.2C-6176.5,1000.4 -6178.8,1002.9 -6179.7,1004C-6180,1004.4 -6180.4,1004.8 -6180.9,1005.1C-6182.6,1006.1 -6186.9,1008.5 -6192.7,1011C-6196.4,1012.6 -6202.2,1011 -6206.8,1013C-6210.8,1014.7 -6216.1,1016.4 -6220.4,1018.3C-6224.5,1020.1 -6226,1024.6 -6230.2,1026.4C-6234.5,1028.3 -6242.1,1027.7 -6246.1,1029.4C-6250.7,1031.4 -6256.1,1036.9 -6259.8,1038.5C-6264,1040.3 -6266.1,1041 -6267.2,1041.2C-6267.9,1041.4 -6268.6,1041.7 -6269.1,1042.2C-6271,1044 -6275.6,1047.9 -6281.3,1050.1C-6284.9,1051.4 -6288,1051.6 -6292.4,1053.3C-6296.3,1054.8 -6304.6,1056.5 -6308.8,1058.1C-6312.8,1059.6 -6316.2,1062.1 -6320.3,1063.7C-6324.5,1065.3 -6325.1,1065.4 -6328.9,1066.8C-6333.4,1068.5 -6338.9,1071.8 -6342.5,1073.1C-6348.8,1075.4 -6355.2,1076.3 -6357,1076.4L-6357.8,1076.4C-6359,1076.3 -6361.7,1079.5 -6366.8,1081.3L-6366.8,1633.3L-5156.8,1636.3L-5156.8,1097.1L-5156.4,1097.1Z" style="fill:rgb(103,107,98);fill-rule:nonzero;"/>
                        <path d="M-5791.6,845.1C-5792.1,845.1 -5792.7,845.3 -5793.3,845.6C-5795.9,847 -5797.9,848.5 -5798.6,849C-5798.8,849.1 -5799,849.3 -5799.2,849.3C-5800.6,849.9 -5805.6,851.9 -5808.6,850.6C-5810.2,849.9 -5811,848.9 -5811.2,848.1C-5811.6,847 -5812.5,846.2 -5813.7,846.1L-5827.2,845.1C-5827.6,845.1 -5827.9,845.1 -5828.3,845.2L-5834.2,847C-5834.6,847.1 -5835,847.2 -5835.4,847.1C-5836.7,846.9 -5839.9,846.9 -5841.6,849.9C-5842.5,851.6 -5842.7,853.7 -5842.7,855.6C-5842.7,857.7 -5844.8,859 -5846.7,858.2L-5856.2,854.1C-5856.3,854 -5856.5,854 -5856.6,854L-5869.3,850.6C-5870.3,850.3 -5871.5,850.6 -5872.2,851.5C-5873.5,852.9 -5876,855.4 -5880.5,858.2C-5883.8,860.3 -5887,864.5 -5891.3,867.2C-5894.9,869.5 -5903.2,870.8 -5907.2,873.3C-5910.9,875.6 -5913.2,876.6 -5917.1,879.1C-5920.9,881.5 -5926.5,887.3 -5930.3,889.7C-5934.2,892.1 -5935.8,896.9 -5939.6,899.3C-5943.5,901.8 -5946.9,898.4 -5950.6,900.7C-5954.6,903.2 -5956.9,909.9 -5960.5,912.2C-5964.8,914.9 -5972.8,914.7 -5976.1,916.7C-5983.2,921.2 -5986.8,922.8 -5986.8,922.8C-5986.8,922.8 -5989.1,929.8 -5997.1,933.2C-6000.7,934.8 -6008.5,934.9 -6013.3,936.9C-6017.2,938.6 -6018.1,937.1 -6022.6,939.1C-6026.7,940.8 -6029.9,944.5 -6034.3,946.4C-6038.4,948.2 -6044.3,953.5 -6048.6,955.4C-6052.8,957.2 -6055.4,956.8 -6059.7,958.6C-6063.9,960.4 -6071.6,964.3 -6075.8,966.2C-6080.1,968 -6083.2,964.3 -6087.4,966.1C-6091.7,968 -6094.9,970.3 -6099,972.1C-6103.4,974 -6109.1,981.2 -6113.2,982.9C-6117.7,984.8 -6122,980.8 -6126,982.5C-6130.8,984.6 -6133.6,986.9 -6137.2,988.5C-6139,989.3 -6140,989.7 -6141.5,990.4L-6137,992.7C-6125.8,998.3 -6112.7,998.9 -6100.9,994.4L-6089.1,989.8C-6077.8,985.4 -6065.3,985.8 -6054.3,990.9C-6043.2,996 -6030.5,996.4 -6019.1,991.8L-5983.6,977.6C-5975,974.2 -5965.6,973.5 -5956.6,975.7L-5911.3,986.6C-5899.8,989.4 -5887.7,987.5 -5877.6,981.3L-5867.7,975.2C-5861.8,971.6 -5855.2,969.4 -5848.3,968.8L-5808.1,965.3C-5801.2,964.7 -5794.2,965.7 -5787.7,968.3L-5783.9,969.8C-5775.5,973.2 -5766.2,973.9 -5757.4,971.9L-5750.3,970.3C-5741.3,968.2 -5731.8,969 -5723.3,972.6L-5706.6,979.6C-5705.3,980.2 -5703.9,980.6 -5702.5,981.1L-5656.1,995.2C-5647.8,997.7 -5639,997.8 -5630.6,995.3L-5614.9,990.7C-5604.1,987.5 -5592.5,988.6 -5582.5,993.6L-5571.4,999.2C-5564.6,1002.6 -5557,1004.2 -5549.4,1003.9L-5513.9,1002.2C-5508.2,1001.9 -5502.4,1002.8 -5497,1004.7L-5467.2,1015.2C-5462.4,1016.9 -5457.4,1017.7 -5452.4,1017.7L-5407,1017.7C-5398.2,1017.7 -5389.7,1020.3 -5382.4,1025.1L-5361.7,1038.9L-5334.3,1028.4C-5335.7,1027.1 -5336.9,1025.9 -5339.3,1024.8C-5343.8,1022.9 -5349,1022.2 -5353.3,1020.4C-5357.9,1018.4 -5363.4,1011.3 -5367.6,1009.5C-5372.3,1007.5 -5378.8,1010.3 -5382.9,1008.6C-5387.9,1006.5 -5392.1,1000.6 -5395.9,999C-5397.2,998.4 -5398.4,998 -5399.6,997.6C-5405.1,995.7 -5410.3,993 -5414.8,989.2C-5416,988.1 -5417.5,987.1 -5419.4,986.1C-5423,984.2 -5428.6,982.2 -5433.1,979.8C-5437,977.7 -5441.9,980.2 -5446.1,978C-5450.3,975.8 -5454.4,973.6 -5458.3,971.5C-5462.8,969.1 -5467.6,964.6 -5471.2,962.7C-5473.9,961.2 -5476.3,959.9 -5478.2,958.7C-5480.8,957.1 -5483.5,955.9 -5486.4,954.9C-5487.7,954.4 -5489.5,953.6 -5492,952.4C-5495.6,950.6 -5502.6,948.6 -5507.2,946.2C-5511.1,944.2 -5511.7,939.8 -5516,937.6C-5520.1,935.5 -5528.4,935 -5532.5,932.8C-5536.7,930.7 -5541.3,925.7 -5545.4,923.6C-5549.7,921.4 -5549.7,918.6 -5553.6,916.6C-5558.2,914.2 -5566.8,913.7 -5570.4,911.9C-5578,908 -5582.6,904.3 -5582.6,904.3C-5582.6,904.3 -5585.7,900.1 -5591.3,896C-5594.1,893.9 -5598,892.3 -5601.4,889.7C-5604.5,887.4 -5603.9,888.3 -5607,885.9C-5610.4,883.4 -5616.2,881.9 -5619,879.8C-5622.8,877 -5624.5,874 -5625.2,872.3C-5625.5,871.5 -5626.3,870.9 -5627.1,870.6C-5629.9,869.9 -5636.3,868.1 -5641.2,865.8C-5644.6,864.2 -5644.6,862.9 -5648.5,861.1C-5652.4,859.2 -5656.3,857.3 -5659.7,855.7C-5664.7,853.3 -5669.5,852.1 -5671.4,851.6C-5672,851.5 -5672.5,851.1 -5672.9,850.7C-5674,849.4 -5675.9,849.3 -5677.1,850.5C-5678.7,852.1 -5681.2,854.1 -5684.4,855C-5688.9,856.3 -5694.8,856.7 -5697.3,856.8C-5698.1,856.8 -5698.9,856.5 -5699.5,855.9L-5705.4,849.6C-5706.3,848.7 -5707.7,848.4 -5708.8,849C-5711.1,850.2 -5715.1,852.1 -5718.3,851.7C-5721.2,851.3 -5723.4,849.1 -5724.6,847.5C-5725.4,846.4 -5726.8,846.1 -5728,846.6L-5735.6,850C-5736,850.2 -5736.5,850.3 -5737,850.2C-5738.3,850.1 -5741.4,850 -5746,850.8C-5749.7,851.4 -5756.7,853.4 -5760.4,854C-5765,854.8 -5767.2,854.1 -5768.1,853.6C-5768.5,853.4 -5769,853.3 -5769.5,853.3C-5771.6,853.3 -5777,853.1 -5780,851.5C-5782.9,849.9 -5785.7,848.4 -5786.9,847.8C-5787.2,847.6 -5787.5,847.4 -5787.7,847.1C-5788.4,846.4 -5789.8,845.1 -5791.6,845.1Z" style="fill:white;fill-rule:nonzero;"/>
                    </g>
                </g>
            </g>
        </g>
    </g>
    <g id="_x33__chinesische_Mauer" transform="matrix(1,0,0,1,0,-253)">
        <g id="Berge_fuji">
            <path d="M1210,662L1151.1,648.4C1151.1,648.4 1116,651.4 1100.2,655.1C1084.4,658.8 995.3,684.8 995.3,684.8L956.4,692.6L918.7,692.9C894.3,691.2 844.3,684.7 844.3,684.7C825.4,683.3 793.1,675.5 778.8,669.3C762.1,662.1 737.7,650.5 737.7,650.5C737.7,650.5 670.2,633.4 664.1,633.4C658,633.4 641.1,630.5 641.1,630.5L607.2,630.1C607.2,630.1 557.5,635.8 553.9,635.5C550.3,635.1 534.5,633.7 534.5,633.7C534.5,633.7 504.2,637.3 487.3,637.3C470.3,637.3 436.4,623.4 436.4,623.4L421.9,623L398.9,619.1L381.9,617.7C381.9,617.7 373.4,618.4 366.2,620.2C358.9,622 355.3,622.7 344.4,625.2C333.5,627.7 332.3,625.6 332.3,625.6C332.3,625.6 327.5,624.2 320.2,621.3C312.9,618.4 312.9,622.4 312.9,622.4C312.9,622.4 299.6,624.9 294.7,625.6C289.9,626.3 286.2,625.6 282.6,624.9C279,624.2 277.8,623.8 265.6,623.1C253.5,622.4 251.1,623.8 240.2,625.6C229.3,627.4 226.9,627.7 217.2,629.2C207.5,630.6 207.5,631 201.5,631.3C195.4,631.7 185.8,630.6 185.8,630.6L138.6,621.3C138.6,621.3 120.4,623.1 116.8,623.8C113.2,624.5 107.1,625.9 107.1,625.9L90.1,623.8C90.1,623.8 76.8,626.7 70.7,628.4C64.6,630.1 57.4,630.5 50.1,633.4C42.8,636.3 34.4,635.2 34.4,635.2C34.4,635.2 9.7,638 0,638L0,1080L1210,1083L1210,662Z" style="fill:rgb(105,124,82);fill-rule:nonzero;"/>
        </g>
    </g>
    <g id="_x32__H端gel2_" serif:id="_x32__H端gel2" transform="matrix(1,0,0,1,0,-253)">
        <path d="M1210,1083L0,1083L0,860C162,807 278.8,876.4 424.8,895.8C498,905.5 572.3,903.4 644.9,889.7L963,797C1059.7,778.8 1116.1,798.6 1210,828L1210,1083Z" style="fill:rgb(152,181,49);fill-rule:nonzero;"/>
    </g>
    <g id="_x31__H端gel1_" serif:id="_x31__H端gel1" transform="matrix(1,0,0,1,0,-253)">
        <path d="M1210,1083L-0.4,1080C-0.4,1080 404.6,936 706.6,917C1008.6,898 988.1,971 1210,964L1210,1083Z" style="fill:rgb(172,198,79);fill-rule:nonzero;"/>
    </g>
</svg>
