<?xml version="1.0" encoding="utf-8"?>
<!-- Generator: Adobe Illustrator 24.2.1, SVG Export Plug-In . SVG Version: 6.00 Build 0)  -->
<svg version="1.1" xmlns="http://www.w3.org/2000/svg" xmlns:xlink="http://www.w3.org/1999/xlink" x="0px" y="0px"
	 viewBox="0 0 1879 1080" style="enable-background:new 0 0 1879 1080;" xml:space="preserve">
<style type="text/css">
	.st0{fill:#757A6C;}
	.st1{fill:#FFFFFF;}
	.st2{fill:#676B62;}
	.st3{fill:#697C52;}
	.st4{fill:#98B531;}
	.st5{fill:#ACC64F;}
</style>
<g id="_x36__mount_everest">
	<g id="Himalaya_Mount_Everest">
		<path class="st0" d="M1879,1081c-3.6-1.5,2.5-219,0-222l-33.8-32.5c-0.8-1-1.6-2-2.2-3.1l-37.4-62.8c-5.2-8.7-15.3-13.2-25.2-11.1
			l-1.7,0.4c-11.4,2.4-22.8-3.8-27-14.6l-10.7-27.6l-20.9-54.5c-2.6-6.7-8-11.8-14.8-14l-32.1-10.4c-1.4-0.5-2.8-1.1-4.1-1.8
			l-35.3-19.4c-5-2.7-8.8-7.2-10.8-12.5l-19.8-52.9c-2.1-5.6-6.2-10.2-11.6-12.9c-8.6-4.3-22.7-10.9-37.6-15.8
			c-11.4-3.7-25.2-25.3-34-41.1c-5.5-9.9-17.3-14.4-28.1-10.9l-28.7,9.5c-11.4,3.8-23.8-1.6-29-12.4c-9.8-20.7-24.9-51.3-30.1-55
			c-8-5.6-13,18.3-13,18.3s-20-10.1-29-13.5s-34-10.1-34-10.1l-11-15.7l-63-39.3c0,0-41-21.3-50-21.3s-12,10.1-19,15.7
			c-7,5.6-28,6.4-28,6.4s-24-20.3-33-27s-30-32.1-39-40l-19-25c-12-9-19-40.1-24-48s-45-25.1-49-36.4S956,125,952,125
			s-6,4.5-21,12.3c-15,7.9-27,35.9-27,35.9s-13,57.5-17,59.7s-58,50-58,50s-14,31.3-29,47s-12,36-21,45s-14,18.7-21,26.6
			c-7,7.9-30,15.7-30,15.7s0,0-7-9s-6-13.5-11-20.2c-5-6.7-22-14.6-37-20.2s-17-11.2-17-11.2l-27-30.3c0,0-27,22.4-37,29.2
			c-10,6.7-20,24.7-21,29.2c-1,4.5-34,9.8-39,15.4c-5,5.6-87,50.5-97,52.7c-10,2.2-65,25.8-65,25.8s-37,22.4-43,26.9
			c-6,4.5-63,2.2-70,0c-7-2.2-57,67.4-57,67.4s-69-14-71-14s-51,36.8-63,39S0,633,0,633v450L1879,1081z"/>
		<path class="st1" d="M554.9,374.4c0,0,16.5-17,24.8-37.2C588,317,624,301,624,301l27,31l35,15l22.1,21.4L724,388l38.8-24.4
			l19.5-33.8l18.8-32.1L828,248l56.1-43.7L901,134l46-39l51,52l46,32c0,0-6,37,81,114l39,31l19.8-15.2L1195,293l37,11l62,30l30,35
			l44,13l44,20l9,30l-85.7-18.4c-8.2-1.7-16.5-2.4-24.9-1.8l-77.1,5.1c-19.7,1.3-39.3-3.9-55.7-14.8l-26.4-17.5
			c-16.3-10.8-35.8-16-55.3-14.8l-63.8,4c-11.9,0.7-23.6,3.9-34.3,9.2l-71.1,35.1c-3.8,1.9-7.7,3.5-11.8,4.8
			c-20.8,6.9-88.3,29-89.9,29c-1.7,0-52.8-2.8-69.6-3.7c-3.6-0.2-7.1-0.6-10.6-1.2l-97-17c-7.8-1.4-15.7-1.7-23.5-1l-33.5,3
			c-21.7,1.9-43.4-4.1-61-17L520,408L554.9,374.4z"/>
	</g>
</g>
<g id="_x34__fuji">
	<g id="Himalaya">
		<path class="st2" d="M0,1081h1879V688.1c-1.6-1.2-11.9-2.5-13-3.9l-10.7-14.1c-5.5-7.2-17.4-10.9-29-9.2l-19.8,3
			c-5.5,0.8-11.2,0.5-16.3-1.1l-25.3-7.5c-4.9-1.5-10.4-1.9-15.7-1.2l-18.2,2.5c-12.5,1.7-25-3-29.6-11l-1.7-3c-1.5-2.7-4-5.1-7.3-7
			l-25.5-14.9c-3.6-2.1-8-3.5-12.8-4.1l-49.2-5.7l-38.4-23.5l-53.1,0.1l-50.7-18.6c-0.4-0.1-0.7-0.3-1.1-0.5
			c-16.1-8.1-62.1,55.4-85.9,52.2c-24-3.2-52.8-29.2-52.8-29.2s-43.2,3.2-49.2,3.2c-6,0-22.8-6.5-22.8-6.5l-33.6-0.8
			c0,0-49.2,13-52.8,12.2c-3.6-0.8-19.2-4.1-19.2-4.1s-30,8.1-46.8,8.1s-50.4-31.6-50.4-31.6l-14.4-0.8l-22.8-8.9l-16.8-3.2
			c0,0-8.4,1.6-15.6,5.7s-10.8,5.7-21.6,11.4s-12,0.8-12,0.8s-4.8-3.2-12-9.7s-7.2,2.4-7.2,2.4s-13.2,5.7-18,7.3
			c-4.8,1.6-8.4,0-12-1.6s-4.8-2.4-16.8-4.1c-12-1.6-14.4,1.6-25.2,5.7s-13.2,4.9-22.8,8.1c-9.6,3.2-9.6,4.1-15.6,4.9
			c-6,0.8-15.6-1.6-15.6-1.6l-46.8-21.1c0,0-18,4.1-21.6,5.7s-9.6,4.9-9.6,4.9l-16.8-4.9c0,0-13.2,6.5-19.2,10.5
			s-13.2,4.9-20.4,11.4s-15.6,4.1-15.6,4.1s-12,4.1-21.6,4.1s-10.8-0.8-16.8-4.1c-6-3.2-10.8-5.7-22.8-8.9
			c-12-3.2-21.6,2.4-21.6,2.4s0,0-7.2,2.4s-8.4,2.4-14.4,5.7c-6,3.2-9.6,3.2-14.4,3.2c-4.8,0-9.6-3.2-9.6-3.2s-22.8,0.8-30,2.4
			s-26.4,7.3-30,8.1c-3.6,0.8-18,8.1-27.6,19.5c-9.6,11.4-96,35.7-110.4,46.2c-14.4,10.5-15.6,15.4-15.6,15.4s-10.8,5.7-30,13
			c-19.2,7.3-31.2,6.5-40.8,8.9s-25.2,9.7-25.2,9.7s-3.7,11.9-12.1,14.4s-21.6,25-36,25c-0.4,0-0.8,0-1.2,0
			c-23-0.8-45.4,6.7-62.7,21.8c-5.4,4.7-11.2,8-17,8.3c-20.4,0.8-78.2,11.6-83,14"/>
	</g>
</g>
<g id="_x33__chinesische_Mauer">
	<g id="Himalaya_2_">
		<path class="st3" d="M1225,1080l-58-55.2l-17-15.2c-25.7-23-70.2-34.9-114.8-30.8h0c-26.7,2.5-53.9-0.8-77.2-9.2l0,0
			c-13-11.2-33.7-17.7-55.9-18.2c-15.3-0.4-27.8-4.3-34.1-7.7l-48.8-26c-12.5-6.7-29.8-8.7-45.4-5.4l-23.6,5
			c-19.7,4.2-41.4-0.2-53.3-10.8l-22.4-19.9c-5.5-4.9-13.3-8.6-22.4-10.6l-53.9-12.1c-11.6-2.6-21.1-8-26.4-14.9L532,808.3
			c-10.3-13.6-35-11.8-53.1-20.1l0,0c-19.9-20.5-57.9-31.4-95.9-27.5h0c-29.6,3-59.7-2.9-81.1-15.9l-56.5-34.3c-4.3-2.6-9-5-14-7
			l-50.7-20.8c-26-10.7-58.9-12.6-87.7-5.3c-36.4,9.3-82.7,21-93.1,22.7V1083L1225,1080z"/>
	</g>
</g>
<g id="_x32__Hügel2">
	<path class="st4" d="M1879,1081H0V930c120-30,138.1-65,296-53c217.4,16.5,400.2,84.7,455,84.2c177.9-1.5,271.6-113.5,550-116.8
		c261.4-3,412,127.5,578,71.5V1081z"/>
</g>
<g id="_x31__Hügel1">
	<path class="st5" d="M1879,1003.8v77.3H0l350.7-77.8c31.9-7.1,64.1-12.5,96.6-15.8c35.9-3.7,71.4-8.5,106.6-14.3L938,909.9
		c0,0,230-43.6,403.5-10.5L1879,1003.8z"/>
</g>
</svg>
