<?xml version="1.0" encoding="UTF-8" standalone="no"?>
<!DOCTYPE svg PUBLIC "-//W3C//DTD SVG 1.1//EN" "http://www.w3.org/Graphics/SVG/1.1/DTD/svg11.dtd">
<svg width="100%" height="100%" viewBox="0 0 1200 800" version="1.1" xmlns="http://www.w3.org/2000/svg" xmlns:xlink="http://www.w3.org/1999/xlink" xml:space="preserve" xmlns:serif="http://www.serif.com/" style="fill-rule:evenodd;clip-rule:evenodd;stroke-linejoin:round;stroke-miterlimit:2;">
    <g id="_x31__Hügel1_" serif:id="_x31__Hügel1" transform="matrix(1,0,0,1,-9046,-194)">
        <g id="Taj_Mahal">
            <g id="Säule_links_groß_1_">
                <path d="M9154.8,308.8L9154.7,306.8C9156.8,306.2 9158.2,304.9 9158.2,303.3C9158.2,301.6 9156.6,300.2 9154.4,299.7L9154.2,295.6C9155.7,295.2 9156.7,294.2 9156.7,293C9156.7,291.8 9155.5,290.7 9153.9,290.3L9153.8,287.3C9154.9,287 9155.7,286.2 9155.7,285.3C9155.7,284.4 9154.8,283.6 9153.6,283.3L9153.5,280.3C9154.4,279.9 9155,279 9155,278C9155,276.6 9153.9,275.5 9152.5,275.5C9151.1,275.5 9150,276.6 9150,278C9150,279 9150.6,279.9 9151.5,280.3L9151.4,283.3C9150.2,283.6 9149.3,284.4 9149.3,285.3C9149.3,286.2 9150.1,286.9 9151.2,287.3L9151.1,290.3C9149.5,290.7 9148.3,291.7 9148.3,293C9148.3,294.2 9149.3,295.2 9150.8,295.6L9150.6,299.7C9148.4,300.2 9146.8,301.6 9146.8,303.3C9146.8,304.9 9148.2,306.3 9150.3,306.8L9150.2,308.8C9150.2,313.1 9146.9,313.8 9146.9,313.8L9146.9,317.5L9158.3,317.5L9158.3,313.8C9158.1,313.8 9154.8,313.2 9154.8,308.8Z" style="fill:rgb(204,204,204);fill-rule:nonzero;"/>
                <path d="M9115,361.6C9113.9,361.2 9113.1,360.8 9112.5,360.3C9113.1,360.8 9113.9,361.3 9115,361.6Z" style="fill:rgb(219,204,193);fill-rule:nonzero;"/>
                <path d="M9191.8,360.4C9191.7,360.4 9191.7,360.5 9191.6,360.5C9191.7,360.5 9191.8,360.5 9191.8,360.4Z" style="fill:rgb(219,204,193);fill-rule:nonzero;"/>
                <path d="M9191.9,360.4L9191.9,360.4Z" style="fill:rgb(219,204,193);fill-rule:nonzero;"/>
                <path d="M9191.9,360.4C9192.7,359.8 9193.1,359.2 9193.1,358.6L9193.1,358.5C9193,359.2 9192.7,359.8 9191.9,360.4Z" style="fill:rgb(161,141,127);fill-rule:nonzero;"/>
                <path d="M9191.9,360.4C9191.9,360.4 9191.8,360.4 9191.9,360.4C9191.8,360.4 9191.9,360.4 9191.9,360.4Z" style="fill:rgb(161,141,127);fill-rule:nonzero;"/>
                <path d="M9111.4,358.4L9111.4,358.5C9111.4,359.1 9111.8,359.7 9112.6,360.3C9111.9,359.8 9111.5,359.2 9111.4,358.4Z" style="fill:rgb(161,141,127);fill-rule:nonzero;"/>
                <path d="M9183.5,350.8C9183.7,349.5 9183.8,348.1 9183.8,346.7C9183.8,329.6 9170,315.8 9152.9,315.8C9135.8,315.8 9122,329.6 9122,346.7C9122,348 9122.1,349.3 9122.2,350.6C9129.6,349.3 9140.2,348.5 9152.2,348.5C9164.8,348.6 9176.1,349.4 9183.5,350.8Z" style="fill:rgb(244,240,237);fill-rule:nonzero;"/>
                <path d="M9193.2,354.9C9193.1,353.4 9189.5,351.9 9183.6,350.8C9176.1,349.4 9164.9,348.5 9152.3,348.5C9140.4,348.5 9129.7,349.3 9122.3,350.6C9115.7,351.7 9111.6,353.2 9111.4,354.9C9111.2,356.3 9111.2,357.4 9111.4,358.4C9111.6,356.5 9115.9,354.7 9122.8,353.5C9130.2,352.1 9140.7,351.2 9152.3,351.2C9164.6,351.2 9175.6,352.2 9183.1,353.7C9189.3,355 9193.1,356.6 9193.2,358.4C9193.3,357.5 9193.2,356.3 9193.2,354.9Z" style="fill:white;fill-rule:nonzero;"/>
                <path d="M9183,353.7C9175.5,352.2 9164.5,351.2 9152.2,351.2C9140.6,351.2 9130.2,352.1 9122.7,353.5C9115.8,354.8 9111.5,356.5 9111.3,358.4C9111.5,359.1 9111.8,359.8 9112.5,360.3C9113.1,360.8 9114,361.2 9115,361.6C9117.8,362.7 9122.2,363.7 9127.6,364.4C9134.5,365.3 9143,365.9 9152.2,365.9C9162.1,365.9 9171.2,365.3 9178.3,364.2C9184.5,363.3 9189.1,362 9191.4,360.6C9191.5,360.6 9191.5,360.5 9191.6,360.5C9191.7,360.5 9191.7,360.4 9191.8,360.4L9191.9,360.4C9192.6,359.9 9193,359.2 9193.1,358.5C9193,356.6 9189.2,355 9183,353.7Z" style="fill:rgb(153,153,153);fill-rule:nonzero;"/>
                <path d="M9126.4,421.4L9126.4,362.6C9126.4,362.6 9130.4,357.9 9153.1,357.9C9173.1,357.9 9178.1,361.6 9178.5,362.6C9178.8,363.6 9178.5,421.4 9178.5,421.4L9126.4,421.4Z" style="fill:rgb(244,240,237);fill-rule:nonzero;"/>
                <path d="M9107.3,852.1L9123.4,440.4L9149.7,429.7L9162.1,429.7L9180.8,441.7L9196.8,852.1L9107.3,852.1Z" style="fill:rgb(244,240,237);fill-rule:nonzero;"/>
                <path d="M9111.3,747L9111.3,737.3L9105,730L9105,721.2C9105,721.2 9118.2,714.4 9151.9,714.4C9151.9,714.4 9186.8,713.2 9199.8,721.2L9199.8,730L9192.8,737.3L9192.8,747C9192.8,747 9187.6,740.7 9151.9,740.3C9116.2,739.9 9111.3,747 9111.3,747Z" style="fill:rgb(204,204,204);fill-rule:nonzero;"/>
                <path d="M9116.9,612.3L9116.9,603.8L9111.4,597.4L9111.4,589.7C9111.4,589.7 9122.9,583.7 9152.4,583.7C9152.4,583.7 9182.9,582.7 9194.2,589.7L9194.2,597.4L9188.1,603.8L9188.1,612.3C9188.1,612.3 9183.6,606.8 9152.4,606.5C9121.2,606.2 9116.9,612.3 9116.9,612.3Z" style="fill:rgb(204,204,204);fill-rule:nonzero;"/>
                <path d="M9123.3,441.8L9123.3,434.8L9118.7,429.5L9118.7,423.1C9118.7,423.1 9128.2,418.2 9152.4,418.2C9152.4,418.2 9177.4,417.4 9186.8,423.1L9186.8,429.5L9181.8,434.8L9181.8,441.8C9181.8,441.8 9178.1,437.2 9152.4,437C9126.8,436.7 9123.3,441.8 9123.3,441.8Z" style="fill:rgb(204,204,204);fill-rule:nonzero;"/>
                <g>
                    <path d="M9107.7,729.3L9113,726.3L9120.4,733.9L9114.7,736.6L9107.7,729.3Z" style="fill:rgb(153,153,153);fill-rule:nonzero;"/>
                    <path d="M9115.7,725.6L9122,723.6L9127.4,732.6L9121.7,733.3L9115.7,725.6Z" style="fill:rgb(153,153,153);fill-rule:nonzero;"/>
                    <path d="M9126,723.6L9133.4,722.9L9135.4,731.9L9129.4,732.3L9126,723.6Z" style="fill:rgb(153,153,153);fill-rule:nonzero;"/>
                    <path d="M9135.7,722.9L9142.4,722.9L9143.1,731.6L9138.1,731.6L9135.7,722.9Z" style="fill:rgb(153,153,153);fill-rule:nonzero;"/>
                    <rect x="9145.4" y="722.9" width="5.7" height="8.7" style="fill:rgb(153,153,153);"/>
                    <path d="M9197.2,729.3L9191.8,726.3L9184.5,733.9L9190.2,736.6L9197.2,729.3Z" style="fill:rgb(153,153,153);fill-rule:nonzero;"/>
                    <path d="M9189.2,725.6L9182.8,723.6L9177.5,732.6L9183.1,733.3L9189.2,725.6Z" style="fill:rgb(153,153,153);fill-rule:nonzero;"/>
                    <path d="M9178.8,723.6L9171.5,722.9L9169.5,731.9L9175.5,732.3L9178.8,723.6Z" style="fill:rgb(153,153,153);fill-rule:nonzero;"/>
                    <path d="M9169.1,722.9L9162.4,722.9L9161.8,731.6L9166.8,731.6L9169.1,722.9Z" style="fill:rgb(153,153,153);fill-rule:nonzero;"/>
                    <rect x="9153.8" y="722.9" width="5.7" height="8.7" style="fill:rgb(153,153,153);"/>
                </g>
                <g>
                    <path d="M9113.7,595.7L9118.3,593.1L9124.8,599.8L9119.8,602.2L9113.7,595.7Z" style="fill:rgb(153,153,153);fill-rule:nonzero;"/>
                    <path d="M9120.7,592.5L9126.2,590.8L9130.9,598.7L9125.9,599.2L9120.7,592.5Z" style="fill:rgb(153,153,153);fill-rule:nonzero;"/>
                    <path d="M9129.7,590.8L9136.1,590.2L9137.9,598.1L9132.6,598.4L9129.7,590.8Z" style="fill:rgb(153,153,153);fill-rule:nonzero;"/>
                    <path d="M9138.2,590.2L9144,590.2L9144.6,597.8L9140.2,597.8L9138.2,590.2Z" style="fill:rgb(153,153,153);fill-rule:nonzero;"/>
                    <rect x="9146.6" y="590.2" width="5" height="7.6" style="fill:rgb(153,153,153);"/>
                    <path d="M9191.8,595.7L9187.2,593.1L9180.7,599.8L9185.7,602.2L9191.8,595.7Z" style="fill:rgb(153,153,153);fill-rule:nonzero;"/>
                    <path d="M9184.8,592.5L9179.3,590.8L9174.6,598.7L9179.6,599.2L9184.8,592.5Z" style="fill:rgb(153,153,153);fill-rule:nonzero;"/>
                    <path d="M9175.8,590.8L9169.4,590.2L9167.6,598.1L9172.9,598.4L9175.8,590.8Z" style="fill:rgb(153,153,153);fill-rule:nonzero;"/>
                    <path d="M9167.3,590.2L9161.5,590.2L9160.9,597.8L9165.3,597.8L9167.3,590.2Z" style="fill:rgb(153,153,153);fill-rule:nonzero;"/>
                    <rect x="9153.9" y="590.2" width="5" height="7.6" style="fill:rgb(153,153,153);"/>
                </g>
                <g>
                    <path d="M9120.8,428.5L9124.5,426.4L9129.7,431.8L9125.7,433.7L9120.8,428.5Z" style="fill:rgb(153,153,153);fill-rule:nonzero;"/>
                    <path d="M9126.4,425.9L9130.9,424.5L9134.7,430.9L9130.7,431.3L9126.4,425.9Z" style="fill:rgb(153,153,153);fill-rule:nonzero;"/>
                    <path d="M9133.8,424.5L9139,424L9140.4,430.4L9136.1,430.6L9133.8,424.5Z" style="fill:rgb(153,153,153);fill-rule:nonzero;"/>
                    <path d="M9140.6,424L9145.3,424L9145.8,430.2L9142.3,430.2L9140.6,424Z" style="fill:rgb(153,153,153);fill-rule:nonzero;"/>
                    <rect x="9147.5" y="424" width="4" height="6.1" style="fill:rgb(153,153,153);"/>
                    <path d="M9184.1,428.5L9180.3,426.4L9175.1,431.8L9179.1,433.7L9184.1,428.5Z" style="fill:rgb(153,153,153);fill-rule:nonzero;"/>
                    <path d="M9178.4,425.9L9173.9,424.5L9170.1,430.9L9174.2,431.3L9178.4,425.9Z" style="fill:rgb(153,153,153);fill-rule:nonzero;"/>
                    <path d="M9171.1,424.5L9165.9,424L9164.5,430.4L9168.7,430.6L9171.1,424.5Z" style="fill:rgb(153,153,153);fill-rule:nonzero;"/>
                    <path d="M9164.2,424L9159.5,424L9159,430.2L9162.6,430.2L9164.2,424Z" style="fill:rgb(153,153,153);fill-rule:nonzero;"/>
                    <rect x="9153.4" y="424" width="4" height="6.1" style="fill:rgb(153,153,153);"/>
                </g>
                <path d="M9128.4,419.4L9128.4,380.7C9128.4,378.6 9128.9,376.6 9130,374.9C9130.9,373.5 9132.1,372.3 9133.7,372.3C9135.9,372.3 9137.3,374.7 9138,376.6C9138.5,377.9 9138.7,379.2 9138.7,380.5L9138.7,418.4C9138.7,418.3 9129.7,418.7 9128.4,419.4Z" style="fill:rgb(153,153,153);fill-rule:nonzero;"/>
                <path d="M9177.8,419.4L9177.8,380.7C9177.8,378.6 9177.3,376.6 9176.2,374.9C9175.3,373.5 9174.1,372.3 9172.5,372.3C9170.3,372.3 9168.9,374.7 9168.2,376.6C9167.7,377.9 9167.5,379.2 9167.5,380.5L9167.5,418.4C9167.4,418.3 9176.5,418.7 9177.8,419.4Z" style="fill:rgb(153,153,153);fill-rule:nonzero;"/>
                <path d="M9145.1,417.7L9160.5,417.7L9160.5,375.6C9160.5,368.6 9152.8,368.3 9152.8,368.3C9152.8,368.3 9145.1,368.6 9145.1,375.6L9145.1,417.7Z" style="fill:rgb(153,153,153);fill-rule:nonzero;"/>
                <path d="M9197.2,868L9107.3,868L9107.3,852.1L9197,852L9197.2,868Z" style="fill:rgb(204,204,204);fill-rule:nonzero;"/>
            </g>
            <g id="Säule_rechts_groß_1_">
                <path d="M10145.6,308.8L10145.5,306.8C10147.6,306.2 10149,304.9 10149,303.3C10149,301.6 10147.4,300.2 10145.2,299.7L10145,295.6C10146.5,295.2 10147.5,294.2 10147.5,293C10147.5,291.8 10146.3,290.7 10144.7,290.3L10144.6,287.3C10145.7,287 10146.5,286.2 10146.5,285.3C10146.5,284.4 10145.6,283.6 10144.4,283.3L10144.3,280.3C10145.2,279.9 10145.8,279 10145.8,278C10145.8,276.6 10144.7,275.5 10143.3,275.5C10141.9,275.5 10140.8,276.6 10140.8,278C10140.8,279 10141.4,279.9 10142.3,280.3L10142.2,283.3C10141,283.6 10140.1,284.4 10140.1,285.3C10140.1,286.2 10140.9,286.9 10142,287.3L10141.9,290.3C10140.3,290.7 10139.1,291.7 10139.1,293C10139.1,294.2 10140.1,295.2 10141.6,295.6L10141.4,299.7C10139.2,300.2 10137.6,301.6 10137.6,303.3C10137.6,304.9 10139,306.3 10141.1,306.8L10141,308.8C10141,313.1 10137.7,313.8 10137.7,313.8L10137.7,317.5L10149.1,317.5L10149.1,313.8C10149,313.8 10145.6,313.2 10145.6,308.8Z" style="fill:rgb(204,204,204);fill-rule:nonzero;"/>
                <g>
                    <path d="M10105.8,361.6C10104.7,361.2 10103.9,360.8 10103.3,360.3C10103.9,360.8 10104.7,361.3 10105.8,361.6Z" style="fill:rgb(219,204,193);fill-rule:nonzero;"/>
                    <path d="M10182.7,360.4C10182.6,360.4 10182.6,360.5 10182.5,360.5C10182.5,360.5 10182.6,360.5 10182.7,360.4Z" style="fill:rgb(219,204,193);fill-rule:nonzero;"/>
                    <path d="M10182.8,360.4C10182.8,360.4 10182.7,360.4 10182.8,360.4C10182.7,360.4 10182.8,360.4 10182.8,360.4Z" style="fill:rgb(219,204,193);fill-rule:nonzero;"/>
                    <path d="M10182.8,360.4C10183.6,359.8 10184,359.2 10184,358.6L10184,358.5C10183.8,359.2 10183.5,359.8 10182.8,360.4Z" style="fill:rgb(161,141,127);fill-rule:nonzero;"/>
                    <path d="M10182.7,360.4L10182.7,360.4Z" style="fill:rgb(161,141,127);fill-rule:nonzero;"/>
                    <path d="M10102.2,358.4L10102.2,358.5C10102.2,359.1 10102.6,359.7 10103.4,360.3C10102.7,359.8 10102.4,359.2 10102.2,358.4Z" style="fill:rgb(161,141,127);fill-rule:nonzero;"/>
                    <path d="M10174.4,350.8C10174.6,349.5 10174.7,348.1 10174.7,346.7C10174.7,329.6 10160.9,315.8 10143.8,315.8C10126.7,315.8 10112.9,329.6 10112.9,346.7C10112.9,348 10113,349.3 10113.1,350.6C10120.5,349.3 10131.1,348.5 10143.1,348.5C10155.7,348.6 10166.9,349.4 10174.4,350.8Z" style="fill:rgb(244,240,237);fill-rule:nonzero;"/>
                    <path d="M10184,354.9C10183.9,353.4 10180.3,351.9 10174.4,350.8C10166.9,349.4 10155.7,348.5 10143.1,348.5C10131.2,348.5 10120.5,349.3 10113.1,350.6C10106.5,351.7 10102.4,353.2 10102.2,354.9C10102,356.3 10102,357.4 10102.2,358.4C10102.4,356.5 10106.7,354.7 10113.6,353.5C10121,352.1 10131.5,351.2 10143.1,351.2C10155.4,351.2 10166.4,352.2 10173.9,353.7C10180.1,355 10183.9,356.6 10184,358.4C10184.2,357.5 10184.1,356.3 10184,354.9Z" style="fill:white;fill-rule:nonzero;"/>
                    <path d="M10173.8,353.7C10166.3,352.2 10155.3,351.2 10143,351.2C10131.4,351.2 10121,352.1 10113.5,353.5C10106.6,354.8 10102.3,356.5 10102.1,358.4C10102.3,359.1 10102.6,359.8 10103.3,360.3C10103.9,360.8 10104.8,361.2 10105.8,361.6C10108.6,362.7 10113,363.7 10118.4,364.4C10125.3,365.3 10133.8,365.9 10143,365.9C10152.9,365.9 10162,365.3 10169.1,364.2C10175.3,363.3 10179.9,362 10182.2,360.6C10182.3,360.6 10182.3,360.5 10182.4,360.5C10182.5,360.5 10182.5,360.4 10182.6,360.4L10182.7,360.4C10183.4,359.9 10183.8,359.2 10183.9,358.5C10183.8,356.6 10180,355 10173.8,353.7Z" style="fill:rgb(153,153,153);fill-rule:nonzero;"/>
                </g>
                <path d="M10117.2,421.4L10117.2,362.6C10117.2,362.6 10121.2,357.9 10143.9,357.9C10163.9,357.9 10168.9,361.6 10169.3,362.6C10169.6,363.6 10169.3,421.4 10169.3,421.4L10117.2,421.4Z" style="fill:rgb(244,240,237);fill-rule:nonzero;"/>
                <path d="M10098.2,852.1L10114.2,440.4L10140.6,429.7L10152.9,429.7L10171.6,441.7L10187.7,852.1L10098.2,852.1Z" style="fill:rgb(244,240,237);fill-rule:nonzero;"/>
                <path d="M10102.2,747L10102.2,737.3L10095.9,730L10095.9,721.2C10095.9,721.2 10109.1,714.4 10142.8,714.4C10142.8,714.4 10177.7,713.2 10190.7,721.2L10190.7,730L10183.7,737.3L10183.7,747C10183.7,747 10178.5,740.7 10142.8,740.3C10107,739.9 10102.2,747 10102.2,747Z" style="fill:rgb(204,204,204);fill-rule:nonzero;"/>
                <path d="M10107.7,612.3L10107.7,603.8L10102.2,597.4L10102.2,589.7C10102.2,589.7 10113.7,583.7 10143.2,583.7C10143.2,583.7 10173.7,582.7 10185,589.7L10185,597.4L10178.9,603.8L10178.9,612.3C10178.9,612.3 10174.4,606.8 10143.2,606.5C10112,606.2 10107.7,612.3 10107.7,612.3Z" style="fill:rgb(204,204,204);fill-rule:nonzero;"/>
                <path d="M10114.1,441.8L10114.1,434.8L10109.5,429.5L10109.5,423.1C10109.5,423.1 10119,418.2 10143.2,418.2C10143.2,418.2 10168.2,417.4 10177.6,423.1L10177.6,429.5L10172.6,434.8L10172.6,441.8C10172.6,441.8 10168.9,437.2 10143.2,437C10117.6,436.7 10114.1,441.8 10114.1,441.8Z" style="fill:rgb(204,204,204);fill-rule:nonzero;"/>
                <g>
                    <path d="M10098.5,729.3L10103.8,726.3L10111.2,733.9L10105.5,736.6L10098.5,729.3Z" style="fill:rgb(153,153,153);fill-rule:nonzero;"/>
                    <path d="M10106.5,725.6L10112.9,723.6L10118.2,732.6L10112.5,733.3L10106.5,725.6Z" style="fill:rgb(153,153,153);fill-rule:nonzero;"/>
                    <path d="M10116.9,723.6L10124.2,722.9L10126.2,731.9L10120.2,732.3L10116.9,723.6Z" style="fill:rgb(153,153,153);fill-rule:nonzero;"/>
                    <path d="M10126.5,722.9L10133.2,722.9L10133.9,731.6L10128.9,731.6L10126.5,722.9Z" style="fill:rgb(153,153,153);fill-rule:nonzero;"/>
                    <rect x="10136.2" y="722.9" width="5.7" height="8.7" style="fill:rgb(153,153,153);"/>
                    <path d="M10188,729.3L10182.7,726.3L10175.3,733.9L10181,736.6L10188,729.3Z" style="fill:rgb(153,153,153);fill-rule:nonzero;"/>
                    <path d="M10180,725.6L10173.6,723.6L10168.3,732.6L10174,733.3L10180,725.6Z" style="fill:rgb(153,153,153);fill-rule:nonzero;"/>
                    <path d="M10169.6,723.6L10162.3,722.9L10160.3,731.9L10166.3,732.3L10169.6,723.6Z" style="fill:rgb(153,153,153);fill-rule:nonzero;"/>
                    <path d="M10159.9,722.9L10153.3,722.9L10152.6,731.6L10157.6,731.6L10159.9,722.9Z" style="fill:rgb(153,153,153);fill-rule:nonzero;"/>
                    <rect x="10144.6" y="722.9" width="5.7" height="8.7" style="fill:rgb(153,153,153);"/>
                </g>
                <g>
                    <path d="M10104.5,595.7L10109.2,593.1L10115.6,599.8L10110.6,602.2L10104.5,595.7Z" style="fill:rgb(153,153,153);fill-rule:nonzero;"/>
                    <path d="M10111.5,592.5L10117,590.8L10121.7,598.7L10116.8,599.2L10111.5,592.5Z" style="fill:rgb(153,153,153);fill-rule:nonzero;"/>
                    <path d="M10120.5,590.8L10127,590.2L10128.7,598.1L10123.5,598.4L10120.5,590.8Z" style="fill:rgb(153,153,153);fill-rule:nonzero;"/>
                    <path d="M10129,590.2L10134.8,590.2L10135.4,597.8L10131,597.8L10129,590.2Z" style="fill:rgb(153,153,153);fill-rule:nonzero;"/>
                    <rect x="10137.5" y="590.2" width="5" height="7.6" style="fill:rgb(153,153,153);"/>
                    <path d="M10182.7,595.7L10178,593.1L10171.6,599.8L10176.5,602.2L10182.7,595.7Z" style="fill:rgb(153,153,153);fill-rule:nonzero;"/>
                    <path d="M10175.7,592.5L10170.1,590.8L10165.5,598.7L10170.4,599.2L10175.7,592.5Z" style="fill:rgb(153,153,153);fill-rule:nonzero;"/>
                    <path d="M10166.6,590.8L10160.2,590.2L10158.5,598.1L10163.7,598.4L10166.6,590.8Z" style="fill:rgb(153,153,153);fill-rule:nonzero;"/>
                    <path d="M10158.2,590.2L10152.3,590.2L10151.7,597.8L10156.1,597.8L10158.2,590.2Z" style="fill:rgb(153,153,153);fill-rule:nonzero;"/>
                    <rect x="10144.7" y="590.2" width="5" height="7.6" style="fill:rgb(153,153,153);"/>
                </g>
                <g>
                    <path d="M10111.6,428.5L10115.4,426.4L10120.6,431.8L10116.6,433.7L10111.6,428.5Z" style="fill:rgb(153,153,153);fill-rule:nonzero;"/>
                    <path d="M10117.3,425.9L10121.8,424.5L10125.5,430.9L10121.5,431.3L10117.3,425.9Z" style="fill:rgb(153,153,153);fill-rule:nonzero;"/>
                    <path d="M10124.6,424.5L10129.8,424L10131.2,430.4L10126.9,430.6L10124.6,424.5Z" style="fill:rgb(153,153,153);fill-rule:nonzero;"/>
                    <path d="M10131.4,424L10136.2,424L10136.6,430.2L10133.1,430.2L10131.4,424Z" style="fill:rgb(153,153,153);fill-rule:nonzero;"/>
                    <rect x="10138.3" y="424" width="4" height="6.1" style="fill:rgb(153,153,153);"/>
                    <path d="M10174.9,428.5L10171.1,426.4L10165.9,431.8L10169.9,433.7L10174.9,428.5Z" style="fill:rgb(153,153,153);fill-rule:nonzero;"/>
                    <path d="M10169.2,425.9L10164.7,424.5L10161,430.9L10165,431.3L10169.2,425.9Z" style="fill:rgb(153,153,153);fill-rule:nonzero;"/>
                    <path d="M10161.9,424.5L10156.7,424L10155.3,430.4L10159.5,430.6L10161.9,424.5Z" style="fill:rgb(153,153,153);fill-rule:nonzero;"/>
                    <path d="M10155.1,424L10150.3,424L10149.9,430.2L10153.4,430.2L10155.1,424Z" style="fill:rgb(153,153,153);fill-rule:nonzero;"/>
                    <rect x="10144.2" y="424" width="4" height="6.1" style="fill:rgb(153,153,153);"/>
                </g>
                <path d="M10119.2,419.4L10119.2,380.7C10119.2,378.6 10119.7,376.6 10120.8,374.9C10121.7,373.5 10122.9,372.3 10124.5,372.3C10126.7,372.3 10128.1,374.7 10128.8,376.6C10129.3,377.9 10129.5,379.2 10129.5,380.5L10129.5,418.4C10129.6,418.3 10120.5,418.7 10119.2,419.4Z" style="fill:rgb(153,153,153);fill-rule:nonzero;"/>
                <path d="M10168.6,419.4L10168.6,380.7C10168.6,378.6 10168.1,376.6 10167,374.9C10166.1,373.5 10164.9,372.3 10163.3,372.3C10161.1,372.3 10159.7,374.7 10159,376.6C10158.5,377.9 10158.3,379.2 10158.3,380.5L10158.3,418.4C10158.3,418.3 10167.3,418.7 10168.6,419.4Z" style="fill:rgb(153,153,153);fill-rule:nonzero;"/>
                <path d="M10135.9,417.7L10151.3,417.7L10151.3,375.6C10151.3,368.6 10143.6,368.3 10143.6,368.3C10143.6,368.3 10135.9,368.6 10135.9,375.6L10135.9,417.7Z" style="fill:rgb(153,153,153);fill-rule:nonzero;"/>
                <rect x="10098.2" y="852.1" width="89.8" height="16.9" style="fill:rgb(204,204,204);"/>
            </g>
            <g id="Säule_links_klein_1_">
                <path d="M9267.6,569.7L9267.6,568.6C9268.7,568.3 9269.5,567.6 9269.5,566.7C9269.5,565.8 9268.6,565.1 9267.5,564.8L9267.4,562.6C9268.2,562.4 9268.7,561.8 9268.7,561.2C9268.7,560.6 9268.1,560 9267.2,559.8L9267.1,558.2C9267.7,558 9268.1,557.6 9268.1,557.1C9268.1,556.6 9267.6,556.2 9267,556L9266.9,554.4C9267.4,554.2 9267.7,553.7 9267.7,553.2C9267.7,552.5 9267.1,551.9 9266.4,551.9C9265.7,551.9 9265.1,552.5 9265.1,553.2C9265.1,553.7 9265.4,554.2 9265.9,554.4L9265.8,556C9265.1,556.2 9264.7,556.6 9264.7,557.1C9264.7,557.6 9265.1,558 9265.7,558.2L9265.6,559.8C9264.7,560 9264.1,560.6 9264.1,561.2C9264.1,561.8 9264.7,562.3 9265.4,562.6L9265.3,564.8C9264.1,565.1 9263.3,565.8 9263.3,566.7C9263.3,567.5 9264.1,568.3 9265.2,568.6L9265.2,569.7C9265.2,572 9263.4,572.4 9263.4,572.4L9263.4,574.4L9269.4,574.4L9269.4,572.4C9269.3,572.4 9267.6,572 9267.6,569.7Z" style="fill:rgb(204,204,204);fill-rule:nonzero;"/>
                <g>
                    <path d="M9246.4,597.9C9245.8,597.7 9245.4,597.4 9245.1,597.2C9245.3,597.4 9245.8,597.7 9246.4,597.9Z" style="fill:rgb(219,204,193);fill-rule:nonzero;"/>
                    <path d="M9287.3,597.2C9287.3,597.2 9287.2,597.3 9287.3,597.2C9287.2,597.3 9287.3,597.2 9287.3,597.2Z" style="fill:rgb(219,204,193);fill-rule:nonzero;"/>
                    <path d="M9287.4,597.2L9287.4,597.2Z" style="fill:rgb(219,204,193);fill-rule:nonzero;"/>
                    <path d="M9287.4,597.2C9287.8,596.9 9288.1,596.6 9288.1,596.2L9288.1,596.1C9287.9,596.6 9287.7,596.9 9287.4,597.2Z" style="fill:rgb(161,141,127);fill-rule:nonzero;"/>
                    <path d="M9287.3,597.2L9287.3,597.2Z" style="fill:rgb(161,141,127);fill-rule:nonzero;"/>
                    <path d="M9244.4,596.1C9244.4,596.2 9244.4,596.2 9244.4,596.1C9244.4,596.5 9244.6,596.8 9245,597.1C9244.7,596.9 9244.5,596.5 9244.4,596.1Z" style="fill:rgb(161,141,127);fill-rule:nonzero;"/>
                    <path d="M9282.9,592.1C9283,591.4 9283,590.7 9283,589.9C9283,580.8 9275.6,573.4 9266.5,573.4C9257.4,573.4 9250,580.8 9250,589.9C9250,590.6 9250,591.3 9250.1,592C9254.1,591.3 9259.7,590.9 9266.1,590.9C9272.9,590.9 9278.9,591.4 9282.9,592.1Z" style="fill:rgb(244,240,237);fill-rule:nonzero;"/>
                    <path d="M9288,594.3C9288,593.5 9286,592.7 9282.9,592.1C9278.9,591.4 9272.9,590.9 9266.2,590.9C9259.8,590.9 9254.2,591.3 9250.2,592C9246.7,592.6 9244.5,593.4 9244.4,594.3C9244.3,595 9244.3,595.7 9244.4,596.2C9244.5,595.2 9246.8,594.3 9250.5,593.6C9254.5,592.9 9260,592.4 9266.2,592.4C9272.7,592.4 9278.6,592.9 9282.6,593.7C9285.9,594.4 9287.9,595.2 9288,596.2C9288.1,595.6 9288,595 9288,594.3Z" style="fill:white;fill-rule:nonzero;"/>
                    <path d="M9282.6,593.6C9278.6,592.8 9272.7,592.3 9266.2,592.3C9260,592.3 9254.5,592.8 9250.5,593.5C9246.8,594.2 9244.5,595.1 9244.4,596.1C9244.5,596.5 9244.7,596.8 9245,597.1C9245.3,597.3 9245.8,597.6 9246.3,597.8C9247.8,598.4 9250.1,598.9 9253,599.3C9256.7,599.8 9261.2,600.1 9266.1,600.1C9271.4,600.1 9276.2,599.8 9280,599.2C9283.3,598.7 9285.7,598.1 9287,597.3C9287,597.3 9287.1,597.3 9287.1,597.2C9287.1,597.2 9287.2,597.2 9287.2,597.1C9287.6,596.8 9287.8,596.5 9287.8,596.1C9287.9,595.2 9285.9,594.3 9282.6,593.6Z" style="fill:rgb(153,153,153);fill-rule:nonzero;"/>
                </g>
                <path d="M9252.4,629.7L9252.4,598.4C9252.4,598.4 9254.5,595.9 9266.6,595.9C9277.3,595.9 9279.9,597.9 9280.1,598.4C9280.3,598.9 9280.1,629.7 9280.1,629.7L9252.4,629.7Z" style="fill:rgb(244,240,237);fill-rule:nonzero;"/>
                <path d="M9242.3,859.2L9250.8,639.8L9264.9,634.1L9271.5,634.1L9281.4,640.5L9290,859.2L9242.3,859.2Z" style="fill:rgb(244,240,237);fill-rule:nonzero;"/>
                <path d="M9244.4,803.1L9244.4,798L9241,794.1L9241,789.4C9241,789.4 9248,785.8 9266,785.8C9266,785.8 9284.6,785.2 9291.5,789.4L9291.5,794.1L9287.8,798L9287.8,803.2C9287.8,803.2 9285,799.8 9266,799.6C9247,799.4 9244.4,803.1 9244.4,803.1Z" style="fill:rgb(204,204,204);fill-rule:nonzero;"/>
                <path d="M9247.4,731.4L9247.4,726.9L9244.4,723.5L9244.4,719.4C9244.4,719.4 9250.5,716.2 9266.2,716.2C9266.2,716.2 9282.4,715.7 9288.5,719.4L9288.5,723.5L9285.2,726.9L9285.2,731.4C9285.2,731.4 9282.8,728.4 9266.2,728.3C9249.6,728.1 9247.4,731.4 9247.4,731.4Z" style="fill:rgb(204,204,204);fill-rule:nonzero;"/>
                <path d="M9250.8,640.6L9250.8,636.9L9248.4,634.1L9248.4,630.7C9248.4,630.7 9253.4,628.1 9266.3,628.1C9266.3,628.1 9279.6,627.7 9284.6,630.7L9284.6,634.1L9281.9,636.9L9281.9,640.6C9281.9,640.6 9279.9,638.2 9266.3,638C9252.7,637.8 9250.8,640.6 9250.8,640.6Z" style="fill:rgb(204,204,204);fill-rule:nonzero;"/>
                <g>
                    <path d="M9242.5,793.7L9245.3,792.1L9249.2,796.2L9246.2,797.6L9242.5,793.7Z" style="fill:rgb(153,153,153);fill-rule:nonzero;"/>
                    <path d="M9246.7,791.7L9250.1,790.7L9253,795.5L9249.9,795.8L9246.7,791.7Z" style="fill:rgb(153,153,153);fill-rule:nonzero;"/>
                    <path d="M9252.2,790.7L9256.2,790.3L9257.2,795.1L9254,795.3L9252.2,790.7Z" style="fill:rgb(153,153,153);fill-rule:nonzero;"/>
                    <path d="M9257.4,790.3L9261,790.3L9261.3,794.9L9258.6,794.9L9257.4,790.3Z" style="fill:rgb(153,153,153);fill-rule:nonzero;"/>
                    <rect x="9262.6" y="790.3" width="3" height="4.6" style="fill:rgb(153,153,153);"/>
                    <path d="M9290.1,793.7L9287.3,792.1L9283.4,796.2L9286.4,797.6L9290.1,793.7Z" style="fill:rgb(153,153,153);fill-rule:nonzero;"/>
                    <path d="M9285.9,791.7L9282.5,790.7L9279.6,795.5L9282.7,795.8L9285.9,791.7Z" style="fill:rgb(153,153,153);fill-rule:nonzero;"/>
                    <path d="M9280.4,790.7L9276.4,790.3L9275.4,795.1L9278.6,795.3L9280.4,790.7Z" style="fill:rgb(153,153,153);fill-rule:nonzero;"/>
                    <path d="M9275.2,790.3L9271.6,790.3L9271.3,794.9L9273.9,794.9L9275.2,790.3Z" style="fill:rgb(153,153,153);fill-rule:nonzero;"/>
                    <rect x="9267" y="790.3" width="3" height="4.6" style="fill:rgb(153,153,153);"/>
                </g>
                <g>
                    <path d="M9245.7,722.6L9248.1,721.2L9251.6,724.7L9248.9,726L9245.7,722.6Z" style="fill:rgb(153,153,153);fill-rule:nonzero;"/>
                    <path d="M9249.4,720.9L9252.3,719.9L9254.8,724.1L9252.2,724.4L9249.4,720.9Z" style="fill:rgb(153,153,153);fill-rule:nonzero;"/>
                    <path d="M9254.2,719.9L9257.6,719.6L9258.6,723.8L9255.8,724L9254.2,719.9Z" style="fill:rgb(153,153,153);fill-rule:nonzero;"/>
                    <path d="M9258.7,719.6L9261.8,719.6L9262.1,723.7L9259.8,723.7L9258.7,719.6Z" style="fill:rgb(153,153,153);fill-rule:nonzero;"/>
                    <rect x="9263.2" y="719.6" width="2.6" height="4" style="fill:rgb(153,153,153);"/>
                    <path d="M9287.3,722.6L9284.8,721.2L9281.4,724.7L9284,726L9287.3,722.6Z" style="fill:rgb(153,153,153);fill-rule:nonzero;"/>
                    <path d="M9283.6,720.9L9280.6,719.9L9278.1,724.1L9280.8,724.4L9283.6,720.9Z" style="fill:rgb(153,153,153);fill-rule:nonzero;"/>
                    <path d="M9278.7,719.9L9275.3,719.6L9274.4,723.8L9277.2,724L9278.7,719.9Z" style="fill:rgb(153,153,153);fill-rule:nonzero;"/>
                    <path d="M9274.2,719.6L9271.1,719.6L9270.8,723.7L9273.2,723.7L9274.2,719.6Z" style="fill:rgb(153,153,153);fill-rule:nonzero;"/>
                    <rect x="9267.1" y="719.6" width="2.6" height="4" style="fill:rgb(153,153,153);"/>
                </g>
                <g>
                    <path d="M9249.4,633.5L9251.4,632.4L9254.2,635.2L9252.1,636.3L9249.4,633.5Z" style="fill:rgb(153,153,153);fill-rule:nonzero;"/>
                    <path d="M9252.5,632.1L9254.8,631.3L9256.9,634.7L9254.7,635L9252.5,632.1Z" style="fill:rgb(153,153,153);fill-rule:nonzero;"/>
                    <path d="M9256.4,631.3L9259.1,631.1L9259.9,634.5L9257.6,634.6L9256.4,631.3Z" style="fill:rgb(153,153,153);fill-rule:nonzero;"/>
                    <path d="M9260,631.1L9262.5,631.1L9262.8,634.4L9260.9,634.4L9260,631.1Z" style="fill:rgb(153,153,153);fill-rule:nonzero;"/>
                    <rect x="9263.7" y="631.1" width="2.1" height="3.3" style="fill:rgb(153,153,153);"/>
                    <path d="M9283.2,633.5L9281.1,632.4L9278.4,635.2L9280.5,636.3L9283.2,633.5Z" style="fill:rgb(153,153,153);fill-rule:nonzero;"/>
                    <path d="M9280.1,632.1L9277.7,631.3L9275.7,634.7L9277.9,635L9280.1,632.1Z" style="fill:rgb(153,153,153);fill-rule:nonzero;"/>
                    <path d="M9276.2,631.3L9273.5,631.1L9272.7,634.5L9275,634.6L9276.2,631.3Z" style="fill:rgb(153,153,153);fill-rule:nonzero;"/>
                    <path d="M9272.6,631.1L9270.1,631.1L9269.8,634.4L9271.7,634.4L9272.6,631.1Z" style="fill:rgb(153,153,153);fill-rule:nonzero;"/>
                    <rect x="9266.8" y="631.1" width="2.1" height="3.3" style="fill:rgb(153,153,153);"/>
                </g>
                <path d="M9253.5,628.6L9253.5,608C9253.5,606.9 9253.8,605.8 9254.4,604.9C9254.9,604.2 9255.5,603.5 9256.4,603.5C9257.6,603.5 9258.3,604.8 9258.7,605.8C9259,606.5 9259.1,607.2 9259.1,607.9L9259.1,628.1C9259,628.1 9254.2,628.3 9253.5,628.6Z" style="fill:rgb(153,153,153);fill-rule:nonzero;"/>
                <path d="M9279.8,628.6L9279.8,608C9279.8,606.9 9279.5,605.8 9278.9,604.9C9278.4,604.2 9277.8,603.5 9276.9,603.5C9275.7,603.5 9275,604.8 9274.6,605.8C9274.3,606.5 9274.2,607.2 9274.2,607.9L9274.2,628.1C9274.3,628.1 9279.1,628.3 9279.8,628.6Z" style="fill:rgb(153,153,153);fill-rule:nonzero;"/>
                <path d="M9262.4,627.7L9270.6,627.7L9270.6,605.3C9270.6,601.6 9266.5,601.4 9266.5,601.4C9266.5,601.4 9262.4,601.6 9262.4,605.3L9262.4,627.7Z" style="fill:rgb(153,153,153);fill-rule:nonzero;"/>
                <rect x="9242.3" y="859.2" width="47.9" height="8.8" style="fill:rgb(204,204,204);"/>
            </g>
            <g id="Säule_rechts_klein_1_">
                <path d="M10029.6,569.7L10029.6,568.6C10030.7,568.3 10031.5,567.6 10031.5,566.7C10031.5,565.8 10030.6,565.1 10029.5,564.8L10029.4,562.6C10030.2,562.4 10030.7,561.8 10030.7,561.2C10030.7,560.6 10030.1,560 10029.2,559.8L10029.1,558.2C10029.7,558 10030.1,557.6 10030.1,557.1C10030.1,556.6 10029.6,556.2 10029,556L10028.9,554.4C10029.4,554.2 10029.7,553.7 10029.7,553.2C10029.7,552.5 10029.1,551.9 10028.4,551.9C10027.7,551.9 10027.1,552.5 10027.1,553.2C10027.1,553.7 10027.4,554.2 10027.9,554.4L10027.8,556C10027.1,556.2 10026.7,556.6 10026.7,557.1C10026.7,557.6 10027.1,558 10027.7,558.2L10027.6,559.8C10026.7,560 10026.1,560.6 10026.1,561.2C10026.1,561.8 10026.7,562.3 10027.4,562.6L10027.3,564.8C10026.1,565.1 10025.3,565.8 10025.3,566.7C10025.3,567.5 10026.1,568.3 10027.2,568.6L10027.2,569.7C10027.2,572 10025.4,572.4 10025.4,572.4L10025.4,574.4L10031.4,574.4L10031.4,572.4C10031.4,572.4 10029.6,572 10029.6,569.7Z" style="fill:rgb(204,204,204);fill-rule:nonzero;"/>
                <g>
                    <path d="M10008.4,597.9C10007.8,597.7 10007.4,597.4 10007.1,597.2C10007.4,597.4 10007.9,597.7 10008.4,597.9Z" style="fill:rgb(219,204,193);fill-rule:nonzero;"/>
                    <path d="M10049.4,597.2C10049.3,597.2 10049.3,597.3 10049.4,597.2C10049.3,597.3 10049.3,597.2 10049.4,597.2Z" style="fill:rgb(219,204,193);fill-rule:nonzero;"/>
                    <path d="M10049.4,597.2L10049.4,597.2Z" style="fill:rgb(219,204,193);fill-rule:nonzero;"/>
                    <path d="M10049.4,597.2C10049.8,596.9 10050.1,596.6 10050.1,596.2L10050.1,596.1C10050,596.6 10049.8,596.9 10049.4,597.2Z" style="fill:rgb(161,141,127);fill-rule:nonzero;"/>
                    <path d="M10049.4,597.2L10049.4,597.2Z" style="fill:rgb(161,141,127);fill-rule:nonzero;"/>
                    <path d="M10006.5,596.1C10006.5,596.2 10006.5,596.2 10006.5,596.1C10006.5,596.5 10006.7,596.8 10007.1,597.1C10006.8,596.9 10006.6,596.5 10006.5,596.1Z" style="fill:rgb(161,141,127);fill-rule:nonzero;"/>
                    <path d="M10044.9,592.1C10045,591.4 10045,590.7 10045,589.9C10045,580.8 10037.6,573.4 10028.5,573.4C10019.4,573.4 10012,580.8 10012,589.9C10012,590.6 10012,591.3 10012.1,592C10016.1,591.3 10021.7,590.9 10028.1,590.9C10035,590.9 10041,591.4 10044.9,592.1Z" style="fill:rgb(244,240,237);fill-rule:nonzero;"/>
                    <path d="M10050.1,594.3C10050.1,593.5 10048.1,592.7 10045,592.1C10041,591.4 10035,590.9 10028.3,590.9C10021.9,590.9 10016.3,591.3 10012.3,592C10008.8,592.6 10006.6,593.4 10006.5,594.3C10006.4,595 10006.4,595.7 10006.5,596.2C10006.6,595.2 10008.9,594.3 10012.6,593.6C10016.6,592.9 10022.1,592.4 10028.3,592.4C10034.8,592.4 10040.7,592.9 10044.7,593.7C10048,594.4 10050,595.2 10050.1,596.2C10050.2,595.6 10050.1,595 10050.1,594.3Z" style="fill:white;fill-rule:nonzero;"/>
                    <path d="M10044.7,593.6C10040.7,592.8 10034.8,592.3 10028.3,592.3C10022.1,592.3 10016.6,592.8 10012.6,593.5C10008.9,594.2 10006.6,595.1 10006.5,596.1C10006.6,596.5 10006.8,596.8 10007.1,597.1C10007.4,597.3 10007.9,597.6 10008.4,597.8C10009.9,598.4 10012.2,598.9 10015.1,599.3C10018.8,599.8 10023.3,600.1 10028.2,600.1C10033.5,600.1 10038.3,599.8 10042.1,599.2C10045.4,598.7 10047.8,598.1 10049.1,597.3C10049.1,597.3 10049.2,597.3 10049.2,597.2C10049.2,597.2 10049.3,597.2 10049.3,597.1C10049.7,596.8 10049.9,596.5 10049.9,596.1C10050,595.2 10048,594.3 10044.7,593.6Z" style="fill:rgb(153,153,153);fill-rule:nonzero;"/>
                </g>
                <path d="M10014.5,629.7L10014.5,598.4C10014.5,598.4 10016.6,595.9 10028.7,595.9C10039.4,595.9 10042,597.9 10042.2,598.4C10042.4,598.9 10042.2,629.7 10042.2,629.7L10014.5,629.7Z" style="fill:rgb(244,240,237);fill-rule:nonzero;"/>
                <path d="M10004.4,859.2L10012.9,639.8L10026.9,634.1L10033.5,634.1L10043.5,640.5L10052,859.2L10004.4,859.2Z" style="fill:rgb(244,240,237);fill-rule:nonzero;"/>
                <path d="M10006.5,803.1L10006.5,798L10003.1,794.1L10003.1,789.4C10003.1,789.4 10010.1,785.8 10028.1,785.8C10028.1,785.8 10046.7,785.2 10053.6,789.4L10053.6,794.1L10049.9,798L10049.9,803.2C10049.9,803.2 10047.1,799.8 10028.1,799.6C10009.1,799.4 10006.5,803.1 10006.5,803.1Z" style="fill:rgb(204,204,204);fill-rule:nonzero;"/>
                <path d="M10009.4,731.4L10009.4,726.9L10006.4,723.5L10006.4,719.4C10006.4,719.4 10012.5,716.2 10028.2,716.2C10028.2,716.2 10044.4,715.7 10050.5,719.4L10050.5,723.5L10047.2,726.9L10047.2,731.4C10047.2,731.4 10044.8,728.4 10028.2,728.3C10011.7,728.1 10009.4,731.4 10009.4,731.4Z" style="fill:rgb(204,204,204);fill-rule:nonzero;"/>
                <path d="M10012.9,640.6L10012.9,636.9L10010.5,634.1L10010.5,630.7C10010.5,630.7 10015.5,628.1 10028.4,628.1C10028.4,628.1 10041.7,627.7 10046.7,630.7L10046.7,634.1L10044,636.9L10044,640.6C10044,640.6 10042,638.2 10028.4,638C10014.8,637.8 10012.9,640.6 10012.9,640.6Z" style="fill:rgb(204,204,204);fill-rule:nonzero;"/>
                <g>
                    <path d="M10004.5,793.7L10007.4,792.1L10011.3,796.2L10008.3,797.6L10004.5,793.7Z" style="fill:rgb(153,153,153);fill-rule:nonzero;"/>
                    <path d="M10008.8,791.7L10012.2,790.7L10015,795.5L10012,795.8L10008.8,791.7Z" style="fill:rgb(153,153,153);fill-rule:nonzero;"/>
                    <path d="M10014.3,790.7L10018.2,790.3L10019.3,795.1L10016.1,795.3L10014.3,790.7Z" style="fill:rgb(153,153,153);fill-rule:nonzero;"/>
                    <path d="M10019.5,790.3L10023,790.3L10023.4,794.9L10020.7,794.9L10019.5,790.3Z" style="fill:rgb(153,153,153);fill-rule:nonzero;"/>
                    <rect x="10024.6" y="790.3" width="3" height="4.6" style="fill:rgb(153,153,153);"/>
                    <path d="M10052.2,793.7L10049.4,792.1L10045.4,796.2L10048.5,797.6L10052.2,793.7Z" style="fill:rgb(153,153,153);fill-rule:nonzero;"/>
                    <path d="M10047.9,791.7L10044.6,790.7L10041.7,795.5L10044.7,795.8L10047.9,791.7Z" style="fill:rgb(153,153,153);fill-rule:nonzero;"/>
                    <path d="M10042.4,790.7L10038.5,790.3L10037.4,795.1L10040.6,795.3L10042.4,790.7Z" style="fill:rgb(153,153,153);fill-rule:nonzero;"/>
                    <path d="M10037.3,790.3L10033.7,790.3L10033.4,794.9L10036,794.9L10037.3,790.3Z" style="fill:rgb(153,153,153);fill-rule:nonzero;"/>
                    <rect x="10029.1" y="790.3" width="3" height="4.6" style="fill:rgb(153,153,153);"/>
                </g>
                <g>
                    <path d="M10007.7,722.6L10010.2,721.2L10013.6,724.7L10011,726L10007.7,722.6Z" style="fill:rgb(153,153,153);fill-rule:nonzero;"/>
                    <path d="M10011.5,720.9L10014.4,719.9L10016.9,724.1L10014.3,724.4L10011.5,720.9Z" style="fill:rgb(153,153,153);fill-rule:nonzero;"/>
                    <path d="M10016.3,719.9L10019.7,719.6L10020.6,723.8L10017.8,724L10016.3,719.9Z" style="fill:rgb(153,153,153);fill-rule:nonzero;"/>
                    <path d="M10020.8,719.6L10023.9,719.6L10024.2,723.7L10021.9,723.7L10020.8,719.6Z" style="fill:rgb(153,153,153);fill-rule:nonzero;"/>
                    <rect x="10025.3" y="719.6" width="2.6" height="4" style="fill:rgb(153,153,153);"/>
                    <path d="M10049.4,722.6L10046.9,721.2L10043.5,724.7L10046.1,726L10049.4,722.6Z" style="fill:rgb(153,153,153);fill-rule:nonzero;"/>
                    <path d="M10045.6,720.9L10042.7,719.9L10040.2,724.1L10042.8,724.4L10045.6,720.9Z" style="fill:rgb(153,153,153);fill-rule:nonzero;"/>
                    <path d="M10040.8,719.9L10037.4,719.6L10036.5,723.8L10039.3,724L10040.8,719.9Z" style="fill:rgb(153,153,153);fill-rule:nonzero;"/>
                    <path d="M10036.3,719.6L10033.2,719.6L10032.9,723.7L10035.2,723.7L10036.3,719.6Z" style="fill:rgb(153,153,153);fill-rule:nonzero;"/>
                    <rect x="10029.2" y="719.6" width="2.6" height="4" style="fill:rgb(153,153,153);"/>
                </g>
                <g>
                    <path d="M10011.5,633.5L10013.5,632.4L10016.3,635.2L10014.1,636.3L10011.5,633.5Z" style="fill:rgb(153,153,153);fill-rule:nonzero;"/>
                    <path d="M10014.5,632.1L10016.9,631.3L10018.9,634.7L10016.8,635L10014.5,632.1Z" style="fill:rgb(153,153,153);fill-rule:nonzero;"/>
                    <path d="M10018.4,631.3L10021.2,631.1L10022,634.5L10019.7,634.6L10018.4,631.3Z" style="fill:rgb(153,153,153);fill-rule:nonzero;"/>
                    <path d="M10022.1,631.1L10024.6,631.1L10024.8,634.4L10023,634.4L10022.1,631.1Z" style="fill:rgb(153,153,153);fill-rule:nonzero;"/>
                    <rect x="10025.7" y="631.1" width="2.1" height="3.3" style="fill:rgb(153,153,153);"/>
                    <path d="M10045.2,633.5L10043.2,632.4L10040.4,635.2L10042.6,636.3L10045.2,633.5Z" style="fill:rgb(153,153,153);fill-rule:nonzero;"/>
                    <path d="M10042.2,632.1L10039.8,631.3L10037.8,634.7L10039.9,635L10042.2,632.1Z" style="fill:rgb(153,153,153);fill-rule:nonzero;"/>
                    <path d="M10038.3,631.3L10035.5,631.1L10034.8,634.5L10037.1,634.6L10038.3,631.3Z" style="fill:rgb(153,153,153);fill-rule:nonzero;"/>
                    <path d="M10034.7,631.1L10032.1,631.1L10031.9,634.4L10033.8,634.4L10034.7,631.1Z" style="fill:rgb(153,153,153);fill-rule:nonzero;"/>
                    <rect x="10028.9" y="631.1" width="2.1" height="3.3" style="fill:rgb(153,153,153);"/>
                </g>
                <path d="M10015.6,628.6L10015.6,608C10015.6,606.9 10015.9,605.8 10016.5,604.9C10017,604.2 10017.6,603.5 10018.5,603.5C10019.7,603.5 10020.4,604.8 10020.8,605.8C10021.1,606.5 10021.2,607.2 10021.2,607.9L10021.2,628.1C10021.1,628.1 10016.3,628.3 10015.6,628.6Z" style="fill:rgb(153,153,153);fill-rule:nonzero;"/>
                <path d="M10041.9,628.6L10041.9,608C10041.9,606.9 10041.6,605.8 10041,604.9C10040.5,604.2 10039.9,603.5 10039,603.5C10037.8,603.5 10037.1,604.8 10036.7,605.8C10036.4,606.5 10036.3,607.2 10036.3,607.9L10036.3,628.1C10036.4,628.1 10041.2,628.3 10041.9,628.6Z" style="fill:rgb(153,153,153);fill-rule:nonzero;"/>
                <path d="M10024.4,627.7L10032.6,627.7L10032.6,605.3C10032.6,601.6 10028.5,601.4 10028.5,601.4C10028.5,601.4 10024.4,601.6 10024.4,605.3L10024.4,627.7Z" style="fill:rgb(153,153,153);fill-rule:nonzero;"/>
                <rect x="10004.4" y="859.2" width="47.9" height="9.8" style="fill:rgb(204,204,204);"/>
            </g>
            <g id="Turm_Hauptgebäude_links_3_">
                <g>
                    <g>
                        <path d="M9489.5,509.4C9489.4,506.4 9487.9,503.7 9485.8,502.2C9483.8,494.3 9482.2,478.3 9482.7,446.1C9486.3,445.8 9488.1,440.3 9488.7,438.3C9487.5,442 9482.7,444.1 9482.7,444.1L9481.7,436.2L9480.7,444.1C9480.7,444.1 9475.9,442 9474.7,438.3C9475.3,440.4 9477.1,445.8 9480.7,446.1C9481.2,478.1 9479.6,494.2 9477.6,502.1C9475.3,503.6 9473.8,506.4 9473.7,509.5C9472.7,509.8 9472.1,509.1 9472.1,509.1L9472.1,512.9L9491.3,512.9L9491.3,509.1C9491.3,509.1 9490.6,509.8 9489.5,509.4Z" style="fill:rgb(204,204,204);fill-rule:nonzero;"/>
                        <path d="M9474.6,438.2C9474.5,437.7 9474.4,437.4 9474.4,437.4C9474.5,437.7 9474.6,438 9474.6,438.2Z" style="fill:rgb(172,153,141);fill-rule:nonzero;"/>
                        <path d="M9488.7,438.2C9488.8,437.9 9488.8,437.7 9488.9,437.4C9488.9,437.4 9488.9,437.7 9488.7,438.2Z" style="fill:rgb(172,153,141);fill-rule:nonzero;"/>
                    </g>
                    <ellipse cx="9482" cy="488.9" rx="9.6" ry="8.4" style="fill:rgb(153,153,153);"/>
                    <ellipse cx="9482" cy="470.3" rx="6.6" ry="5.7" style="fill:rgb(153,153,153);"/>
                    <g>
                        <path d="M9481.9,461.5C9486.3,461.5 9489.8,458.4 9489.8,454.6L9474,454.6C9474,458.5 9477.6,461.5 9481.9,461.5Z" style="fill:rgb(153,153,153);fill-rule:nonzero;"/>
                        <path d="M9481.9,449.1C9478.4,449.1 9475.5,451.6 9475.5,454.6L9488.2,454.6C9488.3,451.6 9485.5,449.1 9481.9,449.1Z" style="fill:rgb(153,153,153);fill-rule:nonzero;"/>
                    </g>
                </g>
                <path d="M9537.6,574.8C9537.9,572.4 9538.1,569.9 9538.1,567.3C9538.1,536.3 9513,511.3 9482.1,511.3C9451.1,511.3 9426.1,536.4 9426.1,567.3C9426.1,569.7 9426.3,572.1 9426.5,574.4C9440,572.1 9459.2,570.6 9480.9,570.6C9503.7,570.7 9524.1,572.3 9537.6,574.8Z" style="fill:rgb(244,240,237);fill-rule:nonzero;"/>
                <g>
                    <path d="M9552.7,579.9C9552.6,577.2 9546.3,574.7 9535.8,572.8C9522.7,570.4 9503,568.8 9480.9,568.8C9460,568.8 9441.4,570.2 9428.3,572.4C9416.7,574.4 9409.5,577 9409.1,579.9C9408.8,582.3 9408.7,584.4 9409.1,586.1C9409.5,582.7 9417,579.7 9429.1,577.4C9442.2,575 9460.5,573.4 9480.8,573.4C9502.3,573.4 9521.6,575.1 9534.7,577.8C9545.5,580 9552.2,582.9 9552.5,586.1C9553,584.4 9552.8,582.4 9552.7,579.9Z" style="fill:white;fill-rule:nonzero;"/>
                    <path d="M9534.9,577.8C9521.8,575.1 9502.5,573.4 9481,573.4C9460.7,573.4 9442.4,574.9 9429.3,577.4C9417.2,579.7 9409.6,582.7 9409.3,586.1C9409.6,587.4 9410.3,588.5 9411.3,589.4C9412.4,590.2 9413.9,591 9415.7,591.7C9420.7,593.7 9428.3,595.4 9437.8,596.6C9449.8,598.2 9464.8,599.2 9481,599.2C9498.4,599.2 9514.4,598.1 9526.8,596.2C9537.6,594.6 9545.7,592.4 9549.8,589.9C9549.9,589.8 9550,589.8 9550.1,589.7C9550.2,589.6 9550.3,589.6 9550.4,589.5L9550.5,589.4C9550.5,589.4 9550.6,589.4 9550.6,589.3C9551.9,588.4 9552.5,587.3 9552.7,585.9C9552.3,582.9 9545.7,580.1 9534.9,577.8Z" style="fill:rgb(153,153,153);fill-rule:nonzero;"/>
                </g>
                <path d="M9434.3,635.1L9434.3,594.2C9434.3,594.2 9441.6,586.7 9481.1,586.7C9520.6,586.7 9524.5,594.2 9524.5,594.2L9524.5,635.1L9434.3,635.1Z" style="fill:rgb(244,240,237);fill-rule:nonzero;"/>
                <path d="M9437.3,632.4L9455.3,632.4C9455.3,632.4 9455.6,612.7 9446.3,612.7C9437,612.7 9437.3,632.4 9437.3,632.4Z" style="fill:rgb(153,153,153);fill-rule:nonzero;"/>
                <path d="M9507.8,632.4L9525.8,632.4C9525.8,632.4 9526.1,612.7 9516.8,612.7C9507.5,612.7 9507.8,632.4 9507.8,632.4Z" style="fill:rgb(153,153,153);fill-rule:nonzero;"/>
                <path d="M9481.7,605.4C9481.7,605.4 9496.1,607.4 9496.1,618.1L9496.1,632.5L9467.3,632.5L9467.3,618.1C9467.3,607.4 9481.7,605.4 9481.7,605.4Z" style="fill:rgb(153,153,153);fill-rule:nonzero;"/>
            </g>
            <g id="Turm_Hauptgebäude_links_2_">
                <g>
                    <g>
                        <path d="M9822.2,509.4C9822.1,506.4 9820.6,503.7 9818.5,502.2C9816.5,494.3 9814.9,478.3 9815.4,446.1C9819,445.8 9820.8,440.3 9821.4,438.3C9820.2,442 9815.4,444.1 9815.4,444.1L9814.4,436.2L9813.4,444.1C9813.4,444.1 9808.6,442 9807.4,438.3C9808,440.4 9809.8,445.8 9813.4,446.1C9813.9,478.1 9812.3,494.2 9810.3,502.1C9808,503.6 9806.5,506.4 9806.4,509.5C9805.4,509.8 9804.8,509.1 9804.8,509.1L9804.8,512.9L9824,512.9L9824,509.1C9823.9,509.1 9823.2,509.8 9822.2,509.4Z" style="fill:rgb(204,204,204);fill-rule:nonzero;"/>
                        <path d="M9807.3,438.2C9807.2,437.7 9807.1,437.4 9807.1,437.4C9807.1,437.7 9807.2,438 9807.3,438.2Z" style="fill:rgb(172,153,141);fill-rule:nonzero;"/>
                        <path d="M9821.3,438.2C9821.4,437.9 9821.4,437.7 9821.5,437.4C9821.5,437.4 9821.5,437.7 9821.3,438.2Z" style="fill:rgb(172,153,141);fill-rule:nonzero;"/>
                    </g>
                    <ellipse cx="9814.6" cy="488.9" rx="9.6" ry="8.4" style="fill:rgb(153,153,153);"/>
                    <ellipse cx="9814.6" cy="470.3" rx="6.6" ry="5.7" style="fill:rgb(153,153,153);"/>
                    <g>
                        <path d="M9814.6,461.5C9819,461.5 9822.5,458.4 9822.5,454.6L9806.6,454.6C9806.6,458.5 9810.2,461.5 9814.6,461.5Z" style="fill:rgb(153,153,153);fill-rule:nonzero;"/>
                        <path d="M9814.6,449.1C9811.1,449.1 9808.2,451.6 9808.2,454.6L9820.9,454.6C9820.9,451.6 9818.1,449.1 9814.6,449.1Z" style="fill:rgb(153,153,153);fill-rule:nonzero;"/>
                    </g>
                </g>
                <path d="M9870.3,574.8C9870.6,572.4 9870.8,569.9 9870.8,567.3C9870.8,536.3 9845.7,511.3 9814.8,511.3C9783.8,511.3 9758.8,536.4 9758.8,567.3C9758.8,569.7 9759,572.1 9759.2,574.4C9772.7,572.1 9791.9,570.6 9813.6,570.6C9836.3,570.7 9856.7,572.3 9870.3,574.8Z" style="fill:rgb(244,240,237);fill-rule:nonzero;"/>
                <g>
                    <path d="M9885.3,579.9C9885.2,577.2 9878.9,574.7 9868.4,572.8C9855.3,570.4 9835.6,568.8 9813.5,568.8C9792.6,568.8 9774,570.2 9760.9,572.4C9749.3,574.4 9742.1,577 9741.7,579.9C9741.4,582.3 9741.3,584.4 9741.7,586.1C9742.1,582.7 9749.6,579.7 9761.7,577.4C9774.8,575 9793.1,573.4 9813.4,573.4C9834.9,573.4 9854.2,575.1 9867.3,577.8C9878.1,580 9884.8,582.9 9885.1,586.1C9885.6,584.4 9885.4,582.4 9885.3,579.9Z" style="fill:white;fill-rule:nonzero;"/>
                    <path d="M9867.5,577.8C9854.4,575.1 9835.1,573.4 9813.6,573.4C9793.3,573.4 9775,574.9 9761.9,577.4C9749.8,579.7 9742.2,582.7 9741.9,586.1C9742.2,587.4 9742.9,588.5 9743.9,589.4C9745,590.2 9746.5,591 9748.3,591.7C9753.3,593.7 9760.9,595.4 9770.4,596.6C9782.4,598.2 9797.4,599.2 9813.6,599.2C9831,599.2 9847,598.1 9859.4,596.2C9870.2,594.6 9878.3,592.4 9882.4,589.9C9882.5,589.8 9882.6,589.8 9882.7,589.7C9882.8,589.6 9882.9,589.6 9883,589.5L9883.1,589.4C9883.1,589.4 9883.2,589.4 9883.2,589.3C9884.5,588.4 9885.1,587.3 9885.3,585.9C9884.9,582.9 9878.3,580.1 9867.5,577.8Z" style="fill:rgb(153,153,153);fill-rule:nonzero;"/>
                </g>
                <path d="M9770.2,635.4L9770.2,595.8C9770.2,595.8 9777.5,588.3 9817,588.3C9856.4,588.3 9860.4,595.8 9860.4,595.8L9860.4,635.4L9770.2,635.4Z" style="fill:rgb(244,240,237);fill-rule:nonzero;"/>
                <path d="M9769.9,632.4L9787.9,632.4C9787.9,632.4 9788.2,612.7 9778.9,612.7C9769.6,612.7 9769.9,632.4 9769.9,632.4Z" style="fill:rgb(153,153,153);fill-rule:nonzero;"/>
                <path d="M9840.4,632.4L9858.4,632.4C9858.4,632.4 9858.7,612.7 9849.4,612.7C9840.1,612.7 9840.4,632.4 9840.4,632.4Z" style="fill:rgb(153,153,153);fill-rule:nonzero;"/>
                <path d="M9814.3,605.4C9814.3,605.4 9828.7,607.4 9828.7,618.1L9828.7,632.5L9799.9,632.5L9799.9,618.1C9799.9,607.4 9814.3,605.4 9814.3,605.4Z" style="fill:rgb(153,153,153);fill-rule:nonzero;"/>
            </g>
            <g id="Türmchen_Hauptgebäude">
                <g>
                    <g>
                        <path d="M9656.3,322.7C9656.2,318.8 9654.6,315.4 9652.2,313.5C9650,303.4 9648.2,282.9 9648.8,241.7C9652.8,241.3 9654.8,234.3 9655.4,231.7C9654.1,236.4 9648.8,239.1 9648.8,239.1L9647.7,229L9646.6,239.1C9646.6,239.1 9641.3,236.4 9640,231.7C9640.6,234.3 9642.6,241.3 9646.6,241.7C9647.1,282.6 9645.3,303.1 9643.2,313.3C9640.7,315.2 9639,318.7 9638.9,322.8C9637.8,323.2 9637.1,322.3 9637.1,322.3L9637.1,327.1L9658.5,327.1L9658.5,322.3C9658.3,322.3 9657.5,323.3 9656.3,322.7Z" style="fill:rgb(204,204,204);fill-rule:nonzero;"/>
                        <path d="M9639.9,231.8C9639.8,231.2 9639.7,230.8 9639.7,230.8C9639.7,231.1 9639.8,231.4 9639.9,231.8Z" style="fill:rgb(172,153,141);fill-rule:nonzero;"/>
                        <path d="M9655.4,231.8C9655.5,231.5 9655.6,231.1 9655.6,230.8C9655.6,230.8 9655.6,231.1 9655.4,231.8Z" style="fill:rgb(172,153,141);fill-rule:nonzero;"/>
                    </g>
                    <circle cx="9648" cy="296.6" r="10.7" style="fill:rgb(153,153,153);"/>
                    <circle cx="9648" cy="272.8" r="7.3" style="fill:rgb(153,153,153);"/>
                    <g>
                        <path d="M9647.9,261.6C9652.8,261.6 9656.7,257.7 9656.7,252.8L9639.1,252.8C9639.1,257.6 9643.1,261.6 9647.9,261.6Z" style="fill:rgb(153,153,153);fill-rule:nonzero;"/>
                        <path d="M9647.9,245.7C9644,245.7 9640.9,248.9 9640.9,252.7L9655,252.7C9655,248.9 9651.8,245.7 9647.9,245.7Z" style="fill:rgb(153,153,153);fill-rule:nonzero;"/>
                    </g>
                </g>
            </g>
            <g id="Ebene_18">
                <g>
                    <g>
                        <path d="M9339.8,572.6C9339.8,581.6 9338.8,582 9338.8,582L9340.8,582C9340.8,582 9339.8,581.7 9339.8,572.6Z" style="fill:rgb(153,153,153);fill-rule:nonzero;"/>
                        <path d="M9346.2,589C9346.2,588.7 9346.3,588.4 9346.3,588.1C9346.3,584.5 9343.4,581.6 9339.8,581.6C9336.2,581.6 9333.3,584.5 9333.3,588.1C9333.3,588.4 9333.3,588.7 9333.4,588.9C9335,588.6 9337.2,588.5 9339.7,588.5C9342.3,588.5 9344.6,588.7 9346.2,589Z" style="fill:rgb(230,230,230);fill-rule:nonzero;"/>
                        <g>
                            <path d="M9348.1,589.8C9348.1,589.5 9347.4,589.2 9346.2,589C9344.7,588.7 9342.4,588.5 9339.9,588.5C9337.5,588.5 9335.3,588.7 9333.8,588.9C9332.5,589.1 9331.6,589.4 9331.6,589.8L9331.6,590.5C9331.6,590.1 9332.5,589.8 9333.9,589.5C9335.4,589.2 9337.5,589 9339.9,589C9342.4,589 9344.6,589.2 9346.1,589.5C9347.4,589.8 9348.1,590.1 9348.2,590.5C9348.1,590.3 9348.1,590.1 9348.1,589.8Z" style="fill:white;fill-rule:nonzero;"/>
                            <path d="M9346,589.5C9344.5,589.2 9342.3,589 9339.8,589C9337.5,589 9335.3,589.2 9333.8,589.5C9332.4,589.8 9331.5,590.1 9331.5,590.5C9331.5,590.6 9331.6,590.8 9331.7,590.9C9331.8,591 9332,591.1 9332.2,591.2C9332.8,591.4 9333.7,591.6 9334.8,591.8C9336.2,592 9337.9,592.1 9339.8,592.1C9341.8,592.1 9343.7,592 9345.1,591.8C9346.3,591.6 9347.3,591.4 9347.8,591.1C9347.9,591 9348,590.9 9348,590.7C9348,590.1 9347.3,589.8 9346,589.5Z" style="fill:rgb(153,153,153);fill-rule:nonzero;"/>
                        </g>
                    </g>
                    <path d="M9339.8,590C9337.7,590 9336,590.8 9336,591.7L9336,654.1L9343.7,654.1L9343.7,591.7C9343.6,590.8 9341.9,590 9339.8,590Z" style="fill:rgb(230,230,230);fill-rule:nonzero;"/>
                </g>
                <g>
                    <g>
                        <path d="M9955.3,572.6C9955.3,581.6 9956.3,582 9956.3,582L9954.3,582C9954.3,582 9955.3,581.7 9955.3,572.6Z" style="fill:rgb(153,153,153);fill-rule:nonzero;"/>
                        <path d="M9948.8,589C9948.8,588.7 9948.7,588.4 9948.7,588.1C9948.7,584.5 9951.6,581.6 9955.2,581.6C9958.8,581.6 9961.7,584.5 9961.7,588.1C9961.7,588.4 9961.7,588.7 9961.6,588.9C9960,588.6 9957.8,588.5 9955.3,588.5C9952.8,588.5 9950.4,588.7 9948.8,589Z" style="fill:rgb(230,230,230);fill-rule:nonzero;"/>
                        <g>
                            <path d="M9947,589.8C9947,589.5 9947.7,589.2 9948.9,589C9950.4,588.7 9952.7,588.5 9955.2,588.5C9957.6,588.5 9959.8,588.7 9961.3,588.9C9962.6,589.1 9963.5,589.4 9963.5,589.8L9963.5,590.5C9963.5,590.1 9962.6,589.8 9961.2,589.5C9959.7,589.2 9957.6,589 9955.2,589C9952.7,589 9950.5,589.2 9949,589.5C9947.7,589.8 9947,590.1 9946.9,590.5C9946.9,590.3 9946.9,590.1 9947,589.8Z" style="fill:white;fill-rule:nonzero;"/>
                            <path d="M9949,589.5C9950.5,589.2 9952.7,589 9955.2,589C9957.5,589 9959.7,589.2 9961.2,589.5C9962.6,589.8 9963.5,590.1 9963.5,590.5C9963.5,590.6 9963.4,590.8 9963.3,590.9C9963.2,591 9963,591.1 9962.8,591.2C9962.2,591.4 9961.3,591.6 9960.2,591.8C9958.8,592 9957.1,592.1 9955.2,592.1C9953.2,592.1 9951.3,592 9949.9,591.8C9948.7,591.6 9947.7,591.4 9947.2,591.1C9947.1,591 9947,590.9 9947,590.7C9947,590.1 9947.8,589.8 9949,589.5Z" style="fill:rgb(153,153,153);fill-rule:nonzero;"/>
                        </g>
                    </g>
                    <path d="M9955.3,590C9957.4,590 9959.1,590.8 9959.1,591.7L9959.1,654.1L9951.4,654.1L9951.4,591.7C9951.4,590.8 9953.1,590 9955.3,590Z" style="fill:rgb(230,230,230);fill-rule:nonzero;"/>
                </g>
            </g>
            <path id="Hauptgebäude_1_" d="M9314,868L9981,868L9981.6,650.1L9891.1,632.4L9770.9,632.4L9770.9,507.5C9770.9,507.5 9822.3,410.7 9658.4,325.5L9637,325.5C9473,410.7 9524.5,507.5 9524.5,507.5L9524.5,632.4L9404.3,632.4L9313.8,650.1L9314,868Z" style="fill:rgb(244,240,237);fill-rule:nonzero;"/>
            <rect x="9530.1" y="549.3" width="234.8" height="15.7" style="fill:rgb(153,153,153);"/>
            <g id="dünne_Säulen_Hauptgebäude">
                <g>
                    <g>
                        <path d="M9766.6,480.5C9766.6,489.5 9767.6,489.9 9767.6,489.9L9765.6,489.9C9765.6,489.8 9766.6,489.5 9766.6,480.5Z" style="fill:rgb(153,153,153);fill-rule:nonzero;"/>
                        <path d="M9760.1,496.8C9760.1,496.5 9760,496.2 9760,495.9C9760,492.3 9762.9,489.4 9766.5,489.4C9770.1,489.4 9773,492.3 9773,495.9C9773,496.2 9773,496.5 9772.9,496.7C9771.3,496.4 9769.1,496.3 9766.6,496.3C9764.1,496.4 9761.7,496.5 9760.1,496.8Z" style="fill:rgb(230,230,230);fill-rule:nonzero;"/>
                        <g>
                            <path d="M9758.3,497.6C9758.3,497.3 9759,497 9760.3,496.8C9761.8,496.5 9764.1,496.3 9766.6,496.3C9769,496.3 9771.2,496.5 9772.7,496.7C9774,496.9 9774.9,497.2 9774.9,497.6L9774.9,498.3C9774.9,497.9 9774,497.6 9772.6,497.3C9771.1,497 9769,496.8 9766.6,496.8C9764.1,496.8 9761.9,497 9760.4,497.3C9759.1,497.6 9758.4,497.9 9758.3,498.3C9758.2,498.1 9758.3,497.9 9758.3,497.6Z" style="fill:rgb(219,204,193);fill-rule:nonzero;"/>
                            <path d="M9760.3,497.4C9761.8,497.1 9764,496.9 9766.5,496.9C9768.8,496.9 9771,497.1 9772.5,497.4C9773.9,497.7 9774.8,498 9774.8,498.4C9774.8,498.5 9774.7,498.7 9774.6,498.8C9774.5,498.9 9774.3,499 9774.1,499.1C9773.5,499.3 9772.6,499.5 9771.5,499.7C9770.1,499.9 9768.4,500 9766.5,500C9764.5,500 9762.6,499.9 9761.2,499.7C9760,499.5 9759,499.3 9758.5,499C9758.4,498.9 9758.3,498.8 9758.3,498.6C9758.3,498 9759.1,497.6 9760.3,497.4Z" style="fill:rgb(153,153,153);fill-rule:nonzero;"/>
                        </g>
                    </g>
                    <path d="M9766.6,497.8C9768.7,497.8 9770.4,498.6 9770.4,499.5L9770.4,867.1L9762.7,867.1L9762.7,499.5C9762.7,498.6 9764.5,497.8 9766.6,497.8Z" style="fill:rgb(230,230,230);fill-rule:nonzero;"/>
                </g>
                <g>
                    <g>
                        <path d="M9318.1,593.7C9318.1,602.7 9317.1,603.1 9317.1,603.1L9319.1,603.1C9319.1,603 9318.1,602.7 9318.1,593.7Z" style="fill:rgb(153,153,153);fill-rule:nonzero;"/>
                        <path d="M9324.5,610C9324.5,609.7 9324.6,609.4 9324.6,609.1C9324.6,605.5 9321.7,602.6 9318.1,602.6C9314.5,602.6 9311.6,605.5 9311.6,609.1C9311.6,609.4 9311.6,609.7 9311.7,609.9C9313.3,609.6 9315.5,609.5 9318,609.5C9320.6,609.6 9322.9,609.7 9324.5,610Z" style="fill:rgb(230,230,230);fill-rule:nonzero;"/>
                        <g>
                            <path d="M9326.4,610.8C9326.4,610.5 9325.7,610.2 9324.4,610C9322.9,609.7 9320.6,609.5 9318.1,609.5C9315.7,609.5 9313.5,609.7 9312,609.9C9310.7,610.1 9309.8,610.4 9309.8,610.8L9309.8,611.5C9309.8,611.1 9310.7,610.8 9312.1,610.5C9313.6,610.2 9315.7,610 9318.1,610C9320.6,610 9322.8,610.2 9324.3,610.5C9325.6,610.8 9326.3,611.1 9326.4,611.5L9326.4,610.8Z" style="fill:white;fill-rule:nonzero;"/>
                            <path d="M9324.3,610.6C9322.8,610.3 9320.6,610.1 9318.1,610.1C9315.8,610.1 9313.6,610.3 9312.1,610.6C9310.7,610.9 9309.8,611.2 9309.8,611.6C9309.8,611.7 9309.9,611.9 9310,612C9310.1,612.1 9310.3,612.2 9310.5,612.3C9311.1,612.5 9312,612.7 9313.1,612.9C9314.5,613.1 9316.2,613.2 9318.1,613.2C9320.1,613.2 9322,613.1 9323.4,612.9C9324.6,612.7 9325.6,612.5 9326.1,612.2C9326.2,612.1 9326.3,612 9326.3,611.8C9326.3,611.2 9325.6,610.8 9324.3,610.6Z" style="fill:rgb(153,153,153);fill-rule:nonzero;"/>
                        </g>
                    </g>
                    <path d="M9318.1,611C9316,611 9314.3,611.8 9314.3,612.7L9314.3,868L9322,868L9322,612.7C9321.9,611.8 9320.2,611 9318.1,611Z" style="fill:rgb(230,230,230);fill-rule:nonzero;"/>
                </g>
                <g>
                    <g>
                        <path d="M9404.2,577.6C9404.2,586.6 9403.2,587 9403.2,587L9405.2,587C9405.2,587 9404.2,586.7 9404.2,577.6Z" style="fill:rgb(153,153,153);fill-rule:nonzero;"/>
                        <path d="M9410.7,594C9410.7,593.7 9410.8,593.4 9410.8,593.1C9410.8,589.5 9407.9,586.6 9404.3,586.6C9400.7,586.6 9397.8,589.5 9397.8,593.1C9397.8,593.4 9397.8,593.7 9397.9,593.9C9399.5,593.6 9401.7,593.5 9404.2,593.5C9406.7,593.5 9409.1,593.7 9410.7,594Z" style="fill:rgb(230,230,230);fill-rule:nonzero;"/>
                        <g>
                            <path d="M9412.5,594.8C9412.5,594.5 9411.8,594.2 9410.6,594C9409.1,593.7 9406.8,593.5 9404.3,593.5C9401.9,593.5 9399.7,593.7 9398.2,593.9C9396.9,594.1 9396,594.4 9396,594.8L9396,595.5C9396,595.1 9396.9,594.8 9398.3,594.5C9399.8,594.2 9401.9,594 9404.3,594C9406.8,594 9409,594.2 9410.5,594.5C9411.8,594.8 9412.5,595.1 9412.6,595.5C9412.6,595.3 9412.5,595.1 9412.5,594.8Z" style="fill:white;fill-rule:nonzero;"/>
                            <path d="M9410.5,594.5C9409,594.2 9406.8,594 9404.3,594C9402,594 9399.8,594.2 9398.3,594.5C9396.9,594.8 9396,595.1 9396,595.5C9396,595.6 9396.1,595.8 9396.2,595.9C9396.3,596 9396.5,596.1 9396.7,596.2C9397.3,596.4 9398.2,596.6 9399.3,596.8C9400.7,597 9402.4,597.1 9404.3,597.1C9406.3,597.1 9408.2,597 9409.6,596.8C9410.8,596.6 9411.8,596.4 9412.3,596.1C9412.4,596 9412.5,595.9 9412.5,595.7C9412.5,595.1 9411.7,594.8 9410.5,594.5Z" style="fill:rgb(153,153,153);fill-rule:nonzero;"/>
                        </g>
                    </g>
                    <path d="M9404.2,595C9402.1,595 9400.4,595.8 9400.4,596.7L9400.4,868L9408.1,868L9408.1,596.7C9408.1,595.8 9406.4,595 9404.2,595Z" style="fill:rgb(230,230,230);fill-rule:nonzero;"/>
                </g>
                <g>
                    <g>
                        <path d="M9528.5,480.5C9528.5,489.5 9527.5,489.9 9527.5,489.9L9529.5,489.9C9529.5,489.8 9528.5,489.5 9528.5,480.5Z" style="fill:rgb(153,153,153);fill-rule:nonzero;"/>
                        <path d="M9534.9,496.8C9534.9,496.5 9535,496.2 9535,495.9C9535,492.3 9532.1,489.4 9528.5,489.4C9524.9,489.4 9522,492.3 9522,495.9C9522,496.2 9522,496.5 9522.1,496.7C9523.7,496.4 9525.9,496.3 9528.4,496.3C9531,496.4 9533.3,496.5 9534.9,496.8Z" style="fill:rgb(230,230,230);fill-rule:nonzero;"/>
                        <g>
                            <path d="M9536.8,497.6C9536.8,497.3 9536.1,497 9534.8,496.8C9533.3,496.5 9531,496.3 9528.5,496.3C9526.1,496.3 9523.9,496.5 9522.4,496.7C9521.1,496.9 9520.2,497.2 9520.2,497.6L9520.2,498.3C9520.2,497.9 9521.1,497.6 9522.5,497.3C9524,497 9526.1,496.8 9528.5,496.8C9531,496.8 9533.2,497 9534.7,497.3C9536,497.6 9536.7,497.9 9536.8,498.3L9536.8,497.6Z" style="fill:rgb(219,204,193);fill-rule:nonzero;"/>
                            <path d="M9534.7,497.4C9533.2,497.1 9531,496.9 9528.5,496.9C9526.2,496.9 9524,497.1 9522.5,497.4C9521.1,497.7 9520.2,498 9520.2,498.4C9520.2,498.5 9520.3,498.7 9520.4,498.8C9520.5,498.9 9520.7,499 9520.9,499.1C9521.5,499.3 9522.4,499.5 9523.5,499.7C9524.9,499.9 9526.6,500 9528.5,500C9530.5,500 9532.4,499.9 9533.8,499.7C9535,499.5 9536,499.3 9536.5,499C9536.6,498.9 9536.7,498.8 9536.7,498.6C9536.7,498 9536,497.6 9534.7,497.4Z" style="fill:rgb(153,153,153);fill-rule:nonzero;"/>
                        </g>
                    </g>
                    <path d="M9528.5,497.8C9526.4,497.8 9524.7,498.6 9524.7,499.5L9524.7,868.1L9532.4,868.1L9532.4,499.5C9532.3,498.6 9530.6,497.8 9528.5,497.8Z" style="fill:rgb(230,230,230);fill-rule:nonzero;"/>
                </g>
                <g>
                    <g>
                        <path d="M9977,593.7C9977,602.7 9978,603.1 9978,603.1L9976,603.1C9976,603 9977,602.7 9977,593.7Z" style="fill:rgb(153,153,153);fill-rule:nonzero;"/>
                        <path d="M9970.5,610C9970.5,609.7 9970.4,609.4 9970.4,609.1C9970.4,605.5 9973.3,602.6 9976.9,602.6C9980.5,602.6 9983.4,605.5 9983.4,609.1C9983.4,609.4 9983.4,609.7 9983.3,609.9C9981.7,609.6 9979.5,609.5 9977,609.5C9974.5,609.6 9972.1,609.7 9970.5,610Z" style="fill:rgb(230,230,230);fill-rule:nonzero;"/>
                        <g>
                            <path d="M9968.7,610.8C9968.7,610.5 9969.4,610.2 9970.7,610C9972.2,609.7 9974.5,609.5 9977,609.5C9979.4,609.5 9981.6,609.7 9983.1,609.9C9984.4,610.1 9985.3,610.4 9985.3,610.8L9985.3,611.5C9985.3,611.1 9984.4,610.8 9983,610.5C9981.5,610.2 9979.4,610 9977,610C9974.5,610 9972.3,610.2 9970.8,610.5C9969.5,610.8 9968.8,611.1 9968.7,611.5C9968.6,611.3 9968.7,611.1 9968.7,610.8Z" style="fill:white;fill-rule:nonzero;"/>
                            <path d="M9970.7,610.6C9972.2,610.3 9974.4,610.1 9976.9,610.1C9979.2,610.1 9981.4,610.3 9982.9,610.6C9984.3,610.9 9985.2,611.2 9985.2,611.6C9985.2,611.7 9985.1,611.9 9985,612C9984.9,612.1 9984.7,612.2 9984.5,612.3C9983.9,612.5 9983,612.7 9981.9,612.9C9980.5,613.1 9978.8,613.2 9976.9,613.2C9974.9,613.2 9973,613.1 9971.6,612.9C9970.4,612.7 9969.4,612.5 9968.9,612.2C9968.8,612.1 9968.7,612 9968.7,611.8C9968.7,611.2 9969.5,610.8 9970.7,610.6Z" style="fill:rgb(153,153,153);fill-rule:nonzero;"/>
                        </g>
                    </g>
                    <path d="M9977,611C9979.1,611 9980.8,611.8 9980.8,612.7L9981,868L9973.1,868L9973.1,612.7C9973.1,611.8 9974.8,611 9977,611Z" style="fill:rgb(230,230,230);fill-rule:nonzero;"/>
                </g>
                <g>
                    <g>
                        <path d="M9890.8,577.6C9890.8,586.6 9891.8,587 9891.8,587L9889.8,587C9889.8,587 9890.8,586.7 9890.8,577.6Z" style="fill:rgb(153,153,153);fill-rule:nonzero;"/>
                        <path d="M9884.4,594C9884.4,593.7 9884.3,593.4 9884.3,593.1C9884.3,589.5 9887.2,586.6 9890.8,586.6C9894.4,586.6 9897.3,589.5 9897.3,593.1C9897.3,593.4 9897.3,593.7 9897.2,593.9C9895.6,593.6 9893.4,593.5 9890.9,593.5C9888.3,593.5 9885.9,593.7 9884.4,594Z" style="fill:rgb(230,230,230);fill-rule:nonzero;"/>
                        <g>
                            <path d="M9882.5,594.8C9882.5,594.5 9883.2,594.2 9884.4,594C9885.9,593.7 9888.2,593.5 9890.7,593.5C9893.1,593.5 9895.3,593.7 9896.8,593.9C9898.1,594.1 9899,594.4 9899,594.8L9899,595.5C9899,595.1 9898.1,594.8 9896.7,594.5C9895.2,594.2 9893.1,594 9890.7,594C9888.2,594 9886,594.2 9884.5,594.5C9883.2,594.8 9882.5,595.1 9882.4,595.5C9882.5,595.3 9882.5,595.1 9882.5,594.8Z" style="fill:white;fill-rule:nonzero;"/>
                            <path d="M9884.6,594.5C9886.1,594.2 9888.3,594 9890.8,594C9893.1,594 9895.3,594.2 9896.8,594.5C9898.2,594.8 9899.1,595.1 9899.1,595.5C9899.1,595.6 9899,595.8 9898.9,595.9C9898.8,596 9898.6,596.1 9898.4,596.2C9897.8,596.4 9896.9,596.6 9895.8,596.8C9894.4,597 9892.7,597.1 9890.8,597.1C9888.8,597.1 9886.9,597 9885.5,596.8C9884.3,596.6 9883.3,596.4 9882.8,596.1C9882.7,596 9882.6,595.9 9882.6,595.7C9882.5,595.1 9883.3,594.8 9884.6,594.5Z" style="fill:rgb(153,153,153);fill-rule:nonzero;"/>
                        </g>
                    </g>
                    <path d="M9890.8,595C9892.9,595 9894.6,595.8 9894.6,596.7L9894.6,868L9886.9,868L9886.9,596.7C9887,595.8 9888.7,595 9890.8,595Z" style="fill:rgb(230,230,230);fill-rule:nonzero;"/>
                </g>
            </g>
            <g id="Eingang_1_">
                <g>
                    <path d="M9647.5,866.8L9710,868L9710.5,706.9C9710.5,706.9 9717,676.2 9647.6,647.1L9647.9,647.1C9578.4,676.2 9585,706.9 9585,706.9L9585,868L9647.8,866.8L9647.5,866.8Z" style="fill:rgb(204,204,204);fill-rule:nonzero;"/>
                    <path d="M9647.8,867.2L9701,868L9700.6,715.1C9700.6,715.1 9706.1,689.3 9647.7,664.9L9648,664.9C9589.7,689.3 9595.1,715.1 9595.1,715.1L9595,868L9648,867.2L9647.8,867.2Z" style="fill:rgb(239,239,239);fill-rule:nonzero;"/>
                </g>
                <path d="M9629.1,866.8L9666,866.8L9666,826.8C9666,826.8 9667.9,819.1 9647.5,811.9L9647.6,811.9C9627.1,819.2 9629.1,826.8 9629.1,826.8L9629.1,866.8Z" style="fill:rgb(153,153,153);fill-rule:nonzero;"/>
                <path d="M9629.1,765.7L9666,765.7L9666,725.7C9666,725.7 9667.9,718 9647.5,710.8L9647.6,710.8C9627.1,718.1 9629.1,725.7 9629.1,725.7L9629.1,765.7Z" style="fill:rgb(153,153,153);fill-rule:nonzero;"/>
            </g>
            <g id="Fenster">
                <g>
                    <g>
                        <path d="M9467.4,660.8L9467.6,660.8L9467.4,660.8Z" style="fill:rgb(209,185,163);fill-rule:nonzero;"/>
                        <path d="M9484.5,669.9C9484.6,669.9 9484.6,669.9 9484.5,669.9C9486.4,670.6 9488.1,671.2 9489.7,671.9C9485,668.4 9477.9,664.6 9467.4,660.9C9432.3,673.4 9435.6,686.6 9435.6,686.6L9435.6,755.4L9452.6,755.4L9452.6,695.7C9452.8,695.5 9449.5,682.4 9484.5,669.9Z" style="fill:rgb(204,204,204);fill-rule:nonzero;"/>
                        <path d="M9467.6,755.3L9499.3,755.3L9499.3,686.5C9499.3,686.5 9500.9,680 9489.8,671.8C9488.2,671.1 9486.4,670.5 9484.6,669.8C9449.5,682.3 9452.8,695.5 9452.8,695.5L9452.8,755.2L9467.6,755.2L9467.6,755.3Z" style="fill:rgb(230,230,230);fill-rule:nonzero;"/>
                        <path d="M9484.5,669.8L9484.7,669.8L9484.5,669.8Z" style="fill:rgb(226,200,177);fill-rule:nonzero;"/>
                    </g>
                    <g>
                        <path d="M9467.4,773C9467.5,773 9467.5,773.1 9467.4,773L9467.6,773L9467.4,773Z" style="fill:rgb(209,185,163);fill-rule:nonzero;"/>
                        <path d="M9484.5,782.1C9484.6,782.1 9484.6,782.1 9484.5,782.1C9486.4,782.8 9488.1,783.4 9489.7,784.1C9485,780.6 9477.9,776.8 9467.4,773.1C9432.3,785.6 9435.6,798.8 9435.6,798.8L9435.6,867.6L9452.6,867.6L9452.6,807.9C9452.8,807.7 9449.5,794.6 9484.5,782.1Z" style="fill:rgb(204,204,204);fill-rule:nonzero;"/>
                        <path d="M9467.6,867.5L9499.3,867.5L9499.3,798.7C9499.3,798.7 9500.9,792.2 9489.8,784C9488.2,783.3 9486.4,782.7 9484.6,782C9449.5,794.5 9452.8,807.7 9452.8,807.7L9452.8,867.4L9467.6,867.4L9467.6,867.5Z" style="fill:rgb(230,230,230);fill-rule:nonzero;"/>
                        <path d="M9484.5,782L9484.7,782L9484.5,782Z" style="fill:rgb(226,200,177);fill-rule:nonzero;"/>
                    </g>
                    <path d="M9460,867.2L9482.3,867.2L9482.3,843.1C9482.3,843.1 9483.5,838.5 9471.1,834.1L9471.2,834.1C9458.9,838.5 9460,843.1 9460,843.1L9460,867.2Z" style="fill:rgb(153,153,153);fill-rule:nonzero;"/>
                    <path d="M9460,753.3L9482.3,753.3L9482.3,729.2C9482.3,729.2 9483.5,724.6 9471.1,720.2L9471.2,720.2C9458.9,724.6 9460,729.2 9460,729.2L9460,753.3Z" style="fill:rgb(153,153,153);fill-rule:nonzero;"/>
                </g>
                <g>
                    <g>
                        <path d="M9827.6,660.8C9827.6,660.8 9827.5,660.8 9827.6,660.8L9827.4,660.8L9827.6,660.8Z" style="fill:rgb(209,185,163);fill-rule:nonzero;"/>
                        <path d="M9810.5,669.9C9810.4,669.9 9810.5,669.9 9810.5,669.9C9808.6,670.6 9806.9,671.2 9805.3,671.9C9810,668.4 9817.1,664.6 9827.6,660.9C9862.7,673.4 9859.4,686.6 9859.4,686.6L9859.4,755.4L9842.4,755.4L9842.4,695.7C9842.3,695.5 9845.6,682.4 9810.5,669.9Z" style="fill:rgb(204,204,204);fill-rule:nonzero;"/>
                        <path d="M9827.4,755.3L9795.7,755.3L9795.7,686.5C9795.7,686.5 9794.1,680 9805.2,671.8C9806.8,671.1 9808.6,670.5 9810.4,669.8C9845.5,682.3 9842.2,695.5 9842.2,695.5L9842.2,755.2L9827.4,755.2L9827.4,755.3Z" style="fill:rgb(230,230,230);fill-rule:nonzero;"/>
                        <path d="M9810.6,669.8L9810.4,669.8L9810.6,669.8Z" style="fill:rgb(226,200,177);fill-rule:nonzero;"/>
                    </g>
                    <g>
                        <path d="M9827.6,773C9827.6,773 9827.5,773.1 9827.6,773L9827.4,773L9827.6,773Z" style="fill:rgb(209,185,163);fill-rule:nonzero;"/>
                        <path d="M9810.5,782.1C9810.4,782.1 9810.5,782.1 9810.5,782.1C9808.6,782.8 9806.9,783.4 9805.3,784.1C9810,780.6 9817.1,776.8 9827.6,773.1C9862.7,785.6 9859.4,798.8 9859.4,798.8L9859.4,867.6L9842.4,867.6L9842.4,807.9C9842.3,807.7 9845.6,794.6 9810.5,782.1Z" style="fill:rgb(204,204,204);fill-rule:nonzero;"/>
                        <path d="M9827.4,867.5L9795.7,867.5L9795.7,798.7C9795.7,798.7 9794.1,792.2 9805.2,784C9806.8,783.3 9808.6,782.7 9810.4,782C9845.5,794.5 9842.2,807.7 9842.2,807.7L9842.2,867.4L9827.4,867.4L9827.4,867.5Z" style="fill:rgb(230,230,230);fill-rule:nonzero;"/>
                        <path d="M9810.6,782L9810.4,782L9810.6,782Z" style="fill:rgb(226,200,177);fill-rule:nonzero;"/>
                    </g>
                    <path d="M9835,867.2L9812.7,867.2L9812.7,843.1C9812.7,843.1 9811.5,838.5 9823.9,834.1L9823.8,834.1C9836.1,838.5 9835,843.1 9835,843.1L9835,867.2Z" style="fill:rgb(153,153,153);fill-rule:nonzero;"/>
                    <path d="M9835,753.3L9812.7,753.3L9812.7,729.2C9812.7,729.2 9811.5,724.6 9823.9,720.2L9823.8,720.2C9836.1,724.6 9835,729.2 9835,729.2L9835,753.3Z" style="fill:rgb(153,153,153);fill-rule:nonzero;"/>
                </g>
                <g>
                    <path d="M9340.4,759.6L9340.4,699.2C9340.4,699.2 9337.1,686.8 9361.8,665.8C9361.8,665.8 9383.2,675.2 9383.5,688.2L9382.8,753L9340.4,759.6Z" style="fill:rgb(204,204,204);fill-rule:nonzero;"/>
                    <path d="M9362.1,757L9383.1,754L9383.1,690.2C9383.1,690.2 9383.4,682.2 9379.4,678.5C9379.4,678.5 9361.7,692.9 9361.7,709.2C9361.7,725.5 9361.7,757 9362.1,757Z" style="fill:rgb(230,230,230);fill-rule:nonzero;"/>
                </g>
                <g>
                    <path d="M9340.4,875.2L9340.4,814.8C9340.4,814.8 9337.1,802.4 9361.8,781.4C9361.8,781.4 9383.2,790.8 9383.5,803.8L9382.8,868.6L9340.4,875.2Z" style="fill:rgb(204,204,204);fill-rule:nonzero;"/>
                    <path d="M9362.1,872.5L9383.1,869.5L9383.1,805.7C9383.1,805.7 9383.4,797.7 9379.4,794C9379.4,794 9361.7,808.4 9361.7,824.7C9361.8,841.1 9361.7,872.5 9362.1,872.5Z" style="fill:rgb(230,230,230);fill-rule:nonzero;"/>
                </g>
                <g>
                    <path d="M9954.9,759.6L9954.9,699.2C9954.9,699.2 9958.2,686.8 9933.5,665.8C9933.5,665.8 9912.1,675.2 9911.8,688.2L9912.5,753L9954.9,759.6Z" style="fill:rgb(204,204,204);fill-rule:nonzero;"/>
                    <path d="M9933.2,757L9912.2,754L9912.2,690.2C9912.2,690.2 9911.9,682.2 9915.9,678.5C9915.9,678.5 9933.6,692.9 9933.6,709.2C9933.6,725.5 9933.7,757 9933.2,757Z" style="fill:rgb(230,230,230);fill-rule:nonzero;"/>
                </g>
                <g>
                    <path d="M9954.9,875.2L9954.9,814.8C9954.9,814.8 9958.2,802.4 9933.5,781.4C9933.5,781.4 9912.1,790.8 9911.8,803.8L9912.5,868.6L9954.9,875.2Z" style="fill:rgb(204,204,204);fill-rule:nonzero;"/>
                    <path d="M9933.2,872.5L9912.2,869.5L9912.2,805.7C9912.2,805.7 9911.9,797.7 9915.9,794C9915.9,794 9933.6,808.4 9933.6,824.7C9933.5,841.1 9933.7,872.5 9933.2,872.5Z" style="fill:rgb(230,230,230);fill-rule:nonzero;"/>
                </g>
                <rect x="9101" y="867.5" width="1093" height="84.5" style="fill:white;"/>
            </g>
            <g id="Bögen_1_">
                <path d="M9641.7,564.2L9762.2,564.2L9762.2,867.2L9749.5,867.2L9749.5,575.3L9641.7,575.3L9653,575.3L9545.1,575.3L9545.1,868.2L9532.5,868.2L9532.5,564.2L9653,564.2L9641.7,564.2Z" style="fill:white;fill-rule:nonzero;"/>
                <path d="M9465.9,768.9L9506.2,768.9L9506.2,868L9501.9,868L9501.9,772.7L9465.9,772.7L9469.6,772.7L9433.6,772.7L9433.6,868L9429.3,868L9429.3,768.9L9469.6,768.9L9465.9,768.9Z" style="fill:white;fill-rule:nonzero;"/>
                <path d="M9506.2,653.8L9429.4,653.8L9429.4,758L9506.2,758L9506.2,653.8ZM9501.9,754L9433.5,754L9433.5,657.7L9501.9,657.7L9501.9,754Z" style="fill:white;fill-rule:nonzero;"/>
                <path d="M9866,653.8L9789.2,653.8L9789.2,758L9866,758L9866,653.8ZM9861.8,754L9793.4,754L9793.4,657.7L9861.8,657.7L9861.8,754Z" style="fill:white;fill-rule:nonzero;"/>
                <path d="M9825.7,768.9L9866,768.9L9866,867.2L9861.7,867.2L9861.7,772.7L9825.7,772.7L9829.5,772.7L9793.4,772.7L9793.4,868L9789.2,868L9789.2,768.9L9829.5,768.9L9825.7,768.9Z" style="fill:white;fill-rule:nonzero;"/>
                <path d="M9719.1,630.4L9576.2,630.4L9576.2,868L9584.1,868L9584.1,775.3L9711.2,775.3L9711.2,868L9719.1,868L9719.1,630.4ZM9584.1,766L9584.1,637.4L9711.2,637.4L9711.2,766L9584.1,766Z" style="fill:white;fill-rule:nonzero;"/>
                <g>
                    <path d="M9336.6,665.5C9336.6,665.1 9336.6,767.3 9336.6,767.3L9388.7,756.8L9388.7,654.8L9336.6,665.5ZM9384,752.3L9340.6,761C9340.6,761 9340.6,669.1 9340.6,669.5L9384,660.1L9384,752.3Z" style="fill:white;fill-rule:nonzero;"/>
                </g>
                <g>
                    <path d="M9336.6,779.1C9336.6,778.7 9336.6,880.9 9336.6,880.9L9388.7,870.4L9388.7,768.3L9336.6,779.1ZM9383.8,868.5L9340.6,874.5C9340.6,874.5 9340.6,782.6 9340.6,783L9384,773.6L9383.8,868.5Z" style="fill:white;fill-rule:nonzero;"/>
                </g>
                <g>
                    <path d="M9908,654.1L9908,756.2L9960.1,766.7C9960.1,766.7 9960.1,664.5 9960.1,664.9L9908,654.1ZM9912.7,659.5L9956.1,668.9C9956.1,668.5 9956.1,760.4 9956.1,760.4L9912.7,751.7L9912.7,659.5Z" style="fill:white;fill-rule:nonzero;"/>
                </g>
                <g>
                    <path d="M9908,767.7L9908,869.8L9960.1,880.3C9960.1,880.3 9960.1,778.1 9960.1,778.5L9908,767.7ZM9912.7,773L9956.1,782.4C9956.1,782 9956.1,873.9 9956.1,873.9L9912.7,868.9L9912.7,773Z" style="fill:white;fill-rule:nonzero;"/>
                </g>
            </g>
            <path d="M9764.9,535.4C9764.9,535.4 9749.2,519.9 9648,519.9C9546.8,519.9 9528.9,535.4 9528.9,535.4L9528.9,540.7C9528.9,540.7 9546.9,525.2 9648,525.2C9749.1,525.2 9764.9,540.7 9764.9,540.7L9764.9,535.4Z" style="fill:rgb(153,153,153);fill-rule:nonzero;"/>
            <path d="M9764.9,506C9764.9,506 9749.2,490.5 9648,490.5C9546.8,490.5 9528.9,506 9528.9,506L9528.9,535.4C9528.9,535.4 9546.9,519.9 9648,519.9C9749.1,519.9 9764.9,535.4 9764.9,535.4L9764.9,506Z" style="fill:rgb(230,230,230);fill-rule:nonzero;"/>
            <g>
                <path d="M9533.5,509.2L9538.5,507.2L9538.5,530.6L9533.5,532.6L9533.5,509.2Z" style="fill:rgb(153,153,153);fill-rule:nonzero;"/>
                <path d="M9544.4,505.5L9550.2,503.8L9550.1,526.5L9544.4,528.2L9544.4,505.5Z" style="fill:rgb(153,153,153);fill-rule:nonzero;"/>
                <path d="M9556.3,501.5L9562.3,500.2L9562.3,523.9L9556.5,524.9L9556.3,501.5Z" style="fill:rgb(153,153,153);fill-rule:nonzero;"/>
                <path d="M9567.9,499.5L9573.9,499.2L9573.9,521.9L9567.9,522.9L9567.9,499.5Z" style="fill:rgb(153,153,153);fill-rule:nonzero;"/>
                <path d="M9580.2,498.5L9586.5,497.8L9586.6,520.5L9580.2,521.2L9580.2,498.5Z" style="fill:rgb(153,153,153);fill-rule:nonzero;"/>
                <path d="M9591.8,496.8L9598.1,496.6L9597.9,519.5L9591.8,520.2L9591.8,496.8Z" style="fill:rgb(153,153,153);fill-rule:nonzero;"/>
                <path d="M9603.9,495.8L9610.3,495.5L9610.3,518.9L9603.9,519.2L9603.9,495.8Z" style="fill:rgb(153,153,153);fill-rule:nonzero;"/>
                <rect x="9628.2" y="494.6" width="6.3" height="23.6" style="fill:rgb(153,153,153);"/>
                <rect x="9638.9" y="494.9" width="6.3" height="23" style="fill:rgb(153,153,153);"/>
                <path d="M9615.6,495.2L9622,494.8L9622,518.2L9615.7,518.2L9615.6,495.2Z" style="fill:rgb(153,153,153);fill-rule:nonzero;"/>
            </g>
            <g>
                <path d="M9761.8,509.2L9756.8,507.2L9756.8,530.6L9761.8,532.6L9761.8,509.2Z" style="fill:rgb(153,153,153);fill-rule:nonzero;"/>
                <path d="M9750.9,505.5L9745.1,503.8L9745.2,526.5L9750.9,528.2L9750.9,505.5Z" style="fill:rgb(153,153,153);fill-rule:nonzero;"/>
                <path d="M9738.9,501.5L9732.9,500.2L9732.9,523.9L9738.8,524.9L9738.9,501.5Z" style="fill:rgb(153,153,153);fill-rule:nonzero;"/>
                <path d="M9727.4,499.5L9721.4,499.2L9721.4,521.9L9727.4,522.9L9727.4,499.5Z" style="fill:rgb(153,153,153);fill-rule:nonzero;"/>
                <path d="M9715,498.5L9708.8,497.8L9708.7,520.5L9715,521.2L9715,498.5Z" style="fill:rgb(153,153,153);fill-rule:nonzero;"/>
                <path d="M9703.5,496.8L9697.1,496.6L9697.4,519.5L9703.5,520.2L9703.5,496.8Z" style="fill:rgb(153,153,153);fill-rule:nonzero;"/>
                <path d="M9691.3,495.8L9685,495.5L9685,518.9L9691.3,519.2L9691.3,495.8Z" style="fill:rgb(153,153,153);fill-rule:nonzero;"/>
                <rect x="9660.7" y="494.6" width="6.3" height="23.6" style="fill:rgb(153,153,153);"/>
                <rect x="9650" y="494.9" width="6.3" height="23" style="fill:rgb(153,153,153);"/>
                <path d="M9679.6,495.2L9673.3,494.8L9673.2,518.2L9679.6,518.2L9679.6,495.2Z" style="fill:rgb(153,153,153);fill-rule:nonzero;"/>
            </g>
        </g>
    </g>
</svg>
