<?xml version="1.0" encoding="utf-8"?>
<!-- Generator: Adobe Illustrator 24.2.0, SVG Export Plug-In . SVG Version: 6.00 Build 0)  -->
<svg version="1.1" id="sitzt" xmlns="http://www.w3.org/2000/svg" xmlns:xlink="http://www.w3.org/1999/xlink" x="0px" y="0px"
	 viewBox="0 0 595.28 841.89" style="enable-background:new 0 0 595.28 841.89;" xml:space="preserve">
<style type="text/css">
	.st0{fill:#F5D3A2;}
	.st1{fill:#E94E1B;}
	.st2{fill:#CA3A17;}
	.st3{fill:#432918;}
	.st4{fill:#FFFFFF;}
</style>
<g>
	<path class="st0" d="M353.44,466.31c0,0-0.83-9.44,5.56-17.45c5.79-7.26,7.8-5.15,11.72-2.61c3.3,2.13,12.12,9.04,13.84,12.94
		C390.66,473.01,358.31,479.91,353.44,466.31z"/>
	<path class="st1" d="M417.3,536.79c0,0-56.84,4.52-63.87-70.48c0,0,5.86,7.41,8.25-4.13c1-4.8,8.11,11.92,9.28,7.59
		c1.51-5.6,2.23-9.58,4.78-7.45c2.53,2.11,4.69,3,6.19,1.97s2.63-5.11,2.63-5.11s7.69,10.31,11.44,33.94
		c0,0,11.04,35.02,23.63,33.89C429.34,526.15,447.68,535.31,417.3,536.79z"/>
	<path class="st1" d="M473.93,497.63c0,30.4-12.81,41.73-28.93,41.73s-29.45-11.33-29.45-41.73c0-30.4,13.33-68.34,29.45-68.34
		S473.93,467.23,473.93,497.63z"/>
	<g>
		<g>
			<path class="st1" d="M419.75,419.1l-7.02,8.24c0,0-8.23-18.77-6.18-32.44l0.31-0.36c9.54,0.06,20.23,15.95,20.23,15.95
				l-7.02,8.24"/>
			<path class="st2" d="M419.79,419.05l-5.29,6.21c0,0-6.2-14.14-4.66-24.43l0.23-0.27c7.19,0.05,15.24,12.01,15.24,12.01
				l-5.29,6.21"/>
		</g>
		<g>
			<path class="st1" d="M469.87,418.74l-7.02-8.24c0,0,10.68-15.89,20.23-15.95l0.31,0.36c2.05,13.67-6.18,32.44-6.18,32.44
				l-7.02-8.24"/>
			<path class="st2" d="M469.9,418.78l-5.29-6.21c0,0,8.05-11.97,15.24-12.01l0.23,0.27c1.54,10.3-4.66,24.43-4.66,24.43l-5.29-6.21
				"/>
		</g>
	</g>
	<g>
		<path class="st1" d="M478.88,421.7c-11.37-17.94-37.23-46.54-67.53,0.1c13.9,1.91,24.7,15.1,24.98,31.22l0.01,0.01
			c2.7-0.89,5.59-1.38,8.59-1.38c2.86,0,5.61,0.44,8.2,1.25l0.02-0.01C453.49,436.53,464.66,423.21,478.88,421.7z"/>
		<path class="st0" d="M478.88,421.7c-14.22,1.52-25.39,14.84-25.73,31.18l30.84-19.28c0.61-0.38,0.84-1.16,0.53-1.81
			C483.64,429.97,481.71,426.17,478.88,421.7z"/>
		<path class="st0" d="M411.35,421.79c-1.95,3.01-3.92,6.32-5.91,9.97c-0.36,0.65-0.14,1.48,0.48,1.88l30.41,19.36
			C436.05,436.9,425.25,423.7,411.35,421.79z"/>
		<path class="st3" d="M436.34,453.02l6.7,4.27c0.92,0.59,2.1,0.59,3.02,0.01l7.06-4.41c-2.59-0.81-5.34-1.25-8.2-1.25
			C441.93,451.64,439.05,452.13,436.34,453.02z"/>
	</g>
	<g>
		<ellipse cx="434.6" cy="427.34" rx="3.23" ry="4.88"/>
		<ellipse cx="455.32" cy="427.34" rx="3.23" ry="4.88"/>
		<g>
			
				<ellipse transform="matrix(0.5662 -0.8242 0.8242 0.5662 -161.8912 540.9321)" class="st4" cx="433" cy="424.28" rx="1.28" ry="0.34"/>
		</g>
		<g>
			
				<ellipse transform="matrix(0.5662 -0.8242 0.8242 0.5662 -152.9246 557.9707)" class="st4" cx="453.67" cy="424.28" rx="1.28" ry="0.34"/>
		</g>
	</g>
	<g>
		<path class="st2" d="M451.96,505.46c-0.02-0.16-0.02-0.34-0.01-0.5c0.05-0.91,0.11-4.54-1.04-12.47
			c-0.81-5.53-1.29-9.68-1.58-12.48c-0.23-2.25,1.75-4.1,3.98-3.73l3.89,0.65c1.25,0.21,2.22,1.21,2.37,2.47
			c0.61,5.13,1.46,18.39,1.86,27.97c0.02,0.37-0.03,0.74-0.14,1.1C460.24,512,454.27,530.57,451.96,505.46z"/>
		<path class="st3" d="M450.43,535.28c0.47-2.29,0.71-4.61,0.78-6.94l0.68-26.97l1.22,4.48c0.35,1.43,1.94,1.42,2.79,0.34l0.75-0.95
			c0.12-0.15,0.36-0.11,0.41,0.07l1.36,2.68c0.49,1.67,1.9-4.65,2.76-6.21l0.31,6.49c0.72,5.57-0.51,19.49-2.19,27.8
			c-0.65,3.21-0.35,6.16-2.47,8.7C453.95,548.21,447.65,548.71,450.43,535.28z"/>
	</g>
	<g>
		<path class="st2" d="M439.73,505.19c0,0-0.33-3.38,1.03-12.7c0.88-6.04,1.38-10.43,1.65-13.23c0.18-1.88-1.47-3.42-3.33-3.11
			l-4.49,0.75c-1.33,0.22-2.35,1.3-2.5,2.64c-0.6,5.37-1.51,19.02-1.88,28.37C430.21,507.91,437.22,533.2,439.73,505.19z"/>
		<path class="st3" d="M441.24,535.28c-0.47-2.29-0.71-4.61-0.78-6.94l-0.73-23.15l-0.64,1.71c-0.42,0.95-1,3.8-3.22,0.86
			l-0.63-1.41c-0.12-0.15-0.36-0.11-0.41,0.07l-2.06,4.09c-0.49,1.67-1.51-5.17-2.37-6.74l-0.21,4.5
			c-0.72,5.57,0.51,19.49,2.19,27.8c0.65,3.21,0.03,6.42,2.16,8.96C437.4,548.47,444.02,548.71,441.24,535.28z"/>
	</g>
</g>
</svg>
