<?xml version="1.0" encoding="utf-8"?>
<!-- Generator: Adobe Illustrator 24.2.0, SVG Export Plug-In . SVG Version: 6.00 Build 0)  -->
<svg version="1.1" id="steht_1_" xmlns="http://www.w3.org/2000/svg" xmlns:xlink="http://www.w3.org/1999/xlink" x="0px" y="0px"
	 viewBox="0 0 595.28 841.89" style="enable-background:new 0 0 595.28 841.89;" xml:space="preserve">
<style type="text/css">
	.st0{fill:#E94E1B;}
	.st1{fill:#CA3A17;}
	.st2{fill:#F5D3A2;}
	.st3{fill:#432918;}
	.st4{fill:#FFFFFF;}
</style>
<path class="st0" d="M236.92,650.59c0,0-12.58,16.07-34.49,12.61c-21.91-3.46-41.04-2.72-43.4,20.53
	c-2.3,22.67,73.37,39.69,90.22,9.81c0.76-1.34,1.22-2.83,1.5-4.34c0.77-4.18,2.97-13.52,7.11-12.39
	C263.17,678.26,236.92,650.59,236.92,650.59z"/>
<g>
	<g>
		<g>
			<path class="st0" d="M229.23,640.84l-7.87,9.24c0,0-9.23-21.04-6.93-36.36l0.34-0.4c10.7,0.07,22.67,17.88,22.67,17.88
				l-7.87,9.24"/>
			<path class="st1" d="M229.27,640.79l-5.93,6.96c0,0-6.95-15.85-5.22-27.39l0.26-0.3c8.06,0.05,17.08,13.47,17.08,13.47
				l-5.93,6.96"/>
		</g>
		<g>
			<path class="st0" d="M285.41,640.44l-7.87-9.24c0,0,11.98-17.81,22.67-17.88l0.34,0.4c2.3,15.32-6.93,36.36-6.93,36.36
				l-7.87-9.24"/>
			<path class="st1" d="M285.45,640.49l-5.93-6.96c0,0,9.02-13.41,17.08-13.47l0.26,0.3c1.73,11.54-5.22,27.39-5.22,27.39
				l-5.93-6.96"/>
		</g>
	</g>
	<g>
		<path class="st0" d="M295.51,643.75c-12.74-20.12-41.74-52.17-75.7,0.11c15.58,2.14,27.69,16.93,28,35l0.02,0.01
			c3.03-1,6.26-1.55,9.63-1.55c3.2,0,6.29,0.49,9.19,1.4l0.02-0.01C267.05,660.38,279.57,645.45,295.51,643.75z"/>
		<path class="st2" d="M295.51,643.75c-15.95,1.7-28.47,16.63-28.85,34.96l34.57-21.61c0.69-0.43,0.94-1.3,0.59-2.03
			C300.85,653.03,298.69,648.76,295.51,643.75z"/>
		<path class="st2" d="M219.81,643.86c-2.19,3.37-4.4,7.09-6.63,11.18c-0.4,0.73-0.16,1.66,0.54,2.11l34.09,21.71
			C247.5,660.79,235.39,645.99,219.81,643.86z"/>
		<path class="st3" d="M247.83,678.86l7.87,5.01c0.81,0.52,1.85,0.52,2.67,0.01l8.27-5.17c-2.9-0.91-5.99-1.4-9.19-1.4
			C254.09,677.32,250.86,677.87,247.83,678.86z"/>
	</g>
	<g>
		<ellipse cx="245.88" cy="650.08" rx="3.63" ry="5.47"/>
		<ellipse cx="269.1" cy="650.08" rx="3.63" ry="5.47"/>
		<g>
			
				<ellipse transform="matrix(0.5662 -0.8242 0.8242 0.5662 -427.1197 481.6705)" class="st4" cx="244.08" cy="646.65" rx="1.43" ry="0.38"/>
		</g>
		<g>
			
				<ellipse transform="matrix(0.5662 -0.8242 0.8242 0.5662 -417.0681 500.7708)" class="st4" cx="267.26" cy="646.65" rx="1.43" ry="0.38"/>
		</g>
	</g>
</g>
<line class="st0" x1="172.5" y1="681.82" x2="174.75" y2="667.5"/>
<g>
	<path class="st0" d="M239.8,714.03c0,0-0.18-2.23,0.83-8.39c1.23-7.55,0.78-11.28,0.78-11.28l-6.76,1.24
		c-0.12-2.23-1.42,12.39-1.88,20.26C232.78,715.87,237.8,732.55,239.8,714.03z"/>
	<path class="st3" d="M240.43,733.87c-0.29-1.51-0.41-3.04-0.43-4.57l-0.12-17.79l-1.57,2.9c-0.25,0.95-1.3,0.96-1.84,0.26
		l-0.48-0.62c-0.08-0.1-0.23-0.07-0.27,0.05l-0.93,1.79c-0.35,1.11-1.2-3.05-1.75-4.07l-0.29,4.29c-0.54,3.68,0.1,12.86,1.11,18.32
		c0.39,2.11,1.27,4.11,2.64,5.76C238.35,742.42,242.1,742.7,240.43,733.87z"/>
</g>
<path class="st2" d="M92.46,631.42c0,0-3.95-8.62-0.63-18.3c3.01-8.78,5.62-7.47,10.16-6.4c3.82,0.9,14.45,4.44,17.38,7.53
	C129.77,625.22,101.62,642.58,92.46,631.42z"/>
<path class="st0" d="M176.3,676.33c0,0-52.01,23.36-83.84-44.91c0,0,8.01,5.01,6.38-6.66c-0.68-4.86,11.65,8.5,11.29,4.03
	c-0.45-5.78-1.12-9.77,2-8.63c3.09,1.14,5.42,1.25,6.49-0.23c1.07-1.48,0.76-5.69,0.76-5.69s10.71,7.13,22.18,28.12
	c0,0,22.16,29.27,33.64,23.98C184.06,662.26,204.41,664.73,176.3,676.33z"/>
<g>
	<path class="st0" d="M178.23,715.1c0,0-0.18-2.23,0.83-8.39c1.23-7.55,0.36-10.95,0.36-10.95l-6.76,1.24
		c-0.12-2.23-1.42,12.39-1.88,20.26C170.79,717.27,176.23,733.62,178.23,715.1z"/>
	<path class="st3" d="M178.86,734.94c-0.29-1.51-0.41-3.04-0.43-4.57l-0.2-15.27l-1.57,1.04c-0.59,0.67-1.63,0.63-2.18-0.07
		l-0.48-0.62c-0.08-0.1-0.23-0.07-0.27,0.05l-0.55,1.78c-0.35,1.11-1.83,1.01-2.38-0.01l-0.02,0.24c-0.54,3.68,0.1,12.86,1.11,18.32
		c0.39,2.11,1.27,4.11,2.64,5.76C176.36,743.82,180.53,743.77,178.86,734.94z"/>
</g>
<g>
	<path class="st0" d="M192.42,709.57c0,0-0.18-2.23,0.83-8.39c1.23-7.55,0-11.02,0-11.02l-6.76,1.24
		c-0.12-2.23-1.42,12.39-1.88,20.26C184.62,711.66,190.43,728.08,192.42,709.57z"/>
	<path class="st3" d="M193.05,729.41c-0.29-1.51-0.41-3.04-0.43-4.57l-0.2-15.27l-2.15,0.95c-0.59,0.67-0.63,1.31-1.45,0.13
		l-0.28-0.43c-0.36-0.62-0.87,0.5-0.99,0.91c-0.01,0.03-0.34,1.13-0.52,0.79l-0.97-1.97c-0.05-0.13-0.24-0.13-0.28,0
		c-0.42,1.11-0.66,2.64-1.16,1.72l-0.02,0.24c-0.54,3.68,0.1,12.86,1.11,18.32c0.39,2.11,1.27,4.11,2.64,5.76
		C190.19,738.22,194.73,738.24,193.05,729.41z"/>
</g>
<g>
	<path class="st0" d="M228.48,721.96c0,0-0.18-2.23,0.83-8.39c1.23-7.55,0.57-10.64,0.57-10.64l-6.76,1.24
		c-0.12-2.23-1.42,12.39-1.88,20.26C221.25,724.44,226.49,740.48,228.48,721.96z"/>
	<path class="st3" d="M229.08,742.31c-0.29-1.51-0.38-3.55-0.39-5.08l-0.2-15.27l-0.45,1.14c-0.29,0.63-1.63,3.09-3.06,1.18
		l-0.4-0.92c-0.08-0.1-0.23-0.07-0.27,0.05l-1.41,2.73c-0.35,1.11-0.93-3.39-1.48-4.42l-0.19,2.97c-0.54,3.68,0.1,12.86,1.11,18.32
		c0.39,2.11,1.27,4.11,2.64,5.76C226.82,751,230.75,751.14,229.08,742.31z"/>
</g>
</svg>
