<?xml version="1.0" encoding="utf-8"?>
<!-- Generator: Adobe Illustrator 24.2.0, SVG Export Plug-In . SVG Version: 6.00 Build 0)  -->
<svg version="1.1" xmlns="http://www.w3.org/2000/svg" xmlns:xlink="http://www.w3.org/1999/xlink" x="0px" y="0px"
	 viewBox="0 0 15537 1080" style="enable-background:new 0 0 15537 1080;" xml:space="preserve">
<style type="text/css">
	.st0{fill:#676B62;}
	.st1{fill:#FFFFFF;}
	.st2{fill:#697C52;}
	.st3{fill:none;}
</style>
<g id="_x34__fuji">
	<g id="fuji_vulkan">
		<g>
			<g transform="translate(6366.4 -553.08)">
				<path class="st0" d="M8695.6,1633.1l-276.9-303.2c-9.5,0-13.2-0.2-13.2-0.2s-6.5-7.9-14.4-12c-3.6-1.9-8,1.5-12.7-1
					c-3.9-2-9.7-6.8-14.2-9.1c-4-2.1-7.9-2.7-12.2-5c-4.1-2.1-6.3-8.9-10.6-11.1c-4.2-2.2-10.5-3.1-14.7-5.3
					c-4.2-2.2-5.4-0.1-9.6-2.2c-4.3-2.2-11.4-8.9-15.5-11.1c-4.4-2.2-5.5-4.8-9.5-6.9c-4.5-2.3-10.3,0.8-14.2-1.2
					c-4.8-2.4-9-10.5-12.6-12.3c-7.9-4-14.2-1.7-14.2-1.7s-0.6-5.3-7.9-8.9c-3.4-1.7-11.3-0.6-15.7-2.8c-3.7-1.9-7.9-4.1-12-6.1
					c-3.9-1.9-4.1-4.1-8.1-6.1c-4-2-7.9-4.2-11.7-6.2c-4.1-2.1-7.9-6.4-11.7-8.3c-4.4-2.2-9-5.4-12.5-7.1
					c-7.2-3.6-13.6-6.7-13.6-6.7s-6.3-0.7-13.6-2.8c-3.6-1.1-7.6,2.3-12.1,1c-3.9-1.1-4.5-5.9-8.7-7.1c-4.2-1.2-8.4-2.6-12.3-3.7
					c-4.5-1.3-10.9,1.7-14.5,0.6c-7.3-2.1-13-9.2-13-9.2s-5.6-1.7-12.8-4.2c-3.8-1.4-9.2-0.6-13.5-2.1c-4.3-1.5-4-3.7-7.8-5.1
					c-7.1-2.5-12.4-3.9-12.4-3.9s-10.5,1.4-18.4,0.6c-4.6-0.5-7.1-5.8-11.7-6.3c-7.8-0.9-16.6,3.2-16.6,3.2s-5.8,0.1-13.2,0.6
					c-4,0.3-8.9-0.9-13.5-0.6c-4.5,0.3-4.8,2.1-8.7,2.3c-7.5,0.5-17.3-0.2-17.3-0.2s-0.9-1.5-9.2-3.5c-4-1-10.4,0.3-15.5-1
					c-4.4-1.1-8.9-7.7-13.7-8.9c-4.6-1.1-8.4-1.4-13-2.6c-4.8-1.2-12.1,2.3-16.5,1.3c-5.1-1.2-8.2-2.4-12.2-3.4
					c-8.4-2-13.5-3.6-13.5-3.6s-7.4-1.8-15.7-4.9c-3.8-1.4-7.8-2.8-12.8-4.6c-4.1-1.5-9.9-4.7-14.7-6.4c-4.2-1.6-4.6-6.1-9.2-7.9
					c-4.3-1.6-8.4-2.2-12.9-3.9c-4.4-1.6-8.7-2.7-13.2-4.3c-4.4-1.6-9-2-13.5-3.6c-4.4-1.6-11.3-7.4-15.7-9
					c-4.5-1.7-7.9,2.4-12.3,0.8c-4.5-1.7-8.1-4-12.4-5.6c-4.6-1.7-12-7.9-16.2-9.4c-4.7-1.7-10,0.1-14.1-1.4c-5-1.9-5-4.5-8.8-5.9
					c-8.3-3.1-15.5-7.9-15.5-7.9s-3.4,2.8-11.6-0.8c-3.8-1.6-12.3-4.9-17.3-7.1c-4.1-1.7-8-6.1-12.7-8.1c-4.2-1.8-5,0-9.6-2
					c-4.3-1.8-12.8-6.6-17.3-8.5c-4.3-1.9-4.7-0.9-9.2-2.8c-4.4-1.9-12.5-3.6-16.9-5.4l-4.4-3.1l-26-4l-205-41l-176-28l-259,14
					l-118,21h-22l-9.5,4.2c0,0-4.5,1.4-10.1,2.9c-3.3,0.9-8.5,1.1-11.9,2c-4.3,1.2-6.6,3.7-7.5,4.8c-0.3,0.4-0.7,0.8-1.2,1.1
					c-1.7,1-6,3.4-11.8,5.9c-3.7,1.6-9.5,0-14.1,2c-4,1.7-9.3,3.4-13.6,5.3c-4.1,1.8-5.6,6.3-9.8,8.1c-4.3,1.9-11.9,1.3-15.9,3
					c-4.6,2-10,7.5-13.7,9.1c-4.2,1.8-6.3,2.5-7.4,2.7c-0.7,0.2-1.4,0.5-1.9,1c-1.9,1.8-6.5,5.7-12.2,7.9c-3.6,1.3-6.7,1.5-11.1,3.2
					c-3.9,1.5-12.2,3.2-16.4,4.8c-4,1.5-7.4,4-11.5,5.6c-4.2,1.6-4.8,1.7-8.6,3.1c-4.5,1.7-10,5-13.6,6.3
					c-6.3,2.3-12.7,3.2-14.5,3.3c-0.3,0-0.6,0-0.8,0c-1.2-0.1-5.4-0.4-10.6,1.3c-3.3,1.1-3,5.2-6.8,6.4s-8.7-2.5-12-1.4
					c-4.4,1.5-8.1,5.7-9.8,7.9c-0.7,0.9-1.8,1.5-2.9,1.6c-2.2,0.1-6.3,0.4-11.7,0.9c-4.2,0.4-10.5-4.9-15.5-4.4
					c-4.7,0.4-9.1,0.7-13.8,1.1c-5.1,0.4-8.9,1.1-13.1,1.5c-7.8,0.6-16.2,2.6-17.3,2.9c-0.1,0-0.2,0-0.3,0.1
					c-0.8,0.1-5.7,0.9-11.8,1.2c-3.6,0.2-4,2.9-8.1,3.1c-4.1,0.2-11.7-0.4-15.3-0.2c-4.8,0.2-8.9-0.1-10.9-0.3
					c-0.8-0.1-1.6,0.1-2.4,0.5c-1.9,1-5.8,3.2-9.9,4.9c-2.5,1.1-3.8,2.5-4.4,3.8c-0.9,2-2.6,3.6-4.7,4.3l-0.2,0.1
					c-0.8,0.4-1.7,0.8-2.6,1.1c-3.7,1.5-8.2,7.2-13.1,9.3c-4,1.7-11.9-0.3-16.5,1.6c-4.1,1.7-5,2.8-9.5,4.7
					c-4.2,1.7-11.5,7.9-16,9.8c-4.2,1.8-9.2,1.7-13.6,3.5c-4.2,1.8-4.8,1-9.1,2.8c-4.3,1.8-9.7,8.8-14,10.6
					c-4.3,1.8-6.6,0.6-10.8,2.4c-4.4,1.8-12.8,1.8-17,3.6c-4.4,1.8-4.8,4.2-8.9,6c-4.5,1.9-11.8,7.6-15.9,9.4
					c-4.6,1.9-5.8,2-9.8,3.7c-4.9,2-9.1,2.6-12.7,4.2c-7.1,3-15.1,5.9-17,6.5c-0.3,0.1-0.5,0.2-0.8,0.2c-1.4,0.2-6.4,1-13.3,3.8
					c-4,1.6-5,1.4-9.9,3.4c-4.3,1.7-8.3,4.2-13,6.1c-4.5,1.8-12.3,3-16.8,4.8c-4.7,1.9-8.5,3.3-12.8,5c-5,2-11.2,6.2-15.2,7.8
					c-6,2.4-8.1,3.7-8.8,4.3c-0.3,0.2-0.6,0.4-1,0.6c-1.5,0.6-5.6,2.3-11.1,4.8c-3.4,1.6-7.4,3.3-11.7,5.3l-11.6,5.3
					c-3.9,1.8-9.4,8-13.1,9.7c-4.2,1.9-7,2.8-10.4,4.4c-5.4,2.5-11.8,2.7-14.5,2.7c-0.7,0-1.4,0.2-2,0.6c-1,0.6-3.3,1.6-8.1,2.7
					c-4,0.9-12.8,4.2-17.7,5.3c-4.4,1-64.1,88.6-68.6,89.6c-3.8,0.9-69.1,57.8-72,59c-1.5,0.6-92,72.4-92,74l-74,143H8695.6z"/>
				<path class="st1" d="M7101.4,845.1c-0.5,0-1.1,0.2-1.7,0.5c-2.6,1.4-4.6,2.9-5.3,3.4c-0.2,0.1-0.4,0.3-0.6,0.3
					c-1.4,0.6-6.4,2.6-9.4,1.3c-1.6-0.7-2.4-1.7-2.6-2.5c-0.4-1.1-1.3-1.9-2.5-2l-13.5-1c-0.4,0-0.7,0-1.1,0.1l-5.9,1.8
					c-0.4,0.1-0.8,0.2-1.2,0.1c-1.3-0.2-4.5-0.2-6.2,2.8c-0.9,1.7-1.1,3.8-1.1,5.7c0,2.1-2.1,3.4-4,2.6l-9.5-4.1
					c-0.1-0.1-0.3-0.1-0.4-0.1l-12.7-3.4c-1-0.3-2.2,0-2.9,0.9c-1.3,1.4-3.8,3.9-8.3,6.7c-3.3,2.1-6.5,6.3-10.8,9
					c-3.6,2.3-11.9,3.6-15.9,6.1c-3.7,2.3-6,3.3-9.9,5.8c-3.8,2.4-9.4,8.2-13.2,10.6c-3.9,2.4-5.5,7.2-9.3,9.6
					c-3.9,2.5-7.3-0.9-11,1.4c-4,2.5-6.3,9.2-9.9,11.5c-4.3,2.7-12.3,2.5-15.6,4.5c-7.1,4.5-10.7,6.1-10.7,6.1s-2.3,7-10.3,10.4
					c-3.6,1.6-11.4,1.7-16.2,3.7c-3.9,1.7-4.8,0.2-9.3,2.2c-4.1,1.7-7.3,5.4-11.7,7.3c-4.1,1.8-10,7.1-14.3,9
					c-4.2,1.8-6.8,1.4-11.1,3.2c-4.2,1.8-11.9,5.7-16.1,7.6c-4.3,1.8-7.4-1.9-11.6-0.1c-4.3,1.9-7.5,4.2-11.6,6
					c-4.4,1.9-10.1,9.1-14.2,10.8c-4.5,1.9-8.8-2.1-12.8-0.4c-4.8,2.1-7.6,4.4-11.2,6c-1.8,0.8-2.8,1.2-4.3,1.9l4.5,2.3
					c11.2,5.6,24.3,6.2,36.1,1.7l11.8-4.6c11.3-4.4,23.8-4,34.8,1.1v0c11.1,5.1,23.8,5.5,35.2,0.9l35.5-14.2c8.6-3.4,18-4.1,27-1.9
					l45.3,10.9c11.5,2.8,23.6,0.9,33.7-5.3l9.9-6.1c5.9-3.6,12.5-5.8,19.4-6.4l40.2-3.5c6.9-0.6,13.9,0.4,20.4,3l3.8,1.5
					c8.4,3.4,17.7,4.1,26.5,2.1l7.1-1.6c9-2.1,18.5-1.3,27,2.3l16.7,7c1.3,0.6,2.7,1,4.1,1.5l46.4,14.1c8.3,2.5,17.1,2.6,25.5,0.1
					l15.7-4.6c10.8-3.2,22.4-2.1,32.4,2.9l11.1,5.6c6.8,3.4,14.4,5,22,4.7l35.5-1.7c5.7-0.3,11.5,0.6,16.9,2.5l29.8,10.5
					c4.8,1.7,9.8,2.5,14.8,2.5h45.4c8.8,0,17.3,2.6,24.6,7.4l20.7,13.8l27.4-10.5c-1.4-1.3-2.6-2.5-5-3.6c-4.5-1.9-9.7-2.6-14-4.4
					c-4.6-2-10.1-9.1-14.3-10.9c-4.7-2-11.2,0.8-15.3-0.9c-5-2.1-9.2-8-13-9.6c-1.3-0.6-2.5-1-3.7-1.4c-5.5-1.9-10.7-4.6-15.2-8.4
					c-1.2-1.1-2.7-2.1-4.6-3.1c-3.6-1.9-9.2-3.9-13.7-6.3c-3.9-2.1-8.8,0.4-13-1.8s-8.3-4.4-12.2-6.5c-4.5-2.4-9.3-6.9-12.9-8.8
					c-2.7-1.5-5.1-2.8-7-4c-2.6-1.6-5.3-2.8-8.2-3.8c-1.3-0.5-3.1-1.3-5.6-2.5c-3.6-1.8-10.6-3.8-15.2-6.2c-3.9-2-4.5-6.4-8.8-8.6
					c-4.1-2.1-12.4-2.6-16.5-4.8c-4.2-2.1-8.8-7.1-12.9-9.2c-4.3-2.2-4.3-5-8.2-7c-4.6-2.4-13.2-2.9-16.8-4.7
					c-7.6-3.9-12.2-7.6-12.2-7.6s-3.1-4.2-8.7-8.3c-2.8-2.1-6.7-3.7-10.1-6.3c-3.1-2.3-2.5-1.4-5.6-3.8c-3.4-2.5-9.2-4-12-6.1
					c-3.8-2.8-5.5-5.8-6.2-7.5c-0.3-0.8-1.1-1.4-1.9-1.7c-2.8-0.7-9.2-2.5-14.1-4.8c-3.4-1.6-3.4-2.9-7.3-4.7
					c-3.9-1.9-7.8-3.8-11.2-5.4c-5-2.4-9.8-3.6-11.7-4.1c-0.6-0.1-1.1-0.5-1.5-0.9l0,0c-1.1-1.3-3-1.4-4.2-0.2
					c-1.6,1.6-4.1,3.6-7.3,4.5c-4.5,1.3-10.4,1.7-12.9,1.8c-0.8,0-1.6-0.3-2.2-0.9l-5.9-6.3c-0.9-0.9-2.3-1.2-3.4-0.6
					c-2.3,1.2-6.3,3.1-9.5,2.7c-2.9-0.4-5.1-2.6-6.3-4.2c-0.8-1.1-2.2-1.4-3.4-0.9l-7.6,3.4c-0.4,0.2-0.9,0.3-1.4,0.2
					c-1.3-0.1-4.4-0.2-9,0.6c-3.7,0.6-10.7,2.6-14.4,3.2c-4.6,0.8-6.8,0.1-7.7-0.4c-0.4-0.2-0.9-0.3-1.4-0.3
					c-2.1,0-7.5-0.2-10.5-1.8c-2.9-1.6-5.7-3.1-6.9-3.7c-0.3-0.2-0.6-0.4-0.8-0.7C7104.6,846.4,7103.2,845.1,7101.4,845.1
					L7101.4,845.1z"/>
			</g>
		</g>
	</g>
	<g id="Himalaya">
		<path class="st0" d="M8128.2,1083l753.8-3l-258.3-151.5c-2-0.8-4.3-1.4-6.6-1.6l-53.6-5.5c-4.1-0.4-7.9-1.8-10.6-4l-18.1-14.1
			c-0.3-0.3-0.7-0.5-1.1-0.8l-26.3-17.2c-5.4-3.5-13.6-4.3-20.3-2l-18.4,6.6c-8.7,3.1-19.5,0.7-23.8-5.3l-24-33.6
			c-1.9-2.6-5.1-4.6-9-5.8l-51.5-14.5l-25.8-15.8c-1.6-0.9-3.3-1.8-5.1-2.4l-19.6-7.2c-1.5-0.6-3.1-1-4.8-1.4l-37.8-7.8
			c-3.5-0.7-6.7-1.9-9.4-3.5l-44.1-25.6c-2.2-1.3-4.7-2.3-7.5-3l-36.4-9.7c-3.3-0.9-6.4-2.2-8.9-3.9l-11.7-7.9
			c-6.1-4.1-14.7-5.9-23.2-4.9l-31.4,3.8c-9.3,1.1-18.9-1.2-24.9-6.2l-17.8-14.7l-18-14.6l-24-17.7c-1.6-1.2-2.9-2.5-4-3.9
			l-10.7-14.1c-5.5-7.2-17.4-10.9-29-9.2l-19.8,3c-5.5,0.8-11.2,0.5-16.3-1.1l-25.3-7.5c-4.9-1.5-10.4-1.9-15.7-1.2l-18.2,2.5
			c-12.5,1.7-25-3-29.6-11l-1.7-3c-1.5-2.7-4-5.1-7.3-7l-25.5-14.9c-3.6-2.1-8-3.5-12.8-4.1l-49.2-5.7l-38.4-23.5l-53.1,0.1
			l-50.7-18.6c-0.4-0.1-0.7-0.3-1.1-0.5c-16.1-8.1-62.1,55.4-85.9,52.2c-24-3.2-52.8-29.2-52.8-29.2s-43.2,3.2-49.2,3.2
			c-6,0-22.8-6.5-22.8-6.5l-33.6-0.8c0,0-49.2,13-52.8,12.2c-3.6-0.8-19.2-4.1-19.2-4.1s-30,8.1-46.8,8.1s-50.4-31.6-50.4-31.6
			l-14.4-0.8l-22.8-8.9l-16.8-3.2c0,0-8.4,1.6-15.6,5.7c-7.2,4.1-10.8,5.7-21.6,11.4s-12,0.8-12,0.8s-4.8-3.2-12-9.7
			c-7.2-6.5-7.2,2.4-7.2,2.4s-13.2,5.7-18,7.3s-8.4,0-12-1.6s-4.8-2.4-16.8-4.1s-14.4,1.6-25.2,5.7s-13.2,4.9-22.8,8.1
			c-9.6,3.2-9.6,4.1-15.6,4.9c-6,0.8-15.6-1.6-15.6-1.6l-46.8-21.1c0,0-18,4.1-21.6,5.7c-3.6,1.6-9.6,4.9-9.6,4.9l-16.8-4.9
			c0,0-13.2,6.5-19.2,10.5c-6,4.1-13.2,4.9-20.4,11.4c-7.2,6.5-15.6,4.1-15.6,4.1s-12,4.1-21.6,4.1c-9.6,0-10.8-0.8-16.8-4.1
			c-6-3.2-10.8-5.7-22.8-8.9c-12-3.2-21.6,2.4-21.6,2.4s0,0-7.2,2.4c-7.2,2.4-8.4,2.4-14.4,5.7c-6,3.2-9.6,3.2-14.4,3.2
			c-4.8,0-9.6-3.2-9.6-3.2s-22.8,0.8-30,2.4c-7.2,1.6-26.4,7.3-30,8.1c-3.6,0.8-18,8.1-27.6,19.5c-9.6,11.4-96,35.7-110.4,46.2
			c-14.4,10.5-15.6,15.4-15.6,15.4s-10.8,5.7-30,13c-19.2,7.3-31.2,6.5-40.8,8.9c-9.6,2.4-25.2,9.7-25.2,9.7s-3.7,11.9-12.1,14.4
			s-21.6,25-36,25c-0.4,0-0.8,0-1.2,0c-23-0.8-45.4,6.7-62.7,21.8c-5.4,4.7-11.2,8-17,8.3c-20.4,0.8-88.2,14.6-93,17s-66,62.6-72,65
			s-81,61-81,61l-256,146l145-2l1619,3H8128.2z"/>
	</g>
	<g id="Gebirge1">
		<path class="st2" d="M613,781.4c0,0,81-75.8,85-82.1s92-57.7,92-57.7l53-16.2l37-12.9c4.6-1.6,8.9-3.8,12.8-6.6l8.2-5.9
			c6.5-4.6,14.2-7.7,22.3-9l32.9-5c1.1-0.2,2.2-0.4,3.3-0.6l27.4-6c2.6-0.6,5.1-1.3,7.6-2.3c10-3.8,37.1-14.1,40.3-14.8
			c3.1-0.7,43.9-3.6,61.2-4.9c5.1-0.4,10.3,0,15.3,1.1l32.8,7.1c3.8,0.8,7.4,2,10.9,3.6l26.6,12.2c15.6,7.2,34.2,6.3,49-2.2
			l24.5-14.2c3.1-1.8,6.5-3.3,10-4.4l3.5-1.1c12.3-4,25.8-3.4,37.6,1.7c18.3,7.8,44.1,18.6,46.6,19.2c2.3,0.5,18.1-1.7,30.9-3.6
			c10.8-1.6,21.8,0,31.5,4.7c11.4,5.5,26.6,12.1,33.6,11.6c6.8-0.5,31.1,17,50.7,32.3c18.2,14.1,41.3,21.8,65.3,21.8h0
			c6.4,0,12.7,1,18.6,3.3c2.7,1,5.3,2.3,7.4,3.9c7,5.4,35,16.2,47,13.5s25.3-19.3,57-44.2c40-33.4,86.4-48.5,132-59.5
			c16.1-3.9,51-27.1,69-35.2c35.4-16,62.8-3,85-8.4c10.4-2.5,56.7-19.5,93.1-33c28.8-10.7,61.7-7.8,87.7,7.7l50.7,30.2
			c5,3,9.7,6.4,14,10.2l56.5,49.9c21.4,18.9,51.5,27.5,81.1,23.1l0,0c38-5.6,76,10.2,95.9,40l0,0c18.1,12,42.8,9.5,53.1,29.2
			l39.8,59.1c5.3,10.1,14.8,17.9,26.4,21.7l53.9,17.5c9.1,2.9,16.9,8.4,22.4,15.5l22.4,29c11.9,15.4,33.6,21.8,53.3,15.7l23.6-7.3
			c15.6-4.8,32.9-1.8,45.4,7.9l48.8,37.8c6.4,4.9,18.8,10.7,34.1,11.2c22.2,0.8,42.9,10.2,55.9,26.5l0,0
			c23.3,12.2,50.5,17,77.2,13.4l0,0c44.6-6,89.1,11.4,114.8,44.8l17,22.1l63,87.5H101l130-80.3l93-33.4l110-14.4l54-55.9l86-36.1
			L613,781.4z"/>
	</g>
</g>
<g id="Ebene_5">
	<g>
		<rect y="0" class="st3" width="15537" height="1080"/>
	</g>
</g>
</svg>
