<?xml version="1.0" encoding="utf-8"?>
<!-- Generator: Adobe Illustrator 24.2.0, SVG Export Plug-In . SVG Version: 6.00 Build 0)  -->
<svg version="1.1" xmlns="http://www.w3.org/2000/svg" xmlns:xlink="http://www.w3.org/1999/xlink" x="0px" y="0px"
	 viewBox="0 0 15537 1080" style="enable-background:new 0 0 15537 1080;" xml:space="preserve">
<style type="text/css">
	.st0{fill:#5C664E;}
	.st1{fill:none;}
</style>
<g id="_x35__berg">
	<g id="Gebirge2">
		<path class="st0" d="M2483,1080H791l116-136l72-127l72.5-84.4L1113,672l46-67.1c0,0,33-40.7,38-43.4c5-2.7,44-22.6,48-25.3
			s2-6.3,19-7.2c17-0.9,28-2.7,28-2.7s14,0,26,0s29-3.6,36-6.3c7-2.7,19-8.1,19-8.1s13-8.1,21-10.9c8-2.7,18-1.8,34-10
			s25-14.5,25-14.5s1-5.4,13-17.2c12-11.8,84-38.9,92-51.6c8-12.7,20-20.8,23-21.7s19-7.2,25-9s25-2.7,25-2.7s4,3.6,8,3.6
			s7,0,12-3.6c5-3.6,6-3.6,12-6.3c6-2.7,6-2.7,6-2.7s8-6.3,18-2.7c10,3.6,14,6.3,19,10c5,3.6,6,4.5,14,4.5s18-4.5,18-4.5
			s7,2.7,13-4.5s12-8.1,17-12.7s16-11.8,16-11.8l14,5.4c0,0,5-3.6,8-5.4s18-6.3,18-6.3l39,23.5c0,0,8,2.7,13,1.8s5-1.8,13-5.4
			c8-3.6,10-4.5,19-9c9-4.5,11-8.1,21-6.3s11,2.7,14,4.5c3,1.8,6,3.6,10,1.8s15-8.1,15-8.1s0-10,6-2.7s10,10.9,10,10.9s1,5.4,10-0.9
			s12-8.1,18-12.7s13-6.3,13-6.3l14,3.6l19,10l12,0.9c0,0,28,35.3,42,35.3s39-9,39-9s13,3.6,16,4.5c3,0.9,44-13.6,44-13.6l28,0.9
			c0,0,14,7.2,19,7.2s41-3.6,41-3.6s24,29,44,32.6c19.8,3.6,58.2-67.3,71.6-58.2c0.3,0.2,0.6,0.4,0.9,0.5l42.3,20.7l44.2-0.1
			l32,26.2l41,6.3c3.9,0.6,7.6,2.2,10.6,4.5l21.3,16.7c2.7,2.1,4.8,4.8,6.1,7.8l1.4,3.4c3.8,9,14.2,14.2,24.7,12.3l15.2-2.7
			c4.4-0.8,9-0.3,13.1,1.3l21.1,8.4c4.3,1.7,9,2.1,13.6,1.2l16.5-3.4c9.7-2,19.7,2.2,24.2,10.2l8.9,15.7c0.9,1.6,2,3,3.3,4.3
			l20,19.8l15,16.3l14.9,16.4c5,5.5,12.9,8.2,20.7,6.9l26.2-4.3c7-1.1,14.2,0.9,19.3,5.5l9.7,8.8c2.1,1.9,4.6,3.4,7.4,4.4l30.4,10.8
			c2.3,0.8,4.4,2,6.2,3.4l36.7,28.6c2.3,1.8,5,3.1,7.8,3.9l31.5,8.7c1.4,0.4,2.7,0.9,4,1.5l16.3,8c1.5,0.8,3,1.7,4.3,2.7l21.5,17.6
			l42.9,16.2c3.3,1.2,6,3.5,7.5,6.4l20,37.5c3.6,6.7,12.6,9.4,19.9,5.9l15.4-7.3c5.6-2.6,12.4-1.8,16.9,2.2l22,19.2
			c0.3,0.3,0.6,0.6,0.9,0.9l15,15.8c2.3,2.4,5.4,3.9,8.8,4.4l44.7,6.1c0,0,0,0,0.1,0c3.1,0.4,5.8,2.4,7.3,5.1l30.3,53.2
			c0.8,1.5,2,2.7,3.5,3.7l57.9,36.9l66.1,45.7c1.8,1.3,3.2,3.1,4,5.2l21.7,62.5c1.3,3.8,4.7,6.5,8.7,7l38.1,4.7c2.8,0.3,5.3,1.8,7,4
			l36.3,46.6l51,66L2483,1080z"/>
	</g>
</g>
<g id="Ebene_3">
	<g>
		<rect x="0" y="0" class="st1" width="15537" height="1080"/>
	</g>
</g>
</svg>
