<?xml version="1.0" encoding="utf-8"?>
<!-- Generator: Adobe Illustrator 24.2.0, SVG Export Plug-In . SVG Version: 6.00 Build 0)  -->
<svg version="1.1" xmlns="http://www.w3.org/2000/svg" xmlns:xlink="http://www.w3.org/1999/xlink" x="0px" y="0px"
	 viewBox="0 0 15537 1080" style="enable-background:new 0 0 15537 1080;" xml:space="preserve">
<style type="text/css">
	.st0{fill:#757A6C;}
	.st1{fill:#FFFFFF;}
	.st2{fill:none;}
</style>
<g id="_x36__mount_everest">
	<g id="Himalaya_Mount_Everest">
		<path class="st0" d="M7225,277c9,7.9,30,33.3,39,40s33,27,33,27s21-0.8,28-6.4c7-5.6,10-15.7,19-15.7s50,21.3,50,21.3l63,39.3
			l11,15.7c0,0,25,6.7,34,10.1s29,13.5,29,13.5s5-23.9,13-18.3c5.2,3.7,20.3,34.3,30.1,55c5.1,10.9,17.6,16.2,29,12.4l28.7-9.5
			c10.8-3.6,22.6,1,28.1,10.9c8.8,15.8,22.7,37.4,34,41.1c14.9,4.9,29,11.5,37.6,15.8c5.3,2.7,9.5,7.3,11.6,12.9l19.8,52.9
			c2,5.3,5.8,9.7,10.8,12.5l35.3,19.4c1.3,0.7,2.7,1.3,4.1,1.8l32.1,10.4c6.8,2.2,12.2,7.4,14.8,14l20.9,54.5l10.7,27.6
			c4.2,10.8,15.6,17,27,14.6l1.7-0.4c9.9-2.1,20.1,2.4,25.2,11.1l37.4,62.8c0.7,1.1,1.4,2.1,2.2,3.1l52,62c2.5,3,5.7,5.3,9.3,6.8
			l80.9,32.5c3.7,1.5,7.6,2,11.6,1.6l54.7-6.3c5.4-0.6,10.9,0.6,15.5,3.6L8304,987l140,93H5111h-379c0,0,49.6-51.7,116.2-121.3
			c27.2-28.4,32.2-102.6,62.8-134.7c38.9-40.7,103.9-39.8,140.4-78.1c31.2-32.7,73.4-26.3,96.6-50.9c35-37,108.1-55.3,109-57
			c4-7.9,55-75,55-75l26-59.6l44-19.1l24-21.3l47-9l40,25c0,0,33-53.1,37-54.2c4-1.1,69-6.7,69-6.7l46,12.3l54-5.6h56l28-11.2
			c0,0,54,9,58,10.1c4,1.1,55,15.7,55,15.7s36,24.7,48,23.6s55,0,55,0l0,0c25.8,0,49.3,15,60.1,38.4c3.9,8.3,7.6,15.4,9.9,17.6
			c7,6.7,27.2,18.2,36,27c7,7,39,87,39,87s50-32.8,62-35s61-39,63-39s71,14,71,14s50-69.6,57-67.4c7,2.2,64,4.5,70,0
			c6-4.5,43-26.9,43-26.9s55-23.6,65-25.8c10-2.2,92-47.1,97-52.7c5-5.6,38-10.9,39-15.4c1-4.5,11-22.4,21-29.2
			c10-6.7,37-29.2,37-29.2l27,30.3c0,0,2,5.6,17,11.2s32,13.5,37,20.2c5,6.7,4,11.2,11,20.2s7,9,7,9s23-7.9,30-15.7
			c7-7.9,12-17.6,21-26.6s6-29.3,21-45s29-47,29-47s54-47.8,58-50s17-59.7,17-59.7s12-28.1,27-35.9c15-7.9,17-12.3,21-12.3
			s37,31.4,41,42.6s44,28.5,49,36.4s12,39,24,48L7225,277z"/>
		<path class="st1" d="M6694.9,374.4c0,0,16.5-17,24.8-37.2C6728,317,6764,301,6764,301l27,31l35,15l22.1,21.4L6864,388l38.8-24.4
			l19.5-33.8l18.8-32.1L6968,248l56.1-43.7L7041,134l46-39l51,52l46,32c0,0-6,37,81,114l39,31l19.8-15.2L7335,293l37,11l62,30l30,35
			l44,13l44,20l9,30l-85.7-18.4c-8.2-1.7-16.5-2.4-24.9-1.8l-77.1,5.1c-19.7,1.3-39.3-3.9-55.7-14.8l-26.4-17.5
			c-16.3-10.8-35.8-16-55.3-14.8l-63.8,4c-11.9,0.7-23.6,3.9-34.3,9.2l-71.1,35.1c-3.8,1.9-7.7,3.5-11.8,4.8
			c-20.8,6.9-88.3,29-89.9,29c-1.7,0-52.8-2.8-69.6-3.7c-3.6-0.2-7.1-0.6-10.6-1.2l-97-17c-7.8-1.4-15.7-1.7-23.5-1l-33.5,3
			c-21.7,1.9-43.4-4.1-61-17l-9.7-7.1L6694.9,374.4z"/>
	</g>
	<g id="Gebirge3">
		<path class="st0" d="M4601,1082l-84-136l-85.5-89.2c-33.4-34.9-41.8-49.2-89.5-56.8l-79,16c-24.3-3.9-40.3-32.9-64.2-27
			l-54.8,13.6c-13.9-2.9-25.8-11.8-32.5-24.4l-40.4-75.8c-4.5-8.5-12.5-14.6-21.8-16.7l-64.3-14.7c-16.5-3.8-30.6-14.4-38.8-29.2
			l-35.8-65c-6.2-7.6-14.7-12.9-24.2-15.2c-17.2-4.2-48.7-15.2-85.1-43.5c-45.2-35.1-52.9-75.5-100-112c-15.5-12-60.6,3.4-74-7
			c-40.6-31.4-62.3-73.2-63.2-73.6c-3.3-1.6-36-14.5-36-14.5l-53.5-10.5c0,0-27.3-15.3-31.6-16.1c-4.4-0.8-14.2,0-14.2,0l-26.2,13.7
			l-9.8,7.3l-17.5,8.9l-28.4-8.9l-82.9,37.9l-28.4-16.1c0,0-31.6,6.5-45.8,14.5S3095,406,3095,406l-35,17l-34,0.7
			c-22-3.7-67-17.8-67-17.8c-17-3-46.1-19.9-59-33.3c-15-15.5-37-40.7-37-40.7s-60.9-37-66.3-37s-20.7-6.2-20.7-6.2l-30.6-0.8
			c0,0-44.7,12.4-48,11.6c-3.3-0.8-17.5-3.9-17.5-3.9s-27.3,7.7-42.6,7.7c-15.3,0-45.8-30.2-45.8-30.2l-13.1-0.8l-20.7-8.5
			l-15.3-3.1c0,0-7.6,1.5-14.2,5.4c-6.5,3.9-9.8,5.4-19.6,10.8c-9.8,5.4-10.9,0.8-10.9,0.8s-4.4-3.1-10.9-9.3
			c-6.5-6.2-6.5,2.3-6.5,2.3s-12,5.4-16.4,7c-4.4,1.5-7.6,0-10.9-1.5s-4.4-2.3-15.3-3.9s-13.1,1.5-22.9,5.4
			c-9.8,3.9-12,4.6-20.7,7.7c-8.7,3.1-8.7,3.9-14.2,4.6c-5.5,0.8-14.2-1.5-14.2-1.5l-42.6-20.1c0,0-16.4,3.9-19.6,5.4
			c-3.3,1.5-8.7,4.6-8.7,4.6l-15.3-4.6c0,0-12,6.2-17.5,10.1c-5.5,3.9-12,4.6-18.5,10.8c-6.5,6.2-14.2,3.9-14.2,3.9
			s-10.9,3.9-19.6,3.9s-9.8-0.8-15.3-3.9c-5.5-3.1-9.8-5.4-20.7-8.5c-10.9-3.1-19.6,2.3-19.6,2.3s0,0-6.5,2.3
			c-6.5,2.3-7.6,2.3-13.1,5.4s-8.7,3.1-13.1,3.1c-4.4,0-8.7-3.1-8.7-3.1s-20.7,0.8-27.3,2.3c-6.5,1.5-24,7-27.3,7.7
			c-3.3,0.8-16.4,7.7-25.1,18.6c-8.7,10.8-87.3,34-100.4,44.1c-13.1,10.1-14.2,14.7-14.2,14.7s-9.8,5.4-27.3,12.4
			c-17.5,7-15.3,39-24,41.3s-34,37.7-34,37.7s-31.4-12.7-39-10.4c-7.6,2.3-25.9,28.8-39,28.8s-28.4,0-28.4,0s-20-11.8-38.6-11
			c-18.5,0.8-16.4,3.9-20.7,6.2s-52.9,38.7-58.3,41.1c-1.1,0.5-14.6,2-40-11.1c-8.9-4.6-13.1-9.1-24-14.8c-8.1-4.3-12-9.3-21-14.1
			c-7.9-4.2-18.6-2.2-27-6.7c-11.5-6.2-18.9-12-31-18.5c-13.5-7.2-43.3-2.2-57-9.6c-17-9.1-16.7-32.6-33-41.4
			c-11.2-6-40.5-3.2-51-8.9c-10.9-5.9-23.2-11.7-33-17c-14.4-7.8-22,0-33-5.9c-7.5-4-15.2-9.6-21-12c-11.1-4.6-12.4,9.8-22,16
			l-25,22c-1.6,1.1-6,6.9-11.2,14c-12.4,16.8-36.2,19.9-52.5,6.9l-7.3-5.8c-8.1,0.7-21.1-14.8-26-10l-21.4-8.5
			c-6,5.9-15.5,9.2-25.4,8.9l-20.6-0.7c-6.2-0.2-12.3,1-17.6,3.5L987,430.5c-0.7,0.3-1.3,0.6-1.9,1l-34.2,19.1
			c-5.7,3.2-12.8,4.8-20,4.5l-29.2-1.3c-6.3-0.3-12.5,0.9-17.9,3.4L858.2,469c-0.8,0.4-23.4,42.6-24.2,43l-85,61
			c-1.6,0.6-48.6,49.2-50,50l-259,455l152,2l3847,2H4601z"/>
	</g>
</g>
<g id="Ebene_4">
	<g>
		<rect class="st2" width="15537" height="1082"/>
	</g>
</g>
</svg>
