<?xml version="1.0" encoding="utf-8"?>
<!-- Generator: Adobe Illustrator 24.2.0, SVG Export Plug-In . SVG Version: 6.00 Build 0)  -->
<svg version="1.1" xmlns="http://www.w3.org/2000/svg" xmlns:xlink="http://www.w3.org/1999/xlink" x="0px" y="0px"
	 viewBox="0 0 15537 1080" style="enable-background:new 0 0 15537 1080;" xml:space="preserve">
<style type="text/css">
	.st0{fill:#93A3A5;}
	.st1{fill:none;}
</style>
<g id="_x37__Himalaya">
	<path class="st0" d="M3530,1077l47-89.5c10.6-20.2,24.1-38.8,40-55.2l53-54.3l67-94l2-4c16.1-31.7,39.3-59.1,67-81.5
		c22.8-18.4,38.2-52.5,62.8-70.9l0,0c1.4-1.1,2.9-2,4.5-2.8l30.3-15.1c0.9-0.4,1.7-0.9,2.6-1.4l25.6-16.1c5.3-3.4,11.6-5,17.9-4.6
		l29.2,1.8c7.2,0.4,14.2-1.7,20-6l34.2-25.8c0.6-0.5,1.3-0.9,1.9-1.3l21.9-14c5.2-3.3,11.4-5,17.6-4.7l20.6,0.9
		c9.9,0.4,19.4-4,25.4-12l16.4-7.3c4.9-6.5,16.9-16,25-17l53.8-23.9c6-0.7,11.6-3.2,16.2-7.2l24.5-21.3c9.6-8.3,22.5-19.8,33.6-13.7
		c5.8,3.2,13.5,17.5,21,23c11,8,14.6,34.5,29,45c9.8,7.2,22.1,15,33,23c10.5,7.7,39.8,3.8,51,12c16.3,11.9,16,43.7,33,56
		c13.7,10,43.5,3.2,57,13c12.1,8.8,19.5,16.7,31,25c8.4,6.1,19.1,3.3,27,9c9,6.4,12.9,13.2,21,19c10.9,7.7,15.1,13.8,24,20
		c25.4,17.7,38.9,15.6,40,15c5.5-3.1,54-52.4,58.3-55.5c4.4-3.1,2.2-7.3,20.7-8.4c18.5-1,38.6,14.9,38.6,14.9s15.3,0,28.4,0
		s31.4-35.8,39-39s39,14,39,14s25.3-47.9,34-51s6.6-46.4,24-55.8c17.5-9.4,27.3-16.7,27.3-16.7s1.1-6.3,14.2-19.9
		c13.1-13.6,91.7-45,100.4-59.6c8.7-14.6,21.8-24,25.1-25.1c3.3-1,20.7-8.4,27.3-10.5c6.5-2.1,27.3-3.1,27.3-3.1s4.4,4.2,8.7,4.2
		c4.4,0,7.6,0,13.1-4.2c5.5-4.2,6.5-4.2,13.1-7.3s6.5-3.1,6.5-3.1s8.7-7.3,19.6-3.1c10.9,4.2,15.3,7.3,20.7,11.5
		c5.5,4.2,6.5,5.2,15.3,5.2c8.7,0,19.6-5.2,19.6-5.2s7.6,3.1,14.2-5.2c6.5-8.4,13.1-9.4,18.5-14.6c5.5-5.2,17.5-13.6,17.5-13.6
		l15.3,6.3c0,0,5.5-4.2,8.7-6.3s19.6-7.3,19.6-7.3l42.6,27.2c0,0,8.7,3.1,14.2,2.1c5.5-1,5.5-2.1,14.2-6.3
		c8.7-4.2,10.9-5.2,20.7-10.5c9.8-5.2,12-9.4,22.9-7.3c10.9,2.1,12,3.1,15.3,5.2c3.3,2.1,6.5,4.2,10.9,2.1
		c4.4-2.1,16.4-9.4,16.4-9.4s0-11.5,6.5-3.1c6.5,8.4,10.9,12.5,10.9,12.5s1.1,6.3,10.9-1c9.8-7.3,13.1-9.4,19.6-14.6
		s14.2-7.3,14.2-7.3l15.3,4.2l20.7,11.5l13.1,1c0,0,30.6,40.8,45.8,40.8c15.3,0,42.6-10.5,42.6-10.5s14.2,4.2,17.5,5.2
		c3.3,1,48-15.7,48-15.7l30.6,1c0,0,15.3,8.4,20.7,8.4c5.5,0,66.3,50,66.3,50s22,34,37,55c12.9,18.1,42,41,59,45c0,0,45,19,67,24
		l34-1l35-23c0,0,80.3-76.2,94.5-87.1c7.7-5.9,20.4-11.1,30.5-14.7c9.3-3.3,19.5-1.7,27.3,4.3l0.5,0.4c9.5,7.3,22.6,8,32.9,1.7
		l53.2-32.9c8-4.9,17.9-5.7,26.5-2l0,0c9.1,3.8,19.5,2.8,27.7-2.8l2.2-1.5c1.5-1,2.8-2.1,4.1-3.4l7.9-7.9l26.2-18.5
		c0,0,9.8-1.1,14.2,0c1.3,0.3,4.7,2.4,8.7,5.2c17,11.5,35.8,20.1,55.7,25.3l0,0c14,3.7,27.4,9,40.1,15.9c7.7,4.2,15.2,8.3,16.6,9.2
		c2.2,1.5,18.5,33.9,29.1,55.3c6.1,12.4,14.6,23.5,24.9,32.7l13,11.6c12.1,10.8,21.6,24.1,27.8,39.1l15.1,36.3
		c11.2,26.8,32.7,48.1,59.7,58.9v0c24.4,9.7,44.3,28,56.2,51.4L6913,848l59,230"/>
</g>
<g id="Ebene_2">
	<g>
		<rect y="0" class="st1" width="15537" height="1080"/>
	</g>
</g>
</svg>
