<?xml version="1.0" encoding="utf-8"?>
<!-- Generator: Adobe Illustrator 24.2.1, SVG Export Plug-In . SVG Version: 6.00 Build 0)  -->
<svg version="1.1" id="Wolken_hell" xmlns="http://www.w3.org/2000/svg" xmlns:xlink="http://www.w3.org/1999/xlink" x="0px"
	 y="0px" viewBox="0 0 15537 1080" style="enable-background:new 0 0 15537 1080;" xml:space="preserve">
<style type="text/css">
	.st0{fill:#FFFFFF;}
	.st1{fill:none;}
</style>
<g id="wolken_hell_1_">
	<g>
		<path class="st0" d="M311.2,248.4c-4.6,0-9.1,0.2-13.4,0.5c1.5-3.1,2.4-6.3,2.4-9.7c0-18.4-24.6-33.4-55.4-34.1
			c-11-14.6-33.8-24.7-60.1-24.7c-37,0-67.1,19.8-67.1,44.3c0,3.8,0.7,7.5,2.1,11c-31.1,4-53.9,17.5-53.9,33.5
			c0,19.2,32.8,34.7,73.3,34.7c12.7,0,24.7-1.5,35.1-4.2c10.9,11.2,32.9,18.9,58.2,18.9c16.9,0,32.3-3.4,43.9-9
			c10.4,2.5,22.3,3.9,34.9,3.9c40.6,0,73.5-14.6,73.5-32.5C384.7,262.9,351.7,248.4,311.2,248.4z"/>
	</g>
	<g>
		<path class="st0" d="M3274.2,156.4c-4.6,0-9.1,0.2-13.4,0.5c1.5-3.1,2.4-6.3,2.4-9.7c0-18.4-24.6-33.4-55.4-34.1
			c-11-14.6-33.8-24.7-60.1-24.7c-37,0-67.1,19.8-67.1,44.3c0,3.8,0.7,7.5,2.1,11c-31.1,4-53.9,17.5-53.9,33.5
			c0,19.2,32.8,34.7,73.3,34.7c12.7,0,24.7-1.5,35.1-4.2c10.9,11.2,32.9,18.9,58.2,18.9c16.9,0,32.3-3.4,43.9-9
			c10.4,2.5,22.3,3.9,34.9,3.9c40.6,0,73.5-14.6,73.5-32.5S3314.7,156.4,3274.2,156.4z"/>
	</g>
	<g>
		<path class="st0" d="M757.7,276.7c-4.7-0.5-9.3-0.4-13.6,0.2c-5.7-9.9-16-17-28.2-18.2c-20.2-2-38.2,12.8-40.1,33
			c0,0.1,0,0.2,0,0.3c-0.1,0-0.2,0-0.3,0c-20.2-2-37.7,8-39.1,22.4c-1.4,14.3,13.8,27.5,34,29.5c8.4,0.8,16.4-0.4,22.9-3.2
			c4.2,1.7,8.8,2.8,13.7,3.3c3.2,0.3,6.3,0.3,9.3,0.1c5.5,3.3,12.3,5.5,19.7,6.3c20.2,2,37.7-8,39.1-22.4c0-0.4,0.1-0.9,0.1-1.3
			c11.6-3.5,19.7-10.8,20.6-19.9C797.1,292.2,780.1,278.9,757.7,276.7z"/>
	</g>
	<g>
		<path class="st0" d="M3820.2,248.4c-4.6,0-9.1,0.2-13.4,0.5c1.5-3.1,2.4-6.3,2.4-9.7c0-18.4-24.6-33.4-55.4-34.1
			c-11-14.6-33.8-24.7-60.1-24.7c-37,0-67.1,19.8-67.1,44.3c0,3.8,0.7,7.5,2.1,11c-31.1,4-53.9,17.5-53.9,33.5
			c0,19.2,32.8,34.7,73.3,34.7c12.7,0,24.7-1.5,35.1-4.2c10.9,11.2,32.9,18.9,58.2,18.9c16.9,0,32.3-3.4,43.9-9
			c10.4,2.5,22.3,3.9,34.9,3.9c40.6,0,73.5-14.6,73.5-32.5C3893.7,262.9,3860.7,248.4,3820.2,248.4z"/>
	</g>
	<g>
		<path class="st0" d="M6783.2,156.4c-4.6,0-9.1,0.2-13.4,0.5c1.5-3.1,2.4-6.3,2.4-9.7c0-18.4-24.6-33.4-55.4-34.1
			c-11-14.6-33.8-24.7-60.1-24.7c-37,0-67.1,19.8-67.1,44.3c0,3.8,0.7,7.5,2.1,11c-31.1,4-53.9,17.5-53.9,33.5
			c0,19.2,32.8,34.7,73.3,34.7c12.7,0,24.7-1.5,35.1-4.2c10.9,11.2,32.9,18.9,58.2,18.9c16.9,0,32.3-3.4,43.9-9
			c10.4,2.5,22.3,3.9,34.9,3.9c40.6,0,73.5-14.6,73.5-32.5S6823.7,156.4,6783.2,156.4z"/>
	</g>
	<g>
		<path class="st0" d="M4266.6,276.7c-4.7-0.5-9.3-0.4-13.6,0.2c-5.7-9.9-16-17-28.2-18.2c-20.2-2-38.2,12.8-40.1,33
			c0,0.1,0,0.2,0,0.3c-0.1,0-0.2,0-0.3,0c-20.2-2-37.7,8-39.1,22.4c-1.4,14.3,13.8,27.5,34,29.5c8.4,0.8,16.4-0.4,22.9-3.2
			c4.2,1.7,8.8,2.8,13.7,3.3c3.2,0.3,6.3,0.3,9.3,0.1c5.5,3.3,12.3,5.5,19.7,6.3c20.2,2,37.7-8,39.1-22.4c0-0.4,0.1-0.9,0.1-1.3
			c11.6-3.5,19.7-10.8,20.6-19.9C4306.1,292.2,4289.1,278.9,4266.6,276.7z"/>
	</g>
	<g>
		<path class="st0" d="M10266.2,156.4c-4.6,0-9.1,0.2-13.4,0.5c1.5-3.1,2.4-6.3,2.4-9.7c0-18.4-24.6-33.4-55.4-34.1
			c-11-14.6-33.8-24.7-60.1-24.7c-37,0-67.1,19.8-67.1,44.3c0,3.8,0.7,7.5,2.1,11c-31.1,4-53.9,17.5-53.9,33.5
			c0,19.2,32.8,34.7,73.3,34.7c12.7,0,24.7-1.5,35.1-4.2c10.9,11.2,32.9,18.9,58.2,18.9c16.9,0,32.3-3.4,43.9-9
			c10.4,2.5,22.3,3.9,34.9,3.9c40.6,0,73.5-14.6,73.5-32.5S10306.7,156.4,10266.2,156.4z"/>
	</g>
	<g>
		<path class="st0" d="M9094.2,257.4c-4.6,0-9.1,0.2-13.4,0.5c1.5-3.1,2.4-6.3,2.4-9.7c0-18.4-24.6-33.4-55.4-34.1
			c-11-14.6-33.8-24.7-60.1-24.7c-37,0-67.1,19.8-67.1,44.3c0,3.8,0.7,7.5,2.1,11c-31.1,4-53.9,17.5-53.9,33.5
			c0,19.2,32.8,34.7,73.3,34.7c12.7,0,24.7-1.5,35.1-4.2c10.9,11.2,32.9,18.9,58.2,18.9c16.9,0,32.3-3.4,43.9-9
			c10.4,2.5,22.3,3.9,34.9,3.9c40.6,0,73.5-14.6,73.5-32.5C9167.7,271.9,9134.7,257.4,9094.2,257.4z"/>
	</g>
	<g>
		<path class="st0" d="M7749.6,276.7c-4.7-0.5-9.3-0.4-13.6,0.2c-5.7-9.9-16-17-28.2-18.2c-20.2-2-38.2,12.8-40.1,33
			c0,0.1,0,0.2,0,0.3c-0.1,0-0.2,0-0.3,0c-20.2-2-37.7,8-39.1,22.4c-1.4,14.3,13.8,27.5,34,29.5c8.4,0.8,16.4-0.4,22.9-3.2
			c4.2,1.7,8.8,2.8,13.7,3.3c3.2,0.3,6.3,0.3,9.3,0.1c5.5,3.3,12.3,5.5,19.7,6.3c20.2,2,37.7-8,39.1-22.4c0-0.4,0.1-0.9,0.1-1.3
			c11.6-3.5,19.7-10.8,20.6-19.9C7789.1,292.2,7772.1,278.9,7749.6,276.7z"/>
	</g>
	<g>
		<path class="st0" d="M10786.2,248.4c-4.6,0-9.1,0.2-13.4,0.5c1.5-3.1,2.4-6.3,2.4-9.7c0-18.4-24.6-33.4-55.4-34.1
			c-11-14.6-33.8-24.7-60.1-24.7c-37,0-67.1,19.8-67.1,44.3c0,3.8,0.7,7.5,2.1,11c-31.1,4-53.9,17.5-53.9,33.5
			c0,19.2,32.8,34.7,73.3,34.7c12.7,0,24.7-1.5,35.1-4.2c10.9,11.2,32.9,18.9,58.2,18.9c16.9,0,32.3-3.4,43.9-9
			c10.4,2.5,22.3,3.9,34.9,3.9c40.6,0,73.5-14.6,73.5-32.5C10859.7,262.9,10826.7,248.4,10786.2,248.4z"/>
	</g>
	<g>
		<path class="st0" d="M11232.7,276.7c-4.7-0.5-9.3-0.4-13.6,0.2c-5.7-9.9-16-17-28.2-18.2c-20.2-2-38.2,12.8-40.1,33
			c0,0.1,0,0.2,0,0.3c-0.1,0-0.2,0-0.3,0c-20.2-2-37.7,8-39.1,22.4c-1.4,14.3,13.8,27.5,34,29.5c8.4,0.8,16.4-0.4,22.9-3.2
			c4.2,1.7,8.8,2.8,13.7,3.3c3.2,0.3,6.3,0.3,9.3,0.1c5.5,3.3,12.3,5.5,19.7,6.3c20.2,2,37.7-8,39.1-22.4c0-0.4,0.1-0.9,0.1-1.3
			c11.6-3.5,19.7-10.8,20.6-19.9C11272.1,292.2,11255.1,278.9,11232.7,276.7z"/>
	</g>
	<g>
		<path class="st0" d="M14047.2,156.4c-4.6,0-9.1,0.2-13.4,0.5c1.5-3.1,2.4-6.3,2.4-9.7c0-18.4-24.6-33.4-55.4-34.1
			c-11-14.6-33.8-24.7-60.1-24.7c-37,0-67.1,19.8-67.1,44.3c0,3.8,0.7,7.5,2.1,11c-31.1,4-53.9,17.5-53.9,33.5
			c0,19.2,32.8,34.7,73.3,34.7c12.7,0,24.7-1.5,35.1-4.2c10.9,11.2,32.9,18.9,58.2,18.9c16.9,0,32.3-3.4,43.9-9
			c10.4,2.5,22.3,3.9,34.9,3.9c40.6,0,73.5-14.6,73.5-32.5S14087.7,156.4,14047.2,156.4z"/>
	</g>
	<g>
		<path class="st0" d="M12875.2,257.4c-4.6,0-9.1,0.2-13.4,0.5c1.5-3.1,2.4-6.3,2.4-9.7c0-18.4-24.6-33.4-55.4-34.1
			c-11-14.6-33.8-24.7-60.1-24.7c-37,0-67.1,19.8-67.1,44.3c0,3.8,0.7,7.5,2.1,11c-31.1,4-53.9,17.5-53.9,33.5
			c0,19.2,32.8,34.7,73.3,34.7c12.7,0,24.7-1.5,35.1-4.2c10.9,11.2,32.9,18.9,58.2,18.9c16.9,0,32.3-3.4,43.9-9
			c10.4,2.5,22.3,3.9,34.9,3.9c40.6,0,73.5-14.6,73.5-32.5C12948.7,271.9,12915.7,257.4,12875.2,257.4z"/>
	</g>
	<g>
		<path class="st0" d="M14567.2,248.4c-4.6,0-9.1,0.2-13.4,0.5c1.5-3.1,2.4-6.3,2.4-9.7c0-18.4-24.6-33.4-55.4-34.1
			c-11-14.6-33.8-24.7-60.1-24.7c-37,0-67.1,19.8-67.1,44.3c0,3.8,0.7,7.5,2.1,11c-31.1,4-53.9,17.5-53.9,33.5
			c0,19.2,32.8,34.7,73.3,34.7c12.7,0,24.7-1.5,35.1-4.2c10.9,11.2,32.9,18.9,58.2,18.9c16.9,0,32.3-3.4,43.9-9
			c10.4,2.5,22.3,3.9,34.9,3.9c40.6,0,73.5-14.6,73.5-32.5C14640.7,262.9,14607.7,248.4,14567.2,248.4z"/>
	</g>
	<g>
		<path class="st0" d="M15013.7,276.7c-4.7-0.5-9.3-0.4-13.6,0.2c-5.7-9.9-16-17-28.2-18.2c-20.2-2-38.2,12.8-40.1,33
			c0,0.1,0,0.2,0,0.3c-0.1,0-0.2,0-0.3,0c-20.2-2-37.7,8-39.1,22.4c-1.4,14.3,13.8,27.5,34,29.5c8.4,0.8,16.4-0.4,22.9-3.2
			c4.2,1.7,8.8,2.8,13.7,3.3c3.2,0.3,6.3,0.3,9.3,0.1c5.5,3.3,12.3,5.5,19.7,6.3c20.2,2,37.7-8,39.1-22.4c0-0.4,0.1-0.9,0.1-1.3
			c11.6-3.5,19.7-10.8,20.6-19.9C15053.1,292.2,15036.1,278.9,15013.7,276.7z"/>
	</g>
</g>
<g>
	<rect y="0" class="st1" width="15537" height="1080"/>
</g>
</svg>
