<?xml version="1.0" encoding="utf-8"?>
<!-- Generator: Adobe Illustrator 24.2.1, SVG Export Plug-In . SVG Version: 6.00 Build 0)  -->
<svg version="1.1" xmlns="http://www.w3.org/2000/svg" xmlns:xlink="http://www.w3.org/1999/xlink" x="0px" y="0px"
	 viewBox="0 0 15537 1080" style="enable-background:new 0 0 15537 1080;" xml:space="preserve">
<style type="text/css">
	.st0{fill:#F2F2F2;}
	.st1{fill:none;}
</style>
<g id="Wolken_grau">
	<g id="wolken_grau_1_">
		<g>
			<path class="st0" d="M538.9,108.5c-4.7-0.3-9.3-0.1-13.6,0.5c-6-9.7-16.4-16.5-28.7-17.4c-20.2-1.4-37.8,13.9-39.2,34.1
				c0,0.1,0,0.2,0,0.3c-0.1,0-0.2,0-0.3,0c-20.2-1.4-37.5,9.1-38.5,23.4c-1,14.3,14.6,27.1,34.8,28.5c8.4,0.6,16.3-0.9,22.8-3.9
				c4.2,1.6,8.9,2.6,13.8,2.9c3.2,0.2,6.3,0.1,9.3-0.2c5.6,3.1,12.4,5.2,19.9,5.7c20.2,1.4,37.5-9.1,38.5-23.4c0-0.4,0-0.9,0-1.3
				c11.5-3.9,19.4-11.4,20-20.5C578.8,123,561.4,110.1,538.9,108.5z"/>
		</g>
		<g>
			<path class="st0" d="M1574.2,196c-5.4-0.8-10.7-0.9-15.7-0.5c-6.1-11.7-17.5-20.4-31.5-22.4c-23.1-3.3-44.6,12.7-47.9,35.9
				c0,0.1,0,0.2,0,0.3c-0.1,0-0.2,0-0.3-0.1c-23.1-3.3-43.8,7.3-46.2,23.7c-2.4,16.4,14.5,32.4,37.6,35.7c9.6,1.4,18.9,0.4,26.5-2.5
				c4.7,2.1,10,3.7,15.6,4.5c3.7,0.5,7.2,0.7,10.7,0.6c6.2,4.1,13.8,7,22.4,8.2c23.1,3.3,43.8-7.3,46.2-23.7c0.1-0.5,0.1-1,0.2-1.5
				c13.5-3.5,23.3-11.4,24.8-21.8C1618.8,216,1599.9,199.7,1574.2,196z"/>
		</g>
		<g>
			<path class="st0" d="M2486.2,156.5c-3.8,0-7.5,0.2-11.1,0.4c1.3-2.5,2-5.2,2-8c0-15.2-20.3-27.6-45.8-28.2
				c-9-12.1-27.9-20.4-49.6-20.4c-30.6,0-55.4,16.4-55.4,36.6c0,3.1,0.6,6.2,1.7,9.1c-25.6,3.3-44.5,14.4-44.5,27.7
				c0,15.8,27.1,28.7,60.5,28.7c10.5,0,20.4-1.3,29-3.5c9,9.3,27.2,15.6,48.1,15.6c14,0,26.7-2.8,36.3-7.5c8.6,2,18.4,3.2,28.8,3.2
				c33.5,0,60.7-12,60.7-26.9S2519.7,156.5,2486.2,156.5z"/>
		</g>
		<g>
			<path class="st0" d="M4729.1,171.8c-3.8,0-7.6,0.2-11.2,0.5c1.3-2.6,2-5.3,2-8.1c0-15.4-20.6-27.9-46.4-28.6
				c-9.2-12.2-28.3-20.6-50.3-20.6c-31,0-56.1,16.6-56.1,37.1c0,3.2,0.6,6.2,1.7,9.2c-26,3.4-45.1,14.6-45.1,28
				c0,16.1,27.5,29.1,61.4,29.1c10.6,0,20.7-1.3,29.4-3.5c9.1,9.4,27.5,15.8,48.7,15.8c14.1,0,27-2.9,36.8-7.6
				c8.7,2.1,18.6,3.3,29.2,3.3c34,0,61.5-12.2,61.5-27.2S4763.1,171.8,4729.1,171.8z"/>
		</g>
		<g>
			<path class="st0" d="M5157.2,211c-5.4-0.8-10.7-0.9-15.7-0.5c-6.1-11.7-17.5-20.4-31.5-22.4c-23.1-3.3-44.6,12.7-47.9,35.9
				c0,0.1,0,0.2,0,0.3c-0.1,0-0.2,0-0.3-0.1c-23.1-3.3-43.8,7.3-46.2,23.7c-2.4,16.4,14.5,32.4,37.6,35.7c9.6,1.4,18.9,0.4,26.5-2.5
				c4.7,2.1,10,3.7,15.6,4.5c3.7,0.5,7.2,0.7,10.7,0.6c6.2,4.1,13.8,7,22.4,8.2c23.1,3.3,43.8-7.3,46.2-23.7c0.1-0.5,0.1-1,0.2-1.5
				c13.5-3.5,23.3-11.4,24.8-21.8C5201.8,231,5182.9,214.7,5157.2,211z"/>
		</g>
		<g>
			<path class="st0" d="M6069.2,171.5c-3.8,0-7.5,0.2-11.1,0.4c1.3-2.5,2-5.2,2-8c0-15.2-20.3-27.6-45.8-28.2
				c-9-12.1-27.9-20.4-49.6-20.4c-30.6,0-55.4,16.4-55.4,36.6c0,3.1,0.6,6.2,1.7,9.1c-25.6,3.3-44.5,14.4-44.5,27.7
				c0,15.8,27.1,28.7,60.5,28.7c10.5,0,20.4-1.3,29-3.5c9,9.3,27.2,15.6,48.1,15.6c14,0,26.7-2.8,36.3-7.5c8.6,2,18.4,3.2,28.8,3.2
				c33.5,0,60.7-12,60.7-26.9S6102.7,171.5,6069.2,171.5z"/>
		</g>
		<g>
			<path class="st0" d="M6498.9,244.5c-4.7-0.3-9.3-0.1-13.6,0.5c-6-9.7-16.4-16.5-28.7-17.4c-20.2-1.4-37.8,13.9-39.2,34.1
				c0,0.1,0,0.2,0,0.3c-0.1,0-0.2,0-0.3,0c-20.2-1.4-37.5,9.1-38.5,23.4c-1,14.3,14.6,27.1,34.8,28.5c8.4,0.6,16.3-0.9,22.8-3.9
				c4.2,1.6,8.9,2.6,13.8,2.9c3.2,0.2,6.3,0.1,9.3-0.2c5.6,3.1,12.4,5.2,19.9,5.7c20.2,1.4,37.5-9.1,38.5-23.4c0-0.4,0-0.9,0-1.3
				c11.5-3.9,19.4-11.4,20-20.5C6538.8,259,6521.4,246.1,6498.9,244.5z"/>
		</g>
		<g>
			<path class="st0" d="M8212.1,171.8c-3.8,0-7.6,0.2-11.2,0.5c1.3-2.6,2-5.3,2-8.1c0-15.4-20.6-27.9-46.4-28.6
				c-9.2-12.2-28.3-20.6-50.3-20.6c-31,0-56.1,16.6-56.1,37.1c0,3.2,0.6,6.2,1.7,9.2c-26,3.4-45.1,14.6-45.1,28
				c0,16.1,27.5,29.1,61.4,29.1c10.6,0,20.7-1.3,29.4-3.5c9.1,9.4,27.5,15.8,48.7,15.8c14.1,0,27-2.9,36.8-7.6
				c8.7,2.1,18.6,3.3,29.2,3.3c34,0,61.5-12.2,61.5-27.2S8246.1,171.8,8212.1,171.8z"/>
		</g>
		<g>
			<path class="st0" d="M7604.9,123.5c-4.7-0.3-9.3-0.1-13.6,0.5c-6-9.7-16.4-16.5-28.7-17.4c-20.2-1.4-37.8,13.9-39.2,34.1
				c0,0.1,0,0.2,0,0.3c-0.1,0-0.2,0-0.3,0c-20.2-1.4-37.5,9.1-38.5,23.4c-1,14.3,14.6,27.1,34.8,28.5c8.4,0.6,16.3-0.9,22.8-3.9
				c4.2,1.6,8.9,2.6,13.8,2.9c3.2,0.2,6.3,0.1,9.3-0.2c5.6,3.1,12.4,5.2,19.9,5.7c20.2,1.4,37.5-9.1,38.5-23.4c0-0.4,0-0.9,0-1.3
				c11.5-3.9,19.4-11.4,20-20.5C7644.8,138,7627.4,125.1,7604.9,123.5z"/>
		</g>
		<g>
			<path class="st0" d="M8640.2,211c-5.4-0.8-10.7-0.9-15.7-0.5c-6.1-11.7-17.5-20.4-31.5-22.4c-23.1-3.3-44.6,12.7-47.9,35.9
				c0,0.1,0,0.2,0,0.3c-0.1,0-0.2,0-0.3-0.1c-23.1-3.3-43.8,7.3-46.2,23.7c-2.4,16.4,14.5,32.4,37.6,35.7c9.6,1.4,18.9,0.4,26.5-2.5
				c4.7,2.1,10,3.7,15.6,4.5c3.7,0.5,7.2,0.7,10.7,0.6c6.2,4.1,13.8,7,22.4,8.2c23.1,3.3,43.8-7.3,46.2-23.7c0.1-0.5,0.1-1,0.2-1.5
				c13.5-3.5,23.3-11.4,24.8-21.8C8684.8,231,8665.9,214.7,8640.2,211z"/>
		</g>
		<g>
			<path class="st0" d="M10897.1,171.8c-3.8,0-7.6,0.2-11.2,0.5c1.3-2.6,2-5.3,2-8.1c0-15.4-20.6-27.9-46.4-28.6
				c-9.2-12.2-28.3-20.6-50.3-20.6c-31,0-56.1,16.6-56.1,37.1c0,3.2,0.6,6.2,1.7,9.2c-26,3.4-45.1,14.6-45.1,28
				c0,16.1,27.5,29.1,61.4,29.1c10.6,0,20.7-1.3,29.4-3.5c9.1,9.4,27.5,15.8,48.7,15.8c14.1,0,27-2.9,36.8-7.6
				c8.7,2.1,18.6,3.3,29.2,3.3c34,0,61.5-12.2,61.5-27.2S10931.1,171.8,10897.1,171.8z"/>
		</g>
		<g>
			<path class="st0" d="M12237.2,171.5c-3.8,0-7.5,0.2-11.1,0.4c1.3-2.5,2-5.2,2-8c0-15.2-20.3-27.6-45.8-28.2
				c-9-12.1-27.9-20.4-49.6-20.4c-30.6,0-55.4,16.4-55.4,36.6c0,3.1,0.6,6.2,1.7,9.1c-25.6,3.3-44.5,14.4-44.5,27.7
				c0,15.8,27.1,28.7,60.5,28.7c10.5,0,20.4-1.3,29-3.5c9,9.3,27.2,15.6,48.1,15.6c14,0,26.7-2.8,36.3-7.5c8.6,2,18.4,3.2,28.8,3.2
				c33.5,0,60.7-12,60.7-26.9S12270.7,171.5,12237.2,171.5z"/>
		</g>
		<g>
			<path class="st0" d="M14380.1,171.8c-3.8,0-7.6,0.2-11.2,0.5c1.3-2.6,2-5.3,2-8.1c0-15.4-20.6-27.9-46.4-28.6
				c-9.2-12.2-28.3-20.6-50.3-20.6c-31,0-56.1,16.6-56.1,37.1c0,3.2,0.6,6.2,1.7,9.2c-26,3.4-45.1,14.6-45.1,28
				c0,16.1,27.5,29.1,61.4,29.1c10.6,0,20.7-1.3,29.4-3.5c9.1,9.4,27.5,15.8,48.7,15.8c14.1,0,27-2.9,36.8-7.6
				c8.7,2.1,18.6,3.3,29.2,3.3c34,0,61.5-12.2,61.5-27.2S14414.1,171.8,14380.1,171.8z"/>
		</g>
		<g>
			<path class="st0" d="M13772.9,123.5c-4.7-0.3-9.3-0.1-13.6,0.5c-6-9.7-16.4-16.5-28.7-17.4c-20.2-1.4-37.8,13.9-39.2,34.1
				c0,0.1,0,0.2,0,0.3c-0.1,0-0.2,0-0.3,0c-20.2-1.4-37.5,9.1-38.5,23.4c-1,14.3,14.6,27.1,34.8,28.5c8.4,0.6,16.3-0.9,22.8-3.9
				c4.2,1.6,8.9,2.6,13.8,2.9c3.2,0.2,6.3,0.1,9.3-0.2c5.6,3.1,12.4,5.2,19.9,5.7c20.2,1.4,37.5-9.1,38.5-23.4c0-0.4,0-0.9,0-1.3
				c11.5-3.9,19.4-11.4,20-20.5C13812.8,138,13795.4,125.1,13772.9,123.5z"/>
		</g>
		<g>
			<path class="st0" d="M14808.2,211c-5.4-0.8-10.7-0.9-15.7-0.5c-6.1-11.7-17.5-20.4-31.5-22.4c-23.1-3.3-44.6,12.7-47.9,35.9
				c0,0.1,0,0.2,0,0.3c-0.1,0-0.2,0-0.3-0.1c-23.1-3.3-43.8,7.3-46.2,23.7c-2.4,16.4,14.5,32.4,37.6,35.7c9.6,1.4,18.9,0.4,26.5-2.5
				c4.7,2.1,10,3.7,15.6,4.5c3.7,0.5,7.2,0.7,10.7,0.6c6.2,4.1,13.8,7,22.4,8.2c23.1,3.3,43.8-7.3,46.2-23.7c0.1-0.5,0.1-1,0.2-1.5
				c13.5-3.5,23.3-11.4,24.8-21.8C14852.8,231,14833.9,214.7,14808.2,211z"/>
		</g>
		<g>
			<path class="st0" d="M11695.1,171.8c-3.8,0-7.6,0.2-11.2,0.5c1.3-2.6,2-5.3,2-8.1c0-15.4-20.6-27.9-46.4-28.6
				c-9.2-12.2-28.3-20.6-50.3-20.6c-31,0-56.1,16.6-56.1,37.1c0,3.2,0.6,6.2,1.7,9.2c-26,3.4-45.1,14.6-45.1,28
				c0,16.1,27.5,29.1,61.4,29.1c10.6,0,20.7-1.3,29.4-3.5c9.1,9.4,27.5,15.8,48.7,15.8c14.1,0,27-2.9,36.8-7.6
				c8.7,2.1,18.6,3.3,29.2,3.3c34,0,61.5-12.2,61.5-27.2S11729.1,171.8,11695.1,171.8z"/>
		</g>
		<g>
			<path class="st0" d="M11087.9,123.5c-4.7-0.3-9.3-0.1-13.6,0.5c-6-9.7-16.4-16.5-28.7-17.4c-20.2-1.4-37.8,13.9-39.2,34.1
				c0,0.1,0,0.2,0,0.3c-0.1,0-0.2,0-0.3,0c-20.2-1.4-37.5,9.1-38.5,23.4c-1,14.3,14.6,27.1,34.8,28.5c8.4,0.6,16.3-0.9,22.8-3.9
				c4.2,1.6,8.9,2.6,13.8,2.9c3.2,0.2,6.3,0.1,9.3-0.2c5.6,3.1,12.4,5.2,19.9,5.7c20.2,1.4,37.5-9.1,38.5-23.4c0-0.4,0-0.9,0-1.3
				c11.5-3.9,19.4-11.4,20-20.5C11127.8,138,11110.4,125.1,11087.9,123.5z"/>
		</g>
		<g>
			<path class="st0" d="M9981.9,244.5c-4.7-0.3-9.3-0.1-13.6,0.5c-6-9.7-16.4-16.5-28.7-17.4c-20.2-1.4-37.8,13.9-39.2,34.1
				c0,0.1,0,0.2,0,0.3c-0.1,0-0.2,0-0.3,0c-20.2-1.4-37.5,9.1-38.5,23.4c-1,14.3,14.6,27.1,34.8,28.5c8.4,0.6,16.3-0.9,22.8-3.9
				c4.2,1.6,8.9,2.6,13.8,2.9c3.2,0.2,6.3,0.1,9.3-0.2c5.6,3.1,12.4,5.2,19.9,5.7c20.2,1.4,37.5-9.1,38.5-23.4c0-0.4,0-0.9,0-1.3
				c11.5-3.9,19.4-11.4,20-20.5C10021.8,259,10004.4,246.1,9981.9,244.5z"/>
		</g>
	</g>
</g>
<g id="Ebene_2">
	<g>
		<rect y="0" class="st1" width="15537" height="1080"/>
	</g>
</g>
</svg>
