<?xml version="1.0" encoding="UTF-8" standalone="no"?>
<!DOCTYPE svg PUBLIC "-//W3C//DTD SVG 1.1//EN" "http://www.w3.org/Graphics/SVG/1.1/DTD/svg11.dtd">
<svg width="100%" height="100%" viewBox="0 0 680 446" version="1.1" xmlns="http://www.w3.org/2000/svg" xmlns:xlink="http://www.w3.org/1999/xlink" xml:space="preserve" xmlns:serif="http://www.serif.com/" style="fill-rule:evenodd;clip-rule:evenodd;stroke-linejoin:round;stroke-miterlimit:2;">
    <g id="Ebene_43_Kopie_2" transform="matrix(1,0,0,1,-1535,12)">
        <g id="Ebene_1">
            <path d="M1718.61,301.21L1723.64,293.65L1724.99,291.61L1718.61,301.21Z" style="fill-rule:nonzero;"/>
            <path d="M1733.18,279.16L1733.58,278.59L1734.7,276.85L1733.18,279.16Z" style="fill-rule:nonzero;"/>
            <path d="M1729.82,284.26L1724.99,291.61L1729.02,285.54L1729.82,284.26Z" style="fill-rule:nonzero;"/>
            <path d="M1731.7,281.26L1729.82,284.26L1733.18,279.16L1731.7,281.26Z" style="fill-rule:nonzero;"/>
            <g transform="matrix(1,0,0,1,-9347.29,-371.84)">
                <path d="M11047.6,419.72L11033.4,523.87L11033.4,524.16L11047.6,420C11048,417.956 11049.1,416.125 11050.8,414.87L11052.1,413.87L11050.8,414.58C11049.1,415.861 11048,417.685 11047.6,419.72Z" style="fill-rule:nonzero;"/>
            </g>
            <g transform="matrix(1,0,0,1,-9347.29,-371.84)">
                <path d="M11484.4,573.74L11488.2,516.04L11488.2,515.9L11484.3,576.02L11484.3,576.45L11491.5,604.95L11491.6,604.07L11484.9,578.59C11484.4,577.019 11484.3,575.372 11484.4,573.74Z" style="fill-rule:nonzero;"/>
            </g>
            <g transform="matrix(1,0,0,1,-9347.29,-371.84)">
                <path d="M11487,508.63L11479.9,493.1C11479,491.145 11478.5,489.006 11478.5,486.84L11478.5,490.1C11478.5,490.302 11478.5,490.506 11478.6,490.67L11487,509.06C11487.8,510.881 11488.3,512.852 11488.3,514.85C11488.3,512.755 11487.9,510.684 11487,508.77L11487,508.63Z" style="fill-rule:nonzero;"/>
            </g>
            <g transform="matrix(1,0,0,1,-9347.29,-371.84)">
                <path d="M11410.3,666.5L11415.5,658.38L11415.5,658.25L11410.3,666.5L11410.3,666.5Z" style="fill-rule:nonzero;"/>
            </g>
            <path d="M1706.3,174.97L1707.63,174.42L1706.22,174.94L1706.3,174.97Z" style="fill-rule:nonzero;"/>
            <path d="M1652.01,309.05L1651.69,310.05L1651.22,311.19L1651.69,310.19L1652.01,309.05Z" style="fill-rule:nonzero;"/>
            <g transform="matrix(1,0,0,1,-9347.29,-371.84)">
                <path d="M10974.7,471.15C10974.7,463.91 10982.4,458.08 10991.8,458.05L10991.7,458.05C10982.3,458.05 10974.5,463.89 10974.5,471.15C10974.5,478.41 10982.3,484.26 10991.7,484.26L10991.8,484.26C10982.4,484.23 10974.7,478.4 10974.7,471.15Z" style="fill-rule:nonzero;"/>
            </g>
            <g transform="matrix(1,0,0,1,-9347.29,-371.84)">
                <path d="M11376.8,631.45C11377.4,631.482 11378,631.679 11378.5,632.02L11406,650.54L11414.5,656.38L11414.8,656.67L11414.9,656.81C11415.2,656.807 11415.4,656.855 11415.6,656.95L11437.1,665.08L11448.6,669.49L11448.7,669.49C11449.1,669.541 11449.4,669.753 11449.5,670.06L11472.3,706.25L11472.3,706.4C11472.5,706.837 11472.7,707.319 11472.7,707.82L11472.7,708L11479,754.6L11519.8,754.6C11520.8,754.663 11521.7,753.9 11521.8,752.89L11521.8,736.46C11521.8,736.18 11521.8,736.03 11521.6,735.89L11497.5,686.59C11497.3,686.425 11497.3,686.222 11497.3,686.02L11493,607.23L11493,606.94L11492,603.35L11491.8,604.8L11491.6,604.07L11491.5,604.95L11484.2,576.45L11484.2,576L11488.1,515.88L11488.1,514.83C11488.1,512.832 11487.7,510.861 11486.9,509.04L11478.5,490.65C11478.4,490.486 11478.3,490.282 11478.3,490.08L11478.3,476.71C11478.3,476.405 11478.2,476.114 11478,475.86L11453.7,440.52C11451.6,437.422 11448.9,434.716 11445.8,432.52L11410.5,406.87C11407.4,404.71 11404.1,402.984 11400.5,401.74L11371.5,391.63C11364.8,389.319 11357.8,387.93 11350.7,387.5L11335.4,386.5C11321.1,385.642 11306.8,387.335 11293.1,391.5L11274.5,397.2C11273.7,397.474 11272.8,397.616 11272,397.62L11237.9,400.04C11234.6,400.279 11231.3,400.088 11228.1,399.47L11192.6,393.06L11185.6,391.78C11184.8,391.65 11183.5,392.52 11182.5,393.6L11183.3,394.77L11216.3,441.51C11217.1,442.574 11217.5,443.862 11217.6,445.2C11217.6,446.74 11217.2,448.253 11216.3,449.49C11215.9,449.77 11215.6,450.2 11215.3,450.49L11159.6,506.63C11158.5,507.816 11157.2,508.703 11155.6,509.2L11060,544.39L11059.9,544.53L11059.5,544.53L11054.9,546.26L11053.6,546.81L11053.4,546.81L11050.2,547.95C11050.1,548.1 11050.1,548.1 11049.9,548.1C11049.5,548.264 11049.1,548.404 11048.6,548.52C11048.5,548.52 11048.2,548.67 11048,548.67C11047.6,548.67 11046.9,548.81 11046.5,548.81L11044.1,548.81C11043.6,548.67 11043,548.67 11042.5,548.52C11042.2,548.52 11042,548.39 11041.7,548.31C11040.8,548.221 11039.9,548.791 11039.7,549.66L11037.8,560.78C11037.6,561.262 11037.8,561.797 11038.3,562.06C11038.9,562.617 11039.8,562.782 11040.6,562.49L11040.8,562.49C11040.9,562.49 11041.1,562.34 11041.3,562.34L11042.5,562.34C11042.8,562.316 11043.1,562.368 11043.3,562.49L11043.6,562.49C11043.7,562.502 11043.9,562.551 11043.9,562.63C11044.1,562.63 11044.1,562.77 11044.3,562.77C11044.4,562.783 11044.5,562.832 11044.6,562.91C11044.7,562.91 11044.7,563.06 11044.9,563.06C11045.1,563.06 11045.1,563.2 11045.2,563.2L11089.9,605.37L11089.9,618.48L11096,686.16L11100.1,730.33C11100.3,731.279 11101.2,731.947 11102.2,731.9L11137.7,731.9C11138.7,731.947 11139.5,731.279 11139.7,730.33L11142.9,675.33L11142.9,653.68C11142.9,653.428 11142.9,653.171 11143.1,652.96L11163.7,617.63C11163.9,617.49 11163.9,617.34 11164,617.2L11177.3,605.66C11177.9,605.235 11178.6,605.078 11179.4,605.23L11258.6,629.74C11258.7,629.74 11258.9,629.88 11259.2,629.88L11328.2,633.44C11328.5,632.6 11329.2,631.955 11330,631.73C11330.4,631.546 11330.9,631.451 11331.4,631.45L11376.8,631.45Z" style="fill:rgb(153,148,143);fill-rule:nonzero;"/>
            </g>
            <g transform="matrix(1,0,0,1,-9347.29,-371.84)">
                <path d="M11033.4,523.87L11047.6,419.72C11048,417.688 11049.1,415.868 11050.8,414.59L11052.1,413.88L11103.8,374.55C11104.9,373.533 11106.3,372.81 11107.9,372.44C11108,372.148 11108.2,371.925 11108.5,371.84L11078.1,375.4L11020.9,379.11L10980.2,385.81C10980.5,386.66 10975.9,388.94 10974.8,390.94L10939.2,458.76C10939,459.06 10938.9,459.405 10938.9,459.76L10926.4,534.85C10926.3,535.45 10926.2,536.06 10926.1,536.67C10925.8,540.954 10926.2,545.272 10927.5,549.38L10961,655.53C10961.3,656.359 10961.8,657.066 10962.6,657.53L10998.2,680L11004.5,662L10996.9,651.5L10988.1,639.25L10981.8,594.65L10981.5,592.23L10981.1,589.8L10980.5,585.67L10980.2,582.25L10980.1,580.97L10979.3,573.85L10975.9,544.49C10975.8,542.49 10977.5,540.79 10979.9,540.79L10987,540.79C10990.8,540.79 10994.1,538.94 10995.5,535.94L11010.2,505.6C11010.6,504.809 11011.5,504.318 11012.4,504.318C11013,504.318 11013.7,504.574 11014.1,505.03L11033.4,524.4L11033.4,523.83L11033.4,523.87ZM10991.9,484.26L10991.7,484.26C10982.3,484.26 10974.5,478.42 10974.5,471.15C10974.5,463.88 10982.3,458.05 10991.7,458.05L10991.9,458.05C11001.4,458.05 11009.1,463.89 11009.1,471.15C11009.1,478.41 11001.4,484.26 10991.9,484.26Z" style="fill:rgb(153,148,143);fill-rule:nonzero;"/>
            </g>
            <g transform="matrix(1,0,0,1,-9347.29,-371.84)">
                <path d="M11044.1,548.81L11046.5,548.81C11047,548.81 11047.6,548.67 11048.1,548.67C11048.2,548.67 11048.5,548.52 11048.7,548.52C11049.1,548.404 11049.5,548.264 11050,548.1C11050.1,548.1 11050.1,548.1 11050.3,547.95L11053.4,546.81L11053.5,546.81L11054.9,546.29L11059.6,544.56L11059.9,544.56L11060.1,544.42L11155.7,509.23C11157.2,508.733 11158.6,507.846 11159.6,506.66L11215.4,450.52C11215.7,450.24 11216,449.81 11216.3,449.52C11217.2,448.283 11217.7,446.77 11217.6,445.23C11217.6,443.892 11217.1,442.604 11216.3,441.54L11183.3,394.8L11182.5,393.63L11181.1,391.53L11180.5,390.67L11174.8,382.67C11172.8,380.141 11169.9,378.58 11166.7,378.4L11115.7,372.4C11113.3,371.858 11110.9,371.81 11108.5,372.26L11107.8,372.43C11106.3,372.8 11104.9,373.523 11103.7,374.54L11052,413.87L11050.7,414.87C11049,416.125 11047.9,417.956 11047.5,420L11033.3,524.16L11033.3,524.73L11031.6,537.98C11031.1,540.98 11032.9,543.82 11036,545.67L11038.9,547.24C11039.3,547.491 11039.7,547.683 11040.1,547.81C11040.6,548 11041.1,548.17 11041.7,548.31C11042,548.39 11042.2,548.47 11042.5,548.52C11043,548.67 11043.6,548.67 11044.1,548.81Z" style="fill:rgb(96,95,94);fill-rule:nonzero;"/>
            </g>
            <g transform="matrix(1,0,0,1,-9347.29,-371.84)">
                <path d="M11478.4,486.84C11478.4,489.006 11478.9,491.145 11479.9,493.1L11487,508.63L11487,508.77C11487.8,510.684 11488.2,512.755 11488.2,514.85L11488.2,516L11484.5,573.7C11484.3,575.332 11484.5,576.979 11484.9,578.55L11491.7,604.03L11491.9,604.76L11492.1,603.31L11492.2,602.49L11497.6,562.49C11497.7,561.832 11497.7,561.161 11497.7,560.49L11497.7,510.05C11497.7,507.062 11496.8,504.137 11495.2,501.65L11494.7,500.79L11484.1,484.26L11478.5,475.43L11478.5,486.83L11478.4,486.84Z" style="fill:rgb(68,67,65);fill-rule:nonzero;"/>
            </g>
            <g transform="matrix(1,0,0,1,-9347.29,-371.84)">
                <path d="M10997.6,682.17L10997.9,681.17L10998.2,680.03L10962.5,657.51C10961.8,657.046 10961.2,656.339 10961,655.51L10927.5,549.36C10926.2,545.252 10925.8,540.934 10926.1,536.65C10926.2,535.99 10926.3,535.34 10926.4,534.65L10938.9,459.56C10938.9,459.209 10939,458.868 10939.2,458.56L10974.8,390.73C10975.9,388.6 10980.5,386.32 10980.1,385.73C10979.9,385.58 10979.7,385.58 10979.3,385.58L10966.8,385.58C10965.1,385.548 10963.6,386.356 10962.7,387.72L10928.1,448.85C10928,449.27 10927.8,449.56 10927.6,449.99L10913.9,552.15L10928.4,588.48L10929.4,590.76L10948.6,639.35L10953.7,651.89C10954.3,653.438 10955.1,654.916 10956.1,656.3C10958.5,660.126 10961.7,663.384 10965.5,665.85L10977.1,673.55L10992.4,683.55C10993.7,684.361 10995.3,684.568 10996.8,684.12C10996.8,684.12 10997.6,682.17 10997.6,682.17Z" style="fill:rgb(124,121,118);fill-rule:nonzero;"/>
            </g>
            <g transform="matrix(1,0,0,1,-9347.29,-371.84)">
                <path d="M11094.3,735.61C11095.1,733.33 11097.6,731.9 11100.3,731.9L11100.1,730.33L11096,686.16L11089.9,618.48L11089.9,637C11089.9,637.28 11089.7,637.42 11089.6,637.71L11088.5,639.28L11082.1,648.82L11084.2,663.93L11094.3,735.61Z" style="fill:rgb(124,121,118);fill-rule:nonzero;"/>
            </g>
            <path d="M1729.82,284.26L1729.02,285.54L1724.99,291.61L1723.64,293.65L1730.76,282.97L1733.58,278.59L1733.18,279.16L1729.82,284.26Z" style="fill:rgb(96,95,94);fill-rule:nonzero;"/>
            <g transform="matrix(1,0,0,1,-9347.29,-371.84)">
                <path d="M10998.2,680L10997.9,681.14L10997.6,682.14L10996.8,684.14L10995.5,687.14L10995,688.28L10972.8,743.42C10972.5,744.142 10971.9,744.713 10971.2,744.99L10939.2,761.38C10936.9,762.66 10936.9,765.38 10939.4,766.5L10965.9,779.33C10966.5,779.621 10967.2,779.768 10967.9,779.76L11008.6,779.76C11010.9,779.76 11012.6,778.47 11012.6,776.76L11012.6,753.84C11012.6,753.106 11012.9,752.412 11013.5,751.99L11027.1,738.88C11027.4,738.635 11027.6,738.347 11027.8,738.03L11037.7,716.09C11037.7,715.94 11037.9,715.8 11037.9,715.66L11067.9,670.35L11069.1,668.35L11071,665.49L11066,673.06L11072.4,663.45L11077.2,656.1L11079.1,653.1L11080.6,650.99L11082.1,648.68L11081,650.42L11082.1,648.82L11088.4,639.28L11089.5,637.71C11089.7,637.526 11089.8,637.27 11089.8,637L11089.8,618.48L11088.9,607.8L11089.1,608.49L11090,618.34L11090,605.52L11045.3,563.34C11045.2,563.2 11045.2,563.2 11045,563.2C11044.9,563.2 11044.9,563.06 11044.7,563.06C11044.5,563.06 11044.5,562.91 11044.4,562.91C11044.2,562.91 11044.2,562.77 11044.1,562.77C11043.9,562.758 11043.8,562.709 11043.8,562.63L11043.4,562.63C11043.1,562.63 11043,562.49 11042.6,562.49L11041.4,562.49C11041.2,562.49 11041.1,562.63 11040.9,562.63L11040.8,562.63C11040.3,562.775 11039.9,563.017 11039.5,563.34L11039.3,563.2C11039,563.513 11038.7,563.904 11038.5,564.34L11015.5,630.74L11004.8,661.51L11004.6,661.94L11004.6,662.04L10998.4,680.04L10998.2,680ZM10999,681.85L10999.3,680.85L10999,682L10998.5,683L10999,681.85Z" style="fill:rgb(96,95,94);fill-rule:nonzero;"/>
            </g>
            <g transform="matrix(1,0,0,1,-9347.29,-371.84)">
                <path d="M11467.5,754.7L11479.1,754.7L11479.1,754.56L11472.8,707.96L11472.8,707.82C11472.7,707.319 11472.5,706.837 11472.3,706.4L11472.3,706.25L11449.6,670.06C11449.4,669.753 11449.1,669.541 11448.8,669.49L11448.6,669.49L11437.1,665.08L11415.6,656.95C11415.4,656.855 11415.2,656.807 11415,656.81C11415.1,657.016 11415.2,657.237 11415.3,657.47L11415.4,657.67C11415.4,657.749 11415.4,657.829 11415.5,657.91C11415.5,657.96 11415.5,658.01 11415.5,658.06L11415.5,658.37L11410.3,666.49L11410.6,666.49L11410.6,667.05L11409.8,668.19L11409.6,668.46C11409.9,668.734 11410.2,668.893 11410.6,668.9L11435.2,671.9C11438.5,672.206 11441.5,673.922 11443.4,676.6L11463.2,705.38C11463.3,705.542 11463.3,705.747 11463.3,705.95L11466,743.71L11466.2,745.71L11466.9,755.36L11467.4,754.69L11467.5,754.7Z" style="fill:rgb(124,121,118);fill-rule:nonzero;"/>
            </g>
            <g transform="matrix(1,0,0,1,-9347.29,-371.84)">
                <path d="M11410.6,667.07L11410.6,666.51L11410.3,666.51L11415.5,658.26L11415.5,658.08C11415.4,658.03 11415.4,657.98 11415.5,657.93C11415.4,657.849 11415.4,657.769 11415.4,657.69L11415.3,657.49C11415.2,657.257 11415.1,657.036 11415,656.83L11414.9,656.69L11414.5,656.4L11406,650.56L11378.5,632C11378,631.659 11377.4,631.462 11376.8,631.43L11331.3,631.43C11330.9,631.431 11330.4,631.526 11330,631.71C11329.3,631.998 11328.8,632.568 11328.5,633.28C11328.3,634.011 11328.6,634.786 11329.1,635.28L11344.8,651.28C11345,651.492 11345.1,651.731 11345.2,651.99L11353.4,669.66C11353.6,670.055 11353.7,670.509 11353.6,670.94L11339.2,732C11339.3,732.159 11339.2,732.319 11339.1,732.43L11325.7,763.21C11325.5,763.529 11325.3,763.818 11325,764.06L11306.9,779.74C11305.3,781.16 11306.3,783.44 11308.5,783.74L11358.3,789.74L11359.3,789.74L11389.5,784.18C11390.6,784.056 11391.5,783.177 11391.7,782.05L11398.5,686.58C11398.5,686.228 11398.6,685.887 11398.8,685.58L11409.7,668.47L11409.8,668.2L11410.6,667.07Z" style="fill:rgb(96,95,94);fill-rule:nonzero;"/>
            </g>
            <g transform="matrix(1,0,0,1,-9347.29,-371.84)">
                <path d="M11529.9,785.05L11526.6,758.4C11526.1,756.263 11524.2,754.749 11522,754.84L11478.9,754.84L11478.9,754.7L11467.4,754.7L11466.9,755.37L11466.8,755.55L11460.9,764.39L11458.4,768.23L11452.2,777.35C11452.2,777.5 11452.1,777.5 11452.1,777.64L11448.6,783.64C11447.2,786.21 11449.4,789.34 11452.9,789.34L11525.3,789.34C11528.1,789.32 11530.2,787.33 11529.9,785.05Z" style="fill:rgb(96,95,94);fill-rule:nonzero;"/>
            </g>
            <g transform="matrix(1,0,0,1,-9347.29,-371.84)">
                <path d="M11150.6,764.67C11150.6,764.67 11139.3,757.26 11139.3,757.26C11137.5,756.257 11136.6,754.252 11136.9,752.26L11140.5,731.88L11100.6,731.88C11097.6,731.88 11095.1,733.45 11094.3,735.59L11086.4,756.39C11085.9,757.664 11085,758.694 11083.7,759.24L11063.5,769.78C11061.8,770.615 11060.6,772.38 11060.5,774.34L11060.5,776.48C11060.5,779.33 11063.2,781.75 11066.7,781.89L11146.5,784.46C11150.2,784.6 11153.2,782.18 11153.2,779.04L11153.2,769C11153.1,767.218 11152.2,765.575 11150.6,764.67Z" style="fill:rgb(96,95,94);fill-rule:nonzero;"/>
            </g>
            <g transform="matrix(1,0,0,1,-9347.29,-371.84)">
                <path d="M10991.9,458.05L10991.8,458.05C10982.4,458.05 10974.7,463.91 10974.7,471.15C10974.7,478.39 10982.4,484.23 10991.8,484.26L10991.9,484.26C11001.4,484.26 11009.1,478.42 11009.1,471.15C11009.1,463.88 11001.4,458.05 10991.9,458.05Z" style="fill:rgb(96,95,94);fill-rule:nonzero;"/>
            </g>
            <g transform="matrix(1,0,0,1,-9347.29,-371.84)">
                <path d="M10901.9,679.89L10901.9,674.48" style="fill:none;fill-rule:nonzero;"/>
            </g>
        </g>
    </g>
</svg>
