<svg id="Giraffe" xmlns="http://www.w3.org/2000/svg" viewBox="0 0 212 525"><defs><style>.cls-1{fill:none;}.cls-2{fill:#d88139;}.cls-3{fill:#e8a15b;}.cls-4{fill:#e2831b;}.cls-5{fill:#a06224;}.cls-6{fill:#020202;}</style></defs><path class="cls-1" d="M9419.26,286.83l0,.74A1.54,1.54,0,0,0,9419.26,286.83Z" transform="translate(-9361 -86)"/><path class="cls-2" d="M9421.36,400.49a13,13,0,0,1-6.14-1.54,5.73,5.73,0,0,0,0,3.33h0a5.87,5.87,0,0,1,.21,2.28l-20.83,185a5.32,5.32,0,0,1-.14.78l-2.25,8.77a5.86,5.86,0,0,0,5.8,7.24h7.9a5.92,5.92,0,0,0,5.94-5.3l16.53-177.5-4.61-23.05Z" transform="translate(-9361 -86)"/><path class="cls-2" d="M9518.57,400.49h-14.88a6.11,6.11,0,0,0,0,2.72L9520.37,472a6.45,6.45,0,0,1,.16,1.91L9516.45,535a6.37,6.37,0,0,1-.34,1.66l-19.69,56.87c-1.55,4.47,2.14,9,7.31,9h10.18a7.46,7.46,0,0,0,7.59-6l11.62-77.39a5.86,5.86,0,0,0,.07-.94V439.72l-14.5-38.79C9518.64,400.78,9518.62,400.64,9518.57,400.49Z" transform="translate(-9361 -86)"/><path class="cls-3" d="M9573,504.93a8.57,8.57,0,0,0-.29-3l-24.41-86.78a8.62,8.62,0,0,1-.31-2.72l.92-19.16,9.93-23.18a10.09,10.09,0,0,0,.05-7.87l-9.29-22.5a11.54,11.54,0,0,0-5.94-6l-25.13-11.4-56.36-24.7a11.44,11.44,0,0,1-6.2-6.31l-14.53-37.91a10.22,10.22,0,0,1-.67-3.31l-4.09-128.19c0-.31-.07-.62-.11-.93,11.72-.61,20.38-4.3,23.16-10.22.22-.49,2.39-5.25,0-7.63-3.54-3.5-14.88.35-27.27,6.18a11.45,11.45,0,0,0-3.87-4.14l5.56-12.61a4.46,4.46,0,0,0,.38-1.79h0a5.06,5.06,0,0,0-5.29-4.79H9423a5.05,5.05,0,0,0-5.28,4.79v12.36h-7l-1.22-14.43a3.14,3.14,0,0,0-3.24-2.72h-1.6a3.05,3.05,0,0,0-3.21,3.4l2.39,14.12a12.46,12.46,0,0,0-4,1.63l-33.67,21.39a10.78,10.78,0,0,0-5.19,9h0c0,5.47,4.4,10.11,10.35,10.92l17.65,2.4h20.88a5.63,5.63,0,0,1,5.86,5.19l3.35,126.34.17,6.4a1.54,1.54,0,0,1,0,.74l.5,18.76a5.14,5.14,0,0,1-.2,1.51l-15.42,51.76c-1.11,3.75-5.63,4.82-8.69,3.18a10.33,10.33,0,0,0,1,3.35L9410.27,394a11.46,11.46,0,0,0,4.95,5,13,13,0,0,0,6.14,1.54h2.45l4.61,23.05,6,30.16a1.17,1.17,0,0,1,0,.32V585.16a1.52,1.52,0,0,1-.06.42c-.62,2.26-6.24,22.77-6.24,24.57,0,1.58,17.26.55,23.21.14a1.83,1.83,0,0,0,1.8-1.95l-6.1-59a1.22,1.22,0,0,1,0-.27l9.51-148.54h61.95c.05.15.07.29.12.44l14.5,38.79,22.56,60.33a8.6,8.6,0,0,1,.54,3v69.48a8.57,8.57,0,0,1-.45,2.75L9552,586.63c-2,6,2.91,12.09,9.84,12.09,6,0,10.79-4.72,10.24-10.19l-3.1-31a8.46,8.46,0,0,1,0-1.51Zm-173.27-379a3.13,3.13,0,1,1,2.8-3.11A3,3,0,0,1,9399.7,125.9Zm37,84.65,0,1.51-1.16.77-1.18-.73,0-1.5,1.16-.78Zm-2.8-22.61-1.51-.19-.61-1.56.92-1.36,1.51.2.61,1.55Zm19.45-81c1.23,1.14.07,3.65,0,3.81-2.92,6.1-18.2,5.92-18.9,3.81C9433.71,112.22,9450.24,104,9453.4,107Zm-17.85,55.77.39,1.64-1.07,1.19-1.47-.44-.4-1.63,1.08-1.19Zm-5.94-21,2.29-1.16,2.05,1.62-.23,2.78-2.29,1.17-2.05-1.62Zm-.12,34.21,1.58.38.49,1.71-1.09,1.33-1.57-.39-.49-1.71Zm-3.12-48.43,1.09-.34.81.88-.28,1.21-1.09.35-.81-.88Zm-.09,28.2-.43-1.44.9-1.13,1.33.31.43,1.43-.9,1.13Zm1.6,109.48,1.07-1.3,1.54.38L9431,266l-1.06,1.29-1.54-.37Zm3.17,65.93-1.58.36-1.06-1.34.51-1.7,1.58-.35,1.06,1.34Zm.23-108-.72-1L9431,221l1.1-.21.72,1-.39,1.17Zm2.25,83.42-.41,0-.18-.41.23-.38.41,0,.18.41Zm.19-68.35-.69,0-.37-.65.32-.69.69,0,.37.65Zm.38-39.9-.88.4-.75-.65.13-1,.88-.4.75.65Zm1.71,87-.37.05-.22-.35.15-.38.38,0,.22.34Zm-.18-29.88-1.29-.78,0-1.64,1.26-.85,1.29.79,0,1.63Zm3.37,97.22-1,.1-.6-1,.44-1.06,1-.11.61,1Zm.78-80.05-.69-.11-.26-.72.43-.61.69.1.26.72Zm6.73,22.31-2.32-.44-.83-2.45,1.5-2,2.33.43.82,2.46Zm1.53-14-1.53-.13-.67-1.54.86-1.41,1.53.13.67,1.54Zm2.29,25.05-.87-.37-.16-1,.72-.66.87.36.16,1Zm5.35,39.26-1.78.16-1-1.63.77-1.79,1.77-.16,1,1.63Zm0-16.34-1.88-.63-.46-2.12,1.43-1.5,1.88.63.45,2.12Zm9.26-13.59-3.1-1-.74-3.51,2.36-2.46,3.09,1,.74,3.5Zm5.63,34.82-1.29-.57-.21-1.53,1.09-1,1.29.57.21,1.53Zm5.92-20.38-1.68,1-1.63-1.1,0-2.12,1.67-1,1.64,1.1Zm11.83,23.56-1.52-.24-.58-1.6,1-1.34,1.53.24.57,1.59Zm5-33.22h-2.12l-1-2,1.07-2,2.11,0,1.05,2Zm6.3,15-1.14-.66-.06-1.42,1.08-.76,1.13.65.07,1.42Zm10.14-7.79.41-1.77,1.57-.49,1.17,1.28-.4,1.76-1.58.49Zm1.65,32.32-.34-.12L9511,359l.26-.27.34.12.07.39Zm2.72-15.41-2,.16-1.11-1.82.86-2,2-.16,1.11,1.82Zm9.41-11.34,1-.27.7.79-.26,1.07-1,.28-.7-.8Zm5.67,19.83-4-.48-1.61-4.08,2.37-3.58,4,.48,1.61,4.08Zm8.78-12.1-.69-.06-.3-.7.4-.64.7.06.29.71Zm7.07,18.47-.88-.47-.07-1.09.81-.62.88.48.07,1.09Z" transform="translate(-9361 -86)"/><path class="cls-2" d="M9404.16,359.6l15.42-51.76a5.14,5.14,0,0,0,.2-1.51l-.5-18.76,0-.74-.17-6.4-3.35-126.34a5.63,5.63,0,0,0-5.86-5.19H9388.3l14.7,11.43V300.94a5.12,5.12,0,0,1-.08.87l-10.2,55.53a4.89,4.89,0,0,0,.17,2.4,5.27,5.27,0,0,0,2.58,3C9398.53,364.42,9403.05,363.35,9404.16,359.6Z" transform="translate(-9361 -86)"/><path class="cls-4" d="M9453.4,110.78c.07-.16,1.23-2.67,0-3.81-3.16-2.93-19.69,5.25-18.9,7.62C9435.2,116.7,9450.48,116.88,9453.4,110.78Z" transform="translate(-9361 -86)"/><polygon class="cls-5" points="102.46 222.21 100.1 224.67 100.84 228.18 103.94 229.22 106.29 226.75 105.55 223.25 102.46 222.21"/><polygon class="cls-5" points="130.19 229.91 129.12 231.94 130.17 233.98 132.29 233.99 133.35 231.96 132.31 229.91 130.19 229.91"/><polygon class="cls-5" points="151.88 240.19 150.72 238.91 149.14 239.4 148.73 241.17 149.9 242.44 151.48 241.95 151.88 240.19"/><polygon class="cls-5" points="112.22 241.45 112.18 243.57 113.81 244.67 115.49 243.65 115.53 241.52 113.89 240.42 112.22 241.45"/><polygon class="cls-5" points="138.47 246.12 137.39 246.88 137.45 248.3 138.59 248.96 139.66 248.19 139.6 246.77 138.47 246.12"/><polygon class="cls-5" points="176.37 253.07 175.97 253.71 176.27 254.41 176.97 254.47 177.36 253.84 177.06 253.13 176.37 253.07"/><polygon class="cls-5" points="150.88 254.45 150.02 256.43 151.13 258.24 153.1 258.08 153.96 256.11 152.85 254.29 150.88 254.45"/><polygon class="cls-5" points="163.91 248.33 164.17 247.26 163.47 246.47 162.51 246.74 162.24 247.81 162.94 248.61 163.91 248.33"/><polygon class="cls-5" points="164.96 258.43 162.59 262.01 164.2 266.09 168.18 266.57 170.55 262.99 168.94 258.91 164.96 258.43"/><polygon class="cls-5" points="183.89 270.76 183.07 271.38 183.15 272.47 184.03 272.94 184.84 272.33 184.77 271.24 183.89 270.76"/><polygon class="cls-5" points="126.18 264.03 125.22 265.37 125.8 266.96 127.32 267.21 128.28 265.86 127.7 264.27 126.18 264.03"/><polygon class="cls-5" points="150.23 272.71 149.97 272.98 150.04 273.37 150.38 273.49 150.65 273.22 150.57 272.83 150.23 272.71"/><polygon class="cls-5" points="92.65 255.88 91.88 257.67 92.9 259.3 94.68 259.14 95.44 257.35 94.42 255.72 92.65 255.88"/><polygon class="cls-5" points="93.77 238.55 92.34 240.05 92.8 242.18 94.68 242.8 96.1 241.3 95.65 239.18 93.77 238.55"/><polygon class="cls-5" points="109.16 260.97 108.07 261.93 108.28 263.46 109.57 264.03 110.66 263.07 110.45 261.54 109.16 260.97"/><polygon class="cls-5" points="67.92 242.46 67.41 244.15 68.47 245.49 70.05 245.13 70.56 243.44 69.5 242.1 67.92 242.46"/><polygon class="cls-5" points="72.17 219.69 71.94 220.07 72.12 220.48 72.53 220.51 72.76 220.13 72.58 219.72 72.17 219.69"/><polygon class="cls-5" points="89.02 217.83 88.3 218.49 88.46 219.51 89.33 219.88 90.05 219.22 89.89 218.19 89.02 217.83"/><polygon class="cls-5" points="76.79 264.66 76.35 265.72 76.95 266.68 78 266.58 78.45 265.51 77.84 264.55 76.79 264.66"/><polygon class="cls-5" points="67.9 92.98 69.47 93.37 70.56 92.04 70.07 90.33 68.49 89.94 67.41 91.27 67.9 92.98"/><polygon class="cls-5" points="71.6 110.96 71.47 112.01 72.22 112.66 73.1 112.26 73.23 111.21 72.48 110.56 71.6 110.96"/><polygon class="cls-5" points="71.75 98.83 70.83 100.19 71.44 101.75 72.95 101.94 73.86 100.58 73.26 99.03 71.75 98.83"/><polygon class="cls-5" points="71.05 134.76 69.95 134.97 69.56 136.14 70.28 137.09 71.38 136.88 71.77 135.72 71.05 134.76"/><polygon class="cls-5" points="71.98 150.86 71.66 151.54 72.03 152.19 72.72 152.16 73.04 151.48 72.67 150.83 71.98 150.86"/><polygon class="cls-5" points="74.56 166.09 73.3 166.94 73.34 168.58 74.63 169.36 75.88 168.51 75.85 166.88 74.56 166.09"/><polygon class="cls-5" points="73.41 124.6 73.43 126.1 74.61 126.83 75.77 126.06 75.75 124.55 74.57 123.82 73.41 124.6"/><polygon class="cls-5" points="78.26 185.09 77.83 185.7 78.09 186.42 78.78 186.53 79.21 185.91 78.95 185.19 78.26 185.09"/><polygon class="cls-5" points="69.97 179.95 69.49 178.28 67.94 177.9 66.88 179.2 67.36 180.87 68.9 181.24 69.97 179.95"/><polygon class="cls-5" points="85.7 191.75 84.84 193.16 85.51 194.7 87.04 194.83 87.9 193.42 87.23 191.88 85.7 191.75"/><polygon class="cls-5" points="74.37 198.56 74.22 198.94 74.44 199.29 74.81 199.24 74.97 198.86 74.75 198.52 74.37 198.56"/><polygon class="cls-5" points="83.86 203.93 82.36 205.95 83.19 208.4 85.51 208.84 87.01 206.82 86.19 204.36 83.86 203.93"/><polygon class="cls-5" points="66.99 43.27 67.27 42.06 66.46 41.18 65.37 41.52 65.09 42.74 65.9 43.62 66.99 43.27"/><polygon class="cls-5" points="72.72 58.98 72.95 56.2 70.9 54.58 68.61 55.74 68.38 58.53 70.43 60.15 72.72 58.98"/><polygon class="cls-5" points="67.08 67.46 65.75 67.15 64.85 68.28 65.28 69.72 66.61 70.02 67.51 68.89 67.08 67.46"/><polygon class="cls-5" points="72.4 79.13 73.86 79.57 74.94 78.38 74.55 76.74 73.08 76.31 72 77.5 72.4 79.13"/><path class="cls-6" d="M9399.7,119.67a3.13,3.13,0,1,0,2.8,3.12A3,3,0,0,0,9399.7,119.67Z" transform="translate(-9361 -86)"/></svg>