<?xml version="1.0" encoding="utf-8"?>
<!-- Generator: Adobe Illustrator 24.1.2, SVG Export Plug-In . SVG Version: 6.00 Build 0)  -->
<svg version="1.1" id="kamel" xmlns="http://www.w3.org/2000/svg" xmlns:xlink="http://www.w3.org/1999/xlink" x="0px" y="0px"
	 viewBox="0 0 364.5 264" style="enable-background:new 0 0 364.5 264;" xml:space="preserve">
<style type="text/css">
	.st0{fill:#87461A;}
	.st1{fill:none;}
	.st2{fill:#B5662A;}
	.st3{fill:#E0C8A9;}
</style>
<path class="st0" d="M270.5,110l10.2-1.8c2.6-0.4,4.9-1.8,6.5-3.9l21.6-28.1c0.6-0.8,1.2-1.8,1.5-2.7l5.5-14l-0.5,0.1l-0.7,0.1
	l-14.4,2.4c-2.8,0.5-5.3,1.8-7.2,3.9l-21.8,24.5c-0.7,0.8-1.1,1.9-1.1,3v1.6v1.7l0.3,11.9L270.5,110z"/>
<g>
	<path class="st1" d="M213.2,153.8l0.1,0L213.2,153.8c-0.1-0.3-0.2-0.5-0.4-0.7l-9.2-10.4l9.1,10.4
		C212.9,153.3,213.1,153.6,213.2,153.8z"/>
	<path class="st2" d="M334.1,105.6l-8-0.5c-0.9,0-1.8-0.5-2.3-1.3l-12.6-19.5c-0.8-1.2-0.5-2.8,0.5-3.7l17.9-15.6
		c0.1-0.1,0.1-0.1,0.2-0.2l1.6-1.4c0.5-0.4,0.6-1.1,0.4-1.7l-1.4-3.5c0-0.1-0.1-0.1-0.1-0.2l-2.6-4.4c-0.3-0.5-0.8-0.7-1.3-0.8h-7.2
		c-0.6,0-1.2,0.4-1.4,0.9l-1.9,4.6c-0.1,0.2-0.2,0.4-0.4,0.6l-0.9,0.8l0.7-0.1l0.5-0.1l-5.5,14c-0.4,1-0.9,1.9-1.5,2.7l-21.6,28.1
		c-1.6,2.1-3.9,3.5-6.5,3.9l-10.2,1.8v-1.3l-0.3-11.9c-0.7-0.1-1.3,0.3-1.5,0.9c-0.3,0.8-1.2,1.1-2,0.8c-0.1-0.1-0.2-0.1-0.3-0.2
		l-9.2-7.2c-0.1-0.1-0.2-0.2-0.3-0.3l-42.8-60c-0.2-0.2-0.3-0.5-0.3-0.8l-0.9-16.5c-0.2-3.8-2.3-7.2-5.5-9.2L203,1.6
		c-0.2-0.1-0.4-0.2-0.7-0.2c0.2,0.6,0.2,1.3-0.1,1.8L178.6,43c-0.4,0.7-1.2,1.1-2,1.1h-3.8c-1.1,0-2-0.7-2.2-1.8h-3.4h-0.3l-15,2.5
		c-0.4,0.1-0.9-0.1-1.2-0.4l-15.4-13.6c-0.3-0.3-0.5-0.7-0.5-1.1v-9.3c0-0.4-0.1-0.7-0.4-1l-4.6-5c-1.9-2.1-4.3-3.6-7-4.5l-4.2-1.5
		c-0.3-0.1-0.6-0.1-0.9,0l0,0l-0.3,0.5L92.3,54h-3.1c-0.8,0-1.5-0.5-1.7-1.2c0,0,0,0,0,0h-0.1c-0.4,0-0.7,0.2-1,0.4L68.9,69.6
		c-0.2,0.2-0.4,0.3-0.6,0.4l-13.7,3.7c-0.3,0.1-0.6,0.3-0.8,0.6L37.6,97.5l-0.1,0.1l-4.2,5.1c-0.4,0.4-0.5,1.1-0.2,1.6l1.8,3.8
		c0.3,0.8,1.2,1.1,2,0.7c0.2-0.1,0.3-0.2,0.4-0.3l9.2-9c0.6-0.6,1.5-0.6,2.1,0c0.2,0.2,0.3,0.5,0.4,0.8l2.1,10.8l0.2-1l0,0l0-0.1
		l0.6,1.5l0.1-0.5l0.3,1.3c0,0.1,0,0.2,0.1,0.3l1.1,2.7l7.3,17.2c0.1,0.3,0.2,0.7,0.3,1l3.6,23.6c0,0.3,0,0.7,0,1l0.4,2.9
		c0,0.1-0.1,0.1-0.2,0.2l2.6,1.6c0.5,0.3,0.8,0.9,0.7,1.5L63,197.8c-0.3,2,0.3,4,1.6,5.4l7.4,8c0.1,0.1,0.2,0.2,0.3,0.4l23.3,49.8
		c0.2,0.4,0.6,0.7,1,0.8l6.4,1.7c0.1,0,0.3,0,0.4,0h14.7c0.8,0,1.5-0.7,1.5-1.5c0-0.2,0-0.3-0.1-0.5l-2.1-5.8
		c-0.2-0.5-0.5-0.8-1-0.9l-13.1-3.6c-0.4-0.1-0.8-0.4-1-0.8c-1.9-4.1-12.2-26.7-15.5-29.6s-5.2-24.6-5.4-27.9c0-0.3,0-0.5,0.1-0.8
		l2.9-5.7c0.4-0.8,0.6-1.6,0.6-2.5l0.6-21.2c0-0.4,0.1-0.7,0.4-1l6.5-7.1c0.7-0.7,1.1-1.6,1.4-2.5l3.3-12.4c0.3-1.3,0.2-2.7-0.3-3.9
		l-3-7c-0.3-0.8,0-1.6,0.8-2c0.5-0.2,1-0.2,1.5,0.1l3.9,2.8l-3.8-3.6l-0.3-0.3l-0.1-0.4l-1-3.1l-3-9.4l-0.1-0.2v-0.2V83.7l0,0.1
		l0.1,0.4v-0.4L93.9,95l6.8,35.3c0.1,0.4,0.3,0.7,0.6,0.9l7.8,5.6c0.1,0.1,0.3,0.2,0.4,0.3l9,12.5c1.1,1.6,2.8,2.8,4.7,3.3l11.4,3.1
		c0.1,0,0.3,0.1,0.4,0.1h9l21.1,2.6h0.1l8.6,0.2h0.1c0,0,0,0,0,0c0.6-1,1.3-1.8,2.1-2.6l0.3-0.6c-0.1-0.3,0-0.7,0.1-1h-0.1l0.1-0.1
		h0.1c0.1-0.2,0.2-0.3,0.4-0.4c0.4-1,0.3-2.1-0.1-3.1l-1-2c-0.2-0.3-0.3-0.7-0.3-1.1c-0.3-2.2,1.2-4.2,3.3-4.6l20.4-2.9
		c1.3-0.2,2.6,0.3,3.5,1.3l0.8,0.9l9.2,10.4c0.2,0.2,0.3,0.4,0.5,0.7l0.1,0l0.2,0c0,0,0,0.1,0,0.1l0,0c0.1,0.3,0.1,0.5,0.1,0.8h0.1
		l5.4,8.5l0.1,0.1l4.5,8.6c0.2,0.4,0.5,0.6,0.9,0.8l3.9,1c0.2,0.1,0.5,0.1,0.7,0l7.2-1.6c0.8-0.2,1.6,0.3,1.8,1.2c0,0,0,0,0,0.1
		l3.4,20c0,0.1,0,0.2,0.1,0.3l6,14.3l12.1,30.8c0,0.1,0.1,0.2,0.1,0.3l2.8,13.8c0.1,0.7,0.8,1.2,1.5,1.2h14.3c0.8,0,1.5-0.7,1.5-1.5
		v-2.9c0-0.8-0.7-1.5-1.5-1.5H273c-0.8,0-1.5-0.7-1.5-1.5v-1.4c0-0.3-0.1-0.6-0.2-0.8l-3.3-5.3c-0.1-0.1-0.2-0.3-0.2-0.5l-7.1-32.9
		c-0.1-0.3-0.1-0.5,0-0.8l2.9-9c0.4-1.2,0.5-2.4,0.3-3.6l-1.4-10.1c-0.1-0.8-0.4-1.5-0.8-2.2l-8.9-14.4c-0.1-0.2-0.2-0.5-0.2-0.8
		v-0.1c0-0.8,0.7-1.5,1.5-1.5c0.2,0,0.4,0,0.5,0.1l3.6,1.2c1.5,0.5,3.2,0.7,4.8,0.5l21.8-2.8c1.2-0.2,2.4-0.5,3.5-1.1l14.9-7.8
		c1.5-0.8,2.8-1.9,3.8-3.3l10-13.5c0.4-0.6,0.7-1.2,1-1.8l8-18c0.1-0.1,0.1-0.2,0.2-0.3l7.6-9.4C334.2,106.6,334.3,106,334.1,105.6z
		"/>
	<path class="st0" d="M64.8,158.2c0-0.3,0-0.7,0-1l-3.6-23.6c-0.1-0.3-0.1-0.7-0.3-1l-7.3-17.2l-1.1-2.7c0-0.1-0.1-0.2-0.1-0.3
		l-0.3-1.3l-0.1,0.5l-0.6-1.5l0,0.1l-0.2,0.9l0.3,1.3c0,0.1,0,0.2,0.1,0.3l0.2,0.5l-5.8,26.4c-0.1,0.5-0.3,1-0.6,1.4l-13.2,20.9
		c-0.3,0.4-0.4,0.9-0.6,1.4l-2,8.8c-0.2,0.8-0.6,1.6-1.2,2.2l-11.1,10.6c-0.8,0.8-1.3,1.9-1.3,3.1v17c0,0.5-0.1,0.9-0.2,1.3
		L2.7,245.9c-0.1,0.4-0.2,0.9-0.2,1.3v3.8c0,0.6-0.1,1.1-0.3,1.6l-1.9,4.9c-0.9,2.2,0.2,4.7,2.4,5.6c0.3,0.1,0.6,0.2,0.9,0.3
		l3.8,0.5c2.3,0.3,4.5-1.4,4.7-3.7c0.1-1.1-0.2-2.3-0.9-3.2c-0.9-1.1-1.1-2.6-0.7-3.9l12-41c0.1-0.4,0.3-0.8,0.5-1.1l7.9-12.5
		c0.2-0.3,0.3-0.6,0.4-1l1.9-5.7c0.2-0.8,0.7-1.5,1.3-2l10.3-8.6c0.6-0.5,1-1.1,1.3-1.8l3.8-10.4c0.4-1.2,1.4-2.2,2.6-2.6l10.5-3.6
		c0.9-0.3,1.6-0.9,2.1-1.6c0-0.1,0.1-0.1,0.2-0.2L64.8,158.2z"/>
	<path class="st0" d="M213.3,153.8l-0.1,0c-0.1-0.2-0.3-0.5-0.5-0.7l-9.1-10.4l-0.8-0.9c-0.9-1-2.2-1.5-3.5-1.3l-20.4,2.9
		c-2.2,0.3-3.7,2.4-3.3,4.6c0.1,0.4,0.2,0.8,0.3,1.1l1,2c0.5,1,0.5,2.1,0.1,3.1c-0.2,0.1-0.3,0.2-0.4,0.4h-0.1l-0.1,0.1h0.1
		c-0.2,0.3-0.2,0.7-0.1,1l-0.3,0.6c-0.8,0.8-1.5,1.6-2.1,2.6c0,0,0,0,0,0c-0.3,0.6-0.5,1.3-0.5,2.1c-0.1,1.5,0.6,3,1.9,3.9l3.3,6.5
		c0.6,1.1,0.6,2.5,0,3.6l-6.4,12.9c-0.4,0.8-0.5,1.8-0.3,2.7l3.2,14c0.1,0.3,0.1,0.7,0.1,1l-0.6,26c0,0.4-0.1,0.8-0.2,1.2l-2.4,6.8
		c-0.3,0.8-0.3,1.7-0.1,2.5l1.4,4.7l2.8,10.3c0.5,1.7,2,2.9,3.8,2.9h11.1c2.2,0,4-1.9,3.9-4.1c0-1-0.4-1.9-1-2.6
		c-0.7-0.8-1.8-1.3-2.9-1.3h-1.8c-1.3,0-2.4-0.6-3.2-1.6l-2.9-4c-0.5-0.7-0.8-1.5-0.8-2.4v-3.2c0-0.1,0-0.2,0-0.3L185,207
		c0-0.5,0.1-0.9,0.4-1.4l3.9-8.4c0.1-0.1,0.1-0.3,0.2-0.5l4.4-13.9c0.2-0.7,0.7-1.3,1.2-1.8l4.2-3.5c0.3-0.2,0.5-0.5,0.7-0.8
		l13.2-19.5c0.5-0.7,0.7-1.6,0.7-2.5c0-0.2-0.1-0.5-0.1-0.7c0,0,0-0.1,0-0.1L213.3,153.8z"/>
	<path class="st0" d="M89.2,54h3.1l25.1-45.1l0.3-0.5l0,0l0.1-0.2l-1.3,0.4l-1.6,0.5l-2.5,0.7c-0.8,0.2-1.6,0.8-2,1.6L87.7,51.5
		c-0.2,0.4-0.3,0.8-0.2,1.3c0,0,0,0,0,0C87.7,53.5,88.4,54,89.2,54z"/>
	<path class="st0" d="M172.7,44h3.8c0.8,0,1.6-0.4,2-1.1l23.6-39.7c0.3-0.5,0.4-1.2,0.1-1.8c-0.5-1.1-1.8-1.6-2.9-1.2
		c-0.5,0.2-0.9,0.5-1.1,0.8l-27.4,39.7c-0.3,0.4-0.4,1-0.3,1.5C170.7,43.3,171.7,44,172.7,44z"/>
	<polygon class="st0" points="91.7,83.7 91.7,113.1 91.7,113.3 91.8,113.5 94.8,123 95.8,126.1 95.9,126.5 96.2,126.7 100.1,130.4 
		100.3,130.6 100.8,131.1 100.8,130.9 100.7,130.3 93.9,95 91.8,84.2 91.7,83.8 	"/>
</g>
<path class="st3" d="M362.5,99.4l-3.1-2c-1.4-0.8-1.8-2.6-0.9-4c0.4-0.7,1.1-1.2,1.9-1.3l1.7-0.4c1.6-0.3,2.6-1.8,2.3-3.4
	c-0.1-0.3-0.2-0.7-0.4-1l-6.8-10.9c-0.4-0.7-1.1-1.2-1.9-1.3l-16.1-3.5c-0.8-0.2-1.4-0.6-1.9-1.3l-3.2-4.9c-0.9-1.4-2.8-1.8-4.2-0.9
	c0,0-0.1,0.1-0.1,0.1c-0.1,0-0.2,0.1-0.2,0.2l-17.9,15.6c-1.1,0.9-1.3,2.5-0.5,3.7l12.5,19.6c0.5,0.8,1.4,1.3,2.4,1.4l8,0.5
	l23.3,1.4c0.7,0,1.4-0.1,1.9-0.5l3.3-2.3c1.3-0.9,1.7-2.7,0.8-4C363.2,99.9,362.9,99.6,362.5,99.4z M334.5,82c-1.7,0-3-1.3-3-3
	s1.3-3,3-3s3,1.3,3,3S336.1,82,334.5,82z"/>
<circle class="st0" cx="334.5" cy="79" r="3"/>
</svg>
