<?xml version="1.0" encoding="UTF-8" standalone="no"?>
<!DOCTYPE svg PUBLIC "-//W3C//DTD SVG 1.1//EN" "http://www.w3.org/Graphics/SVG/1.1/DTD/svg11.dtd">
<svg width="100%" height="100%" viewBox="0 0 510 302" version="1.1" xmlns="http://www.w3.org/2000/svg" xmlns:xlink="http://www.w3.org/1999/xlink" xml:space="preserve" xmlns:serif="http://www.serif.com/" style="fill-rule:evenodd;clip-rule:evenodd;stroke-linejoin:round;stroke-miterlimit:2;">
    <g id="Ebene_43_Kopie_3" transform="matrix(1,0,0,1,28,30)">
        <g id="Ebene_1">
            <path d="M127.04,251.32L127.67,250.75L127.04,251.04L127.04,251.32Z" style="fill:rgb(125,163,5);fill-rule:nonzero;"/>
            <g transform="matrix(1,0,0,1,-8184.99,-586.73)">
                <path d="M8526.34,825.94L8513.56,826.23L8524.56,826.23C8525.24,826.08 8525.87,826.08 8526.34,825.94Z" style="fill:rgb(234,154,76);fill-rule:nonzero;"/>
            </g>
            <g transform="matrix(1,0,0,1,-8184.99,-586.73)">
                <path d="M8512,825.94C8512.24,826.068 8512.52,826.117 8512.79,826.08C8512.52,826.103 8512.25,826.055 8512,825.94Z" style="fill:rgb(234,154,76);fill-rule:nonzero;"/>
            </g>
            <path d="M149.61,116.23L149.61,116.25L151.5,118.1L149.61,116.25L149.61,116.23Z" style="fill-rule:nonzero;"/>
            <path d="M176.28,89.74L175.01,91.45L172.9,91.18L172.96,91.31L175.17,91.6L176.44,89.89L175.49,87.89L176.28,89.74Z" style="fill-rule:nonzero;"/>
            <path d="M150.55,160.56L151.41,159.28L151.18,159.28L150.4,160.7L151.03,161.56L151.34,161.98L151.5,161.98L151.19,161.56L150.55,160.56Z" style="fill-rule:nonzero;"/>
            <path d="M153.55,143.03L153.39,143.03L151.34,142.89L150.47,144.17L151.34,143.03L153.39,143.18L153.55,143.18L154.46,145.09L154.5,145.03L153.55,143.03Z" style="fill-rule:nonzero;"/>
            <path d="M166.97,69.94L166.02,71.22L167.11,69.95L166.97,69.94Z" style="fill-rule:nonzero;"/>
            <path d="M166.02,71.22L166.65,72.65L168.39,72.79L166.81,72.65L166.02,71.22Z" style="fill-rule:nonzero;"/>
            <path d="M168.71,70.09L168.7,70.08L168.68,70.08L168.7,70.08L168.71,70.09Z" style="fill-rule:nonzero;"/>
            <path d="M149.61,95.16L147.55,96.16L149.67,95.2L149.61,95.16Z" style="fill-rule:nonzero;"/>
            <path d="M155.48,80.8L156.23,81.62L155.76,80.77L155.48,80.8Z" style="fill-rule:nonzero;"/>
            <path d="M154.64,82.74L154.66,82.76L155.76,82.62L156.23,81.62L155.6,82.62L154.64,82.74Z" style="fill-rule:nonzero;"/>
            <path d="M147.4,98.15L147.55,98.26L147.55,96.16L147.4,98.15Z" style="fill-rule:nonzero;"/>
            <path d="M140.77,52.41L139.82,50.56L140.73,52.47L140.77,52.41Z" style="fill-rule:nonzero;"/>
            <path d="M135.72,93.16L134.46,93.31L135.72,93.16L136.35,92.02L135.56,91.03L136.19,92.02L135.72,93.16Z" style="fill-rule:nonzero;"/>
            <path d="M135.25,43.15L137.3,42.73L137.93,40.73L137.89,40.69L137.3,42.58L135.25,43.01L133.86,41.48L133.82,41.59L135.25,43.15Z" style="fill-rule:nonzero;"/>
            <path d="M133.71,92.23L133.67,92.31L134.46,93.31L133.71,92.23Z" style="fill-rule:nonzero;"/>
            <path d="M145.98,70.37L145.66,70.22L145.98,70.37Z" style="fill-rule:nonzero;"/>
            <path d="M146.92,70.65L146.79,70.61L146.92,71.22L147.08,71.79L146.13,72.5L145.04,72.22L146.29,72.65L147.24,71.79L146.92,70.65Z" style="fill-rule:nonzero;"/>
            <path d="M141.4,155.15L141.53,155.12L139.66,153.29L141.4,155.15Z" style="fill-rule:nonzero;"/>
            <path d="M144.72,71.08L145.02,72.17L144.74,71.05L144.72,71.08Z" style="fill-rule:nonzero;"/>
            <path d="M206.1,76.92L204.84,77.49L206.1,76.92L207.37,77.63L206.1,76.92Z" style="fill-rule:nonzero;"/>
            <path d="M217.92,46.29L219.84,48.28L218.89,50.99L216.05,51.56L214.03,49.46L214,49.56L216.05,51.7L219.04,51.13L219.99,48.42L217.94,46.29L217.92,46.29Z" style="fill-rule:nonzero;"/>
            <path d="M231.35,59.25L232.14,60.96L234.19,60.96L234.2,60.95L232.3,60.82L231.35,59.25Z" style="fill-rule:nonzero;"/>
            <path d="M223.31,76.07L222.04,72.22L224.73,69.37L221.88,72.36L223.15,76.21L227.25,77.06L230.09,74.07L230.06,73.97L227.25,76.92L223.31,76.07Z" style="fill-rule:nonzero;"/>
            <path d="M233.25,44.01L234.51,45.29L233.25,44.01Z" style="fill-rule:nonzero;"/>
            <path d="M235.3,59.4L235.26,59.32L234.93,59.92L235.3,59.4Z" style="fill-rule:nonzero;"/>
            <path d="M235.77,41.87L233.88,42.3L235.77,42.01L237,43.26L237.04,43.15L235.77,41.87Z" style="fill-rule:nonzero;"/>
            <path d="M248.56,68.09L248.56,68.23L250.61,69.37L252.65,68.23L250.61,69.23L248.56,68.09Z" style="fill-rule:nonzero;"/>
            <path d="M254.71,56.83L255.97,56.69L254.71,56.83Z" style="fill-rule:nonzero;"/>
            <path d="M250.61,64.81L248.56,65.95L250.61,64.81Z" style="fill-rule:nonzero;"/>
            <path d="M175.01,53.13L177.07,53.27L175.01,53.13Z" style="fill-rule:nonzero;"/>
            <path d="M183.22,73.93L182.27,76.21L182.43,76.35L184.17,78.06L184.3,78.03L182.59,76.35L183.22,73.93Z" style="fill-rule:nonzero;"/>
            <path d="M177.07,53.27L178.01,55.12L177.07,53.27Z" style="fill-rule:nonzero;"/>
            <path d="M185.75,73.36L183.22,73.93L185.75,73.36Z" style="fill-rule:nonzero;"/>
            <path d="M174.79,56.55L174.86,56.69L176.91,56.83L178.01,55.12L176.91,56.69L174.79,56.55Z" style="fill-rule:nonzero;"/>
            <path d="M215.42,61.67L216.2,62.39L215.89,63.38L216.21,62.39L215.42,61.67Z" style="fill-rule:nonzero;"/>
            <path d="M140.14,134.91L142.19,136.05L144.24,134.91L144.24,134.77L142.35,135.91L140.14,134.91Z" style="fill-rule:nonzero;"/>
            <path d="M196,43.72L193.64,44.86L196.07,43.76L196,43.72Z" style="fill-rule:nonzero;"/>
            <path d="M196.16,61.96L195.53,64.1L197.11,65.67L197.23,65.63L195.69,64.1L196.16,62.1L198.37,61.53L199.95,62.96L198.37,61.39L196.16,61.96Z" style="fill-rule:nonzero;"/>
            <path d="M195.78,48.81L193.64,47.43L193.64,44.86L193.48,47.43L195.69,48.85L195.78,48.81Z" style="fill-rule:nonzero;"/>
            <path d="M117.25,43.15L117.57,40.02L117.25,43.15Z" style="fill-rule:nonzero;"/>
            <path d="M65.02,42.3L65.02,41.5L64.86,41.59L64.86,42.44L65.65,42.87L66.44,42.44L65.65,42.73L65.02,42.3Z" style="fill-rule:nonzero;"/>
            <path d="M85.69,25.2L85.22,24.77L85.69,25.2Z" style="fill-rule:nonzero;"/>
            <path d="M86.48,24.49L86.45,24.46L86.33,25.04L86.48,24.49Z" style="fill-rule:nonzero;"/>
            <path d="M86.01,24.06L85.9,24.08L86.16,24.2L86.01,24.06Z" style="fill-rule:nonzero;"/>
            <path d="M84.43,44.29L82.85,45.57L84.54,44.33L84.43,44.29Z" style="fill-rule:nonzero;"/>
            <g transform="matrix(1,0,0,1,-8184.99,-586.73)">
                <path d="M8214.18,616.49C8214.2,616.491 8214.23,616.491 8214.25,616.491C8215.69,616.491 8216.88,615.304 8216.88,613.861C8216.88,613.787 8216.88,613.713 8216.87,613.64C8216.88,613.713 8216.88,613.787 8216.88,613.861C8216.88,615.304 8215.69,616.491 8214.25,616.491C8214.23,616.491 8214.2,616.491 8214.18,616.49Z" style="fill-rule:nonzero;"/>
            </g>
            <path d="M75.12,21.35L76.38,22.35L76.06,23.92L76.38,22.35L75.12,21.35Z" style="fill-rule:nonzero;"/>
            <path d="M73.25,23.37L73.22,23.49L74.49,24.49L76.06,23.92L74.49,24.34L73.25,23.37Z" style="fill-rule:nonzero;"/>
            <path d="M70.89,28.23L72.75,29.9L72.28,32.32L72.91,29.9L71.01,28.19L70.89,28.23Z" style="fill-rule:nonzero;"/>
            <path d="M348.77,64.67L348.3,65.09L348.86,64.71L348.77,64.67Z" style="fill-rule:nonzero;"/>
            <g transform="matrix(1,0,0,1,-8184.99,-586.73)">
                <path d="M8207.08,613.92C8207.08,613.921 8207.08,613.922 8207.08,613.922C8207.08,615.332 8208.24,616.492 8209.65,616.492C8209.69,616.492 8209.72,616.492 8209.76,616.49C8208.33,616.502 8207.13,615.353 8207.08,613.92Z" style="fill-rule:nonzero;"/>
            </g>
            <path d="M364.71,85.61L364.24,87.47L364.39,87.59L364.71,85.61Z" style="fill-rule:nonzero;"/>
            <path d="M362.18,77.78L363.59,76.36L362.18,77.63L360.29,77.06L359.82,75.5L359.66,75.21L359.66,75.64L360.13,77.21L362.18,77.78Z" style="fill-rule:nonzero;"/>
            <path d="M366.6,85.04L364.71,85.61L366.64,85.08L366.6,85.04Z" style="fill-rule:nonzero;"/>
            <path d="M351.45,80.06L349.11,80.34L349.24,80.48L351.61,80.06L352.4,77.92L350.82,76.21L350.69,76.23L352.24,77.92L351.45,80.06Z" style="fill-rule:nonzero;"/>
            <path d="M348.85,80.05L347.7,78.67L347.67,78.77L348.85,80.05Z" style="fill-rule:nonzero;"/>
            <path d="M83.17,47.57L82.85,45.57L83.17,47.57L85.22,48.28L86.95,47L85.22,48.28L83.17,47.57Z" style="fill-rule:nonzero;"/>
            <path d="M348.61,65.95L349.08,66.09L349.56,65.67L349.53,65.55L349.08,65.95L348.61,65.81L348.45,65.67L348.3,65.09L348.45,65.95L348.61,65.95Z" style="fill-rule:nonzero;"/>
            <path d="M101.31,49.42L101.31,49.28L100.37,49.85L101.31,49.42Z" style="fill-rule:nonzero;"/>
            <path d="M124.99,31.47L122.94,31.47L121.99,29.76L123.09,28.05L121.99,29.76L122.94,31.47L124.99,31.47Z" style="fill-rule:nonzero;"/>
            <path d="M121.04,38.88L123.57,40.59L121.04,38.88L120.73,38.73L117.57,40.02L120.73,38.73L121.04,38.88Z" style="fill-rule:nonzero;"/>
            <path d="M112.31,56.68L112.2,56.69L111.73,57.69L112.52,58.54L112.66,58.52L111.89,57.69L112.31,56.68Z" style="fill-rule:nonzero;"/>
            <path d="M126.05,29.82L126.09,29.76L125.14,28.05L123.09,28.05L125.14,28.19L126.05,29.82Z" style="fill-rule:nonzero;"/>
            <path d="M87.43,35.46L86.17,36.6L87.43,35.46Z" style="fill-rule:nonzero;"/>
            <path d="M148.66,50.7L148.69,50.81L151.03,48.14L148.66,50.7Z" style="fill-rule:nonzero;"/>
            <path d="M123.09,43.86L123.56,40.66L123.09,43.86L119.94,45.15L123.09,43.86Z" style="fill-rule:nonzero;"/>
            <path d="M130.51,57.69L132.4,57.83L133.19,59.4L132.1,60.81L132.25,60.82L133.19,59.4L132.41,57.83L130.51,57.69Z" style="fill-rule:nonzero;"/>
            <path d="M122.62,71.79L123.41,73.93L125.78,74.36L123.41,73.93L122.62,71.79Z" style="fill-rule:nonzero;"/>
            <path d="M255.66,54.69L254.4,54.84L253.92,55.83L253.96,55.88L254.4,54.84L255.66,54.69Z" style="fill-rule:nonzero;"/>
            <path d="M100.37,64.53L99.26,64.1L98.32,64.81L98.33,64.94L99.26,64.24L100.37,64.53Z" style="fill-rule:nonzero;"/>
            <path d="M100.84,26.62L99.44,28.32L99.58,28.33L101,26.62L100.05,24.63L99.64,24.58L99.89,24.63L100.84,26.62Z" style="fill-rule:nonzero;"/>
            <path d="M84.59,36.17L86.17,36.6L84.59,36.17Z" style="fill-rule:nonzero;"/>
            <path d="M85.53,33.46L85.5,33.49L87.1,33.89L85.53,33.46Z" style="fill-rule:nonzero;"/>
            <path d="M102.58,39.59L102.58,39.73L103.05,40.02L103.68,39.73L103.05,39.88L102.58,39.59Z" style="fill-rule:nonzero;"/>
            <path d="M113.94,29.9L112.2,30.76L110.47,29.9L112.2,30.9L113.94,29.9Z" style="fill-rule:nonzero;"/>
            <path d="M99.42,49.42L100.37,49.85L99.42,49.28L99.42,49.42Z" style="fill-rule:nonzero;"/>
            <path d="M148.96,51.58L149.76,53.98L153.39,54.69L149.92,53.98L148.96,51.58Z" style="fill-rule:nonzero;"/>
            <path d="M361.08,73.79L359.66,75.21L361.2,73.82L361.08,73.79Z" style="fill-rule:nonzero;"/>
            <path d="M308.21,44.01L306.79,44.43L308.21,44.01Z" style="fill-rule:nonzero;"/>
            <path d="M307.58,55.83L308.21,54.98L307.58,55.83Z" style="fill-rule:nonzero;"/>
            <path d="M306.63,53.98L306,54.84L306.63,53.98Z" style="fill-rule:nonzero;"/>
            <path d="M307.74,54.12L307.74,54.27L308.21,54.98L307.89,54.27L307.74,54.12Z" style="fill-rule:nonzero;"/>
            <path d="M300.48,41.02L299.21,39.16L299.2,39.16L299.21,39.16L300.48,41.02Z" style="fill-rule:nonzero;"/>
            <path d="M319.42,105.13L316.73,105.99L316.26,108.55L316.89,105.99L319.42,105.13Z" style="fill-rule:nonzero;"/>
            <path d="M317.84,64.81L318,62.96L317.98,62.95L317.84,64.67L315.94,65.38L315.62,65.18L316.1,65.52L317.84,64.81Z" style="fill-rule:nonzero;"/>
            <path d="M306.63,45.86L306.79,44.43L306.47,45.72L306.63,45.86L307.58,46.71L306.79,46L306.63,45.86Z" style="fill-rule:nonzero;"/>
            <path d="M341.04,119.24L341.06,119.21L339.93,118.95L341.04,119.24Z" style="fill-rule:nonzero;"/>
            <path d="M301.74,79.2L301.58,79.34L301.74,79.34L301.74,79.2L302.21,78.63L301.74,79.06L301.74,79.2Z" style="fill-rule:nonzero;"/>
            <path d="M301.11,79.63L299.81,79.37L299.85,79.49L301.27,79.77L301.58,79.34L301.58,79.2L301.11,79.63Z" style="fill-rule:nonzero;"/>
            <path d="M339.64,117.92L340.4,117.1L341.51,117.24L340.4,116.96L339.62,117.81L339.64,117.92Z" style="fill-rule:nonzero;"/>
            <path d="M318.47,38.73L317.55,39.7L317.68,39.73L318.63,38.73L318.15,37.45L316.73,37.17L318,37.45L318.47,38.73Z" style="fill-rule:nonzero;"/>
            <path d="M334.56,66.09L334.57,66.09L335.2,65.52L335.04,64.81L335.2,65.52L334.56,66.09Z" style="fill-rule:nonzero;"/>
            <path d="M319.26,81.34L319.57,82.73L319.28,81.32L319.26,81.34Z" style="fill-rule:nonzero;"/>
            <path d="M343.88,142.32L344.35,141.61L343.88,142.32Z" style="fill-rule:nonzero;"/>
            <path d="M319.58,82.76L320.99,83.33L322.26,82.33L320.99,83.19L319.58,82.76Z" style="fill-rule:nonzero;"/>
            <path d="M341.35,131.24L341.67,131.21L342.14,130.07L341.51,131.21L341.35,131.24Z" style="fill-rule:nonzero;"/>
            <path d="M341.35,129.07L342.14,130.07L341.35,129.07Z" style="fill-rule:nonzero;"/>
            <path d="M342.9,141.9L343.09,142.32L343.88,142.32L343.09,142.18L342.9,141.9Z" style="fill-rule:nonzero;"/>
            <path d="M349.24,140.75L349.26,140.89L350.66,139.9L349.24,140.75Z" style="fill-rule:nonzero;"/>
            <path d="M338.05,102.01L338.04,102L335.51,102.28L334.56,104.56L335.67,102.28L338.05,102.01Z" style="fill-rule:nonzero;"/>
            <path d="M329.2,96.58L328.57,93.59L325.57,92.74L328.57,93.59L329.2,96.58Z" style="fill-rule:nonzero;"/>
            <path d="M322.1,48.57L320.84,51.42L322.26,48.57L320.36,46L322.1,48.57Z" style="fill-rule:nonzero;"/>
            <path d="M335.51,82.05L335.99,80.63L334.89,79.49L335.83,80.63L335.51,81.91L334.06,82.3L334.09,82.33L335.51,82.05Z" style="fill-rule:nonzero;"/>
            <path d="M329.67,43.29L329.71,43.37L329.99,42.87L329.67,43.29Z" style="fill-rule:nonzero;"/>
            <path d="M334.88,79.49L334.87,79.49L334.88,79.49Z" style="fill-rule:nonzero;"/>
            <path d="M333.78,43.86L332.99,42.16L333.62,43.86L332.67,45.15L332.83,45L333.78,43.86Z" style="fill-rule:nonzero;"/>
            <path d="M318.31,110.26L318.42,110.23L316.26,108.55L318.31,110.26Z" style="fill-rule:nonzero;"/>
            <path d="M275.23,59.82L272.26,60.1L272.39,60.25L275.38,59.82L276.49,57.12L274.6,54.84L276.33,57.12L275.23,59.82Z" style="fill-rule:nonzero;"/>
            <path d="M273.96,74.5L276.17,73.79L273.92,74.46L273.96,74.5Z" style="fill-rule:nonzero;"/>
            <path d="M272.84,41.7L271.76,40.45L272.23,38.88L271.6,40.45L272.7,41.73L272.84,41.7Z" style="fill-rule:nonzero;"/>
            <path d="M274.75,69.94L272.54,70.65L272.51,70.79L272.55,70.79L274.75,69.94Z" style="fill-rule:nonzero;"/>
            <path d="M255.66,54.69L256.41,55.64L256.45,55.55L255.66,54.69Z" style="fill-rule:nonzero;"/>
            <path d="M289.9,37.02L288.01,34.89L285.17,35.46L288.01,35.03L289.9,37.02Z" style="fill-rule:nonzero;"/>
            <path d="M284.22,38.02L284.26,38.06L285.17,35.46L284.22,38.02Z" style="fill-rule:nonzero;"/>
            <path d="M254.87,49.28L253.15,47.44L253.13,47.57L254.87,49.28L256.92,48L257.24,44.86L256.92,47.85L254.87,49.28Z" style="fill-rule:nonzero;"/>
            <path d="M288.01,48.42L289.59,48.28L287.85,48.42L287.06,49.85L288.01,51.13L288.16,51.12L287.22,49.85L288.01,48.42Z" style="fill-rule:nonzero;"/>
            <path d="M289.82,61.86L290.54,62.24L290.69,63.1L290.69,62.24L289.9,61.82L289.82,61.86Z" style="fill-rule:nonzero;"/>
            <g transform="matrix(1,0,0,1,-8184.99,-586.73)">
                <path d="M8588.36,753.7L8571.63,763.7L8574.79,772.1C8574.81,772.212 8574.87,772.314 8574.95,772.39L8590.26,759.56L8588.36,753.7Z" style="fill:rgb(244,189,100);fill-rule:nonzero;"/>
            </g>
            <path d="M401.16,159.56L384.12,170.11L386.01,175.09L402.9,165.26L401.16,159.56Z" style="fill:rgb(244,189,100);fill-rule:nonzero;"/>
            <g transform="matrix(1,0,0,1,-8184.99,-586.73)">
                <path d="M8531.23,715.8C8530.92,715.337 8530.75,714.789 8530.76,714.23L8532.02,685.74C8532.19,684.404 8533.34,683.391 8534.69,683.391C8535.65,683.391 8536.54,683.907 8537.02,684.74L8541.6,694.29L8558.01,728.91C8558.01,728.91 8558.01,728.911 8558.01,728.911C8558.01,728.988 8558.07,729.051 8558.15,729.051C8558.16,729.051 8558.16,729.051 8558.17,729.05L8568.27,755.55L8585.16,744.3L8565.9,682.3C8565.53,681.137 8565,680.032 8564.32,679.02L8538.13,636.56C8535.64,632.583 8531.66,629.76 8527.08,628.72L8489.2,620.03C8488.89,620.03 8488.73,619.89 8488.41,620.03L8340.41,630.29C8339.86,630.305 8339.31,630.156 8338.84,629.86L8309.64,612.62C8304.25,609.474 8297.81,608.651 8291.81,610.34L8289.12,611.05C8288.66,611.2 8288.16,611.2 8287.7,611.05L8261.19,604.79C8260.18,604.289 8259.33,603.512 8258.74,602.55L8247.41,616.75C8247.04,617.374 8246.49,617.873 8245.83,618.18C8245.03,618.608 8244.14,618.832 8243.23,618.832C8240.8,618.832 8238.64,617.228 8237.94,614.9L8234.94,603.36C8234.03,599.826 8235.59,596.092 8238.73,594.24L8238.87,594.16L8229.31,590.82C8228.58,590.583 8227.79,590.633 8227.1,590.96L8196.8,607.06C8195.99,607.478 8195.45,608.289 8195.38,609.2L8195.38,610.48C8195.37,610.88 8195.27,611.271 8195.07,611.62L8186,628L8197,626L8191,635L8185.12,629.12C8184.86,629.906 8184.99,630.771 8185.46,631.45L8190.77,636.77L8190.67,636.58L8199.35,632.73C8204.32,630.555 8209.85,630.053 8215.13,631.3L8221.6,632.87L8224.76,640.57L8224.94,640.95L8225.23,640.85C8225.91,640.685 8226.63,640.737 8227.28,641L8269.28,660.94C8269.75,661.23 8270.23,661.51 8270.39,662.08L8288,695.71C8288.16,696 8288.16,696.14 8288.32,696.42L8291.47,714.52L8291.6,714.43C8291.78,714.101 8292,713.795 8292.26,713.52C8294.25,711.414 8297.43,710.888 8299.99,712.24C8300.39,712.422 8300.77,712.661 8301.1,712.95L8314.35,724.49C8315.6,725.561 8316.35,727.112 8316.41,728.76L8316.41,779.76C8317.75,779.754 8318.88,780.827 8318.93,782.17L8319.25,794.56L8319.56,805.56L8319.88,818.24C8319.88,818.241 8319.88,818.242 8319.88,818.243C8319.88,819.647 8318.72,820.803 8317.32,820.803C8317.28,820.803 8317.24,820.802 8317.2,820.8L8315.78,820.8C8314.94,820.823 8314.14,821.183 8313.57,821.8L8311.83,824.08L8308.2,828.78C8307.89,829.211 8307.72,829.732 8307.72,830.266C8307.72,831.649 8308.85,832.786 8310.24,832.786C8310.29,832.786 8310.35,832.784 8310.41,832.78L8322.41,832.78C8323.11,832.767 8323.78,832.516 8324.31,832.07L8332.04,824.8C8332.45,824.364 8332.72,823.819 8332.83,823.23L8333.3,818.82L8343.43,714C8343.47,713.76 8343.52,713.523 8343.59,713.29C8343.6,712.593 8343.78,711.909 8344.1,711.29C8344.3,710.629 8344.6,710.006 8345.01,709.45L8353.22,699.04C8353.66,698.328 8354.33,697.78 8355.11,697.48C8355.27,697.48 8355.43,697.33 8355.58,697.33C8355.76,697.18 8355.99,697.083 8356.22,697.05C8356.63,696.934 8357.06,696.887 8357.48,696.91L8406.24,696.91C8406.4,696.91 8406.72,696.76 8406.87,696.76C8407.48,696.773 8408.08,696.628 8408.61,696.34L8452.01,675.68C8453.5,674.961 8455.25,674.961 8456.74,675.68C8456.9,675.82 8457.22,675.96 8457.38,676.1L8461.16,678.53L8461.48,678.81C8463.03,679.973 8463.82,681.896 8463.53,683.81C8463.44,684.13 8463.3,684.49 8463.17,684.81C8463.07,685.464 8462.82,686.086 8462.43,686.62L8460.85,688.76C8461.94,689.114 8462.66,690.159 8462.6,691.3L8462.74,691.18C8465.02,689.351 8467.86,688.346 8470.79,688.33L8470.79,688.76L8478.05,688.76C8478.13,688.757 8478.2,688.756 8478.28,688.756C8481.5,688.756 8484.16,691.381 8484.2,694.6L8484.2,702.29C8484.22,703.585 8484.66,704.838 8485.47,705.85L8541.17,772.54C8541.79,773.326 8542.2,774.254 8542.37,775.24L8543.37,771.4C8543.5,770.766 8543.39,770.107 8543.06,769.55C8541.48,766.98 8545.11,764.42 8547.32,766.55L8551.74,771.25C8552.34,771.844 8552.58,772.713 8552.37,773.53L8542.11,819.26C8541.95,820.222 8541.18,820.977 8540.22,821.12L8535.64,822.26C8534.9,822.412 8534.27,822.88 8533.91,823.54L8530.91,829.24C8530.73,829.594 8530.64,829.985 8530.64,830.381C8530.64,831.785 8531.8,832.941 8533.2,832.941C8533.22,832.941 8533.25,832.941 8533.27,832.94L8550.63,832.94C8551.83,832.936 8552.88,832.106 8553.16,830.94L8568.78,768.1C8568.95,767.397 8568.77,766.654 8568.31,766.1L8531.23,715.8ZM8549.7,672.34L8551.59,671.77L8551.71,671.77L8553.13,673.06L8552.81,674.91L8550.76,675.62L8549.34,674.34L8549.18,674.21L8549.7,672.34ZM8544.65,661.94L8546.07,660.52L8546.19,660.52L8548.25,661.09L8548.72,662.94L8548.55,663.09L8547.14,664.51L8545.14,663.94L8544.67,662.37L8544.65,661.94ZM8533.76,651.4L8533.92,651.4L8534.55,651.68L8534.55,652.36L8534.07,652.79L8533.6,652.65L8533.44,652.65L8533.28,651.79L8533.76,651.4ZM8532.65,665.4L8533.44,663.4L8535.65,662.97L8535.79,662.97L8537.37,664.68L8536.58,666.82L8534.21,667.24L8534.08,667.1L8533.85,666.81L8532.66,665.53L8532.66,665.43L8532.65,665.4ZM8216.87,613.68C8216.88,613.753 8216.88,613.827 8216.88,613.901C8216.88,615.344 8215.69,616.531 8214.25,616.531C8214.23,616.531 8214.2,616.531 8214.18,616.53L8209.76,616.53C8209.71,616.533 8209.65,616.535 8209.6,616.535C8208.19,616.535 8207.03,615.375 8207.03,613.965C8207.03,612.555 8208.19,611.395 8209.6,611.395C8209.65,611.395 8209.71,611.397 8209.76,611.4L8214.18,611.4C8215.01,611.4 8215.8,611.766 8216.33,612.4C8216.5,612.604 8216.63,612.838 8216.71,613.09C8216.84,613.252 8216.89,613.457 8216.87,613.66L8216.87,613.68ZM8270.21,611.54L8270.36,610.97L8270.84,610.83L8270.95,610.83L8271.1,610.97L8271.42,611.11L8271.42,611.23L8271.26,611.78L8270.63,611.92L8270.16,611.49L8270.21,611.54ZM8251.43,629.21L8250.64,629.64L8249.85,629.21L8249.85,628.35L8250.01,628.27L8250.01,628.21L8250.79,627.78L8251.58,628.35L8251.43,629.21ZM8257.27,619.09L8254.74,619.81L8252.85,618.1L8253.32,615.67L8255.84,614.96L8255.96,614.96L8257.86,616.67L8257.27,619.09ZM8261.05,610.69L8259.48,611.26L8258.21,610.26L8258.21,610.14L8258.53,608.57L8260.11,608.14L8261.37,609.14L8261.05,610.69ZM8270.21,635.05L8268.21,634.34L8267.89,632.34L8269.47,631.06L8269.63,631.06L8271.52,631.77L8271.83,633.48L8271.99,633.77L8270.21,635.05ZM8272.42,622.23L8271.15,623.37L8269.58,622.94L8269.1,621.23L8270.36,620.23L8270.49,620.23L8272.06,620.66L8272.38,622.23L8272.42,622.23ZM8281.25,612.82L8282.67,610.97L8284.67,611.35L8285.09,611.4L8286.04,613.4L8284.62,615.11L8284.46,615.11L8282.09,614.83L8281.25,612.82ZM8284.57,653.15L8283.46,652.86L8283.31,651.72L8283.31,651.59L8284.31,650.88L8285.42,651.3L8285.57,652.44L8284.57,653.15ZM8286.3,635L8286.3,636.15L8285.36,636.58L8284.36,636.15L8284.36,635L8285.36,634.57L8286.3,635ZM8288.67,625.75L8288.67,626.46L8288.04,626.75L8287.57,626.46L8287.57,625.75L8288.2,625.47L8288.67,625.75ZM8295.46,614.78L8297.19,613.78L8298.93,614.64L8298.93,616.64L8297.19,617.64L8295.46,616.64L8295.46,614.78ZM8298.77,645.13L8297.67,645.27L8297.53,645.27L8296.74,644.42L8297.21,643.42L8297.32,643.42L8297.37,643.29L8298.63,643.14L8298.63,643.29L8299.26,644.14L8298.77,645.13ZM8308.08,614.78L8310.08,614.78L8311.08,616.49L8311.08,616.63L8309.98,618.2L8307.92,618.2L8306.98,616.49L8308.08,614.78ZM8304.93,631.88L8302.24,629.88L8302.56,626.75L8305.71,625.47L8306.03,625.61L8308.56,627.32L8308.56,627.39L8308.1,630.59L8304.95,631.88L8304.93,631.88ZM8310.76,661.09L8308.4,660.66L8307.61,658.52L8309.19,656.81L8311.55,657.24L8312.34,659.38L8310.76,661.09ZM8317.24,647.55L8317.08,647.55L8315.34,647.41L8314.55,645.84L8315.55,644.42L8317.44,644.56L8318.23,646.13L8317.24,647.55ZM8333.65,637.43L8336.02,634.87L8339.64,635.58L8340.75,638.86L8338.38,641.42L8334.75,640.71L8333.94,638.31L8333.65,637.58L8333.65,637.43ZM8329.23,719.36L8329.23,721.64L8327.23,722.78L8325.18,721.64L8325.18,719.36L8327.23,718.22L8329.23,719.36ZM8318.81,628.17L8319.45,626.32L8321.45,625.89L8322.87,627.32L8322.87,627.42L8322.24,629.42L8320.18,629.85L8318.76,628.28L8318.76,628.18L8318.81,628.17ZM8318.66,679.04L8318.66,678.9L8319.29,677.9L8320.55,677.76L8321.34,678.76L8320.71,679.9L8319.45,680.05L8318.66,679.04ZM8321,704L8319.43,703.29L8319.27,701.58L8320.69,700.58L8322.27,701.3L8322.42,703.01L8321,704ZM8322.27,640.74L8321.27,638.89L8322.53,637.18L8324.53,637.32L8324.69,637.32L8325.69,639.17L8325.69,639.32L8324.42,641.03L8322.27,640.74ZM8326.37,741.91L8324.63,740.05L8325.42,737.77L8327.95,737.2L8329.68,739.06L8328.89,741.34L8326.53,741.91L8326.37,741.91ZM8329.52,761.14L8328.58,761.14L8328.11,760.43L8328.42,759.57L8329.52,759.57L8330,760.29L8329.52,761.14ZM8331.26,659.41L8330,659L8330,658.95L8329.69,657.86L8329.69,657.75L8330.64,657.03L8330.96,657.18L8331.74,657.32L8331.74,657.42L8331.87,657.42L8332.19,658.56L8331.26,659.41ZM8332.52,685.05L8332.36,684.94L8332.52,682.94L8334.52,681.94L8334.68,681.94L8336.58,683.22L8336.42,685.36L8335.95,685.5L8334.37,686.36L8332.52,685.05ZM8338.05,748.74L8336.31,748.74L8335.99,748.32L8335.36,747.46L8336.15,746.04L8336.37,746.04L8336.47,745.89L8338.05,745.89L8338.84,747.32L8338.05,748.74ZM8339.47,731.93L8338.2,733.64L8336,733.5L8334.89,731.65L8335.44,730.93L8336.31,729.65L8338.31,729.79L8338.47,729.79L8339.42,731.79L8339.42,731.85L8339.47,731.93ZM8339.15,704.15L8336.47,704.86L8334.57,703.01L8335.2,700.46L8338.04,699.75L8339.93,701.6L8339.15,704.15ZM8340.73,669.38L8339.62,669.52L8339.48,669.52L8338.85,668.67L8339.32,667.67L8339.48,667.67L8340.42,667.53L8340.7,667.53L8341.17,668.38L8340.73,669.38ZM8353.36,659.55L8351.62,659.41L8351,658L8351.95,656.72L8352.1,656.72L8353.66,656.86L8354.45,658.28L8353.36,659.55ZM8360.14,678.36L8358,678L8357.94,677.87L8357.84,677.87L8356.9,676.02L8358.32,674.31L8360.53,674.59L8361.47,676.59L8360.14,678.36ZM8362.98,641.88L8361.88,643.59L8359.88,643.45L8359.81,643.31L8359.72,643.31L8358.93,641.6L8358.93,641.45L8360.03,639.89L8362.03,640.03L8363.03,641.88L8362.98,641.88ZM8371.82,664.25L8369.29,664.82L8369.16,664.82L8367.42,663.11L8367.26,662.97L8368.21,660.69L8370.73,660.12L8372.62,661.83L8371.82,664.25ZM8378.61,631.62L8380.97,630.48L8381.13,630.48L8383.34,631.76L8383.18,634.33L8383.18,634.47L8380.81,635.61L8380.66,635.61L8378.45,634.19L8378.61,631.62ZM8384.44,651.85L8382.23,652.42L8382.11,652.42L8380.53,650.86L8381.16,648.72L8383.37,648.15L8384.95,649.72L8384.44,651.85ZM8392.33,664.39L8392.18,665.82L8390.91,666.53L8389.65,665.68L8389.81,664.25L8391.07,663.68L8392.33,664.39ZM8400.86,650.15L8399.75,650.43L8398.96,649.72L8399.28,648.72L8400.38,648.44L8401.17,649.15L8400.86,650.15ZM8404.01,637.89L8401.01,638.46L8398.95,636.32L8398.95,636.22L8399.74,633.94L8399.9,633.51L8402.74,632.94L8402.88,633.09L8404.88,635.22L8404.01,637.89ZM8415.01,660.83L8412.17,663.83L8408.07,662.98L8406.8,659.13L8409.64,656.13L8413.75,656.98L8415.01,660.69L8415.01,660.83ZM8420.22,646.16L8419.85,646.68L8419.27,647.68L8417.06,647.68L8416.27,645.97L8417.27,644.26L8419.27,644.26L8420.27,645.97L8420.27,646.04L8420.22,646.16ZM8422,630L8421.37,631.71L8419.48,632L8418.22,630.72L8418.85,629.01L8420.74,628.58L8422,629.86L8422,630ZM8437.65,655L8435.65,656.14L8433.59,655L8433.59,652.72L8435.65,651.58L8437.65,652.72L8437.65,655ZM8441.44,642.46L8440.96,643.46L8439.7,643.6L8438.91,642.75L8438.91,642.6L8439.38,641.6L8440.65,641.45L8441.44,642.31L8441.44,642.46ZM8441.91,634.77L8439.91,636.05L8438.17,634.34L8438.17,634.21L8438.49,631.21L8440.49,629.93L8442.22,631.64L8441.91,634.77ZM8457.22,625.65L8458.95,625.36L8460.06,626.65L8459.58,628.21L8457.85,628.5L8457.71,628.5L8456.61,627.21L8457.22,625.65ZM8455.32,644.6L8456.59,642.03L8459.59,641.61L8461.49,643.89L8460.38,646.59L8457.38,647.02L8457.25,646.87L8455.32,644.6ZM8461.16,660.6L8458.95,661.31L8458.83,661.31L8457.1,659.74L8457.42,657.6L8457.54,657.6L8457.54,657.46L8459.75,656.75L8461.65,658.32L8461.16,660.6ZM8469.16,624.98L8469.16,624.87L8470.16,622.31L8473,621.74L8474.89,623.88L8473.95,626.58L8471.11,627.01L8469.16,624.98ZM8472.95,637.98L8471.95,636.7L8472.74,635.27L8474.48,635.13L8475.42,636.41L8474.63,637.98L8472.95,637.98ZM8475.63,649.98L8474.84,650.41L8474,650L8474,649L8474.78,648.57L8474.94,648.57L8475.73,649L8475.63,649.98ZM8481.94,629.6L8480.68,627.6L8481.79,625.89L8481.94,625.89L8484.14,626.03L8485.41,627.88L8484.3,629.59L8481.94,629.6ZM8486.68,666.08L8486.68,666.22L8486.52,666.22L8486.2,666.65L8484.78,666.37L8484.78,666.25L8484.67,666.25L8484.19,664.97L8485.14,663.83L8485.3,663.83L8486.72,664.12L8487.19,665.54L8486.68,666.08ZM8526.45,704.08L8526.92,705.22L8526.13,706.08L8526,706.08L8524.9,705.79L8524.58,704.79L8524.58,704.68L8525.37,703.83L8526.45,704.08ZM8521.24,641.53L8522.66,641.39L8522.82,641.39L8523.61,642.53L8522.98,643.81L8521.4,643.96L8520.61,642.82L8521.24,641.53ZM8520,651.54L8520.16,652.25L8519.52,652.82L8518.73,652.54L8518.58,651.82L8519.21,651.25L8520,651.54ZM8501.69,623.9L8503.11,624.18L8503.58,625.47L8502.64,626.47L8502.51,626.47L8501.25,626.19L8501.09,626.19L8500.77,624.91L8501.69,623.9ZM8492.54,642.56L8491.43,642.42L8490.96,641.57L8491.59,640.71L8492.7,640.85L8492.85,641L8493.17,641.71L8492.54,642.56ZM8494.12,633.02L8492.7,633.59L8492.54,633.44L8491.59,632.59L8491.43,632.45L8491.75,631.16L8493.17,630.74L8494.43,631.59L8494.12,633.02ZM8499.32,651.11L8499.64,649.26L8501.38,648.41L8502.95,649.55L8502.95,649.68L8502.8,651.53L8501.06,652.24L8500.58,651.9L8499.32,651.11ZM8505.95,696.11L8503.43,696.96L8503.32,696.96L8501.32,695.25L8501.79,692.69L8504.47,691.83L8506.68,693.54L8505.95,696.11ZM8505.95,670.03L8504.53,669.46L8504.23,668.07L8504.23,667.95L8505.49,667.09L8506.91,667.52L8507.23,669.09L8505.95,670.03ZM8505.79,638.12L8502.48,638.4L8500.59,635.84L8502,633L8505.31,632.71L8507.21,635.28L8505.79,638.12ZM8511.79,685.28L8508.79,684.42L8508.16,681.42L8510.53,679.42L8513.53,680.27L8514.16,683.27L8511.95,685.27L8511.79,685.28ZM8514.47,710.07L8513.37,710.07L8512.9,709.22L8513.21,708.65L8513.37,708.36L8514.47,708.22L8514.95,709.22L8514.47,710.07ZM8517.63,631.85L8517.31,632.13L8515.42,631.85L8514.63,630.14L8514.63,629.99L8514.95,629.57L8515.89,628.57L8517.95,628.85L8518.73,630.56L8517.79,631.7L8517.63,631.84L8517.63,631.85ZM8518.89,669.04L8517.95,667.9L8518.26,666.47L8519.83,666.19L8520.92,667.33L8520.45,668.75L8519.03,669.04L8518.89,669.04ZM8521.1,693.26L8519.52,691.26L8520.52,688.98L8523.05,688.7L8523.2,688.7L8524.78,690.7L8523.68,692.98L8521.1,693.26ZM8526.63,717.91L8526.31,717.91L8525.21,718.16L8524.42,717.02L8524.57,716.6L8524.89,715.88L8526.31,715.74L8527.1,716.74L8526.63,717.91ZM8528.84,729.02L8528.05,729.02L8527.86,728.6L8527.57,728.17L8528.05,727.45L8528.99,727.6L8529.31,728.31L8528.84,729.02ZM8528.2,676.3L8528.52,676.02L8528.68,676.16L8528.68,676.44L8528.52,676.44L8528.2,676.3ZM8528.36,637.3L8527.41,635.59L8528.36,633.88L8530.41,633.88L8531.36,635.59L8530.41,637.3L8528.36,637.3ZM8535.94,729.92L8534.36,729.2L8534.2,727.64L8534.2,727.5L8535.62,726.65L8537.2,727.36L8537.36,728.93L8535.94,729.92Z" style="fill:rgb(244,189,100);fill-rule:nonzero;"/>
            </g>
            <g transform="matrix(1,0,0,1,-8184.99,-586.73)">
                <path d="M8592.46,774.22C8592.87,772.877 8594.06,771.915 8595.46,771.8L8595.3,771.23C8594.84,770.298 8594.2,769.471 8593.41,768.8C8593.14,768.506 8592.93,768.167 8592.78,767.8L8591.39,763.47L8576.68,774.35L8576.62,774.28L8576.53,774.35L8581.53,780.35L8588.47,788.61L8588.94,785.9L8592.46,774.22Z" style="fill:rgb(244,189,100);fill-rule:nonzero;"/>
            </g>
            <g transform="matrix(1,0,0,1,-8184.99,-586.73)">
                <path d="M8590.41,789.61C8590.41,789.61 8589.15,789.32 8589.15,789.32C8589.54,789.518 8589.97,789.618 8590.41,789.61Z" style="fill:rgb(244,189,100);fill-rule:nonzero;"/>
            </g>
            <g transform="matrix(1,0,0,1,-8184.99,-586.73)">
                <path d="M8316.45,728.76C8316.39,727.112 8315.64,725.561 8314.39,724.49L8301.14,713C8300.81,712.711 8300.43,712.472 8300.03,712.29C8297.47,710.938 8294.29,711.464 8292.3,713.57C8292.04,713.845 8291.82,714.151 8291.64,714.48C8291.11,715.47 8290.85,716.579 8290.88,717.7L8297.51,807.47C8297.51,807.559 8297.52,807.647 8297.52,807.736C8297.52,810.994 8294.84,813.676 8291.58,813.676C8291.24,813.676 8290.9,813.647 8290.57,813.59L8289.93,813.45C8287.26,813.027 8284.61,814.426 8283.46,816.87C8283.14,817.598 8282.97,818.385 8282.97,819.18C8282.97,822.131 8285.26,824.621 8288.2,824.87L8299.2,824.87L8299.2,825.15L8300.47,825.15C8302.36,825.166 8304.16,824.327 8305.36,822.87L8308.2,819.31C8308.72,818.583 8309.1,817.761 8309.3,816.89L8311.99,803.64L8312.62,800.36L8316.25,782.69C8316.25,782.27 8316.41,781.98 8316.41,781.55L8316.41,728.76L8316.45,728.76Z" style="fill:rgb(234,154,76);fill-rule:nonzero;"/>
            </g>
            <g transform="matrix(1,0,0,1,-8184.99,-586.73)">
                <path d="M8485.47,705.82C8484.66,704.808 8484.22,703.555 8484.2,702.26L8484.2,694.57C8484.16,691.351 8481.5,688.726 8478.28,688.726C8478.2,688.726 8478.13,688.727 8478.05,688.73L8470.79,688.73L8470.79,688.3C8467.86,688.316 8465.02,689.321 8462.74,691.15L8462.6,691.27C8459.97,693.454 8458.46,696.705 8458.48,700.12L8458.48,705.25C8458.49,706.373 8458.84,707.467 8459.48,708.39C8460.3,710.017 8461.36,711.508 8462.63,712.81L8487.25,738.88L8520.39,775.07C8520.55,775.36 8523.23,778.35 8523.39,778.63C8523.57,778.998 8523.73,779.379 8523.86,779.77C8524.06,780.419 8524.16,781.092 8524.18,781.77L8522.76,805.28L8522.76,806.13C8522.42,809.236 8519.74,811.6 8516.61,811.55L8514.4,811.55C8511.66,811.538 8509.21,813.336 8508.4,815.96L8507.77,818.1C8507.66,818.551 8507.61,819.012 8507.61,819.476C8507.61,822.712 8510.27,825.376 8513.51,825.376C8513.59,825.376 8513.68,825.374 8513.77,825.37L8526.56,825.08C8528.59,824.517 8530.19,822.959 8530.82,820.95L8536.03,801.43L8542.34,777.49C8542.54,776.746 8542.57,775.967 8542.43,775.21C8542.26,774.224 8541.85,773.296 8541.23,772.51L8485.47,705.82Z" style="fill:rgb(234,154,76);fill-rule:nonzero;"/>
            </g>
            <path d="M335.2,189.2L302.06,153.01" style="fill:none;fill-rule:nonzero;"/>
            <path d="M406.4,176.75L406.53,176.66L405.42,172.81L390.12,185.64L390.27,186.06L390.91,186.78L391.63,187.56L391.69,187.63L406.4,176.75Z" style="fill:rgb(7,7,7);fill-rule:nonzero;"/>
            <path d="M403.21,166.12L402.9,165.26L386.01,175.09L386.49,176.52L386.64,176.94L403.37,166.83L403.21,166.12Z" style="fill:rgb(7,7,7);fill-rule:nonzero;"/>
            <g transform="matrix(1,0,0,1,-8184.99,-586.73)">
                <path d="M8216.71,613.07C8216.63,612.818 8216.5,612.584 8216.33,612.38C8215.8,611.746 8215.01,611.38 8214.18,611.38L8209.76,611.38C8209.72,611.378 8209.68,611.377 8209.64,611.377C8208.24,611.377 8207.08,612.533 8207.08,613.937C8207.08,613.938 8207.08,613.939 8207.08,613.94C8207.13,615.373 8208.33,616.522 8209.76,616.51L8214.18,616.51C8214.2,616.511 8214.23,616.511 8214.25,616.511C8215.69,616.511 8216.88,615.324 8216.88,613.881C8216.88,613.807 8216.88,613.733 8216.87,613.66C8216.9,613.45 8216.84,613.237 8216.71,613.07Z" style="fill:rgb(7,7,7);fill-rule:nonzero;"/>
            </g>
            <g transform="matrix(1,0,0,1,-8184.99,-586.73)">
                <path d="M8461.48,678.75L8461.16,678.47L8457.38,676.04C8457.22,675.9 8456.9,675.76 8456.74,675.62C8455.25,674.901 8453.5,674.901 8452.01,675.62L8408.61,696.28C8408.08,696.568 8407.48,696.713 8406.87,696.7C8406.72,696.7 8406.4,696.85 8406.24,696.85L8357.48,696.85C8357.06,696.827 8356.63,696.874 8356.22,696.99C8355.99,697.023 8355.76,697.12 8355.58,697.27C8355.43,697.27 8355.27,697.42 8355.11,697.42C8354.33,697.72 8353.66,698.268 8353.22,698.98L8345,709.39C8344.59,709.946 8344.28,710.569 8344.09,711.23C8343.98,711.603 8343.91,711.99 8343.9,712.38C8344.02,715.294 8346.51,717.6 8349.42,717.51L8402.76,717.51C8403.59,717.54 8404.41,717.343 8405.13,716.94L8457.37,692.15C8458.17,691.744 8458.88,691.159 8459.42,690.44L8461.31,687.73L8462.89,685.59C8462.96,685.34 8463.06,685.06 8463.16,684.78C8463.26,684.5 8463.43,684.06 8463.52,683.78C8463.82,681.858 8463.03,679.92 8461.48,678.75Z" style="fill:rgb(219,155,79);fill-rule:nonzero;"/>
            </g>
            <g transform="matrix(1,0,0,1,-8184.99,-586.73)">
                <path d="M8235,603.38L8238,614.92C8238.7,617.248 8240.86,618.852 8243.29,618.852C8244.19,618.852 8245.09,618.628 8245.89,618.2C8246.55,617.893 8247.1,617.394 8247.47,616.77L8258.8,602.57L8261.64,599C8263.17,597.124 8263.1,594.388 8261.48,592.59L8258.01,588.59C8256.29,586.7 8253.48,586.228 8251.23,587.45L8238.9,594.21L8238.76,594.29C8235.64,596.148 8234.1,599.862 8235,603.38Z" style="fill:rgb(211,141,47);fill-rule:nonzero;"/>
            </g>
            <g transform="matrix(1,0,0,1,-8184.99,-586.73)">
                <path d="M8221.6,632.87L8215.13,631.3C8209.85,630.053 8204.32,630.555 8199.35,632.73L8190.67,636.58L8190.77,636.77L8197.93,650.25L8225.23,641.56L8224.94,640.95L8224.76,640.57L8221.6,632.87Z" style="fill:rgb(244,207,152);fill-rule:nonzero;"/>
            </g>
            <path d="M400.53,157.71L383.65,168.97L384.12,170.11L401.16,159.56L400.53,157.71Z" style="fill-rule:nonzero;"/>
            <path d="M148.96,51.58L149.92,53.98L153.39,54.69L155.76,52.13L154.66,48.85L151.03,48.14L148.69,50.81L148.66,50.85L148.96,51.58Z" style="fill-rule:nonzero;"/>
            <path d="M175.01,53.13L173.91,54.69L173.91,54.84L174.7,56.55L174.79,56.55L176.91,56.69L178.01,55.12L177.07,53.27L175.01,53.13Z" style="fill-rule:nonzero;"/>
            <path d="M195.78,48.81L195.85,48.85L198.21,47.71L198.21,47.57L198.37,45L196.16,43.72L196.07,43.76L193.64,44.86L193.64,47.43L195.78,48.81Z" style="fill-rule:nonzero;"/>
            <path d="M196.16,62.1L195.69,64.1L197.23,65.63L197.27,65.67L199.47,65.09L199.95,62.96L198.37,61.53L196.16,62.1Z" style="fill-rule:nonzero;"/>
            <path d="M218.89,50.99L219.84,48.28L217.92,46.29L217.78,46.14L214.94,46.71L214.78,47.14L214,49.42L214.03,49.46L216.05,51.56L218.89,50.99Z" style="fill-rule:nonzero;"/>
            <path d="M215.42,61.67L215.41,61.67L214.31,61.96L214,62.96L214.78,63.67L215.89,63.38L216.2,62.39L215.42,61.67Z" style="fill-rule:nonzero;"/>
            <path d="M233.88,42.3L233.25,44.01L234.51,45.29L236.41,45L237.04,43.29L237,43.26L235.77,42.01L233.88,42.3Z" style="fill-rule:nonzero;"/>
            <path d="M234.35,57.54L232.3,57.54L231.35,59.25L232.3,60.82L234.2,60.95L234.35,60.96L234.93,59.92L235.26,59.32L235.3,59.25L234.35,57.54Z" style="fill-rule:nonzero;"/>
            <path d="M228.83,70.22L224.73,69.37L222.04,72.22L223.31,76.07L227.25,76.92L230.06,73.97L230.09,73.93L228.83,70.22Z" style="fill-rule:nonzero;"/>
            <path d="M253.45,44.43L253.13,47.43L253.15,47.44L254.87,49.28L256.92,47.85L257.24,44.86L255.5,43.15L253.45,44.43Z" style="fill-rule:nonzero;"/>
            <path d="M254.4,54.84L253.96,55.88L253.92,55.98L254.71,56.83L255.97,56.69L256.45,55.69L256.41,55.64L255.66,54.69L254.4,54.84Z" style="fill-rule:nonzero;"/>
            <path d="M250.61,64.81L248.56,65.95L248.56,68.09L250.61,69.23L252.65,68.23L252.66,68.23L252.66,65.95L250.61,64.81Z" style="fill-rule:nonzero;"/>
            <path d="M272.84,41.7L272.86,41.73L274.6,41.44L275.07,39.88L273.96,38.59L272.23,38.88L271.76,40.45L272.84,41.7Z" style="fill-rule:nonzero;"/>
            <path d="M272.26,60.1L275.23,59.82L276.33,57.12L274.6,54.84L271.6,55.26L270.34,57.83L272.23,60.11L272.26,60.1Z" style="fill-rule:nonzero;"/>
            <path d="M289.9,37.02L288.01,35.03L285.17,35.46L284.26,38.06L284.22,38.16L286.12,40.16L288.96,39.73L289.9,37.02Z" style="fill-rule:nonzero;"/>
            <path d="M289.75,51.13L290.54,49.56L289.59,48.28L288.01,48.42L287.22,49.85L288.16,51.12L288.17,51.13L289.75,51.13Z" style="fill-rule:nonzero;"/>
            <path d="M289.82,61.86L289.75,61.82L288.96,62.24L288.96,63.24L289.9,63.53L290.69,63.1L290.54,62.24L289.82,61.86Z" style="fill-rule:nonzero;"/>
            <path d="M300.48,41.02L299.21,39.16L299.2,39.16L297.01,39.02L296.85,39.02L295.74,40.73L297.01,42.73L299.37,42.73L300.48,41.02Z" style="fill-rule:nonzero;"/>
            <path d="M316.26,39.45L317.52,39.73L317.55,39.7L318.47,38.73L318,37.45L316.73,37.17L315.79,38.16L316.1,39.45L316.26,39.45Z" style="fill-rule:nonzero;"/>
            <path d="M308.21,44.01L306.79,44.43L306.63,45.86L306.79,46L307.58,46.71L307.74,46.86L309.16,46.29L309.47,44.86L308.21,44.01Z" style="fill-rule:nonzero;"/>
            <path d="M307.74,54.12L306.63,53.98L306,54.84L306.47,55.69L307.58,55.83L308.21,54.98L307.74,54.27L307.74,54.12Z" style="fill-rule:nonzero;"/>
            <path d="M332.99,42.16L330.94,41.87L329.99,42.87L329.71,43.37L329.67,43.44L330.46,45.15L332.36,45.43L332.67,45.15L333.62,43.86L332.99,42.16Z" style="fill-rule:nonzero;"/>
            <path d="M320.36,46L317.05,46.29L315.63,49.14L317.52,51.7L320.84,51.42L322.1,48.57L320.36,46Z" style="fill-rule:nonzero;"/>
            <path d="M317.84,64.67L317.98,62.95L318,62.81L316.42,61.67L314.68,62.53L314.37,64.38L315.62,65.18L315.94,65.38L317.84,64.67Z" style="fill-rule:nonzero;"/>
            <path d="M338.04,56.97L338.67,55.69L337.88,54.55L337.72,54.55L336.3,54.69L335.67,55.98L336.46,57.12L338.04,56.97Z" style="fill-rule:nonzero;"/>
            <path d="M333.78,65.81L334.56,66.09L335.2,65.52L335.04,64.81L334.25,64.53L333.62,65.09L333.78,65.81Z" style="fill-rule:nonzero;"/>
            <path d="M345.45,47.14L343.4,47.14L342.46,48.85L343.4,50.56L345.45,50.56L346.4,48.85L345.45,47.14Z" style="fill-rule:nonzero;"/>
            <path d="M274.75,69.94L272.55,70.79L272.39,70.79L272.07,72.93L273.81,74.5L273.92,74.46L276.17,73.79L276.65,71.51L274.75,69.94Z" style="fill-rule:nonzero;"/>
            <path d="M185.75,73.36L183.22,73.93L182.59,76.35L184.3,78.03L184.33,78.06L186.85,77.49L187.64,75.07L185.75,73.36Z" style="fill-rule:nonzero;"/>
            <path d="M168.7,70.08L168.68,70.08L167.12,69.94L167.11,69.95L166.02,71.22L166.81,72.65L168.39,72.79L169.49,71.51L168.71,70.09L168.7,70.08Z" style="fill-rule:nonzero;"/>
            <path d="M204.84,77.49L204.68,78.92L205.95,79.77L207.21,79.06L207.37,77.63L206.1,76.92L204.84,77.49Z" style="fill-rule:nonzero;"/>
            <path d="M122.94,31.47L124.99,31.47L126.09,29.9L126.05,29.82L125.14,28.19L123.09,28.05L121.99,29.76L122.94,31.47Z" style="fill-rule:nonzero;"/>
            <path d="M137.3,42.58L137.89,40.69L137.93,40.59L136.51,39.16L134.46,39.59L133.82,41.44L133.86,41.48L135.25,43.01L137.3,42.58Z" style="fill-rule:nonzero;"/>
            <path d="M123.56,40.66L123.57,40.59L121.04,38.88L120.73,38.73L117.57,40.02L117.25,43.15L119.94,45.15L123.09,43.86L123.56,40.66Z" style="fill-rule:nonzero;"/>
            <path d="M132.4,57.83L130.51,57.69L129.56,59.11L130.35,60.68L132.09,60.82L132.1,60.81L133.19,59.4L132.4,57.83Z" style="fill-rule:nonzero;"/>
            <path d="M140.73,52.47L139.82,50.56L139.66,50.56L137.61,50.42L136.35,52.13L137.3,53.98L139.51,54.27L140.77,52.56L140.73,52.47Z" style="fill-rule:nonzero;"/>
            <path d="M147.08,71.79L146.92,71.22L146.79,70.61L146.76,70.51L145.98,70.37L145.66,70.22L144.72,70.94L144.74,71.05L145.02,72.17L145.03,72.22L145.04,72.22L146.13,72.5L147.08,71.79Z" style="fill-rule:nonzero;"/>
            <path d="M113.63,56.4L112.36,56.55L112.31,56.68L111.89,57.69L112.66,58.52L112.68,58.54L113.78,58.4L114.26,57.4L113.63,56.55L113.63,56.4Z" style="fill-rule:nonzero;"/>
            <path d="M124.2,70.08L122.62,71.79L123.41,73.93L125.78,74.36L127.35,72.65L126.56,70.51L124.2,70.08Z" style="fill-rule:nonzero;"/>
            <path d="M348.61,65.81L349.08,65.95L349.53,65.55L349.56,65.52L349.56,64.95L348.93,64.67L348.86,64.71L348.3,65.09L348.45,65.67L348.61,65.81Z" style="fill-rule:nonzero;"/>
            <path d="M300.32,76.92L300.16,76.92L299.21,78.06L299.69,79.34L299.81,79.37L301.11,79.63L301.58,79.2L301.58,79.34L301.74,79.2L301.74,79.06L302.21,78.63L301.74,77.21L300.32,76.92Z" style="fill-rule:nonzero;"/>
            <path d="M155.44,80.77L154.5,80.91L154.34,80.91L153.87,81.91L154.5,82.76L154.64,82.74L155.6,82.62L156.23,81.62L155.48,80.8L155.44,80.77Z" style="fill-rule:nonzero;"/>
            <path d="M75.12,21.35L73.54,21.78L73.22,23.35L73.25,23.37L74.49,24.34L76.06,23.92L76.38,22.35L75.12,21.35Z" style="fill-rule:nonzero;"/>
            <path d="M70.89,28.23L70.86,28.19L68.33,28.9L67.86,31.33L69.75,33.04L72.28,32.32L72.75,29.9L70.89,28.23Z" style="fill-rule:nonzero;"/>
            <path d="M85.69,25.2L86.32,25.06L86.33,25.04L86.45,24.46L86.48,24.34L86.16,24.2L85.9,24.08L85.85,24.06L85.38,24.2L85.22,24.77L85.69,25.2Z" style="fill-rule:nonzero;"/>
            <path d="M87.11,33.89L87.1,33.89L85.38,33.46L84.11,34.46L84.59,36.17L86.17,36.6L87.43,35.46L87.11,33.89Z" style="fill-rule:nonzero;"/>
            <path d="M99.44,28.32L100.84,26.62L99.89,24.63L99.64,24.58L97.69,24.2L96.26,26.05L97.05,28.05L99.42,28.33L99.44,28.32Z" style="fill-rule:nonzero;"/>
            <path d="M113.94,29.9L113.94,27.91L112.2,27.05L110.47,28.05L110.47,29.9L112.2,30.76L113.94,29.9Z" style="fill-rule:nonzero;"/>
            <path d="M102.58,39.02L102.58,39.59L103.05,39.88L103.68,39.73L103.68,39.02L103.21,38.73L102.58,39.02Z" style="fill-rule:nonzero;"/>
            <path d="M99.42,48.28L99.42,49.28L100.37,49.85L101.31,49.28L101.31,48.28L100.37,47.85L99.42,48.28Z" style="fill-rule:nonzero;"/>
            <path d="M86.48,45L84.59,44.29L84.54,44.33L82.85,45.57L83.17,47.57L85.22,48.28L86.95,47L86.8,46.71L86.48,45Z" style="fill-rule:nonzero;"/>
            <path d="M65.02,41.44L65.02,42.3L65.65,42.73L66.44,42.44L66.59,41.59L65.81,41.02L65.02,41.44Z" style="fill-rule:nonzero;"/>
            <path d="M99.26,64.24L98.33,64.94L98.32,64.95L98.47,66.09L99.58,66.38L100.53,65.67L100.37,64.53L99.26,64.24Z" style="fill-rule:nonzero;"/>
            <path d="M151.5,98.58L151.66,96.44L149.76,95.16L149.67,95.2L147.55,96.16L147.55,98.29L149.45,99.58L151.03,98.72L151.5,98.58Z" style="fill-rule:nonzero;"/>
            <path d="M176.28,89.74L175.49,87.89L173.28,87.61L171.86,89.32L172.81,91.17L172.9,91.18L175.01,91.45L176.28,89.74Z" style="fill-rule:nonzero;"/>
            <path d="M150.24,113.68L149.61,116.23L149.61,116.25L151.5,118.1L154.18,117.39L154.97,114.82L153.08,112.97L150.24,113.68Z" style="fill-rule:nonzero;"/>
            <path d="M135.72,113.82L134.3,114.82L134.46,116.53L136.03,117.24L137.46,116.25L137.3,114.54L135.72,113.82Z" style="fill-rule:nonzero;"/>
            <path d="M140.14,134.91L142.35,135.91L144.24,134.77L144.24,132.63L142.19,131.49L140.14,132.63L140.14,134.91Z" style="fill-rule:nonzero;"/>
            <path d="M153.39,143.18L151.34,143.03L150.47,144.17L149.92,144.89L151.03,146.74L153.24,146.88L154.5,145.17L154.46,145.09L153.55,143.18L153.39,143.18Z" style="fill-rule:nonzero;"/>
            <path d="M143.93,154.57L144.72,152.29L142.98,150.44L140.45,151.01L139.66,153.29L141.53,155.12L141.56,155.15L143.93,154.57Z" style="fill-rule:nonzero;"/>
            <path d="M151.5,159.13L151.41,159.28L150.55,160.56L151.19,161.56L151.5,161.98L153.08,161.98L153.87,160.56L153.08,159.13L151.5,159.13Z" style="fill-rule:nonzero;"/>
            <path d="M144.56,172.81L143.45,172.81L143.14,173.67L143.61,174.38L144.56,174.38L145.03,173.53L144.56,172.81Z" style="fill-rule:nonzero;"/>
            <path d="M135.72,93.16L136.19,92.02L135.56,91.03L134.3,91.17L133.67,92.17L133.71,92.23L134.46,93.31L135.72,93.16Z" style="fill-rule:nonzero;"/>
            <path d="M320.52,80.34L319.26,81.19L319.28,81.32L319.57,82.73L319.57,82.76L319.58,82.76L320.99,83.19L322.26,82.33L321.94,80.77L320.52,80.34Z" style="fill-rule:nonzero;"/>
            <path d="M335.83,80.63L334.89,79.49L334.87,79.49L333.3,79.77L332.99,81.19L333.93,82.33L334.06,82.3L335.51,81.91L335.83,80.63Z" style="fill-rule:nonzero;"/>
            <path d="M329.2,96.58L328.57,93.59L325.57,92.74L323.2,94.73L323.83,97.72L326.83,98.58L326.99,98.58L329.2,96.58Z" style="fill-rule:nonzero;"/>
            <path d="M343.72,89.74L343.72,89.46L343.56,89.32L343.4,89.46L343.25,89.6L343.56,89.74L343.72,89.74Z" style="fill-rule:nonzero;"/>
            <path d="M338.2,102L338.05,102.01L335.67,102.28L334.56,104.56L336.14,106.56L338.67,106.27L339.77,103.99L338.2,102Z" style="fill-rule:nonzero;"/>
            <path d="M328.41,121.66L328.25,121.95L327.94,122.52L328.41,123.37L329.51,123.37L329.99,122.52L329.51,121.52L328.41,121.66Z" style="fill-rule:nonzero;"/>
            <path d="M339.64,117.92L339.62,117.96L339.93,118.95L341.06,119.21L341.19,119.24L341.98,118.38L341.51,117.24L340.4,117.1L339.64,117.92Z" style="fill-rule:nonzero;"/>
            <path d="M343.09,140.75L342.61,141.47L342.9,141.9L343.09,142.18L343.88,142.32L344.35,141.61L344.03,140.9L343.09,140.75Z" style="fill-rule:nonzero;"/>
            <path d="M316.89,105.99L316.26,108.55L318.42,110.23L318.47,110.26L320.99,109.41L321.63,106.84L319.42,105.13L316.89,105.99Z" style="fill-rule:nonzero;"/>
            <path d="M360.29,77.06L362.18,77.63L363.59,76.36L363.76,76.21L363.29,74.36L361.24,73.79L361.2,73.82L359.66,75.21L359.82,75.5L360.29,77.06Z" style="fill-rule:nonzero;"/>
            <path d="M364.39,87.61L365.81,88.89L367.87,88.18L368.18,86.33L366.76,85.04L366.64,85.08L364.71,85.61L364.39,87.59L364.39,87.61Z" style="fill-rule:nonzero;"/>
            <path d="M349.08,80.34L349.11,80.34L351.45,80.06L352.24,77.92L350.69,76.23L350.66,76.21L348.45,76.64L347.67,78.63L347.7,78.67L348.85,80.05L349.08,80.34Z" style="fill-rule:nonzero;"/>
            <path d="M341.35,129.07L339.93,129.21L339.62,129.93L339.46,130.35L340.25,131.49L341.35,131.24L341.51,131.21L342.14,130.07L341.35,129.07Z" style="fill-rule:nonzero;"/>
            <path d="M350.66,139.9L349.26,140.89L349.24,140.9L349.4,142.46L350.98,143.18L352.4,142.18L352.24,140.61L350.66,139.9Z" style="fill-rule:nonzero;"/>
            <g transform="matrix(1,0,0,1,-8184.99,-586.73)">
                <path d="M8644.23,786.9C8643.54,785.831 8642.47,785.065 8641.23,784.76L8597.23,772.08C8596.66,771.964 8596.07,771.917 8595.49,771.94C8594.09,771.932 8592.86,772.872 8592.49,774.22L8589,785.9L8588.53,788.61L8588.53,789L8589.16,789.14L8590.42,789.57L8636.35,804.24C8637.76,804.648 8639.27,804.549 8640.61,803.96L8651.97,798.69L8644.23,786.9Z" style="fill:rgb(7,7,7);fill-rule:nonzero;"/>
            </g>
            <path d="M12.01,39.27L1.01,41.27L0.01,42.27L6.01,48.27L12.01,39.27Z" style="fill:rgb(7,7,7);fill-rule:nonzero;"/>
        </g>
    </g>
</svg>
