<?xml version="1.0" encoding="UTF-8" standalone="no"?>
<!DOCTYPE svg PUBLIC "-//W3C//DTD SVG 1.1//EN" "http://www.w3.org/Graphics/SVG/1.1/DTD/svg11.dtd">
<svg width="100%" height="100%" viewBox="0 0 380 218" version="1.1" xmlns="http://www.w3.org/2000/svg" xmlns:xlink="http://www.w3.org/1999/xlink" xml:space="preserve" xmlns:serif="http://www.serif.com/" style="fill-rule:evenodd;clip-rule:evenodd;">
    <g id="Ebene_43_Kopie_4" transform="matrix(1,0,0,1,-10060,-501)">
        <g id="Ebene_1">
            <path d="M10303,549.79C10303,549.72 10302.9,549.646 10302.9,549.57C10302.9,549.646 10303,549.72 10303,549.79Z" style="fill-rule:nonzero;"/>
            <path d="M10302.6,548.83C10302.6,548.78 10302.6,548.73 10302.5,548.67C10302.5,548.61 10302.6,548.78 10302.6,548.83Z" style="fill-rule:nonzero;"/>
            <path d="M10305.5,539.4C10304.7,539.838 10304,540.419 10303.5,541.11C10304,540.459 10304.7,539.885 10305.5,539.4Z" style="fill-rule:nonzero;"/>
            <path d="M10316.2,543.07L10316.2,543L10316.2,543.07Z" style="fill-rule:nonzero;"/>
            <path d="M10318.9,629.71C10318.8,626.792 10318.4,623.892 10317.7,621.05C10318.3,623.904 10318.7,626.798 10318.9,629.71Z" style="fill-rule:nonzero;"/>
            <path d="M10303.5,550.57C10303.4,550.519 10303.4,550.466 10303.4,550.41C10303.4,550.466 10303.4,550.519 10303.5,550.57Z" style="fill-rule:nonzero;"/>
            <path d="M10154.9,576.61C10155,576.13 10155.5,575.31 10156.2,573.93C10155.2,575.48 10154.5,576.2 10154.9,576.61Z" style="fill-rule:nonzero;"/>
            <path d="M10334.1,639L10320.5,633.3L10320.5,632.59L10320.4,632.52L10320.4,633.59C10320.4,634.732 10320.4,635.875 10320.2,637.01C10320.2,637.29 10320.1,637.72 10320.1,638.01L10320.1,638.44C10319.1,645.14 10316.9,649.84 10316.1,661.24C10316.1,662.52 10316.1,661.38 10316,664.66L10316,667.66C10318.3,670.738 10321.3,673.223 10324.7,674.91C10335.6,680.47 10351.3,679.62 10353.7,674.49C10355,671.92 10353.4,667.79 10350.6,665.8C10346.3,662.8 10341,665.8 10337.2,662.66C10336.4,662.09 10334.8,660.52 10334.2,655.66C10333.3,648.09 10336.4,643.27 10338.4,639C10337.1,639.583 10335.5,639.583 10334.1,639Z" style="fill:rgb(191,128,60);fill-rule:nonzero;"/>
            <path d="M10188.6,616.35L10187.2,616.77L10187.1,616.77C10188.3,624.84 10193.7,635.77 10188.6,642.11C10188.1,642.83 10186.7,644.25 10187.2,645.96C10187.8,649.1 10193.7,649.52 10199,651.96C10208.5,656.1 10206.6,661.51 10215.1,666.5C10224.4,672.06 10238.6,672.5 10243.4,667.07C10245.6,664.5 10246.1,660.23 10244.2,657.95C10242.2,655.38 10237.7,655.38 10233.7,655.38C10228.4,655.38 10227.6,656.67 10224.9,656.38C10218.6,655.67 10212.4,647.83 10211.6,640.57C10211,633.04 10216.4,628.38 10219.9,624.19C10214.4,620.31 10212.6,616.88 10204.7,615.49C10199.3,614.556 10193.8,614.85 10188.6,616.35Z" style="fill:rgb(191,128,60);fill-rule:nonzero;"/>
            <path d="M10374.9,545.86L10361.1,536.41C10358.3,534.478 10354.5,534.538 10351.8,536.56L10349.3,538.39C10347.1,540.032 10344.2,540.436 10341.6,539.46L10337.3,537.94C10335,537.077 10332.5,537.302 10330.3,538.55L10321.6,543.88C10319.5,545.195 10318.2,547.497 10318.2,549.98L10318.5,570.55C10319,572.594 10320,574.458 10321.5,575.89C10321.7,576.04 10322,576.19 10322.2,576.35L10346.3,591.74C10346.6,591.89 10346.8,592.05 10347.1,592.2C10347.2,592.213 10347.3,592.265 10347.4,592.35C10348.7,592.862 10350.1,593.07 10351.5,592.96L10363.6,591.59C10366.4,591.36 10368.8,589.59 10369.9,587.02L10376.6,570.71C10376.9,570.047 10377.1,569.313 10377.1,568.57L10378.1,551.96C10378.2,549.803 10377.3,547.719 10375.6,546.32C10375.4,546.17 10375,546 10374.9,545.86ZM10365.4,556.08C10364.5,556.366 10363.7,556.557 10362.8,556.65C10360.5,556.79 10358.3,556.22 10358.1,555.36C10357.9,554.5 10358.9,553.94 10360.3,553.51C10360.9,553.37 10361.6,553.23 10362.4,553.08C10364.9,552.8 10366.9,553.37 10367.1,554.37C10367.1,555.08 10366.5,555.65 10365.4,556.08ZM10365.5,568.9L10357.3,575.17L10348.8,570.75L10365.5,568.9ZM10335.7,556.08C10336.1,555.912 10336.6,555.814 10337.1,555.79C10339.3,555.65 10341.2,556.22 10341.4,557.22C10341.4,557.79 10340.6,558.5 10339.5,558.92C10339,559.07 10338.2,559.21 10337.6,559.35C10335.4,559.64 10333.5,558.92 10333.3,558.07C10333.2,557.22 10334.3,556.5 10335.7,556.08Z" style="fill:rgb(219,168,101);fill-rule:nonzero;"/>
            <path d="M10124.6,659.09C10124.2,658.719 10123.8,658.384 10123.3,658.09C10123.3,657.95 10123.2,657.95 10123.2,657.95C10121.7,656.973 10120,656.341 10118.3,656.1C10118.4,656.004 10118.4,655.904 10118.5,655.8C10116.8,655.519 10115.1,655.519 10113.4,655.8C10110.4,656.663 10107.5,657.86 10104.7,659.37C10096.8,663.21 10095.4,663.07 10095.2,664.07C10094.9,666.78 10104.2,670.91 10112.9,669.48C10118.9,668.48 10126.2,664.64 10125.9,660.79C10125.8,660.059 10125.5,659.361 10125.1,658.79L10124.9,658.92C10124.7,659 10124.7,659.09 10124.6,659.09Z" style="fill:rgb(127,82,41);fill-rule:nonzero;"/>
            <path d="M10357.3,575.17L10365.5,568.9L10348.8,570.75L10357.3,575.17Z" style="fill:rgb(196,128,45);fill-rule:nonzero;"/>
            <path d="M10337.6,559.35C10338.2,559.21 10339,559.07 10339.5,558.92C10340.6,558.5 10341.4,557.79 10341.4,557.22C10341.2,556.22 10339.3,555.65 10337.1,555.79C10336.6,555.814 10336.1,555.912 10335.7,556.08C10334.3,556.5 10333.2,557.22 10333.3,558.08C10333.5,558.94 10335.4,559.64 10337.6,559.35Z" style="fill:rgb(2,2,2);fill-rule:nonzero;"/>
            <path d="M10362.4,553.08C10361.6,553.23 10360.9,553.37 10360.3,553.51C10358.9,553.94 10357.9,554.65 10358.1,555.36C10358.3,556.07 10360.5,556.79 10362.8,556.65C10363.7,556.557 10364.5,556.366 10365.4,556.08C10366.5,555.65 10367.1,555.08 10367.1,554.37C10366.9,553.37 10364.9,552.8 10362.4,553.08Z" style="fill:rgb(2,2,2);fill-rule:nonzero;"/>
            <path d="M10129.3,649.12C10129.3,648.98 10129.4,648.83 10129.4,648.69C10129.7,647.98 10129.9,647.27 10130.2,646.55C10133.7,638 10137.6,635.72 10141.4,631.73C10143.8,629.165 10145.8,626.17 10147.1,622.9C10152.3,610.98 10149,602.6 10148.1,594.21C10134.1,629.84 10124.7,647.96 10118.5,655.8C10118.5,655.904 10118.4,656.004 10118.3,656.1C10120.1,656.341 10121.7,656.973 10123.2,657.95C10124.7,658.927 10123.4,657.95 10123.4,658.09C10123.8,658.384 10124.2,658.719 10124.6,659.09C10124.8,659.09 10124.8,658.95 10124.9,658.95L10125.1,658.82C10125.8,658.25 10126.6,657.57 10127.4,656.82C10127.4,656.43 10127.5,656.03 10127.6,655.64C10128,653.39 10128.6,651.25 10129.3,649.12Z" style="fill:rgb(191,128,60);fill-rule:nonzero;"/>
            <path d="M10206.2,564.49C10196.2,562.38 10188.9,560.66 10178.4,563.2C10177.4,563.45 10175.8,563.8 10173.9,564.35C10184.6,562.889 10195.5,562.937 10206.2,564.49Z" style="fill:rgb(219,150,75);fill-rule:nonzero;"/>
            <path d="M10234.3,567.78C10228.2,567.858 10222.1,567.372 10216.1,566.33L10214.1,566.03C10218.1,567.03 10219.3,567.65 10224.1,568.03C10227.5,568.298 10231,568.215 10234.3,567.78Z" style="fill:rgb(219,150,75);fill-rule:nonzero;"/>
            <path d="M10156.5,573.36L10156.5,573.42L10156.5,573.42L10156.5,573.36Z" style="fill:rgb(219,150,75);fill-rule:nonzero;"/>
            <path d="M10156.6,573.32L10156.7,573.24L10156.6,573.32Z" style="fill:rgb(219,150,75);fill-rule:nonzero;"/>
            <path d="M10156.6,573.28C10156.6,573.28 10172,564.62 10172,564.62C10166.4,566.463 10161.1,569.406 10156.6,573.28Z" style="fill:rgb(219,150,75);fill-rule:nonzero;"/>
            <path d="M10316,664.65C10316.2,661.37 10316.2,662.51 10316.2,661.23C10317,649.83 10319.2,645.13 10320.1,638.43L10320.1,638C10320.1,637.72 10320.3,637.29 10320.3,637C10320.4,635.865 10320.5,634.722 10320.4,633.58L10320.4,632L10318.8,631.29L10317.7,630.86C10317,630.52 10316.3,630.034 10315.7,629.43L10310.3,622.88L10302,612.48C10301.8,612.19 10301.5,612.05 10301.3,611.77L10290,602.36L10289.8,602.22C10289.3,601.801 10288.9,601.26 10288.7,600.65L10288.7,600.51L10282.8,586.93C10281.9,586.03 10281.2,585.022 10280.6,583.93C10280.4,584.095 10280.2,584.239 10280,584.36C10276.1,587.64 10267.7,589.92 10252.4,590.06C10233.1,590.2 10202.9,586.78 10156,577.38C10155.8,577.387 10155.5,577.339 10155.4,577.24L10155.5,577.34L10155.4,577.24C10154.9,577.12 10154.8,576.92 10154.9,576.54C10154.6,576.13 10155.2,575.41 10156.2,573.86L10156.4,573.43C10154.5,575.177 10152.8,577.175 10151.4,579.37C10149.1,583.008 10147.8,587.286 10148,591.63C10148,592.47 10148.1,593.3 10148.1,594.14C10149,602.53 10152.3,610.91 10147.1,622.83C10145.8,626.1 10143.9,629.095 10141.5,631.66C10137.7,635.66 10133.7,637.93 10130.3,646.48C10129.9,647.2 10129.8,647.91 10129.5,648.62C10129.5,648.76 10129.3,648.91 10129.3,649.05C10128.7,651.18 10128,653.32 10127.6,655.6C10127.5,655.99 10127.4,656.39 10127.4,656.78C10125.4,668.17 10126.9,680.71 10135.6,685.78C10142.6,689.91 10154.6,689.48 10159.6,684.07C10161.4,682.22 10163.1,678.65 10161.7,676.52C10158.8,672.52 10147.8,677.8 10143.2,673.95C10138.2,669.68 10143.4,656.57 10148.7,647.88C10156.3,635.88 10170.9,621.7 10187.2,616.69L10187.2,616.69L10188.6,616.27C10193.9,614.77 10199.4,614.476 10204.8,615.41C10212.6,616.8 10214.5,620.23 10220,624.11L10220.4,624.39C10221,624.82 10221.5,625.1 10222.1,625.53C10225.5,627.523 10229.1,629.145 10232.8,630.37C10238.7,632.37 10261.3,639.92 10278.1,630.8C10283.3,628.09 10284.1,625.67 10286.5,626.24C10297.1,628.66 10300.9,678.96 10301.2,682.81C10301.3,684.4 10301.8,685.931 10302.8,687.22C10307.5,693.78 10323.3,695.06 10329.1,688.93C10329.6,688.36 10332.1,685.8 10331.3,683.23C10330.2,679.23 10322.5,680.1 10318.2,675.54C10317.1,674.44 10316.1,672.8 10316,667.54L10316,666.96L10316,664.65Z" style="fill:rgb(219,150,75);fill-rule:nonzero;"/>
            <path d="M10155.3,577.31L10155.4,577.41" style="fill:none;fill-rule:nonzero;stroke:rgb(211,143,61);stroke-width:1px;"/>
            <path d="M10154.9,576.61C10154.8,576.99 10154.9,577.19 10155.3,577.31C10155.5,577.409 10155.7,577.457 10155.9,577.45C10202.8,586.85 10233.1,590.27 10252.4,590.13C10267.7,589.99 10276,587.71 10280,584.43C10280.2,584.309 10280.4,584.165 10280.5,584C10279,581.349 10277.8,578.471 10277.2,575.47C10276,570.31 10276.1,565.47 10277.2,562.47L10277.1,562.47C10274.8,561.9 10270.5,561.9 10261.7,563.04C10248.9,564.6 10242,566.6 10235.5,567.6L10234.3,567.76C10230.9,568.199 10227.5,568.286 10224.1,568.02C10219.3,567.63 10218.1,567.02 10214,566.02L10212.9,565.75C10211.3,565.501 10209.6,565.167 10208,564.75C10207.4,564.64 10206.8,564.56 10206.2,564.47C10195.5,562.917 10184.6,562.869 10173.9,564.33L10172.8,564.46C10172.5,564.6 10172.2,564.6 10171.9,564.75L10156.5,573.38L10156.4,573.38L10156.2,573.81C10155.5,575.31 10155,576.13 10154.9,576.61Z" style="fill:rgb(211,143,61);fill-rule:nonzero;"/>
            <path d="M10306,552.07C10304.3,547.28 10310.1,541.84 10313.7,542L10314.1,542C10314.9,542.08 10315.6,542.434 10316.2,543C10316.4,541.32 10316.3,540 10315,539C10313.2,537.58 10310,537.27 10307.7,538C10306.9,538.43 10306.2,538.904 10305.4,539.42C10304.7,539.905 10304,540.479 10303.4,541.13C10301.8,543.317 10301.5,546.177 10302.5,548.69C10302.5,548.75 10302.5,548.8 10302.6,548.85C10302.6,549.1 10302.7,549.35 10302.9,549.59C10302.9,549.666 10302.9,549.74 10303,549.81C10303.1,550.02 10303.2,550.23 10303.3,550.43C10303.3,550.486 10303.4,550.539 10303.4,550.59C10303.5,550.8 10303.7,551.01 10303.8,551.21C10304.5,552.127 10305.4,552.824 10306.5,553.21C10306.2,552.854 10306.1,552.47 10306,552.07Z" style="fill:rgb(219,168,101);fill-rule:nonzero;"/>
            <path d="M10371.7,531.85L10371.7,532.28C10371.7,532.39 10371.8,532.49 10371.9,532.6C10372.5,532.379 10373.2,532.271 10373.9,532.28C10375.4,532.28 10377.3,532.61 10378.3,534.09C10379.7,535.9 10378.5,538.36 10378,539.35C10377.1,541.25 10375.4,542.88 10374.4,542.98C10374.8,543.947 10375.6,544.711 10376.5,545.1C10377.6,545.297 10378.7,544.983 10379.5,544.25C10381.4,542.865 10382.8,540.986 10383.6,538.83C10383.8,538.48 10383.9,538.1 10384,537.65C10384,537.57 10384.1,537.5 10384.1,537.41C10384.4,536.13 10384.7,534.7 10383.8,533.41C10382.4,531.13 10378.9,530.41 10375.9,530.56L10375.7,530.56C10373.6,530.61 10371.8,531.16 10371.7,531.85Z" style="fill:rgb(219,168,101);fill-rule:nonzero;"/>
            <path d="M10310,553.63L10309.7,553.63" style="fill:none;fill-rule:nonzero;stroke:rgb(127,82,41);stroke-width:1px;"/>
            <path d="M10316.9,544.31L10316.9,544.4" style="fill:none;fill-rule:nonzero;stroke:rgb(127,82,41);stroke-width:1px;"/>
            <path d="M10316.9,544.31L10316.9,544.24C10317,544.01 10316.9,543.778 10316.8,543.6C10316.8,543.6 10316.8,543.599 10316.8,543.599C10316.8,543.511 10316.7,543.439 10316.6,543.439C10316.6,543.439 10316.6,543.439 10316.6,543.44C10316.5,543.311 10316.4,543.188 10316.2,543.07C10315.7,542.504 10314.9,542.15 10314.1,542.07L10313.8,542.07C10310.2,541.91 10304.3,547.35 10306,552.14C10306.1,552.548 10306.3,552.936 10306.6,553.29C10306.8,553.648 10307.2,553.918 10307.6,554.06L10307.9,554.06C10308.6,554.087 10309.2,553.978 10309.8,553.74C10313.1,552.56 10317.6,548.33 10317,544.63L10316.9,544.31Z" style="fill:rgb(127,82,41);fill-rule:nonzero;"/>
            <path d="M10378,539.35C10378.5,538.35 10379.7,535.9 10378.3,534.09C10377.3,532.61 10375.4,532.28 10373.9,532.28C10373.2,532.271 10372.5,532.379 10371.9,532.6L10371.7,532.6C10371.7,532.93 10372.4,533.09 10373.1,534.6C10373.4,535.42 10374.3,535.92 10374.4,537.07C10374.6,538.053 10374.3,539.048 10373.7,539.86C10373.5,540.548 10373.5,541.284 10373.6,542C10373.6,542.348 10373.8,542.667 10374.1,542.82L10374.1,543C10374.2,543.03 10374.3,543.03 10374.4,543C10375.4,542.88 10377.1,541.25 10378,539.35Z" style="fill:rgb(127,82,41);fill-rule:nonzero;"/>
            <path d="M10391.4,551.94C10392.3,550.577 10392.4,548.804 10391.6,547.38L10390.5,545.67C10390.3,545.53 10390.3,545.39 10390.1,545.25L10384.1,537.65C10383.9,538.1 10383.8,538.48 10383.7,538.83C10382.8,540.986 10381.4,542.865 10379.6,544.25C10378.7,544.983 10377.6,545.297 10376.6,545.1C10375.6,544.711 10374.8,543.947 10374.4,542.98C10374.3,543.01 10374.2,543.01 10374.1,542.98L10374.1,542.49L10374.1,542.82C10373.8,542.667 10373.6,542.348 10373.6,542C10373.4,541.284 10373.5,540.548 10373.7,539.86C10374.3,539.048 10374.5,538.053 10374.4,537.07C10374.2,535.92 10373.4,535.42 10373,534.6C10372.4,533.12 10371.7,532.96 10371.7,532.6L10371.9,532.6C10371.8,532.49 10371.7,532.39 10371.7,532.28L10371.7,531.85C10371.8,531.16 10373.7,530.61 10375.8,530.58L10365.8,522.88C10365.1,522.326 10364.2,521.937 10363.3,521.74L10342.8,518.32C10342.1,518.17 10341.3,518.17 10340.6,518.32L10319.9,523.02C10319.3,523.169 10318.7,523.408 10318.2,523.73L10297.7,537.12C10297.5,537.269 10297.4,537.372 10297.2,537.41L10290.9,540.54C10282.2,544.88 10277,553.2 10277.4,561.99L10277.2,562.51C10276.1,565.51 10276,570.31 10277.2,575.51C10277.8,578.511 10279,581.389 10280.5,584.04C10281.1,585.132 10281.9,586.14 10282.8,587.04L10288.7,600.62L10288.7,600.76C10288.9,601.37 10289.3,601.911 10289.8,602.33L10289.9,602.47L10301.3,611.88C10301.4,612.16 10301.8,612.3 10301.9,612.59L10310.3,622.99L10315.6,629.54C10316.2,630.144 10316.9,630.63 10317.7,630.97L10318.8,631.4L10320.4,632.11L10320.4,632.61L10320.5,632.68L10320.5,633.39L10334.1,639.09C10335.5,639.685 10337.1,639.685 10338.5,639.09C10338.9,638.904 10339.4,638.662 10339.8,638.37L10340.4,637.8C10340.6,637.51 10340.9,637.23 10341.1,636.94C10342.3,634.868 10344.7,633.825 10347.1,634.38L10349.6,634.95C10351.8,635.484 10354.1,634.637 10355.4,632.81L10365.2,617.42L10384.6,586.22L10387.1,582.51L10387.5,581.94L10390.3,577.94C10391,576.968 10391.3,575.694 10390.9,574.52L10387.5,560.41C10387.2,559.232 10387.4,557.996 10388.1,556.99L10391.4,551.94ZM10309.8,553.67C10309.2,553.908 10308.5,554.017 10307.9,553.99L10307.5,553.99C10307.1,553.848 10306.8,553.578 10306.5,553.22C10305.5,552.834 10304.5,552.137 10303.9,551.22C10303.7,551.02 10303.6,550.81 10303.5,550.6C10303.4,550.549 10303.4,550.496 10303.4,550.44C10303.3,550.24 10303.1,550.03 10303,549.82C10303,549.75 10303,549.676 10302.9,549.6C10302.8,549.36 10302.7,549.11 10302.6,548.86C10302.6,548.81 10302.6,548.76 10302.6,548.7C10301.5,546.187 10301.9,543.327 10303.5,541.14C10304.1,540.449 10304.7,539.868 10305.5,539.43C10306.2,538.914 10307,538.44 10307.8,538.01C10310,537.3 10313.3,537.61 10315.1,539.01C10316.4,540.01 10316.5,541.33 10316.3,543.01L10316.3,543.08C10316.4,543.198 10316.5,543.321 10316.6,543.45C10316.6,543.449 10316.6,543.449 10316.6,543.449C10316.7,543.449 10316.8,543.521 10316.8,543.609C10316.8,543.609 10316.8,543.61 10316.8,543.61C10316.9,543.788 10317,544.02 10317,544.25L10317,544.57C10317.6,548.26 10313,552.49 10309.8,553.67ZM10378,552L10377,568.61C10377,569.353 10376.8,570.087 10376.5,570.75L10369.8,587.06C10368.7,589.63 10366.3,591.4 10363.6,591.63L10351.4,593C10350,593.11 10348.6,592.902 10347.3,592.39C10347.2,592.305 10347.1,592.253 10347,592.24C10346.7,592.09 10346.5,591.93 10346.2,591.78L10322.1,576.39C10321.9,576.23 10321.6,576.08 10321.5,575.93C10319.9,574.498 10318.9,572.634 10318.5,570.59L10318.1,550.02C10318.2,547.537 10319.5,545.235 10321.6,543.92L10330.3,538.59C10332.4,537.342 10334.9,537.117 10337.3,537.98L10341.5,539.5C10344.1,540.476 10347,540.072 10349.2,538.43L10351.7,536.6C10354.4,534.578 10358.2,534.518 10361,536.45L10374.8,545.9C10374.9,546.05 10375.3,546.21 10375.4,546.36C10377.1,547.737 10378.1,549.824 10378,552Z" style="fill:rgb(226,131,27);fill-rule:nonzero;"/>
        </g>
    </g>
</svg>
