<svg id="Nashorn" xmlns="http://www.w3.org/2000/svg" viewBox="0 0 143 79.9"><defs><style>.cls-1{fill:#4d5151;}.cls-2{fill:none;}.cls-3{fill:#505453;}.cls-4{fill:#394240;}.cls-5{fill:#6f7775;}.cls-6{fill:#58605e;}</style></defs><g id="Safari2_Kopie" data-name="Safari2 Kopie"><g id="Nashorn_Kopie" data-name="Nashorn Kopie"><path class="cls-1" d="M8102,512.67" transform="translate(-8079 -434.9)"/><path class="cls-1" d="M8113.27,509.38a1.08,1.08,0,0,0-.8.35l.44,4.32a.92.92,0,0,0,1,.74h19.32c.59,0,1.05-.43,1-.92l-.64-3.89c0-.1-.06-.31-.1-.59h-20.15Z" transform="translate(-8079 -434.9)"/><path class="cls-1" d="M8169,509.92h-19a1,1,0,0,0-.6.2l-.12,1.89a2.9,2.9,0,0,0,3.16,2.78h16.22a1,1,0,0,0,.63-.19l4.19-3,.09-.12C8173.52,510.9,8169.58,509.92,8169,509.92Z" transform="translate(-8079 -434.9)"/><rect class="cls-1" x="11" y="74.1" width="13" height="4" rx="2"/><path class="cls-2" d="M8166.32,449.52a1.18,1.18,0,0,0,0-.2l-1-3,1,3A1.18,1.18,0,0,1,8166.32,449.52Z" transform="translate(-8079 -434.9)"/><polygon class="cls-2" points="100.15 64.02 99.21 63.38 100.15 64.02 100.19 64.05 100.15 64.02"/><path class="cls-2" d="M8179.21,499.32c.13.08.24.17.38.24h0C8179.45,499.49,8179.34,499.4,8179.21,499.32Z" transform="translate(-8079 -434.9)"/><path class="cls-2" d="M8205.69,447.68a2,2,0,0,1,.77.16A2,2,0,0,0,8205.69,447.68Z" transform="translate(-8079 -434.9)"/><path class="cls-2" d="M8165.31,446.35a1.6,1.6,0,0,0-1.55-1h0A1.6,1.6,0,0,1,8165.31,446.35Z" transform="translate(-8079 -434.9)"/><path class="cls-2" d="M8178.45,498.67a3.55,3.55,0,0,1-.35-.44,3.55,3.55,0,0,0,.35.44,2.83,2.83,0,0,0,.25.24A2.83,2.83,0,0,1,8178.45,498.67Z" transform="translate(-8079 -434.9)"/><path class="cls-2" d="M8159.77,449.3a17.21,17.21,0,0,0-1.74,2.44,31.74,31.74,0,0,0,2,3.53,31.74,31.74,0,0,1-2-3.53A17.21,17.21,0,0,1,8159.77,449.3Z" transform="translate(-8079 -434.9)"/><polygon class="cls-2" points="82.97 23.62 82.97 23.62 85.75 19.26 82.97 23.62"/><path class="cls-1" d="M8101.91,503.62l-.85,6a.7.7,0,0,1,.16.19l1.41,2.9h3.22c1.43,0,2.47-1.13,2.1-2.28-.8-2.54-2.11-6.64-3.11-9.38h-1.27C8103.1,501.65,8102.51,502.59,8101.91,503.62Z" transform="translate(-8079 -434.9)"/><path class="cls-3" d="M8165.68,452.71l.63-2.79a1.34,1.34,0,0,0,0-.4,1.18,1.18,0,0,0,0-.2l-1-3a1.6,1.6,0,0,0-1.55-1,1.72,1.72,0,0,0-1.34.59c-.54.67-1.44,1.8-2.29,2.89l-.36.46a17.21,17.21,0,0,0-1.74,2.44,31.74,31.74,0,0,0,2,3.53c1,1.65,2,3.24,2,3.24l2.78-4.35Z" transform="translate(-8079 -434.9)"/><path class="cls-3" d="M8203.38,456l2.3-.69a1.59,1.59,0,0,0,.42-.19,1.5,1.5,0,0,0,.58-.62l.79-1.71.63-1.36a1,1,0,0,0,.07-.33,1,1,0,0,0,0-.35,1.36,1.36,0,0,0-.06-.29l-.31-.71-.53-1.18a1.47,1.47,0,0,0-.81-.76,2,2,0,0,0-.77-.16,1.85,1.85,0,0,0-.66.13,1.62,1.62,0,0,0-.49.25l-.81.62-.64.5a.55.55,0,0,0-.11.1,1.35,1.35,0,0,0-.31.41l-1.43,3a1.1,1.1,0,0,0-.11.5v.41a1.29,1.29,0,0,1,1.13,1.09l.08,1.35a1.77,1.77,0,0,0,.51.05A1.89,1.89,0,0,0,8203.38,456Z" transform="translate(-8079 -434.9)"/><path class="cls-4" d="M8221.86,447.38a1.53,1.53,0,0,0-2.68.24l-2.62,9.79a1.21,1.21,0,0,1-.3.51l-5.85,5.74a1.36,1.36,0,0,1-.39.27l-5,2.31a1.46,1.46,0,0,1-2.13-1l-.38-6.14-.2-3.08h0l-.08-1.35a1.29,1.29,0,0,0-1.13-1.09,1.4,1.4,0,0,0-.35,0,1.49,1.49,0,0,0-1,.37l-10.12,8.85a2.28,2.28,0,0,0-.46.53,2,2,0,0,0-.28.57,2.46,2.46,0,0,0,1.92,3l5.61,1.67a1.6,1.6,0,0,1,.47.24,1.54,1.54,0,0,1,.19.17,1,1,0,0,1,.27.84,1,1,0,0,1-.06.23l-.34.84a1,1,0,0,0,0,.78s0,.06,0,.09l.83,1.45,4.14,7.27a1.39,1.39,0,0,0,1,.65l6.18,1,2.07.33a2.17,2.17,0,0,0,.51,0,1.92,1.92,0,0,0,.48-.15,1.22,1.22,0,0,0,.58-.54l2.14-4a1.11,1.11,0,0,0,.07-.16l6.88-20.72a1.12,1.12,0,0,0,0-.31v-8.67A1,1,0,0,0,8221.86,447.38Z" transform="translate(-8079 -434.9)"/><path class="cls-4" d="M8211.18,489.86l-2.43,0-2.09,0-.53-.1-.55,0h-17.51a3.69,3.69,0,0,0-.58,0,4.2,4.2,0,0,0-1.6.53l-5.37,3.29-1.34.82a2.59,2.59,0,0,0-1.12,3.84h0l0,.06a3.55,3.55,0,0,0,.35.44,2.83,2.83,0,0,0,.25.24c.16.14.33.28.51.41s.24.17.38.24h0a4.75,4.75,0,0,0,1,.43l7.76,2.59a4.46,4.46,0,0,0,2,.18l16.81-2.19a4.08,4.08,0,0,0,2.76-1.58l2.27-3.1a5.54,5.54,0,0,0,1-3.05A2.74,2.74,0,0,0,8211.18,489.86Zm-33,8.41.94.65,0,0,0,0Z" transform="translate(-8079 -434.9)"/><path class="cls-5" d="M8178.7,498.91a2.83,2.83,0,0,1-.25-.24l-14.67-5.05a4.91,4.91,0,0,1-3.31-3.32l-2.29-9.28-2.55-9.35a5.2,5.2,0,0,1,.58-4.06l.74-1.26a8.09,8.09,0,0,0-.77-9.44l-.14-.17a.16.16,0,0,1,0-.07l-1.66-3a2.86,2.86,0,0,1-.1-2.64l1.47-3.15a4.33,4.33,0,0,1,.83-1.19l3.16-3.3a4.39,4.39,0,0,1,2.24-1.19l1.47-.3a5.15,5.15,0,0,1,3.61.56l1.28.76a2.36,2.36,0,0,1,1.06,3.19l-1.45,2.7c-.27.49.55.88.93.44a.62.62,0,0,1,.36-.18l6.49-.8h.14l5.15.51a.71.71,0,0,0,0-1l-1.47-1.57a1,1,0,0,0-.57-.3l-4-.69a1.15,1.15,0,0,1-.5-.23l-4.44-3.81a20,20,0,0,0-6.06-3.52l-4.08-1.52a12.91,12.91,0,0,0-2.39-.62l-5-.8a7,7,0,0,0-4.76.94l-1.32.84a21,21,0,0,0-4.94,4.32l-1,1.23a5.28,5.28,0,0,1-2.41,1.6l-4,1.3a5.36,5.36,0,0,1-4.59-.61l-5.59-3.84a11.89,11.89,0,0,0-3.8-1.7l-1.36-.34a1.12,1.12,0,0,0-.93.17l-2.74,2a1.14,1.14,0,0,1-.85.19l-1.13-.21a8.3,8.3,0,0,0-5.3.79l-6.62,3.49-.13.06-7.89,2.88a16.11,16.11,0,0,0-2.69,1.25l-5.84,3.38a6.44,6.44,0,0,0-2.37,2.35l-.47.86a12.92,12.92,0,0,0-1.44,4l-1.26,7.09a.49.49,0,0,0,0,.12v8.06a15.1,15.1,0,0,0,2,7.51l2.62,4.61a.84.84,0,0,1,.06.14l3.26,10.59,3.12,12.4.23.92a2.4,2.4,0,0,1,2-1.27L8101,510l.06-.42.85-6c.6-1,1.19-2,1.66-2.62h1.27l6,0a.88.88,0,0,1,.82.73l.82,8a1.08,1.08,0,0,1,.8-.35h20.15c-.15-1-.38-2.68.05-2.72l15.29-.39c.6-.06.76,1.74.73,2.24l-.1,1.6a1,1,0,0,1,.6-.2h19c.56,0,4.5,1,4.54,1.59l-.09.12,2-1.45a.82.82,0,0,0,.34-.53l.86-6.86a.76.76,0,0,1,.25-.46l2.38-2.19a.72.72,0,0,0,.25-.58c-.14-.07-.25-.16-.38-.24S8178.86,499.05,8178.7,498.91Z" transform="translate(-8079 -434.9)"/><path class="cls-6" d="M8211.29,482.43l-2.07-.33-6.18-1a1.39,1.39,0,0,1-1-.65l-4.14-7.27-.83-1.45s0-.06,0-.09a1,1,0,0,1,0-.78l.34-.84a1,1,0,0,0,.06-.23,1,1,0,0,0-.27-.84,1.54,1.54,0,0,0-.19-.17,1.6,1.6,0,0,0-.47-.24l-5.61-1.67a2.46,2.46,0,0,1-1.92-3,2,2,0,0,1,.28-.57,2.28,2.28,0,0,1,.46-.53l10.12-8.85a1.49,1.49,0,0,1,1-.37,1.4,1.4,0,0,1,.35,0v-.41a1.1,1.1,0,0,1,.11-.5l1.43-3a1.35,1.35,0,0,1,.31-.41.55.55,0,0,1,.11-.1l.64-.5.81-.62a1.62,1.62,0,0,1,.49-.25,1.85,1.85,0,0,1,.66-.13,2,2,0,0,1,.77.16,1.47,1.47,0,0,1,.81.76l.53,1.18.31.71a1.36,1.36,0,0,1,.06.29,1,1,0,0,1,0,.35,1,1,0,0,1-.07.33l-.63,1.36-.79,1.71a1.5,1.5,0,0,1-.58.62,1.59,1.59,0,0,1-.42.19l-2.3.69a1.89,1.89,0,0,1-.53.08,1.77,1.77,0,0,1-.51-.05h0l.2,3.08,2.86-1.07a2.83,2.83,0,0,0,1.48-1.2l3.55-6.18a2.15,2.15,0,0,0,.29-1.07v-3.07a2.79,2.79,0,0,0-3-2.49,3.32,3.32,0,0,0-2.19.77l-3.91,3.37a3.21,3.21,0,0,1-1.11.6l-6.8,2.14a6.39,6.39,0,0,0-2.62,1.56l-.43-.46a.57.57,0,0,0-.18-.12l-6.05-2.49a.48.48,0,0,0-.17-.05l-3.26-.32-5.15-.51h-.14l-6.49.8a.62.62,0,0,0-.36.18c-.38.44-1.2,0-.93-.44l1.45-2.7a2.36,2.36,0,0,0-1.06-3.19l-1.28-.76a5.15,5.15,0,0,0-3.61-.56l-1.47.3a4.39,4.39,0,0,0-2.24,1.19l-3.16,3.3a4.33,4.33,0,0,0-.83,1.19l-1.47,3.15a2.86,2.86,0,0,0,.1,2.64l1.66,3a.16.16,0,0,0,0,.07l.14.17a8.09,8.09,0,0,1,.77,9.44l-.74,1.26a5.2,5.2,0,0,0-.58,4.06l2.55,9.35,2.29,9.28a4.91,4.91,0,0,0,3.31,3.32l14.67,5.05a3.55,3.55,0,0,1-.35-.44l0-.06h0a2.59,2.59,0,0,1,1.12-3.84l1.34-.82,5.37-3.29a4.2,4.2,0,0,1,1.6-.53,3.69,3.69,0,0,1,.58,0h17.51l.55,0,.53.1,2.09,0,2.43,0a2.74,2.74,0,0,1,2,3h0a6.09,6.09,0,0,0,.85-5.52l-1.43-4.3a4.91,4.91,0,0,0-.33-.74h0a1.92,1.92,0,0,1-.48.15A2.17,2.17,0,0,1,8211.29,482.43ZM8162,458.51h0s-1-1.59-2-3.24a31.74,31.74,0,0,1-2-3.53,17.21,17.21,0,0,1,1.74-2.44l.36-.46c.85-1.09,1.75-2.22,2.29-2.89a1.72,1.72,0,0,1,1.34-.59h0a1.6,1.6,0,0,1,1.55,1l1,3a1.18,1.18,0,0,1,0,.2,1.34,1.34,0,0,1,0,.4l-.63,2.79-.93,1.45ZM8180.5,481a3.5,3.5,0,1,1,2.17-6.23,2.54,2.54,0,0,1,.91,1.1,3.46,3.46,0,0,1,.42,1.63A3.5,3.5,0,0,1,8180.5,481Z" transform="translate(-8079 -434.9)"/><path class="cls-4" d="M8182.67,474.77a3.49,3.49,0,1,0,1.33,2.73,3.46,3.46,0,0,0-.42-1.63A2.54,2.54,0,0,0,8182.67,474.77Z" transform="translate(-8079 -434.9)"/></g></g></svg>