<?xml version="1.0" encoding="UTF-8" standalone="no"?>
<!DOCTYPE svg PUBLIC "-//W3C//DTD SVG 1.1//EN" "http://www.w3.org/Graphics/SVG/1.1/DTD/svg11.dtd">
<svg width="100%" height="100%" viewBox="0 0 1602 830" version="1.1" xmlns="http://www.w3.org/2000/svg" xmlns:xlink="http://www.w3.org/1999/xlink" xml:space="preserve" xmlns:serif="http://www.serif.com/" style="fill-rule:evenodd;clip-rule:evenodd;">
    <g transform="matrix(1,0,0,1,-3512,-136)">
        <g id="Ebene_43_Kopie">
            <g id="Ebene_1">
                <path d="M4397.11,217.1L4397.27,217.1L4397.58,216.96C4397.71,216.85 4397.89,216.8 4398.06,216.82L4398.53,216.82L4397.74,216.96L4397.11,217.1Z" style="fill-rule:nonzero;"/>
                <path d="M4397.43,217L4397.11,217.14L4398.22,216.72L4397.9,216.72C4397.74,216.82 4397.58,216.82 4397.43,217Z" style="fill:rgb(239,198,125);fill-rule:nonzero;"/>
                <path d="M4535.83,281.65L4549.72,283.5L4550.03,283.5L4567.08,281.22L4568.81,280.94L4568.73,280.81L4567.24,281.08L4550.19,283.36L4549.88,283.36L4535.83,281.51L4534.32,281.24L4534.25,281.37L4535.83,281.65Z" style="fill-rule:nonzero;"/>
                <path d="M4540.88,269.68L4535.52,279.08L4540.88,269.68Z" style="fill-rule:nonzero;"/>
                <path d="M4560.92,323.11L4543.25,325.11L4560.92,323.13L4560.92,323.11Z" style="fill-rule:nonzero;"/>
                <path d="M4511.84,451.35L4516.08,431.99L4515.7,433.44L4511.69,451.49L4550.35,473.15L4511.84,451.35Z" style="fill-rule:nonzero;"/>
                <path d="M4522.26,319.12L4522.57,319.22L4522.42,319.12L4509.14,286.38L4508.69,285.64L4522.26,319.12Z" style="fill-rule:nonzero;"/>
                <path d="M4480.57,478.87L4478.23,478.3L4479.65,478.85L4480.57,478.87Z" style="fill-rule:nonzero;"/>
                <path d="M4550.98,265.55L4551.3,265.55L4559.35,266.69L4551.3,265.55L4550.98,265.55L4550.67,265.69L4550.66,265.69L4550.67,265.69L4550.98,265.55Z" style="fill-rule:nonzero;"/>
                <path d="M4549.24,475.61L4549.24,475.68L4550.35,473.15L4549.24,475.61Z" style="fill-rule:nonzero;"/>
                <path d="M4537.73,487.4L4542.77,488.11L4542.93,488.11L4543.72,488.25L4543.76,488.19L4539.15,487.54L4508.53,482.98L4505.29,482.51L4507.11,482.84L4537.73,487.4Z" style="fill-rule:nonzero;"/>
                <path d="M4552.09,352.75L4577.02,340.92L4551.96,352.74L4552.09,352.75Z" style="fill-rule:nonzero;"/>
                <path d="M4497.17,269.68L4496.85,269.4L4496.84,269.38L4496.85,269.4L4497.17,269.68Z" style="fill-rule:nonzero;"/>
                <path d="M4546.06,489.06L4543.59,488.84L4543.56,488.96L4546.06,489.06Z" style="fill-rule:nonzero;"/>
                <path d="M3736,753.27L3738.64,753.9C3738.01,753.574 3737.61,752.922 3737.61,752.213C3737.61,751.766 3737.77,751.332 3738.06,750.99L3762.06,721.93L3789.86,688.22L3762.06,721.78L3736,753.27Z" style="fill-rule:nonzero;"/>
                <path d="M4461.03,276.52L4478.54,281.08L4481.54,281.79L4499.69,281.79L4499.66,281.65L4481.54,281.65L4478.7,280.94L4461.19,276.38L4458.96,275.84L4458.82,275.95L4461.03,276.52Z" style="fill-rule:nonzero;"/>
                <path d="M4476.97,263.98L4476.65,264.13L4460.71,274.53L4476.81,264.13L4476.97,263.98Z" style="fill-rule:nonzero;"/>
                <path d="M4543.56,489L4543.56,488.87L4543.38,488.87L4543.69,488.3L4542.9,488.16L4542.74,488.16L4537.69,487.45L4507.08,482.89L4505.26,482.56L4481.23,479L4481.07,479L4480.58,478.88L4479.65,478.88L4478.23,478.33L4453.61,472.33L4432.78,467.2C4432.5,467.071 4432.27,466.858 4432.11,466.59L4427.73,474.59C4427.6,474.955 4427.55,475.343 4427.57,475.73L4428.99,487.85L4437.67,559.8C4437.83,560.08 4437.83,560.23 4437.99,560.51L4470.99,617.22L4553,758.4C4553.26,758.817 4553.67,759.123 4554.14,759.26L4823.14,759.26L4823.14,727.63L4814.62,719.5L4804.84,710.1L4788,694L4780.27,685.74L4630.34,526.44L4597.73,493.76L4546.04,489.06L4543.56,489Z" style="fill:rgb(234,174,68);fill-rule:nonzero;"/>
                <path d="M4511.21,450.35C4511.09,450.716 4511.22,451.124 4511.53,451.35C4511.53,451.49 4511.69,451.49 4511.69,451.49L4515.69,433.44L4511.21,450.35Z" style="fill:rgb(234,186,139);fill-rule:nonzero;"/>
                <path d="M4511.69,451.49L4548.77,472.72C4549.07,472.902 4549.25,473.229 4549.25,473.58L4549.25,475.58L4550.35,473.12L4511.69,451.49Z" style="fill:rgb(234,186,139);fill-rule:nonzero;"/>
                <path d="M4365.07,461.18L4365.86,461.04C4366.72,460.799 4367.32,460.008 4367.32,459.114C4367.32,458.544 4367.08,457.999 4366.65,457.62C4366.39,457.371 4366.18,457.08 4366.02,456.76L4328.62,357.31C4328.46,356.898 4328.46,356.442 4328.62,356.03L4354.5,296.9L4384.17,228.9L4384.17,228.76C4384.17,228.62 4384.33,228.62 4384.33,228.47C4384.35,228.361 4384.4,228.262 4384.49,228.19L4384.8,227.9L4386.38,226.62L4392.38,221.78L4396.64,218.36C4396.69,218.308 4396.74,218.261 4396.8,218.22L4350.4,238.3L4314.1,289.6L4275.44,388.2L4291.38,390.2L4307.32,447.48L4298.26,461.16L4365.07,461.16L4365.07,461.18ZM4384,226.37L4387.32,223.37L4388.58,222.52L4389.53,221.95L4383.53,226.79L4384,226.37ZM4381.48,228.5C4381.48,228.65 4381.32,228.65 4381.32,228.79L4381.32,228.93L4381,229.07L4381.48,228.5Z" style="fill:rgb(229,168,46);fill-rule:nonzero;"/>
                <path d="M4400.11,216.96L4400.85,216.68L4400.43,216.68L4398.65,217.45L4399.95,216.96L4400.11,216.96Z" style="fill:rgb(229,168,46);fill-rule:nonzero;"/>
                <path d="M3739.34,754.13L3739.18,754.13C3739,754.072 3738.83,753.995 3738.66,753.9L3736.02,753.27L3762.02,721.78L3789.82,688.22L3799.27,676.76L3799.58,676.19L3824.04,585.14C3824.14,584.889 3824.27,584.653 3824.44,584.44L3824.68,583.57L3724.78,583.57L3607.72,732L3556.72,796.69L3672.43,842L3804.2,873.63L3915.46,844L3892.1,815L3891.47,814.14L3868.31,785.41C3867.97,785.136 3867.59,784.925 3867.17,784.79L3739.34,754.13Z" style="fill:rgb(229,168,46);fill-rule:nonzero;"/>
                <path d="M4412.89,217.1L4412.89,255.15C4412.87,256.258 4411.95,257.156 4410.84,257.156C4410.79,257.156 4410.73,257.154 4410.68,257.15L4402.79,257.15L4399.32,257.01C4398.52,256.929 4397.74,257.319 4397.32,258.01L4387,275C4386.2,276.288 4385.77,277.766 4385.74,279.28L4385.74,287.97C4385.76,290.264 4386.35,292.517 4387.47,294.52L4398.21,313.19C4398.33,313.409 4398.49,313.603 4398.68,313.76L4411.78,324.76C4412.2,325.112 4412.44,325.642 4412.41,326.19L4412.41,380C4412.44,380.353 4412.55,380.695 4412.73,381L4448.23,434.86C4448.67,435.377 4448.74,436.125 4448.39,436.71L4447.44,438.42L4439.24,453.53L4435.45,460.53L4433.56,463.95L4433.4,464.38L4433.08,464.8L4432.08,466.61C4432.23,466.878 4432.47,467.091 4432.75,467.22L4453.58,472.35L4478.2,478.35L4480.55,478.92L4481.04,479.04L4481.2,479.04L4505.26,482.56L4508.5,483.03L4539.11,487.59L4543.73,488.24L4544.01,487.73L4547.95,478.73L4547.95,478.58L4549.22,475.7L4549.22,473.6C4549.22,473.249 4549.04,472.922 4548.74,472.74L4511.66,451.51C4511.66,451.51 4511.5,451.51 4511.5,451.37C4511.19,451.144 4511.06,450.736 4511.18,450.37L4515.67,433.46L4516.05,432.01L4520.18,413.18L4519.86,412.33L4519.7,412.04L4511.81,394.23L4545.9,390.23L4545.78,390.54L4547.16,390.38L4546.69,391.94L4546.69,392.09C4546.37,392.94 4547.16,393.65 4548.11,393.37L4551.27,392.66L4581.57,385.25C4586.77,383.96 4590.57,379.69 4590.57,374.7L4590.57,317.13C4590.61,315.628 4590.23,314.145 4589.47,312.85L4581.42,298.18C4580.29,296.019 4579.69,293.619 4579.68,291.18L4579.68,272.67C4579.64,270.142 4578.69,267.711 4577,265.83L4560.43,246.88L4533,219.53C4531.23,217.804 4529.06,216.532 4526.69,215.82L4495.12,206.56C4491.34,205.424 4487.36,205.134 4483.45,205.71L4411.45,215.25C4411.56,215.288 4411.67,215.335 4411.77,215.39C4412.43,215.711 4412.86,216.369 4412.89,217.1ZM4577,340.92L4552.07,352.75L4551.94,352.75L4535.21,350.75L4531.74,350.32L4531.58,350.32L4531.42,350.18L4528.74,348.89L4513.43,340.89L4577,340.89L4577,340.92ZM4534.23,281.22L4535.5,279.09L4540.86,269.68L4541.02,269.25L4548.91,266.25L4550.64,265.68L4550.95,265.54L4551.27,265.54L4559.32,266.68L4559.95,266.82L4568.78,280.82L4568.7,280.82L4568.78,280.95L4567.05,281.23L4550,283.5L4549.69,283.5L4535.8,281.65L4534.22,281.37L4534.29,281.24L4534.23,281.22ZM4508.82,285.64L4516.08,297.64L4523.34,309.32L4526.81,315.02L4526.97,315.31L4527.13,315.45L4533.92,319.58L4542.92,325.13L4543.25,325.13L4560.92,323.13L4561.08,323.13L4561.08,327.13L4560.13,327.28L4545.46,328.98L4545.14,329.13L4539.14,326.42L4522.89,319.42L4522.57,319.23L4522.26,319.13L4508.69,285.65L4509.14,286.39L4508.82,285.64ZM4458.82,275.81L4460.71,274.53L4476.65,264.12L4476.97,263.98L4490.7,263.98L4496.84,269.38L4497.16,269.66L4497.47,269.8L4499.68,281.63L4499.68,281.77L4481.53,281.77L4478.53,281.06L4461,276.52L4458.79,275.95L4458.93,275.84L4458.82,275.81Z" style="fill:rgb(239,198,125);fill-rule:nonzero;"/>
                <path d="M4387.33,223.37L4387.21,223.37" style="fill:none;fill-rule:nonzero;stroke:rgb(239,198,125);stroke-width:1px;"/>
                <path d="M4388.59,222.52L4387.33,223.37L4384.01,226.37L4383.54,226.79L4389.54,221.95L4388.59,222.52Z" style="fill:rgb(239,198,125);fill-rule:nonzero;"/>
                <path d="M4381.33,228.79C4381.33,228.65 4381.49,228.65 4381.49,228.5L4381.01,229.07L4381.33,228.93L4381.33,228.79Z" style="fill:rgb(239,198,125);fill-rule:nonzero;"/>
                <path d="M3799.31,676.76L3799.31,676.65" style="fill:none;fill-rule:nonzero;stroke:rgb(232,181,100);stroke-width:1px;"/>
                <path d="M5026.48,832.64L4958.48,767.81C4958.11,767.418 4957.59,767.209 4957.06,767.24L4899.61,763.82L4894.56,763.53L4863.16,761.68L4853.85,761.11L4826.23,759.4L4554.93,759.4C4554.67,759.394 4554.41,759.347 4554.17,759.26C4553.7,759.123 4553.29,758.817 4553.03,758.4L4471,617.2L4438,560.49C4437.84,560.21 4437.84,560.06 4437.68,559.78L4429,487.83L4427.58,475.71C4427.56,475.323 4427.61,474.935 4427.74,474.57L4432.12,466.57L4433.12,464.76L4433.44,464.34L4433.6,463.91L4435.49,460.49L4439.28,453.49L4447.48,438.38L4448.43,436.67C4448.78,436.085 4448.71,435.337 4448.27,434.82L4412.74,381C4412.56,380.695 4412.45,380.353 4412.42,380L4412.42,326.11C4412.44,325.562 4412.21,325.032 4411.79,324.68L4398.69,313.68C4398.5,313.523 4398.34,313.329 4398.22,313.11L4387.48,294.44C4386.36,292.437 4385.77,290.184 4385.75,287.89L4385.75,279.2C4385.79,277.715 4386.22,276.266 4387,275L4397.27,258C4397.69,257.309 4398.47,256.919 4399.27,257L4402.74,257.14L4410.63,257.14C4410.68,257.144 4410.74,257.146 4410.79,257.146C4411.9,257.146 4412.82,256.248 4412.84,255.14L4412.84,217.1C4412.81,216.373 4412.39,215.717 4411.74,215.39C4411.64,215.335 4411.53,215.288 4411.42,215.25C4411.07,215.135 4410.69,215.088 4410.32,215.11L4402.11,216.39C4401.94,216.37 4401.77,216.421 4401.64,216.53L4401.16,216.53L4400.8,216.68L4400.06,216.96L4400,216.96L4398.7,217.45L4397.32,217.96C4397.15,218.036 4396.99,218.133 4396.85,218.25C4396.79,218.291 4396.74,218.338 4396.69,218.39L4392.43,221.81L4386.43,226.65L4384.85,227.93L4384.54,228.22C4384.45,228.292 4384.4,228.391 4384.38,228.5C4384.38,228.65 4384.22,228.65 4384.22,228.79L4384.22,228.93L4354.55,296.93L4328.62,356C4328.46,356.412 4328.46,356.868 4328.62,357.28L4366.02,456.73C4366.18,457.05 4366.39,457.341 4366.65,457.59C4367.08,457.969 4367.32,458.514 4367.32,459.084C4367.32,459.978 4366.72,460.769 4365.86,461.01L4365.07,461.15L4295.16,461.15C4294.83,461.177 4294.51,461.276 4294.22,461.44L4185.8,512.44C4185.64,512.44 4185.64,512.58 4185.48,512.58L4063.17,548.1C4063.02,548.1 4063.02,548.1 4062.86,548.24L3994.86,558.07L3890.39,575.88L3890.23,575.88L3826,583.57C3825.41,583.652 3824.87,583.965 3824.5,584.44C3824.33,584.653 3824.2,584.889 3824.1,585.14L3799.64,676.19L3799.33,676.76L3789.88,688.22L3762.08,721.93L3738.08,750.99C3737.79,751.332 3737.63,751.766 3737.63,752.213C3737.63,752.922 3738.03,753.574 3738.66,753.9C3738.83,753.995 3739,754.072 3739.18,754.13L3739.34,754.13L3867.17,784.76C3867.59,784.895 3867.97,785.106 3868.31,785.38C3868.35,785.408 3868.39,785.441 3868.43,785.48L3891.63,814.26C3892.09,814.824 3892.79,815.139 3893.52,815.11L4215.15,804.71C4215.42,804.732 4215.69,804.684 4215.94,804.57L4261.07,787.47L4271.49,783.47C4271.76,783.353 4272.05,783.293 4272.34,783.293C4273.48,783.293 4274.43,784.189 4274.49,785.32L4274.49,791L4287.75,839C4287.97,839.675 4288.49,840.205 4289.17,840.42L4431.17,888.02L4438.1,888.02L4952.59,883.6C4953.05,883.612 4953.49,883.459 4953.85,883.17L5026.13,835.58C5026.7,835.25 5027.05,834.638 5027.05,833.979C5027.05,833.473 5026.85,832.989 5026.48,832.64Z" style="fill:rgb(232,181,100);fill-rule:nonzero;"/>
                <path d="M4478.7,280.94L4481.54,281.65L4499.69,281.65L4497.48,269.82L4497.17,269.68L4496.85,269.4L4496.84,269.38L4490.7,263.98L4476.97,263.98L4476.81,264.13L4460.71,274.53L4458.82,275.81L4458.96,275.84L4461.19,276.38L4478.7,280.94Z" style="fill:rgb(234,174,68);fill-rule:nonzero;"/>
                <path d="M4549.88,283.36L4550.19,283.36L4567.24,281.08L4568.73,280.81L4568.81,280.8L4559.98,266.83L4559.35,266.69L4551.3,265.55L4550.98,265.55L4550.67,265.69L4550.66,265.69L4548.93,266.26L4541.04,269.25L4540.88,269.68L4535.52,279.08L4534.25,281.22L4534.32,281.24L4535.83,281.51L4549.88,283.36Z" style="fill:rgb(234,174,68);fill-rule:nonzero;"/>
                <path d="M4522.57,319.22L4522.89,319.41L4539.15,326.39L4545.14,329.1L4545.46,328.95L4560.13,327.25L4561.08,327.1L4561.08,323.11L4560.92,323.13L4543.25,325.11L4542.93,325.11L4542.92,325.1L4533.94,319.55L4527.15,315.42L4526.99,315.28L4526.84,314.99L4523.36,309.29L4516.1,297.61L4508.84,285.64L4509.14,286.38L4522.42,319.12L4522.57,319.22Z" style="fill:rgb(229,168,46);fill-rule:nonzero;"/>
                <path d="M4511.84,394.21L4519.73,412.02L4519.89,412.31L4520.21,413.16L4516.08,431.99L4511.84,451.35L4550.35,473.15L4549.24,475.68L4547.98,478.56L4547.98,478.71L4544.04,487.68L4543.76,488.19L4543.72,488.25L4543.41,488.82L4543.59,488.84L4546.06,489.06L4597.75,493.76L4598.32,493.81L4558.56,453.49L4554.77,449.64L4553.51,448.36L4532.68,427.27L4544.67,393.64L4545.3,391.79L4545.81,390.53L4545.93,390.22L4511.84,394.21Z" style="fill:rgb(232,181,100);fill-rule:nonzero;"/>
                <path d="M4577.02,340.92L4513.42,340.92L4528.73,348.9L4531.41,350.19L4531.57,350.33L4531.73,350.33L4535.2,350.75L4551.93,352.75L4551.96,352.74L4577.02,340.92Z" style="fill:rgb(229,168,46);fill-rule:nonzero;"/>
            </g>
        </g>
    </g>
</svg>
