<svg xmlns="http://www.w3.org/2000/svg" viewBox="0 0 16359.46 1080"><defs><style>.cls-1{fill:none;}.cls-2{fill:#848263;}.cls-3{fill:#73ddbf;}.cls-4{fill:#66655d;}.cls-5{fill:#899b95;}.cls-6{fill:#999576;}.cls-7{fill:#7c8481;}.cls-8{fill:#ddd162;}.cls-9{fill:#b7ab55;}.cls-10{fill:#efe178;}.cls-11{fill:#d12f4e;}.cls-12{fill:#b2294a;}.cls-13{fill:#e25072;}.cls-14{fill:#db9b1d;}.cls-15{fill:#2860a3;}.cls-16{fill:#1e5387;}.cls-17{fill:#b27f26;}.cls-18{fill:#15a03c;}.cls-19{fill:#62e044;}.cls-20{fill:#50b734;}.cls-21{fill:#196624;}</style></defs><title>EbeneAutos</title><g id="Ebene_2" data-name="Ebene 2"><g id="HilfsebeneZumExportieren"><polygon class="cls-1" points="16359.46 0 0 0 0.24 1079.99 16359.46 1080 16359.46 0"/></g><g id="EbeneAutos"><g id="Auto"><path class="cls-2" d="M410.24,666.11c.25,2.13.78,7.66,1.75,10.87h11.27a9.49,9.49,0,0,1,18.37,0h38.2a9.48,9.48,0,0,1,18.62,0h9.22a27.05,27.05,0,0,0,.14-4.62h-2.92a5.61,5.61,0,0,1-5.59-5.59,5.55,5.55,0,0,1,.59-2.5c-7.23-.8-15.25-1.87-19.73-3.74,0-.05-11.47-8.92-19.92-9.12s-38.11-1.72-40.56-.31S409.87,663,410.24,666.11Z"/><path class="cls-3" d="M471.76,661.45v-3.18a1.38,1.38,0,0,0-.74-1.22c-2.47-1.3-10.85-5.23-19.93-4.06a1.38,1.38,0,0,0-1.21,1.38c0,1.79,0,5.18,0,7.08a1.38,1.38,0,0,0,1.38,1.38h19.13A1.38,1.38,0,0,0,471.76,661.45Z"/><path class="cls-3" d="M446.1,653.18a48.85,48.85,0,0,0-16.24,0,1.32,1.32,0,0,0-1.07,1.31c0,1.74,0,5.12,0,7a1.33,1.33,0,0,0,1.33,1.34h15.78a1.33,1.33,0,0,0,1.33-1.33v-7A1.33,1.33,0,0,0,446.1,653.18Z"/><path class="cls-3" d="M425.46,661.75v-7.89a1.1,1.1,0,0,0-1.16-1.11c-2.22.12-7.14,1.28-10.61,8.61a1.11,1.11,0,0,0,1,1.57c2.58,0,7.52,0,9.7-.08A1.1,1.1,0,0,0,425.46,661.75Z"/><path class="cls-4" d="M479.83,677h1.38a8.44,8.44,0,0,1,16,0h1.2a9.48,9.48,0,0,0-18.62,0Z"/><path class="cls-4" d="M423.26,677h1.29a8.19,8.19,0,0,1,15.4,0h1.68a9.49,9.49,0,0,0-18.37,0Z"/><path class="cls-4" d="M497.25,677a8.31,8.31,0,0,1,.42,2.38h9.65s.2-1,.35-2.38Z"/><path class="cls-4" d="M439.94,677a8.27,8.27,0,0,1,.48,2.38h40.37a8.32,8.32,0,0,1,.42-2.38Z"/><path class="cls-4" d="M412,677c.43,1.44,1,2.41,1.59,2.38,2-.11,10.06,0,10.06,0h.43a8.27,8.27,0,0,1,.48-2.38Z"/><circle cx="432.44" cy="679.62" r="8.62"/><circle class="cls-5" cx="432.44" cy="679.34" r="5.62"/><circle cx="489.14" cy="679.34" r="8.62"/><circle class="cls-5" cx="489.14" cy="679.06" r="5.62"/><path class="cls-6" d="M499.29,666.78a5.61,5.61,0,0,0,5.59,5.59h2.92c-.23-3.63-1.44-7.39-5.39-7.81l-2.53-.28A5.55,5.55,0,0,0,499.29,666.78Z"/><circle class="cls-7" cx="489.14" cy="679.06" r="1.16"/><circle class="cls-7" cx="432.24" cy="679.62" r="1.16"/></g><g id="Auto-2" data-name="Auto"><path class="cls-8" d="M1062,660.3c.31,2.68,1,9.64,2.2,13.67h14.18a11.94,11.94,0,0,1,23.11,0h48.06a11.92,11.92,0,0,1,23.43,0h11.59a34,34,0,0,0,.17-5.81h-3.68a7.05,7.05,0,0,1-7-7,7,7,0,0,1,.75-3.15c-9.1-1-19.19-2.35-24.82-4.71,0-.06-14.43-11.22-25.06-11.48s-47.94-2.16-51-.39S1061.58,656.43,1062,660.3Z"/><path class="cls-3" d="M1139.44,654.43v-4a1.73,1.73,0,0,0-.93-1.53c-3.11-1.64-13.64-6.57-25.07-5.11a1.74,1.74,0,0,0-1.53,1.73c0,2.25,0,6.51,0,8.9a1.73,1.73,0,0,0,1.73,1.74h24.07A1.73,1.73,0,0,0,1139.44,654.43Z"/><path class="cls-3" d="M1107.16,644a61.45,61.45,0,0,0-20.44,0,1.66,1.66,0,0,0-1.35,1.65c0,2.19,0,6.45,0,8.81a1.67,1.67,0,0,0,1.67,1.68h19.86a1.67,1.67,0,0,0,1.67-1.67v-8.81A1.67,1.67,0,0,0,1107.16,644Z"/><path class="cls-3" d="M1081.19,654.81v-9.93a1.39,1.39,0,0,0-1.46-1.39c-2.79.16-9,1.61-13.34,10.83a1.39,1.39,0,0,0,1.24,2c3.25.06,9.46,0,12.21-.1A1.39,1.39,0,0,0,1081.19,654.81Z"/><path class="cls-9" d="M1149.58,674h1.74a10.62,10.62,0,0,1,20.18,0H1173a11.92,11.92,0,0,0-23.43,0Z"/><path class="cls-9" d="M1078.42,674H1080a10.3,10.3,0,0,1,19.37,0h2.12a11.94,11.94,0,0,0-23.11,0Z"/><path class="cls-9" d="M1171.5,674a10.46,10.46,0,0,1,.53,3h12.14s.25-1.2.44-3Z"/><path class="cls-9" d="M1099.41,674a10.41,10.41,0,0,1,.6,3h50.79a10.46,10.46,0,0,1,.53-3Z"/><path class="cls-9" d="M1064.24,674c.54,1.81,1.2,3,2,3,2.56-.13,12.66,0,12.66,0h.54a10.41,10.41,0,0,1,.6-3Z"/><circle cx="1089.97" cy="677.29" r="10.84"/><circle class="cls-5" cx="1089.97" cy="676.94" r="7.07"/><circle cx="1161.3" cy="676.94" r="10.84"/><circle class="cls-5" cx="1161.3" cy="676.59" r="7.07"/><path class="cls-10" d="M1174.07,661.14a7.05,7.05,0,0,0,7,7h3.68c-.28-4.57-1.81-9.3-6.78-9.83l-3.19-.35A7,7,0,0,0,1174.07,661.14Z"/><circle class="cls-7" cx="1161.3" cy="676.59" r="1.46"/><circle class="cls-7" cx="1089.72" cy="677.29" r="1.46"/></g><g id="Auto-3" data-name="Auto"><path class="cls-11" d="M1327,665c.25,2.13.78,7.66,1.75,10.87h11.27a9.49,9.49,0,0,1,18.37,0h38.2a9.48,9.48,0,0,1,18.62,0h9.22a27.05,27.05,0,0,0,.14-4.62h-2.92a5.61,5.61,0,0,1-5.59-5.59,5.55,5.55,0,0,1,.59-2.5c-7.23-.8-15.25-1.87-19.73-3.74,0-.05-11.47-8.92-19.92-9.12s-38.11-1.72-40.56-.31S1326.67,661.88,1327,665Z"/><path class="cls-3" d="M1388.56,660.3v-3.18a1.38,1.38,0,0,0-.74-1.22c-2.47-1.3-10.85-5.23-19.93-4.06a1.38,1.38,0,0,0-1.21,1.38c0,1.79,0,5.18,0,7.08a1.38,1.38,0,0,0,1.38,1.38h19.13A1.38,1.38,0,0,0,1388.56,660.3Z"/><path class="cls-3" d="M1362.9,652a48.85,48.85,0,0,0-16.24,0,1.32,1.32,0,0,0-1.07,1.31c0,1.74,0,5.12,0,7a1.33,1.33,0,0,0,1.33,1.34h15.78a1.33,1.33,0,0,0,1.33-1.33v-7A1.33,1.33,0,0,0,1362.9,652Z"/><path class="cls-3" d="M1342.26,660.59V652.7a1.1,1.1,0,0,0-1.16-1.11c-2.22.12-7.14,1.28-10.61,8.61a1.11,1.11,0,0,0,1,1.57c2.58,0,7.52,0,9.7-.08A1.1,1.1,0,0,0,1342.26,660.59Z"/><path class="cls-12" d="M1396.62,675.83H1398a8.44,8.44,0,0,1,16,0h1.2a9.48,9.48,0,0,0-18.62,0Z"/><path class="cls-12" d="M1340.05,675.83h1.29a8.19,8.19,0,0,1,15.4,0h1.68a9.49,9.49,0,0,0-18.37,0Z"/><path class="cls-12" d="M1414,675.83a8.31,8.31,0,0,1,.42,2.38h9.65s.2-1,.35-2.38Z"/><path class="cls-12" d="M1356.74,675.83a8.27,8.27,0,0,1,.48,2.38h40.37a8.32,8.32,0,0,1,.42-2.38Z"/><path class="cls-12" d="M1328.79,675.83c.43,1.44,1,2.41,1.59,2.38,2-.11,10.06,0,10.06,0h.43a8.27,8.27,0,0,1,.48-2.38Z"/><circle cx="1349.24" cy="678.47" r="8.62"/><circle class="cls-5" cx="1349.24" cy="678.19" r="5.62"/><circle cx="1405.93" cy="678.19" r="8.62"/><circle class="cls-5" cx="1405.93" cy="677.91" r="5.62"/><path class="cls-13" d="M1416.09,665.62a5.61,5.61,0,0,0,5.59,5.59h2.92c-.23-3.63-1.44-7.39-5.39-7.81l-2.53-.28A5.55,5.55,0,0,0,1416.09,665.62Z"/><circle class="cls-7" cx="1405.93" cy="677.91" r="1.16"/><circle class="cls-7" cx="1349.04" cy="678.47" r="1.16"/></g><g id="Auto-4" data-name="Auto"><path d="M678,679.34a8.62,8.62,0,0,1-17.24,0,2.62,2.62,0,0,1,0-.28,8.61,8.61,0,0,1,17.22,0A2.62,2.62,0,0,1,678,679.34Z"/><circle class="cls-5" cx="669.4" cy="679.06" r="5.62"/><circle cx="726.1" cy="679.06" r="8.62"/><circle class="cls-5" cx="726.1" cy="678.78" r="5.62"/><circle class="cls-7" cx="726.1" cy="678.78" r="1.16"/><circle class="cls-7" cx="669.21" cy="679.34" r="1.16"/><path class="cls-14" d="M708.58,639.45v37.66h-28.8c-1-4.43-5.37-7.75-10.58-7.75s-9.55,3.33-10.57,7.75h-11a3.63,3.63,0,0,1-.73-2.17V639.45c0-5.36,4.81-9.72,10.75-9.72h40.17C703.77,629.73,708.58,634.09,708.58,639.45Z"/><path class="cls-15" d="M737.58,647.92v28.27a2.58,2.58,0,0,1-.16.92,2.77,2.77,0,0,1-.54,1c0-.32-.06-.64-.11-1a10.8,10.8,0,0,0-21.35,0h-6.84V642h23.11A5.89,5.89,0,0,1,737.58,647.92Z"/><path class="cls-16" d="M736.88,678.07a2.84,2.84,0,0,1-2.17,1,8.07,8.07,0,0,0-.1-1.31,4.55,4.55,0,0,0-.13-.64,1.41,1.41,0,0,0,0-.2,10,10,0,0,0-.41-1.2q-.16-.39-.36-.75h0a8.2,8.2,0,0,0-.43-.7h0c-.16-.23-.32-.45-.49-.66a8.15,8.15,0,0,0-.56-.61c-.2-.19-.4-.38-.61-.56s-.44-.34-.67-.49-.42-.27-.64-.4a9.5,9.5,0,0,0-1.21-.55,7,7,0,0,0-.81-.25,8.45,8.45,0,0,0-2.15-.27,8.6,8.6,0,0,0-8.39,6.66,8.39,8.39,0,0,0-.23,2h-2.19a2.62,2.62,0,0,1,0-.28c0-.11,0-.23,0-.35a9.51,9.51,0,0,1,.13-1.32,10.8,10.8,0,0,1,21.35,0C736.82,677.43,736.86,677.75,736.88,678.07Z"/><path class="cls-17" d="M680,679v.07h-2a8.65,8.65,0,0,0-17.22,0H658.4V679A10.81,10.81,0,0,1,680,679Z"/><path class="cls-17" d="M658.63,677.11a10.63,10.63,0,0,0-.23,1.88v.07h-7.14a4.31,4.31,0,0,1-3.62-2Z"/><path class="cls-17" d="M708.58,677.11v2H680V679a10.61,10.61,0,0,0-.23-1.88Z"/><path class="cls-16" d="M715.29,678.43c0,.12,0,.24,0,.35a2.62,2.62,0,0,0,0,.28h-6.71v-2h6.84A9.51,9.51,0,0,0,715.29,678.43Z"/><path class="cls-3" d="M726.31,645.53c-.32,0-.64,0-1,0l-10.8,0a3.11,3.11,0,0,0-3.64,3.06v8.93h22.81l-.55-5.12a8.89,8.89,0,0,0-3.68-6.37A14.13,14.13,0,0,0,726.31,645.53Z"/></g><g id="Auto-5" data-name="Auto"><path d="M1579.75,675.9a11.06,11.06,0,0,1-22.12,0,3.36,3.36,0,0,1,0-.36,11.05,11.05,0,0,1,22.09,0A3.36,3.36,0,0,1,1579.75,675.9Z"/><circle class="cls-5" cx="1568.69" cy="675.54" r="7.21"/><path d="M1652.49,675.54a11.05,11.05,0,1,1-11-11A11.05,11.05,0,0,1,1652.49,675.54Z"/><circle class="cls-5" cx="1641.44" cy="675.19" r="7.21"/><circle class="cls-7" cx="1641.44" cy="675.19" r="1.49"/><circle class="cls-7" cx="1568.44" cy="675.9" r="1.49"/><path class="cls-18" d="M1619,624.72V673h-37c-1.31-5.68-6.89-9.95-13.57-9.95s-12.25,4.27-13.56,9.95h-14.1a4.66,4.66,0,0,1-.94-2.78V624.72c0-6.88,6.17-12.47,13.79-12.47h51.54C1612.79,612.25,1619,617.84,1619,624.72Z"/><path class="cls-19" d="M1656.17,635.59v36.27A3.31,3.31,0,0,1,1656,673a3.55,3.55,0,0,1-.69,1.23c0-.41-.08-.82-.14-1.23a13.86,13.86,0,0,0-27.39,0H1619V628h29.65A7.56,7.56,0,0,1,1656.17,635.59Z"/><path class="cls-20" d="M1655.27,674.27a3.64,3.64,0,0,1-2.78,1.27,10.36,10.36,0,0,0-.13-1.68,5.83,5.83,0,0,0-.17-.82,1.82,1.82,0,0,0-.05-.26,12.82,12.82,0,0,0-.53-1.54q-.21-.5-.46-1h0a10.53,10.53,0,0,0-.55-.9h0c-.21-.3-.41-.58-.63-.85a10.46,10.46,0,0,0-.72-.78c-.26-.24-.51-.49-.78-.72s-.56-.44-.86-.63-.54-.35-.82-.51a12.18,12.18,0,0,0-1.55-.71,8.91,8.91,0,0,0-1-.32,10.84,10.84,0,0,0-2.76-.35,11,11,0,0,0-10.76,8.55,10.77,10.77,0,0,0-.3,2.5h-2.81a3.36,3.36,0,0,1,0-.36c0-.14,0-.3,0-.45a12.2,12.2,0,0,1,.17-1.69,13.86,13.86,0,0,1,27.39,0C1655.2,673.45,1655.25,673.86,1655.27,674.27Z"/><path class="cls-21" d="M1582.31,675.45v.09h-2.57c-.18-5.57-5.06-10-11-10s-10.87,4.45-11,10h-3.07v-.09a13.87,13.87,0,0,1,27.73,0Z"/><path class="cls-21" d="M1554.87,673a13.64,13.64,0,0,0-.3,2.41v.09h-9.16a5.54,5.54,0,0,1-4.64-2.5Z"/><path class="cls-21" d="M1619,673v2.5h-36.66v-.09a13.61,13.61,0,0,0-.3-2.41Z"/><path class="cls-20" d="M1627.57,674.73c0,.15,0,.31,0,.45a3.36,3.36,0,0,0,0,.36H1619V673h8.78A12.2,12.2,0,0,0,1627.57,674.73Z"/><path class="cls-3" d="M1641.71,632.52c-.41,0-.82-.06-1.24-.06l-13.86,0a4,4,0,0,0-4.67,3.93v11.46h29.27l-.71-6.57a11.41,11.41,0,0,0-4.72-8.17A18.14,18.14,0,0,0,1641.71,632.52Z"/></g></g></g></svg>