<svg xmlns="http://www.w3.org/2000/svg" viewBox="0 0 16359.46 1080.16"><defs><style>.cls-1{fill:none;}.cls-2{fill:#d1d390;}.cls-3{fill:#ff7045;}.cls-4{fill:#e2e291;}.cls-5{fill:#a5a574;}.cls-6{fill:#98d844;}.cls-7{fill:#cc8d32;}.cls-8{fill:#65d133;}.cls-9{fill:#7c5521;}.cls-10{opacity:0.1;}</style></defs><title>EbeneBerlinParisVorne</title><g id="Ebene_2" data-name="Ebene 2"><g id="HilfsebeneZumExportieren"><polygon class="cls-1" points="16359.46 0 0 0 0.24 1079.99 16359.46 1080 16359.46 0"/></g><g id="EbeneBerlinParisVorne"><rect class="cls-2" x="8989.49" y="685.37" width="107.32" height="87.73"/><polygon class="cls-3" points="9120.78 692.35 8966.11 692.35 8989.49 647.35 9096.08 647.35 9120.78 692.35"/><path class="cls-4" d="M9010.1,723.19h0a13.26,13.26,0,0,1,13.26,13.26v17.33a0,0,0,0,1,0,0h-26.53a0,0,0,0,1,0,0V736.46A13.26,13.26,0,0,1,9010.1,723.19Z"/><path class="cls-4" d="M9043.24,723.19h0a13.26,13.26,0,0,1,13.26,13.26v17.33a0,0,0,0,1,0,0H9030a0,0,0,0,1,0,0V736.46A13.26,13.26,0,0,1,9043.24,723.19Z"/><rect class="cls-5" x="9062.1" y="716.26" width="28.89" height="56.29"/><path class="cls-6" d="M8411.5,979.78s399.77-30.71,434-83.67,89.71-122.74,142.21-124.6,220.49-24.36,265.49-68.61,64.5-76.23,165-22,145.49,176.41,222,173.07,196,127,196,127v99.13H8411.5Z"/><g id="Baum"><rect class="cls-7" x="9258.56" y="850.65" width="15.87" height="150.05"/><path class="cls-8" d="M9299.9,844.53c0,1,0,2.07-.14,3.09a34.41,34.41,0,0,1-8.9,20,38.79,38.79,0,0,1-16.43,10.7,39.33,39.33,0,0,1-7.51,1.76l-.42.06-.93.11a39.28,39.28,0,0,1-4.36.23c-.89,0-1.77,0-2.65-.1A39.46,39.46,0,0,1,9230.14,866a34.25,34.25,0,0,1-7.41-17.64c0-.36-.08-.72-.11-1.08-.07-.9-.11-1.8-.11-2.71a33.75,33.75,0,0,1,4-15.84,37.07,37.07,0,0,1,13.16-14,39.92,39.92,0,0,1,12.7-5.15h0a37,37,0,0,1,5.2-.79c1.21-.11,2.43-.17,3.67-.17a39.26,39.26,0,0,1,4.36.23l.93.1.42.06a43.09,43.09,0,0,1,5.75,1.21h0c1.17.35,2.32.73,3.44,1.17a36.42,36.42,0,0,1,3.65,1.63,36.89,36.89,0,0,1,6.24,4,.42.42,0,0,1,.16.12h0a36.18,36.18,0,0,1,9.71,11.49,33.92,33.92,0,0,1,2.83,7.11h0A33,33,0,0,1,9299.9,844.53Z"/><ellipse class="cls-8" cx="9304.54" cy="804.35" rx="32.41" ry="31.87"/><ellipse class="cls-8" cx="9269.81" cy="807.6" rx="17.53" ry="24.55"/><path class="cls-8" d="M9280.06,817.73a39.38,39.38,0,0,1-.58,6.84,37.15,37.15,0,0,1-1,4.34,38.69,38.69,0,0,1-11.59,18.59,36.93,36.93,0,0,1-4.16,3.16,35.4,35.4,0,0,1-4.2,2.34,33.45,33.45,0,0,1-14.22,3.17c-.69,0-1.36,0-2-.06a34.07,34.07,0,0,1-19.57-7.78,38,38,0,0,1-11.1-15.17,40.64,40.64,0,0,1-3-15.42c0-18.84,12.59-34.51,29.2-37.8a32.86,32.86,0,0,1,6.51-.64A33.65,33.65,0,0,1,9263,785a36.32,36.32,0,0,1,3.89,3,37.75,37.75,0,0,1,6.5,7.47,39.75,39.75,0,0,1,6,15.27c.14.76.25,1.54.32,2.33A38.63,38.63,0,0,1,9280.06,817.73Z"/><path class="cls-8" d="M9244.34,847.67a18.47,18.47,0,0,1-2,8.43,19.73,19.73,0,0,1-12.16,9.86,20.62,20.62,0,0,1-5.65.78c-11,0-19.84-8.54-19.84-19.07a17.54,17.54,0,0,1,.28-3.18,18.85,18.85,0,0,1,6.69-11.34h0a20.28,20.28,0,0,1,12.86-4.55c.67,0,1.33,0,2,.1a20.06,20.06,0,0,1,13.39,6.91A18.51,18.51,0,0,1,9244.34,847.67Z"/><path class="cls-8" d="M9304.55,777.38a34.91,34.91,0,0,1-2.68,13.49,34.08,34.08,0,0,1-14.52,16.57,32.68,32.68,0,0,1-7.89,3.24c-1.09.28-2.21.51-3.33.69s-2.07.27-3.12.32h0c-.61,0-1.23.06-1.84.06a30.94,30.94,0,0,1-4.22-.29c-.45-.06-.9-.12-1.35-.2a33,33,0,0,1-13.24-5.47,34,34,0,0,1-6.73-6.24,34.54,34.54,0,0,1-7.77-19.63c-.07-.83-.11-1.68-.11-2.54a34.86,34.86,0,0,1,4.3-16.85,33.43,33.43,0,0,1,23.55-17l1.35-.2a31,31,0,0,1,4.22-.28,32.79,32.79,0,0,1,23.32,9.77,34.67,34.67,0,0,1,9.74,19.68h0A36,36,0,0,1,9304.55,777.38Z"/><ellipse class="cls-8" cx="9301.24" cy="829.71" rx="21.17" ry="17.96"/><path class="cls-8" d="M9242.65,825.36a20.22,20.22,0,0,1-2.79,10.24,24.73,24.73,0,0,1-17.24,11.64c-.32.06-.65.11-1,.15a26.34,26.34,0,0,1-3.9.28,27,27,0,0,1-12.81-3.18c-7.25-3.89-12.1-11-12.1-19.13a20.82,20.82,0,0,1,5.42-13.9,25.37,25.37,0,0,1,12.77-7.59,27.92,27.92,0,0,1,6.72-.82,26.58,26.58,0,0,1,15.68,5,23.07,23.07,0,0,1,6.21,6.68A20.33,20.33,0,0,1,9242.65,825.36Z"/><path class="cls-8" d="M9258.57,780.62a17.71,17.71,0,0,1-.09,1.79,20.74,20.74,0,0,1-12.87,17.14,22.23,22.23,0,0,1-8.63,1.72c-.53,0-1.05,0-1.57-.06a21.68,21.68,0,0,1-16.94-10,19.84,19.84,0,0,1-3.09-10.63,18.14,18.14,0,0,1,.16-2.46c1.26-10.25,10.38-18.2,21.44-18.2a22.66,22.66,0,0,1,5.05.57C9251.51,762.7,9258.57,770.87,9258.57,780.62Z"/><path class="cls-8" d="M9235.53,798.9a19.66,19.66,0,0,1-.13,2.31,20.78,20.78,0,1,1-21.17-23.05,5.06,5.06,0,0,1,.55,0c.25,0,.5,0,.75,0a20.72,20.72,0,0,1,20,20.1C9235.53,798.47,9235.53,798.69,9235.53,798.9Z"/><ellipse class="cls-8" cx="9295.84" cy="848.44" rx="19.18" ry="19.85"/><ellipse class="cls-8" cx="9302.56" cy="771.15" rx="21.94" ry="19.74"/><ellipse class="cls-8" cx="9317.18" cy="829.79" rx="16.4" ry="22.19"/><rect class="cls-9" x="9258.56" y="1000.7" width="15.87" height="3.58"/><circle class="cls-8" cx="9295.81" cy="751.11" r="21.37"/><circle class="cls-8" cx="9271.24" cy="742.29" r="33.3"/><circle class="cls-8" cx="9241.51" cy="770.6" r="28.3"/><circle class="cls-8" cx="9317.72" cy="778.36" r="20.54"/><path class="cls-8" d="M9250.74,764.65v.06a25.4,25.4,0,0,1-.26,3.62,26.18,26.18,0,0,1-11.54,18.23,25.58,25.58,0,0,1-5.71,2.84,26,26,0,0,1-8.73,1.49,23,23,0,0,1-2.89-.17,22.73,22.73,0,0,1-2.36-.35c-.51-.11-1-.22-1.51-.36a26.24,26.24,0,1,1,20.2-47.9c.19.11.37.23.55.35a26.14,26.14,0,0,1,9.38,10.27q.51,1,.93,2A26.13,26.13,0,0,1,9250.74,764.65Z"/><path class="cls-8" d="M9269.81,729.19a25.8,25.8,0,0,1-3.31,12.69c-.31.56-.64,1.11-1,1.64a26.09,26.09,0,0,1-16.71,11.22,23.23,23.23,0,0,1-3.14.42c-.62.05-1.25.07-1.88.07a24.26,24.26,0,0,1-3.32-.22,26,26,0,1,1,21.28-44.64,25.17,25.17,0,0,1,4.76,6.14,25.59,25.59,0,0,1,3.22,10.59C9269.78,727.79,9269.81,728.49,9269.81,729.19Z"/><circle class="cls-8" cx="9322.4" cy="742.29" r="17.03"/><path class="cls-8" d="M9286.6,709.2a17.93,17.93,0,0,1-16.6,17.88l-.28,0q-.53,0-1,0a15.51,15.51,0,0,1-2.17-.14,17.93,17.93,0,0,1,0-35.59,15.51,15.51,0,0,1,2.17-.14,17.93,17.93,0,0,1,17.93,17.94Z"/><circle class="cls-8" cx="9293.77" cy="724.1" r="23.95"/><circle class="cls-8" cx="9326.58" cy="760.92" r="12.86"/><path class="cls-10" d="M9266.5,691.4v312.88h-7.94V880.38A39.46,39.46,0,0,1,9230.14,866a20.62,20.62,0,0,1-5.65.78c-11,0-19.84-8.54-19.84-19.07a17.54,17.54,0,0,1,.28-3.18c-7.25-3.89-12.1-11-12.1-19.13a20.82,20.82,0,0,1,5.42-13.9,20.77,20.77,0,0,1,5.81-30.35,26.24,26.24,0,0,1,15.55-42.24,25.75,25.75,0,0,1-1.87-9.68,26.06,26.06,0,0,1,33.68-24.89A17.93,17.93,0,0,1,9266.5,691.4Z"/></g></g></g></svg>