<?xml version="1.0" encoding="utf-8"?>
<!-- Generator: Adobe Illustrator 21.1.0, SVG Export Plug-In . SVG Version: 6.00 Build 0)  -->
<svg version="1.1" id="Ebene_1" xmlns="http://www.w3.org/2000/svg" xmlns:xlink="http://www.w3.org/1999/xlink" x="0px" y="0px"
	 viewBox="0 0 16359.5 1080.4" style="enable-background:new 0 0 16359.5 1080.4;" xml:space="preserve">
<style type="text/css">
	.st0{fill:none;}
	.st1{fill:#999999;}
	.st2{fill:#E2A85D;}
	.st3{fill:#8BEF56;}
	.st4{opacity:0.1;fill:#070707;enable-background:new    ;}
	.st5{fill:#ABE254;}
	.st6{fill:#899B95;}
	.st7{fill:#7C8481;}
	.st8{fill:#EF5C3F;}
	.st9{fill:#D1B12A;}
	.st10{fill:#B59A2A;}
	.st11{fill:#B7402C;}
	.st12{fill:#EACD53;}
	.st13{fill:#AFADAC;}
	.st14{fill:#457BDB;}
	.st15{fill:#FC2508;}
	.st16{fill:#F9F3F2;}
</style>
<title>EbeneBerlinParisHinten</title>
<g id="Ebene_2">
	<g id="HilfsebeneZumExportieren">
		<polygon class="st0" points="16359.5,0 0,0 0.2,1080 16359.5,1080 		"/>
	</g>
	<g id="EbeneBerlinParisHinten">
		<rect x="9203" y="614.1" class="st1" width="30" height="127"/>
		<line class="st0" x1="9219" y1="600.1" x2="9219" y2="614.1"/>
		<path class="st1" d="M8961,734.1c10,0,20,0,30,0V653c0.6-18.6,26.8-33.5,45.5-33.5c18.9,0,45.5,15.3,45.5,34.2l0,87.4h30v-88.4
			c0.6-18.6,26.8-33.5,45.5-33.5c18.9,0,45.5,15.3,45.5,34.2v-39.3h44v-14h-434.9v14h27.9V760h30V650.7
			c6.2-19.9,24.7-33.6,45.5-33.5c21,0,39.6,14,45.5,34.2C8961,678.9,8961,706.5,8961,734.1z"/>
		<g id="Baum2">
			<rect x="9212.2" y="551" class="st2" width="9.1" height="52.3"/>
			<path class="st3" d="M9221.1,549L9221.1,549c0,0.8-0.1,1.4-0.2,2.1c-0.5,2.2-1.9,4.2-3.8,5.5c-0.3,0.2-0.6,0.3-0.8,0.5l-0.1,0.1
				c-1.2,0.6-2.6,0.9-3.9,0.9c-2.7,0-5.3-1.2-7-3.4c-0.4-0.5-0.8-1.1-1.1-1.8c-0.6-1.2-0.9-2.5-0.8-3.8l0,0c0-2,0.7-3.9,1.9-5.5
				c0.3-0.4,0.7-0.8,1.1-1.2c0.4-0.4,0.9-0.8,1.4-1.1c1.1-0.7,2.4-1.1,3.7-1.2c0.3,0,0.6,0,0.9,0c0.9,0,1.8,0.1,2.7,0.4l0,0
				c0.2,0.1,0.4,0.1,0.6,0.2l0.6,0.3c0.3,0.2,0.7,0.3,1,0.5c1,0.6,1.8,1.4,2.5,2.4l0,0c0.9,1.3,1.5,2.9,1.6,4.5l0,0
				c0,0.1,0,0.2,0,0.3l0,0C9221.1,548.8,9221.1,548.9,9221.1,549z"/>
			<path class="st3" d="M9212.2,543.9c0,1.6-0.4,3.1-1.2,4.5c-0.1,0.2-0.3,0.4-0.4,0.7c-0.1,0.1-0.1,0.2-0.2,0.3
				c-1.5,2-3.8,3.3-6.3,3.5c-0.3,0-0.6,0-0.9,0c-5,0-9-4-9-9c0-0.2,0-0.4,0-0.6c0.2-2.9,1.8-5.5,4.3-7l0.3-0.2
				c1.3-0.7,2.7-1.1,4.2-1.1h0.1c0.3,0,0.5,0,0.8,0c0.7,0.1,1.3,0.2,1.9,0.4c0.7,0.2,1.4,0.6,2,1c0.3,0.2,0.6,0.4,0.8,0.6
				c0.6,0.5,1.1,1,1.5,1.6c0.4,0.5,0.7,1,1,1.6c0.4,0.9,0.7,1.8,0.8,2.7c0,0.2,0.1,0.5,0.1,0.7
				C9212.1,543.6,9212.2,543.7,9212.2,543.9z"/>
			<path class="st3" d="M9204,534.4c0,0.2,0,0.4,0,0.6c0,0.2,0,0.5-0.1,0.7c0,0.1,0,0.1,0,0.2l0,0c0,0.2,0,0.3-0.1,0.4
				c-0.4,1.8-1.3,3.4-2.7,4.7l0,0c-0.3,0.3-0.6,0.6-1,0.8c-1.5,1-3.3,1.6-5.1,1.6c-0.3,0-0.5,0-0.8,0c-0.9-0.1-1.9-0.3-2.8-0.7
				c-4.5-2-6.6-7.3-4.6-11.9c1.1-2.4,3.1-4.2,5.6-4.9c0.8-0.3,1.7-0.4,2.6-0.4c2.4,0,4.6,0.9,6.3,2.6l0,0c0.1,0.1,0.2,0.2,0.3,0.3
				C9203.2,530,9204,532.1,9204,534.4z"/>
			<path class="st3" d="M9220.2,517.3c0,0.7-0.1,1.5-0.3,2.2c0,0.2-0.1,0.4-0.2,0.6c-0.3,1-0.8,1.9-1.4,2.7c-0.3,0.4-0.6,0.7-0.9,1
				l-0.2,0.2c-0.3,0.3-0.7,0.6-1.1,0.9l0,0c-2.3,1.5-5.2,1.9-7.9,1c-0.7-0.3-1.3-0.6-1.9-1c-0.8-0.5-1.5-1.2-2.1-1.9
				c-3.1-3.9-2.4-9.6,1.5-12.6c0.7-0.5,1.4-1,2.2-1.3c0.8-0.3,1.7-0.5,2.7-0.6c0.2,0,0.4,0,0.7,0c1.5,0,3,0.4,4.4,1.1
				c0.2,0.1,0.4,0.2,0.5,0.3C9218.6,511.5,9220.2,514.3,9220.2,517.3z"/>
			<circle class="st3" cx="9216.7" cy="514.8" r="9"/>
			<path class="st3" d="M9210.2,527.7c0,1.6-0.4,3.1-1.2,4.5c-0.3,0.5-0.6,0.9-1,1.3c-1,1.2-2.4,2.1-3.8,2.6l-0.4,0.1
				c-1.6,0.5-3.3,0.5-4.9,0.1l-0.4-0.1c-4.7-1.6-7.2-6.8-5.6-11.5c1.2-3.5,4.5-6,8.3-6c0.4,0,0.7,0,1.1,0.1c1.8,0.2,3.5,1,4.9,2.2
				c0.3,0.2,0.5,0.5,0.7,0.7c1.1,1.2,1.8,2.8,2.1,4.4c0,0,0,0.1,0,0.1C9210.2,526.7,9210.2,527.2,9210.2,527.7z"/>
			<circle class="st3" cx="9210.2" cy="529.5" r="9"/>
			<circle class="st3" cx="9207.8" cy="534.9" r="9"/>
			<circle class="st3" cx="9215.1" cy="541.7" r="9"/>
			<circle class="st3" cx="9216.9" cy="527.9" r="9"/>
			<circle class="st3" cx="9219.5" cy="548.6" r="9"/>
			<circle class="st3" cx="9228.5" cy="543.5" r="9"/>
			<circle class="st3" cx="9236.6" cy="534" r="9"/>
			<circle class="st3" cx="9220.5" cy="516.9" r="9"/>
			<path class="st3" d="M9223.9,514.5c0,2.2-0.8,4.3-2.2,5.9c-0.2,0.3-0.5,0.5-0.7,0.7c-1.1,1-2.5,1.7-3.9,2.1l-0.4,0.1l0,0
				c-0.2,0-0.4,0.1-0.6,0.1c-0.4,0.1-0.8,0.1-1.1,0.1c-0.2,0-0.5,0-0.7,0h-0.1c-0.6-0.1-1.2-0.2-1.8-0.3c-0.8-0.2-1.5-0.6-2.2-1l0,0
				c-0.5-0.3-1-0.7-1.4-1.1c-0.1-0.1-0.2-0.2-0.3-0.3c-1.6-1.7-2.5-3.9-2.5-6.2c0-0.7,0.1-1.4,0.3-2.1c1-4,4.6-6.8,8.7-6.8
				c0.4,0,0.8,0,1.1,0.1c0.3,0,0.7,0.1,1,0.2l0.5,0.1l0,0c1.4,0.4,2.6,1.1,3.6,2.1C9222.9,509.7,9223.9,512.1,9223.9,514.5
				L9223.9,514.5z"/>
			<circle class="st3" cx="9230.4" cy="527.4" r="9"/>
			<circle class="st3" cx="9223.9" cy="534.6" r="9"/>
			<circle class="st3" cx="9216.6" cy="541.4" r="9"/>
			<circle class="st3" cx="9214.8" cy="527.6" r="9"/>
			<path class="st3" d="M9212.3,523.4c0,0.9-0.1,1.9-0.3,2.8c0,0.3-0.1,0.5-0.2,0.7c-0.5,1.9-1.5,3.7-2.8,5.2l-0.1,0.1
				c-1.1,1.2-2.4,2.2-3.9,3c-0.4,0.2-0.8,0.4-1.2,0.5l-0.2,0c-1.3,0.5-2.7,0.8-4.1,0.8h-0.7c-0.3,0-0.5,0-0.8,0
				c-7.2-0.6-12.6-6.9-12-14.1c0.5-6.6,6-11.8,12.6-12.1h0.5c2.5,0,4.9,0.7,7,2c0.6,0.4,1.1,0.8,1.6,1.2c1,0.8,1.8,1.8,2.5,2.9
				c0.6,0.9,1,1.8,1.3,2.8c0.1,0.4,0.3,0.8,0.3,1.2c0,0.1,0.1,0.2,0.1,0.3c0.1,0.6,0.2,1.2,0.3,1.9c0,0.2,0,0.3,0,0.4
				S9212.3,523.3,9212.3,523.4z"/>
			<path class="st3" d="M9215.1,511.2c0,1.9-1.4,3.7-3.5,4.7c-0.4,0.2-0.8,0.4-1.3,0.5c-0.7,0.2-1.5,0.4-2.3,0.5
				c-0.4,0-0.8,0.1-1.2,0.1h-0.5c-1.4,0-2.7-0.4-4-0.9c-2.2-1-3.7-2.8-3.7-4.8c0-0.3,0-0.6,0.1-0.9c0.6-2.7,4-4.8,8.1-4.8
				c1.5,0,2.9,0.3,4.3,0.8c0.4,0.2,0.8,0.4,1.2,0.6c0.8,0.5,1.5,1.2,2,2c0.2,0.3,0.4,0.6,0.5,1
				C9215,510.4,9215.1,510.8,9215.1,511.2z"/>
			<ellipse class="st3" cx="9230.7" cy="514.4" rx="7.6" ry="6.8"/>
			<circle class="st3" cx="9237.7" cy="520.4" r="8.3"/>
			<ellipse class="st3" cx="9240.1" cy="526.6" rx="7.2" ry="6.2"/>
			<ellipse class="st3" cx="9228.4" cy="550.5" rx="6.9" ry="4.3"/>
			<path class="st3" d="M9208.6,551.9c0,1.2-1.4,2.2-3.4,2.7c-0.8,0.2-1.6,0.3-2.3,0.3c-3,0-5.5-1.2-5.7-2.6c0-0.1,0-0.2,0-0.3
				c0-0.4,0.2-0.8,0.4-1.1c1.1-1,2.5-1.6,4-1.7c0.4-0.1,0.9-0.1,1.3-0.1h0.4c2.5,0.1,4.6,1,5.2,2.2
				C9208.6,551.4,9208.6,551.6,9208.6,551.9z"/>
			<path class="st3" d="M9202.2,546.3c0,2.3-1.3,4.4-3.4,5.4c-0.5,0.3-1.1,0.4-1.7,0.5c-0.3,0-0.6,0.1-0.8,0.1c-3.3,0-6-2.7-6-6
				s2.7-6,6-6S9202.2,542.9,9202.2,546.3L9202.2,546.3z"/>
			<circle class="st3" cx="9238.1" cy="543.7" r="5.3"/>
			<ellipse class="st3" cx="9234.3" cy="547.5" rx="3.8" ry="2.9"/>
			<path class="st4" d="M9217,505.8v97.6h-4.9v-45.4c-2.7,0-5.3-1.2-7-3.4c-0.8,0.2-1.6,0.3-2.3,0.3c-3,0-5.5-1.2-5.7-2.6
				c-0.3,0-0.6,0.1-0.8,0.1c-3.3,0-6-2.7-5.9-6.1c0-1.3,0.4-2.6,1.2-3.6c-4.6-2-6.7-7.3-4.7-11.8c0.2-0.5,0.4-0.9,0.7-1.3
				c-3.3-6.4-0.8-14.4,5.6-17.7c1.7-0.9,3.6-1.4,5.5-1.5c0.6-2.7,4-4.8,8.1-4.8c1.5,0,2.9,0.3,4.3,0.8c1.2-0.6,2.5-0.8,3.8-0.8
				c0.4,0,0.8,0,1.1,0.1C9216.4,505.6,9216.7,505.7,9217,505.8z"/>
		</g>
		<path class="st5" d="M8634.5,1079.7c0,0,5-307.3,183-319.3s198.7-105.7,256-102.8s118.7-95.8,196.7-71.8s90,70.8,158.7,52.7
			s96.7,54.9,175.3,71.8s184.7,33.5,188.3,81.5s82.6,34.8,160.8,83.7s109.7,60.2,157,56.9s136.6,148.1,136.6,148.1L8634.5,1079.7z"
			/>
		<g id="Auto">
			<path d="M8991.8,597.8c-0.1,2.8,2,5.2,4.8,5.3s5.2-2,5.3-4.8c0-0.1,0-0.3,0-0.4c0-0.1,0-0.1,0-0.2c0-2.8-2.3-5-5.1-5
				c-2.8,0-5,2.3-5,5C8991.9,597.7,8991.9,597.8,8991.8,597.8z"/>
			<circle class="st6" cx="8996.9" cy="597.6" r="3.3"/>
			<circle cx="8963.7" cy="597.6" r="5"/>
			<circle class="st6" cx="8963.7" cy="597.5" r="3.3"/>
			<circle class="st7" cx="8963.7" cy="597.5" r="0.7"/>
			<circle class="st7" cx="8997" cy="597.8" r="0.7"/>
			<path class="st8" d="M8973.9,574.4v22.1h16.9c1.1-3.4,4.7-5.3,8.1-4.3c2,0.6,3.6,2.2,4.3,4.3h6.5c0.3-0.4,0.4-0.8,0.4-1.3v-20.8
				c0-3.1-2.8-5.7-6.3-5.7h-23.6C8976.8,568.7,8973.9,571.3,8973.9,574.4z"/>
			<path class="st9" d="M8956.9,579.4V596c0,0.2,0,0.4,0.1,0.5c0.1,0.2,0.2,0.4,0.3,0.6c0-0.2,0-0.4,0.1-0.6
				c0.5-3.5,3.8-5.8,7.2-5.3c2.7,0.4,4.9,2.6,5.3,5.3h4v-20.6h-13.6C8958.5,575.9,8956.9,577.5,8956.9,579.4z"/>
			<path class="st10" d="M8957.3,597.1c0.3,0.4,0.8,0.6,1.3,0.6c0-0.3,0-0.5,0.1-0.8c0-0.1,0-0.3,0.1-0.4c0,0,0-0.1,0-0.1
				c0.1-0.2,0.1-0.5,0.2-0.7c0.1-0.2,0.1-0.3,0.2-0.4l0,0c0.1-0.1,0.2-0.3,0.3-0.4l0,0c0.1-0.1,0.2-0.3,0.3-0.4
				c0.1-0.1,0.2-0.2,0.3-0.4l0.4-0.3c0.1-0.1,0.3-0.2,0.4-0.3l0.4-0.2c0.2-0.1,0.5-0.2,0.7-0.3c0.2-0.1,0.3-0.1,0.5-0.2
				c0.4-0.1,0.8-0.2,1.3-0.2c2.4,0,4.4,1.6,4.9,3.9c0.1,0.4,0.1,0.8,0.1,1.1h1.3c0-0.1,0-0.1,0-0.2c0-0.1,0-0.1,0-0.2
				c0-0.3,0-0.5-0.1-0.8c-0.5-3.5-3.8-5.8-7.2-5.3c-2.7,0.4-4.9,2.6-5.3,5.3C8957.4,596.7,8957.3,596.9,8957.3,597.1z"/>
			<path class="st11" d="M8990.7,597.6L8990.7,597.6h1.2c0.3-2.8,2.8-4.8,5.6-4.5c2.4,0.3,4.2,2.1,4.5,4.5h1.4l0,0
				c0-3.5-2.9-6.3-6.4-6.3C8993.5,591.3,8990.7,594.1,8990.7,597.6L8990.7,597.6z"/>
			<path class="st11" d="M9003.2,596.5c0.1,0.4,0.1,0.7,0.1,1.1l0,0h4.2c0.9,0,1.7-0.4,2.1-1.1L9003.2,596.5z"/>
			<path class="st11" d="M8973.9,596.5v1.1h16.8l0,0c0-0.4,0.1-0.7,0.1-1.1L8973.9,596.5z"/>
			<path class="st10" d="M8970,597.3c0,0.1,0,0.1,0,0.2c0,0.1,0,0.1,0,0.2h3.9v-1.1h-4C8970,596.8,8970,597,8970,597.3z"/>
			<path class="st12" d="M8963.5,578h0.6h6.3c1-0.2,1.9,0.5,2.1,1.5c0,0.1,0,0.2,0,0.3v5.2h-13.4l0.3-3c0.1-1.5,0.9-2.9,2.2-3.7
				C8962.3,578.1,8962.9,578,8963.5,578z"/>
		</g>
		
			<rect x="9423.7" y="467.2" transform="matrix(1 -3.665183e-03 3.665183e-03 1 -1.9752 34.5499)" class="st13" width="3.7" height="178"/>
		<rect x="9426.9" y="480.7" class="st14" width="13.7" height="31.7"/>
		<rect x="9458.4" y="480.7" class="st15" width="16.5" height="31.7"/>
		<rect x="9440.7" y="480.7" class="st16" width="17.8" height="31.7"/>
		<line class="st0" x1="9458.4" y1="512.3" x2="9458.4" y2="512.3"/>
	</g>
</g>
</svg>
