<?xml version="1.0" encoding="utf-8"?>
<!-- Generator: Adobe Illustrator 21.1.0, SVG Export Plug-In . SVG Version: 6.00 Build 0)  -->
<svg version="1.1" id="Ebene_1" xmlns="http://www.w3.org/2000/svg" xmlns:xlink="http://www.w3.org/1999/xlink" x="0px" y="0px"
	 viewBox="0 0 16359.5 1080.3" style="enable-background:new 0 0 16359.5 1080.3;" xml:space="preserve">
<style type="text/css">
	.st0{fill:none;}
	.st1{fill:#C6C1B0;}
	.st2{fill:#E2D7AA;}
	.st3{fill:#EDE2B4;}
	.st4{fill:#BAB18E;}
	.st5{fill:#BCB396;}
	.st6{fill:#E2D8AF;}
	.st7{fill:#B2A98E;}
	.st8{fill:#D1C79F;}
	.st9{fill:#C4BCA3;}
	.st10{fill:#F7EFD0;}
	.st11{fill:#A8A188;}
	.st12{fill:#676E66;}
	.st13{fill:#A8A8A1;}
	.st14{fill:#88AAA9;}
	.st15{fill:#D1D16D;}
	.st16{fill:#64A09D;}
	.st17{fill:#8FB7B4;}
	.st18{fill:#6C9393;}
	.st19{fill:#70756F;}
	.st20{fill:#636662;}
	.st21{fill:#5B605A;}
	.st22{fill:#BAB18E;stroke:#A09570;stroke-width:5;stroke-miterlimit:10;}
	.st23{fill:#EAE1B9;}
	.st24{fill:#FFFFFF;}
	.st25{fill:#56C14F;}
	.st26{fill:#EF401D;}
	.st27{fill:#8C7645;}
	.st28{fill:#C1A35B;}
	.st29{fill:#C1B09F;}
	.st30{fill:#EA3700;}
</style>
<title>EbeneBodenVordergrund</title>
<g id="Ebene_2">
	<g id="HilfsebeneZumExportieren">
		<polygon class="st0" points="16359.5,0 0,0 0.2,1080 16359.5,1080 		"/>
	</g>
	<g id="EbeneBodenVordergrund">
		<g id="BrandenburgerTorVorne">
			<rect x="8233.5" y="484.6" class="st1" width="65.7" height="7.3"/>
			<rect x="8492.1" y="562.5" class="st2" width="103.3" height="460.8"/>
			<polygon class="st3" points="8492.1,1023.3 8462.5,1013.2 8462.5,547 8492.1,555.5 			"/>
			<rect x="8510.9" y="759.9" class="st4" width="141.9" height="48.7"/>
			<rect x="8568.5" y="587.7" class="st2" width="110.9" height="463.2"/>
			<polygon class="st3" points="8568.4,1050.9 8533.3,1037.7 8533.3,569 8568.4,577.4 			"/>
			<rect x="8590.8" y="784.2" class="st4" width="141.9" height="48.7"/>
			<polygon class="st2" points="8845.5,614.7 8845.5,1080.1 8650.9,1080.1 8650.9,1075.7 8650.9,1075.6 8651,1055.4 8651,1050.9 
				8651,1046.3 8651,1043.3 8651,1010.7 8651,1010.3 8651.1,955.3 8651.6,657.6 8651.6,648.8 8651.6,639.4 8651.6,639.2 
				8651.6,632.5 8651.6,627.8 8651.6,623.1 8651.6,622.2 8651.6,614.7 			"/>
			<polygon class="st3" points="8650.9,1080.1 8614,1066.6 8614,584.6 8650.9,593.4 			"/>
			<rect x="8650.8" y="639.4" class="st5" width="221.5" height="18.2"/>
			<polygon class="st6" points="8220.7,489.9 8650.9,641.6 8650.9,657.6 8220.7,505.9 			"/>
			<polygon class="st5" points="8206.9,484.7 8645.4,639.2 8645.4,648.8 8206.9,494.3 			"/>
			<polygon class="st7" points="8645.4,639.2 8867,637.8 8867,648.8 8645.4,648.8 			"/>
			<rect x="8632.2" y="564.7" class="st8" width="221.5" height="58.4"/>
			<polygon class="st6" points="8275.1,437.4 8654.2,564.7 8654.2,624 8275.1,491.8 			"/>
			<polygon class="st1" points="8254.1,484.6 8658.8,624.7 8645.4,639.2 8206.9,484.7 			"/>
			<polygon class="st9" points="8654.2,623.1 8867,623.1 8867,639.2 8645.4,639.2 			"/>
			<polygon class="st10" points="8493.9,575.9 8353.5,526.5 8353.5,474.2 8493.9,519.2 			"/>
			<rect x="8494" y="519.1" class="st8" width="24.5" height="56.7"/>
			<polygon class="st9" points="8256.2,429.3 8420,484.3 8420,493.8 8256.2,438.9 			"/>
			<polygon class="st9" points="8519.8,521.4 8650.7,567.1 8650.7,576.6 8491,521.3 			"/>
			<polygon class="st5" points="8319,466.9 8482.7,521.8 8482.7,531.4 8319,476.4 			"/>
			<polygon class="st7" points="8482.7,521.9 8519.8,521.4 8520.1,531.4 8482.7,531.4 			"/>
			<polygon class="st7" points="8650.6,567.1 8872.2,565.6 8872.2,576.6 8650.6,576.6 			"/>
			<polygon class="st11" points="8446.3,429.3 8256.2,429.3 8650.7,567.1 8872.2,565.6 			"/>
			<polygon class="st11" points="8546.5,471.3 8319,466.9 8482.7,521.8 8614.8,520.4 			"/>
			<g id="Statue">
				<polygon class="st12" points="8567,291.8 8563.4,291.5 8562.3,310.8 8565.8,311.2 				"/>
				<polygon class="st12" points="8573.9,305.4 8574.1,301.7 8555.1,300 8554.9,303.6 				"/>
				<path class="st12" d="M8566.7,295.9L8566.7,295.9v0.2l0,0c0.5,0.2,1,0.4,1.5,0.8C8567.8,296.4,8567.3,296.1,8566.7,295.9z
					 M8568.4,293.2L8568.4,293.2c-0.5-0.2-1-0.4-1.5-0.5l0,0c-0.6-0.2-1.2-0.3-1.8-0.3c-0.6-0.1-1.2-0.1-1.8,0l0,0
					c-0.5,0-1,0.1-1.5,0.3l0,0c-4.2,1.1-7.2,4.8-7.4,9.1c-0.3,5,3,9.6,7.8,11l0,0c1.1,0.3,2.2,0.4,3.3,0.3l0,0
					c5-0.4,8.9-4.4,9.1-9.4C8574.9,299.2,8572.4,295,8568.4,293.2L8568.4,293.2z M8565.9,309.5L8565.9,309.5l-0.3,0.1
					c-0.5,0.1-1,0.1-1.5,0c-0.6-0.1-1.2-0.2-1.8-0.4l0,0c-2.3-0.9-4-2.9-4.5-5.2c-0.1-0.5-0.2-1-0.2-1.5c0-0.1,0-0.3,0-0.4
					c0-0.6,0.1-1.2,0.3-1.8c0.6-1.8,1.9-3.2,3.6-4c0.5-0.2,1-0.4,1.5-0.5l0,0c0.6-0.1,1.2-0.1,1.8-0.1c0.6,0.1,1.2,0.2,1.8,0.4l0,0
					c0.5,0.2,1,0.4,1.5,0.8l0,0c1.6,1.1,2.7,2.7,3.1,4.6l0,0c0.1,0.6,0.2,1.2,0.1,1.8c0,0.6-0.1,1.3-0.3,1.9
					C8570.2,307.4,8568.3,309,8565.9,309.5L8565.9,309.5z M8566.7,295.8v0.2c0.5,0.2,1,0.4,1.5,0.8
					C8567.8,296.4,8567.3,296.1,8566.7,295.8L8566.7,295.8z"/>
				<path class="st12" d="M8562.5,424.4l-3.3-0.2l3-111.6l0.1-3.5l0,0c0.6,0.2,1.2,0.4,1.8,0.4c0.5,0.1,1,0.1,1.5,0l-0.1,3.4
					L8562.5,424.4z"/>
				<path class="st12" d="M8569.3,278.5l-1.1,18.4c-0.9-0.8-2-1.4-3.2-1.5c-1.2-0.1-2.3,0.2-3.3,0.8l1.1-18.3c0-0.7,0.2-1.3,0.5-2
					c0.4-1.4,1.7-2.3,3.1-2.3c1,0.1,1.8,0.7,2.3,1.6C8569.1,276.2,8569.3,277.3,8569.3,278.5z"/>
				<path class="st12" d="M8550.1,272.9c5.3,7,14.5,9,14.5,9l-0.5,7.8c0,0-11.3-3.1-13.1-11.4C8550.3,276.7,8550,274.8,8550.1,272.9
					z"/>
				<path class="st12" d="M8583.5,274.8c-6.1,6-15.4,6.2-15.4,6.2l-0.5,7.8c0,0,11.6-1,14.3-8.8
					C8583.3,278.1,8583.5,274.8,8583.5,274.8z"/>
				<path class="st13" d="M8566.3,302.8c0.1-1-0.7-1.9-1.7-2c-1-0.1-1.8,0.6-1.9,1.5c0,0,0,0,0,0c0,0,0,0.1,0,0.1
					c-0.1,1,0.7,1.9,1.7,2c1,0.1,1.8-0.6,1.9-1.5c0,0,0,0,0,0C8566.3,302.9,8566.3,302.8,8566.3,302.8z"/>
				<path class="st14" d="M8582.2,367.6c-2.6-0.3-5.3-0.1-7.9,0.6c1.8-2.5,4.9-3.9,8-3.6c3.2,0.3,6,2.2,7.5,5
					C8587.5,368.5,8584.9,367.8,8582.2,367.6z"/>
				<path class="st14" d="M8591.1,374.9c-0.2,5-4.4,8.8-9.4,8.6h-0.5c-5.2-0.5-9-5.1-8.7-10.3c0-0.6,0.1-1.2,0.3-1.8
					c0.1-0.3,0.2-0.6,0.3-0.8c0.2-0.5,0.4-0.9,0.6-1.4c1.4-0.9,4.7-1.3,8.5-1s7,1.4,8.3,2.5c0.2,0.5,0.3,1,0.5,1.5
					c0.1,0.3,0.1,0.6,0.2,0.9C8591.1,373.7,8591.1,374.3,8591.1,374.9z"/>
				<path class="st15" d="M8589.9,369.7c0.2,0.4,0.4,0.7,0.5,1.1c0.3,0.3,0.6,0.7,0.6,1.1c0,0.1,0,0.3-0.1,0.4
					c-0.7,1.3-4.5,1.9-9,1.5s-8.2-1.8-8.8-3.2c-0.1-0.1-0.1-0.3-0.1-0.4c0.1-0.4,0.3-0.8,0.7-1c0.2-0.3,0.4-0.7,0.6-1
					c-1.3,0.5-2.1,1.1-2.2,1.9c0,0.5,0.2,1,0.7,1.3c1.4,1.4,4.9,2.6,9,3s7.7-0.2,9.2-1.3c0.4-0.3,0.7-0.7,0.8-1.2
					C8591.9,371.2,8591.1,370.4,8589.9,369.7z"/>
				<path class="st14" d="M8590.4,370.8c-1.3-1.1-4.5-2.2-8.3-2.5s-7.1,0.1-8.5,1c0.2-0.3,0.4-0.7,0.6-1c2.6-0.7,5.2-0.9,7.9-0.6
					c2.7,0.2,5.3,0.9,7.7,2C8590.1,370.1,8590.3,370.4,8590.4,370.8z"/>
				<path class="st16" d="M8587.8,384.1c0,0,7.7,3.4,6.7-1.9c-1.4-2.2-2.9-4.3-4.5-6.3c0,0,8.5-5.1,13,0.1
					c3.2,4.8,6.9,27.7-0.6,43.9c-2.4-1.8-6.3-20-11.1-18.4S8587.8,384.1,8587.8,384.1z"/>
				<path class="st14" d="M8571,391.4c0,0-0.8-5.1-3.3-6.4c-1.5-0.7-2.6-1.9-3.2-3.4c-2.3-6.3-4.8-19.2-0.4-15.2
					c5.5,5,3.9,17.4,12,18.8L8571,391.4z"/>
				<path class="st14" d="M8591.1,405.4c0.8-14.3-3.4-26.3-9.5-26.9s-11.7,10.6-12.5,24.8s3.4,26.3,9.5,26.9
					S8590.2,419.7,8591.1,405.4z"/>
				
					<ellipse transform="matrix(0.8709 -0.4915 0.4915 0.8709 922.9346 4264.3999)" class="st17" cx="8577.4" cy="375.7" rx="1.3" ry="1.4"/>
				
					<ellipse transform="matrix(0.8709 -0.4915 0.4915 0.8709 923.5282 4267.9521)" class="st17" cx="8584.4" cy="376.3" rx="1.3" ry="1.4"/>
				<polygon class="st18" points="8575.3,446 8502,475.6 8505.2,483 8578.4,453.4 				"/>
				<path class="st18" d="M8614.1,445.9c-1.4-0.1-2.7,0.1-4,0.6l0,0c-1.9,0.8-3.5,1.9-4.9,3.4l0,0c-1.3,1.4-2.4,2.9-3.3,4.5l0,0
					c-2.8,5.3-4.4,11.2-4.7,17.3c-0.1,2-0.1,4,0,6l0,0c0.2,3,0.7,5.9,1.5,8.8l0,0c0,0.1,0,0.2,0.1,0.3l0,0c0.3,1,0.6,1.9,1,2.9l0,0
					c0.3,0.9,0.7,1.7,1.1,2.5l0,0l0.1,0.3l0,0c2.4,4.6,5.8,7.6,9.8,8c5.9,0.5,11.4-5.1,14.5-13.7c0.6-1.7,1.1-3.4,1.4-5.2l0,0v-0.1
					l0,0c0.5-2.3,0.8-4.6,0.9-6.9C8628.6,459.5,8622.5,446.6,8614.1,445.9z M8622.3,482.1L8622.3,482.1c-0.3,1.1-0.7,2.1-1.2,3.1
					c-1.1,2.8-3,5.1-5.4,6.8l0,0c-1.3,0.8-2.8,1.2-4.4,1.1l0,0l0,0c-2.1-0.3-4.1-1.4-5.4-3.1c-0.7-0.8-1.2-1.6-1.7-2.5
					c-0.4-0.7-0.7-1.4-1-2.1l0,0c-0.3-0.7-0.5-1.5-0.8-2.3l0,0c-0.4-1.4-0.7-2.8-0.9-4.3c-0.2-1.5-0.3-3-0.3-4.6
					c0-0.8,0-1.5,0.1-2.3c0-0.6,0.1-1.1,0.1-1.7c0.3-3.4,1.2-6.7,2.6-9.8l0,0c0.2-0.4,0.4-0.9,0.7-1.3l0,0c0.4-0.8,0.9-1.6,1.5-2.3
					l0,0c2.1-2.7,4.6-4.2,7.3-4h0.2h0.3l0,0c1.5,0.2,2.8,0.9,3.9,1.9l0,0c2.4,2.1,4.2,5.6,5.2,10l0,0c0.3,1.5,0.5,2.9,0.6,4.4l0,0
					c0.1,1,0.1,2.1,0.1,3.1c0,0.6,0,1.1,0,1.7c0,0.8-0.1,1.6-0.2,2.3c0,0.3-0.1,0.6-0.1,0.9l0,0
					C8623.1,479,8622.8,480.6,8622.3,482.1z"/>
				<path class="st18" d="M8569,457.2c-0.2-2.7-0.7-5.5-1.5-8.1c-1.8-6.2-5-10.9-8.9-12.8c-0.8-0.4-1.6-0.7-2.5-0.8
					c-0.2,0-0.5-0.1-0.7-0.1c-3.4-0.3-6.7,1.4-9.4,4.5l0,0c-3.7,4.2-6.4,11.1-7.2,19c-0.1,0.6-0.1,1.2-0.2,1.8l0,0
					c0,0.1,0,0.3,0,0.4c-0.2,2.7-0.1,5.5,0.2,8.2l0,0c0.1,0.6,0.2,1.2,0.2,1.8c1.1,7.1,3.9,13,7.6,16.1c1,0.8,2.1,1.5,3.3,1.9
					c0.7,0.3,1.5,0.4,2.3,0.5c0.9,0.1,1.7,0,2.6-0.1c2.8-0.6,5.4-2.5,7.6-5.3c0.2-0.3,0.5-0.6,0.7-1c2.1-3.2,3.7-6.8,4.6-10.5
					c0.4-1.4,0.7-2.9,0.9-4.4c0.2-1.5,0.4-2.9,0.5-4.5C8569.3,461.7,8569.2,459.4,8569,457.2z M8563.8,471.3c-0.9,3.4-2.6,6.4-5,8.9
					c-0.9,0.9-2,1.6-3.3,2.1c-0.2,0.1-0.4,0.1-0.5,0.2c-0.7,0.2-1.5,0.3-2.3,0.2l0,0c-1.2-0.1-2.3-0.5-3.3-1.2
					c-0.8-0.5-1.5-1.2-2.1-1.9c-1.9-2.4-3.3-5.3-3.9-8.4c-0.3-1.1-0.5-2.3-0.6-3.5c-0.3-2.1-0.3-4.2-0.2-6.2c0-0.5,0.1-0.9,0.1-1.4
					l0,0c0-0.4,0.1-0.7,0.1-1.1c0.4-3.2,1.3-6.3,2.7-9.3l0,0c2.3-4.8,5.8-7.6,9.5-7.3c3.5,0.3,6.5,3.5,8.3,8.3l0,0
					c0.9,2.6,1.5,5.3,1.7,8c0.2,2.8,0.1,5.6-0.3,8.4C8564.5,468.6,8564.2,469.9,8563.8,471.3L8563.8,471.3z"/>
				<path class="st18" d="M8620.2,473.8c0.2-3.1-2.1-5.7-5.1-6c-2.9-0.3-5.5,1.8-5.8,4.7c0,0,0,0,0,0c0,0.1,0,0.2,0,0.3
					c-0.2,3.1,2.1,5.7,5.1,6c2.9,0.3,5.5-1.8,5.8-4.7c0,0,0,0,0,0V473.8z"/>
				<polygon class="st18" points="8618,452 8614.1,451.6 8613,469.8 8617,470.1 				"/>
				<polygon class="st18" points="8614.9,471.6 8626.8,472.7 8626.5,476.8 8614.6,475.6 				"/>
				<polygon class="st18" points="8616.6,475.8 8612.3,475.4 8611.1,496.7 8615.4,497.1 				"/>
				<polygon class="st18" points="8614.9,471.6 8599.3,470.2 8599.1,474.2 8614.6,475.6 				"/>
				<polygon class="st18" points="8617.2,476.2 8614.4,472.8 8598.7,486.5 8601.5,489.9 				"/>
				<polygon class="st18" points="8618.9,472 8604.9,455.5 8601.9,458.1 8615.9,474.6 				"/>
				<path class="st18" d="M8594,493.5l-41.4-12.1c-4.9-1.6-8.2-6.2-8.1-11.4l2.8-50.8c0.3-4.9,4-0.4,8.7,1l41.4,12.1
					c4.7,1.4,8.8-0.9,8.5,4l-2.8,50.8C8602.8,492,8598.8,494.9,8594,493.5z"/>
				<path class="st18" d="M8603.2,433l13.7,26.7c5.7,11.1,1.4,24.6-9.5,29.7l-7.7,3.6L8603.2,433z"/>
				<polygon class="st18" points="8625.9,467.4 8623.5,464.5 8616.8,470.3 8619.3,473.2 				"/>
				<polygon class="st18" points="8618.9,472 8626.8,481.4 8623.8,484 8615.9,474.6 				"/>
				<path class="st19" d="M8455.5,471.9c-1.3-3.1-0.9-12.2-0.7-13.6h-0.3c4.1-1.3,2.3-10.8-1.7-20.1c-4-9.6-24-5.5-35-6.4
					s-10.5-15.5-14.3-21.5c-9.9-4.2-13.5-4.4-15.9-3.8l0.1-1.2c0-0.8-0.6-1.5-1.4-1.7c-0.8-0.1-1.5,0.5-1.6,1.3c0,0,0,0,0,0.1
					l-0.2,2.7c-0.9,0.3-1.8,0.5-2.7,0.5c-0.1,0-0.2,0-0.3,0l-0.2-1.5c-0.1-0.8-0.8-1.3-1.6-1.2c-0.7,0.1-1.3,0.8-1.2,1.5l0,0
					l0.5,3.4l0,0.2l0,0c-3.2,6.5-2.7,23.6-2.7,23.6c0.1,0.4,0.1,0.7,0.2,1c0.1,0.5,0.6,0.9,1.1,0.8c0,0,0,0,0.1,0
					c0.3-0.1,0.5-0.2,0.6-0.4c0.2-0.3,0.5-0.5,0.9-0.5c0.5,0,0.9,0.5,1.3,1.2c0.4,0.8,1.3,1,2.1,0.7c0.2-0.1,0.3-0.2,0.4-0.3
					c2.7-2.7,5.8-6.8,8.3-8.3c5.6-3,0.8,9.7,0.8,9.7s-3.3,5.5-1.3,8.5c4,5.6,1.7,8.5-1.6,11.2c-2.3,1.9-5.2,3.7-6.7,6.1
					c-3.5,5.9,13.5,19.4,13.5,19.4s2,0,0.4-4.2c-21.4-18.7,5.7-16,6.4-16.4c-2.9,11.7,2.9,16.5,5.7,23.1s-7.7,8-1.9,9.1
					s6-4.4,6.3-6.3s0-11.9-1.5-15.3c-1.3-3.1-0.9-12.2-0.7-13.6c0-0.1,0-0.2,0.1-0.2c3.7,0.7,10.2,0.8,17.1,0.7
					c-0.6,0.6-1.2,1.3-1.7,2c-3.5,5.9,13.5,19.4,13.5,19.4s2,0,0.4-4.2c-21.4-18.7,5.7-16,6.4-16.3c-2.9,11.7,2.9,16.5,5.7,23.1
					s-7.7,8-1.9,9.1s6-4.4,6.4-6.3S8457,475.3,8455.5,471.9z"/>
				<path class="st12" d="M8501,471h0.1c4-0.9,2.9-10.3-0.4-19.6s-21.7-5.7-31.7-6.7s-8.8-15.2-12-21.1c-6.4-3-9.9-4-12.2-4.2
					l0.5-1.7c0.2-0.8-0.2-1.6-1-1.8c-0.7-0.2-1.5,0.2-1.7,0.9v0.1l-0.8,3c-1,0.5-2.1,0.9-3.2,1.2l-3.2-4.8c-0.4-0.7-1.3-0.9-2-0.4
					c0,0,0,0,0,0l0,0c-0.6,0.5-0.8,1.4-0.3,2l2.8,4.2c-4.3,4.2-4.7,24.5-4.7,24.5c0.1,0.7,0.1,1.3,0.3,2c0.1,0.4,0.5,0.7,0.9,0.6
					c0,0,0,0,0,0c0.2,0,0.4-0.2,0.5-0.4c0.3-0.5,0.5-0.8,0.8-0.7s0.7,0.5,0.9,1.1c0.1,0.6,0.7,0.9,1.3,0.8c0.2,0,0.3-0.1,0.5-0.2
					c2.8-2.5,6.1-7.2,8.9-8.6c5.3-2.8,0.3,9.4,0.3,9.4s-3.2,5.3-1.7,8.2c5.8,9.4-4.8,11-8.4,16.7s11.4,19,11.4,19s1.8,0.1,0.5-4.1
					c-18.9-18.7,6.7-15.3,6.7-15.8c-3.2,11.3,1.9,16.1,4.2,22.5s-7.4,7.7-2.2,8.8s5.7-4.2,6.1-6s0.6-11.5-0.6-14.8
					s-0.1-13.4,0.1-13.4c3,0.7,8.2,0.9,13.8,0.9c-0.3,0.3-0.6,0.7-0.8,1.1c-3.3,5.5,12.7,18.2,12.7,18.2s1.8,0,0.4-4
					c-20.4-17.8,6-15,6-15.4c-2.7,11.1,2.8,15.6,5.4,21.8s-7.3,7.6-1.8,8.6s5.6-4.2,6-6s0-11.2-1.4-14.4
					C8500.7,480.1,8500.7,473.8,8501,471z"/>
				<path class="st20" d="M8520.8,443.1c-3.3,1-6.6,1.6-10,2c2.4-6.3,3.6-13.6,1.5-17.4c-0.2-0.3-0.4-0.6-0.6-0.9
					c-0.8-1.2-1.9-2.2-3.1-2.9l0,0c-1.8-1-4.1-0.9-5.8,0.1l0,0c-1.3,0.8-2.4,1.9-3.2,3.3l0,0c-0.8,1.4-1.3,2.9-1.6,4.4
					c-1.1,5.7-1.7,13.9-0.4,19.3l-0.2,0.2c-1.6,1.6-2.9,3.6-3.6,5.7c-0.1,0.4-0.2,0.7-0.3,1.1c-0.2,0.8-0.4,1.6-0.4,2.5
					c-0.3,3.3-0.3,6.6,0,9.8c0,0.5,0.1,1.1,0.3,1.6c0.1,0.8,0.4,1.5,0.6,2.3c0.4,1.3,0.8,2.7,1.2,3.9s0.7,2.1,0.9,2.5
					c2.2,5.3,6.2,16,5.6,21.9l0,0c-0.1,0.9-0.3,1.7-0.7,2.5c-3.5,6-6.6,7.5,0,7.5c3.5,0,5.2-2.2,5.3-7c1.1,0.7,2.6,0.5,3.5-0.5
					c3.4-5.5,0.8-13.4,0.2-18.6c-0.2-2.3,0-4.1,1.3-5c1.3-0.8,2.5-1.8,3.5-2.9c0.4-0.4,0.7-0.8,1-1.3l0,0c0.9-1.2,1.6-2.7,1.9-4.2
					c1.5,0.5,3.2,1.3,4.9,1.7c1.2,0.4,2.5,0.4,3.8,0.1c0.4,1.3,0.7,2.6,0.9,3.9c0.1,0.4,0.1,0.9,0.2,1.4l0,0
					c0.1,0.8,0.1,1.6,0.1,2.6c0,5.6-1.8,11.1-5.2,15.6c-1.5,2,6.7,5.4,7.3,1s-1.7-6.7,1.1-8.6c0.6-1-0.1-6.2-0.4-11.6l0,0
					c0-0.1,0-0.1,0-0.2c-0.2-2.3-0.2-4.6-0.1-6.9l0,0c0-0.4,0.1-0.8,0.1-1.2c0.4-0.9,0.7-1.8,0.9-2.8c0.1-0.4,0.2-0.9,0.3-1.3
					C8533.1,456.4,8529.4,440.3,8520.8,443.1z M8505.8,503.2c-0.3-4.2-1.5-10-3.5-17.6c0-0.1,0-0.3,0-0.5l0,0c0-1.1,0.1-2.2,0.3-3.3
					l0,0c0.2-0.9,0.4-1.8,0.8-2.7c0.6-0.1,1.2-0.2,1.8-0.3c-0.1,0.8-0.2,1.5-0.2,2.2c-0.2,2.2-0.2,3.7-0.2,3.7s0.3,1.3,0.7,3.2
					C8506.5,493.1,8508.1,502.9,8505.8,503.2L8505.8,503.2z"/>
				<path class="st21" d="M8577.2,472.3c0.6-1.5,1.1-3.1,1.4-4.7c2-11.4-2-29.4-11.6-26.4c-2.7,0.8-5.4,1.4-8.2,1.9
					c-1,0.2-2,0.3-2.9,0.4c0.1-0.4,0.3-0.8,0.4-1.2c1.6-4.2,2.4-8.7,2.4-13.1c0-1.8-0.4-3.6-1.2-5.2l0,0c-0.8-1.5-1.9-2.7-3.2-3.7
					l0,0c-2.6-1.9-6.2-1.7-8.6,0.5l0,0c-1.5,1.4-2.7,3.2-3.3,5.1l0,0c-0.3,0.8-0.5,1.7-0.7,2.6c-1.2,6.4-1.9,15.6-0.5,21.7l-0.2,0.3
					c-2.8,2.8-4.5,6.5-4.9,10.5c-0.1,0.7-0.1,1.4-0.2,2l0,0c-0.1,1.2-0.1,2.5-0.1,3.7c0,1.8,0.1,3.5,0.3,5.3c0,0.6,0.1,1.2,0.3,1.8
					c0,0.2,0.1,0.4,0.1,0.6l0,0l0.2,0.6c0.1,0.4,0.2,0.8,0.4,1.3c0.8,2.9,1.9,6.2,2.3,7.2c2.8,7,8.4,22.3,5.5,27.5
					c-3.8,6.8-7.3,8.4,0.1,8.4c3.9,0,5.8-2.4,5.8-7.9c1.3,0.8,2.9,0.5,3.9-0.5c3.3-5.5,1.4-13.1,0.5-18.9c-0.4-2.8-0.6-5.1,0.2-6.6
					c0-0.1,0.1-0.2,0.2-0.3c0.2-0.3,0.5-0.6,0.8-0.9c0.7-0.5,1.4-0.9,2-1.5l0,0c2.5-2,4.3-4.8,5-7.9l0.8,0.3c1.3,0.4,2.6,1,3.9,1.4
					c1.6,0.6,3.3,0.7,5,0.3c0.9,2.8,1.3,5.8,1.3,8.8c0,1.5-0.1,3-0.3,4.4c-0.1,0.9-0.3,1.8-0.5,2.7l0,0c-0.9,3.8-2.6,7.3-4.9,10.4
					c-1.7,2.3,7.4,6.1,8.1,1.2c0.7-4.4-1.4-7,0.5-9.1l0,0c0.2-0.2,0.5-0.4,0.7-0.6c0.3-1.1,0.4-2.3,0.2-3.4
					c-0.2-4-0.9-10.8-0.8-16.2C8577.1,474.1,8577.1,473.2,8577.2,472.3z M8550.4,508.9c-0.3-4.6-1.5-10.8-3.6-18.9l-0.2-0.9
					c-0.1-2.1,0.2-4.2,0.8-6.2c0.1-0.4,0.2-0.7,0.3-1.1h0.1c0.7-0.1,1.3-0.2,2-0.4c-0.1,0.6-0.1,1.2-0.2,1.8l0,0
					c0,0.5-0.1,1-0.1,1.4c-0.2,2.1-0.2,3.5-0.2,3.5s0.3,1.5,0.8,3.6C8551.2,497.6,8552.9,508.5,8550.4,508.9z"/>
				<path class="st20" d="M8499.4,418.4L8499.4,418.4c1-0.2,2,0.4,2.3,1.4l1.3,6.3c0.2,1-0.5,1.9-1.5,2.1c0,0-0.1,0-0.1,0l0,0
					c-1,0.2-2-0.4-2.3-1.4l-1.3-6.3C8497.7,419.5,8498.3,418.5,8499.4,418.4C8499.3,418.4,8499.4,418.4,8499.4,418.4z"/>
				<path class="st20" d="M8513.6,418.1l0.3,0.1c0.9,0.3,1.4,1.3,1.1,2.1c0,0.1-0.1,0.1-0.1,0.2l-3.3,6.5c-0.5,0.9-1.6,1.3-2.6,0.9
					l-0.3-0.1c-0.9-0.3-1.4-1.3-1.1-2.1c0-0.1,0.1-0.1,0.1-0.2l3.3-6.4C8511.5,418.1,8512.6,417.7,8513.6,418.1z"/>
				<path class="st21" d="M8542.6,417L8542.6,417c1.1-0.2,2.2,0.5,2.5,1.6l1.5,7.1c0.2,1.1-0.5,2.1-1.6,2.3c0,0-0.1,0-0.1,0l0,0
					c-1.1,0.2-2.2-0.5-2.5-1.6l-1.5-7.1c-0.2-1.1,0.5-2.1,1.6-2.3C8542.5,417,8542.5,417,8542.6,417z"/>
				<path class="st21" d="M8558.3,416.7l0.3,0.1c1,0.4,1.5,1.5,1.1,2.5c0,0.1,0,0.1-0.1,0.2l-3.6,7.3c-0.6,1-1.8,1.5-2.9,1l-0.3-0.1
					c-1-0.4-1.5-1.5-1.1-2.5c0-0.1,0-0.1,0.1-0.2l3.6-7.3C8556,416.7,8557.2,416.2,8558.3,416.7z"/>
			</g>
			<rect x="8677.2" y="807.4" class="st4" width="141.9" height="48.7"/>
			<circle class="st22" cx="8748.2" cy="734.1" r="33"/>
			<rect x="8700.2" y="896.1" class="st23" width="95.9" height="184.2"/>
		</g>
		<g id="Brücke">
			<rect x="11295.8" y="888.1" class="st24" width="33.5" height="55.8"/>
			<path class="st25" d="M11269.7,888.1h26.2l0,0v55.8l0,0h-26.2c-4,0-7.3-3.3-7.3-7.3l0,0v-41.2
				C11262.4,891.4,11265.6,888.1,11269.7,888.1L11269.7,888.1z"/>
			<path class="st26" d="M11329.3,888.1h26.2c4,0,7.3,3.3,7.3,7.3l0,0v41.2c0,4-3.3,7.3-7.3,7.3l0,0h-26.2l0,0V888.1L11329.3,888.1z
				"/>
			<polygon class="st27" points="11374.9,855.1 11395.4,855.1 11395.4,848.4 11364.9,848.4 11363,847 11362.1,848.4 11245.6,848.4 
				11245.6,855.1 11357.6,855.1 11357.2,855.5 11410.8,891.7 11416.5,883.2 			"/>
			<polygon class="st28" points="11372.9,852.1 11395.4,852.1 11395.4,845.4 11245.6,845.4 11245.6,852.1 11275,852.1 11275,888.1 
				11283.2,888.1 11283.2,852.1 11342,852.1 11342,888.1 11350.1,888.1 11350.1,852.1 11358.5,852.1 11357.3,853.9 11412.7,891.3 
				11418.4,882.8 			"/>
			<line class="st0" x1="11350.1" y1="1013" x2="11350.1" y2="654"/>
			<path class="st29" d="M12112.5,794.3c-2-1-4.1-1.9-6.2-2.6c-22.3-8.3-107.9-37.2-354.2-37.2v14c17.2,0,31.2,9.8,31.2,21.9v99.3
				l-0.6,88.8l121.3,2.4l-134.3-2.4h-47.3l-1.5-188.2c0-12.1,14-21.9,31.2-21.9v-14c-246.3,0-331.8,28.8-354.1,37.1
				c-2.1,0.8-4.2,1.6-6.2,2.6l-0.4,0.2v186.4l292.3,0.6h236.6l1.5,0l191.2-0.5V794.5L12112.5,794.3z M11500.3,978.5h-77.2V854.1
				c0-15,17.3-27.1,38.6-27.1c7.7-0.1,15.3,1.6,22.3,5c9.9,4.9,16.3,13,16.3,22.1L11500.3,978.5z M11592.9,978.5h-77.2v-154
				c0-15,17.3-27.1,38.6-27.1c12.5,0,23.7,4.2,30.8,10.7c4.9,4.5,7.8,10.2,7.8,16.3V978.5z M11606.4,978.5V797.6
				c0-2.9,0.6-5.7,1.9-8.3c5-10.9,19.5-18.7,36.7-18.7c16.3,0,30.2,7.1,35.8,17c0.3,0.5,0.6,1.1,0.8,1.7c1.2,2.6,1.9,5.5,1.9,8.3
				l0,180.9H11606.4z M11897.7,978.5h-77.2l0-180.8c0-2.9,0.6-5.7,1.9-8.3c0.3-0.6,0.5-1.1,0.8-1.7c5.7-10,19.6-17,35.8-17
				c17.2,0,31.7,7.9,36.7,18.7c1.2,2.6,1.9,5.5,1.9,8.3V978.5z M11988.4,978.5h-77.2V824.6c0-6.1,2.9-11.8,7.8-16.3
				c7-6.5,18.2-10.7,30.8-10.7c21.3,0,38.6,12.1,38.6,27.1V978.5z M12081,978.5h-77.2V854.2c0-9.1,6.5-17.2,16.3-22.1
				c6.9-3.3,14.5-5,22.2-4.9c21.3,0,38.6,12.1,38.6,27.1V978.5z"/>
			<path class="st30" d="M12120.3,797.5c-23.2-15.7-112.1-60.7-368.2-60.7v-0.1c-256.1,0-345,45-368.2,60.7
				c-2.4,1.6-4.7,3.3-6.9,5.3v18.7h14.7c2-1.7,4-3.2,6.2-4.6c22.3-14.7,107.8-57,354.2-57v0.1c246.3,0,331.9,42.3,354.2,57
				c2.2,1.4,4.3,2.9,6.2,4.6h14.7v-18.7C12125,800.8,12122.7,799,12120.3,797.5z"/>
			<polygon class="st30" points="11752,978.5 11384,978.5 11384,984.5 11752,984.5 12120.1,984.5 12120.1,978.5 			"/>
		</g>
	</g>
</g>
</svg>
