<svg xmlns="http://www.w3.org/2000/svg" viewBox="0 0 16359.46 1080"><defs><style>.cls-1,.cls-8{fill:none;}.cls-2{fill:#b7daea;}.cls-3{fill:#a7d6ea;}.cls-4{fill:#bee7f4;}.cls-5{fill:#a6d4e8;}.cls-6,.cls-8{stroke:#a6d4e8;stroke-miterlimit:10;}.cls-6{stroke-width:5.22px;}.cls-7{fill:#a9ccdb;}.cls-8{stroke-width:4.67px;}</style></defs><title>EbeneHochhäuserInternet</title><g id="Ebene_2" data-name="Ebene 2"><g id="HilfsebeneZumExportieren"><polygon class="cls-1" points="16359.46 0 0 0 0.24 1079.99 16359.46 1080 16359.46 0"/></g><g id="EbeneHochhäuserHinten"><g id="Hochhaus"><rect class="cls-2" x="3528.86" y="369.69" width="207.81" height="610.39"/></g><g id="Hochhaus-2" data-name="Hochhaus"><path class="cls-3" d="M2740.28,415.33V980.08H2532.47V415.33S2629.63,282.43,2740.28,415.33Z"/></g><g id="Hochhaus-3" data-name="Hochhaus"><rect class="cls-4" x="3135.86" y="385.69" width="194.49" height="594.39"/><rect class="cls-4" x="3270.71" y="339.63" width="23.17" height="46.07"/><ellipse class="cls-4" cx="3282.29" cy="339.63" rx="22.5" ry="22.27"/></g><g id="Hochhaus-4" data-name="Hochhaus"><rect class="cls-4" x="3330.35" y="442.15" width="200.57" height="537.93"/><rect class="cls-4" x="3469.42" y="400.46" width="23.9" height="41.69"/><ellipse class="cls-4" cx="3481.36" cy="400.46" rx="23.2" ry="20.16"/></g><g id="Hochhaus-5" data-name="Hochhaus"><rect class="cls-5" x="2924.41" y="541.66" width="211.45" height="439.2" transform="translate(6060.27 1522.52) rotate(-180)"/><rect class="cls-5" x="3037.16" y="263.26" width="28.1" height="278.39"/><rect class="cls-5" x="2892.68" y="313.66" width="219.77" height="23.58"/><line class="cls-5" x1="2916.6" y1="313.66" x2="3051.22" y2="277.72"/><line class="cls-5" x1="3112.44" y1="313.66" x2="3051.22" y2="277.72"/><line class="cls-6" x1="2924.23" y1="323.45" x2="2924.23" y2="449.49"/><rect class="cls-5" x="2903.57" y="440.63" width="45.24" height="19.52"/></g><g id="Hochhaus-6" data-name="Hochhaus"><rect class="cls-7" x="2730.43" y="476.76" width="194.49" height="503.32" transform="translate(5655.35 1456.84) rotate(-180)"/><rect class="cls-7" x="2782.66" y="408.27" width="36.66" height="68.49"/></g><g id="Hochhaus-7" data-name="Hochhaus"><path class="cls-3" d="M4140.85,523.42V980.08H3933V523.42S4030.2,416,4140.85,523.42Z"/></g><g id="Hochhaus-8" data-name="Hochhaus"><rect class="cls-4" x="3736.57" y="426.02" width="194.49" height="554.06"/><rect class="cls-4" x="3871.41" y="383.07" width="23.17" height="42.94"/><ellipse class="cls-4" cx="3883" cy="383.07" rx="22.5" ry="20.76"/></g><g id="Hochhaus-9" data-name="Hochhaus"><rect class="cls-5" x="4298.22" y="623.14" width="207.81" height="356.94"/><rect class="cls-5" x="4367.6" y="396.89" width="27.62" height="226.25" transform="translate(8762.82 1020.03) rotate(-180)"/><rect class="cls-5" x="4321.23" y="437.85" width="215.98" height="19.16" transform="translate(8858.45 894.86) rotate(-180)"/><line class="cls-1" x1="4513.7" y1="437.85" x2="4381.41" y2="408.64"/><line class="cls-1" x1="4321.23" y1="437.85" x2="4381.41" y2="408.64"/><line class="cls-8" x1="4506.2" y1="445.81" x2="4506.2" y2="548.24"/><rect class="cls-5" x="4482.05" y="541.03" width="44.46" height="15.86" transform="translate(9008.56 1097.92) rotate(-180)"/></g><g id="Hochhaus-10" data-name="Hochhaus"><rect class="cls-7" x="4136.96" y="552.72" width="194.49" height="427.36" transform="translate(8468.42 1532.8) rotate(-180)"/><rect class="cls-7" x="4189.2" y="494.57" width="36.66" height="58.15"/></g><g id="Hochhaus-11" data-name="Hochhaus"><rect class="cls-2" x="4502.44" y="427.87" width="207.81" height="552.21"/></g><g id="Hochhaus-12" data-name="Hochhaus"><path class="cls-3" d="M5108.62,530.23V980.08H4900.81V530.23S4998,424.37,5108.62,530.23Z"/></g><g id="Hochhaus-13" data-name="Hochhaus"><rect class="cls-4" x="4710.14" y="450.35" width="194.49" height="529.73"/><rect class="cls-4" x="4844.99" y="409.29" width="23.17" height="41.06"/><ellipse class="cls-4" cx="4856.57" cy="409.29" rx="22.5" ry="19.85"/></g><g id="Hochhaus-14" data-name="Hochhaus"><rect class="cls-7" x="5110.54" y="595.13" width="194.49" height="384.95" transform="translate(10415.57 1575.21) rotate(-180)"/><rect class="cls-7" x="5162.77" y="542.75" width="36.66" height="52.38"/></g><g id="Hochhaus-15" data-name="Hochhaus"><rect class="cls-2" x="5304.88" y="363.69" width="207.81" height="616.39"/></g><g id="Hochhaus-16" data-name="Hochhaus"><path class="cls-3" d="M5914.89,484V980.08H5707.08V484S5804.23,367.21,5914.89,484Z"/></g><g id="Hochhaus-17" data-name="Hochhaus"><rect class="cls-4" x="5512.59" y="470.74" width="194.49" height="509.34"/><rect class="cls-4" x="5647.43" y="431.27" width="23.17" height="39.48"/><ellipse class="cls-4" cx="5659.02" cy="431.27" rx="22.5" ry="19.09"/></g><g id="Hochhaus-18" data-name="Hochhaus"><rect class="cls-2" x="5914.89" y="440.44" width="207.81" height="539.64"/></g><g id="Hochhaus-19" data-name="Hochhaus"><path class="cls-3" d="M6519,475.65V980.08H6311.24V475.65S6408.39,356.94,6519,475.65Z"/></g><g id="Hochhaus-20" data-name="Hochhaus"><rect class="cls-7" x="6516.79" y="552.72" width="194.49" height="427.36" transform="translate(13228.08 1532.8) rotate(-180)"/><rect class="cls-7" x="6569.03" y="494.57" width="36.66" height="58.15"/></g><g id="Hochhaus-21" data-name="Hochhaus"><rect class="cls-2" x="6708.01" y="389.31" width="207.81" height="590.77"/></g><g id="Hochhaus-22" data-name="Hochhaus"><path class="cls-3" d="M7318,534.35V980.08H7110.21V534.35S7207.36,429.46,7318,534.35Z"/></g><g id="Hochhaus-23" data-name="Hochhaus"><rect class="cls-4" x="6915.72" y="467.06" width="194.49" height="513.02"/><rect class="cls-4" x="7050.56" y="427.3" width="23.17" height="39.76"/><ellipse class="cls-4" cx="7062.15" cy="427.3" rx="22.5" ry="19.22"/></g><g id="Hochhaus-24" data-name="Hochhaus"><path class="cls-3" d="M7524.3,400v580.1H7316.49V400S7413.65,263.46,7524.3,400Z"/></g><g id="Hochhaus-25" data-name="Hochhaus"><rect class="cls-2" x="7525.21" y="415.15" width="207.81" height="564.93"/></g></g></g></svg>