<svg xmlns="http://www.w3.org/2000/svg" viewBox="0 0 16359.46 1080"><defs><style>.cls-1{fill:none;}.cls-2{fill:#9ac2d8;}.cls-3{fill:#73afc9;}.cls-4{fill:#57aace;}.cls-5{fill:#61c0e2;}.cls-6{fill:#628fa3;}.cls-7{fill:#7c9ba5;}.cls-8{fill:#99bcc9;}.cls-9{fill:#a9ccdb;}.cls-10{fill:#6ab5c6;}.cls-11{fill:#80d3e0;}.cls-12{opacity:0.1;}.cls-13{fill:#76a2b5;}.cls-14{fill:#7fbfd6;}.cls-15{fill:#668691;}.cls-16{fill:#95a7af;}.cls-17{fill:#aebfc4;}.cls-18{fill:#749ea8;}.cls-19{fill:#5e737a;}.cls-20{fill:#bbdeea;}.cls-21{fill:#678b93;}.cls-22{fill:#57889e;}.cls-23{fill:#5b99af;}.cls-24{fill:#648593;}.cls-25{fill:#4f99ba;}.cls-26{fill:#698087;}.cls-27{fill:#6fa8c1;}.cls-28{fill:#73bed8;}.cls-29{fill:#6d97a0;}.cls-30{fill:#50a0bc;}.cls-31{fill:#62b9d1;}.cls-32{fill:#58b1c6;}.cls-33{fill:#5acde0;}.cls-34{fill:#687d87;}.cls-35{fill:#90a8b2;}.cls-36{fill:#738f99;}.cls-37{fill:#6e8c99;}.cls-38{fill:#88abb7;}</style></defs><title>EbeneHochhäuserVorne</title><g id="Ebene_2" data-name="Ebene 2"><g id="HilfsebeneZumExportieren"><polygon class="cls-1" points="16359.46 0 0 0 0.24 1079.99 16359.46 1080 16359.46 0"/></g><g id="EbeneHochhäuserVorne"><g id="Hochhaus"><rect class="cls-2" x="4664" y="512.55" width="151.78" height="470.21"/><rect class="cls-3" x="4680.32" y="558.93" width="24.6" height="72.08"/><rect class="cls-3" x="4727.51" y="558.93" width="24.6" height="72.08"/><rect class="cls-3" x="4775.01" y="558.93" width="24.6" height="72.08"/><rect class="cls-3" x="4680.16" y="667.3" width="24.6" height="72.08"/><rect class="cls-3" x="4729.26" y="666.85" width="24.6" height="72.08"/><rect class="cls-3" x="4774.85" y="667.3" width="24.6" height="72.08"/></g><g id="Hochhaus-2" data-name="Hochhaus"><rect class="cls-4" x="2400.72" y="513.06" width="207.81" height="470.21"/><rect class="cls-5" x="2423.07" y="559.44" width="33.68" height="72.08"/><rect class="cls-5" x="2487.68" y="559.44" width="33.68" height="72.08"/><rect class="cls-5" x="2552.72" y="559.44" width="33.68" height="72.08"/><rect class="cls-5" x="2422.85" y="667.81" width="33.68" height="72.08"/><rect class="cls-5" x="2490.07" y="667.36" width="33.68" height="72.08"/><rect class="cls-5" x="2552.5" y="667.81" width="33.68" height="72.08"/></g><g id="Hochhaus-3" data-name="Hochhaus"><path class="cls-6" d="M3337,512.91V983.12H3129.14V512.91S3226.3,402.26,3337,512.91Z"/><rect class="cls-3" x="3151.49" y="559.3" width="33.68" height="72.08"/><rect class="cls-3" x="3216.1" y="559.3" width="33.68" height="72.08"/><rect class="cls-3" x="3281.14" y="559.3" width="33.68" height="72.08"/><rect class="cls-3" x="3151.27" y="667.66" width="33.68" height="72.08"/><rect class="cls-3" x="3218.5" y="667.22" width="33.68" height="72.08"/><rect class="cls-3" x="3280.93" y="667.66" width="33.68" height="72.08"/></g><g id="Hochhaus-4" data-name="Hochhaus"><polygon class="cls-7" points="2803.05 382.88 2608.56 382.88 2608.53 983.27 2803.05 983.28 2803.05 382.88"/><rect class="cls-8" x="2629.47" y="442.11" width="31.52" height="92.04" rx="15.76" ry="15.76"/><rect class="cls-8" x="2689.94" y="442.11" width="31.52" height="92.04" rx="15.76" ry="15.76"/><rect class="cls-8" x="2750.82" y="442.11" width="31.52" height="92.04" rx="15.76" ry="15.76"/><rect class="cls-8" x="2629.27" y="580.48" width="31.52" height="92.04" rx="15.76" ry="15.76"/><rect class="cls-8" x="2692.18" y="579.91" width="31.52" height="92.04" rx="15.76" ry="15.76"/><rect class="cls-8" x="2750.61" y="580.48" width="31.52" height="92.04" rx="15.76" ry="15.76"/><rect class="cls-9" x="2743.41" y="336.35" width="23.17" height="46.53"/><circle class="cls-9" cx="2754.99" cy="336.35" r="22.5" transform="translate(569.09 2046.59) rotate(-45)"/></g><g id="Hochhaus-5" data-name="Hochhaus"><rect class="cls-10" x="2803.02" y="616.89" width="326.12" height="366.41"/><rect class="cls-11" x="2823.93" y="653.04" width="31.52" height="56.17"/><rect class="cls-11" x="2884.4" y="653.04" width="31.52" height="56.17"/><rect class="cls-11" x="2945.28" y="653.04" width="31.52" height="56.17"/><rect class="cls-11" x="2823.73" y="737.48" width="31.52" height="56.17"/><rect class="cls-11" x="2886.64" y="737.14" width="31.52" height="56.17"/><rect class="cls-11" x="2945.07" y="737.48" width="31.52" height="56.17"/><rect class="cls-12" x="3004.58" y="616.89" width="124.57" height="366.41"/></g><g id="Hochhaus-6" data-name="Hochhaus"><rect class="cls-13" x="3531.01" y="573.67" width="207.81" height="409.86" transform="translate(7269.84 1557.21) rotate(-180)"/><rect class="cls-14" x="3682.79" y="614.1" width="33.68" height="62.83" transform="translate(7399.27 1291.04) rotate(-180)"/><rect class="cls-14" x="3618.19" y="614.1" width="33.68" height="62.83" transform="translate(7270.05 1291.04) rotate(-180)"/><rect class="cls-14" x="3553.14" y="614.1" width="33.68" height="62.83" transform="translate(7139.97 1291.04) rotate(-180)"/><rect class="cls-14" x="3683.01" y="708.56" width="33.68" height="62.83" transform="translate(7399.71 1479.95) rotate(-180)"/><rect class="cls-14" x="3615.79" y="708.17" width="33.68" height="62.83" transform="translate(7265.26 1479.18) rotate(-180)"/><rect class="cls-14" x="3553.36" y="708.56" width="33.68" height="62.83" transform="translate(7140.4 1479.95) rotate(-180)"/></g><g id="Hochhaus-7" data-name="Hochhaus"><rect class="cls-15" x="3336.95" y="477.15" width="194.49" height="505.97" transform="translate(6868.4 1460.27) rotate(-180)"/><rect class="cls-8" x="3479.01" y="527.06" width="31.52" height="77.56" rx="15.76" ry="15.76" transform="translate(6989.54 1131.69) rotate(-180)"/><rect class="cls-8" x="3418.54" y="527.06" width="31.52" height="77.56" rx="15.76" ry="15.76" transform="translate(6868.6 1131.69) rotate(180)"/><rect class="cls-8" x="3357.66" y="527.06" width="31.52" height="77.56" rx="15.76" ry="15.76" transform="translate(6746.85 1131.69) rotate(-180)"/><rect class="cls-8" x="3479.21" y="643.67" width="31.52" height="77.56" rx="15.76" ry="15.76" transform="translate(6989.95 1364.9) rotate(180)"/><rect class="cls-8" x="3416.3" y="643.19" width="31.52" height="77.56" rx="15.76" ry="15.76" transform="translate(6864.12 1363.94) rotate(-180)"/><rect class="cls-8" x="3357.87" y="643.67" width="31.52" height="77.56" rx="15.76" ry="15.76" transform="translate(6747.26 1364.9) rotate(180)"/><rect class="cls-15" x="3389.19" y="408.3" width="36.66" height="68.85"/></g><g id="Hochhaus-8" data-name="Hochhaus"><path class="cls-16" d="M6759.85,371.07V980.35H6552V371.07S6649.2,227.69,6759.85,371.07Z"/><rect class="cls-17" x="6574.39" y="431.17" width="33.68" height="93.4"/><rect class="cls-17" x="6639" y="431.17" width="33.68" height="93.4"/><rect class="cls-17" x="6704.05" y="431.17" width="33.68" height="93.4"/><rect class="cls-17" x="6574.18" y="571.59" width="33.68" height="93.4"/><rect class="cls-17" x="6641.4" y="571.01" width="33.68" height="93.4"/><rect class="cls-17" x="6703.83" y="571.59" width="33.68" height="93.4"/></g><g id="Hochhaus-9" data-name="Hochhaus"><rect class="cls-18" x="6225.92" y="546.08" width="326.12" height="434"/><rect class="cls-8" x="6246.84" y="588.9" width="31.52" height="66.53"/><rect class="cls-8" x="6307.3" y="588.9" width="31.52" height="66.53"/><rect class="cls-8" x="6368.18" y="588.9" width="31.52" height="66.53"/><rect class="cls-8" x="6246.63" y="688.91" width="31.52" height="66.53"/><rect class="cls-8" x="6309.55" y="688.5" width="31.52" height="66.53"/><rect class="cls-8" x="6367.98" y="688.91" width="31.52" height="66.53"/><rect class="cls-12" x="6427.48" y="546.08" width="124.57" height="434"/></g><g id="Hochhaus-10" data-name="Hochhaus"><rect class="cls-2" x="6954.43" y="428.17" width="207.81" height="552.15" transform="translate(14116.67 1408.49) rotate(-180)"/><rect class="cls-3" x="7106.21" y="482.64" width="33.68" height="84.64" transform="translate(14246.11 1049.93) rotate(-180)"/><rect class="cls-3" x="7041.6" y="482.64" width="33.68" height="84.64" transform="translate(14116.89 1049.93) rotate(-180)"/><rect class="cls-3" x="6976.56" y="482.64" width="33.68" height="84.64" transform="translate(13986.8 1049.93) rotate(-180)"/><rect class="cls-3" x="7106.43" y="609.89" width="33.68" height="84.64" transform="translate(14246.54 1304.42) rotate(-180)"/><rect class="cls-3" x="7039.21" y="609.37" width="33.68" height="84.64" transform="translate(14112.1 1303.38) rotate(-180)"/><rect class="cls-3" x="6976.78" y="609.89" width="33.68" height="84.64" transform="translate(13987.24 1304.42) rotate(-180)"/></g><g id="Hochhaus-11" data-name="Hochhaus"><rect class="cls-19" x="6759.85" y="474.35" width="194.49" height="505.97" transform="translate(13714.2 1454.67) rotate(-180)"/><rect class="cls-20" x="6901.91" y="524.26" width="31.52" height="77.56" rx="15.76" ry="15.76" transform="translate(13835.34 1126.08) rotate(-180)"/><rect class="cls-20" x="6841.44" y="524.26" width="31.52" height="77.56" rx="15.76" ry="15.76" transform="translate(13714.41 1126.08) rotate(-180)"/><rect class="cls-20" x="6780.57" y="524.26" width="31.52" height="77.56" rx="15.76" ry="15.76" transform="translate(13592.65 1126.08) rotate(180)"/><rect class="cls-20" x="6902.11" y="640.87" width="31.52" height="77.56" rx="15.76" ry="15.76" transform="translate(13835.75 1359.3) rotate(180)"/><rect class="cls-20" x="6839.2" y="640.39" width="31.52" height="77.56" rx="15.76" ry="15.76" transform="translate(13709.92 1358.34) rotate(180)"/><rect class="cls-20" x="6780.77" y="640.87" width="31.52" height="77.56" rx="15.76" ry="15.76" transform="translate(13593.06 1359.3) rotate(180)"/></g><g id="Hochhaus-12" data-name="Hochhaus"><rect class="cls-21" x="3738.37" y="420.93" width="326.12" height="562.09"/><rect class="cls-8" x="4012.06" y="476.38" width="31.52" height="86.17" transform="translate(8055.65 1038.93) rotate(-180)"/><rect class="cls-8" x="3951.59" y="476.38" width="31.52" height="86.17" transform="translate(7934.71 1038.93) rotate(-180)"/><rect class="cls-8" x="3890.72" y="476.38" width="31.52" height="86.17" transform="translate(7812.96 1038.93) rotate(-180)"/><rect class="cls-8" x="4012.27" y="605.92" width="31.52" height="86.17" transform="translate(8056.06 1298.01) rotate(-180)"/><rect class="cls-8" x="3949.35" y="605.39" width="31.52" height="86.17" transform="translate(7930.23 1296.94) rotate(-180)"/><rect class="cls-8" x="3890.92" y="605.92" width="31.52" height="86.17" transform="translate(7813.37 1298.01) rotate(-180)"/><rect class="cls-12" x="3875.73" y="420.93" width="187.96" height="562.09"/></g><g id="Hochhaus-13" data-name="Hochhaus"><rect class="cls-22" x="4063.69" y="512.55" width="207.81" height="470.21"/><rect class="cls-23" x="4086.04" y="558.93" width="33.68" height="72.08"/><rect class="cls-23" x="4150.65" y="558.93" width="33.68" height="72.08"/><rect class="cls-23" x="4215.69" y="558.93" width="33.68" height="72.08"/><rect class="cls-23" x="4085.82" y="667.3" width="33.68" height="72.08"/><rect class="cls-23" x="4153.04" y="666.85" width="33.68" height="72.08"/><rect class="cls-23" x="4215.47" y="667.3" width="33.68" height="72.08"/></g><g id="Hochhaus-14" data-name="Hochhaus"><path class="cls-24" d="M6022,509.87V980.08h207.81V509.87S6132.66,399.22,6022,509.87Z"/><rect class="cls-3" x="6173.79" y="556.25" width="33.68" height="72.08" transform="translate(12381.25 1184.59) rotate(-180)"/><rect class="cls-3" x="6109.18" y="556.25" width="33.68" height="72.08" transform="translate(12252.04 1184.59) rotate(-180)"/><rect class="cls-3" x="6044.13" y="556.25" width="33.68" height="72.08" transform="translate(12121.95 1184.59) rotate(-180)"/><rect class="cls-3" x="6174" y="664.62" width="33.68" height="72.08" transform="translate(12381.69 1401.32) rotate(-180)"/><rect class="cls-3" x="6106.78" y="664.17" width="33.68" height="72.08" transform="translate(12247.24 1400.43) rotate(-180)"/><rect class="cls-3" x="6044.35" y="664.62" width="33.68" height="72.08" transform="translate(12122.38 1401.32) rotate(-180)"/></g><g id="Hochhaus-15" data-name="Hochhaus"><rect class="cls-25" x="5620.14" y="570.22" width="207.81" height="409.86"/><rect class="cls-3" x="5642.48" y="610.66" width="33.68" height="62.83"/><rect class="cls-3" x="5707.09" y="610.66" width="33.68" height="62.83"/><rect class="cls-3" x="5772.13" y="610.66" width="33.68" height="62.83"/><rect class="cls-3" x="5642.26" y="705.11" width="33.68" height="62.83"/><rect class="cls-3" x="5709.49" y="704.72" width="33.68" height="62.83"/><rect class="cls-3" x="5771.92" y="705.11" width="33.68" height="62.83"/></g><g id="Hochhaus-16" data-name="Hochhaus"><rect class="cls-26" x="5827.51" y="474.11" width="194.49" height="505.97"/><rect class="cls-8" x="5848.43" y="524.02" width="31.52" height="77.56" rx="15.76" ry="15.76"/><rect class="cls-8" x="5908.9" y="524.02" width="31.52" height="77.56" rx="15.76" ry="15.76"/><rect class="cls-8" x="5969.77" y="524.02" width="31.52" height="77.56" rx="15.76" ry="15.76"/><rect class="cls-8" x="5848.22" y="640.63" width="31.52" height="77.56" rx="15.76" ry="15.76"/><rect class="cls-8" x="5911.14" y="640.15" width="31.52" height="77.56" rx="15.76" ry="15.76"/><rect class="cls-8" x="5969.57" y="640.63" width="31.52" height="77.56" rx="15.76" ry="15.76"/></g><g id="Hochhaus-17" data-name="Hochhaus"><path class="cls-27" d="M7901.64,308.52v671.8H7693.83V308.52S7791,150.43,7901.64,308.52Z"/><rect class="cls-28" x="7716.18" y="374.79" width="33.68" height="102.99"/><rect class="cls-28" x="7780.79" y="374.79" width="33.68" height="102.99"/><rect class="cls-28" x="7845.83" y="374.79" width="33.68" height="102.99"/><rect class="cls-28" x="7715.96" y="529.61" width="33.68" height="102.99"/><rect class="cls-28" x="7783.18" y="528.98" width="33.68" height="102.99"/><rect class="cls-28" x="7845.61" y="529.61" width="33.68" height="102.99"/></g><g id="Hochhaus-18" data-name="Hochhaus"><rect class="cls-29" x="7367.96" y="622.4" width="326.12" height="357.92"/><rect class="cls-8" x="7388.87" y="657.71" width="31.52" height="54.87"/><rect class="cls-8" x="7449.34" y="657.71" width="31.52" height="54.87"/><rect class="cls-8" x="7510.22" y="657.71" width="31.52" height="54.87"/><rect class="cls-8" x="7388.67" y="740.19" width="31.52" height="54.87"/><rect class="cls-8" x="7451.58" y="739.85" width="31.52" height="54.87"/><rect class="cls-8" x="7510.01" y="740.19" width="31.52" height="54.87"/><rect class="cls-12" x="7569.52" y="622.4" width="124.57" height="357.92"/></g><g id="Hochhaus-19" data-name="Hochhaus"><rect class="cls-30" x="7900.86" y="415.55" width="194.49" height="564.77" transform="translate(15996.21 1395.87) rotate(-180)"/><rect class="cls-31" x="8042.91" y="471.27" width="31.52" height="86.58" rx="15.76" ry="15.76" transform="translate(16117.35 1029.11) rotate(180)"/><rect class="cls-31" x="7982.45" y="471.27" width="31.52" height="86.58" rx="15.76" ry="15.76" transform="translate(15996.41 1029.11) rotate(-180)"/><rect class="cls-31" x="7921.57" y="471.27" width="31.52" height="86.58" rx="15.76" ry="15.76" transform="translate(15874.66 1029.11) rotate(180)"/><rect class="cls-31" x="8043.12" y="601.42" width="31.52" height="86.58" rx="15.76" ry="15.76" transform="translate(16117.76 1289.42) rotate(180)"/><rect class="cls-31" x="7980.2" y="600.89" width="31.52" height="86.58" rx="15.76" ry="15.76" transform="translate(15991.93 1288.35) rotate(180)"/><rect class="cls-31" x="7921.77" y="601.42" width="31.52" height="86.58" rx="15.76" ry="15.76" transform="translate(15875.07 1289.42) rotate(-180)"/></g><g id="Hochhaus-20" data-name="Hochhaus"><rect class="cls-32" x="5294.46" y="418" width="326.12" height="562.09"/><rect class="cls-33" x="5315.37" y="473.45" width="31.52" height="86.17"/><rect class="cls-33" x="5375.84" y="473.45" width="31.52" height="86.17"/><rect class="cls-33" x="5436.72" y="473.45" width="31.52" height="86.17"/><rect class="cls-33" x="5315.17" y="602.99" width="31.52" height="86.17"/><rect class="cls-33" x="5378.08" y="602.45" width="31.52" height="86.17"/><rect class="cls-33" x="5436.51" y="602.99" width="31.52" height="86.17"/><rect class="cls-12" x="5295.27" y="418" width="187.96" height="562.09"/></g><g id="Hochhaus-21" data-name="Hochhaus"><rect class="cls-34" x="5087.46" y="510.1" width="207.81" height="470.21" transform="translate(10382.72 1490.41) rotate(-180)"/><rect class="cls-35" x="5239.24" y="556.49" width="33.68" height="72.08" transform="translate(10512.16 1185.06) rotate(-180)"/><rect class="cls-35" x="5174.63" y="556.49" width="33.68" height="72.08" transform="translate(10382.94 1185.06) rotate(-180)"/><rect class="cls-35" x="5109.59" y="556.49" width="33.68" height="72.08" transform="translate(10252.85 1185.06) rotate(-180)"/><rect class="cls-35" x="5239.46" y="664.85" width="33.68" height="72.08" transform="translate(10512.59 1401.79) rotate(-180)"/><rect class="cls-35" x="5172.23" y="664.41" width="33.68" height="72.08" transform="translate(10378.15 1400.89) rotate(-180)"/><rect class="cls-35" x="5109.8" y="664.85" width="33.68" height="72.08" transform="translate(10253.29 1401.79) rotate(-180)"/></g><g id="Hochhaus-22" data-name="Hochhaus"><rect class="cls-36" x="4271.5" y="457.86" width="194.49" height="524.9"/><rect class="cls-8" x="4292.41" y="509.64" width="31.52" height="80.47" rx="15.76" ry="15.76"/><rect class="cls-8" x="4352.88" y="509.64" width="31.52" height="80.47" rx="15.76" ry="15.76"/><rect class="cls-8" x="4413.76" y="509.64" width="31.52" height="80.47" rx="15.76" ry="15.76"/><rect class="cls-8" x="4292.21" y="630.61" width="31.52" height="80.47" rx="15.76" ry="15.76"/><rect class="cls-8" x="4355.13" y="630.11" width="31.52" height="80.47" rx="15.76" ry="15.76"/><rect class="cls-8" x="4413.56" y="630.61" width="31.52" height="80.47" rx="15.76" ry="15.76"/><rect class="cls-9" x="4308.18" y="419.77" width="22.12" height="38.08"/><rect class="cls-9" x="4407.44" y="410.72" width="25.86" height="47.9"/></g><g id="Hochhaus-23" data-name="Hochhaus"><path class="cls-37" d="M4665.85,413.93V982.76H4458V413.93S4555.2,280.07,4665.85,413.93Z"/><rect class="cls-38" x="4480.39" y="470.04" width="33.68" height="87.2"/><rect class="cls-38" x="4545" y="470.04" width="33.68" height="87.2"/><rect class="cls-38" x="4610.04" y="470.04" width="33.68" height="87.2"/><rect class="cls-38" x="4480.17" y="601.13" width="33.68" height="87.2"/><rect class="cls-38" x="4547.4" y="600.59" width="33.68" height="87.2"/><rect class="cls-38" x="4609.83" y="601.13" width="33.68" height="87.2"/></g><g id="Hochhaus-24" data-name="Hochhaus"><path class="cls-24" d="M8123.86,509.87V980.08h207.81V509.87S8234.51,399.22,8123.86,509.87Z"/><rect class="cls-3" x="8275.64" y="556.25" width="33.68" height="72.08" transform="translate(16584.96 1184.59) rotate(-180)"/><rect class="cls-3" x="8211.03" y="556.25" width="33.68" height="72.08" transform="translate(16455.75 1184.59) rotate(-180)"/><rect class="cls-3" x="8145.99" y="556.25" width="33.68" height="72.08" transform="translate(16325.66 1184.59) rotate(-180)"/><rect class="cls-3" x="8275.86" y="664.62" width="33.68" height="72.08" transform="translate(16585.4 1401.32) rotate(-180)"/><rect class="cls-3" x="8208.64" y="664.17" width="33.68" height="72.08" transform="translate(16450.96 1400.43) rotate(-180)"/><rect class="cls-3" x="8146.21" y="664.62" width="33.68" height="72.08" transform="translate(16326.09 1401.32) rotate(-180)"/></g></g></g></svg>