<?xml version="1.0" encoding="UTF-8" standalone="no"?>
<!DOCTYPE svg PUBLIC "-//W3C//DTD SVG 1.1//EN" "http://www.w3.org/Graphics/SVG/1.1/DTD/svg11.dtd">
<svg width="100%" height="100%" viewBox="0 0 16360 1081" version="1.1" xmlns="http://www.w3.org/2000/svg" xmlns:xlink="http://www.w3.org/1999/xlink" xml:space="preserve" xmlns:serif="http://www.serif.com/" style="fill-rule:evenodd;clip-rule:evenodd;stroke-linejoin:round;stroke-miterlimit:2;">
    <g id="Ebene_2">
        <g id="HilfsebeneZumExportieren">
            <path d="M16359.5,0L0,0L0.24,1079.99L16359.5,1080L16359.5,0Z" style="fill:none;fill-rule:nonzero;"/>
        </g>
        <g id="EbeneHügelRomHinten" transform="matrix(1,0,0,1,-536,0)">
            <g transform="matrix(-1,7.65714e-16,-7.65714e-16,-1,26046.9,983.5)">
                <rect x="12982.3" y="450.57" width="82.35" height="82.35" style="fill:rgb(234,225,181);"/>
            </g>
            <path d="M12982.3,450.57L13024.3,423.89L13064.6,450.57" style="fill:rgb(232,121,82);fill-rule:nonzero;"/>
            <g transform="matrix(-1,7.65714e-16,-7.65714e-16,-1,23995.3,1114.57)">
                <rect x="11936" y="503.87" width="123.25" height="106.83" style="fill:rgb(234,225,181);"/>
            </g>
            <path d="M11936,503.87L11998.9,469.26L12059.3,503.87" style="fill:rgb(232,121,82);fill-rule:nonzero;"/>
            <g transform="matrix(-1,7.65714e-16,-7.65714e-16,-1,29533.6,484.51)">
                <rect x="14692.3" y="206.12" width="149.02" height="72.28" style="fill:rgb(234,225,181);"/>
            </g>
            <path d="M14692.3,206.12L14768.3,182.7L14841.3,206.12" style="fill:rgb(232,121,82);fill-rule:nonzero;"/>
            <g transform="matrix(-1,7.65714e-16,-7.65714e-16,-1,29273.9,492.11)">
                <rect x="14595.8" y="204.88" width="82.35" height="82.35" style="fill:rgb(234,225,181);"/>
            </g>
            <path d="M14595.8,204.88L14637.8,178.19L14678.1,204.88" style="fill:rgb(232,121,82);fill-rule:nonzero;"/>
            <rect x="11883.6" y="551.77" width="19.14" height="61.95" style="fill:rgb(239,154,106);"/>
            <path d="M11922.8,470.1C11922.9,495.994 11919.1,521.759 11911.5,546.52C11910.1,551.337 11907,555.475 11902.8,558.13C11896.9,561.688 11889.5,561.688 11883.6,558.13C11879.4,555.475 11876.2,551.337 11874.9,546.52C11867.3,521.759 11863.5,495.994 11863.6,470.1C11863.6,424.1 11874.9,382.53 11893.2,352.31C11911.5,382.53 11922.8,424.14 11922.8,470.1Z" style="fill:rgb(160,226,89);fill-rule:nonzero;"/>
            <path d="M11893.2,352.3L11893.2,613.72L11883.6,613.72L11883.6,558.13C11879.4,555.475 11876.2,551.337 11874.9,546.52C11867.3,521.759 11863.5,495.994 11863.6,470.1C11863.6,424.14 11874.9,382.53 11893.2,352.3Z" style="fill-opacity:0.1;fill-rule:nonzero;"/>
            <rect x="11710.1" y="623.04" width="19.14" height="61.95" style="fill:rgb(239,154,106);"/>
            <path d="M11749.2,541.37C11749.3,567.264 11745.6,593.029 11738,617.79C11736.6,622.607 11733.5,626.745 11729.2,629.4C11723.3,632.958 11716,632.958 11710.1,629.4C11705.8,626.745 11702.7,622.607 11701.3,617.79C11693.7,593.029 11690,567.264 11690.1,541.37C11690.1,495.37 11701.4,453.8 11719.6,423.58C11737.9,453.8 11749.2,495.42 11749.2,541.37Z" style="fill:rgb(160,226,89);fill-rule:nonzero;"/>
            <path d="M11719.6,423.58L11719.6,685L11710.1,685L11710.1,629.4C11705.8,626.745 11702.7,622.607 11701.3,617.79C11693.7,593.029 11690,567.264 11690.1,541.37C11690.1,495.42 11701.4,453.8 11719.6,423.58Z" style="fill-opacity:0.1;fill-rule:nonzero;"/>
            <rect x="11247" y="713.26" width="19.14" height="61.95" style="fill:rgb(239,154,106);"/>
            <path d="M11286.1,631.6C11286.3,657.494 11282.5,683.259 11274.9,708.02C11273.5,712.837 11270.4,716.975 11266.1,719.63C11260.3,723.188 11252.9,723.188 11247,719.63C11242.8,716.975 11239.6,712.837 11238.3,708.02C11230.7,683.259 11226.9,657.494 11227,631.6C11227,585.6 11238.3,544.03 11256.6,513.81C11274.9,544 11286.1,585.64 11286.1,631.6Z" style="fill:rgb(160,226,89);fill-rule:nonzero;"/>
            <path d="M11256.6,513.8L11256.6,775.22L11247,775.22L11247,719.63C11242.7,716.975 11239.6,712.837 11238.2,708.02C11230.7,683.259 11226.9,657.494 11227,631.6C11227,585.64 11238.3,544 11256.6,513.8Z" style="fill-opacity:0.1;fill-rule:nonzero;"/>
            <rect x="12249.6" y="601.8" width="19.14" height="61.95" style="fill:rgb(239,154,106);"/>
            <path d="M12288.8,520.13C12288.9,546.024 12285.1,571.789 12277.5,596.55C12276.2,601.367 12273,605.505 12268.8,608.16C12262.9,611.718 12255.5,611.718 12249.6,608.16C12245.4,605.505 12242.3,601.367 12240.9,596.55C12233.3,571.789 12229.5,546.024 12229.6,520.13C12229.6,474.13 12240.9,432.56 12259.2,402.34C12277.5,432.56 12288.8,474.17 12288.8,520.13Z" style="fill:rgb(160,226,89);fill-rule:nonzero;"/>
            <path d="M12259.2,402.33L12259.2,663.75L12249.6,663.75L12249.6,608.16C12245.4,605.505 12242.3,601.367 12240.9,596.55C12233.3,571.789 12229.5,546.024 12229.6,520.13C12229.6,474.17 12240.9,432.56 12259.2,402.33Z" style="fill-opacity:0.1;fill-rule:nonzero;"/>
            <rect x="12631.3" y="514.8" width="12.67" height="41" style="fill:rgb(239,154,106);"/>
            <path d="M12657.2,460.75C12657.3,477.888 12654.8,494.941 12649.8,511.33C12648.8,514.517 12646.8,517.254 12644,519.01C12640.1,521.365 12635.2,521.365 12631.3,519.01C12628.5,517.254 12626.4,514.517 12625.5,511.33C12620.5,494.941 12618,477.888 12618,460.75C12618,430.33 12625.5,402.75 12637.6,382.75C12649.7,402.79 12657.2,430.34 12657.2,460.75Z" style="fill:rgb(160,226,89);fill-rule:nonzero;"/>
            <path d="M12637.6,382.79L12637.6,555.79L12631.3,555.79L12631.3,519C12628.5,517.244 12626.4,514.507 12625.5,511.32C12620.5,494.931 12618,477.878 12618,460.74C12618.1,430.34 12625.5,402.79 12637.6,382.79Z" style="fill-opacity:0.1;fill-rule:nonzero;"/>
            <rect x="13127.8" y="455.5" width="12.67" height="41" style="fill:rgb(239,154,106);"/>
            <path d="M13153.6,401.45C13153.7,418.588 13151.2,435.641 13146.2,452.03C13145.3,455.217 13143.2,457.954 13140.4,459.71C13136.5,462.065 13131.6,462.065 13127.7,459.71C13124.9,457.954 13122.9,455.217 13121.9,452.03C13116.9,435.641 13114.4,418.588 13114.5,401.45C13114.5,371.03 13122,343.45 13134.1,323.45C13146.2,343.49 13153.6,371 13153.6,401.45Z" style="fill:rgb(160,226,89);fill-rule:nonzero;"/>
            <path d="M13134.1,323.49L13134.1,496.49L13127.7,496.49L13127.7,459.71C13124.9,457.954 13122.9,455.217 13121.9,452.03C13116.9,435.641 13114.4,418.588 13114.5,401.45C13114.5,371 13122,343.49 13134.1,323.49Z" style="fill-opacity:0.1;fill-rule:nonzero;"/>
            <rect x="14155.8" y="376.09" width="12.67" height="41" style="fill:rgb(239,154,106);"/>
            <path d="M14181.7,322C14181.8,339.138 14179.3,356.191 14174.3,372.58C14173.3,375.767 14171.3,378.504 14168.5,380.26C14164.6,382.615 14159.7,382.615 14155.8,380.26C14153,378.504 14150.9,375.767 14150,372.58C14145,356.191 14142.5,339.138 14142.5,322C14142.5,291.58 14150,264 14162.1,244C14174.2,264.08 14181.7,291.62 14181.7,322Z" style="fill:rgb(160,226,89);fill-rule:nonzero;"/>
            <path d="M14162.1,244.07L14162.1,417.07L14155.8,417.07L14155.8,380.3C14153,378.544 14150.9,375.807 14150,372.62C14145,356.231 14142.5,339.178 14142.5,322.04C14142.6,291.62 14150,264.08 14162.1,244.07Z" style="fill-opacity:0.1;fill-rule:nonzero;"/>
            <rect x="14337.8" y="286.56" width="12.67" height="41" style="fill:rgb(239,154,106);"/>
            <path d="M14363.7,232.51C14363.8,249.648 14361.3,266.701 14356.3,283.09C14355.4,286.277 14353.3,289.014 14350.5,290.77C14346.6,293.125 14341.7,293.125 14337.8,290.77C14335,289.014 14332.9,286.277 14332,283.09C14327,266.701 14324.5,249.648 14324.6,232.51C14324.6,202.09 14332.1,174.51 14344.1,154.51C14356.3,174.56 14363.7,202.1 14363.7,232.51Z" style="fill:rgb(160,226,89);fill-rule:nonzero;"/>
            <path d="M14344.1,154.55L14344.1,327.55L14337.8,327.55L14337.8,290.78C14335,289.024 14332.9,286.287 14332,283.1C14327,266.711 14324.5,249.658 14324.6,232.52C14324.6,202.1 14332.1,174.56 14344.1,154.55Z" style="fill-opacity:0.1;fill-rule:nonzero;"/>
            <rect x="14664.7" y="221.39" width="12.67" height="41" style="fill:rgb(239,154,106);"/>
            <path d="M14690.6,167.33C14690.7,184.468 14688.2,201.521 14683.2,217.91C14682.3,221.097 14680.2,223.834 14677.4,225.59C14673.5,227.945 14668.6,227.945 14664.7,225.59C14661.9,223.834 14659.8,221.097 14658.9,217.91C14653.9,201.521 14651.4,184.468 14651.5,167.33C14651.5,136.91 14658.9,109.33 14671,89.33C14683.1,109.38 14690.6,136.92 14690.6,167.33Z" style="fill:rgb(160,226,89);fill-rule:nonzero;"/>
            <path d="M14671,89.37L14671,262.37L14664.7,262.37L14664.7,225.6C14661.8,223.844 14659.8,221.107 14658.9,217.92C14653.8,201.531 14651.3,184.478 14651.4,167.34C14651.5,136.92 14658.9,109.38 14671,89.37Z" style="fill-opacity:0.1;fill-rule:nonzero;"/>
            <rect x="15029.4" y="368.44" width="12.67" height="41" style="fill:rgb(239,154,106);"/>
            <path d="M15055.3,314.39C15055.4,331.528 15052.9,348.581 15047.9,364.97C15046.9,368.157 15044.9,370.894 15042.1,372.65C15038.2,375.005 15033.3,375.005 15029.4,372.65C15026.6,370.894 15024.5,368.157 15023.6,364.97C15018.6,348.581 15016.1,331.528 15016.1,314.39C15016.1,283.97 15023.6,256.39 15035.7,236.39C15047.8,256.43 15055.3,284 15055.3,314.39Z" style="fill:rgb(160,226,89);fill-rule:nonzero;"/>
            <path d="M15035.7,236.43L15035.7,409.43L15029.4,409.43L15029.4,372.65C15026.6,370.894 15024.5,368.157 15023.6,364.97C15018.6,348.581 15016.1,331.528 15016.1,314.39C15016.2,284 15023.6,256.43 15035.7,236.43Z" style="fill-opacity:0.1;fill-rule:nonzero;"/>
            <path d="M16266.5,221C16177.9,221 16100.8,255.54 16061.8,306.3C16007.8,310.3 15959.3,327.09 15922.9,352.3C15863.6,331.83 15792.4,319.92 15716.3,319.92L15711,319.92C15684.1,309.397 15656.4,301.099 15628.2,295.11C15630.6,283.267 15631.8,271.204 15631.8,259.11C15631.8,228.69 15624.3,201.11 15612.3,181.11C15600.1,201.11 15592.7,228.66 15592.7,259.11C15592.7,269.092 15593.5,279.057 15595.1,288.9C15559.1,283.209 15522.6,280.376 15486.1,280.43C15470.5,280.43 15455.1,280.93 15439.9,281.93C15427.5,282.717 15415.4,283.82 15403.5,285.24C15390.6,286.773 15377.9,288.65 15365.5,290.87C15295.2,303.44 15234.4,326.67 15190,356.87C15149.8,349.716 15109.1,346.155 15068.3,346.23C15033.9,346.187 14999.6,348.691 14965.7,353.72C14904.1,289.72 14777.7,245.86 14631.8,245.86C14544.7,245.86 14464.6,261.49 14401,287.71C14386,286.743 14370.7,286.253 14355.1,286.24C14204.7,286.24 14075,332.88 14015.7,400.11C13949.3,368.38 13861,349.03 13764.1,349.03C13637,349.03 13524.8,382.32 13457.2,433.19C13421.8,427.697 13386,424.962 13350.1,425.01C13212.5,425.01 13092.3,464.01 13027.4,522.13C12985.6,508.61 12938.5,499.29 12888,495.27C12884.8,495 12881.5,494.77 12878.3,494.56C12876.4,494.43 12874.4,494.31 12872.5,494.2C12859,493.433 12845.3,493.043 12831.5,493.03L12825.1,493.03C12815.4,493.11 12805.7,493.39 12796.2,493.87C12794,493.97 12791.8,494.09 12789.6,494.22C12783,494.6 12776.6,495.07 12770.1,495.63C12763.8,496.17 12757.6,496.797 12751.4,497.51C12749.1,497.77 12746.9,498.04 12744.6,498.32C12734.7,499.56 12724.9,501.01 12715.2,502.67C12713.1,503.04 12710.9,503.42 12708.7,503.82C12695.5,506.22 12682.7,508.997 12670.2,512.15C12668.2,512.65 12666.2,513.15 12664.2,513.69C12661.1,514.51 12658,515.34 12655,516.21C12594.2,533.31 12543.5,558.97 12508.8,590.12C12479,586.303 12449.1,584.402 12419.1,584.43C12335.2,584.43 12257.8,598.93 12195.4,623.43C12111.3,610.14 12016.3,602.66 11915.7,602.66C11633.2,602.66 11394.6,661.66 11317.7,742.56C11309,742.46 11300.3,742.41 11291.7,742.41C11262.8,742.41 11234.5,742.93 11206.6,743.97C11135.5,746.58 11067.8,752.42 11005.3,760.97L10999.8,761.74C10991.5,762.9 10983.2,764.123 10975,765.41C10973,765.71 10971.1,766.01 10969.1,766.33C10966.1,766.81 10963,767.33 10960,767.81L10953.1,768.96C10950.5,769.41 10947.8,769.86 10945.2,770.33C10942.9,770.72 10940.6,771.13 10938.3,771.54L10930.4,772.99C10928.1,773.41 10925.8,773.84 10923.6,774.28C10920.9,774.767 10918.4,775.267 10915.8,775.78C10913.5,776.233 10911.2,776.69 10908.9,777.15C10905.9,777.75 10902.9,778.36 10900,778.98L10893.1,780.43L10885.2,782.15L10878.3,783.69C10875.7,784.29 10873,784.89 10870.4,785.51C10868.1,786.04 10865.8,786.59 10863.5,787.14C10861,787.74 10858.5,788.36 10856,788.97C10853.7,789.543 10851.4,790.12 10849.1,790.7L10842.7,792.34C10840.8,792.84 10838.9,793.347 10837,793.86L10835.9,794.15C10832.6,795.02 10829.4,795.89 10826.3,796.77L10822.4,797.86C10809.8,801.407 10797.7,805.103 10786.1,808.95C10781.1,810.623 10776.1,812.323 10771.2,814.05L10767.2,815.46L10763.5,816.83L10762.9,817.03L10759.3,818.38C10741.4,824.999 10723.9,832.607 10706.9,841.17C10703.5,842.87 10700.2,844.597 10697,846.35C10694.5,847.75 10691.9,849.167 10689.5,850.6C10685.2,853.06 10681.1,855.557 10677.2,858.09C10669.1,863.317 10661.3,869.076 10653.9,875.33C10651.9,877.05 10649.9,878.78 10648.1,880.52C10643,885.223 10638.4,890.337 10634.2,895.81C10624.6,908.3 10619.2,921.23 10618.3,934.49L10616.4,935.17C10610.7,937.235 10605.1,939.615 10599.6,942.3C10592.9,945.583 10586.5,949.441 10580.4,953.83L10580.2,954C10573.9,958.524 10568.2,963.853 10563.4,969.85C10560.8,973.022 10558.5,976.439 10556.6,980.05C10556.6,980.101 10556.6,980.158 10556.5,980.22C10556.4,980.46 10556.3,980.69 10556.2,980.93C10552.7,987.656 10550.9,995.11 10550.8,1002.68C10550.8,1012.41 10553.9,1021.74 10559.6,1030.38C10560.6,1031.9 10561.7,1033.4 10562.8,1034.88C10579.7,1056.45 10613.1,1073.12 10654,1079.97L10654.1,1079.97C10654.3,1080.01 10654.4,1080.03 10654.6,1080.05L10825.3,1080.05L10825.8,1080.2L11757.5,1080.2L11758.1,1080.05L11758.3,1079.97L15809.1,1079.97L15809.1,1080.12L15999.1,1080.12L15999.1,1079.97L16359.5,1079.97L16359.5,234.48C16329.4,225.44 16298,220.897 16266.5,221ZM14102,629.27L14103.6,627.5L14107,629.1L14102,629.27Z" style="fill:rgb(177,234,78);fill-rule:nonzero;"/>
        </g>
    </g>
</svg>
