<svg xmlns="http://www.w3.org/2000/svg" viewBox="0 0 16359.46 1080.16"><defs><style>.cls-1{fill:none;}.cls-2{fill:#abe254;}.cls-3{fill:#e2a85d;}.cls-4{fill:#8bef56;}.cls-5{fill:#070707;}.cls-5,.cls-6{opacity:0.1;}</style></defs><title>EbeneHügelAnfangHinten</title><g id="Ebene_2" data-name="Ebene 2"><g id="HilfsebeneZumExportieren"><polygon class="cls-1" points="16359.46 0 0 0 0.24 1079.99 16359.46 1080 16359.46 0"/></g><g id="EbeneHügelAnfangHinten"><path class="cls-2" d="M3048.87,962.6c-.61-.53-1.24-1.07-1.9-1.62q-2.64-2.2-5.85-4.64a161.31,161.31,0,0,0-20.49-13.08l-.39-.2a45,45,0,0,0-7.3-3c-18.76-6-49.29-6-82.75-9.57-9.82-1.06-19.89-2.44-30-4.37a237.46,237.46,0,0,1-29.57-7.55,98.47,98.47,0,0,1-20.91-9.68A97.31,97.31,0,0,1,2832,895a105.84,105.84,0,0,1-8.3-9.26,118.79,118.79,0,0,1-7.78-11,158.37,158.37,0,0,1-10.33-19.36c-5.19-11.45-1.15-12.32-10.32-22.14-2.7-2.89-3.54-2.81-7.47-5.53-13.06-9-41.93-26.34-86-37.62q-6.81-1.75-14.09-3.28c-9.81-2.06-20.28-3.8-31.39-5.08-10-1.16-20.5-2-31.53-2.29q-10-.32-20.7-.09h-.77c-120,2.79-120.33-19.4-154.9-12-20,4.25-29.25-6.92-38.82-11.57-14.9-7.24-91.63-10.91-152-23.13-11.38-2.3-22.68-4.73-33.69-7.28-7.54-1.74-14.94-3.54-22.12-5.38-36.76-9.45-67.83-20.15-83.14-31.38-10.53-7.72-21.41-18.5-32-30.71l0-.06c-39.78-45.76-75.84-111.53-75.84-111.53a23.84,23.84,0,0,0-8.75-8c-14.93-8.3-41.64-6.2-73.32.92q-3.44.77-7,1.62c-2.63.63-5.3,1.3-8,2-29.22,7.54-61.51,18.36-92.18,28.76L1806,576.77l-1.14.39q-6.88,2.34-13.58,4.57l-5.92,2c-6.59,2.18-13,4.25-19.14,6.17q-6,1.88-11.68,3.56c-2.76.81-5.46,1.58-8.08,2.31q-3.24.9-6.33,1.7c-1.07.28-2.13.55-3.17.8h0c-4.29,1.07-8.34,2-12.12,2.72-4,.76-7.69,1.33-11,1.66h-.1c-53,5.15-192.82-29.17-242.4-48.57a144.94,144.94,0,0,0-47.37-9.9l-.66,0c-2.77-.09-5.59-.14-8.48-.16-2.23,0-4.5,0-6.8,0-45.18.53-103.06,8.77-159.12,18.1h0c-71.84,12-140.72,25.69-176.15,27.28-3.37.15-7,.13-11-.07-5-.23-10.52-.74-16.37-1.47q-3.3-.44-6.75-.94c-3.72-.56-7.58-1.19-11.55-1.91-3.17-.56-6.43-1.18-9.75-1.84l-.94-.19-5.35-1.1-.7-.15-3.12-.67c-2.07-.44-4.16-.91-6.27-1.38q-6.64-1.5-13.53-3.16-7.68-1.86-15.62-3.9l-6-1.55c-22.36-5.85-45.86-12.58-69.09-19.4l-6.92-2-8.14-2.41c-18.86-5.59-37.32-11.13-54.61-16.19-41.46-12.14-76.17-21.54-93.34-22.27-23-1-59.16,12.11-92.31,27L634,539.1c-2.67,1.25-5.32,2.49-7.93,3.74-23.08,11-43.25,21.95-54.33,28.13-6.25,3.5-13,4.76-19.83,7.31-7.67,2.88-19.63,6-34.44,9h0c-42.91,8.81-109.68,16.88-164.83,16.1-10.42-.15-20.42-.61-29.77-1.44-5.29-.48-10.37-1.07-15.2-1.79q-3.07-.45-6-1c-2.09-.38-4.13-.78-6.11-1.22l-1.7-.38q-2.28-.52-4.44-1.11-4.16-1.11-7.86-2.43l-.84-.3c-2.17-.8-4.46-1.58-6.85-2.35-1.46-.46-3-.92-4.51-1.38-5.61-1.65-11.73-3.22-18.24-4.7-25.31-5.77-56.67-10.29-88.28-13.79l-8-.88c-2.5-.26-5-.52-7.5-.76-46.71-4.71-91.89-7.27-116.79-8.44,0,0,0,0,0,0-4.85-.24-8.94-.41-12.1-.55h-.08c-4.87-.2-18,.37-18,.37L.16,1080.08l2010.55.08H3062.15l-2.66-100.08S3055.85,968.66,3048.87,962.6Z"/><g id="Baum2"><rect class="cls-3" x="614.22" y="503.17" width="11.16" height="63.96"/><path class="cls-4" d="M625.18,500.64v.13a11,11,0,0,1-6,9.66l-.16.08a10.82,10.82,0,0,1-4.78,1.1,11,11,0,0,1-9.91-6.28,10.93,10.93,0,0,1,1.27-11.41,9.42,9.42,0,0,1,1.3-1.4,11.34,11.34,0,0,1,1.76-1.31,11,11,0,0,1,4.53-1.48q.53,0,1.05,0a11,11,0,0,1,3.27.49c.26.08.51.17.76.27s.51.22.76.33a11,11,0,0,1,6.15,9.1,3.35,3.35,0,0,1,0,.4C625.18,500.39,625.18,500.52,625.18,500.64Z"/><path class="cls-4" d="M614.22,494.4a10.91,10.91,0,0,1-1.47,5.48,9.29,9.29,0,0,1-.51.8,4.18,4.18,0,0,1-.26.34l-.26.32,0,0a10.87,10.87,0,0,1-7.4,3.95h0a9.11,9.11,0,0,1-1,.05,11,11,0,0,1-11-11q0-.37,0-.72a11,11,0,0,1,5.21-8.62l.43-.26c.25-.14.5-.26.76-.38a10.82,10.82,0,0,1,4.39-1h.15c.33,0,.66,0,1,0a10.62,10.62,0,0,1,2.35.47,10,10,0,0,1,2.1.93,4.18,4.18,0,0,1,.39.23h0a10.07,10.07,0,0,1,1,.73,11,11,0,0,1,3.06,3.88,10.43,10.43,0,0,1,1,3.32h0a7.3,7.3,0,0,1,.07.9h0A3.13,3.13,0,0,1,614.22,494.4Z"/><path class="cls-4" d="M604.25,482.76c0,.25,0,.48,0,.72a10.68,10.68,0,0,1-.13,1.09h0c0,.17-.07.35-.1.52l-.07.26a11,11,0,0,1-3.21,5.44h0a10.93,10.93,0,0,1-7.43,2.91c-.33,0-.65,0-1,0a11,11,0,0,1-4.55-20.38,11.1,11.1,0,0,1,5.52-1.5A11,11,0,0,1,601,475c.13.12.26.26.38.39h0A10.92,10.92,0,0,1,604.25,482.76Z"/><path class="cls-4" d="M624,461.87a10.7,10.7,0,0,1-.33,2.69,7.74,7.74,0,0,1-.22.77,11,11,0,0,1-1.75,3.28,10.58,10.58,0,0,1-1.06,1.17l-.22.21A11.62,11.62,0,0,1,619,471l0,0a11,11,0,0,1-9.63,1.16A10.77,10.77,0,0,1,607,471a11.07,11.07,0,0,1-2.55-2.33,11,11,0,0,1,4.51-17,10.66,10.66,0,0,1,3.24-.75c.27,0,.54,0,.82,0a10.8,10.8,0,0,1,5.34,1.4,5.88,5.88,0,0,1,.64.38A10.93,10.93,0,0,1,624,461.87Z"/><circle class="cls-4" cx="619.8" cy="458.84" r="10.96"/><path class="cls-4" d="M611.83,474.61a10.89,10.89,0,0,1-1.48,5.49,11.2,11.2,0,0,1-1.16,1.63,11.18,11.18,0,0,1-4.7,3.22,5.07,5.07,0,0,1-.49.15,10.92,10.92,0,0,1-6,.09l-.49-.14a11,11,0,0,1,3.33-21.41,10.75,10.75,0,0,1,1.36.09,10.93,10.93,0,0,1,6,2.73,11.56,11.56,0,0,1,.88.89,10.9,10.9,0,0,1,2.59,5.39.47.47,0,0,1,0,.1A10.73,10.73,0,0,1,611.83,474.61Z"/><circle class="cls-4" cx="611.83" cy="476.81" r="10.96"/><circle class="cls-4" cx="608.84" cy="483.44" r="10.96"/><circle class="cls-4" cx="617.81" cy="491.74" r="10.96"/><circle class="cls-4" cx="620" cy="474.9" r="10.96"/><circle class="cls-4" cx="623.19" cy="500.22" r="10.96"/><circle class="cls-4" cx="634.16" cy="493.99" r="10.96"/><circle class="cls-4" cx="644.12" cy="482.34" r="10.96"/><circle class="cls-4" cx="624.39" cy="461.45" r="10.96"/><path class="cls-4" d="M628.57,458.41a10.87,10.87,0,0,1-1.6,5.71,11.23,11.23,0,0,1-1.11,1.5,8.81,8.81,0,0,1-.9.91,10.76,10.76,0,0,1-2.91,1.89l-.38.16a10.14,10.14,0,0,1-1.68.52l-.31.07c-.23.05-.45.08-.69.11a11,11,0,0,1-1.39.09,7.62,7.62,0,0,1-.82,0h-.16a10.91,10.91,0,0,1-4.88-1.65h0a10.68,10.68,0,0,1-1.69-1.33h0a2.38,2.38,0,0,1-.3-.31,10.92,10.92,0,0,1-.79-14.36c.2-.25.39-.49.61-.72a10.9,10.9,0,0,1,8-3.51,9.78,9.78,0,0,1,1.39.09c.34,0,.67.09,1,.17l.74.2h0a10.95,10.95,0,0,1,7.2,6.92A10.74,10.74,0,0,1,628.57,458.41Z"/><circle class="cls-4" cx="636.55" cy="474.2" r="10.96"/><circle class="cls-4" cx="628.57" cy="483.02" r="10.96"/><circle class="cls-4" cx="619.6" cy="491.32" r="10.96"/><circle class="cls-4" cx="617.41" cy="474.48" r="10.96"/><path class="cls-4" d="M622.07,467.81c0,.09,0,.17,0,.26a3.16,3.16,0,0,1,0,.37c0,.39,0,.77-.07,1.15a17.49,17.49,0,0,1-.38,2.25,1.66,1.66,0,0,1-.05.2,17.15,17.15,0,0,1-1.55,4c-.06.12-.12.23-.19.34a15.29,15.29,0,0,1-.95,1.5l-.31.43a17.35,17.35,0,0,1-2.32,2.52h0a17.32,17.32,0,0,1-3.33,2.36c-.39.21-.79.42-1.2.59l-.19.09a16.27,16.27,0,0,1-2.09.76l-.73.2a16.72,16.72,0,0,1-3.69.5h-1.06a7.56,7.56,0,0,1-.82,0,17,17,0,0,1-4.4-.91c-.28-.09-.55-.2-.82-.31A17.59,17.59,0,0,1,609.57,451l.81.26c.38.14.75.28,1.11.45a17.43,17.43,0,0,1,4.45,2.78,17.75,17.75,0,0,1,4.06,5.06,17.31,17.31,0,0,1,1.66,4.53h0c0,.12.05.23.07.35A16.9,16.9,0,0,1,622.07,467.81Z"/><ellipse class="cls-4" cx="641.48" cy="471.11" rx="10.51" ry="9.25"/><ellipse class="cls-4" cx="632.93" cy="459.78" rx="8.54" ry="6.07"/><ellipse class="cls-4" cx="631.17" cy="508.03" rx="8.37" ry="5.32"/><path class="cls-4" d="M632.93,508c0,2-1.63,3.81-4.26,5.14a17.93,17.93,0,0,1-3.29,1.25,25.51,25.51,0,0,1-5.38.88c-.63,0-1.26.07-1.91.07a28.76,28.76,0,0,1-3.87-.26,17.91,17.91,0,0,1-8.87-3.32,5,5,0,0,1-2.1-3.75,4.27,4.27,0,0,1,1-2.65.07.07,0,0,1,0,0c1.38-1.73,4-3.13,7.41-3.93h0l.55-.12h0q.94-.21,1.95-.33a28.44,28.44,0,0,1,3.85-.26c.65,0,1.28,0,1.91.07a26.75,26.75,0,0,1,3.46.43l.72.15c.33.07.65.15,1,.23.52.13,1,.28,1.49.45a17.63,17.63,0,0,1,2.21.94,10.53,10.53,0,0,1,2.38,1.64,6,6,0,0,1,1.22,1.54A3.92,3.92,0,0,1,632.93,508Z"/><path class="cls-4" d="M612.4,504.46a7.24,7.24,0,0,1-7,7.26h-.22a7.27,7.27,0,0,1-7.27-7.27c0-.17,0-.34,0-.5a7.27,7.27,0,0,1,5.88-6.63,7.1,7.1,0,0,1,1.37-.13,7.27,7.27,0,0,1,6.11,3.32h0a6.93,6.93,0,0,1,.45.82s0,0,0,0A7.22,7.22,0,0,1,612.4,504.46Z"/><ellipse class="cls-4" cx="640.83" cy="498.48" rx="6.68" ry="8.81"/><path class="cls-5" d="M620,447.72V567.13h-5.78V515a17.91,17.91,0,0,1-8.87-3.32h-.22a7.27,7.27,0,0,1-7.27-7.27c0-.17,0-.34,0-.5a11,11,0,0,1-5.59-9.56q0-.37,0-.72a11,11,0,0,1-4.55-20.38A17.6,17.6,0,0,1,609.57,451a10.9,10.9,0,0,1,8-3.51,9.78,9.78,0,0,1,1.39.09C619.34,447.59,619.67,447.64,620,447.72Z"/></g><g id="Baum2-2" data-name="Baum2"><rect class="cls-3" x="139.8" y="513.84" width="12.93" height="74.1"/><path class="cls-4" d="M152.5,510.91v.15a12.34,12.34,0,0,1-.34,2.79A12.71,12.71,0,0,1,146,522c-.17.1-.33.19-.51.27a1.38,1.38,0,0,1-.19.1,12.69,12.69,0,0,1-15.55-19.23,10.63,10.63,0,0,1,1.5-1.62h0a14.07,14.07,0,0,1,2-1.51,12.69,12.69,0,0,1,5.25-1.7,12,12,0,0,1,1.22-.06,12.86,12.86,0,0,1,3.78.57h0a8.31,8.31,0,0,1,.86.32h0c.29.12.59.25.87.38l.7.37a12.65,12.65,0,0,1,4.17,3.79h0a12.51,12.51,0,0,1,2.26,6.38h0a4.07,4.07,0,0,1,0,.45C152.5,510.63,152.5,510.78,152.5,510.91Z"/><path class="cls-4" d="M139.8,503.69a12.61,12.61,0,0,1-1.7,6.35,9.22,9.22,0,0,1-.59.93c-.09.14-.19.27-.29.4a12.69,12.69,0,0,1-8.9,5c-.4,0-.8,0-1.21,0a12.7,12.7,0,0,1-12.71-12.7c0-.29,0-.57,0-.84a12.66,12.66,0,0,1,6-10l.5-.3a12.57,12.57,0,0,1,6-1.56h.18c.37,0,.76,0,1.12,0a12.1,12.1,0,0,1,2.74.55,12.27,12.27,0,0,1,2.88,1.34,12,12,0,0,1,1.2.85,13.06,13.06,0,0,1,2.17,2.22h0a12.78,12.78,0,0,1,2.49,6.1c0,.34.07.69.08,1C139.8,503.33,139.8,503.52,139.8,503.69Z"/><path class="cls-4" d="M128.25,490.2c0,.29,0,.57,0,.84a10.69,10.69,0,0,1-.15,1.26v0c0,.21-.07.41-.12.61a12.7,12.7,0,0,1-3.79,6.6h0a12.65,12.65,0,0,1-8.61,3.37c-.37,0-.76,0-1.12,0a12.69,12.69,0,0,1-7.45-22,12.7,12.7,0,0,1,8.57-3.34,12.66,12.66,0,0,1,8.95,3.69h0c.15.14.3.3.44.45h0a12.79,12.79,0,0,1,3.29,8.54Z"/><path class="cls-4" d="M151.12,466a12.4,12.4,0,0,1-.39,3.11h0c-.07.3-.16.59-.26.87h0a12.74,12.74,0,0,1-2,3.79,11.77,11.77,0,0,1-1.21,1.36h0l-.25.23a9.91,9.91,0,0,1-.92.76c-.21.17-.42.32-.65.47l0,0a12.59,12.59,0,0,1-6.93,2.06,12.37,12.37,0,0,1-1.57-.1,10.38,10.38,0,0,1-1.35-.24,11.71,11.71,0,0,1-1.31-.37h0a12.58,12.58,0,0,1-2.74-1.37,12.86,12.86,0,0,1-3-2.69h0a12.84,12.84,0,0,1-2.58-5.75,13.23,13.23,0,0,1-.18-2.16,12.78,12.78,0,0,1,8-11.8,12.42,12.42,0,0,1,3.74-.86h0c.32,0,.62,0,.95,0a12.48,12.48,0,0,1,6.18,1.61h0a6.2,6.2,0,0,1,.74.44c.24.16.47.32.7.49a11.91,11.91,0,0,1,2.15,2,9.84,9.84,0,0,0,.76,1A12.59,12.59,0,0,1,151.12,466Z"/><circle class="cls-4" cx="146.27" cy="462.49" r="12.7"/><path class="cls-4" d="M137,480.76a12.61,12.61,0,0,1-1.71,6.36A13,13,0,0,1,134,489a13,13,0,0,1-5.45,3.73,5.87,5.87,0,0,1-.57.18,12.65,12.65,0,0,1-6.93.1,5.66,5.66,0,0,1-.56-.17,12.7,12.7,0,0,1,3.86-24.8,12.46,12.46,0,0,1,1.57.1,12.66,12.66,0,0,1,6.93,3.16,13.39,13.39,0,0,1,1,1,12.63,12.63,0,0,1,3,6.24.54.54,0,0,1,0,.12A12.43,12.43,0,0,1,137,480.76Z"/><circle class="cls-4" cx="137.03" cy="483.31" r="12.7"/><circle class="cls-4" cx="133.57" cy="490.99" r="12.7"/><circle class="cls-4" cx="143.96" cy="500.6" r="12.7"/><circle class="cls-4" cx="146.5" cy="481.09" r="12.7"/><circle class="cls-4" cx="150.19" cy="510.43" r="12.7"/><circle class="cls-4" cx="162.9" cy="503.21" r="12.7"/><circle class="cls-4" cx="174.44" cy="489.72" r="12.7"/><circle class="cls-4" cx="151.58" cy="465.52" r="12.7"/><path class="cls-4" d="M156.43,462a4.51,4.51,0,0,1,0,.47,11.93,11.93,0,0,1-.39,2.74,12.51,12.51,0,0,1-2.73,5.15,11.24,11.24,0,0,1-1,1.06h0a12.5,12.5,0,0,1-3.82,2.38,11.53,11.53,0,0,1-2.29.67l-.11,0a6.13,6.13,0,0,1-.7.11,11.43,11.43,0,0,1-1.61.11c-.32,0-.64,0-1,0h0l-.15,0h0a12.6,12.6,0,0,1-5.3-1.71l-.34-.2h0a11.73,11.73,0,0,1-2-1.53h0a3.46,3.46,0,0,1-.35-.35A12.58,12.58,0,0,1,131,462a12.85,12.85,0,0,1,.77-4.37,12.78,12.78,0,0,1,11.93-8.33,11.43,11.43,0,0,1,1.61.11c.23,0,.47.07.7.11s.53.1.79.17l.53.15h0a12.64,12.64,0,0,1,7.56,6.2A12.61,12.61,0,0,1,156.43,462Z"/><circle class="cls-4" cx="165.67" cy="480.28" r="12.7"/><circle class="cls-4" cx="156.43" cy="490.51" r="12.7"/><circle class="cls-4" cx="146.04" cy="500.12" r="12.7"/><circle class="cls-4" cx="143.5" cy="480.61" r="12.7"/><path class="cls-4" d="M137.49,470.36c0,.08,0,.17,0,.26a10.07,10.07,0,0,1,0,1,5.26,5.26,0,0,1,0,.62c0,.23,0,.47-.09.69a16.15,16.15,0,0,1-1,3.63,13.91,13.91,0,0,1-.82,1.79.3.3,0,0,1,0,.07,17.44,17.44,0,0,1-4.3,5.18,16.5,16.5,0,0,1-3.67,2.28,16.07,16.07,0,0,1-2.66,1,16.25,16.25,0,0,1-3.44.54c-.32,0-.63,0-1,0a17,17,0,0,1-7.9-1.94,17.07,17.07,0,0,1,7.9-32.19,16.93,16.93,0,0,1,9.74,3.06,16.91,16.91,0,0,1,3.68,3.48,16.91,16.91,0,0,1,3.61,9.6C137.48,469.74,137.49,470,137.49,470.36Z"/><circle class="cls-4" cx="178.14" cy="470.59" r="15.25"/><circle class="cls-4" cx="166.24" cy="459.37" r="11.78"/><circle class="cls-4" cx="156.72" cy="452.27" r="10.22"/><path class="cls-6" d="M146,449.52V587.94H139.8V523.62a12.71,12.71,0,0,1-11.48-7.28c-.4,0-.8,0-1.21,0a12.7,12.7,0,0,1-12.71-12.7c0-.29,0-.57,0-.84a12.69,12.69,0,0,1-7.45-22,17.06,17.06,0,0,1,23.19-24.49,12.52,12.52,0,0,1,3.54-2.15,12.65,12.65,0,0,1,10-4.9,11.43,11.43,0,0,1,1.61.11C145.57,449.44,145.82,449.48,146,449.52Z"/></g><g id="Baum2-3" data-name="Baum2"><rect class="cls-3" x="869.99" y="532.72" width="10.98" height="62.91"/><path class="cls-4" d="M880.78,530.24v.13a11.43,11.43,0,0,1-.29,2.35,10.78,10.78,0,0,1-4.56,6.52,9.64,9.64,0,0,1-1.06.62h0l-.15.07A10.64,10.64,0,0,1,870,541a10.77,10.77,0,0,1-9.74-6.18,10.71,10.71,0,0,1,1.25-11.22,8.77,8.77,0,0,1,1.28-1.38A11.16,11.16,0,0,1,864.5,521,10.89,10.89,0,0,1,869,519.5c.34,0,.69,0,1,0a10.85,10.85,0,0,1,3.21.48h0c.26.08.5.17.74.27l.75.33a10.63,10.63,0,0,1,1.22.7,10.82,10.82,0,0,1,2.9,2.83,10.67,10.67,0,0,1,1.92,5.42h0a3.33,3.33,0,0,1,0,.39A2.93,2.93,0,0,1,880.78,530.24Z"/><path class="cls-4" d="M870,524.11a10.7,10.7,0,0,1-1.44,5.39,7.65,7.65,0,0,1-.5.79l-.25.34a10.75,10.75,0,0,1-7.55,4.22c-.34,0-.69,0-1,0a10.78,10.78,0,0,1-10.78-10.78c0-.25,0-.48,0-.71a10.75,10.75,0,0,1,5.13-8.48l.42-.26a10.71,10.71,0,0,1,5.06-1.33h.15a8.33,8.33,0,0,1,1,.05,10.21,10.21,0,0,1,2.32.46,10.72,10.72,0,0,1,2.45,1.14,11.07,11.07,0,0,1,1,.72,11.3,11.3,0,0,1,1.84,1.89h0A10.68,10.68,0,0,1,869,519.5a10.36,10.36,0,0,1,.95,3.26,7.19,7.19,0,0,1,.07.88C870,523.8,870,524,870,524.11Z"/><path class="cls-4" d="M860.19,512.66c0,.24,0,.47,0,.71a10.49,10.49,0,0,1-.12,1.07h0c0,.17-.07.35-.1.51a10.78,10.78,0,0,1-10.54,8.47c-.32,0-.64,0-1,0a10.77,10.77,0,0,1-2.63-20.89c.17-.07.34-.12.51-.17a10.51,10.51,0,0,1,3.08-.46A10.76,10.76,0,0,1,857,505h0c.13.12.26.25.38.39a11,11,0,0,1,1.51,2.13A10.75,10.75,0,0,1,860.19,512.66Z"/><path class="cls-4" d="M879.6,492.12a10.55,10.55,0,0,1-.33,2.64h0c-.07.26-.13.5-.22.75a10.89,10.89,0,0,1-1.73,3.22,9.65,9.65,0,0,1-1,1.14h0l-.21.2-.15.12a11,11,0,0,1-1.18.9h0l0,0a10.71,10.71,0,0,1-5.88,1.75,11.16,11.16,0,0,1-3-.44l-.56-.17a10.55,10.55,0,0,1-2.33-1.16,11,11,0,0,1-2.51-2.29h0a10.77,10.77,0,0,1,.13-13.6,10.86,10.86,0,0,1,4.31-3.13,10.53,10.53,0,0,1,3.18-.74c.26,0,.53,0,.81,0a10.66,10.66,0,0,1,5.25,1.37h0a6.24,6.24,0,0,1,.63.38,10.12,10.12,0,0,1,1.22.94A10.7,10.7,0,0,1,879.6,492.12Z"/><circle class="cls-4" cx="875.48" cy="489.13" r="10.78"/><path class="cls-4" d="M867.64,504.64a10.71,10.71,0,0,1-1.45,5.4,11,11,0,0,1-1.14,1.61,11,11,0,0,1-4.63,3.17,5,5,0,0,1-.49.15,10.74,10.74,0,0,1-5.88.09l-.48-.14a10.78,10.78,0,0,1,3.28-21.05,10.57,10.57,0,0,1,1.33.09,10.75,10.75,0,0,1,5.88,2.68,11.37,11.37,0,0,1,.86.88,10.72,10.72,0,0,1,2.55,5.3.46.46,0,0,1,0,.1A10.55,10.55,0,0,1,867.64,504.64Z"/><circle class="cls-4" cx="867.64" cy="506.81" r="10.78"/><circle class="cls-4" cx="864.7" cy="513.33" r="10.78"/><circle class="cls-4" cx="873.52" cy="521.49" r="10.78"/><circle class="cls-4" cx="875.68" cy="504.93" r="10.78"/><circle class="cls-4" cx="878.81" cy="529.83" r="10.78"/><circle class="cls-4" cx="889.6" cy="523.7" r="10.78"/><circle class="cls-4" cx="899.4" cy="512.25" r="10.78"/><circle class="cls-4" cx="879.99" cy="491.7" r="10.78"/><path class="cls-4" d="M884.11,488.72a10.73,10.73,0,0,1-2.67,7.1,9.23,9.23,0,0,1-.88.89,10.78,10.78,0,0,1-3.24,2,10.09,10.09,0,0,1-1.4.44l-.55.12h0a5.13,5.13,0,0,1-.67.1,9.58,9.58,0,0,1-1.38.09c-.26,0-.54,0-.8,0h-.16a10.62,10.62,0,0,1-4.79-1.63h0l-.05,0a10.52,10.52,0,0,1-1.62-1.27,2.37,2.37,0,0,1-.31-.3h0a10.71,10.71,0,0,1-3-7.5,10.89,10.89,0,0,1,.23-2.2,10.53,10.53,0,0,1,2.06-4.42A10.66,10.66,0,0,1,874.7,478a11.33,11.33,0,0,1,1.22.23l.48.14h0a10.68,10.68,0,0,1,4.38,2.55h0A10.79,10.79,0,0,1,884.11,488.72Z"/><circle class="cls-4" cx="891.95" cy="504.24" r="10.78"/><circle class="cls-4" cx="884.11" cy="512.92" r="10.78"/><circle class="cls-4" cx="875.29" cy="521.08" r="10.78"/><circle class="cls-4" cx="873.13" cy="504.52" r="10.78"/><path class="cls-4" d="M867.64,496v.08c0,.14,0,.28,0,.42a10.64,10.64,0,0,1-.12,1.28.56.56,0,0,1,0,.11h0a11.31,11.31,0,0,1-.7,2.57,10.81,10.81,0,0,1-1,2l-.09.14a10.48,10.48,0,0,1-.71,1,11.9,11.9,0,0,1-2.54,2.33,11.62,11.62,0,0,1-3.54,1.63,11.89,11.89,0,0,1-2,.36c-.37,0-.75.05-1.13.05h-.42a11.8,11.8,0,0,1-9.17-4.89c-.14-.18-.26-.36-.38-.55a11.85,11.85,0,0,1,17-16,12.2,12.2,0,0,1,2,1.81,11.88,11.88,0,0,1,2.87,6.93C867.62,495.51,867.64,495.77,867.64,496Z"/><circle class="cls-4" cx="892.55" cy="491.22" r="7.83"/><circle class="cls-4" cx="899.18" cy="501.61" r="8.4"/><path class="cls-5" d="M875.92,478.26V595.63H870V541a10.77,10.77,0,0,1-9.74-6.18c-.34,0-.69,0-1,0a10.78,10.78,0,0,1-10.78-10.78c0-.25,0-.48,0-.71a10.77,10.77,0,0,1-2.63-20.89,11.85,11.85,0,0,1,14.7-17.27,10.86,10.86,0,0,1,4.31-3.13A10.66,10.66,0,0,1,874.7,478,11.33,11.33,0,0,1,875.92,478.26Z"/></g><g id="Baum2-4" data-name="Baum2"><rect class="cls-3" x="1395.15" y="555.07" width="11.6" height="66.47"/><path class="cls-4" d="M1406.54,552.44v.13a11.26,11.26,0,0,1-.31,2.5,11.41,11.41,0,0,1-5.94,7.54l-.17.08h0a11.18,11.18,0,0,1-4.95,1.13,11.38,11.38,0,0,1-10.3-6.53,11.37,11.37,0,0,1,1.31-11.85h0a9.8,9.8,0,0,1,1.35-1.45h0a11.27,11.27,0,0,1,6.53-2.89,11,11,0,0,1,1.1-.05,11.4,11.4,0,0,1,3.4.52c.26.08.52.17.79.28s.52.22.76.34h0a11.34,11.34,0,0,1,4.36,3.73,11.19,11.19,0,0,1,2,5.73,3.85,3.85,0,0,1,0,.41h0A3.18,3.18,0,0,1,1406.54,552.44Z"/><path class="cls-4" d="M1395.15,546a11.36,11.36,0,0,1-1.53,5.7c-.16.29-.34.56-.53.84-.08.12-.17.24-.26.36a11.41,11.41,0,0,1-8,4.46c-.36,0-.72.05-1.09.05a11.39,11.39,0,0,1-11.39-11.4c0-.25,0-.5,0-.75a11.34,11.34,0,0,1,5.42-9l.44-.27a11.22,11.22,0,0,1,5.35-1.4h.16c.33,0,.68,0,1,.05a11.08,11.08,0,0,1,2.46.49,11,11,0,0,1,2.58,1.21h0a12.32,12.32,0,0,1,1.07.76,11.29,11.29,0,0,1,1.95,2,11.45,11.45,0,0,1,2.23,5.48h0a7.79,7.79,0,0,1,.07.92h0A3.37,3.37,0,0,1,1395.15,546Z"/><path class="cls-4" d="M1384.79,533.87c0,.25,0,.5,0,.75a9.68,9.68,0,0,1-.13,1.13h0c0,.19-.07.37-.11.55a11.39,11.39,0,0,1-3.39,5.92h0a11.39,11.39,0,0,1-7.73,3c-.34,0-.68,0-1-.05a11.39,11.39,0,0,1-2.25-22.25,11,11,0,0,1,3.26-.48,11.44,11.44,0,0,1,7.69,3l.34.33c.14.13.27.28.4.41A11.35,11.35,0,0,1,1384.79,533.87Z"/><path class="cls-4" d="M1405.3,512.16A11.11,11.11,0,0,1,1405,515a8,8,0,0,1-.23.8,11.43,11.43,0,0,1-1.82,3.41,11,11,0,0,1-1.1,1.22l-.22.22a12.08,12.08,0,0,1-1.41,1.09l0,0a11.47,11.47,0,0,1-10,1.2,11.19,11.19,0,0,1-2.46-1.23,11.5,11.5,0,0,1-2.65-2.42,11.39,11.39,0,0,1,4.69-17.68,11.08,11.08,0,0,1,3.36-.78c.28,0,.56,0,.85,0a11.22,11.22,0,0,1,5.55,1.45,6.11,6.11,0,0,1,.66.4A11.36,11.36,0,0,1,1405.3,512.16Z"/><circle class="cls-4" cx="1400.95" cy="509.01" r="11.39"/><path class="cls-4" d="M1392.66,525.4a11.31,11.31,0,0,1-1.53,5.71,11.64,11.64,0,0,1-1.2,1.7,11.62,11.62,0,0,1-4.89,3.35,5.26,5.26,0,0,1-.51.16,11.35,11.35,0,0,1-6.21.09l-.51-.15a11.39,11.39,0,0,1,3.46-22.25,11.17,11.17,0,0,1,1.41.09,11.36,11.36,0,0,1,6.21,2.83,12,12,0,0,1,.91.93,11.33,11.33,0,0,1,2.69,5.6.48.48,0,0,1,0,.11A11.15,11.15,0,0,1,1392.66,525.4Z"/><circle class="cls-4" cx="1392.66" cy="527.68" r="11.39"/><circle class="cls-4" cx="1389.56" cy="534.58" r="11.39"/><circle class="cls-4" cx="1398.88" cy="543.2" r="11.39"/><circle class="cls-4" cx="1401.16" cy="525.7" r="11.39"/><circle class="cls-4" cx="1404.47" cy="552.01" r="11.39"/><circle class="cls-4" cx="1415.86" cy="545.54" r="11.39"/><circle class="cls-4" cx="1426.22" cy="533.43" r="11.39"/><circle class="cls-4" cx="1405.71" cy="511.72" r="11.39"/><path class="cls-4" d="M1410.07,508.57a11.28,11.28,0,0,1-2.82,7.5,9.44,9.44,0,0,1-.92.95h0a11.39,11.39,0,0,1-3.42,2.14,11.14,11.14,0,0,1-2.05.6c-.24.05-.47.08-.72.11h0a10.29,10.29,0,0,1-1.43.09c-.28,0-.57,0-.85,0h-.2a11.32,11.32,0,0,1-5-1.72h0a11.21,11.21,0,0,1-1.76-1.37h0a2.65,2.65,0,0,1-.25-.25l-.07-.07a11.27,11.27,0,0,1-3.22-7.93,11.32,11.32,0,0,1,2.41-7,11.29,11.29,0,0,1,6.57-4.14,11,11,0,0,1,2.42-.26,10.28,10.28,0,0,1,1.43.1h0a10.27,10.27,0,0,1,1.78.38h.06a10.72,10.72,0,0,1,2.26,1,11.19,11.19,0,0,1,2.36,1.75,11.4,11.4,0,0,1,3.27,5.94A11.64,11.64,0,0,1,1410.07,508.57Z"/><circle class="cls-4" cx="1418.35" cy="524.97" r="11.39"/><circle class="cls-4" cx="1410.06" cy="534.14" r="11.39"/><circle class="cls-4" cx="1400.74" cy="542.76" r="11.39"/><circle class="cls-4" cx="1398.46" cy="525.26" r="11.39"/><path class="cls-4" d="M1391.39,512.57a10.25,10.25,0,0,1-.25,2.23,10,10,0,0,1-.53,1.67l0,.09a9.15,9.15,0,0,1-.47,1l-.23.39a10.3,10.3,0,0,1-1.27,1.64,10,10,0,0,1-1.78,1.49,10.09,10.09,0,0,1-4.39,1.62,10.23,10.23,0,0,1-1.17.07h-.05A10.19,10.19,0,0,1,1371,512.57c0-.28,0-.57,0-.84a10.19,10.19,0,0,1,15.2-8,9.9,9.9,0,0,1,1.63,1.16,10.46,10.46,0,0,1,1.35,1.43c.17.23.33.45.49.69A10.17,10.17,0,0,1,1391.39,512.57Z"/><path class="cls-4" d="M1381.27,523.28a12.51,12.51,0,0,1-.18,2.17,12.72,12.72,0,0,1-.57,2.19,11.75,11.75,0,0,1-1.72,3.18,10.16,10.16,0,0,1-4.63,3.48,8.94,8.94,0,0,1-3.11.55,9.89,9.89,0,0,1-8.34-4.91,12.51,12.51,0,0,1-1.87-6.66c0-6.39,4.58-11.56,10.21-11.56h0a9.5,9.5,0,0,1,6.69,2.84,12.07,12.07,0,0,1,3.51,8.19C1381.27,522.93,1381.27,523.11,1381.27,523.28Z"/><path class="cls-4" d="M1399.55,501.23a2.66,2.66,0,0,1-.17.95.38.38,0,0,1,0,.12,5.41,5.41,0,0,1-2.68,2.54,15.51,15.51,0,0,1-6.77,1.49h-.63c-.59,0-1.16-.05-1.72-.11a16,16,0,0,1-2.93-.6c-2.25-.68-3.91-1.82-4.55-3.16a2.79,2.79,0,0,1-.29-1.22c0-2.81,4.43-5.09,9.9-5.09a16.11,16.11,0,0,1,6.61,1.3,9.1,9.1,0,0,1,1.27.71A3.9,3.9,0,0,1,1399.55,501.23Z"/><circle class="cls-4" cx="1422.49" cy="511.05" r="8.91"/><ellipse class="cls-4" cx="1420.03" cy="502.25" rx="9.73" ry="8.78"/><ellipse class="cls-4" cx="1430.79" cy="519.7" rx="9.34" ry="7.98" transform="translate(631.63 1815.31) rotate(-78.29)"/><ellipse class="cls-4" cx="1428.16" cy="508.77" rx="10.58" ry="9.72"/><ellipse class="cls-4" cx="1409.6" cy="501.23" rx="6.26" ry="5.09"/><path class="cls-5" d="M1400.1,497.28V621.54h-4.95v-57.7a11.38,11.38,0,0,1-10.3-6.53c-.36,0-.72.05-1.09.05a11.39,11.39,0,0,1-11.39-11.4c0-.25,0-.5,0-.75a11.39,11.39,0,0,1-9.68-15.27,12.51,12.51,0,0,1-1.87-6.66c0-6.39,4.58-11.56,10.21-11.56h0a10.17,10.17,0,0,1,9-9.28,2.79,2.79,0,0,1-.29-1.22c0-2.81,4.43-5.09,9.9-5.09a16.11,16.11,0,0,1,6.61,1.3,11,11,0,0,1,2.42-.26A10.28,10.28,0,0,1,1400.1,497.28Z"/></g><g id="Baum2-5" data-name="Baum2"><rect class="cls-3" x="1906.99" y="493.17" width="12.6" height="72.2"/><path class="cls-4" d="M1919.36,490.32v.14a12,12,0,0,1-.34,2.71,12.37,12.37,0,0,1-5.3,7.53,12.06,12.06,0,0,1-1.15.67l-.19.09a12.19,12.19,0,0,1-5.39,1.24,12.32,12.32,0,0,1-9.68-4.67,11.44,11.44,0,0,1-1.52-2.42,12.29,12.29,0,0,1-1.18-5.28h0a12.24,12.24,0,0,1,2.61-7.59,10.06,10.06,0,0,1,1.47-1.58,13.08,13.08,0,0,1,2-1.48,12.35,12.35,0,0,1,5.12-1.67q.59-.05,1.19-.05a12.33,12.33,0,0,1,3.68.56h0c.29.09.57.19.85.3s.57.24.85.38a13,13,0,0,1,1.34.76,12.28,12.28,0,0,1,3.4,3.3h0a12.22,12.22,0,0,1,2.21,6.2h0a4.1,4.1,0,0,1,0,.45h0C1919.36,490,1919.36,490.18,1919.36,490.32Z"/><path class="cls-4" d="M1907,483.28a12.31,12.31,0,0,1-1.66,6.18,9.66,9.66,0,0,1-.58.91c-.09.13-.19.26-.29.39a12.34,12.34,0,0,1-8.67,4.84q-.58.05-1.19.05a12.37,12.37,0,0,1-12.38-12.38c0-.28,0-.55,0-.82a12.34,12.34,0,0,1,5.89-9.73l.49-.29a12.21,12.21,0,0,1,5.81-1.53h.17c.37,0,.74,0,1.1.05a12,12,0,0,1,2.66.53,12.1,12.1,0,0,1,2.81,1.31,11.81,11.81,0,0,1,1.16.83,12.07,12.07,0,0,1,2.12,2.17,12.22,12.22,0,0,1,1.34,2.21,12,12,0,0,1,1.09,3.74,9.49,9.49,0,0,1,.08,1A5.05,5.05,0,0,1,1907,483.28Z"/><path class="cls-4" d="M1895.73,470.14c0,.28,0,.55,0,.82a9.53,9.53,0,0,1-.11,1,2.46,2.46,0,0,1,0,.24v0c0,.2-.08.4-.12.59a12.33,12.33,0,0,1-3.69,6.43h0a11.73,11.73,0,0,1-1.39,1.12,12.32,12.32,0,0,1-7,2.17c-.37,0-.74,0-1.1-.05a12.18,12.18,0,0,1-3.79-1,12.37,12.37,0,0,1,1.35-23.22,12.08,12.08,0,0,1,3.54-.52,12.32,12.32,0,0,1,8.72,3.6h0c.16.14.3.29.44.44A12.35,12.35,0,0,1,1895.73,470.14Z"/><path class="cls-4" d="M1918,446.56a12.07,12.07,0,0,1-.38,3,8.73,8.73,0,0,1-.25.86,12.42,12.42,0,0,1-2,3.7,11.94,11.94,0,0,1-1.2,1.32l-.24.23a13.12,13.12,0,0,1-1.53,1.19l0,0a12.46,12.46,0,0,1-10.87,1.31,12.16,12.16,0,0,1-2.67-1.33,12.49,12.49,0,0,1-2.88-2.63,12.37,12.37,0,0,1,5.09-19.21,12,12,0,0,1,3.65-.85c.31,0,.61,0,.93,0a12.19,12.19,0,0,1,6,1.58,6.63,6.63,0,0,1,.72.43A12.34,12.34,0,0,1,1918,446.56Z"/><circle class="cls-4" cx="1913.28" cy="443.13" r="12.38"/><path class="cls-4" d="M1904.28,460.94a12.29,12.29,0,0,1-1.67,6.2,12.64,12.64,0,0,1-1.31,1.85,12.62,12.62,0,0,1-5.31,3.64,5.72,5.72,0,0,1-.56.17,12.32,12.32,0,0,1-6.75.1,5.51,5.51,0,0,1-.55-.16,12.38,12.38,0,0,1,3.76-24.17,12.14,12.14,0,0,1,1.53.1,12.34,12.34,0,0,1,6.75,3.08,13,13,0,0,1,1,1,12.31,12.31,0,0,1,2.93,6.08.53.53,0,0,1,0,.12A12.11,12.11,0,0,1,1904.28,460.94Z"/><circle class="cls-4" cx="1904.28" cy="463.42" r="12.38"/><circle class="cls-4" cx="1900.91" cy="470.91" r="12.38"/><circle class="cls-4" cx="1911.03" cy="480.27" r="12.38"/><circle class="cls-4" cx="1913.51" cy="461.26" r="12.38"/><circle class="cls-4" cx="1917.11" cy="489.85" r="12.38"/><circle class="cls-4" cx="1929.49" cy="482.81" r="12.38"/><circle class="cls-4" cx="1940.74" cy="469.66" r="12.38"/><circle class="cls-4" cx="1918.46" cy="446.08" r="12.38"/><path class="cls-4" d="M1923.19,442.66a12.3,12.3,0,0,1-3.06,8.14,10.62,10.62,0,0,1-1,1,12.21,12.21,0,0,1-5.39,2.86l-.55.13h0c-.26.05-.51.08-.78.11a10.85,10.85,0,0,1-1.58.11c-.31,0-.62,0-.93,0h0l-.17,0h0a11.6,11.6,0,0,1-2.49-.49,11.91,11.91,0,0,1-3-1.37h0a12.1,12.1,0,0,1-1.91-1.48,2.74,2.74,0,0,1-.35-.35,12.35,12.35,0,0,1-3.51-8.61,12,12,0,0,1,.35-2.93,12.36,12.36,0,0,1,12-9.44,10.85,10.85,0,0,1,1.58.11,11.72,11.72,0,0,1,1.34.24l.62.18h0a12.26,12.26,0,0,1,5,2.93,12.31,12.31,0,0,1,3.79,8.91Z"/><circle class="cls-4" cx="1932.19" cy="460.47" r="12.38"/><circle class="cls-4" cx="1923.19" cy="470.44" r="12.38"/><circle class="cls-4" cx="1913.06" cy="479.8" r="12.38"/><circle class="cls-4" cx="1910.58" cy="460.79" r="12.38"/><path class="cls-4" d="M1907.21,455a18,18,0,0,1-.41,3.84c-.07.35-.15.68-.25,1a17.82,17.82,0,0,1-3.86,7.11.47.47,0,0,1-.08.11,18.49,18.49,0,0,1-5.33,4.09,16.6,16.6,0,0,1-1.68.74l-.21.08a17.72,17.72,0,0,1-5.61,1.11l-.68,0h-.36c-.38,0-.76,0-1.14-.06a18.11,18.11,0,0,1,.81-36.14l.69,0a18,18,0,0,1,9.69,2.81,17.4,17.4,0,0,1,2.25,1.69,18,18,0,0,1,3.38,3.94,17.53,17.53,0,0,1,1.84,3.84,14.7,14.7,0,0,1,.48,1.71,3,3,0,0,1,.09.4,17.38,17.38,0,0,1,.35,2.59c0,.2,0,.4,0,.6S1907.21,454.85,1907.21,455Z"/><path class="cls-4" d="M1911,438.18c0,2.68-1.92,5-4.86,6.47a11.54,11.54,0,0,1-1.75.71,14.57,14.57,0,0,1-3.17.64,14.34,14.34,0,0,1-1.6.08l-.73,0a14.8,14.8,0,0,1-5.52-1.29c-3.09-1.4-5.13-3.83-5.13-6.59a5.61,5.61,0,0,1,.14-1.25c.86-3.77,5.55-6.65,11.24-6.65a15.26,15.26,0,0,1,5.93,1.15,13.8,13.8,0,0,1,1.69.88,8.92,8.92,0,0,1,2.82,2.7,6.44,6.44,0,0,1,.67,1.4A5.68,5.68,0,0,1,1911,438.18Z"/><ellipse class="cls-4" cx="1932.6" cy="442.6" rx="10.54" ry="9.41"/><circle class="cls-4" cx="1942.23" cy="450.85" r="11.39"/><ellipse class="cls-4" cx="1945.53" cy="459.37" rx="9.97" ry="8.52"/><ellipse class="cls-4" cx="1929.37" cy="492.48" rx="9.56" ry="5.9"/><path class="cls-4" d="M1902.06,494.35c0,1.64-1.95,3.06-4.75,3.68a14.54,14.54,0,0,1-3.24.35c-4.14,0-7.55-1.6-7.93-3.64a1.52,1.52,0,0,1,0-.39,2.43,2.43,0,0,1,.61-1.54c1-1.18,3-2.08,5.54-2.37a12.91,12.91,0,0,1,1.83-.12h.54c3.48.12,6.35,1.36,7.19,3A2.19,2.19,0,0,1,1902.06,494.35Z"/><path class="cls-4" d="M1893.21,486.57a8.24,8.24,0,0,1-4.73,7.45,7.82,7.82,0,0,1-2.33.71,7.67,7.67,0,0,1-1.17.08,8.24,8.24,0,1,1,8.24-8.24Z"/><circle class="cls-4" cx="1942.82" cy="483.05" r="7.26"/><ellipse class="cls-4" cx="1937.5" cy="488.22" rx="5.32" ry="3.96"/><path class="cls-5" d="M1913.72,430.63V565.37H1907V502.69a12.32,12.32,0,0,1-9.68-4.67,14.54,14.54,0,0,1-3.24.35c-4.14,0-7.55-1.6-7.93-3.64a7.67,7.67,0,0,1-1.17.08,8.24,8.24,0,0,1-6.5-13.31,12.37,12.37,0,0,1-5.46-18.15,18.12,18.12,0,0,1,15.4-26.43c.86-3.77,5.55-6.65,11.24-6.65a15.26,15.26,0,0,1,5.93,1.15,12.45,12.45,0,0,1,5.23-1.15,10.85,10.85,0,0,1,1.58.11A11.72,11.72,0,0,1,1913.72,430.63Z"/></g></g></g></svg>