<svg xmlns="http://www.w3.org/2000/svg" viewBox="0 0 16359.46 1080.31"><defs><style>.cls-1{fill:none;}.cls-2{fill:#eadd8f;}.cls-3{fill:#e25923;}.cls-4{fill:#bf4013;}.cls-5{fill:#845638;}.cls-6{fill:#cec180;}.cls-7{fill:#d89060;}.cls-8{fill:#6ab523;}.cls-9{opacity:0.1;}.cls-10{fill:#ddcd7a;}.cls-11{fill:#d65427;}.cls-12{fill:#724c37;}.cls-13{fill:#8eba3f;}</style></defs><title>EbeneHügelRomMitte</title><g id="Ebene_2" data-name="Ebene 2"><g id="HilfsebeneZumExportieren"><polygon class="cls-1" points="16359.46 0 0 0 0.24 1079.99 16359.46 1080 16359.46 0"/></g><g id="EbeneHügelRomMitte"><g id="Häuschen1"><rect class="cls-2" x="12249.95" y="552.54" width="392" height="193.07" transform="translate(24891.9 1298.16) rotate(-180)"/><rect class="cls-2" x="12249.95" y="393.59" width="80" height="158.95" transform="translate(24579.9 946.13) rotate(-180)"/><polygon class="cls-3" points="12329.95 474.37 12611.29 474.37 12641.95 552.54 12329.95 552.54 12329.95 474.37"/><rect class="cls-4" x="12329.95" y="552.54" width="312" height="4.45" transform="translate(24971.9 1109.54) rotate(-180)"/><path class="cls-5" d="M12514.62,605.66H12580a0,0,0,0,1,0,0v64.8a32.67,32.67,0,0,1-32.67,32.67h0a32.67,32.67,0,0,1-32.67-32.67v-64.8a0,0,0,0,1,0,0Z" transform="translate(25094.57 1308.78) rotate(-180)"/><path class="cls-5" d="M12367.28,605.66h65.33a0,0,0,0,1,0,0v64.8a32.67,32.67,0,0,1-32.67,32.67h0a32.67,32.67,0,0,1-32.67-32.67v-64.8A0,0,0,0,1,12367.28,605.66Z" transform="translate(24799.9 1308.78) rotate(-180)"/><rect class="cls-2" x="12224.62" y="370.99" width="130.67" height="45.2" transform="translate(24579.9 787.18) rotate(-180)"/><polygon class="cls-3" points="12289.95 324.99 12289.95 324.99 12355.28 370.99 12224.62 370.99 12289.95 324.99"/><path class="cls-5" d="M12275.28,398h29.33a0,0,0,0,1,0,0v30.53a14.67,14.67,0,0,1-14.67,14.67h0a14.67,14.67,0,0,1-14.67-14.67V398A0,0,0,0,1,12275.28,398Z" transform="translate(24579.9 841.18) rotate(-180)"/><path class="cls-5" d="M12275.28,494.87h29.33a0,0,0,0,1,0,0V525.4a14.67,14.67,0,0,1-14.67,14.67h0a14.67,14.67,0,0,1-14.67-14.67V494.87A0,0,0,0,1,12275.28,494.87Z" transform="translate(24579.9 1034.93) rotate(-180)"/><path class="cls-5" d="M12275.28,594.2h29.33a0,0,0,0,1,0,0v30.53A14.67,14.67,0,0,1,12290,639.4h0a14.67,14.67,0,0,1-14.67-14.67V594.2A0,0,0,0,1,12275.28,594.2Z" transform="translate(24579.9 1233.6) rotate(-180)"/><rect class="cls-4" x="12224.62" y="370.99" width="130.67" height="3.67" transform="translate(24579.9 745.65) rotate(-180)"/><rect class="cls-6" x="12249.95" y="740.01" width="392" height="5.6" transform="translate(24891.9 1485.63) rotate(-180)"/></g><rect class="cls-2" x="12861.69" y="422.38" width="197.55" height="257.14" transform="translate(25920.93 1101.9) rotate(-180)"/><polygon class="cls-3" points="12861.69 422.38 12962.44 339.07 13059.24 422.38 12861.69 422.38"/><path class="cls-5" d="M12898.37,460.72H12943a0,0,0,0,1,0,0v74.93a14.67,14.67,0,0,1-14.67,14.67H12913a14.67,14.67,0,0,1-14.67-14.67V460.72a0,0,0,0,1,0,0Z" transform="translate(25841.42 1011.04) rotate(-180)"/><rect class="cls-4" x="12861.69" y="422.38" width="197.55" height="8.92" transform="translate(25920.93 853.68) rotate(-180)"/><rect class="cls-7" x="15809.06" y="643.16" width="28.92" height="75.92"/><path class="cls-8" d="M15868.2,543.08a260.44,260.44,0,0,1-17,93.66A26.3,26.3,0,0,1,15838,651a33.56,33.56,0,0,1-28.92,0,26.3,26.3,0,0,1-13.23-14.22,260.44,260.44,0,0,1-17-93.66c0-56.32,17.07-107.31,44.68-144.36C15851.13,435.76,15868.2,486.76,15868.2,543.08Z"/><path class="cls-9" d="M15823.52,398.72V719.08h-14.46V651a26.3,26.3,0,0,1-13.23-14.22,260.44,260.44,0,0,1-17-93.66C15778.84,486.76,15795.91,435.76,15823.52,398.72Z"/><rect class="cls-7" x="15389.01" y="509.16" width="28.92" height="103.52"/><path class="cls-8" d="M15448.15,372.7c0,46-6.13,89.42-17,127.7-2.56,9-7.4,15.49-13.23,19.39a25.64,25.64,0,0,1-28.92,0c-5.83-3.9-10.68-10.37-13.23-19.39-10.85-38.28-17-81.69-17-127.7,0-76.79,17.07-146.32,44.68-196.82C15431.09,226.38,15448.15,295.92,15448.15,372.7Z"/><path class="cls-9" d="M15403.48,175.88v436.8H15389V519.79c-5.83-3.9-10.68-10.37-13.23-19.39-10.85-38.28-17-81.69-17-127.7C15358.8,295.92,15375.87,226.38,15403.48,175.88Z"/><rect class="cls-7" x="13244.15" y="505.08" width="24" height="71.37"/><path class="cls-8" d="M13293.22,411c0,31.72-5.09,61.65-14.09,88a23.75,23.75,0,0,1-11,13.37,24.92,24.92,0,0,1-24,0,23.75,23.75,0,0,1-11-13.37c-9-26.39-14.09-56.32-14.09-88,0-52.94,14.16-100.88,37.07-135.7C13279.06,310.12,13293.22,358.06,13293.22,411Z"/><path class="cls-9" d="M13256.15,275.3V576.45h-12v-64a23.75,23.75,0,0,1-11-13.37c-9-26.39-14.09-56.32-14.09-88C13219.08,358.06,13233.24,310.12,13256.15,275.3Z"/><rect class="cls-7" x="12525.29" y="589.62" width="28.92" height="93.6"/><path class="cls-8" d="M12584.43,466.23c0,41.6-6.13,80.86-17,115.47a30.68,30.68,0,0,1-13.23,17.54,27.91,27.91,0,0,1-28.92,0,30.68,30.68,0,0,1-13.23-17.54c-10.85-34.61-17-73.87-17-115.47,0-69.43,17.07-132.31,44.68-178C12567.37,333.92,12584.43,396.79,12584.43,466.23Z"/><path class="cls-9" d="M12539.75,288.25v395h-14.46v-84a30.68,30.68,0,0,1-13.23-17.54c-10.85-34.61-17-73.87-17-115.47C12495.08,396.79,12512.14,333.92,12539.75,288.25Z"/><g id="Häuschen1-2" data-name="Häuschen1"><rect class="cls-2" x="13426.82" y="445.61" width="392" height="193.07"/><rect class="cls-2" x="13738.82" y="286.66" width="80" height="158.95"/><polygon class="cls-3" points="13738.82 367.44 13457.48 367.44 13426.82 445.61 13738.82 445.61 13738.82 367.44"/><rect class="cls-4" x="13426.82" y="445.61" width="312" height="4.45"/><path class="cls-5" d="M13521.49,498.73h0a32.67,32.67,0,0,1,32.67,32.67v64.8a0,0,0,0,1,0,0h-65.33a0,0,0,0,1,0,0v-64.8A32.67,32.67,0,0,1,13521.49,498.73Z"/><path class="cls-5" d="M13668.82,498.73h0a32.67,32.67,0,0,1,32.67,32.67v64.8a0,0,0,0,1,0,0h-65.33a0,0,0,0,1,0,0v-64.8A32.67,32.67,0,0,1,13668.82,498.73Z"/><rect class="cls-2" x="13713.49" y="264.06" width="130.67" height="45.2"/><polygon class="cls-3" points="13778.82 218.06 13778.82 218.06 13713.49 264.06 13844.15 264.06 13778.82 218.06"/><path class="cls-5" d="M13778.82,291.06h0a14.67,14.67,0,0,1,14.67,14.67v30.53a0,0,0,0,1,0,0h-29.33a0,0,0,0,1,0,0V305.73A14.67,14.67,0,0,1,13778.82,291.06Z"/><path class="cls-5" d="M13778.82,387.93h0a14.67,14.67,0,0,1,14.67,14.67v30.53a0,0,0,0,1,0,0h-29.33a0,0,0,0,1,0,0V402.6A14.67,14.67,0,0,1,13778.82,387.93Z"/><path class="cls-5" d="M13778.82,487.27h0a14.67,14.67,0,0,1,14.67,14.67v30.53a0,0,0,0,1,0,0h-29.33a0,0,0,0,1,0,0V501.93A14.67,14.67,0,0,1,13778.82,487.27Z"/><rect class="cls-4" x="13713.49" y="264.06" width="130.67" height="3.67"/><rect class="cls-6" x="13426.82" y="633.08" width="392" height="5.6"/></g><rect class="cls-7" x="13924.14" y="474.55" width="28.92" height="86.02"/><path class="cls-8" d="M13983.28,361.17c0,38.23-6.13,74.3-17,106.11a28.63,28.63,0,0,1-13.23,16.11,30,30,0,0,1-28.92,0,28.63,28.63,0,0,1-13.23-16.11c-10.85-31.81-17-67.88-17-106.11,0-63.8,17.07-121.58,44.68-163.55C13966.21,239.59,13983.28,297.37,13983.28,361.17Z"/><path class="cls-9" d="M13938.6,197.62V560.57h-14.46V483.39a28.63,28.63,0,0,1-13.23-16.11c-10.85-31.81-17-67.88-17-106.11C13893.92,297.37,13911,239.59,13938.6,197.62Z"/><rect class="cls-2" x="15540.94" y="442.94" width="246.13" height="246.13"/><rect class="cls-10" x="15454.01" y="442.94" width="86.93" height="246.13"/><polygon class="cls-11" points="15540.94 442.94 15454.01 442.94 15497.7 399.7 15540.94 442.94"/><polygon class="cls-3" points="15787.08 442.94 15540.94 442.94 15497.7 399.7 15742.94 398.8 15787.08 442.94"/><path class="cls-5" d="M15592.67,507.6h0a14.67,14.67,0,0,1,14.67,14.67V552.8a0,0,0,0,1,0,0H15578a0,0,0,0,1,0,0V522.27a14.67,14.67,0,0,1,14.67-14.67Z"/><path class="cls-12" d="M15498,543.41h0a14.67,14.67,0,0,1,14.67,14.67V588.6a0,0,0,0,1,0,0h-29.33a0,0,0,0,1,0,0V558.07A14.67,14.67,0,0,1,15498,543.41Z"/><path class="cls-5" d="M15643,583.86h0a14.67,14.67,0,0,1,14.67,14.67v30.53a0,0,0,0,1,0,0h-29.33a0,0,0,0,1,0,0V598.52A14.67,14.67,0,0,1,15643,583.86Z"/><path class="cls-5" d="M15731,463.26h0a14.67,14.67,0,0,1,14.67,14.67v30.53a0,0,0,0,1,0,0h-29.33a0,0,0,0,1,0,0V477.92a14.67,14.67,0,0,1,14.67-14.67Z"/><path class="cls-5" d="M15752,596.63h0a14.67,14.67,0,0,1,14.67,14.67v30.53a0,0,0,0,1,0,0h-29.33a0,0,0,0,1,0,0V611.3a14.67,14.67,0,0,1,14.67-14.67Z"/><rect class="cls-4" x="15540.94" y="442.94" width="246.14" height="5.48"/><rect class="cls-4" x="15454.01" y="442.94" width="86.93" height="5.48"/><rect class="cls-7" x="13425.69" y="571.58" width="28.92" height="86.02"/><path class="cls-8" d="M13484.83,458.19c0,38.23-6.13,74.3-17,106.11a28.63,28.63,0,0,1-13.23,16.11,30,30,0,0,1-28.92,0,28.63,28.63,0,0,1-13.23-16.11c-10.85-31.81-17-67.88-17-106.11,0-63.8,17.07-121.58,44.68-163.55C13467.77,336.61,13484.83,394.39,13484.83,458.19Z"/><path class="cls-9" d="M13440.15,294.65V657.6h-14.46V580.41a28.63,28.63,0,0,1-13.23-16.11c-10.85-31.81-17-67.88-17-106.11C13395.48,394.39,13412.54,336.61,13440.15,294.65Z"/><rect class="cls-7" x="14703.66" y="544.87" width="28.92" height="86.02"/><path class="cls-8" d="M14762.8,431.48c0,38.23-6.13,74.3-17,106.11a28.63,28.63,0,0,1-13.23,16.11,30,30,0,0,1-28.92,0,28.63,28.63,0,0,1-13.23-16.11c-10.85-31.81-17-67.88-17-106.11,0-63.8,17.07-121.58,44.68-163.55C14745.73,309.9,14762.8,367.68,14762.8,431.48Z"/><path class="cls-9" d="M14718.12,267.93V630.88h-14.46V553.7a28.63,28.63,0,0,1-13.23-16.11c-10.85-31.81-17-67.88-17-106.11C14673.44,367.68,14690.51,309.9,14718.12,267.93Z"/><rect class="cls-2" x="13078.29" y="621.89" width="197.55" height="197.55"/><polygon class="cls-3" points="13275.84 621.89 13175.09 557.89 13078.3 621.89 13275.84 621.89"/><path class="cls-5" d="M13209.16,651.35h15.34a14.67,14.67,0,0,1,14.67,14.67v54.16a0,0,0,0,1,0,0h-44.67a0,0,0,0,1,0,0V666A14.67,14.67,0,0,1,13209.16,651.35Z"/><path class="cls-5" d="M13126.41,708.47h15.34a14.67,14.67,0,0,1,14.67,14.67v97.24a0,0,0,0,1,0,0h-44.67a0,0,0,0,1,0,0V723.13A14.67,14.67,0,0,1,13126.41,708.47Z"/><rect class="cls-4" x="13078.29" y="621.89" width="197.55" height="6.85"/><rect class="cls-2" x="11949.46" y="781.22" width="310.6" height="233.43"/><rect class="cls-10" x="11839.76" y="781.22" width="109.7" height="233.43"/><polygon class="cls-11" points="11949.46 781.22 11839.76 781.22 11894.9 740.21 11949.46 781.22"/><polygon class="cls-3" points="12260.07 781.22 11949.46 781.22 11894.9 740.21 12204.37 739.36 12260.07 781.22"/><path class="cls-5" d="M12010.91,842.55h7.68a14.67,14.67,0,0,1,14.67,14.67v28.2a0,0,0,0,1,0,0h-37a0,0,0,0,1,0,0v-28.2a14.67,14.67,0,0,1,14.67-14.67Z"/><path class="cls-12" d="M11891.44,876.51h7.68a14.67,14.67,0,0,1,14.67,14.67v28.2a0,0,0,0,1,0,0h-37a0,0,0,0,1,0,0v-28.2A14.67,14.67,0,0,1,11891.44,876.51Z"/><path class="cls-5" d="M12074.42,914.87h7.68a14.67,14.67,0,0,1,14.67,14.67v28.2a0,0,0,0,1,0,0h-37a0,0,0,0,1,0,0v-28.2A14.67,14.67,0,0,1,12074.42,914.87Z"/><path class="cls-5" d="M12185.47,800.49h7.68a14.67,14.67,0,0,1,14.67,14.67v28.2a0,0,0,0,1,0,0h-37a0,0,0,0,1,0,0v-28.2A14.67,14.67,0,0,1,12185.47,800.49Z"/><path class="cls-5" d="M12212,927h7.68a14.67,14.67,0,0,1,14.67,14.67v28.2a0,0,0,0,1,0,0h-37a0,0,0,0,1,0,0v-28.2A14.67,14.67,0,0,1,12212,927Z"/><rect class="cls-4" x="11949.46" y="781.22" width="310.61" height="5.19"/><rect class="cls-4" x="11839.76" y="781.22" width="109.7" height="5.19"/><rect class="cls-7" x="14123.89" y="724.61" width="28.92" height="86.02"/><path class="cls-8" d="M14183,611.22c0,38.23-6.13,74.3-17,106.11a28.63,28.63,0,0,1-13.23,16.11,30,30,0,0,1-28.92,0,28.63,28.63,0,0,1-13.23-16.11c-10.85-31.81-17-67.88-17-106.11,0-63.8,17.07-121.58,44.68-163.55C14166,489.64,14183,547.42,14183,611.22Z"/><path class="cls-9" d="M14138.36,447.67V810.62h-14.46V733.44a28.63,28.63,0,0,1-13.23-16.11c-10.85-31.81-17-67.88-17-106.11C14093.68,547.42,14110.75,489.64,14138.36,447.67Z"/><ellipse class="cls-13" cx="13313.98" cy="868.5" rx="157.56" ry="104.08"/><ellipse class="cls-13" cx="13810.94" cy="665.51" rx="142.12" ry="54.67"/><path class="cls-13" d="M12390.66,1002.54c0-35.37-48-64-107.23-64s-185.23,57.6-185.23,93,126,35.12,185.23,35.12S12390.66,1037.91,12390.66,1002.54Z"/><path class="cls-13" d="M16359.46,600.57v479.59h-360.37v.15h-181.5l-.1-.09h-8.43l-107.47.08v-.15h-2044.8l-1.09.15h-251.13l-1.09-.15h-390.92l-.26.15H11242.85a1,1,0,0,1,0-.15.24.24,0,0,1,0-.08h0a130.55,130.55,0,0,1-3.48-29.87,128.68,128.68,0,0,1,.9-15.22c.18-1.5.38-3,.61-4.5l0-.18a146.69,146.69,0,0,1,17.87-50l.08-.14,0,0c19.49-34.28,53-66.09,97.55-94.14,79.25-49.87,193.64-87.88,327.11-106.89a1377.38,1377.38,0,0,1,177.08-13.37q8.87-.11,17.8-.11,26.05,0,51.59.92,27.21,1,53.74,2.94a286.65,286.65,0,0,1,52.48-29.68q10.2-4.5,21.12-8.54c49.53-18.32,109.43-29,174-29,64.35,0,124.1,10.66,173.54,28.88a424.66,424.66,0,0,1,71.83-38.81q23.22-9.91,48.67-17.94,7.14-2.25,14.46-4.35,7.15-2,14.46-3.93a653.62,653.62,0,0,1,117.61-18.88h0q4.72-.33,9.48-.6c1.93-.11,3.85-.21,5.79-.3q16.46-.8,33.27-.83h1.07c2.32,0,4.64,0,6.94,0h1.55c1.43,0,2.85,0,4.27.07l1.52,0q13.81.29,27.4,1.08c2,.12,3.91.24,5.86.38,2.64.17,5.26.36,7.88.57q2.88.21,5.75.47,3.66.32,7.29.67,10.59,1,21,2.38h.1l5.71.76h.1q10.2,1.42,20.19,3.12c3.08.53,6.15,1.07,9.21,1.64,2,.36,4,.74,6,1.12l5.06,1,4.46.92,1.19.26,4.77,1q12-5.91,24.86-11.48c1.82-.78,3.65-1.57,5.5-2.34q4.49-1.89,9.08-3.73c61.74-24.8,137.52-43.94,222.13-55.3h0c26.09-3.52,53-6.28,80.64-8.24,32.46-2.32,65.86-3.53,100-3.53,32,0,63.38,1.06,93.94,3.1q11.61.78,23.05,1.73,6.69.57,13.33,1.2,17.61,1.65,34.78,3.74,7,.85,13.89,1.77,27,3.59,52.71,8.2c45.44,8.15,87.75,18.62,126,31,42.21-23.19,93.58-42.23,151.29-55.7a845.7,845.7,0,0,1,105.31-17.46c4.79-.5,9.62-1,14.46-1.38s9.62-.81,14.47-1.15q33.83-2.43,69.07-2.46c26.07,0,51.65,1,76.59,3q20.12,1.61,39.63,4,21,2.59,41.25,6.11,14.48,2.5,28.53,5.46,19.29,4,37.67,8.87,13.95,3.68,27.32,7.77,26.56,8.16,50.7,17.93,15.66,6.33,30.2,13.29l.47-.11q12.68-3.12,26.66-5.76h0q15.09-2.85,31.57-5.11c37.27-5.1,79.47-7.79,124.54-7.43,28.11.23,55.47,1.61,81.51,4,3.91.36,7.77.74,11.61,1.14h0c4.13.44,8.22.89,12.26,1.38q16.74,2,32.54,4.54c8.06,1.29,15.93,2.69,23.56,4.19,12.58,2.45,24.55,5.17,35.82,8.13l4.5-1.14q6.39-1.57,13.47-3.07c11.51-2.44,24.37-4.71,38.43-6.81q16.49-2.46,35.11-4.58,11.87-1.35,24.54-2.55c60.55-5.73,134.32-8.81,215.07-8.24,46.42.33,91.47,1.82,133.75,4.29,44.27,2.58,85.51,6.23,122.14,10.73,0,0,0,0,0,0a483.89,483.89,0,0,1,67.4-9.81c4.79-.35,9.61-.65,14.46-.87h0c4.8-.23,9.61-.39,14.46-.48q5-.11,10-.1,11.2,0,22.2.48s1.33.09,3.86.32c10.72.93,43,4.14,86.93,12,54.28,9.74,126.3,26.62,197.17,55.17a340.41,340.41,0,0,1,49-18.52q6.3-1.87,12.85-3.59c3-.8,6.06-1.56,9.14-2.3q7.11-1.71,14.46-3.22,14.12-2.91,29-5.08a565.06,565.06,0,0,1,80.77-5.69q13.26,0,26.21.59h0a225.71,225.71,0,0,1,27.61-16.07q6.28-3.12,13-6a370.32,370.32,0,0,1,57-19.1c38.56-9.74,82.59-15.25,129.33-15.25a569.47,569.47,0,0,1,70.21,4.28C16294.78,580.65,16329.67,589.17,16359.46,600.57Z"/></g></g></svg>