<?xml version="1.0" encoding="utf-8"?>
<!-- Generator: Adobe Illustrator 21.1.0, SVG Export Plug-In . SVG Version: 6.00 Build 0)  -->
<svg version="1.1" id="Ebene_1" xmlns="http://www.w3.org/2000/svg" xmlns:xlink="http://www.w3.org/1999/xlink" x="0px" y="0px"
	 viewBox="0 0 16359.5 1080.2" style="enable-background:new 0 0 16359.5 1080.2;" xml:space="preserve">
<style type="text/css">
	.st0{fill:none;}
	.st1{fill:#3A7EC1;}
	.st2{fill:#706F6D;}
	.st3{fill:#F9F9F9;}
	.st4{fill:#FFFFFF;}
	.st5{fill:#999999;}
	.st6{fill:#D1D390;}
	.st7{fill:#FF7045;}
	.st8{fill:#E2E291;}
	.st9{fill:#A5A574;}
	.st10{fill:#98D844;}
	.st11{fill:#65D133;}
	.st12{fill:#5BB72A;}
	.st13{opacity:0.1;fill:#070707;enable-background:new    ;}
	.st14{fill:#C46E43;}
	.st15{fill:#CC8D32;}
	.st16{opacity:0.1;enable-background:new    ;}
	.st17{opacity:0.1;fill:#131413;enable-background:new    ;}
	.st18{fill:#7C5521;}
	.st19{opacity:0.1;fill:#0F0F0F;enable-background:new    ;}
</style>
<title>Ebeneanfanggrassfix</title>
<g id="Ebene_2">
	<g id="HilfsebeneZumExportieren">
		<polygon class="st0" points="16359.5,0 0,0 0.2,1080 16359.5,1080 		"/>
	</g>
	<g id="EbeneHügelAnfangVorne">
		<g id="Autobahn">
			<g id="Banner">
				<rect x="1241" y="598" class="st1" width="47.6" height="37.1"/>
				<rect x="1250.8" y="635.1" class="st2" width="2.3" height="49.9"/>
				<rect x="1273.8" y="635.1" class="st2" width="1.8" height="49.9"/>
				<rect x="1249.5" y="622.5" class="st3" width="19.5" height="5.4"/>
				<polygon class="st3" points="1280.7,624.6 1268.1,631.9 1268.1,617.3 				"/>
				<path class="st4" d="M1251.1,603.3c0.6-0.1,1.3-0.2,1.9-0.2c0.8-0.1,1.6,0.1,2.2,0.6c0.4,0.3,0.7,0.9,0.7,1.4
					c0,0.8-0.6,1.5-1.4,1.8l0,0c1,0.2,1.7,1,1.7,2c0,0.6-0.2,1.2-0.7,1.6c-0.8,0.6-1.8,0.9-2.8,0.8c-0.5,0-1.1,0-1.6-0.1
					L1251.1,603.3z M1252.1,606.6h0.9c1.1,0,1.8-0.6,1.8-1.4c0-1-0.7-1.3-1.8-1.3c-0.3,0-0.6,0-0.9,0.1L1252.1,606.6z M1252.1,610.5
					c0.3,0,0.6,0,0.9,0c1.1,0,2.1-0.4,2.1-1.6s-0.9-1.6-2.1-1.6h-0.9V610.5z"/>
				<path class="st4" d="M1258.2,608.5c-0.1,1,0.7,1.9,1.7,2c0.1,0,0.2,0,0.3,0c0.6,0,1.1-0.1,1.6-0.3l0.2,0.8
					c-0.6,0.3-1.3,0.4-1.9,0.4c-1.5,0.1-2.8-1-2.9-2.5c0-0.1,0-0.3,0-0.4c0-1.8,1-3.1,2.7-3.1c1.4,0,2.4,1.1,2.4,2.5
					c0,0.1,0,0.2,0,0.2c0,0.2,0,0.3,0,0.5L1258.2,608.5z M1261.3,607.8c0.1-0.8-0.5-1.6-1.3-1.7c-0.1,0-0.1,0-0.2,0
					c-0.9,0.1-1.6,0.8-1.6,1.7H1261.3z"/>
				<path class="st4" d="M1263.6,607.3c0-0.7,0-1.3,0-1.8h0.9v1.1l0,0c0.2-0.7,0.9-1.2,1.6-1.3c0.1,0,0.2,0,0.3,0v1
					c-0.1,0-0.2,0-0.4,0c-0.7,0-1.4,0.6-1.4,1.4c0,0.2,0,0.3,0,0.5v3.1h-1L1263.6,607.3z"/>
				<path class="st4" d="M1267.6,602.7h1.1v8.5h-1.1V602.7z"/>
				<path class="st4" d="M1271.6,603.8c0,0.4-0.3,0.7-0.7,0.7s-0.7-0.3-0.7-0.7c0-0.4,0.3-0.6,0.6-0.7c0,0,0,0,0,0
					C1271.3,603.1,1271.6,603.4,1271.6,603.8C1271.6,603.8,1271.6,603.8,1271.6,603.8z M1270.4,611.3v-5.8h1.1v5.8H1270.4z"/>
				<path class="st4" d="M1273.3,607c0-0.6,0-1.1,0-1.6h0.9l0.1,1l0,0c0.4-0.7,1.1-1.1,1.9-1.1c0.8,0,2.1,0.5,2.1,2.5v3.5h-1.1v-3.3
					c0-0.9-0.3-1.7-1.3-1.7c-0.8,0-1.5,0.7-1.5,1.6v3.5h-1.1L1273.3,607z"/>
			</g>
			<g>
				<path class="st5" d="M1176.8,819.5c10,0,20,0,30,0v-80.4c0-18.9,26.6-34.2,45.5-34.2s45.5,15.3,45.5,34.2v120.2h30V738.8
					c0-18.9,26.6-34.2,45.5-34.2s45.5,15.3,45.5,34.2v122h30V739c0-18.9,26.6-34.2,45.5-34.2s45.5,15.3,45.5,34.2l-0.3,112.2h30
					l0.3-113.8c0.2-18.8,26.7-34,45.5-34c18.9,0,45.5,15.3,45.5,34.2l0,81.9h30V739c0-18.9,26.6-34.2,45.5-34.2s45.5,15.3,45.5,34.2
					v87.5h30v-86.9c0-18.9,26.6-34.2,45.5-34.2s45.5,15.3,45.5,34.2v86.9h30v-127h14v-14h-186v-6.2h10.4v-2H872.8v2v6.2H870V699
					h-24.7v40.1c0-18.9,26.6-34.2,45.5-34.2c17.2,0,40.8,12.7,44.9,29.3v61.3h30v-62c4.6-16.2,27.7-28.6,44.7-28.6
					c18.9,0,45.5,15.3,45.5,34.2v50.4h30v-53c5.9-20.1,24.5-34,45.5-34c21,0,39.6,14,45.5,34.2
					C1176.8,764.3,1176.8,791.9,1176.8,819.5z M878.8,685.5h-4v-6.2h4V685.5z M884.8,685.5h-4v-6.2h4V685.5z M890.8,685.5h-4v-6.2h4
					V685.5z M896.8,685.5h-4v-6.2h4V685.5z M902.8,685.5h-4v-6.2h4V685.5z M908.8,685.5h-4v-6.2h4V685.5z M914.8,685.5h-4v-6.2h4
					V685.5z M920.8,685.5h-4v-6.2h4V685.5z M926.8,685.5h-4v-6.2h4V685.5z M932.8,685.5h-4v-6.2h4V685.5z M938.8,685.5h-4v-6.2h4
					V685.5z M944.8,685.5h-4v-6.2h4V685.5z M950.8,685.5h-4v-6.2h4V685.5z M956.8,685.5h-4v-6.2h4V685.5z M962.8,685.5h-4v-6.2h4
					V685.5z M968.8,685.5h-4v-6.2h4V685.5z M974.8,685.5h-4v-6.2h4V685.5z M980.8,685.5h-4v-6.2h4V685.5z M986.8,685.5h-4v-6.2h4
					V685.5z M992.8,685.5h-4v-6.2h4V685.5z M998.8,685.5h-4v-6.2h4V685.5z M1004.8,685.5h-4v-6.2h4V685.5z M1010.8,685.5h-4v-6.2h4
					V685.5z M1016.8,685.5h-4v-6.2h4V685.5z M1022.8,685.5h-4v-6.2h4V685.5z M1028.8,685.5h-4v-6.2h4V685.5z M1034.8,685.5h-4v-6.2
					h4V685.5z M1040.8,685.5h-4v-6.2h4V685.5z M1046.8,685.5h-4v-6.2h4V685.5z M1052.8,685.5h-4v-6.2h4V685.5z M1058.8,685.5h-4
					v-6.2h4V685.5z M1064.8,685.5h-4v-6.2h4V685.5z M1070.8,685.5h-4v-6.2h4V685.5z M1076.8,685.5h-4v-6.2h4V685.5z M1082.8,685.5
					h-4v-6.2h4V685.5z M1088.8,685.5h-4v-6.2h4V685.5z M1094.8,685.5h-4v-6.2h4V685.5z M1100.8,685.5h-4v-6.2h4V685.5z
					 M1106.8,685.5h-4v-6.2h4V685.5z M1112.8,685.5h-4v-6.2h4V685.5z M1118.8,685.5h-4v-6.2h4V685.5z M1124.8,685.5h-4v-6.2h4V685.5
					z M1130.8,685.5h-4v-6.2h4V685.5z M1136.8,685.5h-4v-6.2h4V685.5z M1142.8,685.5h-4v-6.2h4V685.5z M1148.8,685.5h-4v-6.2h4
					V685.5z M1154.8,685.5h-4v-6.2h4V685.5z M1160.8,685.5h-4v-6.2h4V685.5z M1166.8,685.5h-4v-6.2h4V685.5z M1172.8,685.5h-4v-6.2
					h4V685.5z M1178.8,685.5h-4v-6.2h4V685.5z M1184.8,685.5h-4v-6.2h4V685.5z M1190.8,685.5h-4v-6.2h4V685.5z M1196.8,685.5h-4
					v-6.2h4V685.5z M1202.8,685.5h-4v-6.2h4V685.5z M1208.8,685.5h-4v-6.2h4V685.5z M1214.8,685.5h-4v-6.2h4V685.5z M1220.8,685.5
					h-4v-6.2h4V685.5z M1226.8,685.5h-4v-6.2h4V685.5z M1232.8,685.5h-4v-6.2h4V685.5z M1238.8,685.5h-4v-6.2h4V685.5z
					 M1244.8,685.5h-4v-6.2h4V685.5z M1250.8,685.5h-4v-6.2h4V685.5z M1256.8,685.5h-4v-6.2h4V685.5z M1262.8,685.5h-4v-6.2h4V685.5
					z M1268.8,685.5h-4v-6.2h4V685.5z M1274.8,685.5h-4v-6.2h4V685.5z M1280.8,685.5h-4v-6.2h4V685.5z M1286.8,685.5h-4v-6.2h4
					V685.5z M1292.8,685.5h-4v-6.2h4V685.5z M1298.8,685.5h-4v-6.2h4V685.5z M1304.8,685.5h-4v-6.2h4V685.5z M1310.8,685.5h-4v-6.2
					h4V685.5z M1316.8,685.5h-4v-6.2h4V685.5z M1322.8,685.5h-4v-6.2h4V685.5z M1328.8,685.5h-4v-6.2h4V685.5z M1334.8,685.5h-4
					v-6.2h4V685.5z M1340.8,685.5h-4v-6.2h4V685.5z M1346.8,685.5h-4v-6.2h4V685.5z M1352.8,685.5h-4v-6.2h4V685.5z M1542.8,685.5
					h-108v0h-80v-6.2h6v6.2h2v-6.2h4v6.2h2v-6.2h4v6.2h2v-6.2h4v6.2h2v-6.2h4v6.2h2v-6.2h4v6.2h2v-6.2h4v6.2h2v-6.2h4v6.2h2v-6.2h4
					v6.2h2v-6.2h4v6.2h2v-6.2h4v6.2h2v-6.2h4v6.2h2v-6.2h4v6.2h2v-6.2h4v6.2h2v-6.2h4v6.2h2v-6.2h4v6.2h2v-6.2h4v6.2h2v-6.2h4v6.2h2
					v-6.2h4v6.2h2v-6.2h4v6.2h2v-6.2h4v6.2h2v-6.2h4v6.2h2v-6.2h4v6.2h2v-6.2h4v6.2h2v-6.2h4v6.2h2v-6.2h4v6.2h2v-6.2h4v6.2h2v-6.2
					h4v6.2h2v-6.2h4v6.2h2v-6.2h4v6.2h2v-6.2h6V685.5z M1548.8,685.5h-4v-6.2h4V685.5z M1554.8,685.5h-4v-6.2h4V685.5z
					 M1560.8,685.5h-4v-6.2h4V685.5z M1566.8,685.5h-4v-6.2h4V685.5z M1572.8,685.5h-4v-6.2h4V685.5z M1578.8,685.5h-4v-6.2h4V685.5
					z M1584.8,685.5h-4v-6.2h4V685.5z M1590.8,685.5h-4v-6.2h4V685.5z M1596.8,685.5h-4v-6.2h4V685.5z M1602.8,685.5h-4v-6.2h4
					V685.5z M1608.8,685.5h-4v-6.2h4V685.5z M1614.8,685.5h-4v-6.2h4V685.5z M1620.8,685.5h-4v-6.2h4V685.5z M1626.8,685.5h-4v-6.2
					h4V685.5z M1632.8,685.5h-4v-6.2h4V685.5z M1638.8,685.5h-4v-6.2h4V685.5z M1644.8,685.5h-4v-6.2h4V685.5z M1650.8,685.5h-4
					v-6.2h4V685.5z M1656.8,685.5h-4v-6.2h4V685.5z M1662.8,685.5h-4v-6.2h4V685.5z M1668.8,685.5h-4v-6.2h4V685.5z M1674.8,685.5
					h-4v-6.2h4V685.5z M1680.8,685.5h-4v-6.2h4V685.5z M1686.8,685.5h-4v-6.2h4V685.5z M1692.8,685.5h-4v-6.2h4V685.5z
					 M1698.8,685.5h-4v-6.2h4V685.5z M1704.8,685.5h-4v-6.2h4V685.5z M1710.8,685.5h-4v-6.2h4V685.5z M1716.8,685.5h-4v-6.2h4V685.5
					z M1722.8,685.5h-4v-6.2h4V685.5z M1728.8,685.5h-4v-6.2h4V685.5z M1734.8,685.5h-4v-6.2h4V685.5z M1740.8,685.5h-4v-6.2h4
					V685.5z M1746.8,685.5h-4v-6.2h4V685.5z M1752.8,685.5h-4v-6.2h4V685.5z M1758.8,685.5h-4v-6.2h4V685.5z"/>
				<path class="st5" d="M466.3,822.2h30v-79.9c0-18.9,26.6-34.2,45.5-34.2s45.5,15.3,45.5,34.2v86.9h30v-86.9
					c0-18.9,26.6-34.2,45.5-34.2s45.5,15.3,45.5,34.2v86.9h30v-127h14v-13.3v-0.7V682h4v6.9h2V682h4v6.9h2V682h4v-2h-606v2v6.9h2
					V682h4v6.9h2V682h4v6.9h2V682h4v6.9h2V682h4v6.9h2V682h4v6.9h2V682h4v6.9h2V682h4v6.9h2V682h4v6.9h2V682h4v6.9h2V682h4v6.9h2
					V682h4v6.9h2V682h4v6.9h2V682h4v6.2v0.7v13.3h14v40.1c0-18.9,26.6-34.2,45.5-34.2c18.9,0,45.5,15.3,45.5,34.2v49.9h30v-53.1
					c0.2-18.8,26.7-34,45.5-34c18.9,0,45.5,15.3,45.5,34.2L466.3,822.2z M746.3,682h4v6.2h-4V682z M740.3,682h4v6.2h-4V682z
					 M734.3,682h4v6.2h-4V682z M728.3,682h4v6.2h-4V682z M722.3,682h4v6.2h-4V682z M716.3,682h4v6.2h-4V682z M710.3,682h4v6.2h-4
					V682z M704.3,682h4v6.2h-4V682z M698.3,682h4v6.2h-4V682z M692.3,682h4v6.2h-4V682z M686.3,682h4v6.2h-4V682z M680.3,682h4v6.2
					h-4V682z M674.3,682h4v6.2h-4V682z M668.3,682h4v6.2h-4V682z M662.3,682h4v6.2h-4V682z M656.3,682h4v6.2h-4V682z M650.3,682h4
					v6.2h-4V682z M644.3,682h4v6.2h-4V682z M638.3,682h4v6.2h-4V682z M632.3,682h4v6.2h-4V682z M626.3,682h4v6.2h-4V682z M620.3,682
					h4v6.2h-4V682z M614.3,682h4v6.2h-4V682z M608.3,682h4v6.2h-4V682z M602.3,682h4v6.2h-4V682z M596.3,682h4v6.2h-4V682z
					 M590.3,682h4v6.2h-4V682z M584.3,682h4v6.2h-4V682z M578.3,682h4v6.2h-4V682z M572.3,682h4v6.2h-4V682z M566.3,682h4v6.2h-4
					V682z M560.3,682h4v6.2h-4V682z M554.3,682h4v6.2h-4V682z M548.3,682h4v6.2h-4V682z M542.3,682h4v6.2h-4V682z M536.3,682h4v6.2
					h-4V682z M530.3,682h4v6.2h-4V682z M524.3,682h4v6.2h-4V682z M518.3,682h4v6.2h-4V682z M512.3,682h4v6.2h-4V682z M506.3,682h4
					v6.2h-4V682z M500.3,682h4v6.2h-4V682z M494.3,682h4v6.2h-4V682z M488.3,682h4v6.2h-4V682z M482.3,682h4v6.2h-4V682z M476.3,682
					h4v6.2h-4V682z M470.3,682h4v6.2h-4V682z M464.3,682h4v6.2h-4V682z M458.3,682h4v6.2h-4V682z M452.3,682h4v6.2h-4V682z
					 M446.3,682h4v6.2h-4V682z M440.3,682h4v6.2h-4V682z M434.3,682h4v6.2h-4V682z M428.3,682h4v6.2h-4V682z M422.3,682h4v6.2h-4
					V682z M416.3,682h4v6.2h-4V682z M410.3,682h4v6.2h-4V682z M404.3,682h4v6.2h-4V682z M398.3,682h4v6.2h-4V682z M392.3,682h4v6.2
					h-4V682z M386.3,682h4v6.2h-4V682z M380.3,682h4v6.2h-4V682z M374.3,682h4v6.2h-4V682z M368.3,682h4v6.2h-4V682z M362.3,682h4
					v6.2h-4V682z M356.3,682h4v6.2h-4V682z M350.3,682h4v6.2h-4V682z M344.3,682h4v6.2h-4V682z M338.3,682h4v6.2h-4V682z M332.3,682
					h4v6.2h-4V682z M326.3,682h4v6.2h-4V682z M320.3,682h4v6.2h-4V682z M314.3,682h4v6.2h-4V682z M308.3,682h4v6.2h-4V682z
					 M302.3,682h4v6.2h-4V682z M296.3,682h4v6.2h-4V682z M290.3,682h4v6.2h-4V682z M284.3,682h4v6.2h-4V682z M278.3,682h4v6.2h-4
					V682z M272.3,682h4v6.2h-4V682z M266.3,682h4v6.2h-4V682z M260.3,682h4v6.2h-4V682z M254.3,682h4v6.2h-4V682z M248.3,682h4v6.2
					h-4V682z M242.3,682h4v6.2h-4V682z"/>
			</g>
		</g>
		<rect x="1914.5" y="655.1" class="st6" width="107.3" height="87.7"/>
		<polygon class="st7" points="2045.8,662.1 1891.1,662.1 1914.4,617.1 2021.1,617.1 		"/>
		<path class="st8" d="M1935.1,693L1935.1,693c7.3,0,13.3,5.9,13.3,13.3l0,0v17.3l0,0h-26.5l0,0v-17.3
			C1921.8,698.9,1927.7,693,1935.1,693L1935.1,693L1935.1,693z"/>
		<path class="st8" d="M1968.2,693L1968.2,693c7.3,0,13.3,5.9,13.3,13.3l0,0v17.3l0,0h-26.5l0,0v-17.3
			C1954.9,698.9,1960.9,693,1968.2,693C1968.2,693,1968.2,693,1968.2,693z"/>
		<rect x="1987.1" y="686" class="st9" width="28.9" height="56.3"/>
		<path class="st10" d="M2006.1,738.6l-1.6,341.5L0.2,1080.2l1-344.8c140.9-95.9,180.6-71.5,233.7-55.9
			c33.8,9.9,97.8,91.7,166,115.4c26.9,9.3,96.6,33.5,165,36.6c92.2,4.2,166-221.5,270-179.1c27,11,114.6,80.9,275,121
			c133.7,33.4,143.6,84.8,243,87.6c49.5,1.4,82.9-10.1,248-78.6c131.9-54.7,163-156.9,236-160.2c64.3-2.9,56.6,69.2,168,116.5
			c69.9,29.7,110.6,20.7,157,63.1c37.9,34.7,18.9,58.6,56.7,96c40.5,40.2,95.6,50.5,142.7,59.3c46.5,8.7,69.3,4.3,122,21.3
			c14.7,4.8,25.2,9,44,13.3c30.7,7,48.3,1,90,6.7c11,1.5,19.9,3.2,25.3,4.3v77.4l-639.3-0.1L2006.1,738.6z"/>
		<g id="Busch">
			<path class="st11" d="M198.8,737.9c0.1,0.3,0.1,0.7,0.1,1c0,2.9-2.1,5.3-4.9,5.8c-0.3,0.1-0.6,0.1-0.9,0.1H91.7
				c-0.5,0-1-0.1-1.4-0.2l0,0c-3.1-0.8-5-4-4.2-7.1c0.3-1.1,0.9-2.1,1.8-2.9c-2.1-1.9-3.3-4.6-3.4-7.4c0-6.5,6.8-11.8,15.2-11.8
				c0.3,0,0.6,0,1,0c2.1-6.3,7.7-10.8,14.2-10.8c0.9,0,1.7,0.1,2.6,0.3c3.1-6.3,8.7-10.5,15.1-10.5c6.6,0,12.4,4.4,15.4,11
				c0.4-0.3,0.7-0.5,1.1-0.7c4.5-2.6,9.6-3.9,14.7-3.9c10,0,18.5,4.7,22.1,11.3c1.6-0.7,3.3-1,5-1c7.5,0,13.6,6.7,13.6,14.9
				C204.5,730.6,202.4,735,198.8,737.9z"/>
			<path class="st12" d="M194,744.6v0.1c-0.1,1.3-1.1,2.3-2.4,2.3H92.3c-1.2,0-2.1-0.9-2.1-2.1c0,0,0,0,0,0v-0.3L194,744.6z"/>
			<path class="st13" d="M148.9,704.7V747H92.3c-1.2,0-2.1-0.9-2.1-2.1c0,0,0,0,0,0v-0.3c-3.1-0.8-5-4-4.2-7.1
				c0.3-1.1,0.9-2.1,1.8-2.9c-2.1-1.9-3.3-4.6-3.4-7.4c0-6.5,6.8-11.8,15.2-11.8c0.3,0,0.6,0,1,0c2.1-6.3,7.7-10.8,14.2-10.8
				c0.9,0,1.7,0.1,2.6,0.3c3.1-6.3,8.7-10.5,15.1-10.5c6.6,0,12.4,4.4,15.4,11C148.2,705.2,148.6,705,148.9,704.7z"/>
		</g>
		<g id="Busch-2">
			<path class="st11" d="M276.4,889.9c0,0.3,0.1,0.7,0.1,1c0,2.9-1.6,5.3-3.6,5.8c-0.2,0.1-0.5,0.1-0.7,0.1h-74.7
				c-0.4,0-0.7-0.1-1.1-0.2c-1-0.4-1.8-1.1-2.3-2c-0.6-1.1-0.9-2.3-0.9-3.6c0-1.6,0.5-3.1,1.5-4.4c-3.2-4.3-3.3-10.2-0.2-14.5
				c2-2.9,5.3-4.6,8.9-4.6c0.3,0,0.5,0,0.7,0c0.6-2.9,2-5.6,4-7.8c1.6-1.8,3.9-2.9,6.3-3h0.1c0.6,0,1.3,0.1,1.9,0.3
				c0.4-1.2,1-2.4,1.6-3.5c0.4-0.8,0.9-1.5,1.4-2.2c2.2-3,5.1-4.8,8.2-4.8c3.8,0,7.2,2.7,9.6,7c0.6,1.1,1.1,2.2,1.5,3.3
				c0.1,0.2,0.2,0.5,0.3,0.7c0.3-0.3,0.5-0.5,0.8-0.7l0.1-0.1c2.6-2.1,5.8-3.4,9.1-3.7c0.4,0,0.8-0.1,1.2-0.1h0.4
				c4.4,0,8.7,1.7,11.9,4.8c1.5,1.4,2.8,3.1,3.7,5l0,0l0.2,0.4c0.2,0.3,0.3,0.7,0.5,1.1c0.2-0.1,0.4-0.2,0.5-0.3
				c1-0.5,2-0.7,3.1-0.8c4.4,0,8.1,4.2,9.5,10.1c0.3,1.6,0.5,3.1,0.5,4.7C280.5,882.8,278.9,887.2,276.4,889.9z"/>
			<path class="st12" d="M272.8,896.6v0.1c0,0.6-0.2,1.1-0.5,1.6c-0.3,0.4-0.7,0.7-1.2,0.7H198c-0.9,0-1.6-1-1.6-2.1v-0.3H272.8z"/>
			<path class="st11" d="M250.5,856.9c0,2-0.3,4-0.8,6c-1.4,5.1-4.4,9.6-8.4,13c-1.3,1.1-2.7,2.1-4.2,3c-5.3,3.1-11.3,4.7-17.4,4.7
				c-10.5,0-19.8-4.5-25.3-11.5c-3.5-4.3-5.4-9.6-5.4-15.1c0-11.3,8.2-21,19.7-24.9c2.8-0.9,5.6-1.5,8.6-1.7
				c0.8-0.1,1.6-0.1,2.5-0.1c3.2,0,6.4,0.4,9.5,1.3c2.8,0.8,5.4,1.9,7.8,3.3c0.8,0.4,1.5,0.9,2.2,1.4c4.7,3.2,8.2,7.9,10,13.2
				c0.2,0.5,0.4,1.1,0.5,1.7s0.3,1.1,0.4,1.6l0,0C250.4,854.2,250.5,855.5,250.5,856.9z"/>
			<path class="st11" d="M263.2,829.6c0,0.4,0,0.9,0,1.3c-0.4,7.9-4.1,15.3-10.4,20.2c-0.9,0.7-1.7,1.3-2.7,1.9l0,0
				c-0.4,0.3-0.9,0.5-1.3,0.7c-2.8,1.5-5.9,2.5-9.1,3c-0.4,0.1-0.8,0.1-1.2,0.2s-1,0.1-1.5,0.1s-0.8,0-1.2,0
				c-9.1,0-17.7-4.6-22.8-12.2c-0.2-0.3-0.4-0.5-0.5-0.8c0-0.1-0.1-0.1-0.1-0.2c-2.2-3.5-3.5-7.5-3.8-11.7c-0.1-0.8-0.1-1.6-0.1-2.5
				c0-15.1,12.2-27.3,27.3-27.3c0.4,0,0.8,0,1.2,0c13.1,0.6,23.9,10.4,25.8,23.3C263.1,826.9,263.2,828.2,263.2,829.6z"/>
			<circle class="st11" cx="242" cy="846.4" r="29.5"/>
			<ellipse class="st11" cx="267.2" cy="855.2" rx="18.4" ry="25"/>
			<ellipse class="st11" cx="248.3" cy="830.3" rx="28.5" ry="21"/>
			<circle class="st14" cx="212.3" cy="855.3" r="6"/>
			<circle class="st14" cx="235.6" cy="831.1" r="6.4"/>
			<circle class="st14" cx="263.3" cy="866.9" r="5.1"/>
			<rect x="211.6" y="843.7" class="st15" width="1.6" height="6.6"/>
			<rect x="235.5" y="818.7" class="st15" width="1.6" height="6.6"/>
			<rect x="262.4" y="855.7" class="st15" width="1.6" height="6.6"/>
			<path class="st16" d="M237.1,802.3V899H198c-0.9,0-1.6-1-1.6-2.1v-0.3c-1-0.4-1.8-1.1-2.3-2c-0.6-1.1-0.9-2.3-0.9-3.6
				c0-1.6,0.5-3.1,1.5-4.4c-3.2-4.3-3.3-10.2-0.2-14.5c-3.5-4.3-5.4-9.6-5.5-15.2c0-11.3,8.2-21,19.7-24.9c-0.1-0.8-0.1-1.6-0.1-2.5
				c0-15.1,12.2-27.3,27.3-27.3C236.3,802.2,236.7,802.3,237.1,802.3z"/>
			<g id="Busch-3">
				<path class="st11" d="M1479,943.3c0,0.3,0.1,0.7,0.1,1c0,2.9-1.6,5.3-3.6,5.8c-0.2,0.1-0.5,0.1-0.7,0.1h-74.7
					c-0.4,0-0.8-0.1-1.1-0.2c-1-0.4-1.8-1.1-2.3-2c-0.6-1.1-0.9-2.3-0.9-3.6c0-1.6,0.5-3.1,1.5-4.4c-3.2-4.3-3.3-10.2-0.2-14.5
					c2-2.9,5.3-4.6,8.9-4.6c0.3,0,0.5,0,0.7,0c0.7-2.9,2.1-5.6,4.1-7.8c1.6-1.8,3.9-2.9,6.3-3h0.1c0.6,0,1.3,0.1,1.9,0.3
					c0.4-1.2,1-2.4,1.6-3.5c0.4-0.8,0.9-1.5,1.4-2.2c2.2-3,5.1-4.8,8.2-4.8c3.8,0,7.2,2.7,9.6,7l0.4,0.7c0.4,0.8,0.8,1.7,1.1,2.6
					c0.1,0.2,0.2,0.5,0.3,0.7c0.3-0.3,0.5-0.5,0.8-0.7l0.2-0.1c2.6-2.1,5.8-3.4,9.1-3.7c0.4,0,0.8-0.1,1.2-0.1l0,0h0.3
					c4.4,0,8.7,1.7,11.9,4.8c0.5,0.5,1,1,1.4,1.5c0,0.1,0.1,0.1,0.2,0.2c0.8,1,1.5,2.1,2.1,3.3l0,0l0.2,0.4l0,0
					c0.2,0.3,0.3,0.7,0.5,1.1c0.2-0.1,0.4-0.2,0.6-0.3c1-0.5,2-0.7,3.1-0.8c0.8,0,1.5,0.1,2.3,0.4c3.4,1.2,6.1,4.9,7.2,9.8
					c0.3,1.6,0.5,3.1,0.5,4.7C1483.1,936.3,1481.4,940.7,1479,943.3z"/>
				<path class="st12" d="M1475.4,950v0.1c0,0.6-0.2,1.1-0.5,1.6c-0.3,0.4-0.7,0.7-1.2,0.7h-73.1c-0.9,0-1.6-1-1.6-2.1V950H1475.4z"
					/>
				<path class="st11" d="M1453.1,910.3c0,2-0.3,4-0.8,6c-1.4,5.1-4.4,9.6-8.4,13l0,0c-1.2,1-2.4,1.9-3.8,2.7l-0.4,0.2
					c-5,3-10.8,4.6-16.6,4.6h-0.8c-3.8,0-7.5-0.6-11.1-1.8c-5.6-1.8-10.5-5.2-14.2-9.7c-7.5-9.1-7.2-22.3,0.7-31.1
					c3.6-4.1,8.3-7.2,13.6-8.9c2.8-0.9,5.6-1.5,8.6-1.7c0.8-0.1,1.7-0.1,2.5-0.1c1.4,0,2.8,0.1,4.3,0.3c1.8,0.2,3.5,0.5,5.3,1
					c2.8,0.8,5.4,1.9,7.8,3.3c0.1,0.1,0.3,0.2,0.4,0.2c0.6,0.4,1.2,0.8,1.8,1.2c4.7,3.2,8.2,7.9,10,13.2c0.2,0.5,0.3,1.1,0.5,1.7
					s0.3,1.1,0.3,1.6l0,0C1453,907.6,1453.1,908.9,1453.1,910.3z"/>
				<path class="st11" d="M1465.8,883c0,0.4,0,0.9,0,1.3c-0.4,7.9-4.1,15.2-10.3,20.1c-0.9,0.7-1.7,1.3-2.7,1.9l0,0
					c-0.4,0.3-0.8,0.5-1.3,0.7c-2.8,1.5-5.9,2.5-9.1,3c-0.4,0.1-0.8,0.1-1.2,0.2s-0.7,0.1-1.1,0.1h-0.4c-0.4,0-0.8,0-1.2,0
					c-6,0-11.8-2-16.6-5.6c-1.5-1.2-3-2.5-4.2-4c-0.7-0.8-1.4-1.7-2-2.6c-0.2-0.3-0.4-0.5-0.5-0.8c0-0.1-0.1-0.1-0.1-0.2
					c-2.1-3.5-3.5-7.5-3.8-11.7c-0.1-0.8-0.1-1.6-0.1-2.5c0-1.2,0.1-2.4,0.3-3.7c0.7-5.5,3.2-10.7,7-14.8c0.8-0.9,1.6-1.7,2.6-2.5
					c3.4-2.8,7.4-4.8,11.7-5.7c1.9-0.4,3.9-0.6,5.8-0.6c0.4,0,0.8,0,1.2,0c0.1,0,0.3,0,0.4,0c0.9,0,1.8,0.1,2.6,0.3
					c4.4,0.7,8.6,2.4,12.2,5.1c0.9,0.6,1.7,1.3,2.5,2.1c1.1,1,2,2.1,2.9,3.2c1,1.3,1.9,2.7,2.6,4.2c1.3,2.6,2.2,5.4,2.7,8.4l0,0
					C1465.7,880.3,1465.8,881.6,1465.8,883z"/>
				<circle class="st11" cx="1444.6" cy="899.8" r="29.5"/>
				<ellipse class="st11" cx="1469.8" cy="908.6" rx="18.4" ry="25"/>
				<ellipse class="st11" cx="1450.9" cy="883.7" rx="28.5" ry="21"/>
				<circle class="st14" cx="1417.2" cy="935.9" r="6"/>
				<circle class="st14" cx="1452.4" cy="883.3" r="6.4"/>
				<circle class="st14" cx="1470.3" cy="915.9" r="5.1"/>
				<rect x="1416.5" y="924.2" class="st15" width="1.6" height="6.6"/>
				<rect x="1452.3" y="870.8" class="st15" width="1.6" height="6.6"/>
				<rect x="1469.5" y="904.7" class="st15" width="1.6" height="6.6"/>
				<path class="st11" d="M1426.8,886.5c0,2.3-0.5,4.5-1.5,6.6c-1.6,3.4-4.3,6.1-7.7,7.6c-0.8,0.4-1.7,0.7-2.5,0.9
					c-1.3,0.3-2.7,0.5-4,0.5c-8.6,0.2-15.8-6.6-16-15.2c-0.2-8.6,6.6-15.8,15.2-16c0.3,0,0.5,0,0.8,0c0.9,0,1.8,0.1,2.7,0.2
					c3.9,0.7,7.5,2.9,9.8,6.1c0.3,0.4,0.5,0.7,0.7,1.1c1.1,1.7,1.8,3.7,2.1,5.7C1426.7,884.8,1426.8,885.6,1426.8,886.5z"/>
				<path class="st11" d="M1423.7,869.1c0,2.1-0.6,4.2-1.9,6c-1.9,2.8-5.1,4.5-8.6,4.5c-0.6,0-1.2-0.1-1.8-0.2
					c-3.6-0.6-6.6-3.1-7.9-6.5c-0.5-1.2-0.7-2.5-0.7-3.8c0-5.8,4.7-10.4,10.4-10.4c4.6,0,8.7,3,10,7.4
					C1423.6,867.1,1423.7,868.1,1423.7,869.1z"/>
				<path class="st11" d="M1433.7,859.4c0,3.7-4.2,6.8-9.3,6.8c-0.4,0-0.8,0-1.1,0c-1.7-0.1-3.4-0.7-4.9-1.6c-1.9-1-3.2-3-3.3-5.1
					c0-0.2,0-0.4,0-0.6c0.4-3.5,4.4-6.2,9.3-6.2c3.6,0,6.8,1.5,8.3,3.7C1433.3,857.2,1433.7,858.3,1433.7,859.4z"/>
				<ellipse class="st11" cx="1452.6" cy="860.8" rx="13.7" ry="6.9"/>
				<ellipse class="st11" cx="1461.2" cy="864.4" rx="7.3" ry="6.5"/>
				<path class="st16" d="M1440.1,855.7v96.7h-39.5c-0.9,0-1.6-1-1.6-2.1V950c-1-0.4-1.8-1.1-2.3-2c-0.6-1.1-0.9-2.3-0.9-3.6
					c0-1.6,0.5-3.1,1.5-4.4c-3.2-4.3-3.3-10.2-0.2-14.5c-7.5-9.1-7.2-22.3,0.7-31.1c-4.4-7.4-1.9-17,5.6-21.4
					c0.1-0.1,0.2-0.1,0.3-0.2c-0.5-1.2-0.7-2.5-0.7-3.8c0-5.8,4.7-10.4,10.4-10.4c0.6,0,1.3,0.1,1.9,0.2c0.4-3.5,4.4-6.2,9.3-6.2
					c3.6,0,6.8,1.5,8.3,3.7c1.9-0.4,3.9-0.6,5.8-0.6c0.4,0,0.8,0,1.2,0C1439.8,855.7,1440,855.7,1440.1,855.7z"/>
			</g>
			<g id="Busch-4">
				<path class="st11" d="M928.9,756.6c0,0.2,0,0.5,0,0.7c0,0.5-0.2,1.1-0.3,1.6c-0.7,1.8-1.9,3.3-3.4,4.4l0,0
					c-2.6,1.7-5.6,2.7-8.8,2.6c-0.9,0-1.9-0.1-2.8-0.2c-0.3,0-0.6-0.1-1-0.2l0,0c-0.3-0.1-0.5-0.1-0.7-0.2c-4.2-1.2-7.2-3.9-7.9-7.2
					c-0.1-0.5-0.2-0.9-0.2-1.4c0-5.1,5.6-9.3,12.6-9.3c2.2,0,4.3,0.4,6.4,1.3c0.9,0.4,1.7,0.8,2.4,1.4c0.6,0.4,1.2,0.9,1.7,1.5
					C928.2,752.9,928.9,754.7,928.9,756.6z"/>
				<path class="st11" d="M967.6,830c0,0.3,0.1,0.7,0.1,1c0,2.9-1.6,5.3-3.6,5.8c-0.2,0.1-0.5,0.1-0.7,0.1h-74.7
					c-0.4,0-0.7-0.1-1.1-0.2c-1-0.4-1.8-1.1-2.3-2c-0.6-1.1-0.9-2.3-0.9-3.6c0-1.6,0.5-3.1,1.5-4.4c-3.2-4.3-3.3-10.2-0.2-14.5
					c2-2.9,5.3-4.6,8.9-4.6c0.3,0,0.5,0,0.7,0c0.6-2.9,2-5.6,4-7.8c1.6-1.8,3.9-2.9,6.3-3h0.1c0.6,0,1.3,0.1,1.9,0.3
					c0.4-1.2,1-2.4,1.6-3.5c0.4-0.8,0.9-1.5,1.4-2.2c2.2-3,5.1-4.8,8.2-4.8c2.4,0.1,4.7,1.1,6.4,2.8c1.3,1.2,2.4,2.7,3.2,4.3
					l0.4,0.7c0.4,0.8,0.8,1.7,1.1,2.6c0.1,0.2,0.2,0.5,0.3,0.7c0.3-0.3,0.5-0.5,0.8-0.7l0.2-0.1c2.6-2,5.7-3.3,8.9-3.7h0.2
					c0.4,0,0.8-0.1,1.2-0.1l0,0h0.3c2.8,0,5.5,0.7,7.9,1.9c1.5,0.8,2.8,1.7,4,2.9c0.5,0.5,1,1,1.4,1.5c0,0.1,0.1,0.1,0.2,0.2
					c0.8,1,1.5,2.1,2.1,3.3l0,0l0.2,0.4l0,0c0.2,0.3,0.3,0.7,0.5,1.1c0.2-0.1,0.4-0.2,0.5-0.3c1-0.5,2-0.7,3.1-0.8
					c0.8,0,1.5,0.1,2.3,0.4c3.4,1.2,6.1,4.9,7.2,9.7l0,0c0.3,1.6,0.5,3.1,0.5,4.7C971.7,822.9,970,827.3,967.6,830z"/>
				<path class="st12" d="M964,836.7v0.1c0,0.6-0.2,1.1-0.5,1.6c-0.3,0.4-0.7,0.7-1.2,0.7h-73.1c-0.9,0-1.6-1-1.6-2.1v-0.3H964z"/>
				<path class="st11" d="M941.7,797c0,0.8,0,1.5-0.1,2.3c-0.1,1.2-0.3,2.5-0.7,3.7c-1.4,5.1-4.4,9.6-8.4,13l0,0
					c-1.2,1-2.4,1.9-3.8,2.7l-0.4,0.2c-1,0.6-2.1,1.2-3.2,1.7c-4.2,1.9-8.8,2.9-13.4,3H911c-3.8,0-7.5-0.6-11.1-1.8
					c-5.6-1.8-10.5-5.2-14.2-9.7c-7.5-9.1-7.2-22.3,0.7-31.1c3.6-4.1,8.3-7.2,13.6-8.9c2.8-0.9,5.6-1.5,8.5-1.7
					c0.8-0.1,1.6-0.1,2.5-0.1l0,0c1.4,0,2.8,0.1,4.3,0.3c1.8,0.2,3.5,0.5,5.3,1c2.7,0.8,5.4,1.9,7.8,3.4l0.4,0.2
					c0.6,0.4,1.2,0.8,1.8,1.2c4.7,3.2,8.2,7.9,10,13.2c0.2,0.5,0.3,1.1,0.5,1.7c0,0.1,0,0.1,0,0.2c0.1,0.5,0.2,1,0.3,1.5l0,0
					C941.5,794.3,941.7,795.6,941.7,797z"/>
				<circle class="st11" cx="933.2" cy="786.5" r="29.5"/>
				<ellipse class="st11" cx="958.4" cy="795.3" rx="18.4" ry="25"/>
				<ellipse class="st11" cx="939.5" cy="770.3" rx="28.5" ry="21"/>
				<circle class="st14" cx="899.8" cy="814.5" r="6"/>
				<circle class="st14" cx="918.7" cy="763.8" r="6.4"/>
				<circle class="st14" cx="944.6" cy="795.1" r="5.1"/>
				<rect x="899.1" y="802.8" class="st15" width="1.6" height="6.6"/>
				<rect x="918.6" y="751.4" class="st15" width="1.6" height="6.6"/>
				<rect x="943.7" y="783.9" class="st15" width="1.6" height="6.6"/>
				<path class="st11" d="M915.4,773.1c0,2.3-0.5,4.5-1.5,6.6c-1.6,3.4-4.3,6.1-7.7,7.6c-0.8,0.4-1.7,0.7-2.5,0.9
					c-1.3,0.3-2.7,0.5-4,0.5c-8.6,0.2-15.8-6.6-16-15.2s6.6-15.8,15.2-16c0.3,0,0.5,0,0.8,0c0.9,0,1.8,0.1,2.7,0.2
					c0.5,0.1,0.9,0.2,1.3,0.3c2.5,0.7,4.7,1.9,6.6,3.6c0.7,0.6,1.3,1.3,1.9,2.1l0,0l0,0c0.3,0.4,0.5,0.7,0.7,1.1
					c0.2,0.2,0.3,0.5,0.4,0.7c0.6,1,1,2.1,1.3,3.2c0.2,0.6,0.3,1.1,0.4,1.7C915.3,771.4,915.4,772.3,915.4,773.1z"/>
				<path class="st11" d="M941.7,751.2c-0.1,2.5-1.3,4.8-3.4,6.2c-1.9,1.3-4.1,2-6.3,2c-1.2,0-2.3-0.2-3.4-0.5
					c-0.8-0.2-1.6-0.6-2.3-1c-0.4-0.2-0.8-0.5-1.1-0.8c-1.2-0.9-2.1-2.2-2.6-3.6c-0.2-0.7-0.4-1.5-0.4-2.2c0-0.9,0.2-1.8,0.5-2.6
					c0.5-1.3,1.4-2.4,2.4-3.2c1.9-1.5,4.4-2.4,6.8-2.3c4.6,0,8.5,2.7,9.5,6.3C941.6,750.1,941.7,750.6,941.7,751.2z"/>
				<path class="st16" d="M925.1,745.4v93.6h-35.9c-0.9,0-1.6-1-1.6-2.1v-0.3c-1-0.4-1.8-1.1-2.3-2c-0.6-1.1-0.9-2.3-0.9-3.6
					c0-1.6,0.5-3.1,1.5-4.4c-3.2-4.3-3.3-10.2-0.2-14.5c-7.5-9.1-7.2-22.3,0.7-31.1c-4.4-7.4-1.9-17,5.5-21.4c2.4-1.4,5.2-2.2,8-2.2
					c0.9,0,1.8,0.1,2.7,0.2c0.5,0.1,0.9,0.2,1.3,0.3c-0.1-0.5-0.2-0.9-0.2-1.4c0-5.1,5.6-9.3,12.6-9.3c2.2,0,4.3,0.4,6.4,1.3
					C923.2,747.4,924,746.3,925.1,745.4z"/>
			</g>
		</g>
		<g id="Busch-5">
			<path class="st11" d="M719.4,949.9c0,3.5-2.4,6.5-5.7,7.4l0,0c-0.6,0.2-1.3,0.3-1.9,0.3H579.2c-0.4,0-0.8,0-1.2-0.1
				c-3.7-0.6-6.4-3.8-6.4-7.5c0-0.4,0-0.9,0.1-1.3c-4.7-3.8-7.4-9.6-7.3-15.7c0-10.7,7.9-19.4,17.7-19.4c2.2,0,4.5,0.5,6.5,1.4
				c4.8-8.7,15.9-14.8,29-14.8c6.8-0.1,13.4,1.7,19.3,5.1c0.5,0.3,1,0.6,1.5,0.9c4-8.6,11.5-14.4,20.2-14.4h0.8
				c8.1,0.3,15.1,5.7,19,13.7c1.1-0.2,2.2-0.3,3.3-0.3c8.5,0,15.7,5.9,18.5,14.1c0.4,0,0.8,0,1.3,0c11,0,19.8,6.9,19.8,15.4
				c-0.1,3.7-1.7,7.2-4.4,9.7C718.4,945.6,719.4,947.7,719.4,949.9z"/>
			<path class="st12" d="M713.7,957.3v0.4c0,1.5-1.2,2.8-2.8,2.8c0,0,0,0,0,0H581.1c-1.7,0-3.1-1.3-3.1-3v-0.2L713.7,957.3z"/>
			<path class="st13" d="M659.3,891.7v68.7h-78.1c-1.7,0-3.1-1.3-3.1-3c-3.7-0.6-6.4-3.8-6.4-7.5c0-0.4,0-0.9,0.1-1.3
				c-4.7-3.8-7.4-9.6-7.3-15.7c0-10.7,7.9-19.4,17.7-19.4c2.2,0,4.5,0.5,6.5,1.4c4.8-8.7,15.9-14.8,29-14.8
				c6.8-0.1,13.4,1.7,19.3,5.1c0.5,0.3,1,0.6,1.5,0.9c4-8.6,11.5-14.4,20.2-14.4L659.3,891.7z"/>
		</g>
		<g id="Busch-6">
			<path class="st12" d="M1266.6,903.2v0.4c0,1.5-1.2,2.8-2.8,2.8c0,0,0,0,0,0h-129.8c-1.7,0-3.1-1.3-3.1-3v-0.2L1266.6,903.2z"/>
			<path class="st11" d="M1272.3,895.8c0,3.5-2.4,6.5-5.7,7.4l0,0c-0.6,0.2-1.3,0.3-1.9,0.3h-132.5c-0.4,0-0.8,0-1.2-0.1
				c-3.7-0.6-6.4-3.8-6.4-7.5c0-0.4,0-0.9,0.1-1.3c-4.7-3.8-7.4-9.6-7.3-15.7c0-9.3,6-17.1,14-19c-0.7-1.8-1-3.7-1-5.6
				c0-11,11.2-19.9,25-19.9c2.8,0,5.6,0.4,8.3,1.1c1.1-11.3,12.6-20.3,26.6-20.3c2.3,0,4.6,0.2,6.8,0.7c9.5,2.1,16.9,8.3,19.1,16.3
				c1.1-0.1,2.2-0.2,3.3-0.2c10.5,0,19.7,4.8,24.3,11.8h0.9c15.4,0,27.9,10.2,27.9,22.7c0,2.2-0.4,4.3-1.1,6.4
				c1.6,2.2,2.5,4.8,2.5,7.5c-0.1,3.7-1.7,7.2-4.4,9.7C1271.4,891.5,1272.3,893.6,1272.3,895.8z"/>
			<path class="st16" d="M1197.1,815.9v90.5h-63c-1.7,0-3.1-1.3-3.1-3c-3.7-0.6-6.4-3.8-6.4-7.5c0-0.4,0-0.9,0.1-1.3
				c-4.7-3.8-7.4-9.6-7.3-15.7c0-9.3,6-17.1,14-19c-0.7-1.8-1-3.7-1-5.6c0-11,11.2-19.9,25-19.9c2.8,0,5.6,0.4,8.3,1.1
				c1.1-11.3,12.6-20.3,26.6-20.3C1192.5,815.1,1194.8,815.4,1197.1,815.9z"/>
		</g>
		<g id="Busch-7">
			<path class="st11" d="M1913,738.6c0,2.5-2.1,4.6-5,5.2l0,0c-0.5,0.1-1.1,0.2-1.7,0.2H1791c-0.4,0-0.7,0-1.1-0.1
				c-3.2-0.4-5.6-2.6-5.6-5.3c0-0.3,0-0.6,0.1-0.9c-3.9-2.3-6.2-6.5-6.3-11c0.1-5.1,3.1-9.7,7.8-11.9c2.4-1.2,5-1.8,7.7-1.8
				c1.9,0,3.8,0.4,5.7,1c0.7-0.9,1.4-1.8,2.2-2.6c1.6-1.5,3.4-2.8,5.3-3.8c0.7-0.4,1.5-0.7,2.3-1.1c2.9-1.2,5.9-2,9.1-2.5
				c0.9-0.2,1.9-0.3,2.9-0.3s2-0.1,3-0.1h0.4c1.4,0,2.8,0.1,4.1,0.2c3.5,0.3,7,1.1,10.3,2.3c0.7,0.3,1.3,0.5,2,0.8l0.4,0.2
				c0.4,0.2,0.9,0.4,1.3,0.7c1.6-2.7,3.7-5.1,6.4-6.8c2.5-1.7,5.4-2.7,8.4-3.2l0,0c0.9-0.1,1.8-0.2,2.7-0.2h0.7
				c5.5,0.2,10.7,2.6,14.4,6.7c0.8,0.9,1.5,1.9,2.2,3c0.8-0.1,1.7-0.2,2.5-0.2h0.4c4.6-0.1,9.1,1.7,12.5,4.8
				c1.5,1.4,2.8,3.2,3.6,5.1h1.1c1.6,0,3.3,0.1,4.9,0.4c7.2,1.3,12.4,5.5,12.4,10.4c0,2.6-1.4,4.9-3.8,6.8
				C1912.1,735.5,1912.9,737,1913,738.6z"/>
			<path class="st12" d="M1908,743.8v0.3c-0.1,1.2-1.2,2.1-2.4,2h-112.9c-0.7,0-1.4-0.2-1.9-0.6c-0.5-0.4-0.7-0.9-0.8-1.5v-0.1
				L1908,743.8z"/>
			<path class="st11" d="M1826.6,711.4L1826.6,711.4c0,2.4-0.6,4.7-1.7,6.7c-0.7,1.2-1.5,2.4-2.4,3.4l-0.6,0.6
				c-4.3,4-9.9,6.1-15.8,6c-9.9,0-18.2-5.7-20.1-13.3c-0.3-1.1-0.4-2.2-0.4-3.3c0-5.8,3.7-10.8,9.2-13.8c2.9-1.5,6.1-2.4,9.3-2.7
				c0.7-0.1,1.3-0.1,2-0.1c2.7,0,5.3,0.4,7.8,1.2c0.8,0.3,1.7,0.6,2.4,1c2.2,1,4.2,2.4,5.8,4.1c0.7,0.7,1.4,1.5,1.9,2.4
				c0.5,0.7,0.9,1.5,1.3,2.3C1826.2,707.7,1826.6,709.5,1826.6,711.4z"/>
			<path class="st11" d="M1834.6,692.1L1834.6,692.1c0,0.3,0,0.6,0,0.8c-0.4,4.3-2.6,8.2-6,10.8c-1,0.8-2.1,1.5-3.2,2.1
				c-1.4,0.7-2.8,1.3-4.3,1.8l-0.6,0.2c-2.1,0.5-4.2,0.8-6.4,0.8c-1.6,0-3.2-0.2-4.8-0.5c-0.8-0.2-1.6-0.4-2.4-0.6
				c-2.5-0.7-4.8-1.9-6.9-3.5c-2.3-1.7-4.1-3.9-5.2-6.4c-0.8-1.8-1.2-3.7-1.2-5.6c0-9.2,9.2-16.6,20.5-16.6c5.8-0.1,11.5,2,15.8,6
				c2.6,2.4,4.2,5.6,4.6,9.1C1834.6,691.1,1834.6,691.6,1834.6,692.1z"/>
			<ellipse class="st11" cx="1820.5" cy="705" rx="20.5" ry="16.6"/>
			<ellipse class="st11" cx="1829.7" cy="706.8" rx="20.5" ry="16.6"/>
			<ellipse class="st11" cx="1841" cy="707.9" rx="20.5" ry="16.6"/>
			<ellipse class="st11" cx="1872.3" cy="713.7" rx="20.5" ry="16.6"/>
			<ellipse class="st11" cx="1882" cy="720" rx="20.5" ry="16.6"/>
			<ellipse class="st11" cx="1859.3" cy="706.8" rx="20.5" ry="16.6"/>
			<path class="st11" d="M1857.3,697.1c0,0.3,0,0.5,0,0.8c-0.2,2.5-1,4.9-2.3,6.9l-0.1,0.1c-0.2,0.3-0.4,0.7-0.7,1
				c-1.2,1.6-2.7,3-4.4,4.1c-2.8,1.8-6,3-9.3,3.5c-0.8,0.1-1.7,0.2-2.5,0.2c-0.4,0-0.8,0-1.2,0c-3.5,0-7-0.7-10.3-2.2
				c-2-0.9-3.9-2.2-5.5-3.8l-0.6-0.6c-0.9-0.9-1.6-1.9-2.3-3c-1.2-2.1-1.9-4.5-1.9-6.9v-0.1c0-1.1,0.1-2.1,0.4-3.2
				c0.5-2,1.4-3.8,2.6-5.5c2.7-3.4,6.4-5.9,10.5-7c2.3-0.7,4.6-1,7-1c7.8,0,14.6,3.5,18.1,8.8c0.3,0.4,0.5,0.8,0.7,1.2
				C1856.8,692.5,1857.4,694.8,1857.3,697.1z"/>
			<path class="st17" d="M1854.9,689.3V746h-62.2c-0.7,0-1.4-0.2-1.9-0.6c-0.5-0.4-0.7-0.9-0.8-1.5c-3.2-0.4-5.6-2.6-5.6-5.3
				c0-0.3,0-0.6,0.1-0.9c-3.9-2.3-6.2-6.5-6.3-11c0.1-5.1,3.1-9.7,7.8-11.9c-0.3-1.1-0.4-2.2-0.4-3.3c0-5.8,3.7-10.8,9.2-13.8
				c-0.8-1.8-1.2-3.7-1.2-5.6c0-9.2,9.2-16.6,20.5-16.6c5.8-0.1,11.5,2,15.8,6c2.3-0.7,4.6-1,7-1
				C1844.7,680.5,1851.5,684.1,1854.9,689.3z"/>
		</g>
		<g id="Baum">
			<rect x="287.1" y="644.6" class="st15" width="13.5" height="111.8"/>
			<path class="st11" d="M322.2,640c0,0.8,0,1.5-0.1,2.3l0,0c0,0.5-0.1,0.9-0.2,1.4c-1.4,8.2-7.3,15.1-15.5,19.2
				c-1.9,0.9-3.8,1.7-5.8,2.3c-1.6,0.5-3.3,0.9-5,1.1l-1.5,0.2c-1.6,0.2-3.2,0.3-4.8,0.3c-0.8,0-1.5,0-2.3-0.1
				c-9.9-0.5-18.6-4.6-24.2-10.8c-3.4-3.6-5.6-8.2-6.3-13.1c-0.5-3.6,0-7.3,1.3-10.7c0.5-1.4,1.2-2.7,1.9-3.9
				c0.4-0.6,0.8-1.2,1.2-1.8c4.5-6.2,12-10.8,20.8-12.5l0,0c1.4-0.3,2.9-0.5,4.4-0.6c1-0.1,2.1-0.1,3.2-0.1c1.6,0,3.2,0.1,4.8,0.3
				l1.5,0.2c1.2,0.2,2.4,0.4,3.5,0.7l0,0c1,0.2,2,0.5,2.9,0.9s2.1,0.8,3.1,1.2c1.9,0.8,3.6,1.8,5.3,3c0.1,0,0.1,0.1,0.1,0.1
				c3.4,2.3,6.2,5.2,8.4,8.7c1,1.6,1.8,3.3,2.3,5.2l0.1,0.3C321.9,635.8,322.2,637.9,322.2,640z"/>
			<ellipse class="st11" cx="326.2" cy="610.1" rx="27.6" ry="23.7"/>
			<ellipse class="st11" cx="296.6" cy="612.5" rx="14.9" ry="18.3"/>
			<path class="st11" d="M305.4,620.1c0,1.7-0.2,3.4-0.5,5.1c-0.2,1.1-0.5,2.2-0.8,3.2c-1.8,5.5-5.3,10.4-10,13.9
				c-1.1,0.8-2.3,1.6-3.5,2.3c-1.2,0.6-2.4,1.2-3.6,1.7c-3.8,1.6-7.9,2.4-12.1,2.4c-0.6,0-1.2,0-1.7,0c-6-0.3-11.8-2.3-16.6-5.8
				c-4.1-2.9-7.3-6.8-9.4-11.3c-1.7-3.6-2.6-7.5-2.6-11.5c0-14,10.7-25.7,24.8-28.2c1.8-0.3,3.7-0.5,5.5-0.5
				c5.6,0,11.1,1.4,15.9,4.2c1.1,0.6,2.2,1.4,3.2,2.2c2.1,1.6,4,3.5,5.6,5.6c2.6,3.3,4.3,7.2,5.1,11.4c0.1,0.6,0.2,1.2,0.3,1.7
				C305.3,617.7,305.4,618.9,305.4,620.1z"/>
			<path class="st11" d="M275,642.4c0,2.2-0.6,4.4-1.7,6.3c-2.3,3.7-6.1,6.4-10.4,7.3c-1.6,0.4-3.2,0.6-4.8,0.6
				c-9.3,0-16.9-6.4-16.9-14.2c0-2.1,0.5-4.1,1.5-5.9c1.1-1.9,2.6-3.6,4.4-4.9c3.2-2.3,7-3.4,11-3.4c0.6,0,1.1,0,1.7,0.1h0.5
				C268.6,629.2,275,635.1,275,642.4z"/>
			<path class="st11" d="M326.2,590c0,9.6-5.9,18-14.6,22.4c-2.1,1.1-4.4,1.9-6.7,2.4c-0.9,0.2-1.9,0.4-2.8,0.5s-1.8,0.2-2.7,0.2
				c-0.5,0-1.1,0-1.6,0c-4,0-7.9-0.8-11.6-2.2c-1.5-0.6-3-1.4-4.4-2.2c-7-4.3-11.7-11.3-12.3-19.3c-0.1-0.6-0.1-1.3-0.1-1.9
				c0-13,10.8-23.8,24.8-25.4c1.2-0.1,2.4-0.2,3.7-0.2c14.3,0,26.2,9.5,28.1,22C326.1,587.6,326.2,588.8,326.2,590z"/>
			<ellipse class="st11" cx="323.4" cy="629" rx="18" ry="13.4"/>
			<ellipse class="st11" cx="315.5" cy="648.8" rx="21" ry="15.7"/>
			<ellipse class="st11" cx="326" cy="577.8" rx="20.3" ry="16.5"/>
			<ellipse class="st11" cx="333.5" cy="633.8" rx="15.8" ry="14.6"/>
			<ellipse class="st11" cx="329" cy="590" rx="19.1" ry="11.9"/>
			<path class="st11" d="M261.5,622.6c0,1.3-0.2,2.6-0.5,3.9c-0.2,0.6-0.4,1.2-0.6,1.8c-0.6,1.4-1.4,2.7-2.4,3.9
				c-5.3,6-14.4,6.6-20.5,1.3s-6.6-14.4-1.3-20.5c2.8-3.1,6.7-4.9,10.9-4.9h0.4C255.2,608.3,261.5,614.7,261.5,622.6L261.5,622.6z"
				/>
			<path class="st11" d="M268.2,602.3c0,4.9-4.5,9-10.6,10.4c-1.5,0.3-3.1,0.5-4.7,0.5c-2.4,0-4.8-0.4-7.1-1.3
				c-1.7-0.6-3.3-1.5-4.6-2.7c-2.1-1.7-3.4-4.3-3.5-7c0-6,6.8-10.9,15.3-10.9h0.8c3.1,0.1,6.2,0.9,8.9,2.5c2,1.1,3.7,2.8,4.7,4.8
				C267.9,599.8,268.2,601.1,268.2,602.3z"/>
			<path class="st11" d="M286.8,582.8L286.8,582.8c0,3.6-1.3,7-3.7,9.7c-3.1,3.5-7.4,5.8-12.1,6.2c-0.7,0.1-1.5,0.1-2.2,0.1
				c-0.5,0-1,0-1.5-0.1c-3.1-0.2-6.1-1.2-8.8-2.8c-1.9-1.2-3.6-2.7-4.9-4.5c-1.8-2.5-2.8-5.5-2.8-8.6c0-8.8,8-16,18-16h0.1
				c3.8,0,7.6,1.2,10.8,3.3C284.1,572.9,286.7,577.6,286.8,582.8z"/>
			<circle class="st11" cx="306.5" cy="563.7" r="11.3"/>
			<path class="st11" d="M308.2,570.4c0,1.6-0.5,3.2-1.4,4.6c-0.3,0.5-0.6,0.9-1,1.3c-2.8,2.9-6.3,4.8-10.2,5.6
				c-2.4,0.6-4.9,0.9-7.4,0.9c-0.5,0-0.9,0-1.4,0c-5.7-0.2-10.8-2-14.2-4.6c-2.7-2.1-4.4-4.8-4.4-7.8c0-1.2,0.3-2.4,0.8-3.5
				c2.4-5.2,10.1-8.9,19.1-8.9c2.5,0,5,0.3,7.4,0.9l0.7,0.2c4.7,1.3,8.5,3.7,10.5,6.7c0.8,1.2,1.3,2.7,1.4,4.2
				C308.2,570,308.2,570.2,308.2,570.4z"/>
			<rect x="287.1" y="755.7" class="st18" width="13.5" height="3.6"/>
			<path class="st19" d="M295.6,558.8v200.5h-8.5v-92.5c-9.9-0.5-18.6-4.6-24.2-10.8c-1.6,0.4-3.2,0.6-4.8,0.6
				c-9.3,0-16.9-6.4-16.9-14.2c0-2.1,0.5-4.1,1.5-5.9c-7.7-2.3-12-10.4-9.6-18.1c1.2-4.1,4.2-7.4,8.1-9.1c-2.1-1.7-3.4-4.3-3.5-7
				c0-6,6.8-10.9,15.3-10.9h0.8c-1.8-2.5-2.8-5.5-2.8-8.6c0-8.8,8-16,18-16h0.1c2.4-5.2,10.1-8.9,19.1-8.9
				C290.7,557.8,293.1,558.2,295.6,558.8z"/>
		</g>
		<g id="Baum-2">
			<rect x="804.1" y="781.5" class="st15" width="13.4" height="110.5"/>
			<path class="st11" d="M838.9,777c0,0.8,0,1.5-0.1,2.3l0,0c-0.2,2.2-0.8,4.4-1.7,6.5c-3.2,7.5-10.5,13.5-19.6,16.2
				c-1.8,0.5-3.6,0.9-5.5,1.2l-0.9,0.1c-1.6,0.2-3.1,0.3-4.7,0.3c-0.8,0-1.5,0-2.2-0.1c-10.8-0.6-20.1-5.5-25.5-12.5
				c-1.5-2-2.7-4.2-3.6-6.6c-0.8-2.3-1.2-4.8-1.2-7.3c0-1.3,0.1-2.6,0.3-3.8c0.9-4.8,3.3-9.3,6.9-12.7c4.9-4.8,11.1-8,17.9-9.2
				l0.9-0.2c2.2-0.4,4.3-0.5,6.5-0.5c1.6,0,3.2,0.1,4.7,0.3l0.9,0.1c1,0.1,2,0.3,3,0.5l0,0c0.5,0.1,0.9,0.2,1.3,0.3
				c1.2,0.3,2.4,0.7,3.6,1.1c2.6,0.9,5.1,2.2,7.3,3.8l0,0l0.1,0.1c2.6,1.8,5,4,6.9,6.6l0,0C837.2,767.3,838.9,772.1,838.9,777z"/>
			<ellipse class="st11" cx="838.9" cy="740.3" rx="27.3" ry="23.5"/>
			<ellipse class="st11" cx="813.6" cy="749.8" rx="14.7" ry="18.1"/>
			<path class="st11" d="M816.6,747.4c0,1.5-0.1,2.9-0.4,4.4c-0.1,0.4-0.1,0.8-0.2,1.3c-1.2,5.2-3.8,10-7.5,13.8
				c-5.8,5.8-13.7,9-21.9,8.9c-0.3,0-0.7,0-1,0c-3.9-0.1-7.8-1-11.5-2.5c-6.2-2.6-11.4-7.3-14.5-13.3c-2-3.8-3-8.1-3-12.4
				c0-12.9,9.2-23.8,21.7-27.2c2.7-0.7,5.5-1.1,8.3-1.1c9.6-0.1,18.6,4.3,24.4,11.9c0.2,0.3,0.4,0.6,0.6,0.9
				c0.4,0.5,0.7,1.1,1.1,1.7c1.7,2.9,2.9,6,3.5,9.3C816.5,744.3,816.6,745.9,816.6,747.4z"/>
			<path class="st11" d="M786.6,770.9c0,1.7-0.3,3.3-1,4.8c-2.1,4.3-5.9,7.5-10.6,8.6c-1.7,0.5-3.4,0.7-5.1,0.7
				c-9.2,0-16.7-6.3-16.7-14c0.1-4.5,2.5-8.6,6.4-11c6.6-4.2,15.1-4,21.4,0.6C784.4,762.9,786.5,766.7,786.6,770.9z"/>
			<path class="st11" d="M834.4,719.1c-0.1,7.5-3.6,14.5-9.6,19c-2.6,2-5.5,3.6-8.6,4.7c-1.4,0.5-2.8,0.8-4.3,1.1l-0.9,0.1
				c-1.6,0.2-3.1,0.4-4.7,0.4c-2.2,0-4.5-0.2-6.6-0.7c-11.9-2.6-20.9-12.1-21.4-23.5c0-0.4,0-0.7,0-1.1c0-14,12.6-25.3,28.1-25.3
				c1.6,0,3.2,0.1,4.7,0.4c12.6,1.9,22.3,11.3,23.3,23C834.4,717.8,834.4,718.4,834.4,719.1z"/>
			<ellipse class="st11" cx="840" cy="766.1" rx="17.8" ry="13.2"/>
			<rect x="804.1" y="892.1" class="st18" width="13.4" height="3.2"/>
			<circle class="st11" cx="835.6" cy="706.7" r="24"/>
			<path class="st11" d="M835.6,700.9c0,3.2-1.2,6.3-3.2,8.8c-3.6,4.6-10,8-17.5,9.1c-0.9,0.1-1.9,0.2-2.9,0.3
				c-0.7,0-1.4,0.1-2.2,0.1c-3,0-5.9-0.4-8.8-1.1c-8.8-2.3-15.4-7.8-16.7-14.6c-0.2-0.8-0.2-1.6-0.2-2.5c0-1.6,0.3-3.2,0.9-4.8
				c3-7.7,13-13.4,24.9-13.4c0.7,0,1.4,0,2.2,0.1c4.1,0.2,8.2,1.2,12,2.9C831,689,835.6,694.6,835.6,700.9z"/>
			<path class="st11" d="M801.1,717.9L801.1,717.9c0,1.5-0.1,3-0.4,4.4c-1.2,7.1-5.8,13.1-12.3,16.2c-2.5,1.1-5.2,1.7-8,1.7
				c-0.7,0-1.5,0-2.2-0.1c-6.4-0.8-12.1-4.5-15.3-10.1c-1.9-3.2-3-6.9-3.3-10.6c0-0.5,0-1,0-1.5c0-12.3,9.3-22.3,20.7-22.3
				c3.5,0,7,0.9,10,2.7C797.1,702.5,801.2,710,801.1,717.9z"/>
			<path class="st11" d="M778.2,741.4c0,0.3,0,0.7,0,1c-0.1,5.3-1.7,10.4-4.7,14.7c-2.9,4-6.9,6.6-11.3,6.6H762
				c-1.9,0-3.7-0.5-5.4-1.4c-1.7-0.9-3.2-2.1-4.5-3.5c-3.6-4.1-6-10.3-6-17.4c0-11.1,5.8-20.3,13.4-22c0.8-0.2,1.7-0.3,2.6-0.3
				c3.4,0.1,6.7,1.5,9.1,4c3.9,3.8,6.6,10,6.9,17.1C778.2,740.6,778.2,741,778.2,741.4z"/>
			<ellipse class="st11" cx="854" cy="720.8" rx="19.5" ry="23.7"/>
			<ellipse class="st11" cx="859.6" cy="749" rx="13.5" ry="19.3"/>
			<ellipse class="st11" cx="839.2" cy="764.2" rx="22.6" ry="21.7"/>
			<path class="st11" d="M806.3,766.7c0,0.7,0,1.5-0.1,2.2c-1.3,12.3-13.1,22-27.6,22h-0.1c-15.4,0-27.8-10.8-27.8-24.2
				c0-2.7,0.5-5.4,1.5-7.9c1.1-2.7,2.6-5.2,4.6-7.3c5.6-5.8,13.3-9,21.3-9h0.3c7.5-0.1,14.8,2.7,20.3,7.7c0.3,0.3,0.7,0.6,1,1
				c3.9,3.9,6.2,9,6.5,14.5C806.3,765.9,806.3,766.3,806.3,766.7z"/>
			<path class="st19" d="M812,682.8v212.5h-7.9v-91.9c-10.8-0.6-20.1-5.5-25.5-12.5h-0.1c-15.4,0-27.8-10.8-27.8-24.2
				c0-2.7,0.5-5.4,1.5-7.9c-3.6-4.1-6-10.3-6-17.4c0-11.1,5.8-20.3,13.4-22c0-0.5,0-1,0-1.5c0-12.3,9.3-22.3,20.7-22.3
				c1.6,0,3.1,0.2,4.7,0.6c3-7.7,13-13.4,24.9-13.4C810.6,682.7,811.3,682.8,812,682.8z"/>
		</g>
		<g id="Baum-3">
			<rect x="1012" y="636.4" class="st15" width="13.1" height="132.1"/>
			<path class="st11" d="M1054.8,637.2c0,4.5-0.8,9-2.4,13.3l0,0c-4.6,12-14.9,20.8-27.3,23.6c-1.9,0.4-3.8,0.7-5.7,0.8
				c-0.7,0-1.3,0.1-2,0.1h-0.7c-1.6,0-3.1-0.1-4.6-0.3c-19.1-2.2-33.5-18.3-33.6-37.6c0-0.2,0-0.4,0-0.6c0-2.1,0.2-4.2,0.6-6.3
				c0.5-2.5,1.2-5,2.2-7.4c3.2-7.8,8.9-14.3,16.2-18.5l0.8-0.4c1.1-0.6,2.2-1.1,3.4-1.6c1.6-0.7,3.2-1.2,4.8-1.7
				c0.5-0.1,1-0.3,1.6-0.4l0,0c1.9-0.4,3.7-0.7,5.6-0.9c1-0.1,2-0.1,3-0.1c0.3,0,0.5,0,0.7,0c0.7,0,1.3,0,2,0.1
				c3.7,0.2,7.3,1,10.8,2.3l0,0c7.9,3,14.7,8.5,19.1,15.7l0,0c2.7,4.4,4.5,9.4,5.3,14.5c0.1,0.8,0.2,1.5,0.3,2.3
				C1054.8,635.2,1054.8,636.2,1054.8,637.2z"/>
			<path class="st11" d="M1013.9,595.6c0,1.3-0.1,2.6-0.3,3.8c-0.1,0.9-0.3,1.7-0.5,2.6c-0.7,3.2-2,6.2-3.7,9
				c-0.5,0.8-1.1,1.6-1.7,2.4c-0.3,0.4-0.6,0.7-0.9,1.1c-0.1,0.2-0.3,0.3-0.4,0.5l0,0c-4.9,5.5-12,8.6-19.3,8.7
				c-5.3,0-10.4-1.6-14.7-4.7c-1.6-1.1-3.1-2.4-4.5-3.9c-10.2-11.1-10.1-28.2,0.2-39.3c4.9-5.3,11.8-8.3,19-8.3h0.3
				c6.5,0.1,12.8,2.6,17.5,7.1c1.5,1.4,2.9,3,4,4.7c1.7,2.5,3,5.4,3.8,8.3C1013.5,590.3,1013.9,592.9,1013.9,595.6z"/>
			<ellipse class="st11" cx="1015.8" cy="598.5" rx="14.5" ry="21.6"/>
			<ellipse class="st11" cx="1036.8" cy="607.4" rx="29.5" ry="33.8"/>
			<ellipse class="st11" cx="1053.2" cy="633.7" rx="16.4" ry="16.8"/>
			<path class="st11" d="M1042.3,571.9c0,0.7,0,1.5-0.1,2.2c-0.4,6.8-3,13.2-7.3,18.4c-1.4,1.6-2.9,3.1-4.7,4.4
				c-1.8,1.3-3.7,2.4-5.7,3.3c-1.7,0.7-3.4,1.2-5.1,1.5c-0.7,0.1-1.3,0.2-2,0.3c-0.9,0.1-1.8,0.1-2.7,0.1c-0.5,0-1,0-1.5-0.1
				c-1.8-0.1-3.6-0.4-5.3-0.9c-0.5-0.1-1-0.3-1.4-0.5c-1.8-0.6-3.5-1.4-5.1-2.4c-5.1-3.2-9.1-7.8-11.5-13.3
				c-1.8-4.1-2.8-8.6-2.7-13.2c0-1.4,0.1-2.9,0.3-4.3c0.9-7.3,4.4-14,9.8-19c4.8-4.4,11-6.9,17.5-6.9c0.9,0,1.8,0,2.7,0.1
				c0.7,0.1,1.3,0.2,2,0.3c6.1,1.2,11.6,4.4,15.5,9.2C1039.7,557,1042.3,564.3,1042.3,571.9z"/>
			<path class="st11" d="M1007.3,617.9c0,8.7-7.8,15.8-17.5,15.8c-3.9,0-7.7-1.2-10.8-3.4c-3.8-2.6-6.2-6.7-6.6-11.3
				c0-0.4,0-0.7,0-1.1c0-8.7,7.8-15.8,17.5-15.8c2.9,0,5.7,0.6,8.3,1.9c1.6,0.8,3,1.8,4.3,3c2.2,2,3.7,4.6,4.4,7.5
				c0.1,0.4,0.2,0.9,0.3,1.3C1007.3,616.5,1007.3,617.2,1007.3,617.9z"/>
			<path class="st11" d="M1007.3,565.5c0,3.2-0.8,6.4-2.4,9.2c-3.2,5.6-8.7,9.4-15.1,10.3c-8.4,1.4-16.9-2.1-21.8-9.2
				c-2-3.1-3.1-6.7-3.1-10.4c0-11,9.5-19.8,21.2-19.8c3.9,0,7.6,1,11,2.9C1003.4,551.9,1007.2,558.4,1007.3,565.5z"/>
			<ellipse class="st11" cx="1030.8" cy="571.9" rx="22.5" ry="21"/>
			<circle class="st11" cx="1057" cy="617.9" r="14.3"/>
			<path class="st11" d="M1013.9,621.3c0,1.9-0.4,3.8-1.2,5.5c-3.1,7-12,12.1-22.5,12.1c-4,0-8-0.8-11.8-2.3c-7.1-3-12-8.8-12-15.3
				c0-2.1,0.5-4.2,1.5-6.1c2-3.9,5.7-7.2,10.6-9.2c3.7-1.5,7.7-2.3,11.7-2.3c2.4,0,4.9,0.3,7.3,0.8c1,0.2,2.1,0.6,3.1,0.9l0,0
				c0.6,0.2,1.2,0.5,1.8,0.7c1.8,0.8,3.5,1.8,5.1,3c0.7,0.6,1.4,1.2,2.1,1.9c2.4,2.4,3.9,5.5,4.3,8.8
				C1013.8,620.3,1013.8,620.8,1013.9,621.3z"/>
			<rect x="1012" y="768.4" class="st18" width="13.1" height="3.6"/>
			<path class="st19" d="M1017.3,541.8V772h-5.3v-97.3c-19.1-2.2-33.5-18.3-33.6-37.6c0-0.2,0-0.4,0-0.6c-7.1-3-12-8.8-12-15.3
				c0-2.1,0.5-4.2,1.5-6.1c-10.2-11.1-10.1-28.2,0.2-39.3c-2-3.1-3.1-6.7-3.1-10.4c0-11,9.5-19.8,21.2-19.8c3.9,0,7.6,1,11,2.9
				c4.8-4.4,11-6.9,17.5-6.9C1015.6,541.6,1016.5,541.7,1017.3,541.8z"/>
		</g>
		<g id="Baum-4">
			<rect x="1547.6" y="735.7" class="st15" width="15.9" height="150"/>
			<path class="st11" d="M1588.9,729.5c0,1,0,2.1-0.1,3.1c-0.7,7.5-3.8,14.5-8.9,20c-4.5,4.9-10.1,8.6-16.4,10.7
				c-2.4,0.8-5,1.4-7.5,1.8c-0.4,0.1-0.9,0.1-1.3,0.2c-1.4,0.2-2.9,0.2-4.4,0.2c-0.9,0-1.8,0-2.7-0.1c-11.1-0.6-21.4-5.8-28.4-14.4
				c-4.1-5.1-6.7-11.2-7.4-17.6c0-0.4-0.1-0.7-0.1-1.1c-0.1-0.9-0.1-1.8-0.1-2.7c0-5.5,1.4-11,4-15.8c3.1-5.7,7.6-10.6,13.2-14
				c3.9-2.4,8.2-4.2,12.7-5.2l0,0c1.7-0.4,3.5-0.7,5.2-0.8c1.2-0.1,2.4-0.2,3.7-0.2c1.5,0,2.9,0.1,4.4,0.2c0.4,0,0.9,0.1,1.3,0.2
				c1.9,0.3,3.9,0.7,5.8,1.2l0,0c1.2,0.3,2.3,0.7,3.4,1.2c1.2,0.5,2.5,1,3.7,1.6c2.2,1.1,4.3,2.5,6.2,4c0.1,0,0.1,0.1,0.2,0.1l0,0
				c4,3.1,7.3,7,9.7,11.5c1.2,2.3,2.2,4.6,2.8,7.1l0,0C1588.5,723.6,1588.9,726.6,1588.9,729.5z"/>
			<ellipse class="st11" cx="1593.5" cy="689.3" rx="32.4" ry="31.9"/>
			<ellipse class="st11" cx="1558.8" cy="692.6" rx="17.5" ry="24.5"/>
			<path class="st11" d="M1569.1,702.7c0,2.3-0.2,4.6-0.6,6.8c-0.2,1.5-0.6,2.9-1,4.3c-2,7.2-6,13.6-11.6,18.6
				c-1.3,1.2-2.7,2.2-4.2,3.2c-1.3,0.9-2.7,1.7-4.2,2.3c-4.4,2.1-9.3,3.2-14.2,3.2c-0.7,0-1.4,0-2-0.1c-7.2-0.5-14-3.2-19.6-7.8
				c-4.9-4-8.7-9.3-11.1-15.2c-2-4.9-3-10.1-3-15.4c0-18.8,12.6-34.5,29.2-37.8c2.1-0.4,4.3-0.6,6.5-0.6c6.6,0,13.1,2,18.6,5.7
				c1.4,0.9,2.7,1.9,3.9,3c2.5,2.2,4.7,4.7,6.5,7.5c3,4.6,5.1,9.8,6,15.3c0.1,0.8,0.3,1.5,0.3,2.3
				C1568.9,699.6,1569,701.2,1569.1,702.7z"/>
			<path class="st11" d="M1533.3,732.7c0,2.9-0.7,5.8-2,8.4c-2.5,4.8-6.9,8.4-12.2,9.9c-1.8,0.5-3.7,0.8-5.7,0.8
				c-11,0-19.8-8.5-19.8-19.1c0-1.1,0.1-2.1,0.3-3.2c0.8-4.5,3.2-8.5,6.7-11.3c3.6-3,8.2-4.6,12.9-4.6c0.7,0,1.3,0,2,0.1
				c5.2,0.5,10,3,13.4,6.9C1531.8,724,1533.4,728.2,1533.3,732.7z"/>
			<path class="st11" d="M1593.6,662.4c0,4.6-0.9,9.2-2.7,13.5c-2.9,7-8,12.8-14.5,16.6c-2.5,1.4-5.1,2.5-7.9,3.2
				c-1.1,0.3-2.2,0.5-3.3,0.7s-2.1,0.3-3.1,0.3l0,0c-0.6,0-1.2,0.1-1.8,0.1c-1.4,0-2.8-0.1-4.2-0.3c-0.4-0.1-0.9-0.1-1.3-0.2
				c-4.8-0.8-9.3-2.7-13.2-5.5c-2.5-1.8-4.8-3.9-6.7-6.2c-4.6-5.6-7.3-12.4-7.8-19.6c-0.1-0.8-0.1-1.7-0.1-2.5
				c0-5.9,1.5-11.7,4.3-16.8c4.8-9,13.5-15.2,23.6-17l1.3-0.2c1.4-0.2,2.8-0.3,4.2-0.3c8.8,0,17.2,3.5,23.3,9.8
				c5.3,5.3,8.7,12.2,9.7,19.7l0,0C1593.4,659.1,1593.6,660.7,1593.6,662.4z"/>
			<ellipse class="st11" cx="1590.2" cy="714.7" rx="21.2" ry="18"/>
			<path class="st11" d="M1531.7,710.4c0,3.6-1,7.1-2.8,10.2c-3.8,6.2-10.1,10.5-17.2,11.6c-0.3,0.1-0.7,0.1-1,0.2
				c-1.3,0.2-2.6,0.3-3.9,0.3c-4.5,0-8.9-1.1-12.8-3.2c-7.3-3.9-12.1-11-12.1-19.1c0-5.1,2-10.1,5.4-13.9c3.4-3.7,7.9-6.4,12.8-7.6
				c2.2-0.5,4.5-0.8,6.7-0.8c5.6,0,11.1,1.7,15.7,5c2.5,1.8,4.6,4.1,6.2,6.7C1530.6,702.9,1531.6,706.6,1531.7,710.4z"/>
			<path class="st11" d="M1547.6,665.6c0,0.6,0,1.2-0.1,1.8c-0.8,7.7-5.7,14.3-12.9,17.1c-2.7,1.1-5.7,1.7-8.6,1.7
				c-0.5,0-1.1,0-1.6-0.1c-6.9-0.4-13.2-4.1-16.9-10c-2-3.2-3.1-6.9-3.1-10.6c0-0.8,0.1-1.6,0.2-2.5c1.3-10.3,10.4-18.2,21.4-18.2
				c1.7,0,3.4,0.2,5.1,0.6C1540.5,647.7,1547.6,655.9,1547.6,665.6z"/>
			<path class="st11" d="M1524.5,683.9c0,0.8,0,1.5-0.1,2.3c-1.3,11.4-11.6,19.6-22.9,18.3s-19.6-11.6-18.3-22.9
				c1.2-10.5,10.1-18.4,20.6-18.4c0.3,0,0.5,0,0.8,0C1515.7,663.5,1524.5,672.7,1524.5,683.9L1524.5,683.9z"/>
			<ellipse class="st11" cx="1584.8" cy="733.4" rx="19.2" ry="19.8"/>
			<ellipse class="st11" cx="1591.6" cy="656.2" rx="21.9" ry="19.7"/>
			<ellipse class="st11" cx="1606.2" cy="714.8" rx="16.4" ry="22.2"/>
			<rect x="1547.6" y="885.7" class="st18" width="15.9" height="3.6"/>
			<rect x="1747.6" y="724.6" class="st18" width="14.2" height="3.6"/>
			<path class="st19" d="M1554.6,628.5v260.8h-7V765.4c-11.1-0.6-21.4-5.8-28.4-14.4c-1.8,0.5-3.7,0.8-5.7,0.8
				c-11,0-19.8-8.5-19.8-19.1c0-1.1,0.1-2.1,0.3-3.2c-7.3-3.9-12.1-11-12.1-19.1c0-5.1,2-10.1,5.4-13.9c-6.9-9.1-5.2-22.2,4-29.1
				c3.6-2.7,8-4.2,12.6-4.2c0.3,0,0.5,0,0.8,0c1.3-10.3,10.4-18.2,21.4-18.2c1.7,0,3.4,0.2,5.1,0.6
				C1535.9,636.6,1544.5,630.3,1554.6,628.5z"/>
		</g>
		<g id="Baum2">
			<rect x="396.5" y="881.8" class="st15" width="21.9" height="125.2"/>
			<path class="st11" d="M417.9,876.9v0.3c-0.1,6.8-3.4,13.1-8.8,17.1c-0.9,0.7-2,1.3-3,1.8c-0.1,0.1-0.2,0.1-0.3,0.2
				c-2.9,1.4-6.1,2.2-9.4,2.2c-8.3,0-15.9-4.8-19.4-12.3c-3.5-7.3-2.5-15.9,2.5-22.3l0,0c0.8-1,1.6-1.9,2.5-2.7
				c1.1-1,2.2-1.8,3.5-2.6l0,0c2.7-1.6,5.7-2.6,8.9-2.9c0.7-0.1,1.4-0.1,2.1-0.1c2.2,0,4.3,0.3,6.4,1c0.5,0.2,1,0.3,1.5,0.5
				s1,0.4,1.5,0.7c6.9,3.4,11.5,10.2,12,17.8l0,0c0,0.3,0,0.5,0,0.8l0,0C417.9,876.4,417.9,876.7,417.9,876.9z"/>
			<path class="st11" d="M396.5,864.7c0,3.8-1,7.5-2.9,10.7c-0.3,0.5-0.6,1.1-1,1.6l0,0l-0.5,0.7c-3.6,4.8-9,7.8-15,8.4
				c-0.7,0.1-1.4,0.1-2.1,0.1c-11.9,0-21.5-9.6-21.5-21.5l0,0c0-0.5,0-1,0-1.4c0.5-6.9,4.3-13.2,10.2-16.9c0.3-0.2,0.5-0.3,0.8-0.5
				l0,0c3.1-1.7,6.5-2.6,10.1-2.7c0.1,0,0.2,0,0.3,0c0.6,0,1.3,0,1.9,0.1c1.6,0.1,3.1,0.4,4.6,0.9c1.7,0.5,3.4,1.3,4.9,2.3
				c2.2,1.4,4.1,3.1,5.7,5.2c0.9,1.2,1.7,2.5,2.3,3.8c1,2,1.6,4.2,1.9,6.5l0,0c0.1,0.6,0.1,1.2,0.1,1.8
				C396.5,864.1,396.5,864.4,396.5,864.7z"/>
			<path class="st11" d="M377,841.9c0,0.5,0,1,0,1.4c0,0.7-0.1,1.4-0.3,2.1l0,0c-0.1,0.4-0.1,0.7-0.2,1c-0.9,4.3-3.2,8.2-6.4,11.2
				l0,0c-4,3.7-9.2,5.7-14.5,5.7c-0.6,0-1.3,0-1.9-0.1c-11.8-1.1-20.5-11.5-19.5-23.3c0.8-8.7,6.8-16.1,15.2-18.7
				c6.9-2.1,14.5-0.5,20,4.2l0,0c0.4,0.4,0.9,0.7,1.3,1.1l0,0c0.3,0.3,0.5,0.5,0.8,0.8C375,831.4,377,836.6,377,841.9z"/>
			<path class="st11" d="M415.6,801c0,1.8-0.2,3.5-0.7,5.3c-0.1,0.5-0.3,1-0.4,1.5c-0.8,2.3-2,4.5-3.5,6.4c-0.6,0.8-1.3,1.6-2.1,2.3
				l-0.4,0.4c-0.8,0.8-1.7,1.5-2.6,2.1h-0.1c-5.6,3.6-12.5,4.5-18.8,2.3c-1.6-0.6-3.2-1.4-4.6-2.3c-1.9-1.2-3.6-2.8-5-4.6
				c-7.4-9.3-5.9-22.8,3.4-30.1c1.6-1.3,3.5-2.4,5.4-3.2c2-0.8,4.2-1.3,6.3-1.5c0.5,0,1.1-0.1,1.6-0.1c3.7,0,7.3,0.9,10.5,2.7
				c0.4,0.2,0.8,0.5,1.3,0.8C411.9,787,415.6,793.8,415.6,801z"/>
			<circle class="st11" cx="407.4" cy="795.1" r="21.5"/>
			<path class="st11" d="M391.8,826c0,3.8-1,7.5-2.9,10.8c-0.7,1.1-1.4,2.2-2.3,3.2c-2.5,2.9-5.6,5-9.2,6.3c-0.3,0.1-0.7,0.2-1,0.3
				c-3.8,1.1-7.9,1.2-11.7,0.2c-0.3-0.1-0.7-0.2-1-0.3c-11.3-3.6-17.5-15.7-13.9-27c2.8-8.9,11.1-14.9,20.4-14.9
				c0.9,0,1.8,0.1,2.6,0.2c4.4,0.5,8.4,2.4,11.7,5.3c0.6,0.6,1.2,1.1,1.7,1.8c2.6,3,4.4,6.6,5.1,10.5c0,0.1,0,0.1,0,0.2
				C391.6,823.7,391.7,824.8,391.8,826z"/>
			<circle class="st11" cx="391.8" cy="830.3" r="21.5"/>
			<circle class="st11" cx="385.9" cy="843.3" r="21.5"/>
			<circle class="st11" cx="403.5" cy="859.5" r="21.5"/>
			<circle class="st11" cx="407.8" cy="826.5" r="21.5"/>
			<circle class="st11" cx="414" cy="876.1" r="21.5"/>
			<circle class="st11" cx="435.5" cy="863.9" r="21.5"/>
			<circle class="st11" cx="455" cy="841.1" r="21.5"/>
			<circle class="st11" cx="416.4" cy="800.2" r="21.5"/>
			<path class="st11" d="M424.5,794.3c0,5.2-1.9,10.2-5.3,14.1c-0.5,0.6-1.1,1.2-1.8,1.8c-2.9,2.6-6.5,4.4-10.3,5.2
				c-0.4,0.1-0.9,0.2-1.4,0.2c-0.9,0.1-1.8,0.2-2.7,0.2c-0.5,0-1.1,0-1.6-0.1c-0.1,0-0.2,0-0.3,0c-3.4-0.3-6.7-1.4-9.5-3.2
				c-1.2-0.7-2.3-1.6-3.3-2.6c-0.2-0.2-0.4-0.4-0.6-0.6c-8.2-8.5-8-22.1,0.5-30.3c4-3.9,9.3-6,14.9-6c0.9,0,1.8,0.1,2.7,0.2
				c1.2,0.1,2.3,0.4,3.5,0.7C418.3,776.5,424.5,784.8,424.5,794.3L424.5,794.3z"/>
			<circle class="st11" cx="440.1" cy="825.2" r="21.5"/>
			<circle class="st11" cx="424.5" cy="842.4" r="21.5"/>
			<circle class="st11" cx="407" cy="858.7" r="21.5"/>
			<circle class="st11" cx="402.7" cy="825.7" r="21.5"/>
			<path class="st11" d="M372.7,814.8c0,3.8-1.1,7.6-3.3,10.8l0,0c-3.6,5.3-9.6,8.5-16,8.5c-1,0-2-0.1-3-0.2
				c-10.5-1.6-17.8-11.5-16.1-22.1c1.6-10.5,11.5-17.8,22.1-16.1c5.5,0.9,10.4,4.1,13.4,8.9c1.5,2.4,2.5,5.1,2.8,7.9
				C372.6,813.2,372.7,814,372.7,814.8z"/>
			<path class="st11" d="M398.7,790.4c0,4-1.3,7.9-3.8,11.1c-1.5,2.1-3.4,3.9-5.5,5.3c-0.8,0.6-1.6,1.1-2.5,1.6
				c-0.8,0.5-1.7,0.9-2.6,1.3c-2.8,1.2-5.7,2-8.6,2.4c-1.1,0.1-2.1,0.2-3.3,0.3h-1.1c-5,0-9.9-1.1-14.4-3.3
				c-5.2-2.4-9.3-6.7-11.6-12c-0.9-2.1-1.3-4.4-1.3-6.7c0-11.9,11.7-21.6,26.3-22c0.3,0,0.6,0,1,0c7.5-0.1,14.8,2.5,20.5,7.5
				c0.8,0.7,1.5,1.5,2.2,2.3c0.4,0.4,0.7,0.9,1,1.4c0.6,0.8,1.1,1.7,1.5,2.6c0.8,1.6,1.4,3.3,1.7,5c0.1,0.3,0.1,0.7,0.1,1
				c0.1,0.6,0.1,1.1,0.1,1.7C398.7,790,398.7,790.2,398.7,790.4z"/>
			<path class="st11" d="M415.6,770.5c0,1.5-0.3,3-0.8,4.5c-0.1,0.4-0.3,0.7-0.4,1.1c-0.5,1.1-1.1,2.1-1.8,3.1
				c-1,1.3-2.2,2.5-3.5,3.5c-0.6,0.5-1.3,1-2,1.4c-2.4,1.4-4.9,2.4-7.6,3l-1,0.2l-0.8,0.1c-1.5,0.2-3.1,0.4-4.7,0.4
				c-1.9,0-3.7-0.2-5.5-0.5c-1.4-0.3-2.8-0.6-4.2-1.1c-1.1-0.4-2.1-0.8-3.1-1.3c-6-3.1-9.9-8.3-9.9-14.2c0-0.7,0.1-1.3,0.2-2
				c1.3-8.6,10.9-15.2,22.5-15.2c5.8-0.1,11.5,1.7,16.1,5.1c1.3,1,2.5,2.2,3.5,3.6C414.6,764.4,415.6,767.4,415.6,770.5z"/>
			<ellipse class="st11" cx="419.8" cy="781.5" rx="23.1" ry="20.5"/>
			<ellipse class="st11" cx="446.6" cy="799.3" rx="23.6" ry="19.5"/>
			<ellipse class="st11" cx="469.3" cy="815" rx="23.9" ry="22.2"/>
			<rect x="396.5" y="1007" class="st18" width="21.9" height="3.2"/>
			<path class="st19" d="M409.1,758.4v251.8h-12.6V898.4c-8.3,0-15.9-4.8-19.4-12.3c-0.7,0.1-1.4,0.1-2.1,0.1
				c-11.9,0-21.5-9.6-21.5-21.5l0,0c0-0.5,0-1,0-1.4c-11.8-1-20.5-11.5-19.5-23.3c0.4-4.5,2.2-8.7,5.1-12.1
				c-7.3-7.8-6.9-20,0.9-27.3c1.6-1.5,3.4-2.7,5.3-3.5c-0.9-2.1-1.3-4.4-1.3-6.7c0-11.9,11.7-21.6,26.3-22
				c1.3-8.6,10.9-15.2,22.5-15.2C398.7,753.2,404.4,755,409.1,758.4z"/>
		</g>
		<g id="Baum2-2">
			<rect x="34.7" y="696.2" class="st15" width="22.9" height="131"/>
			<path class="st11" d="M57.2,691v0.3c0,1.7-0.2,3.3-0.6,4.9c-0.3,1.3-0.7,2.5-1.2,3.7c-1.6,3.8-4.3,7.2-7.8,9.5
				c-0.9,0.6-1.8,1.2-2.8,1.7l0,0l-0.3,0.2c-11.1,5.4-24.6,0.8-30-10.4c0-0.1-0.1-0.1-0.1-0.2c-3.6-7.6-2.6-16.7,2.6-23.3l0,0
				c0.8-1,1.7-2,2.7-2.9l0,0c1.1-1,2.3-1.9,3.6-2.7l0,0c2.8-1.7,6-2.7,9.3-3c0.7-0.1,1.4-0.1,2.2-0.1c2.3,0,4.5,0.3,6.7,1l0,0
				c0.5,0.2,1,0.3,1.5,0.6s1,0.4,1.6,0.7c1.1,0.5,2.1,1.1,3.1,1.8c0.9,0.6,1.7,1.2,2.4,1.9c1.2,1.1,2.2,2.3,3.1,3.6l0,0
				c2.3,3.3,3.7,7.2,4,11.3l0,0c0,0.3,0,0.5,0,0.8l0,0C57.2,690.5,57.2,690.8,57.2,691z"/>
			<path class="st11" d="M34.7,678.3c0,3.6-0.9,7.1-2.5,10.3c-0.2,0.3-0.3,0.6-0.5,0.9c-0.3,0.6-0.7,1.1-1,1.6l0,0
				c-0.2,0.2-0.3,0.5-0.5,0.7c-3.8,5-9.5,8.2-15.7,8.8c-0.4,0-0.8,0.1-1.2,0.1s-0.6,0-0.9,0c-0.5,0-1,0-1.5-0.1
				c-3.3-0.2-6.6-1.2-9.5-2.8c-0.3-0.2-0.7-0.4-1-0.6v-37.9l0.3-0.2l0,0l0.7-0.4l0.2-0.1l0,0c2.9-1.6,6-2.5,9.3-2.7
				c0.4,0,0.8,0,1.2,0c0.1,0,0.2,0,0.3,0c0.7,0,1.3,0,2,0.1c1.6,0.1,3.3,0.5,4.8,1c1.8,0.6,3.5,1.4,5.1,2.4c0.7,0.5,1.4,1,2.1,1.5
				l0,0c1.4,1.2,2.7,2.5,3.8,3.9c1,1.2,1.8,2.6,2.4,4c1,2.1,1.7,4.4,2,6.8l0,0c0.1,0.6,0.1,1.2,0.2,1.8l0,0
				C34.7,677.6,34.7,678,34.7,678.3z"/>
			<path class="st11" d="M14.3,654.4c0,0.5,0,1,0,1.5c0,0.8-0.1,1.5-0.3,2.2l0,0c-0.1,0.4-0.1,0.7-0.2,1.1c-0.5,2.6-1.6,5.1-3,7.3
				c-1,1.6-2.2,3.1-3.6,4.3l0,0c-1.7,1.6-3.7,2.9-5.8,3.9c-0.3,0.2-0.7,0.3-1,0.4v-41.6l1,0.4c2.4,1.1,4.6,2.6,6.4,4.5l0,0
				c0.3,0.3,0.5,0.5,0.8,0.8s0.5,0.5,0.7,0.8c0.5,0.7,1.1,1.4,1.5,2.1C13.1,645.9,14.3,650.1,14.3,654.4z"/>
			<path class="st11" d="M54.7,611.7c0,1.9-0.2,3.7-0.7,5.5c-0.1,0.5-0.3,1.1-0.5,1.6c-0.8,2.4-2,4.7-3.5,6.7
				c-0.7,0.9-1.4,1.7-2.2,2.4l-0.4,0.4c-0.9,0.8-1.8,1.5-2.8,2.2h-0.1c-5.9,3.8-13.1,4.7-19.7,2.4c-1.7-0.6-3.3-1.4-4.9-2.4
				c-2-1.3-3.7-2.9-5.2-4.8c-7.7-9.7-6.1-23.8,3.6-31.5c1.7-1.4,3.6-2.5,5.7-3.3c2.1-0.9,4.4-1.4,6.6-1.5c0.6,0,1.1-0.1,1.7-0.1
				c3.8,0,7.6,1,10.9,2.9c0.5,0.2,0.9,0.5,1.3,0.8C50.9,596.9,54.7,604.1,54.7,611.7z"/>
			<circle class="st11" cx="46.1" cy="605.5" r="22.5"/>
			<path class="st11" d="M29.8,637.7c0,3.9-1,7.8-3,11.3l0,0c-0.7,1.2-1.5,2.3-2.4,3.3c-2.6,3-5.9,5.3-9.6,6.6
				c-0.3,0.1-0.7,0.2-1,0.3l0,0c-1,0.3-2,0.5-3,0.7c-1.1,0.2-2.2,0.2-3.4,0.3c-2,0-3.9-0.3-5.8-0.8l-0.3-0.1
				c-0.2-0.1-0.5-0.1-0.7-0.2l0,0L0.2,659v-42.5c0.3-0.1,0.7-0.2,1-0.3c2-0.6,4.1-0.9,6.1-0.8c0.9,0,1.9,0.1,2.8,0.2l0.6,0.1
				c4.3,0.6,8.4,2.5,11.6,5.4l0,0c0.6,0.6,1.2,1.2,1.8,1.8c1.1,1.3,2.1,2.7,2.9,4.2l0,0c0.4,0.8,0.8,1.6,1.1,2.4l0,0
				c0.6,1.4,1,2.9,1.2,4.4c0,0.1,0,0.1,0,0.2l0,0C29.7,635.3,29.8,636.5,29.8,637.7z"/>
			<circle class="st11" cx="29.8" cy="642.2" r="22.5"/>
			<circle class="st11" cx="23.7" cy="655.8" r="22.5"/>
			<circle class="st11" cx="42" cy="672.8" r="22.5"/>
			<circle class="st11" cx="46.5" cy="638.3" r="22.5"/>
			<circle class="st11" cx="53.1" cy="690.2" r="22.5"/>
			<circle class="st11" cx="75.5" cy="677.4" r="22.5"/>
			<circle class="st11" cx="95.9" cy="653.6" r="22.5"/>
			<circle class="st11" cx="55.5" cy="610.8" r="22.5"/>
			<path class="st11" d="M64.1,604.6c0,5.4-2,10.7-5.5,14.8c-0.6,0.7-1.2,1.3-1.8,1.9c-3,2.8-6.8,4.6-10.8,5.4
				c-0.5,0.1-0.9,0.2-1.4,0.2c-0.9,0.1-1.9,0.2-2.9,0.2c-0.6,0-1.1,0-1.7-0.1c-0.1,0-0.2,0-0.3,0c-3.6-0.3-7-1.5-10-3.4
				c-1.2-0.8-2.4-1.7-3.5-2.7c-0.2-0.2-0.4-0.4-0.6-0.6c-8.6-8.9-8.4-23.1,0.5-31.7c4.2-4.1,9.8-6.3,15.6-6.3c1,0,1.9,0.1,2.9,0.2
				c1.2,0.1,2.4,0.4,3.6,0.8C57.6,586,64.1,594.7,64.1,604.6L64.1,604.6z"/>
			<circle class="st11" cx="80.4" cy="636.9" r="22.5"/>
			<circle class="st11" cx="64.1" cy="655" r="22.5"/>
			<circle class="st11" cx="45.7" cy="672" r="22.5"/>
			<circle class="st11" cx="41.2" cy="637.5" r="22.5"/>
			<ellipse class="st11" cx="79.8" cy="684.8" rx="33.6" ry="21.9"/>
			<circle class="st11" cx="109.4" cy="659.8" r="21"/>
			<ellipse class="st11" cx="88.2" cy="603" rx="30.2" ry="24"/>
			<circle class="st11" cx="109.7" cy="618.7" r="26.7"/>
			<ellipse class="st11" cx="120.3" cy="643.6" rx="25.4" ry="17.2"/>
			
				<ellipse transform="matrix(0.6673 -0.7448 0.7448 0.6673 -416.7694 242.8846)" class="st11" cx="63.5" cy="587.9" rx="15.1" ry="21.5"/>
			<path class="st11" d="M41.2,599c0,2.6-1.4,5.1-4,7.3c-1.3,1.1-2.6,2-4.1,2.8c-0.4,0.2-0.8,0.4-1.2,0.6c-2.3,1.1-4.7,2-7.1,2.7
				c-1.2,0.3-2.5,0.7-3.8,1c-3.4,0.7-6.8,1.2-10.3,1.4H10l0,0c-1.5,0.1-3.1,0.1-4.7,0.1c-1.4,0-2.7,0-4.1-0.1c-0.3,0-0.7,0-1-0.1
				v-31.7h1c1.3-0.1,2.7-0.1,4.1-0.1c1.8,0,3.6,0.1,5.4,0.2c5.9,0.3,11.8,1.5,17.4,3.5c1.2,0.4,2.4,1,3.6,1.5l0,0
				c0.7,0.3,1.4,0.7,2,1.1l0,0c2.4,1.3,4.5,3.1,6.1,5.4l0,0C40.7,595.9,41.2,597.5,41.2,599z"/>
			<path class="st11" d="M33.1,616.3c0,0.1,0,0.2,0,0.2c0,1.1-0.1,2.3-0.3,3.4c0,0.3-0.1,0.5-0.2,0.8c-0.3,1.3-0.7,2.5-1.2,3.7
				c-0.8,1.8-1.8,3.5-3.1,5l0,0c-1,1.2-2.1,2.4-3.3,3.4c-0.1,0.1-0.2,0.2-0.3,0.3c-0.1,0.1-0.2,0.1-0.3,0.2
				c-1.7,1.4-3.6,2.6-5.6,3.6l0,0c-2.6,1.3-5.3,2.2-8.1,2.8c-0.5,0.1-1,0.2-1.5,0.3s-1.2,0.2-1.8,0.3H7.3c-1.4,0.2-2.9,0.2-4.3,0.3
				c-0.6,0-1.2,0-1.8,0c-0.3,0-0.7,0-1-0.1v-48.4l1-0.1c0.6,0,1.2,0,1.8,0c2.6,0,5.1,0.3,7.7,0.8c2.3,0.5,4.5,1.2,6.6,2.1
				c1.1,0.5,2.3,1.1,3.3,1.7c1.4,0.8,2.7,1.7,3.9,2.7c2.8,2.3,5.1,5.2,6.6,8.4c0.3,0.6,0.6,1.3,0.8,2
				C32.7,611.9,33.1,614.1,33.1,616.3z"/>
			<path class="st11" d="M58.8,584.7c0,0.7,0,1.4-0.2,2.1c-0.1,0.6-0.2,1.2-0.3,1.7c-0.1,0.3-0.1,0.5-0.2,0.8
				c-1.1,3.4-3.1,6.5-5.8,8.8c-0.4,0.4-0.9,0.8-1.3,1.2l0,0c-1.1,0.9-2.2,1.7-3.4,2.5c-3.2,2-6.7,3.5-10.3,4.6
				c-1.3,0.4-2.6,0.7-3.9,1c-0.7,0.2-1.5,0.3-2.2,0.4c-2.4,0.4-4.8,0.7-7.3,0.7c-0.7,0-1.4,0-2,0s-1.5,0-2.3,0l0,0
				c-3-0.1-5.9-0.5-8.8-1.1l-0.5-0.1c-3.1-0.6-6.1-1.6-9-2.8c-0.3-0.1-0.7-0.3-1-0.5v-38.6c0.3-0.2,0.7-0.3,1-0.5
				c3-1.3,6.2-2.3,9.5-3c2.5-0.5,5-0.8,7.6-1h0.1c1.1-0.1,2.3-0.1,3.5-0.1c2.9,0,5.8,0.2,8.6,0.7l0,0c6,0.9,11.9,2.9,17.1,6.1
				c1.5,0.9,2.9,2,4.2,3.1C56.2,574.6,58.8,579.5,58.8,584.7z"/>
			<rect x="34.7" y="827.2" class="st18" width="22.9" height="6.2"/>
			<path class="st19" d="M47.6,567.6v265.7H34.7V713.5c-8.7,0-16.6-5-20.3-12.9c-0.4,0-0.8,0.1-1.2,0.1s-0.6,0-0.9,0
				c-0.5,0-1,0-1.5-0.1c-3.3-0.2-6.6-1.2-9.5-2.8c-0.3-0.2-0.7-0.4-1-0.6V565.3c0.3-0.2,0.7-0.3,1-0.5c3-1.3,6.2-2.3,9.5-3
				c2.5-0.5,5-0.8,7.6-1h0.1c1.1-0.1,2.3-0.1,3.5-0.1c2.9,0,5.8,0.2,8.6,0.7l0,0C36.5,562.3,42.3,564.4,47.6,567.6z"/>
		</g>
		<g id="Baum-5">
			<rect x="1747.6" y="607" class="st15" width="14.2" height="117.4"/>
			<path class="st11" d="M1794,602.2c0,0.4,0,0.8,0,1.2l0,0c0,0.6-0.1,1.2-0.2,1.8l0,0c-0.7,5.2-3,10-6.6,13.8
				c-5.9,6.4-15,10.7-25.4,11.3c-0.8,0-1.6,0.1-2.4,0.1c-1.1,0-2.2,0-3.3-0.1c-0.5,0-1-0.1-1.6-0.1c-2.4-0.3-4.7-0.7-7-1.4
				c-12.4-3.7-21.5-12.9-22.6-24c-0.1-0.8-0.1-1.6-0.1-2.4c0-2.3,0.3-4.7,1-6.9c2-6,5.9-11.1,11.2-14.6c0,0,0.1-0.1,0.1-0.1
				c1.8-1.2,3.6-2.2,5.6-3.1l0,0c1.1-0.5,2.2-0.9,3.3-1.3c1-0.3,2-0.7,3.1-0.9c1.8-0.5,3.6-0.8,5.4-1c0.5-0.1,1-0.1,1.6-0.2
				c1.1-0.1,2.2-0.1,3.3-0.1s2,0,3.1,0.1c0.1,0,0.1,0,0.2,0l0,0c1.5,0.1,3.1,0.3,4.6,0.6l0.7,0.1l0,0c5.3,1.1,10.4,3.3,14.8,6.5l0,0
				c3.1,2.2,5.7,5.1,7.7,8.3C1792.7,593.5,1794,597.8,1794,602.2z"/>
			<path class="st11" d="M1749.6,570.8c0,1.5-0.2,3.1-0.5,4.6c-0.1,0.4-0.2,0.8-0.3,1.2l0,0c-1.1,3.8-3,7.3-5.8,10.1l0,0
				c-0.3,0.3-0.6,0.6-1,1l-0.5,0.4c-4.4,3.9-9.9,6.5-15.8,7.3c-1.7,0.3-3.5,0.4-5.2,0.4c-5.6,0-11.1-1.4-15.9-4.1
				c-7.9-4.5-13.1-12.2-13.1-20.9c0.1-7.2,3.5-13.9,9.2-18.2c5.6-4.4,12.6-6.8,19.8-6.7h0.3c2.8,0,5.5,0.4,8.2,1.1l0,0
				c5.9,1.5,11.2,4.8,15.2,9.5l0,0c0.5,0.6,1,1.2,1.4,1.8c0.5,0.8,1,1.5,1.4,2.4l0,0c0.5,1,1,2.1,1.4,3.2
				C1749.2,566,1749.6,568.4,1749.6,570.8z"/>
			<ellipse class="st11" cx="1751.7" cy="573.3" rx="15.7" ry="19.2"/>
			<ellipse class="st11" cx="1774.5" cy="581.2" rx="31.9" ry="30.1"/>
			<ellipse class="st11" cx="1792.2" cy="604.7" rx="17.7" ry="14.9"/>
			<ellipse class="st11" cx="1750.5" cy="549.7" rx="29.8" ry="26.9"/>
			<path class="st11" d="M1755.8,538c0,1.8-0.2,3.7-0.6,5.4c-0.2,0.8-0.4,1.6-0.7,2.3c-1,3.1-2.7,6-4.8,8.4l0,0
				c-0.8,0.9-1.6,1.8-2.5,2.7c-0.5,0.5-1,0.9-1.6,1.3s-1.2,0.9-1.8,1.3l0,0c-1.6,1.1-3.3,2-5,2.8c-4.1,1.8-8.5,2.6-12.9,2.6h-0.1
				c-10.5,0-19.8-4.9-25-12.3c-3.1-4.2-4.7-9.3-4.8-14.5c0-14.8,13.4-26.9,29.8-26.9c1,0,1.9,0,2.9,0.1c3.1,0.3,6.1,1,9,2.1
				c5,1.9,9.4,5.2,12.7,9.4l0,0c1,1.3,1.9,2.7,2.6,4.2l0,0c0.5,1.1,1,2.2,1.4,3.3C1755.4,532.7,1755.8,535.4,1755.8,538z"/>
			<ellipse class="st11" cx="1755.8" cy="534.8" rx="29.8" ry="26.9"/>
			<ellipse class="st11" cx="1774.5" cy="545.8" rx="29.8" ry="26.9"/>
			<path class="st11" d="M1788,516.7c0,1.6-0.2,3.3-0.5,4.9l0,0c-0.5,2.3-1.3,4.6-2.4,6.6c-0.1,0.1-0.1,0.2-0.2,0.4l0,0
				c-1.9,3.5-4.6,6.5-7.8,8.8l0,0c-4.7,3.5-10.3,5.5-16.1,6c-0.9,0.1-1.9,0.1-2.9,0.1c-0.7,0-1.3,0-2-0.1c-0.3,0-0.6,0-0.9-0.1
				l-0.7-0.1c-3.3-0.3-6.4-1.2-9.4-2.5l0,0c-5.7-2.4-10.5-6.6-13.6-12l0,0c-1.1-1.9-1.9-3.9-2.4-6l0,0c-1-3.8-1.1-7.8-0.2-11.7
				c2.6-11.2,12.9-19.9,25.7-21.2c0.5-0.1,1-0.1,1.6-0.1s1.3-0.1,2-0.1C1774.6,489.8,1788,501.8,1788,516.7z"/>
			<ellipse class="st11" cx="1788" cy="555" rx="29.8" ry="26.9"/>
			<ellipse class="st11" cx="1792.2" cy="576.5" rx="29.8" ry="26.9"/>
			<ellipse class="st11" cx="1788" cy="543.6" rx="29.8" ry="26.9"/>
			<path class="st11" d="M1742.6,590.6c0,7.4-7.8,13.5-17.6,14c-0.4,0-0.9,0-1.3,0c-10,0-18.2-5.8-18.9-13c0-0.3-0.1-0.7-0.1-1
				c0-7.8,8.5-14.1,18.9-14.1c4.8-0.1,9.5,1.4,13.5,4.2c0.1,0.1,0.2,0.1,0.2,0.2l0,0c2.2,1.7,3.9,4,4.8,6.6c0.1,0.4,0.2,0.8,0.3,1.2
				l0,0C1742.5,589.3,1742.5,590,1742.6,590.6z"/>
			<path class="st19" d="M1754.6,490v234.4h-7v-95.8c-12.4-3.7-21.5-12.9-22.6-24c-0.4,0-0.9,0-1.3,0c-10,0-18.2-5.8-18.9-13
				c-7.9-4.5-13.1-12.2-13.1-20.9c0.1-7.2,3.5-13.9,9.2-18.2c-3.1-4.2-4.7-9.3-4.8-14.5c0-14.8,13.4-26.9,29.8-26.9
				c1,0,1.9,0,2.9,0.1C1731.4,500,1741.8,491.4,1754.6,490z"/>
		</g>
		<rect x="1676.8" y="748.3" class="st6" width="153.8" height="87.7"/>
		<polygon class="st7" points="1865,755.2 1643.3,755.2 1676.8,710.3 1829.6,710.3 		"/>
		<path class="st8" d="M1700.6,786.1h11.5c7.3,0,13.3,5.9,13.3,13.3l0,0v17.3l0,0h-38l0,0v-17.3
			C1687.4,792,1693.3,786.1,1700.6,786.1L1700.6,786.1L1700.6,786.1z"/>
		<path class="st8" d="M1748.1,786.1h11.5c7.3,0,13.3,5.9,13.3,13.3l0,0v17.3l0,0h-38l0,0v-17.3
			C1734.9,792,1740.8,786.1,1748.1,786.1z"/>
		<rect x="1780.9" y="779.2" class="st9" width="41.4" height="56.3"/>
		<g id="Busch-8">
			<path class="st11" d="M1717.5,848.3c0,2.5-2.1,4.6-5,5.2l0,0c-0.5,0.1-1.1,0.2-1.7,0.2h-115.3c-0.4,0-0.7,0-1.1-0.1
				c-3.2-0.4-5.6-2.6-5.6-5.3c0-0.3,0-0.6,0.1-0.9c-3.9-2.3-6.2-6.5-6.3-11c0.1-5.1,3.1-9.7,7.8-11.9c2.4-1.2,5-1.8,7.7-1.8
				c1.9,0,3.8,0.4,5.7,1c0.7-0.9,1.4-1.8,2.2-2.6c1.6-1.5,3.4-2.8,5.3-3.8c0.7-0.4,1.5-0.7,2.3-1.1c2.9-1.2,5.9-2,9.1-2.5
				c0.9-0.2,1.9-0.3,2.9-0.3s2-0.1,3-0.1h0.4c1.4,0,2.8,0.1,4.1,0.2c3.5,0.3,7,1.1,10.3,2.3c0.7,0.3,1.3,0.5,2,0.8l0.4,0.2
				c0.4,0.2,0.9,0.4,1.3,0.7c1.6-2.7,3.7-5.1,6.4-6.8c2.5-1.7,5.4-2.7,8.4-3.2l0,0c0.9-0.1,1.8-0.2,2.7-0.2h0.7
				c5.5,0.2,10.7,2.6,14.4,6.7c0.8,0.9,1.5,1.9,2.2,3c0.8-0.1,1.7-0.2,2.5-0.2h0.4c4.6-0.1,9.1,1.7,12.5,4.8
				c1.5,1.4,2.8,3.2,3.6,5.1h1.1c1.6,0,3.3,0.1,4.9,0.4c7.2,1.3,12.4,5.5,12.4,10.4c0,2.6-1.4,4.9-3.8,6.8
				C1716.5,845.3,1717.4,846.7,1717.5,848.3z"/>
			<path class="st12" d="M1712.5,853.5v0.3c-0.1,1.2-1.2,2.1-2.4,2h-112.9c-0.7,0-1.4-0.2-1.9-0.6c-0.5-0.4-0.7-0.9-0.8-1.5v-0.1
				L1712.5,853.5z"/>
			<path class="st11" d="M1631,821.2L1631,821.2c0,2.4-0.6,4.7-1.7,6.7c-0.7,1.2-1.5,2.4-2.4,3.4l-0.6,0.6c-4.3,4-9.9,6.1-15.8,6
				c-9.9,0-18.2-5.7-20.1-13.3c-0.3-1.1-0.4-2.2-0.4-3.3c0-5.8,3.7-10.8,9.2-13.8c2.9-1.5,6.1-2.4,9.3-2.7c0.7-0.1,1.3-0.1,2-0.1
				c2.7,0,5.3,0.4,7.8,1.2c0.8,0.3,1.7,0.6,2.4,1c2.2,1,4.2,2.4,5.8,4.1c0.7,0.7,1.4,1.5,1.9,2.4c0.5,0.7,0.9,1.5,1.3,2.3
				C1630.6,817.4,1631,819.3,1631,821.2z"/>
			<path class="st11" d="M1639,801.8L1639,801.8c0,0.3,0,0.6,0,0.8c-0.4,4.3-2.6,8.2-6,10.8c-1,0.8-2.1,1.5-3.2,2.1
				c-1.4,0.7-2.8,1.3-4.3,1.8l-0.6,0.2c-2.1,0.5-4.2,0.8-6.4,0.8c-1.6,0-3.2-0.2-4.8-0.5c-0.8-0.2-1.6-0.4-2.4-0.6
				c-2.5-0.7-4.8-1.9-6.9-3.5c-2.3-1.7-4.1-3.9-5.2-6.4c-0.8-1.8-1.2-3.7-1.2-5.6c0-9.2,9.2-16.6,20.5-16.6c5.8-0.1,11.5,2,15.8,6
				c2.6,2.4,4.2,5.6,4.6,9.1C1639,800.8,1639,801.3,1639,801.8z"/>
			<ellipse class="st11" cx="1624.9" cy="814.7" rx="20.5" ry="16.6"/>
			<ellipse class="st11" cx="1634.1" cy="816.5" rx="20.5" ry="16.6"/>
			<ellipse class="st11" cx="1645.4" cy="817.6" rx="20.5" ry="16.6"/>
			<ellipse class="st11" cx="1676.7" cy="823.4" rx="20.5" ry="16.6"/>
			<ellipse class="st11" cx="1686.4" cy="829.7" rx="20.5" ry="16.6"/>
			<ellipse class="st11" cx="1663.7" cy="816.5" rx="20.5" ry="16.6"/>
			<path class="st11" d="M1661.8,806.8c0,0.3,0,0.5,0,0.8c-0.2,2.5-1,4.9-2.3,6.9l-0.1,0.1c-0.2,0.3-0.4,0.7-0.7,1
				c-1.2,1.6-2.7,3-4.4,4.1c-2.8,1.8-6,3-9.3,3.5c-0.8,0.1-1.7,0.2-2.5,0.2c-0.4,0-0.8,0-1.2,0c-3.5,0-7-0.7-10.3-2.2
				c-2-0.9-3.9-2.2-5.5-3.8l-0.6-0.6c-0.9-0.9-1.6-1.9-2.3-3c-1.2-2.1-1.9-4.5-1.9-6.9v-0.1c0-1.1,0.1-2.1,0.4-3.2
				c0.5-2,1.4-3.8,2.6-5.5c2.7-3.4,6.4-5.9,10.5-7c2.3-0.7,4.6-1,7-1c7.8,0,14.6,3.5,18.1,8.8c0.3,0.4,0.5,0.8,0.7,1.2
				C1661.2,802.2,1661.8,804.5,1661.8,806.8z"/>
			<path class="st17" d="M1659.3,799v56.8h-62.2c-0.7,0-1.4-0.2-1.9-0.6c-0.5-0.4-0.7-0.9-0.8-1.5c-3.2-0.4-5.6-2.6-5.6-5.3
				c0-0.3,0-0.6,0.1-0.9c-3.9-2.3-6.2-6.5-6.3-11c0.1-5.1,3.1-9.7,7.8-11.9c-0.3-1.1-0.4-2.2-0.4-3.3c0-5.8,3.7-10.8,9.2-13.8
				c-0.8-1.8-1.2-3.7-1.2-5.6c0-9.2,9.2-16.6,20.5-16.6c5.8-0.1,11.5,2,15.8,6c2.3-0.7,4.6-1,7-1
				C1649.1,790.3,1655.9,793.8,1659.3,799z"/>
		</g>
	</g>
</g>
</svg>
