<svg xmlns="http://www.w3.org/2000/svg" viewBox="0 0 16359.46 1080.31"><defs><style>.cls-1{fill:none;}.cls-2{fill:#76913c;}.cls-3{fill:#c49a57;}.cls-4{fill:#aa8748;}</style></defs><title>EbeneHügelRomVorne</title><g id="Ebene_2" data-name="Ebene 2"><g id="HilfsebeneZumExportieren"><polygon class="cls-1" points="16359.46 0 0 0 0.24 1079.99 16359.46 1080 16359.46 0"/></g><g id="EbeneHügelRomVorne"><path class="cls-2" d="M16359.46,803.58v276.58h-360.37v.15h-297.5v-.15h-2044.8l-1.09.15h-251.13l-1.09-.15h-390.92l-.26.15h-793a.48.48,0,0,1-.06-.15.09.09,0,0,1,0-.07h0s0,0,0,0l0-.08a77.13,77.13,0,0,1-5.9-29.32,74.38,74.38,0,0,1,1.67-15.69c.32-1.51.69-3,1.1-4.5a85.75,85.75,0,0,1,6.18-15.83l.26-.51c6.12-11.9,15.17-23.23,26.74-33.82l.12-.11q5.06-4.61,10.75-9c22.45-17.43,52.05-32.46,86.82-44.1a466.75,466.75,0,0,1,49.22-13.45c55.46-39.8,149.24-66,255.58-66q18.59,0,36.62,1.05h0q4.52-1.44,9.14-2.79t9.23-2.62c1.86-.5,3.73-1,5.61-1.48q19.37-5,40.28-8.69c1.89-.33,3.78-.65,5.69-1q13.85-2.28,28.27-3.92l5.73-.62q10.11-1.05,20.47-1.77,10.17-.72,20.56-1.1c1.92-.07,3.85-.14,5.78-.19q8.89-.26,17.93-.25,5.43,0,10.83.09c2,0,3.89.07,5.83.13q17.4.45,34.26,1.81h0q11.67.95,23,2.31,9.82,1.17,19.39,2.65c75.12,11.59,137.77,36.77,175.73,69.61,32.63-10.36,79.19-16.85,130.89-16.85,67.75,0,126.69,11.13,157,27.54a440.91,440.91,0,0,1,52.08-15.8h0c41-9.82,87.23-15.34,136.07-15.34a622.32,622.32,0,0,1,74.6,4.42c56.57-32,140.38-52.19,233.9-52.19q11.63,0,23,.42a555.75,555.75,0,0,1,71-11.61h0c55.51-26.1,131.09-42.16,214.4-42.16,54,0,104.82,6.76,149,18.63h0a596.59,596.59,0,0,1,79.69-8.41q12.52-.5,25.3-.5,7,0,14,.16c43.73.94,85.1,6.32,122.25,15.23q4.65-1.35,9.41-2.62a539.16,539.16,0,0,1,78.34-14.53q9.76-1.09,19.77-1.89,11-.87,22.23-1.36,6.46-.27,13-.42,7.31-.17,14.7-.17,13.8,0,27.3.58,12.64.54,25,1.57,17.89,1.48,35,4a514.54,514.54,0,0,1,70.5,15q11.08,3.21,21.56,6.87c15.74-2.92,32.09-5.23,49-6.87,19.7-1.92,40.08-2.93,61-2.93s41.25,1,61,2.93a563,563,0,0,1,66,10.32h0c13.17-2.89,26.83-5.35,40.9-7.33,15.62-2.21,31.75-3.83,48.29-4.81l3.67-.21q5.91-.31,11.87-.52h0c2.25-.08,4.51-.14,6.77-.2q7.68-.18,15.44-.18c4.09,0,8.15,0,12.2.12q15.22.29,30,1.27,8.16.55,16.19,1.31,3.07.27,6.14.6c50,5.16,95.51,16.23,133.32,31.62q16.74,2.48,32.62,5.83t30.76,7.51c28.43-33.07,92.06-56.1,166-56.1a328.44,328.44,0,0,1,71.72,7.68c26.57,6,49.88,15.12,68.13,26.57,32.37-15.54,75.54-25,123-25h.1q15.44,0,30.18,1.31c29-32.36,91.89-54.78,164.84-54.78q6.62,0,13.11.25C16275.16,752.27,16332,773.57,16359.46,803.58Z"/><rect class="cls-3" x="13546.06" y="848.91" width="182.33" height="10.73" transform="translate(539.94 4748.48) rotate(-20.14)"/><rect class="cls-3" x="13551.37" y="863.37" width="182.33" height="10.73" transform="translate(535.28 4751.19) rotate(-20.14)"/><rect class="cls-3" x="13549.79" y="881.37" width="182.33" height="10.73" transform="translate(528.99 4751.75) rotate(-20.14)"/><rect class="cls-4" x="13549.79" y="837.84" width="22.33" height="101.79"/><rect class="cls-4" x="13629.79" y="817.84" width="22.33" height="101.79"/><rect class="cls-4" x="13709.79" y="797.38" width="22.33" height="101.79"/><rect class="cls-3" x="14121.94" y="758.2" width="174.83" height="10.73" transform="translate(-1.23 23.24) rotate(-0.09)"/><rect class="cls-3" x="14121.96" y="773.6" width="174.83" height="10.73" transform="translate(-1.25 23.24) rotate(-0.09)"/><rect class="cls-3" x="14123.89" y="789.58" width="165.57" height="11.13"/><rect class="cls-4" x="14118.62" y="725.07" width="22.33" height="101.79"/><rect class="cls-4" x="14198.62" y="725.07" width="22.33" height="101.79"/><rect class="cls-4" x="14278.62" y="724.61" width="22.33" height="101.79"/><rect class="cls-3" x="15272.69" y="773.19" width="92.1" height="9.75" transform="translate(65.76 2395.42) rotate(-8.96)"/><rect class="cls-3" x="15274.87" y="787.01" width="92.1" height="9.75" transform="translate(63.64 2395.92) rotate(-8.96)"/><rect class="cls-3" x="15277.19" y="801.68" width="92.1" height="9.75" transform="translate(61.38 2396.46) rotate(-8.96)"/><rect class="cls-4" x="15272.31" y="751.26" width="22.33" height="101.79"/><rect class="cls-4" x="15352.31" y="741.26" width="22.33" height="101.79"/></g></g></svg>