<svg xmlns="http://www.w3.org/2000/svg" viewBox="0 0 16359.46 1080"><defs><style>.cls-1{fill:none;}.cls-2{fill:#a4e0de;}</style></defs><title>EbeneWolken1</title><g id="Ebene_2" data-name="Ebene 2"><g id="HilfsebeneZumExportieren"><polygon class="cls-1" points="16359.46 0 0 0 0.24 1079.99 16359.46 1080 16359.46 0"/></g><g id="EbeneWolken1"><g id="Wolken1"><path class="cls-2" d="M446.11,242.47c0-.23,0-.45,0-.68A54.43,54.43,0,0,0,379,188.88a44.79,44.79,0,0,0-78,7.33,51.71,51.71,0,0,0-73,73A52.28,52.28,0,0,0,298.31,346,56.81,56.81,0,0,0,401,328.83a48.86,48.86,0,1,0,45.12-86.36Z"/><path class="cls-2" d="M5586.42,200.87c0-.23,0-.45,0-.68a54.43,54.43,0,0,1,67.1-52.92,44.79,44.79,0,0,1,78,7.33,51.71,51.71,0,0,1,73,73,52.28,52.28,0,0,1-70.28,76.71,56.81,56.81,0,0,1-102.67-17.13,48.86,48.86,0,1,1-45.12-86.36Z"/><path class="cls-2" d="M14953.32,115.8c0-.23,0-.45,0-.68a54.43,54.43,0,0,0-67.1-52.92,44.79,44.79,0,0,0-78,7.33,51.71,51.71,0,0,0-73,73,52.28,52.28,0,0,0,70.28,76.71,56.81,56.81,0,0,0,102.67-17.13,48.86,48.86,0,1,0,45.12-86.36Z"/><path class="cls-2" d="M11706.74,234.22c0,.27-.07.53-.09.8-3.13,35.77,24.5,65.74,61.71,66.94a71.32,71.32,0,0,0,15.86-1.27c8.77,14.32,24.72,24,43.72,24.66a59.41,59.41,0,0,0,53.58-30.26,61.93,61.93,0,0,0,41.33,17.08c35.37,1.15,66.45-25.48,69.42-59.48a57.2,57.2,0,0,0-12.74-41.59,64.38,64.38,0,0,0,20.07-40.89c3-34.37-23.54-63.17-59.29-64.33a69.25,69.25,0,0,0-39.8,11.1c-10.94-18.88-31.56-31.79-56.23-32.59-32.91-1.07-62.43,19.76-72.67,48.85a59.41,59.41,0,0,0-31.28-9.88c-33.41-1.08-62.77,24.07-65.58,56.19C11672.63,203.55,11685.94,224.63,11706.74,234.22Z"/><path class="cls-2" d="M1654.89,275.48a24.37,24.37,0,0,0-13.28-41.07,24.38,24.38,0,0,0-32.12-16.17,24.37,24.37,0,0,0-37.81-4.67,30.21,30.21,0,0,0-20,2.4,24.37,24.37,0,0,0-37.58,6.12h-.21a35.06,35.06,0,0,0-26.12,58.46,35.44,35.44,0,0,0,26.45,59l1.13,0a31.89,31.89,0,0,0,32.05,4.68,38.48,38.48,0,0,0,46.37-4.4A24.38,24.38,0,0,0,1637.47,325q0-1.24-.12-2.46a33.07,33.07,0,0,0,3.07-1.74c.7.06,1.4.1,2.11.1a24.38,24.38,0,0,0,12.36-45.39Z"/><path class="cls-2" d="M3637.77,237.08c-7.16-2.74-13-6.95-15.72-12-5-9.16,1.68-18,15.11-21.06-.68-8.19,7.86-15.2,21.71-16.75a52.49,52.49,0,0,1,11.4,0c2.42-5.89,10-10.49,20.93-11.71a53,53,0,0,0,31.86,1.45,66.2,66.2,0,0,1,17.92.52c3.74-3.57,9.85-6.18,17.65-7,11.3-1.26,23.23,1.44,31.49,6.49l.26,0c24-2.68,50,7.07,58.07,21.79,3.74,6.83,2.95,13.53-1.37,19,9.55,4,17.21,9.8,21,16.69,8.14,14.88-4.94,29.14-29.22,31.85l-1.41.14c-5,4.11-12.47,7.08-21.86,8.13a69,69,0,0,1-15.94-.13c-5.78,3.6-13.51,6.17-22.74,7.2a85.18,85.18,0,0,1-36.58-4.13c-3.13,5-10.24,8.81-20,9.9-16.7,1.87-34.77-4.92-40.37-15.15a14.81,14.81,0,0,1-.87-1.88q-2.29-.38-4.52-.9c-.84.14-1.7.27-2.58.37-16.7,1.87-34.77-4.92-40.37-15.15C3627.88,247.91,3630.62,241.3,3637.77,237.08Z"/><path class="cls-2" d="M2293.12,107.91c-.06-.17-.14-.33-.2-.49-8-22.13,8.09-44.74,35.91-50.49A65,65,0,0,1,2341,55.59c4.35-10.21,14.83-18.48,29-21.42,17-3.51,34.5,1.59,45.11,11.89,6.29-7.79,16.16-13.78,28.43-16.32,26.45-5.47,54,7.15,61.64,28.18a31.58,31.58,0,0,1-3,27.93c10.1,5.23,18,13.24,21.55,23.09,7.68,21.27-7.77,43-34.51,48.52a63,63,0,0,1-31.71-1.65c-5.26,13.37-18.75,24.28-37.2,28.1-24.61,5.09-50.12-4.08-62.41-21a48.71,48.71,0,0,1-22,10.43c-25,5.17-51.05-6.75-58.23-26.62C2272.27,131.82,2279,116.74,2293.12,107.91Z"/><path class="cls-2" d="M13521.43,224.15c.06-.17.14-.33.2-.49,8-22.13-8.09-44.74-35.91-50.49a65,65,0,0,0-12.14-1.33c-4.35-10.21-14.83-18.48-29-21.42-17-3.51-34.5,1.59-45.11,11.89-6.29-7.79-16.16-13.78-28.43-16.32-26.45-5.47-54,7.15-61.64,28.18a31.58,31.58,0,0,0,3,27.93c-10.1,5.23-18,13.24-21.55,23.09-7.68,21.27,7.77,43,34.51,48.52a63,63,0,0,0,31.71-1.65c5.26,13.37,18.75,24.28,37.2,28.1,24.61,5.09,50.12-4.08,62.41-21a48.71,48.71,0,0,0,22,10.43c25,5.17,51.05-6.75,58.23-26.62C13542.28,248.06,13535.57,233,13521.43,224.15Z"/><path class="cls-2" d="M7441.41,206c-.06.17-.14.33-.2.49-8,22.13,8.09,44.74,35.91,50.49a65,65,0,0,0,12.14,1.33c4.35,10.21,14.83,18.48,29,21.42,17,3.51,34.5-1.59,45.11-11.89,6.29,7.79,16.16,13.78,28.43,16.32,26.45,5.47,54-7.15,61.64-28.18a31.58,31.58,0,0,0-3-27.93c10.1-5.23,18-13.24,21.55-23.09,7.68-21.27-7.77-43-34.51-48.52a63,63,0,0,0-31.71,1.65c-5.26-13.37-18.75-24.28-37.2-28.1-24.61-5.09-50.12,4.08-62.41,21a48.71,48.71,0,0,0-22-10.43c-25-5.17-51.05,6.75-58.23,26.62C7420.56,182.13,7427.26,197.2,7441.41,206Z"/><path class="cls-2" d="M4787,234.05a34.71,34.71,0,0,0-17.26-30,44,44,0,0,0-64.28-16.22,31.61,31.61,0,0,0-30.56-12.27,33.89,33.89,0,0,0-40.81,9.93,36.53,36.53,0,0,0-43.84,35.76,24.38,24.38,0,0,0,0,46.37c-.06.87-.1,1.75-.1,2.64a36.94,36.94,0,0,0,59,29.61,40.13,40.13,0,0,0,69.31-3.58,34.14,34.14,0,0,0,44.67-12.18,34.43,34.43,0,0,0,11.29-23.33A34.66,34.66,0,0,0,4787,234.05Z"/><path class="cls-2" d="M9570.68,262.49a38.75,38.75,0,0,0-3.57-6.77A32.44,32.44,0,0,0,9573,208c.07-.87.12-1.75.12-2.64a32.76,32.76,0,0,0-57.18-21.84,32.75,32.75,0,0,0-52.84-10.22,32.46,32.46,0,0,0-57.18-4,32.46,32.46,0,0,0-49.72,27.5c0,.16,0,.32,0,.48a32.44,32.44,0,0,0-38,32,32.31,32.31,0,0,0,5.7,18.37,23.91,23.91,0,0,0,.79,2.27c.3.75.65,1.49,1,2.21a32.46,32.46,0,0,0,22.4,53.12q1.26.74,2.59,1.4a32.49,32.49,0,0,0,42.11,29.71A270.45,270.45,0,0,1,9460,350a32.66,32.66,0,0,0,23.83-10.29,32.75,32.75,0,0,0,37.36-18.29,38.22,38.22,0,0,0,47.69-32.1C9573.59,281.63,9574.58,272.16,9570.68,262.49Z"/></g></g></g></svg>