<svg xmlns="http://www.w3.org/2000/svg" viewBox="0 0 16359.46 1080"><defs><style>.cls-1{fill:none;}.cls-2{fill:#9dedeb;}</style></defs><title>EbeneWolken2</title><g id="Ebene_2" data-name="Ebene 2"><g id="HilfsebeneZumExportieren"><polygon class="cls-1" points="16359.46 0 0 0 0.24 1079.99 16359.46 1080 16359.46 0"/></g><g id="EbeneWolken2"><g id="Wolken2"><path class="cls-2" d="M686.65,156c-.82-14.84-9.29-27.87-22.36-37A36.55,36.55,0,0,0,668,103.21c0-27.06-30.67-49-68.5-49a94.13,94.13,0,0,0-19,1.92C574.28,44.27,559,35.88,541.18,35.88c-16.71,0-31.16,7.36-38,18a42.77,42.77,0,0,0-10.73-1.37c-20.66,0-37.67,14.6-39.91,33.37-24,.78-43.26,19.19-43.26,41.8a39.39,39.39,0,0,0,.47,6c-13.32,8.87-21.36,21.24-20.62,34.5,1,17.77,17.45,32.22,40.36,38a23.31,23.31,0,0,0-1.25,7.49c0,15.21,14.77,27.54,33,27.54a37.11,37.11,0,0,0,20.64-6.06c14.8,8.24,34.23,12.71,55.25,11.55,30.18-1.67,55.83-14.49,68.61-32.08a94.58,94.58,0,0,0,12.24.12C657.59,212.64,688.33,186.33,686.65,156Z"/><path class="cls-2" d="M1475.68,144.7a33.46,33.46,0,0,0-6.52-19.51,18.08,18.08,0,0,0,2.53-9.12c0-10.15-8.86-18.81-21.31-22.18-.53-11.57-12-21-26.5-22.11-3.48-8.21-14-14.18-26.41-14.18a37.25,37.25,0,0,0-8.28.92c-4.61-5.16-15.89-8.81-29.09-8.81-12.32,0-23,3.18-28.08,7.8a35.42,35.42,0,0,0-9.93-1.39c-11.74,0-21.59,5.47-24.33,12.86a48.69,48.69,0,0,0-7.14-.53c-15.65,0-28.63,7.3-31.06,16.87a36.11,36.11,0,0,0-7.73-.83c-13.41,0-24.59,7.2-27.11,16.76a11.14,11.14,0,0,0-2.21-.23c-9.32,0-16.87,11.66-16.87,26a34.23,34.23,0,0,0,5,18.45,44.19,44.19,0,0,0,.81,4.84c-4.35,3.22-7,7.51-7,12.22,0,7.58,6.88,14.08,16.63,16.78,1,8.81,11.34,16,24.86,17.65,1.77,10.91,16.12,19.42,33.56,19.42a50.83,50.83,0,0,0,11.27-1.24,50,50,0,0,0,33.3,12.86,48.75,48.75,0,0,0,14.91-2.33,68.48,68.48,0,0,0,31.32,7.41c25,0,46.35-12.82,55.49-31.07a37.49,37.49,0,0,0,7.94.85c17,0,30.7-11.15,30.7-24.9a20.57,20.57,0,0,0-1.24-7C1471,163.74,1475.68,154.62,1475.68,144.7Z"/><path class="cls-2" d="M3413,156c.82-14.84,9.29-27.87,22.36-37a36.55,36.55,0,0,1-3.66-15.79c0-27.06,30.67-49,68.5-49a94.13,94.13,0,0,1,19,1.92c6.18-11.86,21.43-20.26,39.28-20.26,16.71,0,31.16,7.36,38,18a42.77,42.77,0,0,1,10.73-1.37c20.66,0,37.67,14.6,39.91,33.37,24,.78,43.26,19.19,43.26,41.8a39.39,39.39,0,0,1-.47,6c13.32,8.87,21.36,21.24,20.62,34.5-1,17.77-17.45,32.22-40.36,38a23.31,23.31,0,0,1,1.25,7.49c0,15.21-14.77,27.54-33,27.54a37.11,37.11,0,0,1-20.64-6.06c-14.8,8.24-34.23,12.71-55.25,11.55-30.18-1.67-55.83-14.49-68.61-32.08a94.58,94.58,0,0,1-12.24.12C3442,212.64,3411.3,186.33,3413,156Z"/><path class="cls-2" d="M2529.82,231.26c0-23.34,19.56-43.18,46.83-50.47a18.17,18.17,0,0,1-2.57-9.18c0-14.45,18.13-26.17,40.5-26.17,13.33,0,25.15,4.16,32.53,10.58a109.22,109.22,0,0,1,33-5c19.21,0,36.78,4.73,50.4,12.57a53.18,53.18,0,0,1,13.95-1.84c23.22,0,42,14.55,42,32.5a25.49,25.49,0,0,1-.2,3.19c20,7.33,33.54,21.55,33.54,37.91,0,14.07-10,26.57-25.57,34.45a21.74,21.74,0,0,1,2.45,9.95c0,15.11-16,27.36-35.78,27.36a46.77,46.77,0,0,1-6.15-.41c-12.07,11.08-30,18.12-50.13,18.12a79.76,79.76,0,0,1-34.23-7.5,57.47,57.47,0,0,1-63.28-22,29.45,29.45,0,0,1-9.22,1.48c-11.65,0-21.8-6.8-27.15-16.87C2546.61,271.49,2529.82,252.88,2529.82,231.26Z"/><path class="cls-2" d="M5031.62,93.11c0-11-7.52-20.47-18.34-24.78A23.45,23.45,0,0,0,4991.19,37a23.65,23.65,0,0,0-3,.19c-4.38-8.51-16.53-14.64-30.83-14.64-10.78,0-20.32,3.47-26.26,8.82C4924.9,24.52,4914.44,20,4902.6,20a41.18,41.18,0,0,0-23.5,7,41.6,41.6,0,0,0-19.17-4.42c-16.34,0-29.72,8.41-30.86,19.07-11.95,2.38-21.4,14.09-23.4,29a33.21,33.21,0,0,0-11.42,24.87,32.39,32.39,0,0,0,.39,5c-10.94,7.29-17.55,17.45-16.94,28.34.81,14.6,14.33,26.47,33.16,31.23a19.15,19.15,0,0,0-1,6.15c0,12.49,12.14,22.62,27.11,22.62a30.48,30.48,0,0,0,17-5c12.16,6.77,28.12,10.44,45.39,9.49,20-1.11,37.62-8.2,49.18-18.49a38,38,0,0,0,8.95,1.07c11.27,0,21.21-4.87,27.06-12.26,22.92-7.31,38.73-25,37.64-44.86a34.94,34.94,0,0,0-.76-5.47C5027.66,108.28,5031.62,101.1,5031.62,93.11Z"/><path class="cls-2" d="M6457.63,135.22a27.18,27.18,0,0,0-5.3-15.85,14.69,14.69,0,0,0,2.05-7.41c0-8.25-7.2-15.28-17.31-18-.43-9.4-9.71-17-21.53-18-2.82-6.67-11.36-11.52-21.46-11.52a30.27,30.27,0,0,0-6.72.75c-3.75-4.19-12.91-7.16-23.63-7.16-10,0-18.66,2.58-22.81,6.34a28.78,28.78,0,0,0-8.06-1.13c-9.54,0-17.54,4.45-19.76,10.45a39.56,39.56,0,0,0-5.8-.43c-12.72,0-23.26,5.93-25.23,13.7a29.34,29.34,0,0,0-6.28-.68c-10.9,0-20,5.85-22,13.61a9.05,9.05,0,0,0-1.79-.19c-7.57,0-13.71,9.47-13.71,21.15a27.81,27.81,0,0,0,4,15,35.9,35.9,0,0,0,.66,3.93c-3.53,2.62-5.69,6.1-5.69,9.93,0,6.16,5.59,11.44,13.51,13.64.79,7.16,9.21,13,20.2,14.34,1.44,8.87,13.1,15.78,27.27,15.78a41.3,41.3,0,0,0,9.15-1,40.64,40.64,0,0,0,27.06,10.45,39.6,39.6,0,0,0,12.12-1.89,55.64,55.64,0,0,0,25.45,6c20.27,0,37.66-10.41,45.08-25.24a30.46,30.46,0,0,0,6.45.69c13.77,0,24.94-9.06,24.94-20.23a16.71,16.71,0,0,0-1-5.7C6453.83,150.69,6457.63,143.28,6457.63,135.22Z"/><path class="cls-2" d="M10534.8,162.11c-.82-14.84-9.29-27.87-22.36-37a36.55,36.55,0,0,0,3.66-15.79c0-27.06-30.67-49-68.5-49a94.13,94.13,0,0,0-19,1.92c-6.18-11.86-21.43-20.26-39.28-20.26-16.71,0-31.16,7.36-38,18a42.77,42.77,0,0,0-10.73-1.37c-20.66,0-37.67,14.6-39.91,33.37-24,.78-43.26,19.19-43.26,41.8a39.39,39.39,0,0,0,.47,6c-13.32,8.87-21.36,21.24-20.62,34.5,1,17.77,17.45,32.22,40.36,38a23.31,23.31,0,0,0-1.25,7.49c0,15.21,14.77,27.54,33,27.54a37.11,37.11,0,0,0,20.64-6.06c14.8,8.24,34.23,12.71,55.25,11.55,30.18-1.67,55.83-14.49,68.61-32.08a94.58,94.58,0,0,0,12.24.12C10505.74,218.7,10536.47,192.39,10534.8,162.11Z"/><path class="cls-2" d="M12929.54,169.46c.82-14.84,9.29-27.87,22.36-37a36.55,36.55,0,0,1-3.66-15.79c0-27.06,30.67-49,68.5-49a94.13,94.13,0,0,1,19,1.92c6.18-11.86,21.43-20.26,39.28-20.26,16.71,0,31.16,7.36,38,18a42.77,42.77,0,0,1,10.73-1.37c20.66,0,37.67,14.6,39.91,33.37,24,.78,43.26,19.19,43.26,41.8a39.39,39.39,0,0,1-.47,6c13.32,8.87,21.36,21.24,20.62,34.5-1,17.77-17.45,32.22-40.36,38a23.31,23.31,0,0,1,1.25,7.49c0,15.21-14.77,27.54-33,27.54a37.11,37.11,0,0,1-20.64-6.06c-14.8,8.24-34.23,12.71-55.25,11.55-30.18-1.67-55.83-14.49-68.61-32.08a94.58,94.58,0,0,1-12.24.12C12958.61,226,12927.87,199.73,12929.54,169.46Z"/><path class="cls-2" d="M12166.12,128.07a30.55,30.55,0,0,1,6-17.81,16.5,16.5,0,0,1-2.31-8.33c0-9.27,8.09-17.17,19.46-20.25.48-10.57,10.92-19.15,24.2-20.18,3.17-7.5,12.77-12.94,24.11-12.94a34,34,0,0,1,7.56.84c4.21-4.71,14.51-8,26.56-8,11.24,0,21,2.9,25.64,7.12a32.34,32.34,0,0,1,9.06-1.27c10.72,0,19.71,5,22.21,11.74a44.45,44.45,0,0,1,6.52-.48c14.29,0,26.14,6.67,28.36,15.4a33,33,0,0,1,7.06-.76c12.25,0,22.45,6.58,24.75,15.3a10.17,10.17,0,0,1,2-.21c8.51,0,15.41,10.64,15.41,23.77a31.25,31.25,0,0,1-4.54,16.84,40.34,40.34,0,0,1-.74,4.42c4,2.94,6.39,6.86,6.39,11.16,0,6.92-6.28,12.85-15.19,15.32-.89,8-10.35,14.61-22.7,16.11-1.62,10-14.72,17.73-30.64,17.73a46.41,46.41,0,0,1-10.29-1.14,45.67,45.67,0,0,1-30.4,11.74,44.5,44.5,0,0,1-13.62-2.12,62.53,62.53,0,0,1-28.6,6.76c-22.78,0-42.32-11.7-50.66-28.36a34.23,34.23,0,0,1-7.25.77c-15.48,0-28-10.18-28-22.74a18.78,18.78,0,0,1,1.14-6.4C12170.39,145.44,12166.12,137.12,12166.12,128.07Z"/><path class="cls-2" d="M15595.15,146c0-23.34-19.56-43.18-46.83-50.47a18.17,18.17,0,0,0,2.57-9.18c0-14.45-18.13-26.17-40.5-26.17-13.33,0-25.15,4.16-32.53,10.58a109.22,109.22,0,0,0-33-5c-19.21,0-36.78,4.73-50.4,12.57a53.18,53.18,0,0,0-13.95-1.84c-23.22,0-42,14.55-42,32.5a25.49,25.49,0,0,0,.2,3.19c-20,7.33-33.54,21.55-33.54,37.91,0,14.07,10,26.57,25.57,34.45a21.74,21.74,0,0,0-2.45,9.95c0,15.11,16,27.36,35.78,27.36a46.77,46.77,0,0,0,6.15-.41c12.07,11.08,30,18.12,50.13,18.12a79.76,79.76,0,0,0,34.23-7.5,57.47,57.47,0,0,0,63.28-22,29.45,29.45,0,0,0,9.22,1.48c11.65,0,21.8-6.8,27.15-16.87C15578.36,186.26,15595.15,167.64,15595.15,146Z"/><path class="cls-2" d="M9169,138c.82-14.84,9.29-27.87,22.36-37a36.55,36.55,0,0,1-3.66-15.79c0-27.06,30.67-49,68.5-49a94.13,94.13,0,0,1,19,1.92c6.18-11.86,21.43-20.26,39.28-20.26,16.71,0,31.16,7.36,38,18a42.77,42.77,0,0,1,10.73-1.37c20.66,0,37.67,14.6,39.91,33.37,24,.78,43.26,19.19,43.26,41.8a39.39,39.39,0,0,1-.47,6c13.32,8.87,21.36,21.24,20.62,34.5-1,17.77-17.45,32.22-40.36,38a23.31,23.31,0,0,1,1.25,7.49c0,15.21-14.77,27.54-33,27.54a37.11,37.11,0,0,1-20.64-6.06c-14.8,8.24-34.23,12.71-55.25,11.55-30.18-1.67-55.83-14.49-68.61-32.08a94.58,94.58,0,0,1-12.24.12C9198,194.64,9167.3,168.32,9169,138Z"/><path class="cls-2" d="M8133.12,126.42a30.55,30.55,0,0,0-6-17.81,16.5,16.5,0,0,0,2.31-8.33c0-9.27-8.09-17.17-19.46-20.25-.48-10.57-10.92-19.15-24.2-20.18-3.17-7.5-12.77-12.94-24.11-12.94a34,34,0,0,0-7.56.84c-4.21-4.71-14.51-8-26.56-8-11.24,0-21,2.9-25.64,7.12a32.34,32.34,0,0,0-9.06-1.27c-10.72,0-19.71,5-22.21,11.74a44.45,44.45,0,0,0-6.52-.48c-14.29,0-26.14,6.67-28.36,15.4a33,33,0,0,0-7.06-.76c-12.25,0-22.45,6.58-24.75,15.3a10.17,10.17,0,0,0-2-.21c-8.51,0-15.41,10.64-15.41,23.77a31.25,31.25,0,0,0,4.54,16.84,40.34,40.34,0,0,0,.74,4.42c-4,2.94-6.39,6.86-6.39,11.16,0,6.92,6.28,12.85,15.19,15.32.89,8,10.35,14.61,22.7,16.11,1.62,10,14.72,17.73,30.64,17.73a46.41,46.41,0,0,0,10.29-1.14,45.67,45.67,0,0,0,30.4,11.74,44.5,44.5,0,0,0,13.62-2.12,62.53,62.53,0,0,0,28.6,6.76c22.78,0,42.32-11.7,50.66-28.36a34.23,34.23,0,0,0,7.25.77c15.48,0,28-10.18,28-22.74a18.78,18.78,0,0,0-1.14-6.4C8128.85,143.8,8133.12,135.47,8133.12,126.42Z"/></g></g></g></svg>