<?xml version="1.0" encoding="UTF-8" standalone="no"?>
<!DOCTYPE svg PUBLIC "-//W3C//DTD SVG 1.1//EN" "http://www.w3.org/Graphics/SVG/1.1/DTD/svg11.dtd">
<svg width="100%" height="100%" viewBox="0 0 12948 1080" version="1.1" xmlns="http://www.w3.org/2000/svg" xmlns:xlink="http://www.w3.org/1999/xlink" xml:space="preserve" xmlns:serif="http://www.serif.com/" style="fill-rule:evenodd;clip-rule:evenodd;stroke-linejoin:round;stroke-miterlimit:2;">
    <g id="Ebene_43">
        <rect x="-1" y="0" width="12949" height="1081" style="fill:none;"/>
    </g>
    <g id="Safari_Boden">
        <g transform="matrix(1,0,0,1,-510,0)">
            <path d="M9142.4,870.67C9142.31,870.71 9142.21,870.76 9142.12,870.8C9142.29,870.8 9142.47,870.8 9142.64,870.81C9142.56,870.77 9142.48,870.72 9142.4,870.67Z" style="fill:rgb(41,188,6);fill-rule:nonzero;"/>
            <path d="M9411,915.42C9411,897.99 9401.68,882.54 9387.33,872.96C9401.76,865.29 9411,853.5 9411,840.28C9411,817.17 9382.78,798.44 9347.97,798.44C9340.09,798.44 9332.54,799.4 9325.59,801.16C9324.05,776.6 9297.24,757.05 9264.4,757.05C9252.12,757.05 9240.68,759.79 9231.1,764.49C9235.66,770.35 9238.55,779.13 9238.55,788.94C9238.55,793.03 9238.04,796.94 9237.12,800.54C9237.54,800.53 9237.95,800.52 9238.37,800.52C9263.7,800.52 9284.23,825.46 9284.23,856.22C9284.23,869.88 9280.18,882.39 9273.46,892.08C9276.71,892.92 9279.78,893.95 9282.65,895.16L9284.22,895.16L9284.22,895.84C9296.9,901.59 9305.11,910.77 9305.11,921.11C9305.11,928.71 9300.67,935.68 9293.29,941.13C9295.19,944.76 9296.26,948.8 9296.26,953.06C9296.26,962.02 9291.56,970.01 9284.22,975.21L9284.22,983.81L9376.65,983.81L9376.65,982.59C9389.29,979.98 9398.61,971.05 9398.61,960.42C9398.61,957.01 9397.64,953.77 9395.92,950.86C9405.29,941.5 9411,929.07 9411,915.42Z" style="fill:rgb(41,188,6);fill-rule:nonzero;"/>
            <path d="M9296.26,953.06C9296.26,948.8 9295.2,944.76 9293.29,941.13C9300.68,935.68 9305.11,928.71 9305.11,921.11C9305.11,910.77 9296.9,901.59 9284.22,895.84L9284.22,895.16L9282.65,895.16C9279.78,893.96 9276.7,892.92 9273.46,892.08C9280.18,882.39 9284.23,869.88 9284.23,856.22C9284.23,825.46 9263.7,800.52 9238.37,800.52C9237.95,800.52 9237.54,800.53 9237.12,800.54C9238.04,796.94 9238.55,793.03 9238.55,788.94C9238.55,779.13 9235.65,770.35 9231.1,764.49C9227.47,759.82 9222.78,757 9217.66,757C9206.12,757 9196.77,771.3 9196.77,788.94C9196.77,789.78 9196.8,790.6 9196.84,791.42C9189.86,788.8 9182.1,787.34 9173.93,787.34C9143.32,787.34 9118.51,807.81 9118.51,833.06C9118.51,848.65 9127.97,862.41 9142.41,870.67C9142.49,870.72 9142.57,870.76 9142.65,870.81C9142.48,870.81 9142.3,870.81 9142.13,870.8C9141.93,870.8 9141.73,870.79 9141.53,870.79C9114.74,870.79 9093.02,888.04 9093.02,909.32C9093.02,921.57 9100.22,932.48 9111.44,939.54C9111.46,942.17 9112.52,944.64 9114.36,946.77C9112.47,950.03 9111.44,953.55 9111.44,957.23C9111.44,973.66 9131.97,986.98 9157.3,986.98C9164.24,986.98 9170.83,985.98 9176.72,984.18L9284.25,984.18L9284.25,975.18C9291.56,970.01 9296.26,962.02 9296.26,953.06Z" style="fill:rgb(39,127,14);fill-rule:nonzero;"/>
        </g>
        <g>
            <path d="M6230.95,984.44L6227,983.92L6230.55,984.44L6230.95,984.44Z" style="fill:none;fill-rule:nonzero;"/>
            <path d="M10041,1021.7C10017.1,1019.06 10008.7,1035.56 9975,1036.81C9945.15,1037.92 9942.03,1025.33 9907,1023.44C9868.32,1021.36 9860.03,1036.06 9821,1033.32C9789.57,1031.12 9786.11,1020.96 9764,1022.86C9731.78,1025.62 9729.8,1047.98 9700,1050.18C9680.18,1051.64 9676.59,1042.08 9631,1032.74C9607.02,1027.83 9593.24,1025 9576,1026.35C9538.7,1029.25 9535.52,1047.74 9505,1050.18C9471.04,1052.9 9460.3,1031.18 9413,1025.18C9375.83,1020.47 9369.87,1032.28 9318,1035.06C9230.99,1039.72 9184.73,1007.29 9151,1025.18C9129.23,1036.72 9127.29,1058.41 9113,1058.32C9094.5,1058.2 9086.93,1021.79 9067,1021.7C9052.2,1021.63 9049.98,1041.67 9029,1044.37C9005.8,1047.36 8994.4,1024.65 8957,1019.95C8924.55,1015.88 8917.7,1031.03 8872,1033.32C8817.28,1036.06 8800.11,1015.7 8761,1023.44C8727.44,1030.08 8729.64,1047.14 8702,1049.6C8664.22,1052.96 8650.05,1021.97 8601,1019.37C8559.77,1017.18 8553.79,1038.23 8505,1040.3C8444.71,1042.85 8422.78,1012.02 8379,1019.37C8337.04,1026.41 8333.75,1058.66 8303,1058.32C8302.83,1058.32 8302.66,1058.31 8302.49,1058.31C8311.28,1065.39 8319.42,1075.58 8336.86,1077.51C8360.75,1080.15 8369.18,1063.65 8402.86,1062.4C8432.71,1061.29 8435.83,1073.89 8470.86,1075.77C8509.54,1077.85 8517.83,1063.15 8556.86,1065.89C8588.29,1068.09 8591.75,1078.25 8613.86,1076.35C8646.08,1073.58 8648.06,1051.23 8677.86,1049.03C8697.68,1047.57 8701.27,1057.13 8746.86,1066.47C8770.85,1071.38 8784.62,1074.21 8801.86,1072.86C8839.16,1069.95 8842.34,1051.47 8872.86,1049.03C8906.83,1046.32 8917.56,1068.03 8964.86,1074.03C9002.03,1078.74 9007.99,1066.93 9059.86,1064.15C9146.88,1059.49 9193.13,1091.92 9226.86,1074.03C9248.63,1062.48 9250.57,1040.8 9264.86,1040.89C9283.36,1041.01 9290.94,1077.41 9310.86,1077.51C9325.66,1077.58 9327.88,1057.54 9348.86,1054.84C9372.07,1051.85 9383.46,1074.56 9420.86,1079.26C9453.31,1083.34 9460.16,1068.18 9505.86,1065.89C9560.58,1063.15 9577.75,1083.52 9616.86,1075.77C9650.42,1069.13 9648.22,1052.06 9675.86,1049.61C9713.64,1046.26 9727.82,1077.24 9776.86,1079.84C9818.09,1082.03 9824.07,1060.98 9872.86,1058.91C9933.15,1056.36 9955.08,1087.19 9998.86,1079.84C10040.8,1072.8 10044.1,1040.55 10074.9,1040.89C10075,1040.89 10075.2,1040.9 10075.4,1040.9C10066.6,1033.82 10058.4,1023.63 10041,1021.7Z" style="fill:rgb(232,200,119);fill-rule:nonzero;"/>
            <path d="M6527.46,1081L6535.01,1081C6532.54,1080.99 6530,1080.97 6527.39,1080.96C6527.41,1080.97 6527.44,1080.99 6527.46,1081Z" style="fill:rgb(232,200,119);fill-rule:nonzero;"/>
            <path d="M12842.1,1016.47C12788.6,1007.68 12763.4,1034.29 12711.4,1024.03C12671.8,1016.21 12671,1012.68 12640.7,1012.98C12596.1,1013.43 12586.3,1032.47 12536.6,1036.81C12486,1041.25 12470.1,1012.71 12409,1016.46C12351.9,1019.97 12337.9,1036.53 12285.2,1035.06C12227.4,1033.44 12203.4,1010.8 12163.5,1019.95C12131.9,1027.19 12132.6,1036.17 12101.6,1039.71C12066.1,1043.76 12054,1016.82 12004.4,1012.97C12004,1012.94 12003.6,1012.91 12003.2,1012.89L12001,1012.89C11987.2,1025.39 11974.6,1028.81 11965,1029.25C11940.2,1030.38 11921.2,1011.37 11907,1016.46C11893.1,1021.44 11899.7,1037.68 11889,1039.71C11875.5,1042.28 11860.6,1017.19 11835.2,1012.97L11821,1012.98C11800.1,1016.62 11789.5,1035.4 11765,1034.48C11741.8,1033.6 11734.5,1016.04 11717,1017.62C11696.6,1019.47 11696.6,1044.21 11677,1046.1C11658.3,1047.91 11651.6,1025.93 11622,1021.68C11586.1,1016.53 11566.3,1044.56 11524,1041.44C11490,1038.94 11483.7,1019.45 11457,1021.09C11425.9,1023.01 11423.7,1050.12 11392,1053.06C11359.9,1056.04 11347.1,1029.53 11307,1029.81C11270.1,1030.07 11254,1052.68 11230,1047.83C11209.5,1043.68 11217.9,1024.7 11196,1019.93C11157.7,1011.56 11121.8,1047.19 11071,1040.28C11040.6,1036.13 11037.7,1021.15 11008,1021.1C10979.3,1021.05 10973.6,1035.04 10945,1035.05C10911,1035.06 10900.4,1013.45 10876,1017.61C10844.6,1022.98 10843.4,1051.3 10818,1053.07C10786.8,1055.24 10761.3,1014.25 10737,1018.19C10723.4,1020.4 10727.9,1033.85 10712,1037.95C10685.4,1044.82 10651,1012.86 10619,1019.35C10602.8,1022.65 10607.4,1031.76 10591,1036.21C10556,1045.69 10514.7,1009.69 10476,1018.19C10453.3,1023.18 10455.4,1038.25 10434,1040.28C10410.2,1042.54 10401.2,1024.52 10369,1019.35C10329.6,1013.03 10316.4,1035.79 10263,1037.95C10200.6,1040.48 10168.2,1011.43 10133,1022.84C10111.4,1029.85 10110.2,1045.13 10096.4,1047.52C10111.5,1057.16 10122.4,1074.11 10149.9,1076.33C10179.1,1078.68 10186.5,1058.65 10226.9,1057.73C10272.1,1056.7 10286.2,1073.25 10332.9,1076.33C10392.4,1080.26 10399.6,1055.33 10462.9,1054.82C10535.8,1054.23 10559.8,1087.05 10612.9,1077.49C10652,1070.44 10654.1,1049.83 10687.9,1049.01C10724.5,1048.11 10729.5,1072.18 10776.9,1079.82C10779.9,1080.31 10782.9,1080.7 10785.8,1080.98L10812.4,1080.98C10845.5,1077.82 10869.9,1064.51 10909.9,1072.26C10930.6,1076.28 10940.9,1079.17 10950.2,1080.98L11006,1080.98C11033.1,1075.68 11047.7,1062.93 11087.9,1059.47C11139.4,1055.03 11155.6,1083.57 11217.9,1079.82C11276,1076.32 11290.3,1059.75 11343.9,1061.22C11402.8,1062.84 11427.2,1085.48 11467.9,1076.33C11500.1,1069.09 11499.3,1060.11 11530.9,1056.57C11562.6,1053.01 11576,1073.38 11613.1,1080.99L11666.4,1080.99C11694,1075.19 11713.4,1062.48 11750.9,1066.46C11782.1,1069.77 11786.4,1077.11 11805,1080.99L11826.4,1080.99C11833.7,1077.47 11840.3,1076.2 11845.9,1075.94C11855.4,1075.51 11864,1078.02 11871.9,1080.99L11912.4,1080.99C11915.4,1074.54 11914.8,1066.84 11921.9,1065.47C11930.3,1063.88 11939.2,1072.89 11950.8,1080.99L12014.6,1080.99C12023.5,1075.47 12032.7,1070.21 12045.9,1070.71C12058.4,1071.18 12066.3,1076.45 12073.6,1080.99L12107.8,1080.99C12116.1,1072.97 12120.2,1060.41 12133.9,1059.08C12150.2,1057.5 12157.4,1073.87 12178.4,1080.99L12217.7,1080.99C12238.6,1074.75 12257.2,1061.54 12286.9,1063.73C12310.9,1065.49 12321.1,1075.69 12334.4,1080.99L12368,1080.99C12386.7,1073.36 12392.9,1054.53 12418.9,1052.1C12451.1,1049.12 12463.8,1075.63 12503.9,1075.35C12540.8,1075.09 12557,1052.48 12580.9,1057.33C12597.4,1060.66 12595.2,1073.56 12605.1,1080.98L12656.9,1080.98C12681.5,1073.22 12707.8,1060.49 12739.9,1064.88C12761.7,1067.85 12769.4,1076.36 12782.8,1080.98L12824.1,1080.98C12837.3,1076.88 12846.1,1070.12 12865.9,1070.12C12883.6,1070.11 12895,1075.96 12905.3,1080.98L12948,1080.98L12948,1044.03C12942.9,1045.87 12937,1047.08 12929.5,1047.26C12893.5,1048.18 12888.5,1024.12 12842.1,1016.47Z" style="fill:rgb(232,200,119);fill-rule:nonzero;"/>
            <path d="M7943.86,1058.91C7967.64,1056.65 7976.64,1074.68 8008.86,1079.84C8048.33,1086.16 8061.45,1063.41 8114.86,1061.24C8177.29,1058.71 8209.67,1087.76 8244.86,1076.35C8266.47,1069.34 8267.63,1054.06 8281.45,1051.67C8266.34,1042.03 8255.45,1025.07 8228,1022.86C8198.81,1020.51 8191.41,1040.54 8151,1041.46C8105.79,1042.5 8091.71,1025.94 8045,1022.86C7985.45,1018.93 7978.27,1043.86 7915,1044.37C7842.1,1044.96 7818.04,1012.14 7765,1021.7C7725.86,1028.75 7723.78,1049.36 7690,1050.18C7653.36,1051.07 7648.34,1027.01 7601,1019.37C7546.56,1010.58 7520.87,1037.19 7468,1026.93C7427.67,1019.1 7426.85,1015.58 7396,1015.89C7350.55,1016.34 7340.52,1035.38 7290,1039.72C7238.43,1044.16 7222.25,1015.62 7160,1019.37C7101.86,1022.87 7087.59,1039.44 7034,1037.97C6975.07,1036.35 6950.65,1013.71 6910,1022.86C6877.81,1030.1 6878.6,1039.09 6847,1042.62C6810.85,1046.67 6798.49,1019.73 6748,1015.88C6746.83,1015.79 6745.68,1015.72 6744.54,1015.66L6730.37,1015.67C6691.25,1017.87 6672.49,1037.56 6627.01,1032.74C6586.69,1028.47 6591.25,1017.5 6552.01,1015.88C6550.6,1015.82 6549.2,1015.79 6547.82,1015.77L6542.83,1015.77C6498.05,1016.52 6467.96,1035.81 6427.01,1030.41L0,1030.41L0,1060.06L6482,1060.06L6485.81,1060.71C6486.64,1060.14 6487.64,1059.72 6488.86,1059.48C6492.95,1058.7 6497.18,1060.47 6501.78,1063.42L6578.99,1076.53C6588.75,1070.51 6598.38,1064.17 6612.86,1064.72C6632.36,1065.46 6640.62,1077.92 6653.08,1081L6664.35,1081C6681.32,1076.82 6682.47,1054.88 6700.86,1053.1C6719.59,1051.29 6726.23,1073.27 6755.86,1077.52C6791.76,1082.66 6811.56,1054.64 6853.86,1057.76C6887.84,1060.26 6894.18,1079.75 6920.86,1078.11C6951.94,1076.19 6954.21,1049.08 6985.86,1046.14C7017.98,1043.16 7030.73,1069.67 7070.86,1069.39C7107.77,1069.13 7123.88,1046.52 7147.86,1051.37C7168.37,1055.51 7159.99,1074.5 7181.86,1079.27C7220.21,1087.64 7256.11,1052.01 7306.86,1058.92C7337.32,1063.07 7340.15,1078.05 7369.86,1078.1C7398.59,1078.15 7404.29,1064.16 7432.86,1064.15C7459.18,1064.14 7471.5,1077.08 7487.02,1081.01L7504.77,1081.01C7533.36,1074.45 7535.33,1047.84 7559.86,1046.13C7588.14,1044.16 7611.79,1077.67 7634.03,1081.01L7640.86,1081.01C7654.44,1078.8 7649.93,1065.36 7665.86,1061.25C7692.49,1054.38 7726.92,1086.34 7758.86,1079.85C7775.09,1076.55 7770.47,1067.44 7786.86,1062.99C7813.97,1055.64 7844.89,1075.61 7875.45,1081.01L7901.86,1081.01C7924.59,1076.01 7922.47,1060.94 7943.86,1058.91Z" style="fill:rgb(232,200,119);fill-rule:nonzero;"/>
            <rect x="-1" y="1009.5" width="1" height="20.93" style="fill:rgb(224,181,124);"/>
            <path d="M6330.98,1015.7L6264.94,1009.5L0,1009.5L0,1030.43L6427,1030.43C6409.66,1028.14 6362.39,1021.99 6330.98,1015.7Z" style="fill:rgb(224,181,124);fill-rule:nonzero;"/>
            <path d="M6234.91,985.08L6235.8,985.08L6230.95,984.44L6230.55,984.44L6234.91,985.08Z" style="fill:rgb(211,170,98);fill-rule:nonzero;"/>
            <path d="M5997.34,984.35L49.91,982.17L0,981.01L0,985.08L6005.07,985.08L5997.34,984.35Z" style="fill:rgb(211,170,98);fill-rule:nonzero;"/>
            <path d="M6333,999.51L6333,997.91L6235.8,985.08L6234.91,985.08L6333,999.51Z" style="fill:rgb(211,170,98);fill-rule:nonzero;"/>
            <path d="M6005.07,985.08L0,985.08L0,1009.5L6264.94,1009.5L6005.07,985.08Z" style="fill:rgb(211,170,98);fill-rule:nonzero;"/>
            <rect x="-1" y="1060.07" width="1" height="20.93" style="fill:rgb(224,181,124);"/>
            <path d="M6412.86,1069.95C6419.8,1069.63 6426.29,1070.9 6432.34,1072.76C6444.41,1066.9 6482,1060.06 6482,1060.06L0,1060.06L0,1081L6383.34,1081C6394.61,1072.8 6404.75,1070.32 6412.86,1069.95Z" style="fill:rgb(224,181,124);fill-rule:nonzero;"/>
            <path d="M6453.77,1081L6470.17,1081C6463.43,1080.96 6457.66,1080.83 6452.74,1080.62C6453.09,1080.75 6453.43,1080.87 6453.77,1081Z" style="fill:rgb(224,181,124);fill-rule:nonzero;"/>
            <path d="M6578.99,1076.53L6501.78,1063.42C6509.04,1068.07 6517.25,1075.68 6527.39,1080.95C6530,1080.96 6532.54,1080.97 6535.01,1080.99L6571.35,1080.99C6573.96,1079.61 6576.48,1078.09 6578.99,1076.53Z" style="fill:rgb(224,181,124);fill-rule:nonzero;"/>
            <path d="M6485.81,1060.72L6482,1060.07C6482,1060.07 6444.41,1066.91 6432.34,1072.77C6439.78,1075.07 6446.57,1078.28 6452.74,1080.62C6457.65,1080.83 6463.42,1080.96 6470.17,1081C6473.06,1081.02 6476.12,1081.02 6479.37,1081L6474.36,1081C6482.47,1075.54 6480.13,1064.63 6485.81,1060.72Z" style="fill:rgb(224,181,124);fill-rule:nonzero;"/>
            <path d="M12003.2,1012.9C12002.6,1012.85 12001.9,1012.81 12001.2,1012.78C12001.1,1012.82 12001.1,1012.86 12001,1012.91L12003.2,1012.9Z" style="fill:rgb(69,186,21);fill-rule:nonzero;"/>
            <path d="M11821,1013L11835.2,1012.99C11833.2,1012.66 11831.1,1012.45 11829,1012.4C11826.1,1012.34 11823.5,1012.56 11821,1013Z" style="fill:rgb(69,186,21);fill-rule:nonzero;"/>
            <path d="M6542.82,1015.78L6547.81,1015.78C6546.12,1015.75 6544.46,1015.75 6542.82,1015.78Z" style="fill:rgb(69,186,21);fill-rule:nonzero;"/>
            <path d="M6730.36,1015.68L6744.53,1015.67C6739.5,1015.41 6734.8,1015.43 6730.36,1015.68Z" style="fill:rgb(69,186,21);fill-rule:nonzero;"/>
            <path d="M6350.1,999.61L6350.26,1000.19L6345.86,999.61L6345.67,999.61L6345.67,999.58L6333,997.91L6333,999.5L6337.68,1000.19L6335.61,1007.14L12011,1002.52C12010.6,1002.99 12010.2,1003.44 12009.8,1003.9L12948,1003.12L12948,997.9L6350.1,999.61Z" style="fill:rgb(69,186,21);fill-rule:nonzero;"/>
            <path d="M6432.34,1072.77C6426.29,1070.9 6419.8,1069.64 6412.86,1069.96C6404.75,1070.33 6394.61,1072.8 6383.34,1081.01L6453.77,1081.01C6453.43,1080.89 6453.09,1080.76 6452.74,1080.63C6446.57,1078.28 6439.78,1075.07 6432.34,1072.77Z" style="fill:rgb(173,188,29);fill-rule:nonzero;"/>
            <path d="M6501.78,1063.43C6497.18,1060.48 6492.95,1058.71 6488.86,1059.49C6487.63,1059.72 6486.64,1060.15 6485.81,1060.72C6480.13,1064.63 6482.47,1075.55 6474.36,1081L6527.46,1081C6527.44,1080.99 6527.41,1080.97 6527.39,1080.96C6517.25,1075.69 6509.04,1068.08 6501.78,1063.43Z" style="fill:rgb(173,188,29);fill-rule:nonzero;"/>
            <path d="M6612.86,1064.72C6598.38,1064.17 6588.75,1070.51 6578.99,1076.53C6576.48,1078.08 6573.96,1079.61 6571.35,1080.99L6653.08,1080.99C6640.62,1077.92 6632.36,1065.46 6612.86,1064.72Z" style="fill:rgb(173,188,29);fill-rule:nonzero;"/>
            <path d="M7369.86,1078.09C7340.15,1078.04 7337.32,1063.06 7306.86,1058.91C7256.11,1051.99 7220.21,1087.62 7181.86,1079.26C7159.99,1074.49 7168.37,1055.5 7147.86,1051.36C7123.88,1046.51 7107.77,1069.13 7070.86,1069.38C7030.73,1069.66 7017.98,1043.15 6985.86,1046.13C6954.21,1049.07 6951.94,1076.18 6920.86,1078.1C6894.18,1079.75 6887.84,1060.25 6853.86,1057.75C6811.56,1054.64 6791.76,1082.66 6755.86,1077.51C6726.23,1073.26 6719.59,1051.28 6700.86,1053.09C6682.47,1054.87 6681.32,1076.81 6664.35,1080.99L7487.02,1080.99C7471.5,1077.07 7459.18,1064.12 7432.86,1064.13C7404.29,1064.15 7398.59,1078.14 7369.86,1078.09Z" style="fill:rgb(173,188,29);fill-rule:nonzero;"/>
            <path d="M7559.86,1046.12C7535.33,1047.83 7533.36,1074.44 7504.77,1081L7634.03,1081C7611.79,1077.66 7588.14,1044.15 7559.86,1046.12Z" style="fill:rgb(173,188,29);fill-rule:nonzero;"/>
            <path d="M7786.86,1062.98C7770.47,1067.43 7775.09,1076.54 7758.86,1079.84C7726.92,1086.33 7692.49,1054.37 7665.86,1061.24C7649.93,1065.35 7654.44,1078.8 7640.86,1081L7875.45,1081C7844.89,1075.6 7813.97,1055.62 7786.86,1062.98Z" style="fill:rgb(173,188,29);fill-rule:nonzero;"/>
            <path d="M10687.9,1049.03C10654.1,1049.86 10652,1070.46 10612.9,1077.51C10559.8,1087.07 10535.8,1054.25 10462.9,1054.84C10399.6,1055.35 10392.4,1080.28 10332.9,1076.35C10286.1,1073.27 10272.1,1056.71 10226.9,1057.75C10186.5,1058.67 10179.1,1078.7 10149.9,1076.35C10122.4,1074.14 10111.5,1057.19 10096.4,1047.54C10095.4,1047.72 10094.2,1047.84 10093,1047.86C10085.7,1047.99 10080.4,1044.96 10075.4,1040.9C10075.2,1040.9 10075,1040.89 10074.9,1040.89C10044.1,1040.55 10040.8,1072.8 9998.86,1079.84C9955.08,1087.19 9933.15,1056.36 9872.86,1058.91C9824.07,1060.97 9818.09,1082.02 9776.86,1079.84C9727.82,1077.24 9713.64,1046.26 9675.86,1049.61C9648.22,1052.06 9650.42,1069.12 9616.86,1075.77C9577.75,1083.51 9560.58,1063.14 9505.86,1065.89C9460.16,1068.18 9453.31,1083.34 9420.86,1079.26C9383.46,1074.56 9372.07,1051.86 9348.86,1054.84C9327.88,1057.54 9325.66,1077.58 9310.86,1077.51C9290.94,1077.41 9283.36,1041.01 9264.86,1040.89C9250.57,1040.8 9248.63,1062.48 9226.86,1074.03C9193.13,1091.92 9146.88,1059.49 9059.86,1064.15C9007.99,1066.93 9002.03,1078.75 8964.86,1074.03C8917.56,1068.04 8906.83,1046.32 8872.86,1049.03C8842.34,1051.47 8839.16,1069.96 8801.86,1072.86C8784.62,1074.2 8770.85,1071.38 8746.86,1066.47C8701.27,1057.13 8697.68,1047.57 8677.86,1049.03C8648.06,1051.23 8646.08,1073.58 8613.86,1076.35C8591.75,1078.25 8588.29,1068.09 8556.86,1065.89C8517.83,1063.15 8509.54,1077.85 8470.86,1075.77C8435.83,1073.89 8432.71,1061.29 8402.86,1062.4C8369.18,1063.66 8360.75,1080.15 8336.86,1077.51C8319.42,1075.58 8311.28,1065.39 8302.49,1058.31C8293.98,1058.12 8287.39,1055.46 8281.45,1051.67C8267.63,1054.06 8266.47,1069.34 8244.86,1076.35C8209.67,1087.76 8177.29,1058.71 8114.86,1061.24C8061.45,1063.41 8048.33,1086.17 8008.86,1079.84C7976.64,1074.68 7967.64,1056.66 7943.86,1058.91C7922.47,1060.94 7924.59,1076.01 7901.86,1081L10785.8,1081C10782.9,1080.72 10779.9,1080.33 10776.9,1079.84C10729.5,1072.19 10724.5,1048.13 10687.9,1049.03Z" style="fill:rgb(173,188,29);fill-rule:nonzero;"/>
            <path d="M10812.4,1081L10950.2,1081C10940.9,1079.19 10930.6,1076.3 10909.9,1072.28C10869.9,1064.52 10845.5,1077.84 10812.4,1081Z" style="fill:rgb(173,188,29);fill-rule:nonzero;"/>
            <path d="M11530.9,1056.58C11499.3,1060.12 11500.1,1069.1 11467.9,1076.34C11427.2,1085.49 11402.8,1062.84 11343.9,1061.23C11290.3,1059.76 11276,1076.33 11217.9,1079.83C11155.6,1083.58 11139.4,1055.05 11087.9,1059.48C11047.7,1062.94 11033.1,1075.69 11006,1080.99L11613.1,1080.99C11576,1073.39 11562.6,1053.02 11530.9,1056.58Z" style="fill:rgb(173,188,29);fill-rule:nonzero;"/>
            <path d="M11666.4,1081L11805,1081C11786.4,1077.12 11782.1,1069.78 11750.9,1066.47C11713.3,1062.49 11694,1075.2 11666.4,1081Z" style="fill:rgb(173,188,29);fill-rule:nonzero;"/>
            <path d="M6345.67,983.92L6345.67,983.9L6345.67,983.92L6227,983.92L6230.95,984.44L6235.8,985.08L6333,997.91L6345.67,999.59L6345.67,999.61L6345.86,999.61L6350.27,1000.19L6350.1,999.61L12948,997.9L12948,983.9L6345.67,983.92Z" style="fill:rgb(55,147,12);fill-rule:nonzero;"/>
            <path d="M6264.94,1009.5L6330.98,1015.7C6316.29,1012.76 6305.06,1009.79 6302,1007.17L6335.61,1007.14L6337.68,1000.19L6333,999.5L6234.91,985.07L6230.55,984.43L6227,983.91L5992.5,983.89L5997.34,984.34L6005.07,985.07L6264.94,1009.5Z" style="fill:rgb(69,186,21);fill-rule:nonzero;"/>
            <path d="M12001.2,1012.78C12001.9,1012.82 12002.5,1012.86 12003.2,1012.9C12003.6,1012.92 12004,1012.95 12004.4,1012.98C12054,1016.83 12066.1,1043.77 12101.6,1039.72C12132.6,1036.18 12131.9,1027.2 12163.5,1019.96C12203.4,1010.81 12227.4,1033.46 12285.2,1035.07C12337.9,1036.54 12351.9,1019.97 12409,1016.47C12470.1,1012.72 12486,1041.25 12536.6,1036.82C12586.3,1032.47 12596.1,1013.43 12640.7,1012.99C12671,1012.69 12671.8,1016.21 12711.4,1024.04C12763.4,1034.3 12788.6,1007.69 12842.1,1016.48C12888.5,1024.12 12893.5,1048.19 12929.5,1047.29C12937,1047.1 12942.9,1045.89 12948,1044.06L12948,1003.13L12009.8,1003.91C12006.9,1007.27 12004,1010.22 12001.2,1012.78Z" style="fill:rgb(69,186,21);fill-rule:nonzero;"/>
            <path d="M11845.9,1075.95C11840.3,1076.21 11833.7,1077.48 11826.4,1081L11871.8,1081C11864,1078.02 11855.4,1075.52 11845.9,1075.95Z" style="fill:rgb(173,188,29);fill-rule:nonzero;"/>
            <path d="M11921.9,1065.48C11914.8,1066.85 11915.4,1074.55 11912.4,1081L11950.8,1081C11939.2,1072.9 11930.3,1063.89 11921.9,1065.48Z" style="fill:rgb(173,188,29);fill-rule:nonzero;"/>
            <path d="M12045.9,1070.71C12032.7,1070.21 12023.5,1075.48 12014.5,1080.99L12073.6,1080.99C12066.3,1076.46 12058.4,1071.19 12045.9,1070.71Z" style="fill:rgb(173,188,29);fill-rule:nonzero;"/>
            <path d="M6302,1007.17C6305.06,1009.79 6316.29,1012.76 6330.98,1015.7C6362.39,1021.99 6409.66,1028.14 6427,1030.42C6467.95,1035.82 6498.04,1016.52 6542.82,1015.78C6544.46,1015.75 6546.13,1015.75 6547.81,1015.78C6549.19,1015.8 6550.59,1015.84 6552,1015.89C6591.24,1017.5 6586.68,1028.47 6627,1032.75C6672.48,1037.57 6691.24,1017.88 6730.36,1015.68C6734.8,1015.43 6739.5,1015.41 6744.53,1015.67C6745.67,1015.73 6746.82,1015.8 6747.99,1015.89C6798.48,1019.74 6810.84,1046.68 6846.99,1042.63C6878.59,1039.09 6877.8,1030.11 6909.99,1022.87C6950.64,1013.72 6975.06,1036.37 7033.99,1037.98C7087.58,1039.45 7101.85,1022.88 7159.99,1019.38C7222.24,1015.63 7238.42,1044.16 7289.99,1039.73C7340.51,1035.38 7350.54,1016.34 7395.99,1015.9C7426.84,1015.6 7427.66,1019.12 7467.99,1026.94C7520.86,1037.2 7546.55,1010.59 7600.99,1019.38C7648.33,1027.02 7653.35,1051.08 7689.99,1050.19C7723.77,1049.37 7725.85,1028.76 7764.99,1021.71C7818.03,1012.15 7842.09,1044.97 7914.99,1044.38C7978.26,1043.87 7985.44,1018.94 8044.99,1022.87C8091.7,1025.95 8105.78,1042.51 8150.99,1041.47C8191.4,1040.54 8198.8,1020.52 8227.99,1022.87C8255.44,1025.08 8266.33,1042.03 8281.44,1051.68C8287.38,1055.47 8293.97,1058.13 8302.48,1058.32C8302.65,1058.32 8302.82,1058.33 8302.99,1058.33C8333.74,1058.67 8337.03,1026.42 8378.99,1019.38C8422.77,1012.03 8444.7,1042.86 8504.99,1040.31C8553.78,1038.25 8559.76,1017.2 8600.99,1019.38C8650.04,1021.98 8664.21,1052.96 8701.99,1049.61C8729.63,1047.16 8727.43,1030.09 8760.99,1023.45C8800.1,1015.71 8817.27,1036.08 8871.99,1033.33C8917.69,1031.04 8924.54,1015.89 8956.99,1019.96C8994.39,1024.66 9005.79,1047.36 9028.99,1044.38C9049.97,1041.68 9052.19,1021.64 9066.99,1021.71C9086.92,1021.81 9094.49,1058.21 9112.99,1058.33C9127.28,1058.42 9129.22,1036.74 9150.99,1025.19C9184.72,1007.3 9230.98,1039.73 9317.99,1035.07C9369.86,1032.29 9375.82,1020.48 9412.99,1025.19C9460.29,1031.19 9471.03,1052.9 9504.99,1050.19C9535.51,1047.75 9538.69,1029.26 9575.99,1026.36C9593.23,1025.02 9607.01,1027.84 9630.99,1032.75C9676.58,1042.09 9680.17,1051.65 9699.99,1050.19C9729.79,1047.99 9731.77,1025.63 9763.99,1022.87C9786.1,1020.97 9789.56,1031.13 9820.99,1033.33C9860.02,1036.07 9868.31,1021.37 9906.99,1023.45C9942.02,1025.34 9945.14,1037.93 9974.99,1036.82C10008.7,1035.57 10017.1,1019.06 10041,1021.71C10058.4,1023.64 10066.6,1033.83 10075.4,1040.91C10080.4,1044.97 10085.6,1048 10093,1047.87C10094.2,1047.85 10095.3,1047.73 10096.4,1047.55C10110.2,1045.16 10111.4,1029.88 10133,1022.87C10168.2,1011.46 10200.6,1040.52 10263,1037.98C10316.4,1035.81 10329.5,1013.05 10369,1019.38C10401.2,1024.54 10410.2,1042.56 10434,1040.31C10455.4,1038.28 10453.3,1023.21 10476,1018.22C10514.7,1009.73 10556,1045.73 10591,1036.24C10607.4,1031.79 10602.8,1022.68 10619,1019.38C10650.9,1012.89 10685.4,1044.85 10712,1037.98C10727.9,1033.87 10723.4,1020.43 10737,1018.22C10761.2,1014.27 10786.8,1055.27 10818,1053.1C10843.3,1051.33 10844.6,1023 10876,1017.64C10900.4,1013.48 10911,1035.09 10945,1035.08C10973.6,1035.07 10979.3,1021.08 11008,1021.13C11037.7,1021.18 11040.5,1036.16 11071,1040.31C11121.8,1047.23 11157.6,1011.6 11196,1019.96C11217.9,1024.73 11209.5,1043.72 11230,1047.86C11254,1052.71 11270.1,1030.09 11307,1029.84C11347.1,1029.56 11359.9,1056.08 11392,1053.09C11423.6,1050.15 11425.9,1023.03 11457,1021.12C11483.7,1019.47 11490,1038.97 11524,1041.47C11566.3,1044.58 11586.1,1016.56 11622,1021.71C11651.6,1025.96 11658.3,1047.94 11677,1046.13C11696.6,1044.23 11696.6,1019.49 11717,1017.65C11734.5,1016.07 11741.7,1033.63 11765,1034.51C11789.5,1035.44 11800.1,1016.65 11821,1013.01C11823.5,1012.57 11826.1,1012.35 11829,1012.42C11831.1,1012.47 11833.2,1012.67 11835.2,1013.01C11860.6,1017.22 11875.5,1042.32 11889,1039.75C11899.7,1037.71 11893.1,1021.47 11907,1016.5C11921.2,1011.41 11940.2,1030.42 11965,1029.29C11974.6,1028.85 11987.2,1025.43 12001,1012.93C12001.1,1012.89 12001.1,1012.85 12001.2,1012.8C12004,1010.24 12006.9,1007.29 12009.8,1003.92C12010.2,1003.47 12010.6,1003.01 12011,1002.54L6335.59,1007.16L6302,1007.17Z" style="fill:rgb(69,186,21);fill-rule:nonzero;"/>
            <path d="M12133.9,1059.09C12120.2,1060.42 12116.1,1072.98 12107.8,1081L12178.3,1081C12157.3,1073.88 12150.2,1057.51 12133.9,1059.09Z" style="fill:rgb(173,188,29);fill-rule:nonzero;"/>
            <path d="M12217.6,1081L12334.4,1081C12321.1,1075.7 12310.9,1065.5 12286.9,1063.74C12257.2,1061.55 12238.6,1074.76 12217.6,1081Z" style="fill:rgb(173,188,29);fill-rule:nonzero;"/>
            <path d="M12580.9,1057.34C12556.9,1052.49 12540.8,1075.11 12503.9,1075.36C12463.8,1075.64 12451,1049.13 12418.9,1052.11C12392.9,1054.53 12386.7,1073.37 12368,1081L12605.1,1081C12595.2,1073.57 12597.4,1060.68 12580.9,1057.34Z" style="fill:rgb(173,188,29);fill-rule:nonzero;"/>
            <path d="M12656.9,1081L12782.8,1081C12769.4,1076.38 12761.7,1067.87 12739.9,1064.9C12707.7,1060.51 12681.5,1073.24 12656.9,1081Z" style="fill:rgb(173,188,29);fill-rule:nonzero;"/>
            <path d="M12824.1,1081L12905.2,1081C12895,1075.97 12883.6,1070.13 12865.9,1070.14C12846.1,1070.14 12837.3,1076.89 12824.1,1081Z" style="fill:rgb(173,188,29);fill-rule:nonzero;"/>
        </g>
        <g id="Kakteen" transform="matrix(1,0,0,1,528,0)">
            <g>
                <path d="M595.82,757.74L595.82,767.05L596.36,757.74L595.82,757.74Z" style="fill:rgb(2,170,2);fill-rule:nonzero;"/>
                <path d="M595.82,767.04L595.82,984.41L596.36,984.41L595.82,767.04Z" style="fill:rgb(2,170,2);fill-rule:nonzero;"/>
                <path d="M604.41,743.16L610.67,740.02C608.38,740.78 606.27,741.85 604.41,743.16Z" style="fill:rgb(2,170,2);fill-rule:nonzero;"/>
                <path d="M599.3,748.36L604.38,743.19C602.34,744.64 600.62,746.39 599.3,748.36Z" style="fill:rgb(2,170,2);fill-rule:nonzero;"/>
                <path d="M596.36,757.74L599.27,748.39C597.42,751.15 596.36,754.34 596.36,757.74Z" style="fill:rgb(2,170,2);fill-rule:nonzero;"/>
                <path d="M610.68,740.02L615.44,738.94C613.78,739.16 612.19,739.53 610.68,740.02Z" style="fill:rgb(2,170,2);fill-rule:nonzero;"/>
                <path d="M596.36,984.41C596.36,985.06 596.72,985.68 597.39,986.27C596.43,985.29 596.36,984.41 596.36,984.41Z" style="fill:rgb(2,170,2);fill-rule:nonzero;"/>
                <path d="M613.13,989.79L616.38,989.79L616.38,738.74L615.43,738.96L610.67,740.04L604.41,743.18L604.39,743.19L604.38,743.2L599.3,748.37L599.28,748.39L599.28,748.4L596.37,757.75L595.83,767.06L596.37,984.43C596.37,984.43 596.44,985.3 597.4,986.29C598.19,987.11 599.6,988 602.08,988.56L607.58,989.8L613.13,989.8L613.13,989.79Z" style="fill:rgb(7,104,7);fill-rule:nonzero;"/>
                <path d="M672.25,756.06C668.55,756.06 665.55,759.51 665.55,763.76C665.55,764.4 665.63,765.02 665.75,765.61L665.75,842.96L641.26,842.96L641.26,757.74C641.26,747.24 631.21,738.73 618.81,738.73C617.99,738.73 617.18,738.77 616.38,738.84L616.38,989.78L607.56,989.78L602.06,988.54C606.17,989.81 612.15,990.61 618.81,990.61C631.21,990.61 641.26,987.83 641.26,984.4L641.26,870.19L676.65,870.19C677.8,870.19 678.73,868.86 678.73,867.21L678.73,765.61C678.86,765.02 678.93,764.4 678.93,763.76C678.95,759.5 675.95,756.06 672.25,756.06Z" style="fill:rgb(2,170,2);fill-rule:nonzero;"/>
            </g>
            <g>
                <path d="M476.24,845.34L476.24,984.95L476.78,984.95L476.47,845.2C476.4,845.26 476.32,845.3 476.24,845.34Z" style="fill:rgb(2,170,2);fill-rule:nonzero;"/>
                <path d="M476.24,738.07L476.24,816.7C476.3,816.73 476.36,816.77 476.41,816.8L476.24,738.07Z" style="fill:rgb(2,170,2);fill-rule:nonzero;"/>
                <path d="M476.24,727.5L476.24,738.07L476.78,727.5L476.24,727.5Z" style="fill:rgb(2,170,2);fill-rule:nonzero;"/>
                <path d="M484.8,710.98C479.9,714.94 476.78,720.87 476.78,727.5L479.7,716.87L484.8,710.98Z" style="fill:rgb(2,170,2);fill-rule:nonzero;"/>
                <path d="M484.83,710.95L491.09,707.38C488.8,708.24 486.69,709.46 484.83,710.95Z" style="fill:rgb(2,170,2);fill-rule:nonzero;"/>
                <path d="M491.1,707.38L495.85,706.16C494.2,706.4 492.61,706.82 491.1,707.38Z" style="fill:rgb(2,170,2);fill-rule:nonzero;"/>
                <path d="M499.23,705.92C498.41,705.92 497.6,705.97 496.8,706.05L496.8,991.06L487.98,991.06L482.48,989.65C486.59,991.09 492.57,992 499.23,992C511.63,992 521.68,988.84 521.68,984.95L521.68,727.5C521.69,715.58 511.64,705.92 499.23,705.92Z" style="fill:rgb(2,170,2);fill-rule:nonzero;"/>
                <path d="M476.78,984.95C476.78,985.69 477.14,986.4 477.81,987.06C476.85,985.94 476.78,984.95 476.78,984.95Z" style="fill:rgb(2,170,2);fill-rule:nonzero;"/>
                <path d="M493.55,991.05L496.8,991.05L496.8,705.91L495.85,706.15L491.1,707.37L484.84,710.94L484.82,710.95L484.81,710.97L479.71,716.86L476.79,727.49L476.25,738.06L476.42,816.8C476.36,816.76 476.31,816.73 476.25,816.7C475.77,816.42 475.26,816.26 474.72,816.26L461.28,816.26L461.28,770.9C461.28,763.06 457.38,756.71 452.57,756.71L450.23,756.71C445.42,756.71 441.52,763.06 441.52,770.9L441.52,819.76C441.52,820.52 441.57,821.26 441.64,821.98C441.57,822.51 441.52,823.06 441.52,823.63L441.52,838.39C441.52,842.47 443.55,845.77 446.05,845.77L474.73,845.77C475.27,845.77 475.78,845.61 476.26,845.33C476.34,845.28 476.42,845.24 476.49,845.19L476.8,984.94C476.8,984.94 476.87,985.93 477.83,987.05C478.62,987.98 480.03,988.99 482.51,989.63L488.01,991.04L493.55,991.04L493.55,991.05Z" style="fill:rgb(7,104,7);fill-rule:nonzero;"/>
            </g>
            <g>
                <path d="M531.35,782.64L531.35,980.54L532.04,980.54L531.65,782.44C531.55,782.52 531.45,782.58 531.35,782.64Z" style="fill:rgb(2,170,2);fill-rule:nonzero;"/>
                <path d="M531.35,630.59L531.35,742.06C531.42,742.11 531.5,742.15 531.57,742.21L531.35,630.59Z" style="fill:rgb(2,170,2);fill-rule:nonzero;"/>
                <path d="M531.35,615.6L531.35,630.59L532.04,615.6L531.35,615.6Z" style="fill:rgb(2,170,2);fill-rule:nonzero;"/>
                <path d="M532.04,615.6L535.76,600.55C533.39,604.99 532.04,610.12 532.04,615.6Z" style="fill:rgb(2,170,2);fill-rule:nonzero;"/>
                <path d="M535.78,600.5L542.27,592.18C539.67,594.51 537.47,597.33 535.78,600.5Z" style="fill:rgb(2,170,2);fill-rule:nonzero;"/>
                <path d="M542.32,592.14L550.32,587.08C547.38,588.3 544.69,590.02 542.32,592.14Z" style="fill:rgb(2,170,2);fill-rule:nonzero;"/>
                <path d="M550.32,587.08L556.39,585.35C554.28,585.69 552.25,586.28 550.32,587.08Z" style="fill:rgb(2,170,2);fill-rule:nonzero;"/>
                <path d="M546.33,989.18C546.22,989.15 545.4,988.92 539.33,987.19C541.34,987.98 543.7,988.65 546.33,989.18Z" style="fill:rgb(2,170,2);fill-rule:nonzero;"/>
                <path d="M532.05,980.63C532.08,981.64 532.53,982.62 533.35,983.54C532.3,982.17 532.09,980.95 532.05,980.63Z" style="fill:rgb(2,170,2);fill-rule:nonzero;"/>
                <path d="M557.6,989.2L557.6,585L556.39,585.35L550.32,587.08L542.32,592.14L542.29,592.16L542.27,592.18L535.78,600.5L535.76,600.53L535.75,600.55L532.03,615.6L531.34,630.59L531.56,742.21C531.49,742.16 531.41,742.11 531.34,742.06C530.73,741.66 530.07,741.43 529.38,741.43L512.22,741.43L512.22,677.14C512.22,666.03 507.24,657.03 501.09,657.03L498.1,657.03C491.96,657.03 486.97,666.03 486.97,677.14L486.97,746.4C486.97,747.48 487.03,748.52 487.12,749.55C487.03,750.3 486.97,751.08 486.97,751.89L486.97,772.81C486.97,778.59 489.56,783.27 492.76,783.27L529.38,783.27C530.07,783.27 530.73,783.04 531.34,782.64C531.44,782.57 531.54,782.52 531.64,782.44L532.03,980.54C532.03,980.54 532.03,980.58 532.04,980.63C532.08,980.95 532.29,982.17 533.34,983.54C534.35,984.85 536.14,986.3 539.31,987.2C545.38,988.92 546.2,989.16 546.31,989.19C546.33,989.19 546.33,989.2 546.33,989.2L557.6,989.2Z" style="fill:rgb(7,104,7);fill-rule:nonzero;"/>
                <path d="M615.98,632.71L613.21,632.71C609.33,632.71 606.19,637.83 606.19,644.14L606.19,698.99L589.38,698.99L589.38,615.6C589.38,598.7 576.54,585 560.71,585C559.66,585 558.62,585.06 557.6,585.18L557.6,989.18L546.35,989.18C550.57,990.03 555.47,990.53 560.7,990.53C576.54,990.53 589.37,986.06 589.37,980.54L589.37,733.1L611.16,733.1C611.72,733.1 612.26,732.92 612.77,732.68C612.91,732.69 613.06,732.72 613.2,732.72L615.97,732.72C619.85,732.72 622.99,727.6 622.99,721.29L622.99,644.15C623,637.82 619.86,632.71 615.98,632.71Z" style="fill:rgb(2,170,2);fill-rule:nonzero;"/>
            </g>
        </g>
        <g id="Baum">
            <g transform="matrix(1,0,0,1,-1152.98,0)">
                <path d="M11936.5,499.73L11936.6,494.28C11935.7,495.65 11934.7,496.98 11933.6,498.27C11934.6,498.75 11935.5,499.24 11936.5,499.73Z" style="fill:none;fill-rule:nonzero;"/>
                <path d="M11868.2,619.6C11866.5,630.77 11855.1,640.45 11838.5,646.16L11838.5,654.51L11933.5,654.51L11934.6,625.14L11934.8,612.33C11919.4,617.01 11899.6,619.82 11878,619.82C11874.7,619.82 11871.5,619.73 11868.2,619.6Z" style="fill:none;fill-rule:nonzero;"/>
                <path d="M11920,311.32C11926.2,318.93 11929.8,328.01 11929.8,337.77C11929.8,357.41 11915.2,374.32 11894.3,381.97L11938.2,381.97L11939.6,289.67C11934.9,297.8 11928.3,305.14 11920,311.32Z" style="fill:none;fill-rule:nonzero;"/>
                <path d="M11840.4,381.98L11843.9,381.98C11842.6,381.5 11841.3,381 11840.1,380.46L11840.4,381.98Z" style="fill:none;fill-rule:nonzero;"/>
                <path d="M11960.5,314.1L11962.5,423.34C12082.4,414.31 12138.5,410.09 12164.8,408.11C12164.8,406.8 12164.9,405.11 12164.9,402.97C12149.1,409.31 12128.8,411.9 12107.2,409.32C12061,403.8 12026.1,376.72 12029.4,348.84C12030,343.35 12032.1,338.24 12035.4,333.61C12024.9,331.43 12015,327.78 12006.7,322.81C11980,312 11963.1,296.16 11964.9,280.58C11965.2,278.15 11966,275.82 11967.1,273.6C11965.2,273.8 11963.2,273.92 11961.1,273.92C11961,273.92 11960.8,273.91 11960.6,273.91L11960.6,314.09L11960.5,314.09L11960.5,314.1Z" style="fill:none;fill-rule:nonzero;"/>
                <path d="M11756.2,485.06C11756.2,491.23 11750.6,496.84 11741.5,501.02C11763.4,508.63 11777.4,520.02 11777.4,532.75L11777.4,532.76C11807.1,533.04 11831.1,545.37 11831.1,560.55C11831.1,569.11 11823.5,576.75 11811.5,581.86C11843.6,583.91 11868.5,598.68 11868.5,616.62C11868.5,617.63 11868.4,618.62 11868.3,619.61C11871.5,619.74 11874.7,619.83 11878.1,619.83C11899.6,619.83 11919.4,617.02 11934.8,612.34L11936.5,499.74C11935.6,499.25 11934.6,498.76 11933.7,498.28C11934.8,497 11935.7,495.66 11936.6,494.29L11936.9,469.74C11928.9,455.85 11907.2,445.89 11881.8,445.89C11866.6,445.89 11852.8,449.42 11842.4,455.2C11829.8,446.09 11811.8,440.39 11791.8,440.39C11765.3,440.39 11742.2,450.47 11730.6,465.24C11746,469.37 11756.2,476.7 11756.2,485.06Z" style="fill:rgb(39,173,39);fill-rule:nonzero;"/>
                <path d="M11967.5,536.29C11967.5,532.07 11966.4,527.94 11964.3,523.95L11964.7,547.81C11966.5,544.08 11967.5,540.22 11967.5,536.29Z" style="fill:rgb(84,232,84);fill-rule:nonzero;"/>
                <path d="M11967.5,586.86C11967.5,584.34 11966.7,581.89 11965.3,579.53L11965.5,593.76C11966.8,591.54 11967.5,589.23 11967.5,586.86Z" style="fill:rgb(84,232,84);fill-rule:nonzero;"/>
                <path d="M11838.5,654.51L11838.5,646.16C11831.2,648.71 11822.8,650.47 11813.8,651.22L11811.6,677.59L11932.5,677.59L11933.5,654.51L11838.5,654.51Z" style="fill:rgb(163,114,15);fill-rule:nonzero;"/>
                <path d="M12101.9,751.62L12109.1,751.89L12109.1,709.1C12106.8,710.27 12104.4,711.26 12101.9,712.07L12101.9,751.62Z" style="fill:rgb(163,114,15);fill-rule:nonzero;"/>
                <path d="M12036.7,331.83C12025.8,329.53 12015.7,326.47 12006.7,322.82C12015,327.79 12024.9,331.43 12035.4,333.62C12035.8,333.01 12036.3,332.42 12036.7,331.83Z" style="fill:rgb(84,232,84);fill-rule:nonzero;"/>
                <path d="M12410.8,303.04C12407.3,332.75 12364,351.99 12314,346.02C12312.6,345.86 12311.3,345.68 12310,345.48C12312.1,350.04 12313,354.78 12312.4,359.55C12309.8,381.67 12277.4,395.98 12239.9,391.51C12222.2,389.4 12206.6,383.47 12195.3,375.48C12196,373.34 12196.5,371.12 12196.8,368.83C12198.1,357.57 12193.2,346.44 12183.9,336.81C12230,341.63 12268.9,328.81 12271.4,307.64C12273.9,286.04 12237.5,263.95 12190.2,258.3C12163.3,255.09 12138.7,257.87 12122,264.8C12118.5,263.14 12114.9,261.55 12111,260.08C12125.1,254.22 12134.7,244.26 12136.2,232.04C12138.8,209.67 12113,188.19 12078.5,184.08C12068.1,182.83 12058,183.33 12049,185.24C12049.2,183.73 12049.3,182.2 12049,180.67C12047.7,172.13 12039.6,164.7 12027.4,159.34C12040.6,151.73 12048.7,141.82 12048.7,130.97C12048.7,124.47 12045.8,118.3 12040.6,112.76C12055.5,108.56 12067.3,103.28 12074.7,97.32C12087.9,92.99 12096.2,87.02 12097.5,79.92C12099.4,68.84 12083.4,57.63 12057.6,49.66C12068.5,44.83 12075.4,38.79 12076.6,31.84C12078.5,20.9 12066,9.88 12044.5,1.01L12228.4,1.01C12240.6,9.47 12246.9,19.22 12245.2,29.07C12244.4,34.05 12241.5,38.67 12237,42.83C12275.8,48.98 12295.5,77.71 12281.3,108.96C12275.5,121.8 12264.8,133.14 12251.4,141.93C12262.6,153.79 12265.8,169.82 12258.1,186.58C12258,186.85 12257.9,187.11 12257.8,187.36C12282.4,198.1 12298.3,217.6 12296.3,237.91C12305.9,237.07 12316.1,237.21 12326.6,238.47C12376.5,244.41 12414.3,273.34 12410.8,303.04Z" style="fill:rgb(39,173,39);fill-rule:nonzero;"/>
                <path d="M11843.9,381.98L11894.3,381.98C11915.2,374.33 11929.8,357.42 11929.8,337.78C11929.8,328.02 11926.2,318.94 11920,311.33C11928.3,305.14 11935,297.81 11939.6,289.69L11939.9,269.64C11934.6,267.23 11930.5,263.94 11928.3,260.15C11903.1,254.52 11885.5,244.49 11882.4,232.8C11869.4,246.26 11848.7,255.72 11824.9,258.08C11826.5,262.39 11827.4,266.99 11827.4,271.76C11827.4,280.4 11824.5,288.45 11819.6,295.28C11837.6,298.44 11851.1,312.11 11851.1,328.5C11851.1,339.65 11844.9,349.55 11835.2,355.73L11836.3,361.36C11838,364.86 11838.9,368.59 11838.9,372.46C11838.9,372.99 11838.8,373.51 11838.8,374.03L11840.1,380.47C11841.3,381 11842.6,381.5 11843.9,381.98Z" style="fill:rgb(39,173,39);fill-rule:nonzero;"/>
                <path d="M11742.6,166.55C11734.8,172.6 11728.9,180.13 11725.5,188.58C11727.3,187.84 11729.1,187.15 11731,186.5C11733.1,179.28 11737.1,172.54 11742.6,166.55Z" style="fill:rgb(84,232,84);fill-rule:nonzero;"/>
                <path d="M12120.7,608.08C12121.5,618.73 12117.7,628.86 12110.9,636.76C12123.5,642.84 12132.4,654.53 12133.4,668.73C12134.3,679.94 12130.1,690.6 12122.7,698.81C12128.9,706.94 12137.8,713.04 12148.5,715.61C12173.8,721.71 12199.6,705.62 12206.1,679.67C12209.6,665.62 12206.7,651.57 12199.3,640.66C12206.8,633.84 12212.5,624.64 12215.2,613.88C12222,586.5 12206.9,559.33 12181.4,553.21C12165.4,549.35 12149.1,554.75 12137.5,566.11C12131.5,556.02 12121.8,548.38 12109.8,545.49C12096.6,542.32 12083.2,545.5 12072.6,553.13C12077.4,558.46 12080.5,565.11 12081.1,572.55C12102,573.21 12119.2,588.1 12120.7,608.08Z" style="fill:rgb(39,173,39);fill-rule:nonzero;"/>
                <path d="M11868.2,619.6C11868.4,618.61 11868.5,617.62 11868.5,616.61C11868.5,598.67 11843.6,583.89 11811.5,581.85C11823.5,576.75 11831.1,569.1 11831.1,560.54C11831.1,545.36 11807.1,533.02 11777.3,532.75L11777.3,532.74C11777.3,520.01 11763.4,508.62 11741.5,501.01C11750.6,496.84 11756.2,491.23 11756.2,485.05C11756.2,476.69 11746,469.36 11730.6,465.24C11722.2,463 11712.4,461.71 11701.8,461.71C11671.8,461.71 11647.4,472.16 11647.4,485.05C11647.4,487.72 11648.4,490.29 11650.4,492.68C11607.5,497.44 11576,513.57 11576,532.73C11576,545.74 11590.5,557.35 11613.3,564.96C11597.3,569.5 11586.9,577.1 11586.9,585.71C11586.9,599.61 11614.1,610.88 11647.7,610.88C11653.4,610.88 11658.9,610.55 11664.1,609.95C11663,612.08 11662.4,614.31 11662.4,616.6C11662.4,632.02 11689.9,644.52 11723.9,644.52C11735.8,644.52 11746.9,642.98 11756.4,640.33C11768.2,647.27 11785.1,651.61 11803.9,651.61C11807.2,651.61 11810.5,651.47 11813.8,651.2C11822.8,650.45 11831.1,648.68 11838.5,646.14C11855.1,640.45 11866.5,630.77 11868.2,619.6Z" style="fill:rgb(4,137,4);fill-rule:nonzero;"/>
                <path d="M12093.9,751.31L12101.9,751.61L12101.9,712.06C12099.3,712.89 12096.7,713.52 12093.9,713.93L12093.9,751.31Z" style="fill:rgb(130,86,16);fill-rule:nonzero;"/>
                <path d="M12101.9,712.07C12104.4,711.26 12106.8,710.27 12109.1,709.1C12114.3,706.46 12118.9,702.94 12122.7,698.8C12130.1,690.59 12134.3,679.93 12133.4,668.72C12132.4,654.52 12123.5,642.83 12110.9,636.75C12117.7,628.85 12121.5,618.72 12120.7,608.07C12119.2,588.09 12102,573.2 12081.1,572.53C12080.5,565.09 12077.4,558.44 12072.6,553.11C12064.3,543.93 12051,538.69 12036.3,540.2C12013.1,542.59 11995.6,560.98 11997.1,581.27C11997.7,588.75 12000.8,595.43 12005.6,600.78C11992.2,607.62 11983.6,620.17 11984.6,633.56C11985.4,643.9 11991.7,652.56 12001.2,657.81C11992.8,666.19 11987.9,677.78 11988.9,690.05C11990.6,712.51 12010.9,728.76 12034.4,726.34C12047,725.03 12058,718.52 12065.1,709.26C12072.8,713.3 12082.1,715.2 12091.8,714.2C12092.5,714.13 12093.2,714.03 12093.9,713.93C12096.7,713.53 12099.3,712.89 12101.9,712.07Z" style="fill:rgb(4,137,4);fill-rule:nonzero;"/>
                <path d="M11838.8,406.59L11818,407.19L11838.8,406.59Z" style="fill:rgb(130,86,16);fill-rule:nonzero;"/>
                <path d="M12165.3,402.82C12165.1,402.87 12165,402.92 12164.9,402.97C12164.9,405.11 12164.8,406.8 12164.8,408.11C12138.5,410.09 12082.4,414.31 11962.5,423.34L11960.5,314.1L11960.6,314.1L11960.6,273.92C11957.7,273.9 11954.8,273.64 11952.1,273.2L11952.1,726.58L11946.9,856.64L11943.8,984.56C11952,984.46 11960.3,984.73 11968.6,984.99C11968.7,984.95 11968.8,984.9 11968.9,984.86C11970.7,984.29 11972.6,983.95 11974.5,983.92L11968.7,746.57L12093.9,751.3L12093.9,729.4C12077.2,729.35 12042,729.23 11968.3,728.99L11966.9,671.04L11965.5,593.76L11965.2,579.53L11964.7,547.81L11964.2,523.95L11962.8,441.05L12163.6,429.62L12165.3,402.82Z" style="fill:rgb(163,114,15);fill-rule:nonzero;"/>
                <path d="M11894.3,381.98L11840.4,381.98L11840.1,380.46L11838.8,374.02C11838.1,385.06 11830.1,394.83 11818,401.24L11818,407.19L11838.8,406.6L11937.9,403.77L11938.2,381.99L11894.3,381.99L11894.3,381.98Z" style="fill:rgb(163,114,15);fill-rule:nonzero;"/>
                <path d="M12175.1,397.99L12175.1,428.97L12187.9,428.24L12187.9,406.38L12187,406.45L12184.9,390.74C12182.1,393.39 12178.8,395.81 12175.1,397.99Z" style="fill:rgb(163,114,15);fill-rule:nonzero;"/>
                <path d="M11833.6,356.69C11834.6,358.19 11835.5,359.74 11836.3,361.34L11835.2,355.71C11834.6,356.05 11834.1,356.37 11833.6,356.69Z" style="fill:rgb(163,114,15);fill-rule:nonzero;"/>
                <path d="M12165.3,402.82L12163.6,429.61L12175.1,428.96L12175.1,397.98C12172.1,399.77 12168.8,401.39 12165.3,402.82Z" style="fill:rgb(130,86,16);fill-rule:nonzero;"/>
                <path d="M11921.7,984.3C11925.6,983.97 11929.1,984.51 11932.9,984.96C11936.6,984.73 11940.2,984.61 11943.8,984.56L11946.9,856.64L11952.1,726.58L11952.1,273.21C11947.6,272.49 11943.5,271.27 11939.9,269.63L11939.6,289.68L11938.2,381.98L11937.9,403.76L11936.9,469.74L11936.6,494.29L11936.5,499.74L11934.8,612.34L11934.6,625.15L11933.5,654.52L11932.5,677.6L11920.4,983.96C11920.6,984 11920.9,984.05 11921.1,984.13C11921.3,984.18 11921.5,984.24 11921.7,984.3Z" style="fill:rgb(130,86,16);fill-rule:nonzero;"/>
                <path d="M12271.4,307.64C12268.9,328.81 12230,341.63 12183.9,336.81C12193.2,346.44 12198.1,357.57 12196.8,368.83C12196.5,371.11 12196,373.33 12195.3,375.48C12193.3,381.11 12189.8,386.24 12184.9,390.73C12182.1,393.38 12178.8,395.8 12175.1,397.98C12172.1,399.77 12168.8,401.39 12165.3,402.82C12165.1,402.87 12165,402.93 12164.9,402.97C12149.1,409.32 12128.8,411.91 12107.2,409.33C12061,403.81 12026.1,376.73 12029.4,348.84C12030,343.35 12032.1,338.24 12035.4,333.61C12035.8,333.01 12036.2,332.41 12036.7,331.82C12025.8,329.52 12015.6,326.46 12006.6,322.81C11979.9,312 11963.1,296.16 11964.9,280.58C11965.2,278.16 11966,275.83 11967.1,273.61C11965.1,273.8 11963.2,273.93 11961.1,273.93C11961,273.93 11960.8,273.92 11960.6,273.92C11957.7,273.89 11954.8,273.64 11952.1,273.2C11947.6,272.48 11943.5,271.26 11939.9,269.62C11934.6,267.21 11930.5,263.93 11928.3,260.13C11903.1,254.5 11885.5,244.47 11882.4,232.77C11869.4,246.24 11848.7,255.69 11824.9,258.06C11826.5,262.37 11827.4,266.96 11827.4,271.73C11827.4,280.37 11824.5,288.43 11819.6,295.26C11837.6,298.41 11851.1,312.09 11851.1,328.47C11851.1,339.62 11844.9,349.51 11835.2,355.7C11834.6,356.03 11834.1,356.36 11833.5,356.68C11834.6,358.18 11835.5,359.74 11836.3,361.33C11837.9,364.83 11838.9,368.56 11838.9,372.43C11838.9,372.96 11838.8,373.48 11838.8,374C11838.1,385.05 11830.1,394.82 11818,401.23C11810.9,404.96 11802.4,407.56 11793.2,408.6C11790.2,408.94 11787.1,409.11 11784,409.11C11755.6,409.11 11732.2,394.64 11729.4,376.11C11720.5,392.13 11705.6,402.64 11688.6,402.64C11684.8,402.64 11681,402.1 11677.4,401.09C11655.5,394.83 11639.1,370.49 11639.1,341.43C11639.1,326.25 11643.5,312.37 11650.9,301.66C11633,293.75 11620.6,277.2 11620.6,258.08C11620.6,243.33 11628,230.12 11639.6,221.22C11649.1,213.91 11661.4,209.5 11674.9,209.5C11682.7,209.5 11690.2,210.99 11696.9,213.65C11700.6,203.48 11711,194.64 11725.5,188.58C11727.3,187.84 11729.1,187.15 11731,186.5C11731.5,184.63 11732.2,182.8 11733,181.01C11735.3,175.85 11738.5,170.99 11742.6,166.54C11744.6,164.31 11746.8,162.18 11749.3,160.16C11718.8,152.44 11697.8,136.3 11697.8,117.64C11697.8,114.85 11698.3,112.13 11699.2,109.48C11684,98.65 11676,85.98 11678.3,73.11C11679.1,67.93 11681.7,63.04 11685.5,58.52C11672.5,48.81 11665.7,37.51 11667.7,26.02C11669.3,16.37 11677,7.83 11688.8,0.99L12044.5,0.99C12066,9.86 12078.5,20.88 12076.6,31.82C12075.4,38.77 12068.5,44.82 12057.6,49.64C12083.4,57.62 12099.3,68.83 12097.4,79.9C12096.2,87 12087.8,92.96 12074.7,97.3C12067.2,103.26 12055.5,108.54 12040.6,112.74C12045.8,118.28 12048.7,124.45 12048.7,130.95C12048.7,141.79 12040.6,151.7 12027.3,159.32C12039.6,164.68 12047.7,172.11 12049,180.65C12049.2,182.18 12049.2,183.71 12049,185.22C12058,183.31 12068,182.81 12078.5,184.06C12112.9,188.17 12138.8,209.65 12136.1,232.02C12134.7,244.25 12125.1,254.21 12111,260.06C12114.8,261.53 12118.5,263.12 12122,264.78C12138.7,257.85 12163.3,255.07 12190.2,258.28C12237.5,263.95 12273.9,286.04 12271.4,307.64Z" style="fill:rgb(4,137,4);fill-rule:nonzero;"/>
            </g>
            <g>
                <path d="M6502.8,576.48L6502.88,570.89C6501.99,572.3 6500.98,573.66 6499.82,574.98C6500.85,575.47 6501.82,575.98 6502.8,576.48Z" style="fill:none;fill-rule:nonzero;"/>
                <path d="M6430.88,699.53C6429.04,711 6417.01,720.93 6399.56,726.79L6399.56,735.36L6499.61,735.36L6500.84,705.21L6501.04,692.06C6484.76,696.86 6463.92,699.75 6441.2,699.75C6437.71,699.75 6434.28,699.66 6430.88,699.53Z" style="fill:none;fill-rule:nonzero;"/>
                <path d="M6485.48,383.08C6492.01,390.89 6495.8,400.22 6495.8,410.23C6495.8,430.39 6480.42,447.75 6458.31,455.61L6504.64,455.61L6506.08,360.87C6501.19,369.2 6494.16,376.73 6485.48,383.08Z" style="fill:none;fill-rule:nonzero;"/>
                <path d="M6401.49,455.61L6405.23,455.61C6403.85,455.12 6402.49,454.61 6401.17,454.05L6401.49,455.61Z" style="fill:none;fill-rule:nonzero;"/>
                <path d="M6528.13,385.93L6530.19,498.07C6656.61,488.81 6715.77,484.47 6743.46,482.44C6743.49,481.09 6743.53,479.36 6743.58,477.16C6726.92,483.67 6705.55,486.33 6682.76,483.68C6634.03,478.01 6597.31,450.22 6600.74,421.6C6601.42,415.96 6603.62,410.72 6607.07,405.96C6596,403.72 6585.62,399.98 6576.78,394.88C6548.63,383.79 6530.88,367.53 6532.8,351.53C6533.1,349.03 6533.89,346.65 6535.09,344.37C6533.05,344.57 6530.96,344.7 6528.81,344.7C6528.63,344.7 6528.46,344.69 6528.29,344.68L6528.29,385.92L6528.13,385.92L6528.13,385.93Z" style="fill:none;fill-rule:nonzero;"/>
                <path d="M6312.81,561.42C6312.81,567.76 6306.91,573.51 6297.3,577.8C6320.39,585.61 6335.06,597.3 6335.06,610.37L6335.06,610.38C6366.44,610.66 6391.7,623.32 6391.7,638.91C6391.7,647.69 6383.67,655.54 6371.06,660.78C6404.89,662.88 6431.14,678.05 6431.14,696.47C6431.14,697.5 6431.04,698.52 6430.88,699.53C6434.28,699.66 6437.71,699.75 6441.2,699.75C6463.92,699.75 6484.76,696.87 6501.04,692.06L6502.8,576.48C6501.82,575.98 6500.84,575.47 6499.83,574.98C6500.99,573.66 6502,572.29 6502.89,570.89L6503.27,545.69C6494.79,531.43 6471.97,521.21 6445.15,521.21C6429.18,521.21 6414.62,524.83 6403.67,530.77C6390.35,521.42 6371.38,515.57 6350.32,515.57C6322.32,515.57 6298.02,525.91 6285.79,541.08C6302.01,545.32 6312.81,552.84 6312.81,561.42Z" style="fill:rgb(84,232,84);fill-rule:nonzero;"/>
                <path d="M6535.49,614C6535.49,609.66 6534.3,605.43 6532.09,601.34L6532.54,625.84C6534.47,622 6535.49,618.05 6535.49,614Z" style="fill:rgb(84,232,84);fill-rule:nonzero;"/>
                <path d="M6535.49,665.92C6535.49,663.33 6534.67,660.81 6533.14,658.39L6533.41,673C6534.76,670.72 6535.49,668.35 6535.49,665.92Z" style="fill:rgb(84,232,84);fill-rule:nonzero;"/>
                <path d="M6399.56,735.36L6399.56,726.79C6391.79,729.4 6382.95,731.21 6373.46,731.98L6371.2,759.05L6498.65,759.05L6499.61,735.36L6399.56,735.36Z" style="fill:rgb(163,114,15);fill-rule:nonzero;"/>
                <path d="M6677.18,835.04L6684.8,835.32L6684.8,791.4C6682.38,792.6 6679.83,793.62 6677.18,794.45L6677.18,835.04Z" style="fill:rgb(163,114,15);fill-rule:nonzero;"/>
                <path d="M6368.9,729.03L6368.26,759.63L6380.34,758.96L6380.34,727.16C6377.15,728.99 6372.61,727.56 6368.9,729.03Z" style="fill:rgb(130,86,16);fill-rule:nonzero;"/>
                <path d="M6608.47,404.13C6596.96,401.77 6586.28,398.62 6576.79,394.88C6585.62,399.98 6596.01,403.72 6607.08,405.96C6607.52,405.35 6607.98,404.73 6608.47,404.13Z" style="fill:rgb(84,232,84);fill-rule:nonzero;"/>
                <path d="M7002.77,374.58C6999.11,405.07 6953.44,424.82 6900.75,418.69C6899.33,418.53 6897.92,418.35 6896.52,418.14C6898.73,422.82 6899.66,427.69 6899.08,432.59C6896.36,455.3 6862.12,469.98 6822.62,465.39C6803.97,463.22 6787.5,457.13 6775.58,448.93C6776.36,446.73 6776.93,444.46 6777.21,442.11C6778.6,430.54 6773.43,419.11 6763.57,409.23C6812.2,414.18 6853.2,401.02 6855.81,379.29C6858.46,357.12 6820.16,334.45 6770.25,328.64C6741.94,325.35 6716,328.2 6698.35,335.32C6694.71,333.6 6690.85,331.99 6686.79,330.47C6701.63,324.46 6711.8,314.24 6713.31,301.68C6716.06,278.72 6688.83,256.68 6652.5,252.45C6641.5,251.17 6630.93,251.68 6621.46,253.64C6621.67,252.09 6621.7,250.52 6621.45,248.94C6620.1,240.18 6611.56,232.56 6598.6,227.05C6612.61,219.23 6621.09,209.06 6621.09,197.94C6621.09,191.26 6618.04,184.94 6612.58,179.25C6628.26,174.93 6640.67,169.51 6648.53,163.39C6662.39,158.94 6671.2,152.81 6672.49,145.53C6674.5,134.16 6657.69,122.65 6630.47,114.46C6642.02,109.51 6649.25,103.3 6650.51,96.17C6654.37,74.24 6600.64,51.97 6530.47,46.42C6525.42,46.02 6520.43,45.73 6515.51,45.52C6516.53,43.75 6517.25,41.9 6517.59,39.97C6519.29,30.36 6511.64,20.94 6497.95,13.52C6500.89,9.65 6505.06,6.11 6510.24,2.97L6653,2.97C6672.14,12.3 6683.25,24.93 6681.31,37.95C6693.63,37.24 6706.72,37.36 6720.19,38.42C6784.32,43.49 6832.7,68.06 6828.24,93.29C6827.34,98.41 6824.31,103.14 6819.57,107.42C6860.46,113.73 6881.31,143.22 6866.34,175.29C6860.19,188.47 6848.91,200.11 6834.79,209.13C6846.58,221.31 6849.92,237.77 6841.9,254.96C6841.77,255.23 6841.62,255.5 6841.49,255.77C6867.45,266.79 6884.19,286.81 6882.07,307.66C6892.2,306.8 6902.95,306.95 6914.01,308.23C6966.68,314.4 7006.42,344.08 7002.77,374.58Z" style="fill:rgb(84,232,84);fill-rule:nonzero;"/>
                <path d="M6405.23,455.61L6458.3,455.61C6480.41,447.75 6495.79,430.4 6495.79,410.23C6495.79,400.21 6492,390.89 6485.47,383.08C6494.15,376.73 6501.18,369.2 6506.07,360.86L6506.38,340.28C6500.82,337.8 6496.54,334.43 6494.18,330.53C6467.66,324.75 6449.03,314.45 6445.84,302.45C6432.07,316.27 6410.32,325.97 6385.19,328.4C6386.9,332.83 6387.83,337.54 6387.83,342.44C6387.83,351.3 6384.8,359.57 6379.58,366.58C6398.57,369.82 6412.85,383.85 6412.85,400.68C6412.85,412.13 6406.23,422.28 6396.02,428.63L6397.19,434.41C6398.94,438 6399.89,441.83 6399.89,445.8C6399.89,446.34 6399.86,446.88 6399.83,447.42L6401.17,454.03C6402.5,454.61 6403.86,455.12 6405.23,455.61Z" style="fill:rgb(84,232,84);fill-rule:nonzero;"/>
                <path d="M6298.41,234.47C6290.26,240.68 6284.01,248.41 6280.42,257.09C6282.28,256.33 6284.2,255.62 6286.18,254.95C6288.45,247.54 6292.65,240.63 6298.41,234.47Z" style="fill:rgb(84,232,84);fill-rule:nonzero;"/>
                <path d="M6696.98,687.7C6697.83,698.63 6693.83,709.03 6686.64,717.14C6699.93,723.38 6709.3,735.38 6710.43,749.95C6711.32,761.45 6706.92,772.4 6699.07,780.82C6705.64,789.16 6715,795.43 6726.25,798.06C6752.98,804.32 6780.18,787.81 6787.02,761.17C6790.72,746.75 6787.69,732.32 6779.89,721.13C6787.74,714.13 6793.73,704.69 6796.57,693.64C6803.78,665.53 6787.86,637.65 6761.01,631.36C6744.11,627.4 6726.91,632.94 6714.68,644.6C6708.34,634.24 6698.15,626.4 6685.48,623.43C6671.58,620.17 6657.49,623.44 6646.31,631.27C6651.36,636.74 6654.6,643.57 6655.21,651.21C6677.28,651.91 6695.39,667.19 6696.98,687.7Z" style="fill:rgb(84,232,84);fill-rule:nonzero;"/>
                <path d="M6350.86,47.48C6357.59,48.01 6364.15,48.78 6370.5,49.74C6361.02,43.09 6356.03,35.28 6357.43,27.34C6357.62,26.23 6357.95,25.15 6358.38,24.09C6355.96,23.71 6353.46,23.4 6350.89,23.2C6326.75,21.29 6305.7,28.15 6303.87,38.53C6303.33,41.61 6304.55,44.64 6307.15,47.45C6320.94,46.32 6335.68,46.27 6350.86,47.48Z" style="fill:rgb(84,232,84);fill-rule:nonzero;"/>
                <path d="M6430.88,699.53C6431.04,698.52 6431.14,697.5 6431.14,696.47C6431.14,678.06 6404.89,662.88 6371.06,660.78C6383.68,655.54 6391.7,647.69 6391.7,638.91C6391.7,623.32 6366.44,610.67 6335.06,610.38L6335.06,610.37C6335.06,597.3 6320.39,585.61 6297.3,577.8C6306.91,573.52 6312.81,567.76 6312.81,561.42C6312.81,552.84 6302.01,545.32 6285.79,541.09C6276.99,538.79 6266.6,537.46 6255.45,537.46C6223.77,537.46 6198.09,548.19 6198.09,561.42C6198.09,564.16 6199.21,566.8 6201.24,569.25C6156.07,574.14 6122.82,590.69 6122.82,610.36C6122.82,623.72 6138.15,635.64 6162.14,643.44C6145.32,648.1 6134.29,655.9 6134.29,664.74C6134.29,679.01 6163.02,690.58 6198.46,690.58C6204.45,690.58 6210.24,690.24 6215.75,689.62C6214.54,691.81 6213.88,694.09 6213.88,696.45C6213.88,712.28 6242.93,725.11 6278.77,725.11C6291.31,725.11 6303.02,723.53 6312.95,720.81C6325.4,727.93 6343.22,732.39 6363.02,732.39C6366.57,732.39 6370.06,732.25 6373.46,731.97C6382.95,731.2 6391.78,729.39 6399.56,726.78C6417.01,720.93 6429.04,710.99 6430.88,699.53Z" style="fill:rgb(2,170,2);fill-rule:nonzero;"/>
                <path d="M6668.74,834.73L6677.18,835.04L6677.18,794.44C6674.47,795.29 6671.65,795.94 6668.74,796.36L6668.74,834.73Z" style="fill:rgb(130,86,16);fill-rule:nonzero;"/>
                <path d="M6677.18,794.44C6679.83,793.61 6682.38,792.59 6684.8,791.39C6690.27,788.68 6695.11,785.07 6699.07,780.82C6706.92,772.39 6711.33,761.45 6710.43,749.95C6709.3,735.37 6699.93,723.37 6686.64,717.14C6693.83,709.03 6697.83,698.63 6696.98,687.7C6695.39,667.19 6677.29,651.91 6655.2,651.22C6654.59,643.58 6651.35,636.76 6646.3,631.28C6637.59,621.86 6623.49,616.48 6608.06,618.03C6583.64,620.49 6565.15,639.36 6566.77,660.18C6567.37,667.85 6570.61,674.72 6575.69,680.21C6561.57,687.24 6552.44,700.11 6553.51,713.85C6554.33,724.46 6561.07,733.35 6570.99,738.74C6562.13,747.34 6557.03,759.24 6558.01,771.84C6559.8,794.89 6581.27,811.57 6605.97,809.09C6619.34,807.75 6630.91,801.06 6638.43,791.56C6646.55,795.71 6656.26,797.66 6666.5,796.63C6667.25,796.55 6668,796.46 6668.75,796.35C6671.65,795.94 6674.47,795.29 6677.18,794.44Z" style="fill:rgb(2,170,2);fill-rule:nonzero;"/>
                <path d="M6399.84,480.87L6377.88,481.48L6399.84,480.87Z" style="fill:rgb(130,86,16);fill-rule:nonzero;"/>
                <path d="M6743.97,477.01C6743.84,477.06 6743.71,477.12 6743.58,477.17C6743.53,479.36 6743.49,481.1 6743.46,482.45C6715.77,484.48 6656.6,488.82 6530.19,498.08L6528.13,385.94L6528.29,385.94L6528.29,344.7C6525.16,344.67 6522.14,344.41 6519.25,343.97L6519.25,809.35L6513.83,942.86L6512.46,986.75C6521.8,987.55 6531.79,986.33 6541.13,985.67L6536.8,829.88L6668.74,834.74L6668.74,812.25C6651.1,812.19 6614.08,812.08 6536.35,811.83L6534.87,752.35L6533.41,673.02L6533.14,658.41L6532.54,625.85L6532.09,601.35L6530.53,516.25L6742.24,504.51L6743.97,477.01Z" style="fill:rgb(163,114,15);fill-rule:nonzero;"/>
                <path d="M6504.64,455.61L6401.5,455.61L6401.18,454.05L6399.84,447.44C6399.1,458.77 6390.68,468.8 6377.89,475.38L6377.89,481.49L6399.84,480.88L6504.3,477.97L6504.64,455.61Z" style="fill:rgb(163,114,15);fill-rule:nonzero;"/>
                <path d="M6754.32,472.04L6754.32,503.84L6767.83,503.09L6767.83,480.66C6767.83,480.66 6766.32,463.09 6765.41,463.16C6762.4,465.87 6758.2,469.81 6754.32,472.04Z" style="fill:rgb(163,114,15);fill-rule:nonzero;"/>
                <path d="M6394.31,429.65C6395.43,431.19 6396.4,432.78 6397.2,434.42L6396.03,428.64C6395.47,428.99 6394.89,429.32 6394.31,429.65Z" style="fill:rgb(163,114,15);fill-rule:nonzero;"/>
                <path d="M6742.88,473.9L6742.24,504.5L6754.32,503.83L6754.32,472.03C6751.13,473.87 6746.58,472.44 6742.88,473.9Z" style="fill:rgb(130,86,16);fill-rule:nonzero;"/>
                <path d="M6490.51,985.62C6497.92,985.68 6505.32,986.35 6512.71,986.98L6513.28,956.25L6518.7,822.74L6519.24,343.95C6514.51,343.22 6510.16,341.96 6506.39,340.28L6506.08,360.86L6504.64,455.6L6504.3,477.96L6503.27,545.68L6502.89,570.88L6502.81,576.47L6501.05,692.05L6500.85,705.2L6499.62,735.35L6498.66,759.04L6489.44,985.71C6489.78,985.65 6490.13,985.61 6490.51,985.62Z" style="fill:rgb(130,86,16);fill-rule:nonzero;"/>
                <path d="M6468.52,3C6479.95,5.59 6489.96,9.24 6497.94,13.55C6511.63,20.97 6519.28,30.39 6517.58,40C6517.24,41.92 6516.52,43.77 6515.5,45.55C6520.43,45.77 6525.41,46.06 6530.46,46.45C6600.62,52 6654.36,74.26 6650.5,96.2C6649.24,103.33 6642.01,109.54 6630.46,114.49C6657.68,122.68 6674.49,134.19 6672.48,145.56C6671.19,152.84 6662.37,158.97 6648.52,163.42C6640.67,169.54 6628.25,174.96 6612.57,179.28C6618.03,184.97 6621.08,191.29 6621.08,197.97C6621.08,209.1 6612.6,219.27 6598.59,227.08C6611.55,232.58 6620.09,240.21 6621.44,248.97C6621.69,250.55 6621.67,252.12 6621.45,253.67C6630.92,251.7 6641.49,251.2 6652.49,252.48C6688.83,256.71 6716.06,278.75 6713.3,301.71C6711.78,314.27 6701.61,324.49 6686.78,330.5C6690.85,332.02 6694.71,333.63 6698.34,335.35C6716,328.23 6741.94,325.38 6770.24,328.67C6820.16,334.48 6858.46,357.15 6855.8,379.32C6853.19,401.05 6812.18,414.21 6763.56,409.26C6773.42,419.14 6778.59,430.57 6777.2,442.14C6776.92,444.48 6776.35,446.75 6775.57,448.96C6773.64,454.35 6770.27,459.29 6765.7,463.67C6765.36,463.98 6765.02,464.3 6764.68,464.62C6761.68,467.34 6758.2,469.83 6754.32,472.07C6751.13,473.9 6747.67,475.56 6743.98,477.04C6743.85,477.08 6743.72,477.14 6743.59,477.19C6743.33,477.29 6743.07,477.39 6742.81,477.48C6726.26,483.79 6705.19,486.32 6682.77,483.72C6634.03,478.05 6597.32,450.25 6600.75,421.63C6601.43,416 6603.64,410.75 6607.08,406C6607.53,405.38 6607.99,404.76 6608.47,404.16C6596.97,401.81 6586.29,398.66 6576.78,394.91C6548.64,383.81 6530.88,367.56 6532.8,351.56C6533.1,349.07 6533.89,346.68 6535.08,344.4C6533.03,344.6 6530.94,344.73 6528.8,344.73C6528.63,344.73 6528.45,344.72 6528.28,344.72C6525.15,344.69 6522.13,344.43 6519.24,343.98C6514.51,343.25 6510.16,341.99 6506.39,340.31C6500.83,337.83 6496.55,334.46 6494.19,330.56C6467.67,324.78 6449.04,314.49 6445.84,302.48C6432.08,316.31 6410.31,326 6385.19,328.43C6386.89,332.86 6387.83,337.58 6387.83,342.47C6387.83,351.34 6384.8,359.61 6379.58,366.62C6398.57,369.87 6412.85,383.9 6412.85,400.71C6412.85,412.16 6406.23,422.32 6396.01,428.66C6395.46,429 6394.88,429.34 6394.3,429.67C6395.42,431.21 6396.39,432.8 6397.19,434.44C6398.94,438.03 6399.89,441.86 6399.89,445.83C6399.89,446.38 6399.86,446.92 6399.82,447.45C6399.09,458.77 6390.66,468.8 6377.87,475.39C6368.02,480.45 6355.6,483.49 6342.08,483.49C6312.1,483.49 6287.46,468.63 6284.56,449.61C6275.14,466.06 6259.39,476.84 6241.53,476.84C6212.69,476.84 6189.31,448.7 6189.31,414C6189.31,398.42 6194.03,384.17 6201.83,373.19C6182.9,365.06 6169.89,348.08 6169.89,328.44C6169.89,300.91 6195.49,278.58 6227.08,278.58C6235.32,278.58 6243.17,280.11 6250.25,282.85C6254.15,272.4 6265.14,263.33 6280.42,257.1C6282.28,256.35 6284.2,255.64 6286.18,254.97C6288.45,247.55 6292.65,240.64 6298.41,234.49C6300.56,232.19 6302.92,230.01 6305.48,227.93C6273.37,220.01 6251.28,203.44 6251.28,184.29C6251.28,181.42 6251.79,178.62 6252.74,175.89C6236.72,164.78 6228.3,151.79 6230.63,138.57C6231.57,133.25 6234.22,128.24 6238.3,123.59C6224.54,113.62 6217.39,102.03 6219.47,90.24C6223.42,67.8 6259.66,51.27 6307.15,47.44C6320.94,46.33 6335.68,46.28 6350.86,47.48C6357.59,48.01 6364.14,48.77 6370.5,49.74C6361.02,43.08 6356.03,35.28 6357.43,27.33C6357.62,26.22 6357.95,25.15 6358.38,24.08C6362.11,14.83 6374.46,7.38 6391.58,3L6468.52,3Z" style="fill:rgb(2,170,2);fill-rule:nonzero;"/>
            </g>
        </g>
        <g id="safari_Schild">
            <g>
                <path d="M5970,570.01L5970,477L5985.43,477L5985.21,430.8C5985.15,418.17 5980.11,408 5973.92,408L5962.83,408C5958.81,408 5951.99,414.65 5951.99,422.86L5951.99,986L5987.99,987L5986.25,652L5976.67,652L5976.67,593.63L5985.97,593.63L5985.86,570.01L5970,570.01Z" style="fill:rgb(175,102,14);fill-rule:nonzero;"/>
                <path d="M6083.95,509.56L6083.89,509.14L6083.92,510C6083.96,509.86 6083.97,509.71 6083.95,509.56Z" style="fill:rgb(247,241,33);fill-rule:nonzero;"/>
                <path d="M6032.22,535.21C6032.44,535.21 6032.63,535.36 6032.7,535.58L6032.59,535.21L6032.22,535.21Z" style="fill:rgb(247,241,33);fill-rule:nonzero;"/>
                <path d="M6135,477L5970,477L5970,570L6135,570L6135,477ZM6040.58,530.86L6042.35,536.38C6042.37,536.45 6042.42,536.5 6042.48,536.54L6045.02,538.18C6045.21,538.3 6045.2,538.57 6045.01,538.69L6042.9,539.97C6042.85,540 6042.8,540.02 6042.74,540.02L6039.51,540.02C6039.34,540.02 6039.2,539.88 6039.2,539.72L6039.2,537.42C6039.2,537.35 6039.18,537.28 6039.13,537.23L6038.05,535.92C6038.03,535.89 6038.01,535.86 6038,535.83L6037.21,533.64C6037.21,533.63 6037.2,533.61 6037.19,533.6L6034.81,529.06L6034.71,528.86L6033.51,528.41L6032.71,535.57L6033.34,537.65C6033.38,537.77 6033.45,537.87 6033.55,537.94L6035.15,539C6035.3,539.1 6035.39,539.27 6035.39,539.46L6035.39,539.67C6035.39,539.96 6035.18,540.2 6034.9,540.21L6028.57,540.46C6028.28,540.47 6028.05,540.23 6028.05,539.92L6028.05,538.91C6028.05,538.74 6028.12,538.59 6028.25,538.49L6029.15,537.74C6029.29,537.62 6029.37,537.43 6029.34,537.23L6029.05,535.19L6029.1,535.19L6028.85,529.53L6028.85,527.33L6027.18,523.73L6026.05,522.48L6019.65,524.98L6013.98,525.35L6010.38,525.35L6008.19,527.23L6007.38,527.92L6007.44,528.05C6007.44,527.98 6007.47,527.91 6007.52,527.87L6008.19,527.3L6010.32,525.47C6010.36,525.44 6010.41,525.42 6010.46,525.42L6013.98,525.42C6014.17,525.42 6014.27,525.65 6014.15,525.8L6012.94,527.37C6012.92,527.39 6012.91,527.41 6012.9,527.43L6012.27,529.17C6012.25,529.21 6012.25,529.26 6012.26,529.3L6013.38,535.31C6013.38,535.32 6013.39,535.33 6013.39,535.35L6014.44,538.37C6014.45,538.4 6014.47,538.43 6014.49,538.45L6015.89,539.99C6016.02,540.13 6015.94,540.36 6015.76,540.39L6011.89,540.98L6011.81,540.98L6009.48,540.44C6009.38,540.42 6009.31,540.33 6009.31,540.22L6008.79,530.83C6008.79,530.8 6008.78,530.76 6008.76,530.73L6007.82,528.85L6005.25,529.24L6003.45,532.77L6003.16,537.56L6004.31,539.74C6004.31,539.75 6004.32,539.75 6004.32,539.76L6004.59,540.36C6004.71,540.62 6004.53,540.92 6004.26,540.92L5998.52,540.92C5998.3,540.92 5998.13,540.72 5998.15,540.49L5998.41,537.82C5998.43,537.62 5998.59,537.47 5998.78,537.47L5998.78,535.63L6000.71,530.64L6001.04,522.71L6001.15,522.26L6000.71,518.16L6000.71,512.58L6000.95,512.11L6001.79,510.45L6002.24,509.56L6002.24,509.62L6004.44,505.59L6007.98,502.36L6011.52,500.82L6015.32,500.53L6018.52,501.78L6021.72,502.07L6024.92,501.34L6025.82,501.14L6025.87,501.06L6026.32,500.26C6026.45,500.03 6026.69,499.87 6026.96,499.83L6031.21,499.21C6031.32,499.19 6031.43,499.2 6031.54,499.22L6031.47,499.14L6034,499.51L6038.54,499.88L6042.07,500.61L6043.14,500.61L6045.94,507L6047.01,517.28L6043.67,528.08L6040.54,530.73L6040.58,530.86ZM6106.39,542.55L6106.86,546.29C6106.94,546.95 6106.23,547.52 6105.32,547.52C6104.28,547.52 6103.54,546.79 6103.84,546.06L6104.42,544.69C6104.47,544.58 6104.49,544.47 6104.49,544.36L6104.49,535.98C6104.49,535.86 6104.46,535.73 6104.41,535.62L6101.02,528.35L6101.02,537.81C6101.02,537.85 6101.02,537.89 6101.01,537.92L6099.26,547.25C6099.18,547.67 6098.7,547.97 6098.12,547.97L6096.59,547.97C6095.81,547.97 6095.26,547.42 6095.49,546.88L6098.45,540.02C6098.48,539.95 6098.49,539.89 6098.5,539.82L6099.11,532.45C6099.12,532.37 6099.11,532.3 6099.09,532.22L6096.59,523.93C6096.56,523.82 6096.56,523.71 6096.59,523.6L6089.52,523.6L6088.09,541.51L6088.09,541.54L6089.01,548.66C6089.03,548.78 6088.9,548.89 6088.74,548.89C6087.85,548.94 6085.25,549.06 6085.25,548.87C6085.25,548.65 6086.09,546.18 6086.19,545.91C6086.2,545.89 6086.2,545.88 6086.2,545.86L6086.2,530.01L6085.29,526.37L6082.81,547.77C6082.77,548.13 6082.38,548.41 6081.92,548.41L6080.73,548.41C6080.15,548.41 6079.72,547.98 6079.86,547.54L6080.2,546.48C6080.21,546.45 6080.22,546.42 6080.22,546.39L6083.35,524.08C6083.36,523.99 6083.35,523.89 6083.32,523.8C6083.27,523.65 6083.27,523.52 6083.31,523.4C6082.99,523.26 6082.73,523.06 6082.57,522.8L6080.5,519.44C6080.42,519.31 6080.38,519.18 6080.36,519.04C6080.18,518.97 6080.04,518.84 6079.97,518.67C6079.93,518.58 6079.92,518.48 6079.94,518.38L6081.47,511.68C6081.48,511.65 6081.48,511.61 6081.48,511.57L6081.48,494.62L6079.27,493.24L6079.37,493.24L6076.72,492.95C6075.83,492.85 6075.16,492.29 6075.16,491.63C6075.16,491.2 6075.45,490.79 6075.94,490.54L6081,487.96C6081.18,487.87 6081.39,487.8 6081.6,487.76L6081.24,486.06C6081.19,485.84 6081.42,485.65 6081.72,485.65L6081.96,485.65C6082.21,485.65 6082.43,485.79 6082.45,485.98L6082.63,487.72L6083.67,487.72L6083.67,486.23C6083.67,485.91 6084.02,485.65 6084.46,485.65L6085.4,485.65C6085.84,485.65 6086.19,485.91 6086.19,486.23C6086.19,486.3 6086.17,486.38 6086.13,486.44L6085.3,487.96C6085.54,488.09 6085.74,488.26 6085.88,488.46C6087.74,487.76 6089.44,487.29 6089.98,487.72C6090.34,488.01 6090.01,488.58 6089.98,488.64C6089.56,489.35 6088.26,489.8 6086.5,489.87C6086.51,489.91 6086.51,489.94 6086.52,489.98L6087.13,505.44C6087.14,505.58 6087.17,505.71 6087.23,505.84L6089.41,510.41C6089.57,510.74 6089.9,511.02 6090.34,511.17L6098.81,514.15L6102.58,515.53C6102.99,515.68 6103.31,515.94 6103.47,516.25L6104.87,518.96C6105.03,519.27 6105.02,519.6 6104.86,519.91L6103.37,522.71L6103.23,525.02C6103.22,525.13 6103.24,525.24 6103.28,525.35L6106.95,535.81C6106.99,535.93 6107.01,536.05 6106.99,536.17L6106.39,542.33C6106.39,542.43 6106.39,542.49 6106.39,542.55Z" style="fill:rgb(247,241,33);fill-rule:nonzero;"/>
                <path d="M6035.93,516.7L6035.95,516.69L6035.45,516.46L6035.93,516.7Z" style="fill:rgb(247,241,33);fill-rule:nonzero;"/>
                <path d="M6041.73,520.52L6042.13,516.04L6040.73,516.04L6039.26,512.22L6037.53,514.42L6037.68,515.8C6037.71,516.1 6037.58,516.39 6037.33,516.56L6037.1,516.72C6037.07,516.74 6037.03,516.76 6037,516.78L6037.19,518.16L6037.06,518.33C6037.09,518.36 6037.12,518.4 6037.13,518.45L6038.96,525.09L6039.81,528.17L6041.13,525.87L6041.73,520.52Z" style="fill:rgb(247,241,33);fill-rule:nonzero;"/>
                <path d="M5976.68,594.62L5976.68,652L6062.16,652L6062.16,593.62L5976.69,593.62L5976.69,594.62L5976.68,594.62ZM6006,611.4L6035.29,611.4L6035.29,603L6049,617L6035.29,631L6035.29,623.3L6006,623.3L6006,611.4Z" style="fill:rgb(255,163,0);fill-rule:nonzero;"/>
                <path d="M6003.15,537.58L6003.44,532.79L6005.24,529.26L6003.44,532.57L6003.15,537.58Z" style="fill:rgb(153,148,143);fill-rule:nonzero;"/>
                <path d="M6033.05,523.87L6033.05,522.56L6036.59,518.35C6036.72,518.2 6036.94,518.21 6037.06,518.34L6037.19,518.17L6037,516.79C6036.75,516.92 6036.46,516.93 6036.2,516.81L6035.94,516.69L6035.92,516.7L6035.45,516.46L6027.84,512.93C6027.71,512.87 6027.61,512.79 6027.52,512.68L6023.1,507.06C6022.89,506.8 6022.87,506.44 6023.03,506.15L6025.82,501.15L6024.92,501.35L6021.72,502.08L6018.52,501.79L6015.32,500.54L6011.52,500.83L6007.98,502.37L6004.44,505.6L6002.24,509.63L6002.24,511.04L6001.44,513.24L6001.77,519.63L6001.17,522.49L6001.14,522.26L6001.03,522.71L6000.7,530.64L5998.77,535.63L5998.77,537.47L6002.3,537.47L6002.7,532.7L6004.57,528.95L6008.18,527.23L6010.37,525.35L6013.97,525.35L6019.64,524.98L6026.04,522.48L6027.17,523.73L6028.84,527.33L6028.84,529.53L6029.09,535.19L6032.2,535.19L6033.05,523.87Z" style="fill:rgb(153,148,143);fill-rule:nonzero;"/>
                <path d="M6036.16,503.5C6036.3,503.64 6036.39,503.82 6036.41,504.01L6037.53,514.43L6039.26,512.23L6040.73,516.05L6042.13,516.05L6041.73,520.53L6041.13,525.89L6039.81,528.19L6040.35,530.15L6043.33,527.73L6046.13,516.27L6045.06,507.97L6042.05,500.62L6038.52,499.89L6033.98,499.52L6031.45,499.15L6031.52,499.23C6031.68,499.27 6031.82,499.34 6031.94,499.45L6036.16,503.5ZM6040.76,507.82C6041.41,507.82 6041.93,508.38 6041.93,509.07L6041.93,509.08C6041.94,509.2 6041.93,509.33 6041.88,509.44C6041.73,509.95 6041.29,510.32 6040.76,510.32C6040.11,510.32 6039.59,509.76 6039.59,509.07C6039.59,508.38 6040.12,507.82 6040.76,507.82Z" style="fill:rgb(153,148,143);fill-rule:nonzero;"/>
                <path d="M6033.5,528.42L6034.7,528.87L6033.67,526.91L6033.5,528.42Z" style="fill:rgb(153,148,143);fill-rule:nonzero;"/>
                <path d="M6023.1,507.06L6027.52,512.68C6027.6,512.79 6027.71,512.87 6027.84,512.93L6035.45,516.46L6035.94,516.69L6036.2,516.81C6036.46,516.93 6036.75,516.92 6037,516.79C6037.03,516.77 6037.07,516.75 6037.1,516.73L6037.33,516.57C6037.58,516.39 6037.71,516.1 6037.68,515.81L6037.53,514.43L6036.41,504.01C6036.39,503.82 6036.3,503.64 6036.16,503.5L6031.95,499.45C6031.83,499.34 6031.69,499.26 6031.53,499.23C6031.42,499.21 6031.31,499.2 6031.2,499.22L6026.95,499.84C6026.68,499.88 6026.44,500.04 6026.31,500.27L6025.86,501.07L6025.81,501.15L6023.02,506.15C6022.86,506.44 6022.89,506.8 6023.1,507.06Z" style="fill:rgb(96,95,94);fill-rule:nonzero;"/>
                <path d="M6001.77,519.64L6001.44,513.25L6002.24,511.05L6002.24,509.58L6001.79,510.46L6000.94,512.12L6000.7,512.59L6000.7,518.17L6001.15,522.27L6001.17,522.51L6001.77,519.64Z" style="fill:rgb(68,67,65);fill-rule:nonzero;"/>
                <path d="M6001.79,510.46L6000.94,512.12" style="fill:none;fill-rule:nonzero;"/>
                <path d="M6047,517.29L6045.93,507.01L6043.13,500.62L6042.06,500.62L6045.07,507.96L6046.13,516.26L6043.33,527.72L6040.35,530.14L6040.38,530.24L6040.54,530.74L6043.66,528.09L6047,517.29Z" style="fill:rgb(124,121,118);fill-rule:nonzero;"/>
                <path d="M6033.17,525.95L6033.08,525.79C6033.06,525.75 6033.05,525.7 6033.05,525.65L6033.05,523.87L6032.23,535.21L6032.6,535.21L6032.71,535.58L6033.51,528.42L6033.68,526.91L6033.17,525.95Z" style="fill:rgb(124,121,118);fill-rule:nonzero;"/>
                <path d="M6040.35,530.14L6039.81,528.18L6038.96,525.1L6037.13,518.46C6037.12,518.41 6037.09,518.37 6037.06,518.34C6036.94,518.21 6036.72,518.2 6036.59,518.35L6033.05,522.56L6033.05,525.65C6033.05,525.7 6033.06,525.75 6033.08,525.79L6033.17,525.95L6033.67,526.91L6034.7,528.87L6034.8,529.07L6037.18,533.61C6037.19,533.62 6037.19,533.63 6037.2,533.65L6037.99,535.84C6038,535.87 6038.02,535.9 6038.04,535.93L6039.12,537.24C6039.16,537.29 6039.19,537.36 6039.19,537.43L6039.19,539.73C6039.19,539.9 6039.33,540.03 6039.5,540.03L6042.73,540.03C6042.79,540.03 6042.84,540.01 6042.89,539.98L6045,538.7C6045.19,538.58 6045.2,538.31 6045.01,538.19L6042.47,536.55C6042.41,536.51 6042.37,536.45 6042.34,536.39L6040.57,530.87L6040.53,530.75L6040.37,530.25L6040.35,530.14Z" style="fill:rgb(96,95,94);fill-rule:nonzero;"/>
                <path d="M6002.71,532.71L6002.31,537.48L6003.11,537.48L6003.16,537.57L6003.45,532.56L6005.25,529.25L6007.82,528.86L6007.47,528.16C6007.45,528.13 6007.45,528.09 6007.45,528.05L6007.39,527.92L6008.2,527.23L6004.59,528.95L6002.71,532.71Z" style="fill:rgb(124,121,118);fill-rule:nonzero;"/>
                <path d="M6007.81,528.88L6008.75,530.76C6008.77,530.79 6008.77,530.82 6008.78,530.86L6009.3,540.25C6009.31,540.35 6009.38,540.44 6009.47,540.47L6011.8,541.01C6011.83,541.02 6011.85,541.02 6011.88,541.01L6015.75,540.42C6015.93,540.39 6016,540.16 6015.88,540.02L6014.48,538.48C6014.46,538.46 6014.44,538.43 6014.43,538.4L6013.38,535.38C6013.38,535.37 6013.37,535.36 6013.37,535.34L6012.25,529.33C6012.24,529.29 6012.25,529.24 6012.26,529.2L6012.89,527.46C6012.9,527.44 6012.91,527.41 6012.93,527.4L6014.14,525.83C6014.26,525.68 6014.16,525.45 6013.97,525.45L6010.45,525.45C6010.4,525.45 6010.35,525.47 6010.31,525.5L6008.18,527.33L6007.51,527.9C6007.46,527.95 6007.43,528.01 6007.43,528.08C6007.43,528.12 6007.44,528.15 6007.45,528.19L6007.81,528.88Z" style="fill:rgb(96,95,94);fill-rule:nonzero;"/>
                <path d="M6003.11,537.49L5998.78,537.49C5998.59,537.49 5998.43,537.64 5998.41,537.84L5998.15,540.51C5998.13,540.74 5998.3,540.94 5998.52,540.94L6004.26,540.94C6004.53,540.94 6004.71,540.64 6004.59,540.38L6004.32,539.78C6004.32,539.77 6004.31,539.77 6004.31,539.76L6003.16,537.58L6003.11,537.49Z" style="fill:rgb(96,95,94);fill-rule:nonzero;"/>
                <path d="M6032.22,535.21L6029.06,535.21L6029.35,537.25C6029.38,537.44 6029.3,537.64 6029.16,537.76L6028.26,538.51C6028.14,538.61 6028.06,538.77 6028.06,538.93L6028.06,539.94C6028.06,540.24 6028.3,540.49 6028.58,540.48L6034.91,540.23C6035.18,540.22 6035.4,539.98 6035.4,539.69L6035.4,539.48C6035.4,539.29 6035.31,539.12 6035.16,539.02L6033.56,537.96C6033.46,537.89 6033.38,537.79 6033.35,537.67L6032.72,535.59C6032.64,535.36 6032.44,535.21 6032.22,535.21Z" style="fill:rgb(96,95,94);fill-rule:nonzero;"/>
                <path d="M6040.76,510.32C6041.29,510.32 6041.73,509.95 6041.88,509.44C6041.93,509.33 6041.95,509.2 6041.93,509.08L6041.93,509.07C6041.93,508.38 6041.4,507.82 6040.76,507.82C6040.11,507.82 6039.59,508.38 6039.59,509.07C6039.59,509.76 6040.12,510.32 6040.76,510.32Z" style="fill:rgb(96,95,94);fill-rule:nonzero;"/>
                <path d="M6084.22,523.62C6083.89,523.62 6083.57,523.55 6083.3,523.43C6083.26,523.55 6083.25,523.69 6083.31,523.83C6083.34,523.92 6083.35,524.01 6083.34,524.11L6080.21,546.42C6080.21,546.45 6080.2,546.48 6080.19,546.51L6079.85,547.57C6079.71,548.01 6080.14,548.44 6080.72,548.44L6081.91,548.44C6082.37,548.44 6082.76,548.16 6082.8,547.8L6085.28,526.4L6084.59,523.62L6084.22,523.62Z" style="fill:rgb(216,129,57);fill-rule:nonzero;"/>
                <path d="M6098.83,523.62L6096.6,523.62C6096.57,523.73 6096.57,523.84 6096.6,523.95L6099.1,532.24C6099.12,532.32 6099.13,532.39 6099.12,532.47L6098.51,539.84C6098.5,539.91 6098.49,539.98 6098.46,540.04L6095.5,546.9C6095.27,547.44 6095.82,547.99 6096.6,547.99L6098.13,547.99C6098.71,547.99 6099.19,547.68 6099.27,547.27L6101.02,537.94C6101.03,537.9 6101.03,537.86 6101.03,537.83L6101.03,528.37L6098.85,523.69C6098.83,523.65 6098.83,523.63 6098.83,523.62Z" style="fill:rgb(216,129,57);fill-rule:nonzero;"/>
                <path d="M6106.95,535.85L6103.28,525.39C6103.24,525.28 6103.23,525.17 6103.23,525.06L6103.37,522.75L6104.86,519.95C6105.02,519.65 6105.03,519.31 6104.87,519L6103.47,516.29C6103.31,515.98 6102.99,515.72 6102.58,515.57L6098.81,514.19L6090.34,511.21C6089.9,511.06 6089.57,510.78 6089.41,510.45L6087.23,505.88C6087.17,505.75 6087.13,505.62 6087.13,505.48L6086.52,490.02C6086.52,489.98 6086.51,489.95 6086.5,489.91C6088.26,489.84 6089.56,489.39 6089.98,488.68C6090.01,488.62 6090.34,488.05 6089.98,487.76C6089.45,487.34 6087.75,487.8 6085.88,488.5C6085.74,488.3 6085.54,488.13 6085.3,488L6086.13,486.48C6086.17,486.41 6086.19,486.34 6086.19,486.27C6086.19,485.95 6085.84,485.69 6085.4,485.69L6084.46,485.69C6084.02,485.69 6083.67,485.95 6083.67,486.27L6083.67,487.76L6082.63,487.76L6082.45,486.02C6082.43,485.83 6082.22,485.69 6081.96,485.69L6081.72,485.69C6081.42,485.69 6081.19,485.88 6081.24,486.1L6081.6,487.8C6081.39,487.84 6081.18,487.9 6081,488L6075.94,490.58C6075.45,490.83 6075.16,491.24 6075.16,491.67C6075.16,492.33 6075.82,492.89 6076.72,492.99L6079.37,493.28L6082.5,493.28C6082.98,493.28 6083.37,493.56 6083.38,493.91L6083.88,509.14L6083.94,509.56C6083.96,509.71 6083.95,509.86 6083.9,510L6083.97,512.26C6083.97,512.32 6083.96,512.38 6083.94,512.44L6081.63,518.68C6081.46,519.13 6080.79,519.26 6080.33,519.06C6080.35,519.2 6080.4,519.33 6080.47,519.46L6082.54,522.82C6082.7,523.08 6082.96,523.28 6083.28,523.42C6083.55,523.54 6083.87,523.61 6084.2,523.61L6084.57,523.61L6085.26,526.39L6086.17,530.03L6086.17,545.88C6086.17,545.9 6086.17,545.91 6086.16,545.93C6086.07,546.2 6085.22,548.68 6085.22,548.89C6085.22,549.08 6087.81,548.96 6088.71,548.91C6088.88,548.9 6089,548.8 6088.98,548.68L6088.06,541.56L6088.06,541.53L6089.49,523.62L6098.79,523.62C6098.8,523.64 6098.8,523.66 6098.81,523.67L6100.99,528.35L6104.38,535.62C6104.43,535.74 6104.46,535.86 6104.46,535.98L6104.46,544.36C6104.46,544.47 6104.44,544.58 6104.39,544.69L6103.81,546.06C6103.5,546.78 6104.25,547.52 6105.29,547.52C6106.2,547.52 6106.91,546.95 6106.83,546.29L6106.36,542.55C6106.35,542.49 6106.35,542.43 6106.36,542.37L6106.96,536.21C6107.01,536.09 6106.99,535.97 6106.95,535.85ZM6080.97,490.51C6080.74,490.51 6080.55,490.34 6080.55,490.13C6080.55,489.92 6080.74,489.75 6080.97,489.75C6081.2,489.75 6081.39,489.92 6081.39,490.13C6081.39,490.34 6081.2,490.51 6080.97,490.51ZM6086.54,500.71L6086.54,500.89L6086.37,500.98L6086.19,500.89L6086.19,500.71L6086.36,500.62L6086.54,500.71ZM6086.11,497.99L6085.88,497.97L6085.79,497.78L6085.93,497.62L6086.16,497.64L6086.25,497.83L6086.11,497.99ZM6089.04,488.22C6089.23,488.36 6089.05,488.66 6089.04,488.68C6088.6,489.42 6086.31,489.39 6086.2,489.14C6086.08,488.86 6088.56,487.87 6089.04,488.22ZM6086.35,494.95L6086.41,495.15L6086.25,495.29L6086.03,495.24L6085.97,495.04L6086.13,494.9L6086.35,494.95ZM6085.46,492.42L6085.8,492.28L6086.11,492.48L6086.07,492.82L6085.73,492.96L6085.42,492.76L6085.46,492.42ZM6085.45,496.54L6085.69,496.59L6085.76,496.8L6085.6,496.96L6085.36,496.91L6085.29,496.7L6085.45,496.54ZM6085.2,507.3L6085.36,507.14L6085.59,507.19L6085.66,507.39L6085.5,507.55L6085.27,507.5L6085.2,507.3ZM6084.98,490.7L6085.14,490.66L6085.26,490.77L6085.22,490.92L6085.06,490.96L6084.94,490.85L6084.98,490.7ZM6085.03,493.79L6085.23,493.83L6085.29,494L6085.15,494.14L6084.95,494.1L6084.89,493.93L6085.03,493.79ZM6085.68,515.25L6085.44,515.29L6085.28,515.13L6085.36,514.93L6085.6,514.89L6085.76,515.05L6085.68,515.25ZM6085.71,502.23L6085.6,502.11L6085.66,501.97L6085.83,501.94L6085.94,502.06L6085.88,502.2L6085.71,502.23ZM6086.05,512.29L6085.99,512.29L6085.96,512.24L6085.99,512.19L6086.05,512.19L6086.08,512.24L6086.05,512.29ZM6086.08,504.04L6085.98,504.04L6085.92,503.96L6085.97,503.88L6086.07,503.88L6086.13,503.96L6086.08,504.04ZM6086.14,499.23L6086.01,499.28L6085.9,499.2L6085.92,499.07L6086.05,499.02L6086.16,499.1L6086.14,499.23ZM6086.39,509.72L6086.33,509.73L6086.3,509.69L6086.32,509.64L6086.38,509.63L6086.41,509.67L6086.39,509.72ZM6086.37,506.12L6086.18,506.03L6086.17,505.83L6086.36,505.73L6086.55,505.82L6086.56,506.02L6086.37,506.12ZM6086.87,517.84L6086.71,517.85L6086.62,517.73L6086.69,517.6L6086.85,517.59L6086.94,517.71L6086.87,517.84ZM6086.99,508.19L6086.89,508.18L6086.85,508.09L6086.91,508.02L6087.01,508.03L6087.05,508.12L6086.99,508.19ZM6088,510.88L6087.65,510.83L6087.53,510.53L6087.76,510.29L6088.11,510.34L6088.23,510.64L6088,510.88ZM6088.23,509.19L6088,509.17L6087.9,508.98L6088.03,508.81L6088.26,508.83L6088.36,509.02L6088.23,509.19ZM6088.57,512.21L6088.44,512.17L6088.42,512.05L6088.53,511.97L6088.66,512.01L6088.68,512.13L6088.57,512.21ZM6089.38,516.94L6089.11,516.96L6088.96,516.76L6089.07,516.54L6089.34,516.52L6089.49,516.72L6089.38,516.94ZM6089.38,514.97L6089.1,514.89L6089.03,514.63L6089.24,514.45L6089.52,514.53L6089.59,514.79L6089.38,514.97ZM6090.77,513.33L6090.3,513.2L6090.19,512.78L6090.54,512.48L6091.01,512.61L6091.12,513.03L6090.77,513.33ZM6091.61,517.53L6091.42,517.46L6091.39,517.28L6091.55,517.16L6091.74,517.23L6091.77,517.41L6091.61,517.53ZM6092.5,515.08L6092.25,515.2L6092,515.07L6092.01,514.81L6092.26,514.69L6092.51,514.82L6092.5,515.08ZM6094.28,517.92L6094.05,517.89L6093.96,517.7L6094.1,517.54L6094.33,517.57L6094.42,517.76L6094.28,517.92ZM6095.03,513.91L6094.71,513.91L6094.55,513.66L6094.71,513.41L6095.03,513.41L6095.19,513.66L6095.03,513.91ZM6095.97,515.72L6095.8,515.64L6095.79,515.47L6095.95,515.38L6096.12,515.46L6096.13,515.63L6095.97,515.72ZM6100.53,516.92L6100.77,517.41L6100.41,517.84L6099.81,517.78L6099.57,517.29L6099.93,516.86L6100.53,516.92ZM6099.57,515.45L6099.72,515.42L6099.83,515.52L6099.79,515.65L6099.64,515.68L6099.53,515.58L6099.57,515.45ZM6098.28,516.58L6098.15,516.82L6097.85,516.84L6097.68,516.62L6097.81,516.38L6098.11,516.36L6098.28,516.58ZM6097.68,518.61L6097.72,518.58L6097.77,518.59L6097.78,518.64L6097.74,518.67L6097.69,518.66L6097.68,518.61ZM6097.56,514.56L6097.8,514.5L6097.98,514.65L6097.92,514.86L6097.68,514.92L6097.5,514.77L6097.56,514.56ZM6101.74,516.38L6101.64,516.37L6101.6,516.29L6101.66,516.21L6101.76,516.22L6101.8,516.3L6101.74,516.38ZM6102.8,518.61L6102.67,518.55L6102.66,518.42L6102.78,518.35L6102.91,518.41L6102.92,518.54L6102.8,518.61Z" style="fill:rgb(232,161,91);fill-rule:nonzero;"/>
                <path d="M6081.64,518.69L6083.95,512.45C6083.97,512.39 6083.98,512.33 6083.98,512.27L6083.91,510.01L6083.88,509.15L6083.38,493.92C6083.37,493.57 6082.98,493.29 6082.5,493.29L6079.27,493.29L6081.48,494.67L6081.48,511.62C6081.48,511.66 6081.48,511.69 6081.47,511.73L6079.94,518.43C6079.92,518.53 6079.93,518.63 6079.97,518.72C6080.04,518.89 6080.19,519.01 6080.36,519.09C6080.8,519.27 6081.47,519.14 6081.64,518.69Z" style="fill:rgb(216,129,57);fill-rule:nonzero;"/>
                <path d="M6089.04,488.68C6089.05,488.66 6089.23,488.36 6089.04,488.22C6088.57,487.87 6086.08,488.85 6086.2,489.14C6086.3,489.4 6088.6,489.42 6089.04,488.68Z" style="fill:rgb(226,131,27);fill-rule:nonzero;"/>
                <path d="M6090.55,512.49L6090.19,512.79L6090.3,513.21L6090.77,513.33L6091.12,513.04L6091.01,512.62L6090.55,512.49Z" style="fill:rgb(160,98,36);fill-rule:nonzero;"/>
                <path d="M6094.71,513.42L6094.55,513.66L6094.71,513.91L6095.03,513.91L6095.19,513.67L6095.03,513.42L6094.71,513.42Z" style="fill:rgb(160,98,36);fill-rule:nonzero;"/>
                <path d="M6097.91,514.87L6097.97,514.66L6097.79,514.5L6097.56,514.56L6097.5,514.78L6097.67,514.93L6097.91,514.87Z" style="fill:rgb(160,98,36);fill-rule:nonzero;"/>
                <path d="M6092.01,514.81L6092.01,515.07L6092.25,515.2L6092.5,515.08L6092.51,514.82L6092.26,514.69L6092.01,514.81Z" style="fill:rgb(160,98,36);fill-rule:nonzero;"/>
                <path d="M6095.96,515.37L6095.79,515.47L6095.8,515.64L6095.97,515.72L6096.14,515.62L6096.13,515.45L6095.96,515.37Z" style="fill:rgb(160,98,36);fill-rule:nonzero;"/>
                <path d="M6101.65,516.21L6101.59,516.29L6101.63,516.37L6101.74,516.38L6101.8,516.3L6101.75,516.22L6101.65,516.21Z" style="fill:rgb(160,98,36);fill-rule:nonzero;"/>
                <path d="M6097.69,516.62L6097.86,516.83L6098.15,516.82L6098.28,516.58L6098.12,516.36L6097.82,516.38L6097.69,516.62Z" style="fill:rgb(160,98,36);fill-rule:nonzero;"/>
                <path d="M6099.78,515.64L6099.82,515.51L6099.71,515.41L6099.57,515.45L6099.53,515.58L6099.63,515.67L6099.78,515.64Z" style="fill:rgb(160,98,36);fill-rule:nonzero;"/>
                <path d="M6099.82,517.78L6100.42,517.84L6100.77,517.41L6100.53,516.92L6099.93,516.86L6099.58,517.29L6099.82,517.78Z" style="fill:rgb(160,98,36);fill-rule:nonzero;"/>
                <path d="M6102.78,518.34L6102.66,518.42L6102.67,518.55L6102.8,518.61L6102.92,518.53L6102.91,518.4L6102.78,518.34Z" style="fill:rgb(160,98,36);fill-rule:nonzero;"/>
                <path d="M6094.11,517.53L6093.97,517.69L6094.05,517.89L6094.28,517.92L6094.42,517.75L6094.34,517.56L6094.11,517.53Z" style="fill:rgb(160,98,36);fill-rule:nonzero;"/>
                <path d="M6097.78,518.64L6097.77,518.59L6097.72,518.58L6097.68,518.61L6097.69,518.66L6097.75,518.67L6097.78,518.64Z" style="fill:rgb(160,98,36);fill-rule:nonzero;"/>
                <path d="M6089.07,516.55L6088.96,516.77L6089.11,516.96L6089.38,516.94L6089.49,516.73L6089.34,516.53L6089.07,516.55Z" style="fill:rgb(160,98,36);fill-rule:nonzero;"/>
                <path d="M6089.24,514.46L6089.03,514.64L6089.1,514.9L6089.38,514.97L6089.59,514.79L6089.52,514.54L6089.24,514.46Z" style="fill:rgb(160,98,36);fill-rule:nonzero;"/>
                <path d="M6091.55,517.16L6091.39,517.28L6091.42,517.46L6091.61,517.53L6091.78,517.42L6091.75,517.23L6091.55,517.16Z" style="fill:rgb(160,98,36);fill-rule:nonzero;"/>
                <path d="M6085.36,514.93L6085.28,515.14L6085.44,515.3L6085.68,515.25L6085.76,515.05L6085.6,514.89L6085.36,514.93Z" style="fill:rgb(160,98,36);fill-rule:nonzero;"/>
                <path d="M6086,512.19L6085.96,512.23L6085.99,512.28L6086.05,512.29L6086.09,512.24L6086.06,512.19L6086,512.19Z" style="fill:rgb(160,98,36);fill-rule:nonzero;"/>
                <path d="M6088.53,511.96L6088.42,512.04L6088.44,512.17L6088.57,512.21L6088.68,512.13L6088.66,512.01L6088.53,511.96Z" style="fill:rgb(160,98,36);fill-rule:nonzero;"/>
                <path d="M6086.69,517.61L6086.62,517.74L6086.72,517.85L6086.87,517.84L6086.94,517.71L6086.85,517.6L6086.69,517.61Z" style="fill:rgb(160,98,36);fill-rule:nonzero;"/>
                <path d="M6085.36,496.91L6085.59,496.95L6085.76,496.79L6085.68,496.59L6085.45,496.54L6085.28,496.7L6085.36,496.91Z" style="fill:rgb(160,98,36);fill-rule:nonzero;"/>
                <path d="M6085.91,499.08L6085.89,499.2L6086,499.28L6086.14,499.23L6086.16,499.11L6086.04,499.03L6085.91,499.08Z" style="fill:rgb(160,98,36);fill-rule:nonzero;"/>
                <path d="M6085.93,497.61L6085.8,497.78L6085.89,497.96L6086.11,497.99L6086.25,497.82L6086.16,497.64L6085.93,497.61Z" style="fill:rgb(160,98,36);fill-rule:nonzero;"/>
                <path d="M6085.83,501.95L6085.66,501.97L6085.61,502.11L6085.71,502.23L6085.88,502.2L6085.94,502.06L6085.83,501.95Z" style="fill:rgb(160,98,36);fill-rule:nonzero;"/>
                <path d="M6085.97,503.89L6085.92,503.97L6085.98,504.05L6086.08,504.04L6086.13,503.96L6086.07,503.88L6085.97,503.89Z" style="fill:rgb(160,98,36);fill-rule:nonzero;"/>
                <path d="M6086.36,505.72L6086.17,505.83L6086.17,506.02L6086.37,506.12L6086.55,506.01L6086.55,505.82L6086.36,505.72Z" style="fill:rgb(160,98,36);fill-rule:nonzero;"/>
                <path d="M6086.18,500.72L6086.19,500.9L6086.36,500.99L6086.54,500.9L6086.54,500.71L6086.36,500.63L6086.18,500.72Z" style="fill:rgb(160,98,36);fill-rule:nonzero;"/>
                <path d="M6086.91,508.01L6086.85,508.09L6086.89,508.17L6086.99,508.19L6087.05,508.11L6087.02,508.03L6086.91,508.01Z" style="fill:rgb(160,98,36);fill-rule:nonzero;"/>
                <path d="M6085.67,507.39L6085.59,507.19L6085.36,507.15L6085.2,507.3L6085.27,507.51L6085.51,507.55L6085.67,507.39Z" style="fill:rgb(160,98,36);fill-rule:nonzero;"/>
                <path d="M6088.03,508.82L6087.9,508.99L6088,509.17L6088.23,509.19L6088.36,509.02L6088.26,508.83L6088.03,508.82Z" style="fill:rgb(160,98,36);fill-rule:nonzero;"/>
                <path d="M6086.33,509.64L6086.3,509.68L6086.34,509.73L6086.39,509.72L6086.42,509.67L6086.38,509.63L6086.33,509.64Z" style="fill:rgb(160,98,36);fill-rule:nonzero;"/>
                <path d="M6087.75,510.29L6087.53,510.53L6087.65,510.83L6088,510.88L6088.23,510.63L6088.1,510.34L6087.75,510.29Z" style="fill:rgb(160,98,36);fill-rule:nonzero;"/>
                <path d="M6085.22,490.91L6085.26,490.77L6085.14,490.66L6084.98,490.7L6084.93,490.85L6085.06,490.96L6085.22,490.91Z" style="fill:rgb(160,98,36);fill-rule:nonzero;"/>
                <path d="M6086.08,492.81L6086.12,492.47L6085.81,492.28L6085.46,492.42L6085.43,492.75L6085.74,492.95L6086.08,492.81Z" style="fill:rgb(160,98,36);fill-rule:nonzero;"/>
                <path d="M6085.16,494.14L6085.3,494L6085.23,493.83L6085.03,493.79L6084.9,493.93L6084.96,494.1L6085.16,494.14Z" style="fill:rgb(160,98,36);fill-rule:nonzero;"/>
                <path d="M6086.03,495.24L6086.25,495.29L6086.41,495.15L6086.35,494.95L6086.13,494.9L6085.97,495.04L6086.03,495.24Z" style="fill:rgb(160,98,36);fill-rule:nonzero;"/>
                <path d="M6080.97,489.76C6080.74,489.76 6080.55,489.93 6080.55,490.14C6080.55,490.35 6080.74,490.52 6080.97,490.52C6081.2,490.52 6081.39,490.35 6081.39,490.14C6081.39,489.92 6081.2,489.76 6080.97,489.76Z" style="fill:rgb(2,2,2);fill-rule:nonzero;"/>
                <path d="M6035.29,631L6049,617L6035.29,603L6035.29,611.4L6006,611.4L6006,623.3L6035.29,623.3L6035.29,631Z" style="fill:rgb(255,0,0);fill-rule:nonzero;"/>
            </g>
        </g>
    </g>
</svg>
