<?xml version="1.0" encoding="UTF-8" standalone="no"?>
<!DOCTYPE svg PUBLIC "-//W3C//DTD SVG 1.1//EN" "http://www.w3.org/Graphics/SVG/1.1/DTD/svg11.dtd">
<svg width="100%" height="100%" viewBox="0 0 12948 1080" version="1.1" xmlns="http://www.w3.org/2000/svg" xmlns:xlink="http://www.w3.org/1999/xlink" xml:space="preserve" xmlns:serif="http://www.serif.com/" style="fill-rule:evenodd;clip-rule:evenodd;stroke-linejoin:round;stroke-miterlimit:2;">
    <g id="Ebene_43">
        <rect x="-1" y="0" width="12949" height="1081" style="fill:none;"/>
    </g>
    <g id="Safari_Boden">
        <g transform="matrix(1,0,0,1,-510,0)">
            <path d="M9142.4,870.67C9142.31,870.71 9142.21,870.76 9142.12,870.8C9142.29,870.8 9142.47,870.8 9142.64,870.81C9142.56,870.77 9142.48,870.72 9142.4,870.67Z" style="fill:rgb(41,188,6);fill-rule:nonzero;"/>
            <path d="M9411,915.42C9411,897.99 9401.68,882.54 9387.33,872.96C9401.76,865.29 9411,853.5 9411,840.28C9411,817.17 9382.78,798.44 9347.97,798.44C9340.09,798.44 9332.54,799.4 9325.59,801.16C9324.05,776.6 9297.24,757.05 9264.4,757.05C9252.12,757.05 9240.68,759.79 9231.1,764.49C9235.66,770.35 9238.55,779.13 9238.55,788.94C9238.55,793.03 9238.04,796.94 9237.12,800.54C9237.54,800.53 9237.95,800.52 9238.37,800.52C9263.7,800.52 9284.23,825.46 9284.23,856.22C9284.23,869.88 9280.18,882.39 9273.46,892.08C9276.71,892.92 9279.78,893.95 9282.65,895.16L9284.22,895.16L9284.22,895.84C9296.9,901.59 9305.11,910.77 9305.11,921.11C9305.11,928.71 9300.67,935.68 9293.29,941.13C9295.19,944.76 9296.26,948.8 9296.26,953.06C9296.26,962.02 9291.56,970.01 9284.22,975.21L9284.22,983.81L9376.65,983.81L9376.65,982.59C9389.29,979.98 9398.61,971.05 9398.61,960.42C9398.61,957.01 9397.64,953.77 9395.92,950.86C9405.29,941.5 9411,929.07 9411,915.42Z" style="fill:rgb(41,188,6);fill-rule:nonzero;"/>
            <path d="M9296.26,953.06C9296.26,948.8 9295.2,944.76 9293.29,941.13C9300.68,935.68 9305.11,928.71 9305.11,921.11C9305.11,910.77 9296.9,901.59 9284.22,895.84L9284.22,895.16L9282.65,895.16C9279.78,893.96 9276.7,892.92 9273.46,892.08C9280.18,882.39 9284.23,869.88 9284.23,856.22C9284.23,825.46 9263.7,800.52 9238.37,800.52C9237.95,800.52 9237.54,800.53 9237.12,800.54C9238.04,796.94 9238.55,793.03 9238.55,788.94C9238.55,779.13 9235.65,770.35 9231.1,764.49C9227.47,759.82 9222.78,757 9217.66,757C9206.12,757 9196.77,771.3 9196.77,788.94C9196.77,789.78 9196.8,790.6 9196.84,791.42C9189.86,788.8 9182.1,787.34 9173.93,787.34C9143.32,787.34 9118.51,807.81 9118.51,833.06C9118.51,848.65 9127.97,862.41 9142.41,870.67C9142.49,870.72 9142.57,870.76 9142.65,870.81C9142.48,870.81 9142.3,870.81 9142.13,870.8C9141.93,870.8 9141.73,870.79 9141.53,870.79C9114.74,870.79 9093.02,888.04 9093.02,909.32C9093.02,921.57 9100.22,932.48 9111.44,939.54C9111.46,942.17 9112.52,944.64 9114.36,946.77C9112.47,950.03 9111.44,953.55 9111.44,957.23C9111.44,973.66 9131.97,986.98 9157.3,986.98C9164.24,986.98 9170.83,985.98 9176.72,984.18L9284.25,984.18L9284.25,975.18C9291.56,970.01 9296.26,962.02 9296.26,953.06Z" style="fill:rgb(39,127,14);fill-rule:nonzero;"/>
        </g>
        <g id="Kakteen" transform="matrix(1,0,0,1,528,0)">
            <g>
                <path d="M595.82,757.74L595.82,767.05L596.36,757.74L595.82,757.74Z" style="fill:rgb(2,170,2);fill-rule:nonzero;"/>
                <path d="M595.82,767.04L595.82,984.41L596.36,984.41L595.82,767.04Z" style="fill:rgb(2,170,2);fill-rule:nonzero;"/>
                <path d="M604.41,743.16L610.67,740.02C608.38,740.78 606.27,741.85 604.41,743.16Z" style="fill:rgb(2,170,2);fill-rule:nonzero;"/>
                <path d="M599.3,748.36L604.38,743.19C602.34,744.64 600.62,746.39 599.3,748.36Z" style="fill:rgb(2,170,2);fill-rule:nonzero;"/>
                <path d="M596.36,757.74L599.27,748.39C597.42,751.15 596.36,754.34 596.36,757.74Z" style="fill:rgb(2,170,2);fill-rule:nonzero;"/>
                <path d="M610.68,740.02L615.44,738.94C613.78,739.16 612.19,739.53 610.68,740.02Z" style="fill:rgb(2,170,2);fill-rule:nonzero;"/>
                <path d="M596.36,984.41C596.36,985.06 596.72,985.68 597.39,986.27C596.43,985.29 596.36,984.41 596.36,984.41Z" style="fill:rgb(2,170,2);fill-rule:nonzero;"/>
                <path d="M613.13,989.79L616.38,989.79L616.38,738.74L615.43,738.96L610.67,740.04L604.41,743.18L604.39,743.19L604.38,743.2L599.3,748.37L599.28,748.39L599.28,748.4L596.37,757.75L595.83,767.06L596.37,984.43C596.37,984.43 596.44,985.3 597.4,986.29C598.19,987.11 599.6,988 602.08,988.56L607.58,989.8L613.13,989.8L613.13,989.79Z" style="fill:rgb(7,104,7);fill-rule:nonzero;"/>
                <path d="M672.25,756.06C668.55,756.06 665.55,759.51 665.55,763.76C665.55,764.4 665.63,765.02 665.75,765.61L665.75,842.96L641.26,842.96L641.26,757.74C641.26,747.24 631.21,738.73 618.81,738.73C617.99,738.73 617.18,738.77 616.38,738.84L616.38,989.78L607.56,989.78L602.06,988.54C606.17,989.81 612.15,990.61 618.81,990.61C631.21,990.61 641.26,987.83 641.26,984.4L641.26,870.19L676.65,870.19C677.8,870.19 678.73,868.86 678.73,867.21L678.73,765.61C678.86,765.02 678.93,764.4 678.93,763.76C678.95,759.5 675.95,756.06 672.25,756.06Z" style="fill:rgb(2,170,2);fill-rule:nonzero;"/>
            </g>
            <g>
                <path d="M476.24,845.34L476.24,984.95L476.78,984.95L476.47,845.2C476.4,845.26 476.32,845.3 476.24,845.34Z" style="fill:rgb(2,170,2);fill-rule:nonzero;"/>
                <path d="M476.24,738.07L476.24,816.7C476.3,816.73 476.36,816.77 476.41,816.8L476.24,738.07Z" style="fill:rgb(2,170,2);fill-rule:nonzero;"/>
                <path d="M476.24,727.5L476.24,738.07L476.78,727.5L476.24,727.5Z" style="fill:rgb(2,170,2);fill-rule:nonzero;"/>
                <path d="M484.8,710.98C479.9,714.94 476.78,720.87 476.78,727.5L479.7,716.87L484.8,710.98Z" style="fill:rgb(2,170,2);fill-rule:nonzero;"/>
                <path d="M484.83,710.95L491.09,707.38C488.8,708.24 486.69,709.46 484.83,710.95Z" style="fill:rgb(2,170,2);fill-rule:nonzero;"/>
                <path d="M491.1,707.38L495.85,706.16C494.2,706.4 492.61,706.82 491.1,707.38Z" style="fill:rgb(2,170,2);fill-rule:nonzero;"/>
                <path d="M499.23,705.92C498.41,705.92 497.6,705.97 496.8,706.05L496.8,991.06L487.98,991.06L482.48,989.65C486.59,991.09 492.57,992 499.23,992C511.63,992 521.68,988.84 521.68,984.95L521.68,727.5C521.69,715.58 511.64,705.92 499.23,705.92Z" style="fill:rgb(2,170,2);fill-rule:nonzero;"/>
                <path d="M476.78,984.95C476.78,985.69 477.14,986.4 477.81,987.06C476.85,985.94 476.78,984.95 476.78,984.95Z" style="fill:rgb(2,170,2);fill-rule:nonzero;"/>
                <path d="M493.55,991.05L496.8,991.05L496.8,705.91L495.85,706.15L491.1,707.37L484.84,710.94L484.82,710.95L484.81,710.97L479.71,716.86L476.79,727.49L476.25,738.06L476.42,816.8C476.36,816.76 476.31,816.73 476.25,816.7C475.77,816.42 475.26,816.26 474.72,816.26L461.28,816.26L461.28,770.9C461.28,763.06 457.38,756.71 452.57,756.71L450.23,756.71C445.42,756.71 441.52,763.06 441.52,770.9L441.52,819.76C441.52,820.52 441.57,821.26 441.64,821.98C441.57,822.51 441.52,823.06 441.52,823.63L441.52,838.39C441.52,842.47 443.55,845.77 446.05,845.77L474.73,845.77C475.27,845.77 475.78,845.61 476.26,845.33C476.34,845.28 476.42,845.24 476.49,845.19L476.8,984.94C476.8,984.94 476.87,985.93 477.83,987.05C478.62,987.98 480.03,988.99 482.51,989.63L488.01,991.04L493.55,991.04L493.55,991.05Z" style="fill:rgb(7,104,7);fill-rule:nonzero;"/>
            </g>
            <g>
                <path d="M531.35,782.64L531.35,980.54L532.04,980.54L531.65,782.44C531.55,782.52 531.45,782.58 531.35,782.64Z" style="fill:rgb(2,170,2);fill-rule:nonzero;"/>
                <path d="M531.35,630.59L531.35,742.06C531.42,742.11 531.5,742.15 531.57,742.21L531.35,630.59Z" style="fill:rgb(2,170,2);fill-rule:nonzero;"/>
                <path d="M531.35,615.6L531.35,630.59L532.04,615.6L531.35,615.6Z" style="fill:rgb(2,170,2);fill-rule:nonzero;"/>
                <path d="M532.04,615.6L535.76,600.55C533.39,604.99 532.04,610.12 532.04,615.6Z" style="fill:rgb(2,170,2);fill-rule:nonzero;"/>
                <path d="M535.78,600.5L542.27,592.18C539.67,594.51 537.47,597.33 535.78,600.5Z" style="fill:rgb(2,170,2);fill-rule:nonzero;"/>
                <path d="M542.32,592.14L550.32,587.08C547.38,588.3 544.69,590.02 542.32,592.14Z" style="fill:rgb(2,170,2);fill-rule:nonzero;"/>
                <path d="M550.32,587.08L556.39,585.35C554.28,585.69 552.25,586.28 550.32,587.08Z" style="fill:rgb(2,170,2);fill-rule:nonzero;"/>
                <path d="M546.33,989.18C546.22,989.15 545.4,988.92 539.33,987.19C541.34,987.98 543.7,988.65 546.33,989.18Z" style="fill:rgb(2,170,2);fill-rule:nonzero;"/>
                <path d="M532.05,980.63C532.08,981.64 532.53,982.62 533.35,983.54C532.3,982.17 532.09,980.95 532.05,980.63Z" style="fill:rgb(2,170,2);fill-rule:nonzero;"/>
                <path d="M557.6,989.2L557.6,585L556.39,585.35L550.32,587.08L542.32,592.14L542.29,592.16L542.27,592.18L535.78,600.5L535.76,600.53L535.75,600.55L532.03,615.6L531.34,630.59L531.56,742.21C531.49,742.16 531.41,742.11 531.34,742.06C530.73,741.66 530.07,741.43 529.38,741.43L512.22,741.43L512.22,677.14C512.22,666.03 507.24,657.03 501.09,657.03L498.1,657.03C491.96,657.03 486.97,666.03 486.97,677.14L486.97,746.4C486.97,747.48 487.03,748.52 487.12,749.55C487.03,750.3 486.97,751.08 486.97,751.89L486.97,772.81C486.97,778.59 489.56,783.27 492.76,783.27L529.38,783.27C530.07,783.27 530.73,783.04 531.34,782.64C531.44,782.57 531.54,782.52 531.64,782.44L532.03,980.54C532.03,980.54 532.03,980.58 532.04,980.63C532.08,980.95 532.29,982.17 533.34,983.54C534.35,984.85 536.14,986.3 539.31,987.2C545.38,988.92 546.2,989.16 546.31,989.19C546.33,989.19 546.33,989.2 546.33,989.2L557.6,989.2Z" style="fill:rgb(7,104,7);fill-rule:nonzero;"/>
                <path d="M615.98,632.71L613.21,632.71C609.33,632.71 606.19,637.83 606.19,644.14L606.19,698.99L589.38,698.99L589.38,615.6C589.38,598.7 576.54,585 560.71,585C559.66,585 558.62,585.06 557.6,585.18L557.6,989.18L546.35,989.18C550.57,990.03 555.47,990.53 560.7,990.53C576.54,990.53 589.37,986.06 589.37,980.54L589.37,733.1L611.16,733.1C611.72,733.1 612.26,732.92 612.77,732.68C612.91,732.69 613.06,732.72 613.2,732.72L615.97,732.72C619.85,732.72 622.99,727.6 622.99,721.29L622.99,644.15C623,637.82 619.86,632.71 615.98,632.71Z" style="fill:rgb(2,170,2);fill-rule:nonzero;"/>
            </g>
        </g>
        <g id="safari_Schild">
            <g>
                <path d="M5970,570.01L5970,477L5985.43,477L5985.21,430.8C5985.15,418.17 5980.11,408 5973.92,408L5962.83,408C5958.81,408 5951.99,414.65 5951.99,422.86L5951.99,986L5987.99,987L5986.25,652L5976.67,652L5976.67,593.63L5985.97,593.63L5985.86,570.01L5970,570.01Z" style="fill:rgb(175,102,14);fill-rule:nonzero;"/>
                <path d="M6083.95,509.56L6083.89,509.14L6083.92,510C6083.96,509.86 6083.97,509.71 6083.95,509.56Z" style="fill:rgb(247,241,33);fill-rule:nonzero;"/>
                <path d="M6032.22,535.21C6032.44,535.21 6032.63,535.36 6032.7,535.58L6032.59,535.21L6032.22,535.21Z" style="fill:rgb(247,241,33);fill-rule:nonzero;"/>
                <path d="M6135,477L5970,477L5970,570L6135,570L6135,477ZM6040.58,530.86L6042.35,536.38C6042.37,536.45 6042.42,536.5 6042.48,536.54L6045.02,538.18C6045.21,538.3 6045.2,538.57 6045.01,538.69L6042.9,539.97C6042.85,540 6042.8,540.02 6042.74,540.02L6039.51,540.02C6039.34,540.02 6039.2,539.88 6039.2,539.72L6039.2,537.42C6039.2,537.35 6039.18,537.28 6039.13,537.23L6038.05,535.92C6038.03,535.89 6038.01,535.86 6038,535.83L6037.21,533.64C6037.21,533.63 6037.2,533.61 6037.19,533.6L6034.81,529.06L6034.71,528.86L6033.51,528.41L6032.71,535.57L6033.34,537.65C6033.38,537.77 6033.45,537.87 6033.55,537.94L6035.15,539C6035.3,539.1 6035.39,539.27 6035.39,539.46L6035.39,539.67C6035.39,539.96 6035.18,540.2 6034.9,540.21L6028.57,540.46C6028.28,540.47 6028.05,540.23 6028.05,539.92L6028.05,538.91C6028.05,538.74 6028.12,538.59 6028.25,538.49L6029.15,537.74C6029.29,537.62 6029.37,537.43 6029.34,537.23L6029.05,535.19L6029.1,535.19L6028.85,529.53L6028.85,527.33L6027.18,523.73L6026.05,522.48L6019.65,524.98L6013.98,525.35L6010.38,525.35L6008.19,527.23L6007.38,527.92L6007.44,528.05C6007.44,527.98 6007.47,527.91 6007.52,527.87L6008.19,527.3L6010.32,525.47C6010.36,525.44 6010.41,525.42 6010.46,525.42L6013.98,525.42C6014.17,525.42 6014.27,525.65 6014.15,525.8L6012.94,527.37C6012.92,527.39 6012.91,527.41 6012.9,527.43L6012.27,529.17C6012.25,529.21 6012.25,529.26 6012.26,529.3L6013.38,535.31C6013.38,535.32 6013.39,535.33 6013.39,535.35L6014.44,538.37C6014.45,538.4 6014.47,538.43 6014.49,538.45L6015.89,539.99C6016.02,540.13 6015.94,540.36 6015.76,540.39L6011.89,540.98L6011.81,540.98L6009.48,540.44C6009.38,540.42 6009.31,540.33 6009.31,540.22L6008.79,530.83C6008.79,530.8 6008.78,530.76 6008.76,530.73L6007.82,528.85L6005.25,529.24L6003.45,532.77L6003.16,537.56L6004.31,539.74C6004.31,539.75 6004.32,539.75 6004.32,539.76L6004.59,540.36C6004.71,540.62 6004.53,540.92 6004.26,540.92L5998.52,540.92C5998.3,540.92 5998.13,540.72 5998.15,540.49L5998.41,537.82C5998.43,537.62 5998.59,537.47 5998.78,537.47L5998.78,535.63L6000.71,530.64L6001.04,522.71L6001.15,522.26L6000.71,518.16L6000.71,512.58L6000.95,512.11L6001.79,510.45L6002.24,509.56L6002.24,509.62L6004.44,505.59L6007.98,502.36L6011.52,500.82L6015.32,500.53L6018.52,501.78L6021.72,502.07L6024.92,501.34L6025.82,501.14L6025.87,501.06L6026.32,500.26C6026.45,500.03 6026.69,499.87 6026.96,499.83L6031.21,499.21C6031.32,499.19 6031.43,499.2 6031.54,499.22L6031.47,499.14L6034,499.51L6038.54,499.88L6042.07,500.61L6043.14,500.61L6045.94,507L6047.01,517.28L6043.67,528.08L6040.54,530.73L6040.58,530.86ZM6106.39,542.55L6106.86,546.29C6106.94,546.95 6106.23,547.52 6105.32,547.52C6104.28,547.52 6103.54,546.79 6103.84,546.06L6104.42,544.69C6104.47,544.58 6104.49,544.47 6104.49,544.36L6104.49,535.98C6104.49,535.86 6104.46,535.73 6104.41,535.62L6101.02,528.35L6101.02,537.81C6101.02,537.85 6101.02,537.89 6101.01,537.92L6099.26,547.25C6099.18,547.67 6098.7,547.97 6098.12,547.97L6096.59,547.97C6095.81,547.97 6095.26,547.42 6095.49,546.88L6098.45,540.02C6098.48,539.95 6098.49,539.89 6098.5,539.82L6099.11,532.45C6099.12,532.37 6099.11,532.3 6099.09,532.22L6096.59,523.93C6096.56,523.82 6096.56,523.71 6096.59,523.6L6089.52,523.6L6088.09,541.51L6088.09,541.54L6089.01,548.66C6089.03,548.78 6088.9,548.89 6088.74,548.89C6087.85,548.94 6085.25,549.06 6085.25,548.87C6085.25,548.65 6086.09,546.18 6086.19,545.91C6086.2,545.89 6086.2,545.88 6086.2,545.86L6086.2,530.01L6085.29,526.37L6082.81,547.77C6082.77,548.13 6082.38,548.41 6081.92,548.41L6080.73,548.41C6080.15,548.41 6079.72,547.98 6079.86,547.54L6080.2,546.48C6080.21,546.45 6080.22,546.42 6080.22,546.39L6083.35,524.08C6083.36,523.99 6083.35,523.89 6083.32,523.8C6083.27,523.65 6083.27,523.52 6083.31,523.4C6082.99,523.26 6082.73,523.06 6082.57,522.8L6080.5,519.44C6080.42,519.31 6080.38,519.18 6080.36,519.04C6080.18,518.97 6080.04,518.84 6079.97,518.67C6079.93,518.58 6079.92,518.48 6079.94,518.38L6081.47,511.68C6081.48,511.65 6081.48,511.61 6081.48,511.57L6081.48,494.62L6079.27,493.24L6079.37,493.24L6076.72,492.95C6075.83,492.85 6075.16,492.29 6075.16,491.63C6075.16,491.2 6075.45,490.79 6075.94,490.54L6081,487.96C6081.18,487.87 6081.39,487.8 6081.6,487.76L6081.24,486.06C6081.19,485.84 6081.42,485.65 6081.72,485.65L6081.96,485.65C6082.21,485.65 6082.43,485.79 6082.45,485.98L6082.63,487.72L6083.67,487.72L6083.67,486.23C6083.67,485.91 6084.02,485.65 6084.46,485.65L6085.4,485.65C6085.84,485.65 6086.19,485.91 6086.19,486.23C6086.19,486.3 6086.17,486.38 6086.13,486.44L6085.3,487.96C6085.54,488.09 6085.74,488.26 6085.88,488.46C6087.74,487.76 6089.44,487.29 6089.98,487.72C6090.34,488.01 6090.01,488.58 6089.98,488.64C6089.56,489.35 6088.26,489.8 6086.5,489.87C6086.51,489.91 6086.51,489.94 6086.52,489.98L6087.13,505.44C6087.14,505.58 6087.17,505.71 6087.23,505.84L6089.41,510.41C6089.57,510.74 6089.9,511.02 6090.34,511.17L6098.81,514.15L6102.58,515.53C6102.99,515.68 6103.31,515.94 6103.47,516.25L6104.87,518.96C6105.03,519.27 6105.02,519.6 6104.86,519.91L6103.37,522.71L6103.23,525.02C6103.22,525.13 6103.24,525.24 6103.28,525.35L6106.95,535.81C6106.99,535.93 6107.01,536.05 6106.99,536.17L6106.39,542.33C6106.39,542.43 6106.39,542.49 6106.39,542.55Z" style="fill:rgb(247,241,33);fill-rule:nonzero;"/>
                <path d="M6035.93,516.7L6035.95,516.69L6035.45,516.46L6035.93,516.7Z" style="fill:rgb(247,241,33);fill-rule:nonzero;"/>
                <path d="M6041.73,520.52L6042.13,516.04L6040.73,516.04L6039.26,512.22L6037.53,514.42L6037.68,515.8C6037.71,516.1 6037.58,516.39 6037.33,516.56L6037.1,516.72C6037.07,516.74 6037.03,516.76 6037,516.78L6037.19,518.16L6037.06,518.33C6037.09,518.36 6037.12,518.4 6037.13,518.45L6038.96,525.09L6039.81,528.17L6041.13,525.87L6041.73,520.52Z" style="fill:rgb(247,241,33);fill-rule:nonzero;"/>
                <path d="M5976.68,594.62L5976.68,652L6062.16,652L6062.16,593.62L5976.69,593.62L5976.69,594.62L5976.68,594.62ZM6006,611.4L6035.29,611.4L6035.29,603L6049,617L6035.29,631L6035.29,623.3L6006,623.3L6006,611.4Z" style="fill:rgb(255,163,0);fill-rule:nonzero;"/>
                <path d="M6003.15,537.58L6003.44,532.79L6005.24,529.26L6003.44,532.57L6003.15,537.58Z" style="fill:rgb(153,148,143);fill-rule:nonzero;"/>
                <path d="M6033.05,523.87L6033.05,522.56L6036.59,518.35C6036.72,518.2 6036.94,518.21 6037.06,518.34L6037.19,518.17L6037,516.79C6036.75,516.92 6036.46,516.93 6036.2,516.81L6035.94,516.69L6035.92,516.7L6035.45,516.46L6027.84,512.93C6027.71,512.87 6027.61,512.79 6027.52,512.68L6023.1,507.06C6022.89,506.8 6022.87,506.44 6023.03,506.15L6025.82,501.15L6024.92,501.35L6021.72,502.08L6018.52,501.79L6015.32,500.54L6011.52,500.83L6007.98,502.37L6004.44,505.6L6002.24,509.63L6002.24,511.04L6001.44,513.24L6001.77,519.63L6001.17,522.49L6001.14,522.26L6001.03,522.71L6000.7,530.64L5998.77,535.63L5998.77,537.47L6002.3,537.47L6002.7,532.7L6004.57,528.95L6008.18,527.23L6010.37,525.35L6013.97,525.35L6019.64,524.98L6026.04,522.48L6027.17,523.73L6028.84,527.33L6028.84,529.53L6029.09,535.19L6032.2,535.19L6033.05,523.87Z" style="fill:rgb(153,148,143);fill-rule:nonzero;"/>
                <path d="M6036.16,503.5C6036.3,503.64 6036.39,503.82 6036.41,504.01L6037.53,514.43L6039.26,512.23L6040.73,516.05L6042.13,516.05L6041.73,520.53L6041.13,525.89L6039.81,528.19L6040.35,530.15L6043.33,527.73L6046.13,516.27L6045.06,507.97L6042.05,500.62L6038.52,499.89L6033.98,499.52L6031.45,499.15L6031.52,499.23C6031.68,499.27 6031.82,499.34 6031.94,499.45L6036.16,503.5ZM6040.76,507.82C6041.41,507.82 6041.93,508.38 6041.93,509.07L6041.93,509.08C6041.94,509.2 6041.93,509.33 6041.88,509.44C6041.73,509.95 6041.29,510.32 6040.76,510.32C6040.11,510.32 6039.59,509.76 6039.59,509.07C6039.59,508.38 6040.12,507.82 6040.76,507.82Z" style="fill:rgb(153,148,143);fill-rule:nonzero;"/>
                <path d="M6033.5,528.42L6034.7,528.87L6033.67,526.91L6033.5,528.42Z" style="fill:rgb(153,148,143);fill-rule:nonzero;"/>
                <path d="M6023.1,507.06L6027.52,512.68C6027.6,512.79 6027.71,512.87 6027.84,512.93L6035.45,516.46L6035.94,516.69L6036.2,516.81C6036.46,516.93 6036.75,516.92 6037,516.79C6037.03,516.77 6037.07,516.75 6037.1,516.73L6037.33,516.57C6037.58,516.39 6037.71,516.1 6037.68,515.81L6037.53,514.43L6036.41,504.01C6036.39,503.82 6036.3,503.64 6036.16,503.5L6031.95,499.45C6031.83,499.34 6031.69,499.26 6031.53,499.23C6031.42,499.21 6031.31,499.2 6031.2,499.22L6026.95,499.84C6026.68,499.88 6026.44,500.04 6026.31,500.27L6025.86,501.07L6025.81,501.15L6023.02,506.15C6022.86,506.44 6022.89,506.8 6023.1,507.06Z" style="fill:rgb(96,95,94);fill-rule:nonzero;"/>
                <path d="M6001.77,519.64L6001.44,513.25L6002.24,511.05L6002.24,509.58L6001.79,510.46L6000.94,512.12L6000.7,512.59L6000.7,518.17L6001.15,522.27L6001.17,522.51L6001.77,519.64Z" style="fill:rgb(68,67,65);fill-rule:nonzero;"/>
                <path d="M6001.79,510.46L6000.94,512.12" style="fill:none;fill-rule:nonzero;"/>
                <path d="M6047,517.29L6045.93,507.01L6043.13,500.62L6042.06,500.62L6045.07,507.96L6046.13,516.26L6043.33,527.72L6040.35,530.14L6040.38,530.24L6040.54,530.74L6043.66,528.09L6047,517.29Z" style="fill:rgb(124,121,118);fill-rule:nonzero;"/>
                <path d="M6033.17,525.95L6033.08,525.79C6033.06,525.75 6033.05,525.7 6033.05,525.65L6033.05,523.87L6032.23,535.21L6032.6,535.21L6032.71,535.58L6033.51,528.42L6033.68,526.91L6033.17,525.95Z" style="fill:rgb(124,121,118);fill-rule:nonzero;"/>
                <path d="M6040.35,530.14L6039.81,528.18L6038.96,525.1L6037.13,518.46C6037.12,518.41 6037.09,518.37 6037.06,518.34C6036.94,518.21 6036.72,518.2 6036.59,518.35L6033.05,522.56L6033.05,525.65C6033.05,525.7 6033.06,525.75 6033.08,525.79L6033.17,525.95L6033.67,526.91L6034.7,528.87L6034.8,529.07L6037.18,533.61C6037.19,533.62 6037.19,533.63 6037.2,533.65L6037.99,535.84C6038,535.87 6038.02,535.9 6038.04,535.93L6039.12,537.24C6039.16,537.29 6039.19,537.36 6039.19,537.43L6039.19,539.73C6039.19,539.9 6039.33,540.03 6039.5,540.03L6042.73,540.03C6042.79,540.03 6042.84,540.01 6042.89,539.98L6045,538.7C6045.19,538.58 6045.2,538.31 6045.01,538.19L6042.47,536.55C6042.41,536.51 6042.37,536.45 6042.34,536.39L6040.57,530.87L6040.53,530.75L6040.37,530.25L6040.35,530.14Z" style="fill:rgb(96,95,94);fill-rule:nonzero;"/>
                <path d="M6002.71,532.71L6002.31,537.48L6003.11,537.48L6003.16,537.57L6003.45,532.56L6005.25,529.25L6007.82,528.86L6007.47,528.16C6007.45,528.13 6007.45,528.09 6007.45,528.05L6007.39,527.92L6008.2,527.23L6004.59,528.95L6002.71,532.71Z" style="fill:rgb(124,121,118);fill-rule:nonzero;"/>
                <path d="M6007.81,528.88L6008.75,530.76C6008.77,530.79 6008.77,530.82 6008.78,530.86L6009.3,540.25C6009.31,540.35 6009.38,540.44 6009.47,540.47L6011.8,541.01C6011.83,541.02 6011.85,541.02 6011.88,541.01L6015.75,540.42C6015.93,540.39 6016,540.16 6015.88,540.02L6014.48,538.48C6014.46,538.46 6014.44,538.43 6014.43,538.4L6013.38,535.38C6013.38,535.37 6013.37,535.36 6013.37,535.34L6012.25,529.33C6012.24,529.29 6012.25,529.24 6012.26,529.2L6012.89,527.46C6012.9,527.44 6012.91,527.41 6012.93,527.4L6014.14,525.83C6014.26,525.68 6014.16,525.45 6013.97,525.45L6010.45,525.45C6010.4,525.45 6010.35,525.47 6010.31,525.5L6008.18,527.33L6007.51,527.9C6007.46,527.95 6007.43,528.01 6007.43,528.08C6007.43,528.12 6007.44,528.15 6007.45,528.19L6007.81,528.88Z" style="fill:rgb(96,95,94);fill-rule:nonzero;"/>
                <path d="M6003.11,537.49L5998.78,537.49C5998.59,537.49 5998.43,537.64 5998.41,537.84L5998.15,540.51C5998.13,540.74 5998.3,540.94 5998.52,540.94L6004.26,540.94C6004.53,540.94 6004.71,540.64 6004.59,540.38L6004.32,539.78C6004.32,539.77 6004.31,539.77 6004.31,539.76L6003.16,537.58L6003.11,537.49Z" style="fill:rgb(96,95,94);fill-rule:nonzero;"/>
                <path d="M6032.22,535.21L6029.06,535.21L6029.35,537.25C6029.38,537.44 6029.3,537.64 6029.16,537.76L6028.26,538.51C6028.14,538.61 6028.06,538.77 6028.06,538.93L6028.06,539.94C6028.06,540.24 6028.3,540.49 6028.58,540.48L6034.91,540.23C6035.18,540.22 6035.4,539.98 6035.4,539.69L6035.4,539.48C6035.4,539.29 6035.31,539.12 6035.16,539.02L6033.56,537.96C6033.46,537.89 6033.38,537.79 6033.35,537.67L6032.72,535.59C6032.64,535.36 6032.44,535.21 6032.22,535.21Z" style="fill:rgb(96,95,94);fill-rule:nonzero;"/>
                <path d="M6040.76,510.32C6041.29,510.32 6041.73,509.95 6041.88,509.44C6041.93,509.33 6041.95,509.2 6041.93,509.08L6041.93,509.07C6041.93,508.38 6041.4,507.82 6040.76,507.82C6040.11,507.82 6039.59,508.38 6039.59,509.07C6039.59,509.76 6040.12,510.32 6040.76,510.32Z" style="fill:rgb(96,95,94);fill-rule:nonzero;"/>
                <path d="M6084.22,523.62C6083.89,523.62 6083.57,523.55 6083.3,523.43C6083.26,523.55 6083.25,523.69 6083.31,523.83C6083.34,523.92 6083.35,524.01 6083.34,524.11L6080.21,546.42C6080.21,546.45 6080.2,546.48 6080.19,546.51L6079.85,547.57C6079.71,548.01 6080.14,548.44 6080.72,548.44L6081.91,548.44C6082.37,548.44 6082.76,548.16 6082.8,547.8L6085.28,526.4L6084.59,523.62L6084.22,523.62Z" style="fill:rgb(216,129,57);fill-rule:nonzero;"/>
                <path d="M6098.83,523.62L6096.6,523.62C6096.57,523.73 6096.57,523.84 6096.6,523.95L6099.1,532.24C6099.12,532.32 6099.13,532.39 6099.12,532.47L6098.51,539.84C6098.5,539.91 6098.49,539.98 6098.46,540.04L6095.5,546.9C6095.27,547.44 6095.82,547.99 6096.6,547.99L6098.13,547.99C6098.71,547.99 6099.19,547.68 6099.27,547.27L6101.02,537.94C6101.03,537.9 6101.03,537.86 6101.03,537.83L6101.03,528.37L6098.85,523.69C6098.83,523.65 6098.83,523.63 6098.83,523.62Z" style="fill:rgb(216,129,57);fill-rule:nonzero;"/>
                <path d="M6106.95,535.85L6103.28,525.39C6103.24,525.28 6103.23,525.17 6103.23,525.06L6103.37,522.75L6104.86,519.95C6105.02,519.65 6105.03,519.31 6104.87,519L6103.47,516.29C6103.31,515.98 6102.99,515.72 6102.58,515.57L6098.81,514.19L6090.34,511.21C6089.9,511.06 6089.57,510.78 6089.41,510.45L6087.23,505.88C6087.17,505.75 6087.13,505.62 6087.13,505.48L6086.52,490.02C6086.52,489.98 6086.51,489.95 6086.5,489.91C6088.26,489.84 6089.56,489.39 6089.98,488.68C6090.01,488.62 6090.34,488.05 6089.98,487.76C6089.45,487.34 6087.75,487.8 6085.88,488.5C6085.74,488.3 6085.54,488.13 6085.3,488L6086.13,486.48C6086.17,486.41 6086.19,486.34 6086.19,486.27C6086.19,485.95 6085.84,485.69 6085.4,485.69L6084.46,485.69C6084.02,485.69 6083.67,485.95 6083.67,486.27L6083.67,487.76L6082.63,487.76L6082.45,486.02C6082.43,485.83 6082.22,485.69 6081.96,485.69L6081.72,485.69C6081.42,485.69 6081.19,485.88 6081.24,486.1L6081.6,487.8C6081.39,487.84 6081.18,487.9 6081,488L6075.94,490.58C6075.45,490.83 6075.16,491.24 6075.16,491.67C6075.16,492.33 6075.82,492.89 6076.72,492.99L6079.37,493.28L6082.5,493.28C6082.98,493.28 6083.37,493.56 6083.38,493.91L6083.88,509.14L6083.94,509.56C6083.96,509.71 6083.95,509.86 6083.9,510L6083.97,512.26C6083.97,512.32 6083.96,512.38 6083.94,512.44L6081.63,518.68C6081.46,519.13 6080.79,519.26 6080.33,519.06C6080.35,519.2 6080.4,519.33 6080.47,519.46L6082.54,522.82C6082.7,523.08 6082.96,523.28 6083.28,523.42C6083.55,523.54 6083.87,523.61 6084.2,523.61L6084.57,523.61L6085.26,526.39L6086.17,530.03L6086.17,545.88C6086.17,545.9 6086.17,545.91 6086.16,545.93C6086.07,546.2 6085.22,548.68 6085.22,548.89C6085.22,549.08 6087.81,548.96 6088.71,548.91C6088.88,548.9 6089,548.8 6088.98,548.68L6088.06,541.56L6088.06,541.53L6089.49,523.62L6098.79,523.62C6098.8,523.64 6098.8,523.66 6098.81,523.67L6100.99,528.35L6104.38,535.62C6104.43,535.74 6104.46,535.86 6104.46,535.98L6104.46,544.36C6104.46,544.47 6104.44,544.58 6104.39,544.69L6103.81,546.06C6103.5,546.78 6104.25,547.52 6105.29,547.52C6106.2,547.52 6106.91,546.95 6106.83,546.29L6106.36,542.55C6106.35,542.49 6106.35,542.43 6106.36,542.37L6106.96,536.21C6107.01,536.09 6106.99,535.97 6106.95,535.85ZM6080.97,490.51C6080.74,490.51 6080.55,490.34 6080.55,490.13C6080.55,489.92 6080.74,489.75 6080.97,489.75C6081.2,489.75 6081.39,489.92 6081.39,490.13C6081.39,490.34 6081.2,490.51 6080.97,490.51ZM6086.54,500.71L6086.54,500.89L6086.37,500.98L6086.19,500.89L6086.19,500.71L6086.36,500.62L6086.54,500.71ZM6086.11,497.99L6085.88,497.97L6085.79,497.78L6085.93,497.62L6086.16,497.64L6086.25,497.83L6086.11,497.99ZM6089.04,488.22C6089.23,488.36 6089.05,488.66 6089.04,488.68C6088.6,489.42 6086.31,489.39 6086.2,489.14C6086.08,488.86 6088.56,487.87 6089.04,488.22ZM6086.35,494.95L6086.41,495.15L6086.25,495.29L6086.03,495.24L6085.97,495.04L6086.13,494.9L6086.35,494.95ZM6085.46,492.42L6085.8,492.28L6086.11,492.48L6086.07,492.82L6085.73,492.96L6085.42,492.76L6085.46,492.42ZM6085.45,496.54L6085.69,496.59L6085.76,496.8L6085.6,496.96L6085.36,496.91L6085.29,496.7L6085.45,496.54ZM6085.2,507.3L6085.36,507.14L6085.59,507.19L6085.66,507.39L6085.5,507.55L6085.27,507.5L6085.2,507.3ZM6084.98,490.7L6085.14,490.66L6085.26,490.77L6085.22,490.92L6085.06,490.96L6084.94,490.85L6084.98,490.7ZM6085.03,493.79L6085.23,493.83L6085.29,494L6085.15,494.14L6084.95,494.1L6084.89,493.93L6085.03,493.79ZM6085.68,515.25L6085.44,515.29L6085.28,515.13L6085.36,514.93L6085.6,514.89L6085.76,515.05L6085.68,515.25ZM6085.71,502.23L6085.6,502.11L6085.66,501.97L6085.83,501.94L6085.94,502.06L6085.88,502.2L6085.71,502.23ZM6086.05,512.29L6085.99,512.29L6085.96,512.24L6085.99,512.19L6086.05,512.19L6086.08,512.24L6086.05,512.29ZM6086.08,504.04L6085.98,504.04L6085.92,503.96L6085.97,503.88L6086.07,503.88L6086.13,503.96L6086.08,504.04ZM6086.14,499.23L6086.01,499.28L6085.9,499.2L6085.92,499.07L6086.05,499.02L6086.16,499.1L6086.14,499.23ZM6086.39,509.72L6086.33,509.73L6086.3,509.69L6086.32,509.64L6086.38,509.63L6086.41,509.67L6086.39,509.72ZM6086.37,506.12L6086.18,506.03L6086.17,505.83L6086.36,505.73L6086.55,505.82L6086.56,506.02L6086.37,506.12ZM6086.87,517.84L6086.71,517.85L6086.62,517.73L6086.69,517.6L6086.85,517.59L6086.94,517.71L6086.87,517.84ZM6086.99,508.19L6086.89,508.18L6086.85,508.09L6086.91,508.02L6087.01,508.03L6087.05,508.12L6086.99,508.19ZM6088,510.88L6087.65,510.83L6087.53,510.53L6087.76,510.29L6088.11,510.34L6088.23,510.64L6088,510.88ZM6088.23,509.19L6088,509.17L6087.9,508.98L6088.03,508.81L6088.26,508.83L6088.36,509.02L6088.23,509.19ZM6088.57,512.21L6088.44,512.17L6088.42,512.05L6088.53,511.97L6088.66,512.01L6088.68,512.13L6088.57,512.21ZM6089.38,516.94L6089.11,516.96L6088.96,516.76L6089.07,516.54L6089.34,516.52L6089.49,516.72L6089.38,516.94ZM6089.38,514.97L6089.1,514.89L6089.03,514.63L6089.24,514.45L6089.52,514.53L6089.59,514.79L6089.38,514.97ZM6090.77,513.33L6090.3,513.2L6090.19,512.78L6090.54,512.48L6091.01,512.61L6091.12,513.03L6090.77,513.33ZM6091.61,517.53L6091.42,517.46L6091.39,517.28L6091.55,517.16L6091.74,517.23L6091.77,517.41L6091.61,517.53ZM6092.5,515.08L6092.25,515.2L6092,515.07L6092.01,514.81L6092.26,514.69L6092.51,514.82L6092.5,515.08ZM6094.28,517.92L6094.05,517.89L6093.96,517.7L6094.1,517.54L6094.33,517.57L6094.42,517.76L6094.28,517.92ZM6095.03,513.91L6094.71,513.91L6094.55,513.66L6094.71,513.41L6095.03,513.41L6095.19,513.66L6095.03,513.91ZM6095.97,515.72L6095.8,515.64L6095.79,515.47L6095.95,515.38L6096.12,515.46L6096.13,515.63L6095.97,515.72ZM6100.53,516.92L6100.77,517.41L6100.41,517.84L6099.81,517.78L6099.57,517.29L6099.93,516.86L6100.53,516.92ZM6099.57,515.45L6099.72,515.42L6099.83,515.52L6099.79,515.65L6099.64,515.68L6099.53,515.58L6099.57,515.45ZM6098.28,516.58L6098.15,516.82L6097.85,516.84L6097.68,516.62L6097.81,516.38L6098.11,516.36L6098.28,516.58ZM6097.68,518.61L6097.72,518.58L6097.77,518.59L6097.78,518.64L6097.74,518.67L6097.69,518.66L6097.68,518.61ZM6097.56,514.56L6097.8,514.5L6097.98,514.65L6097.92,514.86L6097.68,514.92L6097.5,514.77L6097.56,514.56ZM6101.74,516.38L6101.64,516.37L6101.6,516.29L6101.66,516.21L6101.76,516.22L6101.8,516.3L6101.74,516.38ZM6102.8,518.61L6102.67,518.55L6102.66,518.42L6102.78,518.35L6102.91,518.41L6102.92,518.54L6102.8,518.61Z" style="fill:rgb(232,161,91);fill-rule:nonzero;"/>
                <path d="M6081.64,518.69L6083.95,512.45C6083.97,512.39 6083.98,512.33 6083.98,512.27L6083.91,510.01L6083.88,509.15L6083.38,493.92C6083.37,493.57 6082.98,493.29 6082.5,493.29L6079.27,493.29L6081.48,494.67L6081.48,511.62C6081.48,511.66 6081.48,511.69 6081.47,511.73L6079.94,518.43C6079.92,518.53 6079.93,518.63 6079.97,518.72C6080.04,518.89 6080.19,519.01 6080.36,519.09C6080.8,519.27 6081.47,519.14 6081.64,518.69Z" style="fill:rgb(216,129,57);fill-rule:nonzero;"/>
                <path d="M6089.04,488.68C6089.05,488.66 6089.23,488.36 6089.04,488.22C6088.57,487.87 6086.08,488.85 6086.2,489.14C6086.3,489.4 6088.6,489.42 6089.04,488.68Z" style="fill:rgb(226,131,27);fill-rule:nonzero;"/>
                <path d="M6090.55,512.49L6090.19,512.79L6090.3,513.21L6090.77,513.33L6091.12,513.04L6091.01,512.62L6090.55,512.49Z" style="fill:rgb(160,98,36);fill-rule:nonzero;"/>
                <path d="M6094.71,513.42L6094.55,513.66L6094.71,513.91L6095.03,513.91L6095.19,513.67L6095.03,513.42L6094.71,513.42Z" style="fill:rgb(160,98,36);fill-rule:nonzero;"/>
                <path d="M6097.91,514.87L6097.97,514.66L6097.79,514.5L6097.56,514.56L6097.5,514.78L6097.67,514.93L6097.91,514.87Z" style="fill:rgb(160,98,36);fill-rule:nonzero;"/>
                <path d="M6092.01,514.81L6092.01,515.07L6092.25,515.2L6092.5,515.08L6092.51,514.82L6092.26,514.69L6092.01,514.81Z" style="fill:rgb(160,98,36);fill-rule:nonzero;"/>
                <path d="M6095.96,515.37L6095.79,515.47L6095.8,515.64L6095.97,515.72L6096.14,515.62L6096.13,515.45L6095.96,515.37Z" style="fill:rgb(160,98,36);fill-rule:nonzero;"/>
                <path d="M6101.65,516.21L6101.59,516.29L6101.63,516.37L6101.74,516.38L6101.8,516.3L6101.75,516.22L6101.65,516.21Z" style="fill:rgb(160,98,36);fill-rule:nonzero;"/>
                <path d="M6097.69,516.62L6097.86,516.83L6098.15,516.82L6098.28,516.58L6098.12,516.36L6097.82,516.38L6097.69,516.62Z" style="fill:rgb(160,98,36);fill-rule:nonzero;"/>
                <path d="M6099.78,515.64L6099.82,515.51L6099.71,515.41L6099.57,515.45L6099.53,515.58L6099.63,515.67L6099.78,515.64Z" style="fill:rgb(160,98,36);fill-rule:nonzero;"/>
                <path d="M6099.82,517.78L6100.42,517.84L6100.77,517.41L6100.53,516.92L6099.93,516.86L6099.58,517.29L6099.82,517.78Z" style="fill:rgb(160,98,36);fill-rule:nonzero;"/>
                <path d="M6102.78,518.34L6102.66,518.42L6102.67,518.55L6102.8,518.61L6102.92,518.53L6102.91,518.4L6102.78,518.34Z" style="fill:rgb(160,98,36);fill-rule:nonzero;"/>
                <path d="M6094.11,517.53L6093.97,517.69L6094.05,517.89L6094.28,517.92L6094.42,517.75L6094.34,517.56L6094.11,517.53Z" style="fill:rgb(160,98,36);fill-rule:nonzero;"/>
                <path d="M6097.78,518.64L6097.77,518.59L6097.72,518.58L6097.68,518.61L6097.69,518.66L6097.75,518.67L6097.78,518.64Z" style="fill:rgb(160,98,36);fill-rule:nonzero;"/>
                <path d="M6089.07,516.55L6088.96,516.77L6089.11,516.96L6089.38,516.94L6089.49,516.73L6089.34,516.53L6089.07,516.55Z" style="fill:rgb(160,98,36);fill-rule:nonzero;"/>
                <path d="M6089.24,514.46L6089.03,514.64L6089.1,514.9L6089.38,514.97L6089.59,514.79L6089.52,514.54L6089.24,514.46Z" style="fill:rgb(160,98,36);fill-rule:nonzero;"/>
                <path d="M6091.55,517.16L6091.39,517.28L6091.42,517.46L6091.61,517.53L6091.78,517.42L6091.75,517.23L6091.55,517.16Z" style="fill:rgb(160,98,36);fill-rule:nonzero;"/>
                <path d="M6085.36,514.93L6085.28,515.14L6085.44,515.3L6085.68,515.25L6085.76,515.05L6085.6,514.89L6085.36,514.93Z" style="fill:rgb(160,98,36);fill-rule:nonzero;"/>
                <path d="M6086,512.19L6085.96,512.23L6085.99,512.28L6086.05,512.29L6086.09,512.24L6086.06,512.19L6086,512.19Z" style="fill:rgb(160,98,36);fill-rule:nonzero;"/>
                <path d="M6088.53,511.96L6088.42,512.04L6088.44,512.17L6088.57,512.21L6088.68,512.13L6088.66,512.01L6088.53,511.96Z" style="fill:rgb(160,98,36);fill-rule:nonzero;"/>
                <path d="M6086.69,517.61L6086.62,517.74L6086.72,517.85L6086.87,517.84L6086.94,517.71L6086.85,517.6L6086.69,517.61Z" style="fill:rgb(160,98,36);fill-rule:nonzero;"/>
                <path d="M6085.36,496.91L6085.59,496.95L6085.76,496.79L6085.68,496.59L6085.45,496.54L6085.28,496.7L6085.36,496.91Z" style="fill:rgb(160,98,36);fill-rule:nonzero;"/>
                <path d="M6085.91,499.08L6085.89,499.2L6086,499.28L6086.14,499.23L6086.16,499.11L6086.04,499.03L6085.91,499.08Z" style="fill:rgb(160,98,36);fill-rule:nonzero;"/>
                <path d="M6085.93,497.61L6085.8,497.78L6085.89,497.96L6086.11,497.99L6086.25,497.82L6086.16,497.64L6085.93,497.61Z" style="fill:rgb(160,98,36);fill-rule:nonzero;"/>
                <path d="M6085.83,501.95L6085.66,501.97L6085.61,502.11L6085.71,502.23L6085.88,502.2L6085.94,502.06L6085.83,501.95Z" style="fill:rgb(160,98,36);fill-rule:nonzero;"/>
                <path d="M6085.97,503.89L6085.92,503.97L6085.98,504.05L6086.08,504.04L6086.13,503.96L6086.07,503.88L6085.97,503.89Z" style="fill:rgb(160,98,36);fill-rule:nonzero;"/>
                <path d="M6086.36,505.72L6086.17,505.83L6086.17,506.02L6086.37,506.12L6086.55,506.01L6086.55,505.82L6086.36,505.72Z" style="fill:rgb(160,98,36);fill-rule:nonzero;"/>
                <path d="M6086.18,500.72L6086.19,500.9L6086.36,500.99L6086.54,500.9L6086.54,500.71L6086.36,500.63L6086.18,500.72Z" style="fill:rgb(160,98,36);fill-rule:nonzero;"/>
                <path d="M6086.91,508.01L6086.85,508.09L6086.89,508.17L6086.99,508.19L6087.05,508.11L6087.02,508.03L6086.91,508.01Z" style="fill:rgb(160,98,36);fill-rule:nonzero;"/>
                <path d="M6085.67,507.39L6085.59,507.19L6085.36,507.15L6085.2,507.3L6085.27,507.51L6085.51,507.55L6085.67,507.39Z" style="fill:rgb(160,98,36);fill-rule:nonzero;"/>
                <path d="M6088.03,508.82L6087.9,508.99L6088,509.17L6088.23,509.19L6088.36,509.02L6088.26,508.83L6088.03,508.82Z" style="fill:rgb(160,98,36);fill-rule:nonzero;"/>
                <path d="M6086.33,509.64L6086.3,509.68L6086.34,509.73L6086.39,509.72L6086.42,509.67L6086.38,509.63L6086.33,509.64Z" style="fill:rgb(160,98,36);fill-rule:nonzero;"/>
                <path d="M6087.75,510.29L6087.53,510.53L6087.65,510.83L6088,510.88L6088.23,510.63L6088.1,510.34L6087.75,510.29Z" style="fill:rgb(160,98,36);fill-rule:nonzero;"/>
                <path d="M6085.22,490.91L6085.26,490.77L6085.14,490.66L6084.98,490.7L6084.93,490.85L6085.06,490.96L6085.22,490.91Z" style="fill:rgb(160,98,36);fill-rule:nonzero;"/>
                <path d="M6086.08,492.81L6086.12,492.47L6085.81,492.28L6085.46,492.42L6085.43,492.75L6085.74,492.95L6086.08,492.81Z" style="fill:rgb(160,98,36);fill-rule:nonzero;"/>
                <path d="M6085.16,494.14L6085.3,494L6085.23,493.83L6085.03,493.79L6084.9,493.93L6084.96,494.1L6085.16,494.14Z" style="fill:rgb(160,98,36);fill-rule:nonzero;"/>
                <path d="M6086.03,495.24L6086.25,495.29L6086.41,495.15L6086.35,494.95L6086.13,494.9L6085.97,495.04L6086.03,495.24Z" style="fill:rgb(160,98,36);fill-rule:nonzero;"/>
                <path d="M6080.97,489.76C6080.74,489.76 6080.55,489.93 6080.55,490.14C6080.55,490.35 6080.74,490.52 6080.97,490.52C6081.2,490.52 6081.39,490.35 6081.39,490.14C6081.39,489.92 6081.2,489.76 6080.97,489.76Z" style="fill:rgb(2,2,2);fill-rule:nonzero;"/>
                <path d="M6035.29,631L6049,617L6035.29,603L6035.29,611.4L6006,611.4L6006,623.3L6035.29,623.3L6035.29,631Z" style="fill:rgb(255,0,0);fill-rule:nonzero;"/>
            </g>
        </g>
    </g>
</svg>
