<svg xmlns="http://www.w3.org/2000/svg" viewBox="0 0 12948 1080"><defs><style>.cls-1{fill:none;}.cls-2{fill:#0b870b;}.cls-3{fill:#ad8c2d;}.cls-4{fill:#006a17;}.cls-5{fill:#4ddd0a;}.cls-6{fill:#3ef71e;}.cls-7{fill:#269b19;}.cls-8{fill:#10b210;}.cls-9{fill:#2c7c0a;}.cls-10{fill:#846109;}</style></defs><g id="Palmen"><g id="palmen-2" data-name="palmen"><g id="Hintergrundpalmen"><path class="cls-1" d="M5753.6,516.21c-16.57-22.5-31.6-34.79-37.88-42.33-7.76,13.73-18.42,35.74-21.54,65.16a158.88,158.88,0,0,0-.88,18.29,77.53,77.53,0,0,1,17.37-12C5722.49,531,5737.94,521.82,5753.6,516.21Z" transform="translate(0 0)"/><path class="cls-1" d="M5776.75,554.36c-1.61-3.26-3.33-6.58-5.19-10q-1.41-2.56-2.82-5-3.37,2.29-6.81,4.93A76.25,76.25,0,0,1,5776.75,554.36Z" transform="translate(0 0)"/><path class="cls-1" d="M5586.5,565.64c.31.1.62.24.93.36,1.18-.42,2.39-.8,3.61-1.17-.83.12-1.67.25-2.51.4C5587.84,565.36,5587.17,565.49,5586.5,565.64Z" transform="translate(0 0)"/><path class="cls-1" d="M5612.2,518.82a95.77,95.77,0,0,0-31.94,21.26c-1.16,1.17-2.27,2.34-3.35,3.52,20.31-4.54,42.48,10.11,52.95,20.13a84.68,84.68,0,0,1,28.6,14.17c-1.9-3.33-3.93-6.72-6.12-10.18A256,256,0,0,0,5612.2,518.82Z" transform="translate(0 0)"/><path class="cls-1" d="M2786.94,373.88a182.49,182.49,0,0,0-42.67,1c-1.53.22-3,.46-4.51.71,33.72,9.38,61.73,38.46,76.86,60.05,4.11,0,8.25.15,12.43.54A131.75,131.75,0,0,1,2879.22,452c-2.58-3.31-5.33-6.68-8.29-10.11C2838.52,404.3,2803.62,385,2786.94,373.88Z" transform="translate(0 0)"/><path class="cls-1" d="M5563,479.1a127.07,127.07,0,0,0-35,1.88,18.22,18.22,0,0,1-3.18,5.66l.12,35.1a91.47,91.47,0,0,1,6.92,10.85C5534.56,505.59,5554.82,484.55,5563,479.1Z" transform="translate(0 0)"/><path class="cls-1" d="M3040,344c3.12-.89,6.25-1.63,9.39-2.24-1.77-.4-3.57-.78-5.41-1.16a319.73,319.73,0,0,0-76.14-6c-4.87,7.94-33.89,35.17-40.19,78.73a119.06,119.06,0,0,0,.32,35.85,89.31,89.31,0,0,1,13.54-21.1A98.91,98.91,0,0,1,2962,410.34C2974.86,386.56,3000.43,355.32,3040,344Z" transform="translate(0 0)"/><path class="cls-1" d="M3118.24,348.14c-6.54,2-11.66,6.21-13.86,11.51,0,.08-.07.16-.1.23a15,15,0,0,0-1.06,5.1,191.76,191.76,0,0,0-56.92,9.46,174.47,174.47,0,0,0-33.14,15c44.74-10.58,89.07-6.1,89.61-1.69.59,4.82-51.58,6.34-103.67,43.78q-3.85,2.79-7.41,5.6c46.36-7.46,97.13,17.58,119.34,33.53V379.34c-4.8-3.4-7.83-8.35-7.83-13.87,0-.16,0-.33,0-.49a15,15,0,0,1,1.06-5.1c0-.07.07-.15.1-.23,2.2-5.3,7.32-9.54,13.86-11.51a28.23,28.23,0,0,1,8.23-1.2h0A28.23,28.23,0,0,0,3118.24,348.14Z" transform="translate(0 0)"/><path class="cls-1" d="M5286.84,471V484.4a64.49,64.49,0,0,1,11.75-6.44,58.44,58.44,0,0,1,6.51-2.26c-1.23-.4-2.48-.79-3.75-1.16C5296.33,473.05,5291.49,471.91,5286.84,471Z" transform="translate(0 0)"/><path class="cls-1" d="M5386.46,400.74a126.48,126.48,0,0,0-28-3.07c-.6,3.56-1.11,7.24-1.49,11.06-.06.6-.1,1.18-.15,1.78a111.48,111.48,0,0,1,11.86,9.75A84.17,84.17,0,0,1,5386.46,400.74Z" transform="translate(0 0)"/><path class="cls-1" d="M5622.47,601.9a51.08,51.08,0,0,1,3.84,8.93c1.86-.93,3.76-1.79,5.71-2.56A68.22,68.22,0,0,1,5639,606c-1.31-.39-2.63-.78-4-1.16C5630.67,603.66,5626.51,602.7,5622.47,601.9Z" transform="translate(0 0)"/><path class="cls-1" d="M5525.06,552.13l1.06.78-1.06-1.84Z" transform="translate(0 0)"/><path class="cls-1" d="M5471.4,424.05c-2-3.26-4.15-6.59-6.45-10-4.74-6.94-9.55-13.24-14.32-19a143.72,143.72,0,0,0-22.39,13.07c1.35.08,2.71.21,4.07.37C5446.87,410.29,5460.09,416.29,5471.4,424.05Z" transform="translate(0 0)"/><path class="cls-1" d="M5416.05,468c.71.25,1.41.53,2.11.82.65-.55,1.31-1.09,2-1.63l-1,.16C5418.11,467.55,5417.08,467.77,5416.05,468Z" transform="translate(0 0)"/><path class="cls-1" d="M5548.12,551.2a61.57,61.57,0,0,1,6.12-13.26c11.66-18.75,32.2-25.91,48.5-27.82-11.73-10.39-19.65-16.32-19.77-20.37-.08-2.75,3.45-4.21,9.27-3.87a111.09,111.09,0,0,0-16.82-4.93c-3.21-.67-6.33-1.16-9.38-1.53-2.43,5.22-15.25,22.23-18.06,49.26A103.84,103.84,0,0,0,5548.12,551.2Z" transform="translate(0 0)"/><path class="cls-1" d="M5315.44,433.74a118.53,118.53,0,0,0-15.35.77,80.09,80.09,0,0,1,23.32,13.08q-2.67-5-5.74-10.18C5316.93,436.16,5316.18,435,5315.44,433.74Z" transform="translate(0 0)"/><path class="cls-1" d="M5798.85,630.74V618.93a20.44,20.44,0,0,1-4.91-13.67c0-.16,0-.32,0-.49a82.92,82.92,0,0,0-19.13,2.82A122.62,122.62,0,0,1,5798.85,630.74Z" transform="translate(0 0)"/><path class="cls-2" d="M2678.56,382.86a88.66,88.66,0,0,1,33.07-10,79.18,79.18,0,0,1,28.13,2.78c1.49-.25,3-.49,4.51-.71a182.49,182.49,0,0,1,42.67-1c-6.22-4.13-9.91-7.11-10-9.46-.27-6.9,30.66-5.63,64.06,12.05-20.24-17.43-73.77-48.54-122.44-39.84A231.63,231.63,0,0,0,2678.56,382.86Z" transform="translate(0 0)"/><path class="cls-3" d="M2659,898.09c5.33.11,10.66.2,16,.34l-.34-474.74A24.27,24.27,0,0,1,2659,431Z" transform="translate(0 0)"/><path class="cls-4" d="M2634.41,403.91a283.63,283.63,0,0,0-54.76-19.78c-3.14.69-6.27,1.51-9.39,2.5-65.16,20.73-92.4,101.62-87.09,106.43,4.53,4.11,30.45-49.33,93.42-72.6A174.41,174.41,0,0,1,2633.51,410a18.14,18.14,0,0,1,1.06-5.66C2634.52,404.16,2634.46,404,2634.41,403.91Z" transform="translate(0 0)"/><path class="cls-5" d="M2654.8,350.08a147.43,147.43,0,0,1-.32-39.86c7.24-55.64,44.49-87.32,40.61-90-4.78-3.34-69.06,39.1-76.27,97a185.3,185.3,0,0,1,27.87,67.27A110,110,0,0,1,2654.8,350.08Z" transform="translate(0 0)"/><path class="cls-6" d="M2816.62,435.68c-15.13-21.59-43.14-50.67-76.86-60.05a79.18,79.18,0,0,0-28.13-2.78,88.66,88.66,0,0,0-33.07,10c-2.76,4.12-5.21,8-7.42,11.45A19.81,19.81,0,0,1,2680,410.5a18.5,18.5,0,0,1-1.3,6.81c16.09-2.6,36.88-4.42,60.82,0a163.46,163.46,0,0,1,54.22,20.53A136.11,136.11,0,0,1,2816.62,435.68Z" transform="translate(0 0)"/><path class="cls-7" d="M2634.57,404.29c0-.09.07-.17.1-.26l-.26-.12C2634.46,404,2634.52,404.16,2634.57,404.29Z" transform="translate(0 0)"/><path class="cls-7" d="M2646.51,388.59q0-2,.18-4.17a185.3,185.3,0,0,0-27.87-67.27,162.34,162.34,0,0,0-18.15-22.26c-42.44-43.42-97.24-49.29-96.87-39.09.34,9.62,49.51,28.78,94,86.07,3,3.82,5.7,7.56,8.28,11.24A153.5,153.5,0,0,1,2646.51,388.59Z" transform="translate(0 0)"/><path class="cls-8" d="M2646.51,388.59c.7.89,1.37,1.77,2,2.64a25.81,25.81,0,0,1,8.23-1.33,25.1,25.1,0,0,1,14.38,4.41c2.21-3.49,4.66-7.33,7.42-11.45a231.63,231.63,0,0,1,40-46.23c2.38-2.09,4.84-4.16,7.42-6.22,52.08-41.63,104.26-43.31,103.67-48.67-.87-7.85-114-15.91-161.3,44.88a101.5,101.5,0,0,0-13.54,23.46,110,110,0,0,0-8.11,34.34Q2646.56,386.55,2646.51,388.59Z" transform="translate(0 0)"/><path class="cls-9" d="M2634.67,404a22,22,0,0,1,13.86-12.8c-.65-.87-1.32-1.75-2-2.64a153.5,153.5,0,0,0-40.43-35.48c-14.51-8.75-31.48-15.51-50.16-17.49-53.47-5.65-102.64,29.8-100.18,39.71,2.3,9.27,48.62-8.25,118.5,7.52q2.76.63,5.41,1.28a283.63,283.63,0,0,1,54.76,19.78Z" transform="translate(0 0)"/><path class="cls-10" d="M2671.14,394.31a25.1,25.1,0,0,0-14.38-4.41,25.81,25.81,0,0,0-8.23,1.33,22,22,0,0,0-13.86,12.8c0,.09-.07.17-.1.26a18.14,18.14,0,0,0-1.06,5.66c0,.19,0,.37,0,.55a19.62,19.62,0,0,0,7.83,15.41l-1.26,471.63c6.31.28,12.62.43,18.94.55L2659,431a24.27,24.27,0,0,0,15.68-7.32,20.17,20.17,0,0,0,4.09-6.38,18.5,18.5,0,0,0,1.3-6.81A19.81,19.81,0,0,0,2671.14,394.31Z" transform="translate(0 0)"/><path class="cls-2" d="M2991.69,437.13a215.8,215.8,0,0,0-40,41.59,96,96,0,0,1,33.07-9,87.83,87.83,0,0,1,28.14,2.5c1.49-.22,3-.44,4.5-.64,43.24-5.56,76.95,4.4,93.63,9.07v-10C3088.82,454.71,3038.05,429.67,2991.69,437.13Z" transform="translate(0 0)"/><path class="cls-3" d="M2932,880.61q8-.18,16-.46l-.22-364.71a25.45,25.45,0,0,1-15.68,6.59Z" transform="translate(0 0)"/><path class="cls-4" d="M2852.78,479.86c-3.13.62-6.27,1.36-9.39,2.25-65.15,18.64-92.4,91.41-87.09,95.74,4.54,3.69,30.45-44.38,93.43-65.31a191.67,191.67,0,0,1,56.91-9.45,15.13,15.13,0,0,1,1.07-5.1l-.17-.34A303.83,303.83,0,0,0,2852.78,479.86Z" transform="translate(0 0)"/><path class="cls-5" d="M2927.94,449.22a119.06,119.06,0,0,1-.32-35.85c6.3-43.56,35.32-70.79,40.19-78.73-2.82.1-5.51.23-8.08.37-18.84,9.52-61.95,42.52-67.78,84.6a157.63,157.63,0,0,1,27.88,60.51A90.83,90.83,0,0,1,2927.94,449.22Z" transform="translate(0 0)"/><path class="cls-6" d="M2984.76,469.71a96,96,0,0,0-33.07,9c-2.76,3.7-5.21,7.16-7.41,10.29h0c5.41,3.4,8.89,8.66,8.89,14.57a15.14,15.14,0,0,1-1.31,6.12c16.09-2.33,36.88-4,60.82,0,56.63,9.33,85.48,42.47,88.9,38.9,4.29-4.48-35-62.91-88.68-76.36A87.83,87.83,0,0,0,2984.76,469.71Z" transform="translate(0 0)"/><path class="cls-7" d="M2907.71,498l.09-.23-.26-.11Z" transform="translate(0 0)"/><path class="cls-7" d="M2776.93,364.42c.1,2.35,3.79,5.33,10,9.46,16.68,11.08,51.58,30.42,84,68,3,3.43,5.71,6.8,8.29,10.11a149.88,149.88,0,0,1,40.43,31.92q0-1.83.18-3.75A157.63,157.63,0,0,0,2892,419.61a149.68,149.68,0,0,0-18.15-20A156.62,156.62,0,0,0,2841,376.47C2807.59,358.79,2776.66,357.52,2776.93,364.42Z" transform="translate(0 0)"/><path class="cls-8" d="M2944.28,489c2.2-3.13,4.65-6.59,7.41-10.29a215.8,215.8,0,0,1,40-41.59q3.55-2.82,7.41-5.6c52.09-37.44,104.26-39,103.67-43.78-.54-4.41-44.87-8.89-89.61,1.69-39.24,22.92-56.64,53.27-60.28,50.3-2.09-1.7.86-14,9.16-29.4a98.91,98.91,0,0,0-20.56,17.78,89.31,89.31,0,0,0-13.54,21.1,90.83,90.83,0,0,0-8.11,30.9q-.15,1.92-.18,3.75,1,1.2,2,2.37a28.64,28.64,0,0,1,8.24-1.2h0A27.15,27.15,0,0,1,2944.28,489Z" transform="translate(0 0)"/><path class="cls-9" d="M2879.22,452a131.75,131.75,0,0,0-50.17-15.73c-4.18-.39-8.32-.56-12.43-.54a136.11,136.11,0,0,0-22.85,2.12c-37.89,6.67-66.79,27.25-64.89,34.14,2.3,8.34,48.61-7.42,118.49,6.77,1.84.37,3.64.76,5.41,1.15a303.83,303.83,0,0,1,54.76,17.79l.26.11c2.2-5.31,7.33-9.55,13.86-11.52q-1-1.17-2-2.37A149.88,149.88,0,0,0,2879.22,452Z" transform="translate(0 0)"/><path class="cls-10" d="M2944.28,489h0a27.15,27.15,0,0,0-14.38-4h0a28.64,28.64,0,0,0-8.24,1.2c-6.53,2-11.66,6.21-13.86,11.52l-.09.23a15.13,15.13,0,0,0-1.07,5.1c0,.16,0,.32,0,.49,0,5.52,3,10.47,7.83,13.86l2.48,363.4c5,0,10-.11,15.06-.22h0l.09-358.58a25.45,25.45,0,0,0,15.68-6.59,17.8,17.8,0,0,0,4.09-5.74h0a15.14,15.14,0,0,0,1.31-6.12C2953.17,497.67,2949.69,492.41,2944.28,489Z" transform="translate(0 0)"/><path class="cls-2" d="M3188.26,299a216.7,216.7,0,0,0-40,41.59,96.09,96.09,0,0,1,33.08-9,87.49,87.49,0,0,1,28.13,2.51c1.49-.23,3-.45,4.5-.64,60.93-7.84,103,15.14,105,10.73C3321.78,338.32,3251,288.94,3188.26,299Z" transform="translate(0 0)"/><path class="cls-3" d="M3129,816.23h0c5,0,10,0,15,0l.32-438.9a25.49,25.49,0,0,1-15.68,6.58Z" transform="translate(0 0)"/><path class="cls-4" d="M3103.22,365a15,15,0,0,1,1.06-5.1l-.17-.34a303.8,303.8,0,0,0-54.75-17.78c-3.14.61-6.27,1.35-9.39,2.24-39.54,11.32-65.11,42.56-77.93,66.34-8.3,15.41-11.25,27.7-9.16,29.4,3.64,3,21-27.38,60.28-50.3a174.47,174.47,0,0,1,33.14-15A191.76,191.76,0,0,1,3103.22,365Z" transform="translate(0 0)"/><path class="cls-5" d="M3124.51,311.12a119.45,119.45,0,0,1-.32-35.86c7.24-50,44.49-78.54,40.61-81-4.78-3-69.06,35.17-76.27,87.23A157.81,157.81,0,0,1,3116.4,342,90.78,90.78,0,0,1,3124.51,311.12Z" transform="translate(0 0)"/><path class="cls-6" d="M3181.34,331.6a96.09,96.09,0,0,0-33.08,9c-2.75,3.7-5.2,7.16-7.41,10.3h0c5.41,3.39,8.89,8.65,8.89,14.56a15.22,15.22,0,0,1-1.3,6.13c16.09-2.34,36.88-4,60.82,0,56.63,9.34,85.47,42.48,88.9,38.9,4.29-4.48-35-62.91-88.69-76.35A87.49,87.49,0,0,0,3181.34,331.6Z" transform="translate(0 0)"/><path class="cls-7" d="M3104.38,359.65l-.27-.11.17.34C3104.31,359.81,3104.35,359.73,3104.38,359.65Z" transform="translate(0 0)"/><path class="cls-7" d="M3116.22,345.76q0-1.83.18-3.75a157.81,157.81,0,0,0-27.87-60.51,151,151,0,0,0-18.15-20c-42.44-39.06-97.24-44.34-96.87-35.15.34,8.65,49.51,25.89,94,77.42,3,3.43,5.7,6.8,8.28,10.11A149.51,149.51,0,0,1,3116.22,345.76Z" transform="translate(0 0)"/><path class="cls-8" d="M3116.22,345.76c.7.8,1.37,1.6,2,2.38a28.23,28.23,0,0,1,8.23-1.2h0a27.06,27.06,0,0,1,14.38,4c2.21-3.14,4.66-6.6,7.41-10.3a216.7,216.7,0,0,1,40-41.59c2.38-1.87,4.84-3.74,7.42-5.59,52.08-37.45,104.26-39,103.67-43.78-.87-7.07-114-14.32-161.3,40.37a89.31,89.31,0,0,0-13.54,21.1A90.78,90.78,0,0,0,3116.4,342Q3116.27,343.93,3116.22,345.76Z" transform="translate(0 0)"/><path class="cls-9" d="M3044,340.6c1.84.38,3.64.76,5.41,1.16a303.8,303.8,0,0,1,54.75,17.78l.27.11c2.2-5.3,7.32-9.54,13.86-11.51-.65-.78-1.32-1.58-2-2.38a149.51,149.51,0,0,0-40.43-31.91,131.35,131.35,0,0,0-50.17-15.73c-53.46-5.09-102.63,26.8-100.17,35.72,1.16,4.19,13.46,2.29,34.28,1.17,2.57-.14,5.26-.27,8.08-.37A319.73,319.73,0,0,1,3044,340.6Z" transform="translate(0 0)"/><path class="cls-10" d="M3140.85,350.91h0a27.06,27.06,0,0,0-14.38-4h0a28.23,28.23,0,0,0-8.23,1.2c-6.54,2-11.66,6.21-13.86,11.51,0,.08-.07.16-.1.23a15,15,0,0,0-1.06,5.1c0,.16,0,.33,0,.49,0,5.52,3,10.47,7.83,13.87v101.3l0,335.74q9-.09,18-.15h0l-.32-432.31a25.49,25.49,0,0,0,15.68-6.58,18.17,18.17,0,0,0,4.09-5.74h0a15.22,15.22,0,0,0,1.3-6.13C3149.74,359.56,3146.26,354.3,3140.85,350.91Z" transform="translate(0 0)"/><path class="cls-2" d="M5293.92,403.84l-1.63-1.92q-1.3,2.16-2.5,4.21C5291.13,405.33,5292.51,404.56,5293.92,403.84Z" transform="translate(0 0)"/><path class="cls-2" d="M5319.66,394.84c.59.8,1.18,1.6,1.75,2.41a53.86,53.86,0,0,1,13.49,2.25,127.86,127.86,0,0,1,13.7-33.29A73,73,0,0,0,5320,366a176.48,176.48,0,0,0-12.89,14.52A125.89,125.89,0,0,1,5319.66,394.84Z" transform="translate(0 0)"/><path class="cls-2" d="M5386.46,400.74a93.24,93.24,0,0,1,15-9.75,146.78,146.78,0,0,0-36.22-20.06,169.43,169.43,0,0,0-6.76,26.74A126.48,126.48,0,0,1,5386.46,400.74Z" transform="translate(0 0)"/><path class="cls-3" d="M5275,469.22v25.22a81.85,81.85,0,0,1,11.87-10V471C5282.73,470.23,5278.77,469.64,5275,469.22Z" transform="translate(0 0)"/><path class="cls-3" d="M5275,820l12,3-.14-304.68a121.68,121.68,0,0,0-11.89,9.91Z" transform="translate(0 0)"/><path class="cls-4" d="M5256.39,424.41A197.26,197.26,0,0,0,5215,407.24a68.09,68.09,0,0,0-7.11,2.17c-49.28,18-69.89,88.24-65.87,92.42,3.43,3.57,23-42.84,70.67-63a116.68,116.68,0,0,1,43.05-9.13,18.09,18.09,0,0,1,.8-4.92Z" transform="translate(0 0)"/><path class="cls-5" d="M5271.09,379.81c-11-10.39-18.44-16.32-18.56-20.37s7.31-5.33,18.16-2a138.83,138.83,0,0,1,.89-14.39c5.48-48.32,33.65-75.83,30.71-78.19-3.61-2.9-52.24,33.95-57.69,84.21,11.72,19.81,18.08,41,21.08,58.41A107.61,107.61,0,0,1,5271.09,379.81Z" transform="translate(0 0)"/><path class="cls-6" d="M5321.41,397.25A148.65,148.65,0,0,1,5332.24,415a108.46,108.46,0,0,1,2.66-15.51A53.86,53.86,0,0,0,5321.41,397.25Z" transform="translate(0 0)"/><path class="cls-6" d="M5315.44,433.74a254.69,254.69,0,0,0-21.52-29.9c-1.41.72-2.79,1.49-4.13,2.29-2.09,3.57-3.94,6.91-5.61,9.94a18,18,0,0,1,6.72,14.06c0,.67,0,1.32-.11,2a61.07,61.07,0,0,1,9.3,2.42A118.53,118.53,0,0,1,5315.44,433.74Z" transform="translate(0 0)"/><path class="cls-6" d="M5362.5,431.22c1.23-2.6,2.58-5.15,4.06-7.63.68-1.14,1.38-2.24,2.1-3.33a111.48,111.48,0,0,0-11.86-9.75,171.83,171.83,0,0,0-.25,27.13A41.18,41.18,0,0,1,5362.5,431.22Z" transform="translate(0 0)"/><path class="cls-7" d="M5256.51,424.74l.08-.23-.2-.1Z" transform="translate(0 0)"/><path class="cls-7" d="M5265.55,411.1c0-1.17.06-2.38.13-3.62-3-17.4-9.36-38.6-21.08-58.41a140.28,140.28,0,0,0-13.73-19.34c-32.1-37.7-73.56-42.8-73.28-33.93.26,8.35,37.45,25,71.11,74.74,2.24,3.31,4.31,6.56,6.26,9.76A123.1,123.1,0,0,1,5265.55,411.1Z" transform="translate(0 0)"/><path class="cls-8" d="M5320,366q2.7-2.72,5.61-5.4c39.4-36.14,78.87-37.61,78.42-42.26-.65-6.82-86.23-13.82-122,39q-1.22,1.81-2.33,3.68a100.93,100.93,0,0,1,27.42,19.53A176.48,176.48,0,0,1,5320,366Z" transform="translate(0 0)"/><path class="cls-8" d="M5292.29,401.92a282.09,282.09,0,0,0-21.2-22.11,107.61,107.61,0,0,0-5.41,27.67c-.07,1.24-.11,2.45-.13,3.62.53.78,1,1.54,1.52,2.3a17.35,17.35,0,0,1,17.11,2.67c1.67-3,3.52-6.37,5.61-9.94Q5291,404.08,5292.29,401.92Z" transform="translate(0 0)"/><path class="cls-9" d="M5256.59,424.51a17.78,17.78,0,0,1,10.48-11.11c-.48-.76-1-1.52-1.52-2.3A123.1,123.1,0,0,0,5235,380.3c-11-7.61-23.81-13.47-37.95-15.19-40.44-4.91-77.63,25.87-75.77,34.48,1.74,8.05,36.77-7.16,89.64,6.53,1.39.36,2.75.74,4.09,1.12a197.26,197.26,0,0,1,41.42,17.17Z" transform="translate(0 0)"/><path class="cls-10" d="M5275,469.22c-4.7-.52-9.16-.79-13.35-.89V511A112.71,112.71,0,0,1,5275,494.44Z" transform="translate(0 0)"/><path class="cls-10" d="M5261.62,542.7V674l.38,146h13l0-291.77A149.61,149.61,0,0,0,5261.62,542.7Z" transform="translate(0 0)"/><path class="cls-10" d="M5288.65,431.75c.71.1,1.43.22,2.14.34.06-.64.11-1.29.11-2a18,18,0,0,0-6.72-14.06,17.35,17.35,0,0,0-17.11-2.67,17.78,17.78,0,0,0-10.48,11.11l-.08.23a18.09,18.09,0,0,0-.8,4.92c0,.16,0,.31,0,.47a18.14,18.14,0,0,0,.88,5.6A66.13,66.13,0,0,1,5288.65,431.75Z" transform="translate(0 0)"/><path class="cls-2" d="M5492,478.16c.22-.68-.24-2-1.28-3.63-3.1.13-6.3.37-9.59.75C5487.62,477.92,5491.45,479.7,5492,478.16Z" transform="translate(0 0)"/><path class="cls-2" d="M5392,444.38a222.21,222.21,0,0,0-18.36,30.16c6.84-4.65,14.66-8.14,22.92-9.07a42.62,42.62,0,0,1,19.5,2.53c1-.23,2.06-.45,3.12-.65l1-.16a80.87,80.87,0,0,1,23.35-13.41,75.53,75.53,0,0,1,7.32-2.22c-1.38-.38-2.78-.77-4.21-1.13A196.06,196.06,0,0,0,5392,444.38Z" transform="translate(0 0)"/><path class="cls-3" d="M5360.05,518.17,5360,831h11l-.08-319.47A15.63,15.63,0,0,1,5360.05,518.17Z" transform="translate(0 0)"/><path class="cls-4" d="M5343,493.61a169.55,169.55,0,0,0-37.94-17.91,58.44,58.44,0,0,0-6.51,2.26,64.49,64.49,0,0,0-11.75,6.44,81.85,81.85,0,0,0-11.87,10A112.71,112.71,0,0,0,5261.62,511c-18.38,27.47-25.82,60.51-23.38,63.39,1.86,2.2,8.9-13.84,23.38-31.68A149.61,149.61,0,0,1,5275,528.23a121.68,121.68,0,0,1,11.89-9.91,104.42,104.42,0,0,1,16.12-9.71,95.81,95.81,0,0,1,39.44-9.52,21.54,21.54,0,0,1,.73-5.14C5343.12,493.84,5343.08,493.72,5343,493.61Z" transform="translate(0 0)"/><path class="cls-5" d="M5332.24,415c10.73,20.67,16.56,42.79,19.31,60.95a126.32,126.32,0,0,1,5.31-30c-1.48-.37-2.38-1-2.62-2.15-.32-1.49.51-3.63,2.31-6.12a171.83,171.83,0,0,1,.25-27.13c.05-.6.09-1.18.15-1.78.38-3.82.89-7.5,1.49-11.06a169.43,169.43,0,0,1,6.76-26.74c9.2-26.86,21.81-42,19.89-43.76-2.15-2-21.69,13.56-36.49,39a127.86,127.86,0,0,0-13.7,33.29A108.46,108.46,0,0,0,5332.24,415Z" transform="translate(0 0)"/><path class="cls-6" d="M5418.16,468.82c-.7-.29-1.4-.57-2.11-.82a42.62,42.62,0,0,0-19.5-2.53c-8.26.93-16.08,4.42-22.92,9.07-1.91,3.73-3.61,7.22-5.13,10.38a19.78,19.78,0,0,1,6.16,14.66,21.4,21.4,0,0,1-.91,6.17,110.09,110.09,0,0,1,16.75-2.29C5397.35,491.29,5406.53,478.75,5418.16,468.82Z" transform="translate(0 0)"/><path class="cls-6" d="M5415.9,505.72c39.24,9.4,59.23,42.77,61.6,39.17,2.19-3.32-12-36.17-34.55-58.64a130.77,130.77,0,0,0-28.8,19.08Z" transform="translate(0 0)"/><path class="cls-7" d="M5343.15,494c0-.07.05-.15.07-.23l-.18-.11C5343.08,493.72,5343.12,493.84,5343.15,494Z" transform="translate(0 0)"/><path class="cls-7" d="M5252.53,359.44c.12,4.05,7.55,10,18.56,20.37a282.09,282.09,0,0,1,21.2,22.11l1.63,1.92a254.69,254.69,0,0,1,21.52,29.9c.74,1.21,1.49,2.42,2.23,3.67q3.08,5.18,5.74,10.18a122.3,122.3,0,0,1,28,32.14c0-1.23.06-2.49.12-3.77-2.75-18.16-8.58-40.28-19.31-60.95a148.65,148.65,0,0,0-10.83-17.76c-.57-.81-1.16-1.61-1.75-2.41a125.89,125.89,0,0,0-12.51-14.34A100.93,100.93,0,0,0,5279.73,361a68.19,68.19,0,0,0-9-3.53C5259.84,354.11,5252.42,355.33,5252.53,359.44Z" transform="translate(0 0)"/><path class="cls-8" d="M5368.66,420.26c-.72,1.09-1.42,2.19-2.1,3.33-1.48,2.48-2.83,5-4.06,7.63,12.66-11.36,38.19-24.85,65.74-23.05a143.72,143.72,0,0,1,22.39-13.07c-4.74-5.71-9.43-10.86-14-15.51a114.57,114.57,0,0,0-35.22,11.4,93.24,93.24,0,0,0-15,9.75A84.17,84.17,0,0,0,5368.66,420.26Z" transform="translate(0 0)"/><path class="cls-8" d="M5478.33,382.93c-.09-1.07-2-2.14-5.16-3,1.19,1.6,2.35,3.23,3.46,4.86C5477.77,384.16,5478.38,383.58,5478.33,382.93Z" transform="translate(0 0)"/><path class="cls-8" d="M5392,444.38c-17.76.46-30,2.83-35.13,1.53a126.32,126.32,0,0,0-5.31,30c-.06,1.28-.1,2.54-.12,3.77.48.81.95,1.61,1.39,2.39a14.32,14.32,0,0,1,5.71-1.2,14.72,14.72,0,0,1,10,4c1.52-3.16,3.22-6.65,5.13-10.38A222.21,222.21,0,0,1,5392,444.38Z" transform="translate(0 0)"/><path class="cls-9" d="M5286.84,471c4.65.89,9.49,2,14.51,3.52,1.27.37,2.52.76,3.75,1.16A169.55,169.55,0,0,1,5343,493.61l.18.11a17.84,17.84,0,0,1,9.6-11.6c-.44-.78-.91-1.58-1.39-2.39a122.3,122.3,0,0,0-28-32.14,80.09,80.09,0,0,0-23.32-13.08,61.07,61.07,0,0,0-9.3-2.42c-.71-.12-1.43-.24-2.14-.34a66.13,66.13,0,0,0-32.07,4c-22.4,8.31-38.53,25.74-37.35,32,1.11,5.81,16.8,0,42.39.61,4.19.1,8.65.37,13.35.89C5278.77,469.64,5282.73,470.23,5286.84,471Z" transform="translate(0 0)"/><path class="cls-10" d="M5368.5,484.92a14.72,14.72,0,0,0-10-4,14.32,14.32,0,0,0-5.71,1.2,17.84,17.84,0,0,0-9.6,11.6c0,.08-.05.16-.07.23a21.54,21.54,0,0,0-.73,5.14c0,.16,0,.33,0,.49a20,20,0,0,0,5.42,14L5347,831h13l.05-312.83a15.63,15.63,0,0,0,10.87-6.64,19.45,19.45,0,0,0,2.83-5.78,21.4,21.4,0,0,0,.91-6.17A19.78,19.78,0,0,0,5368.5,484.92Z" transform="translate(0 0)"/><path class="cls-2" d="M5553.66,441.55a54.79,54.79,0,0,1,21.92,2.47c1.16-.22,2.32-.44,3.51-.63,47.48-7.72,80.23,14.93,81.85,10.59,2.16-5.8-53-54.49-101.89-44.55a201.12,201.12,0,0,0-31.17,41A63.28,63.28,0,0,1,5553.66,441.55Z" transform="translate(0 0)"/><path class="cls-3" d="M5512.71,570.88c.49-.15,1-.31,1.47-.44l-1.47-.44Z" transform="translate(0 0)"/><path class="cls-3" d="M5512.73,591l.27,221h0v11l13-8-.81-228.29A64.13,64.13,0,0,0,5512.8,591Z" transform="translate(0 0)"/><path class="cls-3" d="M5522.37,546.56a159.11,159.11,0,0,0-9.71-13.95v12.76a53.13,53.13,0,0,1,12.39,6.76v-1.06C5524.2,549.58,5523.32,548.08,5522.37,546.56Z" transform="translate(0 0)"/><path class="cls-3" d="M5512.61,493.14l0,15.35a77.79,77.79,0,0,1,11,11.52c.44.57.86,1.15,1.28,1.73l-.12-35.1A18.07,18.07,0,0,1,5512.61,493.14Z" transform="translate(0 0)"/><path class="cls-4" d="M5493.48,469.1a204.33,204.33,0,0,0-42.68-17.54,75.53,75.53,0,0,0-7.32,2.22,80.87,80.87,0,0,0-23.35,13.41c-.66.54-1.32,1.08-2,1.63-11.63,9.93-20.81,22.47-27.66,34.64-12.28,21.83-17.05,42.48-14.89,44.71,2.56,2.63,13.87-21.49,38.54-42.84a130.77,130.77,0,0,1,28.8-19.08q2.69-1.29,5.47-2.47a118.87,118.87,0,0,1,32.66-8.5c3.29-.38,6.49-.62,9.59-.75l2.11-.07a18.19,18.19,0,0,1,.82-5Z" transform="translate(0 0)"/><path class="cls-5" d="M5509.37,421.36a149.15,149.15,0,0,1-.25-35.35c5.65-49.34,34.67-77.44,31.64-79.85-3.72-3-53.81,34.67-59.43,86,12.07,20.23,18.63,41.88,21.72,59.66A108.83,108.83,0,0,1,5509.37,421.36Z" transform="translate(0 0)"/><path class="cls-6" d="M5553.66,441.55a63.28,63.28,0,0,0-25.78,8.88c-2.15,3.65-4.06,7.06-5.77,10.16A18.35,18.35,0,0,1,5528,481a127.07,127.07,0,0,1,35-1.88c1.73-1.15,2.93-1.62,3.31-1.29s.11.76-.28,1.61c3.05.37,6.17.86,9.38,1.53a111.09,111.09,0,0,1,16.82,4.93c11.54.67,32.11,8.45,51.44,27.33-6-16.13-33.14-58.12-68.1-69.19A54.79,54.79,0,0,0,5553.66,441.55Z" transform="translate(0 0)"/><path class="cls-7" d="M5493.6,469.43a2,2,0,0,0,.08-.22l-.2-.11Z" transform="translate(0 0)"/><path class="cls-7" d="M5465,414.08c2.3,3.38,4.44,6.71,6.45,10a126.26,126.26,0,0,1,31.51,31.46c0-1.2.07-2.43.14-3.69-3.09-17.78-9.65-39.43-21.72-59.66q-2.22-3.74-4.7-7.38c-1.11-1.63-2.27-3.26-3.46-4.86q-2.84-3.82-6-7.51c-33.07-38.5-75.78-43.71-75.49-34.66.2,6.21,20.54,16.91,45,41.84,4.56,4.65,9.25,9.8,14,15.51S5460.21,407.14,5465,414.08Z" transform="translate(0 0)"/><path class="cls-8" d="M5502.91,455.51c.55.79,1.07,1.58,1.57,2.34a18,18,0,0,1,17.63,2.74c1.71-3.1,3.62-6.51,5.77-10.16a201.12,201.12,0,0,1,31.17-41q2.77-2.78,5.78-5.51c40.59-36.92,81.25-38.41,80.79-43.17-.67-7-88.84-14.11-125.7,39.8a94.15,94.15,0,0,0-10.55,20.81,108.83,108.83,0,0,0-6.32,30.46C5503,453.08,5502.93,454.31,5502.91,455.51Z" transform="translate(0 0)"/><path class="cls-9" d="M5471.4,424.05c-11.31-7.76-24.53-13.76-39.09-15.51-1.36-.16-2.72-.29-4.07-.37-27.55-1.8-53.08,11.69-65.74,23.05a41.18,41.18,0,0,0-5.95,6.42c-1.8,2.49-2.63,4.63-2.31,6.12.24,1.11,1.14,1.78,2.62,2.15,5.11,1.3,17.37-1.07,35.13-1.53a196.06,196.06,0,0,1,54.6,6.05c1.43.36,2.83.75,4.21,1.13a204.33,204.33,0,0,1,42.68,17.54l.2.11a18.3,18.3,0,0,1,10.8-11.36c-.5-.76-1-1.55-1.57-2.34A126.26,126.26,0,0,0,5471.4,424.05Z" transform="translate(0 0)"/><path class="cls-10" d="M5503.46,543a41.49,41.49,0,0,1,9.21,2.34V532.61a158.53,158.53,0,0,0-13.78-15.49V542.7A39.48,39.48,0,0,1,5503.46,543Z" transform="translate(0 0)"/><path class="cls-10" d="M5512.71,570.88V570l-1-.29A102.71,102.71,0,0,0,5498.9,567V578.3a44.86,44.86,0,0,1,11-6.45C5510.86,571.48,5511.78,571.17,5512.71,570.88Z" transform="translate(0 0)"/><path class="cls-10" d="M5512.73,591a70.1,70.1,0,0,0-13.82,8.53L5499,817l14-5h0Z" transform="translate(0 0)"/><path class="cls-10" d="M5512.63,508.49l0-15.35A18.18,18.18,0,0,0,5528,481a18.35,18.35,0,0,0-5.9-20.39,18,18,0,0,0-17.63-2.74,18.3,18.3,0,0,0-10.8,11.36,2,2,0,0,1-.08.22,18.19,18.19,0,0,0-.82,5c0,.16,0,.32,0,.49a18.23,18.23,0,0,0,6.11,13.66v10.85A64.91,64.91,0,0,1,5512.63,508.49Z" transform="translate(0 0)"/><path class="cls-2" d="M5576.91,543.6a127.76,127.76,0,0,0-18.06,26.12,34.47,34.47,0,0,1,14.94-5.66,29,29,0,0,1,12.71,1.58c.67-.15,1.34-.28,2-.41.84-.15,1.68-.28,2.51-.4a73.42,73.42,0,0,1,30.4-2.77,65.65,65.65,0,0,1,8.42,1.67C5619.39,553.71,5597.22,539.06,5576.91,543.6Z" transform="translate(0 0)"/><path class="cls-3" d="M5550,600.24V817l-1,1,0,5,6-3,2-219.47A23.75,23.75,0,0,1,5550,600.24Z" transform="translate(0 0)"/><path class="cls-4" d="M5538.91,581.61a112.78,112.78,0,0,0-24.73-11.17c-.49.13-1,.29-1.47.44-.93.29-1.85.6-2.78,1a44.86,44.86,0,0,0-11,6.45c-21.46,16.87-30.38,51.33-28.3,53.68,1.68,1.9,9.82-18,28.31-32.45a70.1,70.1,0,0,1,13.82-8.53l.07,0a64.13,64.13,0,0,1,12.39-4.25A66.84,66.84,0,0,1,5538.5,585a13,13,0,0,1,.48-3.21C5539,581.75,5538.93,581.68,5538.91,581.61Z" transform="translate(0 0)"/><path class="cls-5" d="M5548,528.68c2.81-27,15.63-44,18.06-49.26.39-.85.52-1.4.28-1.61s-1.58.14-3.31,1.29c-8.19,5.45-28.45,26.49-31.14,53.49a120.72,120.72,0,0,1,12.59,38,74.92,74.92,0,0,1,3.66-19.4A103.84,103.84,0,0,1,5548,528.68Z" transform="translate(0 0)"/><path class="cls-6" d="M5573.79,564.06a34.47,34.47,0,0,0-14.94,5.66c-1.25,2.32-2.35,4.5-3.35,6.47a11.75,11.75,0,0,1,3.54,5.73A92.19,92.19,0,0,1,5587.43,566c-.31-.12-.62-.26-.93-.36A29,29,0,0,0,5573.79,564.06Z" transform="translate(0 0)"/><path class="cls-6" d="M5622.47,601.9c-4.44-.89-8.72-1.56-12.83-2,6.76,4.81,11.47,9.78,14.21,12.28.81-.45,1.63-.88,2.46-1.3A51.08,51.08,0,0,0,5622.47,601.9Z" transform="translate(0 0)"/><path class="cls-7" d="M5539,581.82s0-.09.05-.14l-.12-.07C5538.93,581.68,5539,581.75,5539,581.82Z" transform="translate(0 0)"/><path class="cls-7" d="M5512.66,532.61a159.11,159.11,0,0,1,9.71,13.95c.95,1.52,1.83,3,2.69,4.51l1.06,1.84a77.33,77.33,0,0,1,18.26,20c0-.76,0-1.55.08-2.35a120.72,120.72,0,0,0-12.59-38,91.47,91.47,0,0,0-6.92-10.85c-.42-.58-.84-1.16-1.28-1.73a77.79,77.79,0,0,0-11-11.52,64.91,64.91,0,0,0-13.76-9c-10.74-5.15-19.05-4.88-18.95-1.53s8.17,8.5,19,19.19A158.53,158.53,0,0,1,5512.66,532.61Z" transform="translate(0 0)"/><path class="cls-8" d="M5576.91,543.6c1.08-1.18,2.19-2.35,3.35-3.52a95.77,95.77,0,0,1,31.94-21.26c-3.35-3.21-6.53-6.1-9.46-8.7-16.3,1.91-36.84,9.07-48.5,27.82a61.57,61.57,0,0,0-6.12,13.26,74.92,74.92,0,0,0-3.66,19.4c0,.8-.07,1.59-.08,2.35.31.51.62,1,.91,1.5a9.48,9.48,0,0,1,3.72-.76,9.84,9.84,0,0,1,6.49,2.5c1-2,2.1-4.15,3.35-6.47A127.76,127.76,0,0,1,5576.91,543.6Z" transform="translate(0 0)"/><path class="cls-9" d="M5512.71,570l1.47.44a112.78,112.78,0,0,1,24.73,11.17l.12.07a11.2,11.2,0,0,1,6.26-7.23c-.29-.49-.6-1-.91-1.5a77.33,77.33,0,0,0-18.26-20l-1.06-.78a53.13,53.13,0,0,0-12.39-6.76,41.49,41.49,0,0,0-9.21-2.34,39.48,39.48,0,0,0-4.57-.33c-22.31-.38-41.72,17.52-40.68,22.76.89,4.49,16.4-2.13,40.69,1.5a102.71,102.71,0,0,1,12.83,2.75Z" transform="translate(0 0)"/><path class="cls-10" d="M5550,600.24a3,3,0,0,1-2.49-2.2c-.66-3.28,3.76-9.63,11.53-16.12a11.75,11.75,0,0,0-3.54-5.73,9.84,9.84,0,0,0-6.49-2.5,9.48,9.48,0,0,0-3.72.76,11.2,11.2,0,0,0-6.26,7.23c0,.05,0,.1-.05.14a13,13,0,0,0-.48,3.21v.31A12.16,12.16,0,0,0,5542,594l-1,229h3l5-5,1-1Z" transform="translate(0 0)"/><path class="cls-2" d="M5731,575.32a219.71,219.71,0,0,0-19.07,29.54c7.28-4.65,15.61-8.15,24.41-9.07.33,0,.67,0,1-.08a62,62,0,0,1,16.94-11.62,49.7,49.7,0,0,1,5.89-2.21q-1.67-.58-3.39-1.14A128.38,128.38,0,0,0,5731,575.32Z" transform="translate(0 0)"/><path class="cls-3" d="M5699.7,678.48c-1.48-1.89,1.07-17.09,7.93-35a16.55,16.55,0,0,1-10.15,5V884.31h11.57V665.18C5703.71,674.05,5700.76,679.85,5699.7,678.48Z" transform="translate(0 0)"/><path class="cls-4" d="M5679.36,623.92A186.28,186.28,0,0,0,5639,606a68.22,68.22,0,0,0-6.93,2.26c-2,.77-3.85,1.63-5.71,2.56-.83.42-1.65.85-2.46,1.3-42.19,23.29-59.79,88.46-56.1,92.56,3.35,3.73,22.47-44.69,68.95-65.77a107.88,107.88,0,0,1,42-9.52,20.06,20.06,0,0,1,.78-5.13Z" transform="translate(0 0)"/><path class="cls-5" d="M5694.08,576.21c-7,.7-11.06.8-11.58-2.14-.59-3.37,3.57-10.05,10.8-16.74a158.88,158.88,0,0,1,.88-18.29c3.12-29.42,13.78-51.43,21.54-65.16-1.95-2.34-3.05-4.22-3.09-5.81-.07-2.84,3.26-4.28,8.69-3.72,2.32-3.93,3.55-6.25,2.82-6.87-3.52-3-51,35.42-56.28,87.85,11.43,20.66,17.64,42.78,20.57,60.94A118.85,118.85,0,0,1,5694.08,576.21Z" transform="translate(0 0)"/><path class="cls-6" d="M5711.94,604.86c-2,3.73-3.84,7.21-5.47,10.37A19.24,19.24,0,0,1,5713,629.9c0,.34,0,.68,0,1,6-12.71,14.13-25.57,24.36-35.21-.33,0-.67,0-1,.08C5727.55,596.71,5719.22,600.21,5711.94,604.86Z" transform="translate(0 0)"/><path class="cls-6" d="M5774.82,607.59a81.63,81.63,0,0,0-16.55,6.51,101.68,101.68,0,0,0-25.7,19.57A98.81,98.81,0,0,1,5757,636c17.54,4,31.45,12.11,41.9,20V630.74A122.62,122.62,0,0,0,5774.82,607.59Z" transform="translate(0 0)"/><path class="cls-6" d="M5822.56,675.21c.75-1.06-.29-5.14-2.83-10.93v9.93C5821.19,675.37,5822.14,675.81,5822.56,675.21Z" transform="translate(0 0)"/><path class="cls-7" d="M5679.48,624.27c0-.08.05-.16.07-.23l-.19-.12Z" transform="translate(0 0)"/><path class="cls-7" d="M5583,489.75c.12,4.05,8,10,19.77,20.37,2.93,2.6,6.11,5.49,9.46,8.7a256,256,0,0,1,40.14,48.9c2.19,3.46,4.22,6.85,6.12,10.18a124.72,124.72,0,0,1,29.83,32.15c0-1.23.07-2.49.14-3.78-2.93-18.16-9.14-40.28-20.57-60.94a145.21,145.21,0,0,0-13.4-20.17,128,128,0,0,0-10.78-11.95c-19.33-18.88-39.9-26.66-51.44-27.33C5586.42,485.54,5582.89,487,5583,489.75Z" transform="translate(0 0)"/><path class="cls-8" d="M5710.67,545.3c10.17-5.15,22.21-8.3,34.63-6.45a54.56,54.56,0,0,1,16.63,5.47q3.43-2.64,6.81-4.93a251.91,251.91,0,0,0-15.14-23.18C5737.94,521.82,5722.49,531,5710.67,545.3Z" transform="translate(0 0)"/><path class="cls-8" d="M5786.78,509c-2.83.27-5.75.62-8.74,1.09q3.65,6.07,6.7,12.41A109.15,109.15,0,0,1,5786.78,509Z" transform="translate(0 0)"/><path class="cls-8" d="M5731,575.32c-15.88-1.65-28.53,0-36.93.89a118.85,118.85,0,0,0-5.65,30.06c-.07,1.29-.12,2.55-.14,3.78.52.8,1,1.6,1.49,2.39a15.89,15.89,0,0,1,6.08-1.21,16.24,16.24,0,0,1,10.61,4c1.63-3.16,3.44-6.64,5.47-10.37A219.71,219.71,0,0,1,5731,575.32Z" transform="translate(0 0)"/><path class="cls-8" d="M5806.78,520.35c10.36-3.66,16.84-5.1,16.66-7.1s-6.14-3.78-15.47-4.53c-.34,2.48-.64,5-.88,7.6C5807,517.68,5806.87,519,5806.78,520.35Z" transform="translate(0 0)"/><path class="cls-9" d="M5635,604.85c1.36.38,2.68.77,4,1.16a186.28,186.28,0,0,1,40.41,17.91l.19.12a18.11,18.11,0,0,1,10.23-11.6c-.47-.79-1-1.59-1.49-2.39a124.72,124.72,0,0,0-29.83-32.15,84.68,84.68,0,0,0-28.6-14.17,65.65,65.65,0,0,0-8.42-1.67,73.42,73.42,0,0,0-30.4,2.77c-1.22.37-2.43.75-3.61,1.17A92.19,92.19,0,0,0,5559,581.92c-7.77,6.49-12.19,12.84-11.53,16.12a3,3,0,0,0,2.49,2.2,23.75,23.75,0,0,0,7,.29c10.35-.61,28.64-3.57,52.63-.68,4.11.49,8.39,1.16,12.83,2C5626.51,602.7,5630.67,603.66,5635,604.85Z" transform="translate(0 0)"/><path class="cls-10" d="M5707.63,643.47c1.56-4.08,3.35-8.31,5.36-12.55,0-.34,0-.68,0-1a19.24,19.24,0,0,0-6.56-14.67,16.24,16.24,0,0,0-10.61-4,15.89,15.89,0,0,0-6.08,1.21,18.11,18.11,0,0,0-10.23,11.6c0,.07,0,.15-.07.23a20.06,20.06,0,0,0-.78,5.13c0,.17,0,.33,0,.5a19.34,19.34,0,0,0,5.78,14V884.31h13V648.48A16.55,16.55,0,0,0,5707.63,643.47Z" transform="translate(0 0)"/><path class="cls-2" d="M5847.26,539.74c-11.47,14.23-19.34,28.92-25.07,41,6.18-4.55,13.26-8,20.73-8.88a35.8,35.8,0,0,1,17.64,2.47c.93-.22,1.87-.44,2.82-.63,38.2-7.73,64.54,14.92,65.84,10.58C5931,578.49,5886.58,529.81,5847.26,539.74Z" transform="translate(0 0)"/><path class="cls-3" d="M5809.9,623.45V854.31h9.83V617A14,14,0,0,1,5809.9,623.45Z" transform="translate(0 0)"/><path class="cls-4" d="M5758.27,614.1a81.63,81.63,0,0,1,16.55-6.51,82.92,82.92,0,0,1,19.13-2.82,22.18,22.18,0,0,1,.66-5l-.1-.34a148.63,148.63,0,0,0-34.33-17.53,49.7,49.7,0,0,0-5.89,2.21,62,62,0,0,0-16.94,11.62c-10.23,9.64-18.32,22.5-24.36,35.21-2,4.24-3.8,8.47-5.36,12.55-6.86,17.92-9.41,33.12-7.93,35,1.06,1.37,4-4.43,9.35-13.3s13-20.65,23.52-31.51A101.68,101.68,0,0,1,5758.27,614.1Z" transform="translate(0 0)"/><path class="cls-5" d="M5802.21,582.13a132.31,132.31,0,0,1,5.09-30.46,184.68,184.68,0,0,1-.52-31.32c.09-1.33.19-2.67.31-4,.24-2.6.54-5.12.88-7.6,6.06-44.61,26.88-70,24.58-72.24-2.72-2.7-36.34,28.23-45.77,72.49a109.15,109.15,0,0,0-2,13.5C5794.45,542.7,5799.72,564.36,5802.21,582.13Z" transform="translate(0 0)"/><path class="cls-6" d="M5842.92,571.87c-7.47.9-14.55,4.33-20.73,8.88-1.73,3.65-3.27,7.06-4.65,10.15a20.2,20.2,0,0,1,5.57,14.36,22.37,22.37,0,0,1-.82,6c10.09-2.3,23.13-3.92,38.13,0,35.51,9.2,53.59,41.87,55.74,38.35,2.69-4.42-21.93-62-55.6-75.28A35.8,35.8,0,0,0,5842.92,571.87Z" transform="translate(0 0)"/><path class="cls-7" d="M5794.61,599.75l.06-.23-.16-.11Z" transform="translate(0 0)"/><path class="cls-7" d="M5712.63,468.07c0,1.59,1.14,3.47,3.09,5.81,6.28,7.54,21.31,19.83,37.88,42.33a251.91,251.91,0,0,1,15.14,23.18q1.41,2.45,2.82,5c1.86,3.38,3.58,6.7,5.19,10a117.46,117.46,0,0,1,25.35,31.47c0-1.2,0-2.44.11-3.7-2.49-17.77-7.76-39.43-17.47-59.66q-3-6.33-6.7-12.41c-1.49-2.49-3-4.94-4.68-7.33-18.26-26.43-40.17-37.17-52-38.38C5715.89,463.79,5712.56,465.23,5712.63,468.07Z" transform="translate(0 0)"/><path class="cls-8" d="M5802.21,582.13c-.06,1.26-.1,2.5-.11,3.7q.66,1.18,1.26,2.34a12,12,0,0,1,5.16-1.18,12.8,12.8,0,0,1,9,3.91c1.38-3.09,2.92-6.5,4.65-10.15,5.73-12.09,13.6-26.78,25.07-41q2.23-2.76,4.65-5.51c32.65-36.92,65.36-38.41,65-43.16-.54-7-71.47-14.11-101.11,39.8a103.29,103.29,0,0,0-8.49,20.8A132.31,132.31,0,0,0,5802.21,582.13Z" transform="translate(0 0)"/><path class="cls-9" d="M5776.75,554.36a76.25,76.25,0,0,0-14.82-10,54.56,54.56,0,0,0-16.63-5.47c-12.42-1.85-24.46,1.3-34.63,6.45a77.53,77.53,0,0,0-17.37,12c-7.23,6.69-11.39,13.37-10.8,16.74.52,2.94,4.58,2.84,11.58,2.14,8.4-.85,21.05-2.54,36.93-.89a128.38,128.38,0,0,1,25.78,5.42q1.72.56,3.39,1.14a148.63,148.63,0,0,1,34.33,17.53l.16.11c1.38-5.23,4.6-9.41,8.69-11.35q-.6-1.15-1.26-2.34A117.46,117.46,0,0,0,5776.75,554.36Z" transform="translate(0 0)"/><path class="cls-10" d="M5817.54,590.9a12.8,12.8,0,0,0-9-3.91,12,12,0,0,0-5.16,1.18c-4.09,1.94-7.31,6.12-8.69,11.35l-.06.23a22.18,22.18,0,0,0-.66,5c0,.17,0,.33,0,.49a20.44,20.44,0,0,0,4.91,13.67V854.31h11V623.45a14,14,0,0,0,9.83-6.49,19.72,19.72,0,0,0,2.56-5.66,22.37,22.37,0,0,0,.82-6A20.2,20.2,0,0,0,5817.54,590.9Z" transform="translate(0 0)"/></g></g></g><g id="Rechteck"><rect class="cls-1" width="12948" height="1080"/></g></svg>