<svg xmlns="http://www.w3.org/2000/svg" viewBox="0 0 12949 1080"><defs><style>.cls-1{fill:none;}.cls-2{fill:#f2ce86;}.cls-3{fill:#f9bf5a;}</style></defs><g id="Ebene_43" data-name="Ebene 43"><rect class="cls-1" x="1" width="12948" height="1080"/></g><g id="Pyramiden_vorne" data-name="Pyramiden vorne"><polygon class="cls-2" points="1612.57 342.83 1609.42 347.71 1609.09 348.21 1426.38 867 1966.53 837.08 1612.57 342.83"/><polygon class="cls-3" points="1290.97 834.39 1427.33 864.31 1610.03 345.52 1290.97 834.39"/><polygon class="cls-2" points="730.7 401.77 727.74 406.1 727.43 406.55 555.36 867 1064.06 840.44 730.7 401.77"/><polygon class="cls-3" points="427.83 838.05 556.24 864.61 728.32 404.16 427.83 838.05"/><polygon class="cls-2" points="1124.1 37.99 1119.78 45.68 1119.33 46.48 868.99 863.53 1609.09 816.41 1124.1 37.99"/><polygon class="cls-3" points="683.45 812.16 870.28 859.29 1120.62 42.23 683.45 812.16"/><polygon class="cls-3" points="1515.79 827.26 1752.18 875.04 2068.94 46.7 1515.79 827.26"/><polygon class="cls-2" points="2073.34 42.4 2067.88 50.2 2067.31 51 1750.55 879.34 2687 831.57 2073.34 42.4"/><polygon class="cls-3" points="3186.59 725.84 3356.82 761.77 3584.93 138.79 3186.59 725.84"/><polygon class="cls-2" points="3588.09 135.55 3584.16 141.41 3583.75 142.02 3355.64 765 4030 729.07 3588.09 135.55"/><polygon class="cls-3" points="3186.59 725.84 3356.82 761.77 3584.93 138.79 3186.59 725.84"/><polygon class="cls-2" points="3588.09 135.55 3584.16 141.41 3583.75 142.02 3355.64 765 4030 729.07 3588.09 135.55"/><polygon class="cls-3" points="3186.59 725.84 3356.82 761.77 3584.93 138.79 3186.59 725.84"/><polygon class="cls-2" points="3588.09 135.55 3584.16 141.41 3583.75 142.02 3355.64 765 4030 729.07 3588.09 135.55"/><polygon class="cls-3" points="3186.59 725.84 3356.82 761.77 3584.93 138.79 3186.59 725.84"/><polygon class="cls-2" points="3588.09 135.55 3584.16 141.41 3583.75 142.02 3355.64 765 4030 729.07 3588.09 135.55"/><polygon class="cls-3" points="3681.48 743.15 3761.92 769.62 3869.7 310.68 3681.48 743.15"/><polygon class="cls-2" points="3871.2 308.3 3869.34 312.62 3869.14 313.06 3761.36 772 4080 745.53 3871.2 308.3"/><polygon class="cls-3" points="3681.48 743.15 3761.92 769.62 3869.7 310.68 3681.48 743.15"/><polygon class="cls-2" points="3871.2 308.3 3869.34 312.62 3869.14 313.06 3761.36 772 4080 745.53 3871.2 308.3"/><polygon class="cls-3" points="3681.48 743.15 3761.92 769.62 3869.7 310.68 3681.48 743.15"/><polygon class="cls-2" points="3871.2 308.3 3869.34 312.62 3869.14 313.06 3761.36 772 4080 745.53 3871.2 308.3"/><polygon class="cls-3" points="3681.48 743.15 3761.92 769.62 3869.7 310.68 3681.48 743.15"/><polygon class="cls-2" points="3871.2 308.3 3869.34 312.62 3869.14 313.06 3761.36 772 4080 745.53 3871.2 308.3"/><polygon class="cls-3" points="3681.48 743.15 3761.92 769.62 3869.7 310.68 3681.48 743.15"/><polygon class="cls-2" points="3871.2 308.3 3869.34 312.62 3869.14 313.06 3761.36 772 4080 745.53 3871.2 308.3"/><polygon class="cls-3" points="3681.48 743.15 3761.92 769.62 3869.7 310.68 3681.48 743.15"/><polygon class="cls-2" points="3871.2 308.3 3869.34 312.62 3869.14 313.06 3761.36 772 4080 745.53 3871.2 308.3"/><polygon class="cls-3" points="3681.48 743.15 3761.92 769.62 3869.7 310.68 3681.48 743.15"/><polygon class="cls-2" points="3871.2 308.3 3869.34 312.62 3869.14 313.06 3761.36 772 4080 745.53 3871.2 308.3"/><polygon class="cls-3" points="3681.48 743.15 3761.92 769.62 3869.7 310.68 3681.48 743.15"/><polygon class="cls-2" points="3871.2 308.3 3869.34 312.62 3869.14 313.06 3761.36 772 4080 745.53 3871.2 308.3"/><path class="cls-3" d="M2.81,479.13l-2.29,5L-1,487.44v186l21.86,6.84,21.39-86.53,19.29-78.07,7.87-31.83v0l2.14-8.66h0L150,157.71Z" transform="translate(1)"/><polygon class="cls-2" points="152.8 155 150.58 159.92 150.35 160.43 21.2 683 403 652.86 152.8 155"/><path class="cls-3" d="M2.81,479.13l-2.29,5L-1,487.44v186l21.86,6.84,21.39-86.53,19.29-78.07,7.87-31.83v0l2.14-8.66h0L150,157.71Z" transform="translate(1)"/><polygon class="cls-2" points="152.8 155 150.58 159.92 150.35 160.43 21.2 683 403 652.86 152.8 155"/><path class="cls-3" d="M2.81,479.13l-2.29,5L-1,487.44v186l21.86,6.84,21.39-86.53,19.29-78.07,7.87-31.83v0l2.14-8.66h0L150,157.71Z" transform="translate(1)"/><polygon class="cls-2" points="152.8 155 150.58 159.92 150.35 160.43 21.2 683 403 652.86 152.8 155"/><polygon class="cls-3" points="4718.93 733.02 4799.37 759.49 4907.15 300.55 4718.93 733.02"/><polygon class="cls-2" points="4908.65 298.17 4906.79 302.49 4906.59 302.94 4798.81 761.87 5117.45 735.4 4908.65 298.17"/><polygon class="cls-3" points="4718.93 733.02 4799.37 759.49 4907.15 300.55 4718.93 733.02"/><polygon class="cls-2" points="4908.65 298.17 4906.79 302.49 4906.59 302.94 4798.81 761.87 5117.45 735.4 4908.65 298.17"/><polygon class="cls-3" points="4718.93 733.02 4799.37 759.49 4907.15 300.55 4718.93 733.02"/><polygon class="cls-2" points="4908.65 298.17 4906.79 302.49 4906.59 302.94 4798.81 761.87 5117.45 735.4 4908.65 298.17"/><polygon class="cls-3" points="4718.93 733.02 4799.37 759.49 4907.15 300.55 4718.93 733.02"/><polygon class="cls-2" points="4908.65 298.17 4906.79 302.49 4906.59 302.94 4798.81 761.87 5117.45 735.4 4908.65 298.17"/><polygon class="cls-3" points="4718.93 733.02 4799.37 759.49 4907.15 300.55 4718.93 733.02"/><polygon class="cls-2" points="4908.65 298.17 4906.79 302.49 4906.59 302.94 4798.81 761.87 5117.45 735.4 4908.65 298.17"/><polygon class="cls-3" points="4718.93 733.02 4799.37 759.49 4907.15 300.55 4718.93 733.02"/><polygon class="cls-2" points="4908.65 298.17 4906.79 302.49 4906.59 302.94 4798.81 761.87 5117.45 735.4 4908.65 298.17"/><polygon class="cls-3" points="4718.93 733.02 4799.37 759.49 4907.15 300.55 4718.93 733.02"/><polygon class="cls-2" points="4908.65 298.17 4906.79 302.49 4906.59 302.94 4798.81 761.87 5117.45 735.4 4908.65 298.17"/><polygon class="cls-3" points="4718.93 733.02 4799.37 759.49 4907.15 300.55 4718.93 733.02"/><polygon class="cls-2" points="4908.65 298.17 4906.79 302.49 4906.59 302.94 4798.81 761.87 5117.45 735.4 4908.65 298.17"/><polygon class="cls-3" points="4413.93 733.02 4494.37 759.49 4602.15 300.55 4413.93 733.02"/><polygon class="cls-2" points="4603.65 298.17 4601.79 302.49 4601.59 302.94 4493.81 761.87 4812.45 735.4 4603.65 298.17"/><polygon class="cls-3" points="4413.93 733.02 4494.37 759.49 4602.15 300.55 4413.93 733.02"/><polygon class="cls-2" points="4603.65 298.17 4601.79 302.49 4601.59 302.94 4493.81 761.87 4812.45 735.4 4603.65 298.17"/><polygon class="cls-3" points="4413.93 733.02 4494.37 759.49 4602.15 300.55 4413.93 733.02"/><polygon class="cls-2" points="4603.65 298.17 4601.79 302.49 4601.59 302.94 4493.81 761.87 4812.45 735.4 4603.65 298.17"/><polygon class="cls-3" points="4413.93 733.02 4494.37 759.49 4602.15 300.55 4413.93 733.02"/><polygon class="cls-2" points="4603.65 298.17 4601.79 302.49 4601.59 302.94 4493.81 761.87 4812.45 735.4 4603.65 298.17"/><polygon class="cls-3" points="4413.93 733.02 4494.37 759.49 4602.15 300.55 4413.93 733.02"/><polygon class="cls-2" points="4603.65 298.17 4601.79 302.49 4601.59 302.94 4493.81 761.87 4812.45 735.4 4603.65 298.17"/><polygon class="cls-3" points="4413.93 733.02 4494.37 759.49 4602.15 300.55 4413.93 733.02"/><polygon class="cls-2" points="4603.65 298.17 4601.79 302.49 4601.59 302.94 4493.81 761.87 4812.45 735.4 4603.65 298.17"/><polygon class="cls-3" points="4413.93 733.02 4494.37 759.49 4602.15 300.55 4413.93 733.02"/><polygon class="cls-2" points="4603.65 298.17 4601.79 302.49 4601.59 302.94 4493.81 761.87 4812.45 735.4 4603.65 298.17"/><polygon class="cls-3" points="4413.93 733.02 4494.37 759.49 4602.15 300.55 4413.93 733.02"/><polygon class="cls-2" points="4603.65 298.17 4601.79 302.49 4601.59 302.94 4493.81 761.87 4812.45 735.4 4603.65 298.17"/><line class="cls-1" x1="8765" y1="614.32" x2="8765" y2="860.81"/><g id="Pyramiden_vorne-2" data-name="Pyramiden vorne"><path class="cls-3" d="M2.81,479.13l-2.29,5L-1,487.44v186l21.86,6.84,21.39-86.53,19.29-78.07,7.87-31.83v0l2.14-8.66h0L150,157.71Z" transform="translate(1)"/><polygon class="cls-2" points="152.8 155 150.58 159.92 150.35 160.43 21.2 683 403 652.86 152.8 155"/><polygon class="cls-3" points="80.96 683.83 126.58 698.92 187.72 437.36 80.96 683.83"/><polygon class="cls-2" points="188.57 436 187.51 438.46 187.4 438.72 126.27 700.28 307 685.19 188.57 436"/><polygon class="cls-3" points="80.96 683.83 126.58 698.92 187.72 437.36 80.96 683.83"/><polygon class="cls-2" points="188.57 436 187.51 438.46 187.4 438.72 126.27 700.28 307 685.19 188.57 436"/><polygon class="cls-3" points="80.96 683.83 126.58 698.92 187.72 437.36 80.96 683.83"/><polygon class="cls-2" points="188.57 436 187.51 438.46 187.4 438.72 126.27 700.28 307 685.19 188.57 436"/><polygon class="cls-3" points="170.14 678.5 242.37 697.31 339.15 371.25 170.14 678.5"/><polygon class="cls-2" points="340.5 369.55 338.83 372.62 338.65 372.94 241.87 699 528 680.2 340.5 369.55"/><polygon class="cls-3" points="170.14 678.5 242.37 697.31 339.15 371.25 170.14 678.5"/><polygon class="cls-2" points="340.5 369.55 338.83 372.62 338.65 372.94 241.87 699 528 680.2 340.5 369.55"/><polygon class="cls-3" points="170.14 678.5 242.37 697.31 339.15 371.25 170.14 678.5"/><polygon class="cls-2" points="340.5 369.55 338.83 372.62 338.65 372.94 241.87 699 528 680.2 340.5 369.55"/><polygon class="cls-3" points="170.14 678.5 242.37 697.31 339.15 371.25 170.14 678.5"/><polygon class="cls-2" points="340.5 369.55 338.83 372.62 338.65 372.94 241.87 699 528 680.2 340.5 369.55"/></g></g></svg>