<svg xmlns="http://www.w3.org/2000/svg" viewBox="0 0 12948 1080"><defs><style>.cls-1{fill:none;}.cls-2{fill:#699369;}</style></defs><g id="Safri_4" data-name="Safri 4"><path class="cls-1" d="M7780.91,413.85a21.58,21.58,0,0,1-3.36.26,22.11,22.11,0,0,1-2.73-.17A46.89,46.89,0,0,1,7760,418.1V450h23.17V416.55A8,8,0,0,1,7780.91,413.85Z"/><path class="cls-2" d="M7870,429.28c0-3.46-5.46-6.27-12.2-6.27a24.32,24.32,0,0,0-2.45.13c-.23-1.77-3.76-3.22-8.41-3.56a1.34,1.34,0,0,0,.22-.7c0-1.82-4.29-3.29-9.57-3.29-.44,0-.88,0-1.31,0h-.11a5.06,5.06,0,0,0-.79.06c-4.21.35-7.35,1.65-7.35,3.2a1.2,1.2,0,0,0,.11.48c-5.45.15-9.82,1.65-10.45,3.56-3.5.47-6,1.67-6,3.07,0,.61.46,1.18,1.27,1.66-3.21,1.06-5.12,2.39-5.12,3.84,0,2.22,4.5,4.17,11.25,5.26a3.09,3.09,0,0,0-1.75,2.38c0,2.74,6.44,5,14.38,5h0a29.47,29.47,0,0,0,3.31-.19V450H7793.5V418.87c3.7-.59,6.69-2.53,7.94-5.09a14.4,14.4,0,0,0,3.05.33,11.78,11.78,0,0,0,8.66-3.37c6.33-2.44,10.51-6.64,10.51-11.42,0-7.17-9.44-13.05-21.42-13.6,8.73-2.44,14.7-7.38,14.7-13.07,0-8.12-12.15-14.7-27.13-14.7a47.75,47.75,0,0,0-10.26,1.09,7.58,7.58,0,0,0,1.21-4c0-7.66-12.61-13.86-28.16-13.86-14.56,0-26.54,5.44-28,12.41a33.5,33.5,0,0,0-11.26-1.91c-14.42,0-26.1,8.74-26.1,19.53,0,5.34,2.87,10.18,7.51,13.7-4.42.81-7.67,3.57-7.67,6.86,0,2.18,1.43,4.13,3.68,5.43A4.56,4.56,0,0,0,7688,401c0,2.4,2.59,4.4,6,4.85a3.72,3.72,0,0,0-.08.74c0,3.09,3.62,5.6,8.08,5.6a11.09,11.09,0,0,0,3.68-.61A36.52,36.52,0,0,0,7715.9,413a39.06,39.06,0,0,0,4.78-.3,5.1,5.1,0,0,0,1.11.12h9.51a45.54,45.54,0,0,0,16.6,5.25v47H7710V459c2.67-.79,4.69-2,5.64-3.36,1.3,1.14,3.86,1.91,6.82,1.91,4.27,0,7.73-1.61,7.73-3.6a1.74,1.74,0,0,0-.25-.87c4.82-1.68,8-4.46,8-7.6,0-3.67-4.28-6.83-10.49-8.34,1-.42,1.66-.93,1.66-1.49,0-1.38-3.79-2.5-8.46-2.5-.93,0-1.82,0-2.66.12a1.6,1.6,0,0,0,.46-1.06c0-2.25-5.85-4.07-13.06-4.07-5.85,0-10.81,1.2-12.47,2.86a6.51,6.51,0,0,0-.77,0c-3.76,0-6.8,2.59-6.8,5.78a5,5,0,0,0,.59,2.37c-5.8.64-10.11,3-10.11,5.83,0,3.32,5.94,6,13.26,6h.3a3.87,3.87,0,0,0-1.63,2.89c0,3.16,5.38,5.77,12.34,6.18v9.76c0,2.59-1.21,4.7,1.84,4.7h46V514.5a2.75,2.75,0,0,0,2.94,2.5,3.23,3.23,0,0,0,1.37-.29,6.5,6.5,0,0,0,1.94.29c3.25,0,5.89-2.24,5.89-5V457.55h80.17c2.44,0,4.41-1.68,4.41-3.76a3.39,3.39,0,0,0-.73-2.07v-9.94a4.58,4.58,0,0,0,2-1.83,13.94,13.94,0,0,0,6.5,1.39c4.61,0,8.34-1.67,8.34-3.74a2.67,2.67,0,0,0-1.45-2.11C7865.33,435.11,7870,432.47,7870,429.28ZM7783.21,450H7760V418.1a46.89,46.89,0,0,0,14.78-4.16,22.11,22.11,0,0,0,2.73.17,21.58,21.58,0,0,0,3.36-.26,8,8,0,0,0,2.3,2.7Z"/><path class="cls-2" d="M7680.19,445.11a6.85,6.85,0,0,0,1-2.2c1.44-6.09-6.64-12.22-18.61-14.69a3.27,3.27,0,0,0,0-.54c0-5.24-9.08-9.5-20.28-9.5H7642q0-.35,0-.69c0-9.11-11.42-16.5-25.5-16.5s-25.5,7.39-25.5,16.5a11.5,11.5,0,0,0,1.66,5.86c-10.74,1-18.76,4.84-18.76,9.46,0,2.89,3.14,5.48,8.13,7.26-6.58,2.6-10.84,6.72-10.84,11.36,0,5.89,6.85,10.94,16.61,13.12a9.06,9.06,0,0,0-2.54,6.08c0,6.92,9.08,12.54,20.28,12.54,8.73,0,16.17-3.41,19-8.19a60.68,60.68,0,0,0,19.1,2.87c14.45,0,26.65-4.35,30.58-10.31,12.67-.61,22.53-5.06,22.93-10.81C7697.53,451.69,7690.44,447.13,7680.19,445.11Z"/><path class="cls-1" d="M12748.22,325.57a6.86,6.86,0,0,1-2-2.22,18.84,18.84,0,0,1-2.86.22,19.58,19.58,0,0,1-2.33-.14,41.58,41.58,0,0,1-12.62,3.41V353h19.78Z"/><path class="cls-1" d="M10576.89,253.69a6.69,6.69,0,0,1-2-2.21,19.09,19.09,0,0,1-2.87.21,17.89,17.89,0,0,1-2.33-.14,40.86,40.86,0,0,1-12.62,3.41v26.17h19.78Z"/><path class="cls-1" d="M9465.3,401.85a8.47,8.47,0,0,1-2.48-2.83,25.09,25.09,0,0,1-3.63.27,23.45,23.45,0,0,1-2.94-.18,51.62,51.62,0,0,1-16,4.36V436.9h25Z"/><path class="cls-1" d="M6627.28,628.89l.35.2h0Z"/><rect class="cls-1" x="6623.43" y="565.38" width="0.36"/><path class="cls-1" d="M6135.4,560.6a12.22,12.22,0,0,1-2.24-4.07,14.16,14.16,0,0,1-3.28.39,13.71,13.71,0,0,1-2.66-.26,34.27,34.27,0,0,1-14.41,6.28v48.14h22.59Z"/><path class="cls-1" d="M6635.26,514V528.6h22.59V478.12l.2.24-.2-.24a12,12,0,0,1-2.24-4.07,14.16,14.16,0,0,1-3.28.39,13.71,13.71,0,0,1-2.66-.26,34.27,34.27,0,0,1-14.41,6.28Z"/><path class="cls-1" d="M6657.85,539.92h-22.59v79c15.36-23.87,29.14-51.77,50-79h-27.42Z"/><path class="cls-1" d="M10052.33,430.75l1.39-.49-1.07.07C10052.56,430.47,10052.43,430.61,10052.33,430.75Z"/><path class="cls-1" d="M9995,443.94c7.38-.81,14.84-1.94,22.38-3.46a57.37,57.37,0,0,1-14.37-2.71A16.16,16.16,0,0,1,9995,443.94Z"/><path class="cls-1" d="M6636.22,440.27c-.32,0-.65-.08-1-.14V428.62a9.4,9.4,0,0,0-.22-2,9.47,9.47,0,0,1,.22,2v11.51C6635.57,440.19,6635.89,440.23,6636.22,440.27Z"/><path class="cls-1" d="M6647.77,432.59c0,4.29-4.5,7.78-10,7.78a11.9,11.9,0,0,1-1.2-.06q.6.06,1.2.06c5.54,0,10-3.49,10-7.78,0-.08,0-.15,0-.22a4.87,4.87,0,0,0-.06-.55,4.87,4.87,0,0,1,.06.55C6647.76,432.44,6647.77,432.51,6647.77,432.59Z"/><path class="cls-1" d="M6647.25,430.11c-1.34-3.08-5.09-5.31-9.52-5.31a13,13,0,0,0-3.1.38h0a13,13,0,0,1,3.1-.38C6642.16,424.8,6645.91,427,6647.25,430.11Z"/><path class="cls-2" d="M12923.33,359.67V331.52c7.82-3.23,13.39-11.58,13.39-21.39V252.27c0-12.59-9.19-22.8-20.53-22.8s-20.53,10.21-20.53,22.8v57.86c0,11.13,7.17,20.39,16.66,22.4v20.74h0A114,114,0,0,0,12888,344a91.13,91.13,0,0,0-15.6-2.55V325.82c3.85-2.21,6.6-7.93,6.6-14.64V271.57c0-8.61-4.53-15.6-10.12-15.6s-10.11,7-10.11,15.6v39.61c0,7.61,3.53,13.95,8.21,15.33v14.71c-51.07-.66-90.14,42.91-138.54,47.87V359.16h68.45c2.08,0,3.77-1.38,3.77-3.08a2.64,2.64,0,0,0-.63-1.69v-8.15a3.87,3.87,0,0,0,1.73-1.5,12.25,12.25,0,0,0,5.54,1.14c3.94,0,7.13-1.37,7.13-3.06a2.19,2.19,0,0,0-1.24-1.73c5.15-.31,9.13-2.47,9.13-5.09,0-2.84-4.66-5.14-10.41-5.14a20.48,20.48,0,0,0-2.1.11c-.19-1.45-3.21-2.64-7.18-2.92a1.08,1.08,0,0,0,.19-.57c0-1.49-3.66-2.7-8.17-2.7-.38,0-.75,0-1.12,0h-.09a3.82,3.82,0,0,0-.68.05c-3.59.28-6.27,1.34-6.27,2.62a.92.92,0,0,0,.09.39c-4.65.12-8.38,1.35-8.92,2.92-3,.38-5.11,1.36-5.11,2.51,0,.5.39,1,1.08,1.37-2.74.86-4.37,1.95-4.37,3.14,0,1.82,3.84,3.42,9.61,4.31-1,.58-1.5,1.24-1.5,1.95,0,2.24,5.5,4.07,12.28,4.07h0a23.35,23.35,0,0,0,2.82-.17v5H12757V327.47c3.15-.48,5.71-2.08,6.78-4.17a12.8,12.8,0,0,0,2.6.27,10.29,10.29,0,0,0,7.39-2.76c5.41-2,9-5.44,9-9.36,0-5.88-8.06-10.69-18.29-11.14,7.45-2,12.55-6.05,12.55-10.71,0-6.65-10.37-12.05-23.16-12.05a41.85,41.85,0,0,0-8.76.9,6.11,6.11,0,0,0,1-3.31c0-6.27-10.76-11.35-24-11.35-12.43,0-22.66,4.45-23.91,10.17a29.49,29.49,0,0,0-9.62-1.57c-12.31,0-22.29,7.17-22.29,16,0,4.38,2.45,8.34,6.41,11.23-3.77.66-6.54,2.93-6.54,5.62,0,1.79,1.22,3.38,3.14,4.45a3.73,3.73,0,0,0-2.33,3.13c0,2,2.2,3.6,5.13,4a3.15,3.15,0,0,0-.06.61c0,2.53,3.09,4.59,6.9,4.59a9.73,9.73,0,0,0,3.13-.51,32.41,32.41,0,0,0,8.71,1.16,36.08,36.08,0,0,0,4.08-.24,4.85,4.85,0,0,0,1,.1h8.12a40.33,40.33,0,0,0,14.17,4.3v38.51h-32.34v-5c2.28-.66,4-1.62,4.81-2.76a9.65,9.65,0,0,0,5.83,1.57c3.64,0,6.59-1.32,6.59-2.95a1.45,1.45,0,0,0-.2-.72c4.11-1.37,6.8-3.65,6.8-6.23,0-3-3.66-5.59-9-6.83.89-.34,1.42-.76,1.42-1.22,0-1.13-3.23-2.05-7.22-2.05-.8,0-1.56,0-2.27.11a1.34,1.34,0,0,0,.39-.88c0-1.84-5-3.33-11.15-3.33-5,0-9.23,1-10.65,2.34q-.32,0-.66,0c-3.21,0-5.81,2.12-5.81,4.74a4.1,4.1,0,0,0,.51,1.94c-5,.52-8.63,2.46-8.63,4.78,0,2.72,5.07,4.92,11.32,4.92h.26a3.12,3.12,0,0,0-1.39,2.37c0,2.59,4.58,4.73,10.53,5.06v8c0,2.12-1,3.84,1.57,3.84h39.25v16.54A84.29,84.29,0,0,1,12699,387c-63.16-15.77-58.69-60.7-134-92-135.45-56.3-340.23,59.84-366,15-1.73-3-11.38-17.45-20-21-17.32-7.14-28.93,8.17-48,17-47.36,21.93-92-29.46-131-25-21.58,2.46-46.38,22.55-70.77,85.57-38.44,34.54-74.21,49.15-103.23,55.43-115.79,25.07-173.48-71.64-309-49-101.12,16.9-107.87,77.24-200,80-90.74,2.72-126.32-54.56-223-98-136-61.11-170.81,5-417-16-45-3.83-84.52-9.51-119.89-15.91v-35.8h68.46c2.08,0,3.76-1.38,3.76-3.08a2.66,2.66,0,0,0-.62-1.69v-8.15a3.89,3.89,0,0,0,1.72-1.5A12.3,12.3,0,0,0,10636,274c3.94,0,7.13-1.37,7.13-3.07a2.21,2.21,0,0,0-1.25-1.73c5.15-.31,9.14-2.47,9.14-5.09,0-2.83-4.66-5.13-10.42-5.13a20.44,20.44,0,0,0-2.09.11c-.19-1.45-3.21-2.64-7.18-2.92a1.07,1.07,0,0,0,.18-.58c0-1.48-3.65-2.69-8.16-2.69-.38,0-.75,0-1.12,0h-.1a4.91,4.91,0,0,0-.67,0c-3.6.29-6.27,1.35-6.27,2.62a1.1,1.1,0,0,0,.08.4c-4.64.12-8.37,1.35-8.92,2.91-3,.39-5.11,1.37-5.11,2.52,0,.5.4,1,1.09,1.36-2.74.87-4.38,2-4.38,3.15,0,1.82,3.84,3.41,9.61,4.31-1,.58-1.49,1.24-1.49,1.95,0,2.24,5.49,4.06,12.28,4.06h0a23.55,23.55,0,0,0,2.83-.16v5h-35.48V255.6c3.15-.48,5.71-2.08,6.77-4.17a13,13,0,0,0,2.6.26,10.29,10.29,0,0,0,7.4-2.75c5.4-2,9-5.44,9-9.36,0-5.88-8.05-10.7-18.29-11.15,7.46-2,12.56-6,12.56-10.7,0-6.66-10.37-12-23.17-12a42.62,42.62,0,0,0-8.76.89,6.06,6.06,0,0,0,1-3.3c0-6.27-10.77-11.36-24-11.36-12.43,0-22.66,4.46-23.92,10.17a29.67,29.67,0,0,0-9.62-1.56c-12.31,0-22.28,7.16-22.28,16,0,4.38,2.44,8.34,6.41,11.23-3.77.66-6.55,2.93-6.55,5.62,0,1.78,1.22,3.38,3.14,4.45a3.75,3.75,0,0,0-2.33,3.13c0,2,2.21,3.6,5.14,4a3.08,3.08,0,0,0-.07.61c0,2.53,3.09,4.58,6.9,4.58a9.8,9.8,0,0,0,3.14-.5,32.36,32.36,0,0,0,8.71,1.16,33.57,33.57,0,0,0,4.07-.25,4.33,4.33,0,0,0,1,.11h8.12a40.45,40.45,0,0,0,14.18,4.3v38.51h-32.34v-5a9,9,0,0,0,4.81-2.75,9.63,9.63,0,0,0,5.82,1.57c3.65,0,6.6-1.32,6.6-2.95a1.46,1.46,0,0,0-.21-.72c4.11-1.38,6.8-3.65,6.8-6.23,0-3-3.65-5.59-8.95-6.83.89-.34,1.42-.76,1.42-1.22,0-1.13-3.24-2.05-7.23-2.05-.79,0-1.55,0-2.27.1a1.32,1.32,0,0,0,.39-.87c0-1.84-5-3.33-11.15-3.33-5,0-9.23,1-10.64,2.34-.22,0-.44,0-.66,0-3.21,0-5.81,2.13-5.81,4.75a3.92,3.92,0,0,0,.51,1.93c-5,.53-8.64,2.47-8.64,4.79,0,2.72,5.07,4.92,11.33,4.92h.25a3.15,3.15,0,0,0-1.39,2.37c0,2.59,4.59,4.73,10.54,5.06v8c0,2.12-1,3.84,1.57,3.84h39.25v20c-158.27-29.93-231-72.77-332.75-21.17-83.5,42.32-56,83.5-139,121.52a5.33,5.33,0,0,0,.54-2c.35-5.06-6.73-9.62-17-11.64a6.83,6.83,0,0,0,1-2.2c1.44-6.08-6.63-12.22-18.6-14.69a4.71,4.71,0,0,0,0-.53c0-5.25-9.08-9.51-20.28-9.51h-.34c0-.23,0-.46,0-.69,0-9.11-11.41-16.5-25.5-16.5s-25.5,7.39-25.5,16.5a11.48,11.48,0,0,0,1.67,5.86c-10.74,1-18.77,4.84-18.77,9.46,0,2.89,3.15,5.48,8.13,7.26-6.58,2.6-10.83,6.72-10.83,11.36,0,5.89,6.84,10.95,16.6,13.12a9.06,9.06,0,0,0-2.54,6.08c0,5.5,5.74,10.17,13.71,11.86-21.45.92-42.5-.64-63.77-3.35V412.2a14.47,14.47,0,0,0,9.4-13.58V361.87a14.42,14.42,0,1,0-28.83,0v36.75a14.48,14.48,0,0,0,11.7,14.23v28c-11.63-1.61-23.35-3.52-35.26-5.51V408.64c7.82-2.48,13.39-8.92,13.39-16.48V347.57c0-9.7-9.19-17.57-20.53-17.57s-20.53,7.87-20.53,17.57v44.59c0,8.57,7.17,15.71,16.66,17.26v24.12c-9.34-1.56-18.81-3.12-28.47-4.59V415a11.76,11.76,0,0,0,6.87-11v-29.8c0-6.48-4.71-11.74-10.53-11.74s-10.53,5.26-10.53,11.74V404c0,5.73,3.68,10.49,8.55,11.53v12.55c-59-8.65-125-13-208.49,9.89-92.7,25.36-105.18,57.12-176.72,58V444.76h86.56c2.63,0,4.76-1.75,4.76-3.93a3.42,3.42,0,0,0-.79-2.16V428.26a5,5,0,0,0,2.19-1.91,15.53,15.53,0,0,0,7,1.45c5,0,9-1.75,9-3.92a2.81,2.81,0,0,0-1.57-2.21c6.51-.39,11.55-3.15,11.55-6.5,0-3.62-5.9-6.56-13.17-6.56a25.39,25.39,0,0,0-2.65.14c-.24-1.85-4.06-3.38-9.08-3.73a1.38,1.38,0,0,0,.24-.74c0-1.9-4.63-3.44-10.33-3.44-.48,0-1,0-1.41,0h-.13a6,6,0,0,0-.85.07c-4.54.36-7.93,1.72-7.93,3.34a1.3,1.3,0,0,0,.11.51c-5.87.16-10.59,1.73-11.28,3.72-3.77.49-6.46,1.75-6.46,3.22,0,.64.5,1.23,1.37,1.74-3.46,1.1-5.53,2.5-5.53,4,0,2.32,4.86,4.36,12.15,5.51-1.21.73-1.89,1.58-1.89,2.48,0,2.87,7,5.2,15.53,5.2h0a29.53,29.53,0,0,0,3.57-.21v6.43h-44.86V404.28c4-.62,7.21-2.66,8.57-5.33a15.78,15.78,0,0,0,3.28.34,12.93,12.93,0,0,0,9.35-3.52c6.84-2.56,11.35-7,11.35-12,0-7.51-10.19-13.66-23.13-14.24,9.43-2.56,15.88-7.72,15.88-13.68,0-8.5-13.12-15.39-29.29-15.39a53.3,53.3,0,0,0-11.08,1.14,7.78,7.78,0,0,0,1.31-4.21c0-8-13.61-14.52-30.41-14.52-15.72,0-28.65,5.7-30.24,13a37.13,37.13,0,0,0-12.16-2c-15.56,0-28.18,9.15-28.18,20.44,0,5.59,3.1,10.66,8.11,14.35-4.77.84-8.28,3.74-8.28,7.18,0,2.28,1.54,4.32,4,5.68-1.8.95-2.95,2.39-2.95,4,0,2.51,2.79,4.61,6.5,5.08a3.94,3.94,0,0,0-.08.77c0,3.24,3.9,5.86,8.72,5.86a12.24,12.24,0,0,0,4-.64,40.71,40.71,0,0,0,11,1.47,41.18,41.18,0,0,0,5.15-.31,5.32,5.32,0,0,0,1.2.13h10.27a50.45,50.45,0,0,0,17.92,5.5v49.21h-40.89v-6.37c2.88-.84,5.06-2.08,6.09-3.53,1.4,1.2,4.17,2,7.36,2,4.6,0,8.34-1.69,8.34-3.77a1.94,1.94,0,0,0-.26-.92c5.19-1.76,8.6-4.66,8.6-7.95,0-3.84-4.63-7.15-11.33-8.73,1.13-.44,1.8-1,1.8-1.56,0-1.45-4.09-2.62-9.14-2.62-1,0-2,.05-2.87.13a1.66,1.66,0,0,0,.49-1.11c0-2.36-6.31-4.26-14.09-4.26-6.32,0-11.68,1.25-13.46,3a7.73,7.73,0,0,0-.84-.05c-4,0-7.34,2.72-7.34,6.06a5.17,5.17,0,0,0,.64,2.48c-6.26.67-10.92,3.15-10.92,6.11,0,3.47,6.41,6.29,14.32,6.29h.32a4,4,0,0,0-1.75,3c0,3.3,5.8,6,13.32,6.46v10.22c0,2.71-1.31,4.91,2,4.91h49.63v33.39c-88-3.3-114.74-49-233.18-73.84-111.34-23.36-121.31,10-242-9-6.37-1-12.44-2.06-18.27-3.16a13.71,13.71,0,0,0,3.2-3.28c12.67-.61,22.53-5.06,22.93-10.8.35-5.05-6.73-9.61-17-11.64a6.76,6.76,0,0,0,1-2.2c1.44-6.08-6.64-12.22-18.6-14.69a4.58,4.58,0,0,0,0-.53c0-5.25-9.08-9.5-20.28-9.5h-.35c0-.22,0-.45,0-.68,0-9.12-11.42-16.5-25.5-16.5s-25.5,7.38-25.5,16.5a11.5,11.5,0,0,0,1.66,5.86c-10.74,1-18.76,4.83-18.76,9.45,0,2.89,3.14,5.49,8.13,7.26a28.23,28.23,0,0,0-3.86,1.86c-47.6-22.29-71.5-46.34-142.85-53.95-115.36-12.3-155.54,39.63-250.42,65.83,2-1.54,3.27-3.33,3.41-5.27.35-5.05-6.74-9.61-17-11.63a7.13,7.13,0,0,0,1-2.21c1.44-6.08-6.64-12.21-18.61-14.68a4.9,4.9,0,0,0,0-.54c0-5.25-9.09-9.5-20.29-9.5-10.65,0-19.38,3.85-20.21,8.75-1.59,0-3.15.06-4.67.18-4.38-2.41-11.47-4-19.47-4-13.29,0-24.07,4.34-24.07,9.69,0,2.9,3.15,5.49,8.13,7.26-6.58,2.61-10.83,6.73-10.83,11.37,0,5.89,6.84,10.94,16.6,13.12a9.11,9.11,0,0,0-2.54,6.08,8.94,8.94,0,0,0,2.17,5.62c-13.39.18-25.67-.17-37-1V379.23A22,22,0,0,0,8318,358.6V302.77c0-12.15-9.45-22-21.1-22s-21.1,9.84-21.1,22V358.6c0,10.73,7.37,19.66,17.12,21.6v25c-11-1.11-21.08-2.62-30.41-4.44v-4.38c5.54-2.57,9.49-9.23,9.49-17V333.16c0-10-6.51-18.18-14.54-18.18s-14.55,8.14-14.55,18.18v46.13c0,8.87,5.08,16.25,11.81,17.86v1.93C8180.19,382.5,8153.92,347.46,8064,364c-148.63,27.33-177.28,141.53-310,138-72.47-1.93-80.2-36.41-174-61-125.74-33-183.94,10.1-350,30-292.24,35-362.16-68.38-484,12-3.15,2.07-6.18,4.18-9.12,6.32a14.13,14.13,0,0,0-6.32-1.45,14.37,14.37,0,0,0-2.39.19c-.22-2.67-3.67-4.86-8.2-5.37a2.78,2.78,0,0,0,.21-1.06c0-2.73-4.17-4.95-9.32-4.95-.43,0-.86,0-1.28.05h-.11a3.32,3.32,0,0,0-.77.1c-4.1.51-7.16,2.47-7.16,4.81a2.57,2.57,0,0,0,.1.73c-5.31.23-9.57,2.49-10.18,5.36-3.41.71-5.84,2.52-5.84,4.63a3.46,3.46,0,0,0,1.24,2.51c-3.13,1.59-5,3.6-5,5.78,0,3.35,4.39,6.29,11,7.93a5.06,5.06,0,0,0-1.71,3.58c0,3.67,4.93,6.71,11.45,7.36q-4.24,4.51-8.15,9.09h-26.55v-47c-.27.07-.54.11-.82.16.28,0,.55-.09.82-.16a11.18,11.18,0,0,0,7.74-7.67,9.2,9.2,0,0,0,3,.49,9.87,9.87,0,0,0,8.44-5.07,20.16,20.16,0,0,0,10.25-17.21c0-10.82-9.2-19.68-20.88-20.51,8.51-3.68,14.33-11.11,14.33-19.69,0-12.24-11.84-22.16-26.45-22.16a30.79,30.79,0,0,0-10,1.65,16.34,16.34,0,0,0,1.19-6.08c0-11.54-12.3-20.89-27.46-20.89-14.19,0-25.87,8.19-27.31,18.7a22.55,22.55,0,0,0-11-2.87c-14.05,0-25.44,13.18-25.44,29.43a31.85,31.85,0,0,0,7.32,20.65,10.62,10.62,0,0,0-7.47,10.34,10.93,10.93,0,0,0,3.58,8.18,7.53,7.53,0,0,0-2.66,5.76,7.43,7.43,0,0,0,5.86,7.32,10,10,0,0,0-.07,1.11,8.17,8.17,0,0,0,7.88,8.43,7.39,7.39,0,0,0,3.58-.92,24.1,24.1,0,0,0,9.94,2.13,24.63,24.63,0,0,0,4.66-.45,3.23,3.23,0,0,0,1.08.19h9.27a34.78,34.78,0,0,0,16.18,7.91v70.84h-36.92v-9.17A10.68,10.68,0,0,0,6592,537a8.27,8.27,0,0,0,6.65,2.89c4.16,0,7.53-2.43,7.53-5.43a4.21,4.21,0,0,0-.23-1.32c4.69-2.53,7.76-6.71,7.76-11.45,0-5.53-4.17-10.3-10.22-12.57a2.85,2.85,0,0,0,1.62-2.25c0-2.08-3.7-3.77-8.25-3.77a17.71,17.71,0,0,0-2.59.19,3.32,3.32,0,0,0,.44-1.6c0-3.39-5.7-6.13-12.73-6.13-5.7,0-10.53,1.81-12.15,4.3a4.74,4.74,0,0,0-.75-.06c-3.66,0-6.63,3.91-6.63,8.72a11.13,11.13,0,0,0,.58,3.57c-5.66,1-9.86,4.53-9.86,8.79,0,5,5.79,9.06,12.92,9.06h.3a7.07,7.07,0,0,0-1.59,4.36c0,4.76,5.24,8.69,12,9.31v14.71c0,3.91-1.18,7.07,1.79,7.07h44.81v60.37c0,2.08,1.28,3.77,2.87,3.77a2.37,2.37,0,0,0,1.33-.43l-.35-.2.35.2h0a4.62,4.62,0,0,0,.62.23c-17.36,24.45-38.1,43.35-73.25,50.68-85.47,17.83-127.39-59.52-235-68-60.91-4.8-129.82,13.5-207.19,69.32V622.39H6191c2.38,0,4.3-2.53,4.3-5.65a6.93,6.93,0,0,0-.71-3.12v-15a6.13,6.13,0,0,0,2-2.76,9.8,9.8,0,0,0,6.33,2.1c4.49,0,8.14-2.52,8.14-5.64a4.55,4.55,0,0,0-1.42-3.18c5.88-.57,10.43-4.55,10.43-9.37,0-5.21-5.32-9.44-11.89-9.44a14.36,14.36,0,0,0-2.39.2c-.22-2.67-3.67-4.86-8.2-5.38a2.7,2.7,0,0,0,.21-1c0-2.73-4.17-5-9.32-5-.43,0-.86,0-1.28.05H6187a4,4,0,0,0-.77.09c-4.1.52-7.16,2.48-7.16,4.82a3,3,0,0,0,.1.73c-5.3.23-9.56,2.49-10.18,5.36-3.41.71-5.84,2.51-5.84,4.63a3.46,3.46,0,0,0,1.24,2.51c-3.13,1.59-5,3.6-5,5.78,0,3.35,4.38,6.29,11,7.93a5.06,5.06,0,0,0-1.71,3.58c0,4.14,6.28,7.49,14,7.49h0a18.71,18.71,0,0,0,3.22-.3v9.26h-40.51v-47a11.18,11.18,0,0,0,7.74-7.67,9.2,9.2,0,0,0,3,.49,9.87,9.87,0,0,0,8.44-5.07,20.16,20.16,0,0,0,10.25-17.21c0-10.82-9.2-19.68-20.88-20.51,8.51-3.68,14.33-11.11,14.33-19.69,0-12.24-11.84-22.16-26.45-22.16a31.06,31.06,0,0,0-10,1.64,16.25,16.25,0,0,0,1.19-6.07c0-11.54-12.3-20.89-27.46-20.89-14.19,0-25.87,8.19-27.31,18.7a22.53,22.53,0,0,0-11-2.88c-14.05,0-25.44,13.18-25.44,29.44a31.85,31.85,0,0,0,7.32,20.65,10.62,10.62,0,0,0-7.47,10.34,11,11,0,0,0,3.58,8.18,7.53,7.53,0,0,0-2.66,5.76,7.41,7.41,0,0,0,5.86,7.31,10.36,10.36,0,0,0-.07,1.12,8.17,8.17,0,0,0,7.88,8.43,7.39,7.39,0,0,0,3.58-.92,24.09,24.09,0,0,0,9.94,2.12,24.63,24.63,0,0,0,4.66-.44,3.23,3.23,0,0,0,1.08.19h9.27a34.72,34.72,0,0,0,16.18,7.9v70.85h-36.92v-9.17a10.68,10.68,0,0,0,5.49-5.07,8.26,8.26,0,0,0,6.65,2.88c4.16,0,7.53-2.42,7.53-5.42a3.9,3.9,0,0,0-.23-1.32c4.69-2.53,7.76-6.72,7.76-11.45,0-5.53-4.17-10.3-10.22-12.57a2.87,2.87,0,0,0,1.62-2.25c0-2.08-3.69-3.77-8.25-3.77a17.71,17.71,0,0,0-2.59.19,3.33,3.33,0,0,0,.44-1.61c0-3.38-5.7-6.13-12.73-6.13-5.7,0-10.53,1.81-12.15,4.31a4.74,4.74,0,0,0-.75-.06c-3.66,0-6.63,3.9-6.63,8.72a11,11,0,0,0,.58,3.56c-5.66,1-9.86,4.54-9.86,8.8,0,5,5.79,9.06,12.93,9.06h.29a7.12,7.12,0,0,0-1.59,4.37c0,4.76,5.24,8.69,12,9.31v14.71c0,3.9-1.18,7.07,1.79,7.07H6101v42.23A681.57,681.57,0,0,0,6042,741l-304,338h7210V380A148.39,148.39,0,0,0,12923.33,359.67Zm-194.89-14.61V326.84a41.58,41.58,0,0,0,12.62-3.41,19.58,19.58,0,0,0,2.33.14,18.84,18.84,0,0,0,2.86-.22,6.86,6.86,0,0,0,2,2.22V353h-19.78Zm-2171.33-71.87V255a40.86,40.86,0,0,0,12.62-3.41,17.89,17.89,0,0,0,2.33.14,19.09,19.09,0,0,0,2.87-.21,6.69,6.69,0,0,0,2,2.21v27.44h-19.78ZM9440.28,426.75V403.47a51.62,51.62,0,0,0,16-4.36,23.45,23.45,0,0,0,2.94.18,25.09,25.09,0,0,0,3.63-.27,8.47,8.47,0,0,0,2.48,2.83v35h-25ZM6112.81,596.46V562.94a34.27,34.27,0,0,0,14.41-6.28,13.71,13.71,0,0,0,2.66.26,14.16,14.16,0,0,0,3.28-.39,12.22,12.22,0,0,0,2.24,4.07v50.48h-22.59Zm539.52-122a14.16,14.16,0,0,0,3.28-.39,12,12,0,0,0,2.24,4.07l.2.24-.2-.24V528.6h-22.59V480.46a34.27,34.27,0,0,0,14.41-6.28A13.71,13.71,0,0,0,6652.33,474.44Zm-4.57-42.07c0,.07,0,.14,0,.22,0,4.29-4.5,7.78-10,7.78q-.6,0-1.2-.06a11.9,11.9,0,0,0,1.2.06c5.54,0,10-3.49,10-7.78,0-.08,0-.15,0-.22a4.87,4.87,0,0,0-.06-.55A4.87,4.87,0,0,1,6647.76,432.37Zm-13.13-7.19a13,13,0,0,1,3.1-.38c4.43,0,8.18,2.23,9.52,5.31-1.34-3.08-5.09-5.31-9.52-5.31a13,13,0,0,0-3.1.38Zm.41,1.42a9.4,9.4,0,0,1,.22,2v11.51c.31.06.64.1,1,.14-.33,0-.65-.08-1-.14V428.62A9.47,9.47,0,0,0,6635,426.6Zm.22,192.31v-79h50C6664.4,567.14,6650.62,595,6635.26,618.91Zm3359.7-175a16.16,16.16,0,0,0,8-6.17,57.37,57.37,0,0,0,14.37,2.71C10009.8,442,10002.34,443.13,9995,443.94Zm57.37-13.19c.1-.14.23-.28.32-.42l1.07-.07Z"/></g><g id="Rechteck"><rect class="cls-1" width="12948" height="1080"/></g></svg>