<?xml version="1.0" encoding="UTF-8" standalone="no"?>
<!DOCTYPE svg PUBLIC "-//W3C//DTD SVG 1.1//EN" "http://www.w3.org/Graphics/SVG/1.1/DTD/svg11.dtd">
<svg width="100%" height="100%" viewBox="0 0 12948 1080" version="1.1" xmlns="http://www.w3.org/2000/svg" xmlns:xlink="http://www.w3.org/1999/xlink" xml:space="preserve" xmlns:serif="http://www.serif.com/" style="fill-rule:evenodd;clip-rule:evenodd;stroke-linejoin:round;stroke-miterlimit:2;">
    <g id="Safari3">
        <g id="safari_grüne_Ebene">
            <path d="M12842,461C12775.9,456.42 12730.6,468.8 12705,467C12568.5,457.42 12532.4,407.49 12436,392C12358.6,379.58 12281.8,395.66 12217.6,419C12164.6,448.16 12097.5,467.19 12058,468.61C12028.9,469.61 11948.1,474.75 11918,478.96C11910.1,480.06 11903,481.21 11896.4,482.38C11822.2,495.56 11823.3,512.38 11775,510.96C11657.8,507.59 11611.2,432.41 11514,444.96C11443,454.13 11456.5,495.71 11373,519.96C11270.4,549.77 11118.2,525.32 11022,452.96C11002.8,438.49 10969.8,410.02 10921,406.96C10883.1,404.58 10873.5,419.96 10836,426.96C10734.8,445.96 10693.3,354.89 10568,361.96C10542.4,363.41 10529,368.06 10493,366.96C10453.8,365.742 10415.1,358.664 10378,345.96C10238.4,301.44 9909.08,581.12 9636,564.96C9609.22,563.37 9534.29,556.06 9470.9,549.75L9476.9,540.8L9467.38,549.4L9462.82,548.94L9476.82,524.79L9459.48,548.61L9456.48,547.17L9464.39,517.65L9450.28,547.65L9448.78,547.31L9448.96,511.19L9443.96,547.02L9441.24,546.75L9430.49,526.26L9434.86,518.75L9430.03,525.38L9426.9,519.38L9429.37,526.24L9416.3,544.24L9413.74,543.98L9422.41,511.6L9407.5,543.35L9406.79,543.19L9406.98,505.19L9401.72,542.77L9400.42,542.99L9384.9,513.42L9395.23,542.1L9388.16,541.37L9378.65,534.37L9383.85,540.89C9340.44,536.33 9319.7,533.45 9293.98,527.89C9210.28,509.79 9201.98,494.43 9155.98,493.89L9150.06,493.89L9154.91,486.7L9146.91,493.96C9144.98,494.03 9143.08,494.13 9141.22,494.25L9154.9,470.69L9137.55,494.53C9136.37,494.63 9135.21,494.73 9134.07,494.86L9142.45,463.55L9127.25,496L9126.81,495.89L9127,457.25L9121.46,496.79L9121.36,496.79L9104.92,465.47L9116.54,497.75L9114.66,498.18L9098.66,486.45L9109.1,499.55C9052.62,514.71 9030,554.65 8977,545C8911.49,533.06 8919.22,467 8828,418C8752.13,377.24 8672.34,382.91 8643,385C8572.65,390 8575.77,410 8494,419C8453.77,423.42 8427.35,421.39 8404.86,419.4L8407.93,414.84L8403.06,419.24L8396.37,418.65L8407.88,398.83L8393.62,418.41L8388.38,418L8395.43,391.69L8383.24,417.69L8379.84,417.51L8380,385.3L8375.51,417.35C8373.81,417.3 8372.1,417.27 8370.38,417.27L8357.92,393.53L8366.48,417.3C8363.1,417.36 8359.67,417.52 8356.16,417.81L8351.67,414.51L8354.42,417.96C8342.41,419.122 8330.54,421.48 8319,425C8303.76,429.667 8288.25,433.446 8272.57,436.32L8276.93,429.84L8269.07,436.94C8266.91,437.32 8264.84,437.68 8262.82,438.05L8276.88,413.83L8258.7,438.83L8255.7,439.42L8264.46,406.71L8248.8,440L8249,400.3L8243.44,440L8226.92,408.53L8239.42,443.26L8220.67,429.51L8233.38,445.46C8226.01,447.93 8217.22,451.28 8206,456.03C8115.45,494.32 8074.45,460.23 7923,480.03C7856.09,488.78 7819.79,502.55 7781.4,508.55L7787.93,498.87L7776.4,509.28C7775.01,509.47 7773.62,509.66 7772.22,509.83L7787.88,482.83L7767.88,510.27L7766.34,509.54L7775.41,475.69L7759.8,509L7760,469.3L7754.44,509L7737.92,477.53L7750.12,511.43L7749.71,511.74L7731.71,498.51L7742.06,511.51C7728.66,511.315 7715.29,510.159 7702.06,508.05C7700.86,507.87 7699.68,507.68 7698.5,507.48L7706.99,494.89L7693.91,506.7L7691.78,504.98L7706.94,478.88L7687.24,505.94L7685.55,505.14L7694.49,471.74L7679.39,503.89L7678.87,503.77L7679.06,465.32L7673.83,502.68L7672.4,502.93L7656.98,473.55L7666.9,501.11C7663.31,500.283 7659.77,499.45 7656.29,498.61L7650.73,494.53L7653.44,497.93C7615.67,488.93 7583.78,481.28 7544.06,496.05C7501.16,512 7505.65,510.65 7469.06,515.05C7415.54,521.49 7390.68,490.84 7330.06,493.05C7328.22,493.12 7326.44,493.21 7324.69,493.34L7324.99,492.89L7324.48,493.35C7321.07,493.6 7317.84,493.95 7314.76,494.4L7324.94,476.88L7311.85,494.88C7309.62,495.26 7307.48,495.687 7305.42,496.16L7312.49,469.76L7299.36,497.76C7298.52,498 7297.7,498.25 7296.88,498.51L7297.06,463.37L7291.9,500.22L7290.16,500.52L7274.98,471.6L7286.12,502.55C7285.32,502.89 7284.54,503.24 7283.76,503.6L7268.76,492.6L7279.28,505.79C7258,516.48 7241.59,530.79 7206.09,536.12C7101.81,551.73 7055.47,456.24 6973.09,482.12C6946.77,490.39 6932.94,497.65 6916.4,506.42L6925.97,489.95L6912.45,508.51C6910.27,509.67 6908.03,510.85 6905.69,512.06L6913.52,482.81L6897.92,516.04L6898.12,476.4L6892.56,516.1L6876.04,484.63L6888.54,519.36L6869.79,505.61L6883.6,522.93C6876.77,526.08 6869.06,529.46 6860.12,533.13C6825.07,547.51 6803.31,549.32 6782.23,549.05L6791.05,535.97L6776.68,548.97L6774.97,547.59L6790.97,519.99L6770.02,548.77L6769.02,548.3L6778.51,512.85L6762.8,546L6763,506.3L6757.44,546L6740.92,514.53L6753.07,548.28L6752.58,548.64L6734.67,535.51L6744.93,548.38C6729.81,548.829 6714.77,550.711 6700,554C6675.42,559.34 6654.19,572.78 6635.26,590.83C6633.2,592.79 6631.17,594.79 6629.17,596.83C6627.35,598.69 6625.56,600.597 6623.79,602.55L6623.43,602.95C6569.04,662.95 6533.59,758.24 6488.08,792.95L6435.43,792.95C6430.19,774.59 6426.27,741.47 6417,738.95C6326.26,714.28 6156.64,785.73 6108,809.95C6108,812.43 6049.6,849.47 6049.6,849.47C6039.26,855.756 6029.9,863.533 6021.82,872.55L5836,1080L12948,1080L12948,478C12913.2,469.174 12877.8,463.485 12842,461Z" style="fill:rgb(155,155,8);fill-rule:nonzero;"/>
        </g>
    </g>
    <g id="Rechteck">
        <rect x="0" y="0" width="12948" height="1080" style="fill:none;"/>
    </g>
</svg>
