<?xml version="1.0" encoding="UTF-8" standalone="no"?>
<!DOCTYPE svg PUBLIC "-//W3C//DTD SVG 1.1//EN" "http://www.w3.org/Graphics/SVG/1.1/DTD/svg11.dtd">
<svg width="100%" height="100%" viewBox="0 0 12948 1080" version="1.1" xmlns="http://www.w3.org/2000/svg" xmlns:xlink="http://www.w3.org/1999/xlink" xml:space="preserve" xmlns:serif="http://www.serif.com/" style="fill-rule:evenodd;clip-rule:evenodd;stroke-linejoin:round;stroke-miterlimit:2;">
    <g id="Safari2">
        <g id="Büffel">
            <g transform="matrix(1,0,0,1,-237,-6)">
                <path d="M12505.5,419.94L12505.3,420.11L12505.5,420.11L12505.5,419.94Z" style="fill:none;fill-rule:nonzero;"/>
            </g>
            <path d="M7814.68,455.85C7800.05,455.85 7787.03,442.61 7778.68,422.04C7777.91,420.408 7777.27,418.716 7776.77,416.98C7775.72,413.96 7774.76,410.807 7773.9,407.52C7770.61,408.365 7767.23,408.786 7763.83,408.77C7756.7,408.77 7750.34,407.03 7746.18,404.32C7744.97,406.774 7743.05,408.808 7740.67,410.16L7740.67,441.94C7741.98,443.896 7742.67,446.197 7742.67,448.55C7742.67,455.133 7737.25,460.55 7730.67,460.55L7512.67,460.55L7512.67,531.38C7522.54,531.62 7532.66,531.827 7543.03,532C7649.8,533.75 7739.22,530.71 7817.73,524.72L7817.73,456.5C7816.68,456.33 7815.67,456.11 7814.68,455.85Z" style="fill:none;fill-rule:nonzero;"/>
            <path d="M7512.64,436.55L7575.64,436.55L7575.64,329.55C7572.96,327.151 7570.83,324.204 7569.39,320.91C7566.38,321.473 7563.32,321.754 7560.26,321.75C7557.78,321.751 7555.3,321.568 7552.84,321.2C7540.4,328.133 7526.76,332.65 7512.64,334.51L7512.64,436.55Z" style="fill:none;fill-rule:nonzero;"/>
            <path d="M6266,826.78L6259,827L6265.8,827L6266,826.78Z" style="fill:none;fill-rule:nonzero;"/>
            <path d="M9088.36,441.91L9151.36,441.91L9151.36,334.91C9148.68,332.512 9146.55,329.57 9145.11,326.28C9139.65,327.283 9134.05,327.378 9128.56,326.56C9116.12,333.499 9102.48,338.016 9088.36,339.87L9088.36,441.91Z" style="fill:none;fill-rule:nonzero;"/>
            <path d="M10140.1,381.05L10140.1,355.05C10137.4,352.656 10135.3,349.712 10133.9,346.42C10128.4,347.423 10122.8,347.518 10117.3,346.7C10104.9,353.638 10091.2,358.154 10077.1,360.01L10077.1,390.88C10096.3,387.16 10117.2,383.86 10140.1,381.05Z" style="fill:none;fill-rule:nonzero;"/>
            <path d="M7352.23,428.47L7351.97,428.75L7352.33,428.75C7352.29,428.659 7352.26,428.566 7352.23,428.47Z" style="fill:none;fill-rule:nonzero;"/>
            <g transform="matrix(1,0,0,1,-237,-6)">
                <path d="M12624.4,425.21L12671.1,425.21L12671.1,355.3C12669.1,353.782 12667.5,351.856 12666.4,349.66C12664.2,350.021 12661.9,350.201 12659.7,350.2C12657.8,350.203 12656,350.083 12654.2,349.84C12644.8,354.417 12634.7,357.356 12624.4,358.53L12624.4,425.21Z" style="fill:none;fill-rule:nonzero;"/>
            </g>
            <path d="M8928,433.84L8927.74,434.11L8928.1,434.11L8928,433.84Z" style="fill:none;fill-rule:nonzero;"/>
            <path d="M10272.1,462.09L10281.1,462.09L10281.1,442.45C10278.1,442.871 10275.1,443.082 10272.1,443.08C10250.5,443.08 10233,435.97 10233,427.21C10233,424.46 10234.7,421.87 10237.7,419.61C10219.4,416.13 10207.1,409.9 10207.1,402.8C10207.1,398.17 10212.3,393.91 10221.1,390.54C10218.9,388.98 10217.6,387.16 10217.6,385.23C10217.6,380.73 10224.4,376.9 10233.9,375.4C10234.1,374.554 10234.5,373.763 10235.1,373.07C10220.1,373.803 10205.1,374.777 10190,375.99C10182.5,376.603 10175.2,377.27 10168.1,377.99L10168.1,462.12L10272.1,462.09Z" style="fill:rgb(166,204,25);fill-rule:nonzero;"/>
            <path d="M9988.48,420.76C10005.4,425.58 10017,435.7 10017,447.41C10017,457.41 10008.4,466.33 9995.35,471.7C9995.77,472.575 9995.99,473.531 9996,474.5C9996,480.85 9986.6,486 9975,486C9967,486 9960,483.52 9956.45,479.89C9953.87,484.31 9948.38,488.09 9941.12,490.64L9941.12,510.09L10044.1,510.09L10044.1,398C10025,402.62 10007.6,407.69 9991.48,413.1C9992.38,413.8 9992.94,414.859 9993,416C9993,417.78 9991.32,419.43 9988.48,420.76Z" style="fill:rgb(166,204,25);fill-rule:nonzero;"/>
            <path d="M9916.71,454L9916.45,454.27L9916.81,454.27C9916.77,454.182 9916.74,454.092 9916.71,454Z" style="fill:rgb(166,204,25);fill-rule:nonzero;"/>
            <path d="M8855.69,490.68C8855.95,490.682 8856.22,490.736 8856.46,490.84C8856.22,490.736 8855.95,490.682 8855.69,490.68Z" style="fill:rgb(166,204,25);fill-rule:nonzero;"/>
            <path d="M8811.97,501.51L8814.75,497.16L8811.97,501.51Z" style="fill:rgb(166,204,25);fill-rule:nonzero;"/>
            <path d="M8952.36,489.91L9035.49,489.91C9010.96,482.21 8985.67,474.64 8958.92,467.56C8956.82,468.715 8954.63,469.685 8952.36,470.46L8952.36,489.91Z" style="fill:rgb(166,204,25);fill-rule:nonzero;"/>
            <path d="M8829.21,542.32C8829.34,542.4 8829.45,542.49 8829.59,542.56C8829.45,542.49 8829.34,542.4 8829.21,542.32Z" style="fill:rgb(166,204,25);fill-rule:nonzero;"/>
            <path d="M10077.1,390.92L10077.1,462.09L10140.1,462.09L10140.1,381.09C10117.2,383.9 10096.3,387.2 10077.1,390.92Z" style="fill:rgb(166,204,25);fill-rule:nonzero;"/>
            <path d="M12950,787C12877.8,771.19 12756.1,579.149 12521.1,533.953C12494.4,528.811 12414.4,530.841 12340,493.02C12283.9,464.48 12298.4,465.36 12217.6,419.02L12214,417.02L12210.8,415.22C12166,390.42 12113,384.75 12063.6,398.44L12011,413C12011,413 11790.7,471.94 11743,483C11743,483 11615.6,512.67 11483,523C11364,532.27 10884.3,448.54 10820.4,435.39C10818.3,439.652 10815.2,443.313 10811.3,446.02C10812.5,447.413 10813.2,449.18 10813.2,451.02C10813.2,456.61 10806.5,461.32 10797.4,462.69L10797.4,463.33L10731,463.33L10731,463.54L10653.8,463.54C10649.2,464.536 10644.5,465.029 10639.8,465.01C10621.6,465.01 10606.8,458.01 10606.8,449.36C10606.9,447.341 10607.6,445.398 10608.9,443.86C10607.7,442.962 10607,441.572 10606.8,440.06C10598.8,436.34 10593.6,430.6 10593.6,424.16C10593.6,412.96 10609.2,403.89 10628.5,403.89L10628.9,403.89L10629.1,403.82C10625.7,402.419 10622.4,400.515 10619.5,398.17C10526.2,383.49 10430.9,373.17 10333.7,371.54C10335.1,372.694 10336.1,374.327 10336.4,376.13C10338.6,375.863 10340.8,375.729 10343,375.73C10361.4,375.73 10376.2,384.73 10376.2,395.73C10376.2,405.95 10363.5,414.38 10347.1,415.59C10349.6,417.51 10351.1,419.83 10351.1,422.34C10351.1,428.94 10340.9,434.34 10328.4,434.34C10321.3,434.34 10314.9,432.6 10310.8,429.89C10309.5,432.344 10307.6,434.378 10305.2,435.73L10305.2,467.51C10306.5,469.473 10307.2,471.776 10307.2,474.13C10307.2,480.71 10301.8,486.125 10295.2,486.13L10077.2,486.13L10077.2,660.13C10077.2,668.9 10070,676.11 10061.2,676.11C10059.4,676.11 10057.6,675.806 10056,675.21C10054.8,675.809 10053.5,676.122 10052.2,676.122C10047.9,676.122 10044.2,672.516 10044.2,668.13L10044.2,540.13L9919.24,540.13C9910.95,540.13 9914.24,533.41 9914.24,525.13L9914.24,493.9C9895.3,492.59 9880.69,484.25 9880.69,474.15C9880.69,470.81 9882.3,467.67 9885.12,464.9L9884.3,464.9C9881.46,464.901 9878.62,464.72 9875.8,464.36C9797.8,504.36 9718.16,545.72 9525.12,562.99C9324.2,580.99 9209.37,545.84 9088.48,506.84L9088.48,639.942C9088.48,648.72 9081.26,655.942 9072.48,655.942C9070.64,655.942 9068.81,655.624 9067.07,655C9065.93,655.599 9064.65,655.912 9063.36,655.912C9058.97,655.912 9055.36,652.301 9055.36,647.912L9055.36,519.91L8930.36,519.91C8922.08,519.91 8925.36,513.2 8925.36,504.91L8925.36,473.73C8906.42,472.42 8891.82,464.08 8891.82,453.98C8891.83,453.258 8891.9,452.537 8892.05,451.83C8863.64,446.01 8833.34,440.94 8800.56,436.94L8800.56,472.86L8773.39,472.86L8773.39,433.94C8752.73,431.94 8731.08,430.28 8708.32,429.16L8708.32,485L8691.32,485L8691.32,428.42C8671.45,427.687 8650.71,427.353 8629.11,427.42L8629.11,438L8602,438L8602,427.69C8597.39,427.78 8592.75,427.88 8588,428C8267.94,436.49 8125.73,497.3 7849.87,522L7849.87,582L7817.7,582L7817.7,524.72C7739.19,530.72 7649.77,533.72 7543,532C7532.62,531.833 7522.5,531.627 7512.64,531.38L7512.64,634.55C7512.63,643.323 7505.41,650.54 7496.64,650.54C7494.84,650.54 7493.05,650.236 7491.35,649.64C7490.2,650.239 7488.93,650.552 7487.64,650.552C7483.25,650.552 7479.64,646.941 7479.64,642.552L7479.64,530.42C7384.9,527.23 7314.07,521.05 7251.64,516.42C7249.29,517.452 7246.82,518.171 7244.28,518.56L7244.28,519.22L7177.9,519.22L7177.9,519.44L7100.63,519.44C7096.04,520.477 7091.34,520.991 7086.63,520.97C7074.44,520.97 7063.79,517.7 7058.1,512.84C7024.61,515.1 6988.7,519.24 6947.96,525.97C6644.46,576.13 6411.72,714.1 6258.96,826.97L6265.91,826.75L6265.76,826.97L6259,826.97L5900,1079.97L12948,1079.97L12950,787ZM7524.41,611.07L7559.22,637.34L7536,571L7566.67,631.14L7577,555.27L7576.63,631.12L7605.63,567.53L7586.57,640.79L7628.73,581.17L7592.37,645.63L7628.84,611.76L7599.84,656L7559.22,656L7524.41,611.07ZM7820.74,696.07C7820.74,703.53 7816.64,710.33 7809.91,715.44C7811.12,716.914 7811.8,718.753 7811.84,720.66C7811.84,726.47 7805.14,731.35 7796.06,732.78L7796.06,733.44L7729.65,733.44L7729.65,733.66L7652.38,733.66C7647.79,734.697 7643.09,735.21 7638.38,735.19C7620.18,735.19 7605.43,727.91 7605.43,718.93C7605.47,716.848 7606.21,714.838 7607.52,713.22C7606.28,712.254 7605.51,710.793 7605.43,709.22C7597.37,705.37 7592.19,699.4 7592.19,692.71C7592.19,681.08 7607.8,671.65 7627.06,671.65L7627.49,671.65L7627.69,671.57C7617.31,667.07 7610.52,659.57 7610.52,651.03C7610.52,637.23 7628.35,626.03 7650.34,626.03C7655.9,626.01 7661.44,626.761 7666.8,628.26C7666.8,627.81 7666.75,627.36 7666.75,626.9C7666.75,617.26 7673.47,609.45 7681.75,609.45C7685.38,609.489 7688.85,610.96 7691.4,613.54C7699.08,610.785 7707.18,609.411 7715.34,609.48C7738.94,609.48 7758.2,620.16 7759.34,633.58C7764.64,632.578 7770.03,632.079 7775.42,632.09C7800.42,632.09 7820.71,642.33 7820.71,654.96C7820.71,662.18 7814.07,668.63 7803.71,672.82C7814.05,678.08 7820.74,686.52 7820.74,696L7820.74,696.07ZM8155,649L8119.38,649L8088.85,627.71L8119.38,640.16L8099.03,608.72L8126,637.21L8135.05,601.27L8134.73,637.21L8160.17,607.08L8143.45,641.79L8180.45,613.54L8148.56,644.09L8180.56,628.04L8155,649ZM8986,672L8950.38,672L8919.85,650.71L8950.38,663.16L8930.03,631.72L8957,660.21L8966,624.27L8965.67,660.21L8991.12,630.08L8974.4,664.79L9011.4,636.54L8979.51,667.09L9011.51,651.04L8986,672ZM9597.6,610L9562,610L9531.47,600.48L9562,606.05L9541.66,592L9568.55,604.74L9577.6,588.68L9577.28,604.74L9602.72,591.27L9586,606.78L9623,594.15L9591.11,607.8L9623.11,600.63L9597.6,610ZM9705,630L9669.38,630L9638.85,608.71L9669.38,621.16L9649.03,589.72L9676,618.21L9685,582.27L9684.67,618.21L9710.12,588.08L9693.4,622.79L9730.4,594.54L9698.51,625.09L9730.51,609.04L9705,630Z" style="fill:rgb(166,204,25);fill-rule:nonzero;"/>
            <path d="M7076,457.44L7075.8,457.51L7076.18,457.51L7076,457.44Z" style="fill:rgb(41,188,6);fill-rule:nonzero;"/>
            <path d="M7144.05,419.11L7144.95,419.11C7163.15,419.11 7177.9,432.74 7177.9,449.55C7177.87,456.817 7175.1,463.813 7170.16,469.14C7172.39,469.577 7174.6,470.138 7176.77,470.82L7177.9,470.82L7177.9,471.2C7187.02,474.34 7192.9,479.36 7192.9,485.01C7192.9,489.16 7189.72,493.01 7184.41,495.95C7185.77,497.849 7186.52,500.123 7186.54,502.46C7186.54,507.36 7183.16,511.73 7177.89,514.56L7177.89,519.26L7244.31,519.26L7244.31,518.6C7246.85,518.211 7249.32,517.492 7251.67,516.46C7256.78,514.17 7260.08,510.56 7260.08,506.46C7260.05,504.552 7259.36,502.712 7258.15,501.24C7264.88,496.13 7268.99,489.33 7268.99,481.88C7268.99,472.35 7262.29,463.88 7251.99,458.68C7262.36,454.49 7268.99,448.04 7268.99,440.82C7268.99,428.19 7248.71,417.95 7223.7,417.95C7218.3,417.938 7212.91,418.437 7207.61,419.44C7206.51,406.02 7187.24,395.34 7163.61,395.34C7155.46,395.272 7147.36,396.646 7139.68,399.4C7143.18,402.958 7145.11,407.772 7145.04,412.76C7145.06,414.916 7144.72,417.061 7144.05,419.11Z" style="fill:rgb(41,188,6);fill-rule:nonzero;"/>
            <path d="M7100.63,519.47L7177.9,519.47L7177.9,514.55C7183.17,511.72 7186.55,507.35 7186.55,502.45C7186.53,500.113 7185.78,497.839 7184.42,495.94C7189.73,492.94 7192.91,489.15 7192.91,485C7192.91,479.35 7187.02,474.33 7177.91,471.19L7177.91,470.81L7176.78,470.81C7174.61,470.128 7172.4,469.567 7170.17,469.13C7175.11,463.803 7177.88,456.807 7177.91,449.54C7177.91,432.73 7163.16,419.1 7144.96,419.1L7144.06,419.1C7144.74,417.055 7145.07,414.914 7145.06,412.76C7145.13,407.772 7143.2,402.958 7139.7,399.4C7137.15,396.817 7133.67,395.346 7130.04,395.31C7121.75,395.31 7115.04,403.12 7115.04,412.76C7115.04,413.22 7115.04,413.67 7115.09,414.12C7109.73,412.62 7104.19,411.87 7098.62,411.89C7076.62,411.89 7058.8,423.08 7058.8,436.89C7058.8,445.4 7065.6,452.89 7075.97,457.44L7076.15,457.51L7075.34,457.51C7056.09,457.51 7040.48,466.94 7040.48,478.57C7040.48,485.26 7045.65,491.23 7053.71,495.09C7053.82,496.645 7054.58,498.083 7055.81,499.04C7054.5,500.658 7053.76,502.667 7053.71,504.75C7053.71,507.75 7055.32,510.49 7058.13,512.88C7063.82,517.74 7074.47,521.01 7086.66,521.01C7091.36,521.025 7096.05,520.508 7100.63,519.47Z" style="fill:rgb(39,127,14);fill-rule:nonzero;"/>
            <path d="M10629,403.81L10628.8,403.88L10629.2,403.88L10629,403.81Z" style="fill:rgb(41,188,6);fill-rule:nonzero;"/>
            <path d="M10697.1,366.93L10698,366.93C10716.2,366.93 10731,380.05 10731,396.23C10730.9,403.278 10728.1,410.04 10723.2,415.09C10725.5,415.512 10727.7,416.053 10729.8,416.71L10731,416.71L10731,417.07C10740.1,420.07 10746,424.93 10746,430.36C10746,434.36 10742.8,438.03 10737.5,440.89C10738.8,442.707 10739.6,444.905 10739.6,447.17C10739.6,451.88 10736.2,456.08 10731,458.82L10731,463.34L10797.4,463.34L10797.4,462.7C10806.4,461.33 10813.1,456.62 10813.1,451.03C10813.1,449.19 10812.4,447.423 10811.2,446.03C10815.1,443.323 10818.2,439.662 10820.3,435.4C10821.4,432.891 10822,430.162 10822,427.4C10822,418.23 10815.3,410.11 10805,405.07C10815.4,401.07 10822,394.83 10822,387.88C10822,375.72 10801.8,365.88 10776.8,365.88C10771.4,365.87 10766,366.348 10760.7,367.31C10759.6,354.39 10740.3,344.11 10716.7,344.11C10708.5,344.045 10700.4,345.367 10692.7,348.02C10696.2,351.385 10698.2,356.041 10698.1,360.88C10698.1,362.94 10697.7,364.984 10697.1,366.93Z" style="fill:rgb(41,188,6);fill-rule:nonzero;"/>
            <path d="M10629.2,403.89L10628.4,403.89C10609.1,403.89 10593.5,412.96 10593.5,424.16C10593.5,430.6 10598.7,436.34 10606.8,440.06C10606.9,441.572 10607.6,442.962 10608.9,443.86C10607.6,445.398 10606.8,447.341 10606.8,449.36C10606.8,458 10621.5,465.01 10639.7,465.01C10644.4,465.029 10649.1,464.536 10653.7,463.54L10731,463.54L10731,458.8C10736.2,456.06 10739.6,451.86 10739.6,447.15C10739.6,444.885 10738.8,442.687 10737.5,440.87C10742.8,438.01 10746,434.34 10746,430.34C10746,424.91 10740.1,420.08 10731,417.05L10731,416.69L10729.8,416.69C10727.7,416.033 10725.5,415.492 10723.2,415.07C10728.1,410.02 10730.9,403.258 10731,396.21C10731,380.03 10716.2,366.91 10698,366.91L10697.1,366.91C10697.7,364.944 10698.1,362.878 10698.1,360.8C10698.1,355.961 10696.2,351.305 10692.7,347.94C10690.1,345.434 10686.7,344.022 10683.1,344C10674.8,344 10668.1,351.52 10668.1,360.8L10668.1,362.11C10662.7,360.663 10657.2,359.94 10651.6,359.96C10629.6,359.96 10611.8,370.73 10611.8,383.96C10611.8,389.24 10614.6,394.12 10619.4,398.09C10622.3,400.435 10625.5,402.339 10629,403.74L10629.2,403.89Z" style="fill:rgb(39,127,14);fill-rule:nonzero;"/>
            <path d="M7628.85,611.76L7592.38,645.63L7628.74,581.17L7586.58,640.79L7605.64,567.52L7576.63,631.12L7577,555.27L7566.68,631.12L7536.01,570.98L7559.22,637.34L7524.41,611.07L7559.22,656L7599.84,656L7628.85,611.76Z" style="fill:rgb(130,183,0);fill-rule:nonzero;"/>
            <path d="M8180.38,613.54L8143.4,641.79L8160.12,607.08L8134.68,637.21L8135,601.27L8125.95,637.21L8099.06,608.72L8119.41,640.16L8088.88,627.71L8119.41,649L8155.03,649L8180.47,628.04L8148.49,644.09L8180.38,613.54Z" style="fill:rgb(130,183,0);fill-rule:nonzero;"/>
            <path d="M9011.38,636.54L8974.4,664.79L8991.12,630.08L8965.67,660.21L8966,624.27L8956.95,660.21L8930.06,631.72L8950.41,663.16L8919.88,650.71L8950.41,672L8986.03,672L9011.47,651.04L8979.49,667.09L9011.38,636.54Z" style="fill:rgb(130,183,0);fill-rule:nonzero;"/>
            <path d="M9622.98,594.15L9586,606.78L9602.72,591.26L9577.28,604.73L9577.6,588.67L9568.55,604.73L9541.66,592L9562.01,606.05L9531.48,600.49L9562.01,610L9597.63,610L9623.07,600.63L9591.09,607.8L9622.98,594.15Z" style="fill:rgb(130,183,0);fill-rule:nonzero;"/>
            <path d="M9730.38,594.54L9693.4,622.79L9710.12,588.08L9684.67,618.21L9685,582.27L9675.95,618.21L9649.06,589.72L9669.41,621.16L9638.88,608.71L9669.41,630L9705.03,630L9730.47,609.04L9698.49,625.09L9730.38,594.54Z" style="fill:rgb(130,183,0);fill-rule:nonzero;"/>
            <path d="M7627.73,671.59L7627.53,671.67L7627.9,671.67L7627.73,671.59Z" style="fill:rgb(41,188,6);fill-rule:nonzero;"/>
            <path d="M7820.74,655C7820.74,642.37 7800.47,632.13 7775.45,632.13C7770.06,632.119 7764.67,632.618 7759.37,633.62C7758.26,620.2 7739,609.52 7715.37,609.52C7707.21,609.451 7699.11,610.825 7691.43,613.58C7694.93,617.136 7696.86,621.951 7696.79,626.94C7696.8,629.094 7696.47,631.235 7695.79,633.28L7696.69,633.28C7714.89,633.28 7729.69,646.91 7729.69,663.72C7729.66,670.987 7726.89,677.983 7721.95,683.31C7724.18,683.748 7726.38,684.309 7728.55,684.99L7729.69,684.99L7729.69,685.37C7738.8,688.51 7744.69,693.53 7744.69,699.18C7744.69,703.33 7741.5,707.18 7736.19,710.11C7737.56,712.012 7738.3,714.289 7738.33,716.63C7738.33,721.53 7734.95,725.9 7729.68,728.73L7729.68,733.43L7796.09,733.43L7796.09,732.77C7805.17,731.34 7811.87,726.46 7811.87,720.65C7811.83,718.743 7811.15,716.904 7809.94,715.43C7816.67,710.32 7820.77,703.52 7820.77,696.06C7820.77,686.54 7814.08,678.06 7803.77,672.87C7814.1,668.66 7820.74,662.21 7820.74,655Z" style="fill:rgb(41,188,6);fill-rule:nonzero;"/>
            <path d="M7738.3,716.61C7738.27,714.269 7737.53,711.992 7736.16,710.09C7741.47,707.09 7744.66,703.31 7744.66,699.16C7744.66,693.51 7738.76,688.49 7729.66,685.35L7729.66,685L7728.52,685C7726.35,684.319 7724.15,683.758 7721.92,683.32C7726.86,677.993 7729.63,670.997 7729.66,663.73C7729.66,646.92 7714.9,633.29 7696.66,633.29L7695.76,633.29C7696.44,631.245 7696.77,629.104 7696.76,626.95C7696.83,621.961 7694.9,617.146 7691.4,613.59C7688.85,611.01 7685.38,609.539 7681.75,609.5C7673.45,609.5 7666.75,617.31 7666.75,626.95C7666.75,627.41 7666.75,627.86 7666.8,628.31C7661.44,626.811 7655.9,626.06 7650.34,626.08C7628.34,626.08 7610.52,637.27 7610.52,651.08C7610.52,659.59 7617.31,667.08 7627.69,671.62L7627.86,671.7L7627.06,671.7C7607.8,671.7 7592.19,681.13 7592.19,692.76C7592.19,699.45 7597.37,705.42 7605.43,709.27C7605.51,710.843 7606.28,712.304 7607.52,713.27C7606.21,714.888 7605.47,716.898 7605.43,718.98C7605.43,727.98 7620.18,735.24 7638.38,735.24C7643.09,735.26 7647.79,734.747 7652.38,733.71L7729.65,733.71L7729.65,728.79C7734.92,725.88 7738.3,721.51 7738.3,716.61Z" style="fill:rgb(39,127,14);fill-rule:nonzero;"/>
            <path d="M10153.1,361.98L10153.1,486.09L10295.1,486.09C10301.7,486.085 10307.1,480.67 10307.1,474.09C10307.1,471.736 10306.4,469.433 10305.1,467.47L10305.1,434.22C10302.3,435.85 10299.3,437.161 10296.2,438.13L10296.1,438.13C10295.1,438.58 10294.1,438.99 10293.1,439.39L10293.1,462.06L10168.1,462.06L10168.1,362.48C10163.1,363.437 10158,363.266 10153.1,361.98Z" style="fill:rgb(155,99,38);fill-rule:nonzero;"/>
            <path d="M10281.1,442.45L10281.1,462.09L10293.1,462.09L10293.1,439.42C10290.2,440.524 10287.2,441.374 10284.1,441.96C10283.1,442.15 10282.1,442.31 10281.1,442.45Z" style="fill:rgb(119,74,34);fill-rule:nonzero;"/>
            <path d="M9907.12,253.09C9907.12,247.01 9915.36,242.09 9925.54,242.09C9933.14,242.09 9939.66,244.84 9942.48,248.77C9946.74,246.598 9951.45,245.483 9956.23,245.52C9969.79,245.52 9980.79,253.99 9980.79,264.43C9980.79,265.343 9980.7,266.254 9980.53,267.15C9983.84,265.564 9987.46,264.75 9991.13,264.77C10002.6,264.77 10011.8,272.31 10011.8,281.62C10011.8,288.1 10007.3,293.72 10000.7,296.54C10009.2,297.46 10015.7,303.05 10015.7,309.8C10015.6,313.477 10013.8,316.906 10010.9,319.09L10044.2,319.09L10044.2,267.67C10042,267.943 10039.8,268.083 10037.6,268.09C10016.3,268.09 9999.07,255.77 9999.07,240.59C9999.09,237.207 9999.94,233.879 10001.5,230.9C9986.47,226.19 9976.16,216.67 9976.16,205.67C9976.16,193.54 9988.71,183.2 10006.4,179.14C10004.9,177.8 10004.1,175.954 10004,174C10004,167.37 10014.8,162 10028,162C10036.9,162 10044.7,164.44 10048.9,168.06C10055.9,166.044 10063.2,165.034 10070.5,165.06C10096.9,165.06 10118.2,177.17 10118.2,192.06C10118.2,193.673 10117.9,195.275 10117.5,196.81C10137.5,200.61 10152.1,212.68 10152.1,226.98C10152.1,242.56 10134.8,255.48 10112,257.98L10112,258.44C10112,267.55 10099.4,274.94 10084,274.94C10081.7,274.939 10079.4,274.772 10077.1,274.44L10077.1,360C10091.2,358.144 10104.9,353.628 10117.3,346.69C10122.8,347.508 10128.4,347.413 10133.9,346.41C10135.3,349.702 10137.4,352.646 10140.1,355.04C10140.4,355.34 10140.8,355.65 10141.1,355.93C10144.6,358.784 10148.7,360.833 10153.1,361.93C10158,363.216 10163.1,363.387 10168.1,362.43C10178.1,360.55 10186.3,354.32 10189.7,346.16C10192.4,346.838 10195.2,347.174 10198,347.16C10207.8,347.16 10216.5,342.88 10221.5,336.41C10238.7,328.61 10250.1,315.18 10250.1,299.92C10250.1,276.98 10224.4,258.19 10191.8,256.44C10215.6,248.63 10231.8,232.86 10231.8,214.67C10231.8,188.73 10198.8,167.67 10158.1,167.67C10148.7,167.647 10139.3,168.82 10130.2,171.16C10132.3,167.198 10133.4,162.772 10133.5,158.27C10133.5,133.81 10099.2,113.98 10056.9,113.98C10017.3,113.98 9984.72,131.35 9980.71,153.64C9971.01,149.58 9960.59,147.502 9950.07,147.53C9910.88,147.53 9879.07,175.53 9879.07,209.96C9879.07,227.02 9886.87,242.48 9899.49,253.74C9901.87,253.23 9904.3,252.975 9906.74,252.98L9907.12,253.09Z" style="fill:rgb(4,175,12);fill-rule:nonzero;"/>
            <path d="M9999,343.09C10012.6,351.895 10028.1,357.619 10044.1,359.86L10044.1,343.09L9999,343.09Z" style="fill:rgb(4,175,12);fill-rule:nonzero;"/>
            <path d="M9964.17,339.06C9961.51,340.406 9958.56,341.092 9955.58,341.06C9948.41,341.06 9942.42,337.29 9941.03,332.28C9940.27,332.07 9939.52,331.84 9938.78,331.6C9936.46,334.979 9933.19,337.591 9929.38,339.1C9938.31,342.121 9947.68,343.641 9957.11,343.6C9961.46,343.605 9965.81,343.291 9970.11,342.66C9967.82,342.072 9965.75,340.819 9964.17,339.06Z" style="fill:rgb(4,175,12);fill-rule:nonzero;"/>
            <path d="M9941.12,510.09L9941.12,490.64L9939.6,491.15L9939.6,490C9934.56,491.536 9929.37,492.505 9924.12,492.89L9924.12,535.12C9924.12,535.29 9924.12,535.46 9924.07,535.63C9923.81,538.159 9921.66,540.108 9919.12,540.12L10044.1,540.12L10044.1,510.12L9941.12,510.09Z" style="fill:rgb(155,99,38);fill-rule:nonzero;"/>
            <path d="M9914.12,535.09L9914.12,525.09C9914.12,533.37 9910.83,540.09 9919.12,540.09C9916.38,540.09 9914.12,537.833 9914.12,535.09Z" style="fill:rgb(155,99,38);fill-rule:nonzero;"/>
            <path d="M10077.1,462.09L10077.1,274.5C10070,273.43 10063.9,270.73 10060.1,267.11L10060.1,668.11C10060.1,671.08 10058.5,673.813 10055.8,675.19C10057.5,675.786 10059.3,676.09 10061.1,676.09C10069.9,676.09 10077.1,668.88 10077.1,660.11L10077.1,486.11L10140.1,486.11L10140.1,462.11L10077.1,462.09Z" style="fill:rgb(155,99,38);fill-rule:nonzero;"/>
            <path d="M10044.1,319.09L10010.8,319.09C10007.2,321.83 10002.8,323.282 9998.24,323.21C9994.89,323.233 9991.57,322.465 9988.57,320.97C9983.45,326.061 9977.15,329.818 9970.24,331.91C9969.36,335.064 9967.14,337.679 9964.17,339.06C9966.47,341.608 9969.74,343.063 9973.17,343.06L10044.2,343.06L10044.1,319.09Z" style="fill:rgb(155,99,38);fill-rule:nonzero;"/>
            <path d="M10044.1,267.65L10044.1,668.09C10044.1,672.479 10047.7,676.09 10052.1,676.09C10056.5,676.09 10060.1,672.479 10060.1,668.09L10060.1,267.09C10059.2,266.174 10058.3,265.135 10057.6,264C10053.6,265.731 10049.4,266.912 10045.1,267.51L10044.1,267.65Z" style="fill:rgb(119,74,34);fill-rule:nonzero;"/>
            <path d="M10141.1,355.94C10140.8,355.66 10140.5,355.35 10140.1,355.05L10140.1,486.05L10153.1,486.05L10153.1,362C10148.7,360.885 10144.6,358.816 10141.1,355.94Z" style="fill:rgb(119,74,34);fill-rule:nonzero;"/>
            <path d="M9924.07,535.6C9924.07,535.43 9924.12,535.26 9924.12,535.09L9924.12,492.86C9922.12,493.007 9920.12,493.083 9918.12,493.09L9915.89,493.09L9915.89,494L9914.16,493.9L9914.16,535.09C9914.25,537.766 9916.48,539.916 9919.16,539.916C9921.64,539.916 9923.77,538.062 9924.11,535.6L9924.07,535.6Z" style="fill:rgb(119,74,34);fill-rule:nonzero;"/>
            <path d="M9885,464.9C9882.18,467.67 9880.57,470.81 9880.57,474.15C9880.57,484.25 9895.18,492.59 9914.12,493.9L9915.85,494L9915.85,493.05L9918.08,493.05C9920.13,493.05 9922.13,492.973 9924.08,492.82C9929.34,492.461 9934.55,491.515 9939.6,490L9939.6,491.18L9941.12,490.67C9948.38,488.12 9953.87,484.34 9956.45,479.92C9960,483.52 9967,486 9975,486C9986.6,486 9996,480.85 9996,474.5C9995.99,473.531 9995.77,472.575 9995.35,471.7C10008.4,466.33 10017,457.46 10017,447.41C10017,435.7 10005.4,425.58 9988.48,420.76C9991.32,419.43 9993,417.76 9993,416C9992.93,414.873 9992.37,413.831 9991.48,413.14C9988.17,410.14 9979.81,408 9970,408C9967.58,407.995 9965.16,408.132 9962.76,408.41C9963.53,407.437 9963.97,406.24 9964,405C9964,397.82 9948.11,392 9928.5,392C9912.58,392 9899.1,395.84 9894.6,401.13C9893.9,401.046 9893.2,401.003 9892.5,401L9892.48,401C9882.34,401 9874,409.342 9874,419.48C9874,422.089 9874.55,424.67 9875.62,427.05C9859.84,429.1 9848.12,436.67 9848.12,445.71C9848.12,454.75 9859.87,462.34 9875.68,464.37C9878.5,464.73 9881.34,464.911 9884.18,464.91L9885,464.9ZM9916.71,454C9916.74,454.085 9916.77,454.168 9916.81,454.25L9916.45,454.25L9916.71,454Z" style="fill:rgb(10,137,10);fill-rule:nonzero;"/>
            <path d="M9938.78,331.63C9939.52,331.87 9940.27,332.1 9941.03,332.31C9942.42,337.31 9948.41,341.09 9955.58,341.09C9958.56,341.122 9961.51,340.436 9964.17,339.09C9967.14,337.709 9969.36,335.094 9970.24,331.94C9977.15,329.848 9983.45,326.091 9988.57,321C9991.57,322.495 9994.89,323.263 9998.24,323.24C10002.8,323.312 10007.2,321.86 10010.8,319.12C10013.8,316.936 10015.6,313.507 10015.7,309.83C10015.7,303.08 10009.2,297.49 10000.7,296.57C10007.3,293.75 10011.8,288.13 10011.8,281.65C10011.8,272.34 10002.5,264.8 9991.09,264.8C9987.42,264.78 9983.8,265.594 9980.49,267.18C9980.66,266.284 9980.75,265.373 9980.75,264.46C9980.75,254.02 9969.75,245.55 9956.19,245.55C9951.41,245.513 9946.7,246.628 9942.44,248.8C9939.62,244.87 9933.1,242.12 9925.5,242.12C9915.32,242.12 9907.08,247.04 9907.08,253.12L9906.75,253.12C9904.31,253.115 9901.88,253.37 9899.5,253.88C9887.5,256.46 9878.64,265.3 9878.64,275.8C9878.64,282.8 9882.53,288.99 9888.64,293.15C9884.11,296.05 9881.22,300.45 9881.22,305.37C9881.22,313.03 9888.22,319.43 9897.57,320.87C9897.44,321.654 9897.38,322.446 9897.37,323.24C9897.37,333.11 9907.21,341.12 9919.37,341.12C9922.8,341.12 9926.2,340.44 9929.37,339.12C9933.18,337.616 9936.46,335.007 9938.78,331.63Z" style="fill:rgb(8,127,8);fill-rule:nonzero;"/>
            <path d="M10217.6,385.24C10217.6,387.17 10218.9,388.99 10221.1,390.55C10212.3,393.92 10207.1,398.18 10207.1,402.81C10207.1,409.91 10219.4,416.14 10237.7,419.62C10234.7,421.88 10233,424.47 10233,427.22C10233,435.98 10250.5,443.09 10272.1,443.09C10275.1,443.092 10278.1,442.881 10281.1,442.46C10282.1,442.32 10283.1,442.16 10284.1,441.97C10287.2,441.384 10290.2,440.534 10293.1,439.43C10294.1,439.03 10295.1,438.62 10296.1,438.17L10296.2,438.17C10299.3,437.201 10302.3,435.89 10305.1,434.26L10305.1,435.73C10307.5,434.378 10309.4,432.344 10310.6,429.89C10314.8,432.6 10321.1,434.34 10328.3,434.34C10340.8,434.34 10351,428.98 10351,422.34C10351,419.83 10349.5,417.51 10347,415.59C10363.4,414.38 10376.1,405.95 10376.1,395.73C10376.1,384.68 10361.2,375.73 10342.9,375.73C10340.7,375.729 10338.5,375.863 10336.2,376.13C10335.9,374.327 10335,372.694 10333.6,371.54C10329.8,368.1 10322.4,365.54 10313.4,364.74C10313.7,364.059 10314,363.292 10314,362.51C10314,356.71 10302.3,352.01 10288,352.01C10286.8,352.01 10285.6,352.01 10284.4,352.11L10284.1,352.11C10283.4,352.11 10282.6,352.177 10281.9,352.31C10270.5,353.4 10261.9,357.56 10261.9,362.52C10261.9,363.046 10262,363.567 10262.2,364.06C10249.4,364.48 10238.7,368.15 10235,373.06C10234.5,373.753 10234.1,374.544 10233.8,375.39C10224.4,376.91 10217.6,380.74 10217.6,385.24Z" style="fill:rgb(8,127,8);fill-rule:nonzero;"/>
            <path d="M10084,275C10099.5,275 10112,267.61 10112,258.5L10112,258.04C10134.8,255.56 10152.1,242.64 10152.1,227.04C10152.1,212.74 10137.5,200.67 10117.5,196.87C10118,195.335 10118.2,193.733 10118.2,192.12C10118.2,177.18 10096.9,165.12 10070.6,165.12C10063.2,165.094 10055.9,166.104 10048.9,168.12C10044.7,164.5 10037,162.06 10028,162.06C10014.8,162.06 10004,167.43 10004,174.06C10004.1,176.008 10004.9,177.853 10006.3,179.2C9988.69,183.26 9976.14,193.6 9976.14,205.73C9976.14,216.73 9986.45,226.25 10001.5,230.96C9999.92,233.939 9999.07,237.267 9999.05,240.65C9999.05,255.83 10016.3,268.15 10037.6,268.15C10039.8,268.143 10042,268.003 10044.1,267.73L10045.1,267.59C10049.4,266.992 10053.6,265.811 10057.6,264.08C10058.3,265.215 10059.2,266.254 10060.1,267.17C10063.9,270.79 10070,273.49 10077.1,274.56C10079.4,274.871 10081.7,275.018 10084,275Z" style="fill:rgb(8,127,8);fill-rule:nonzero;"/>
            <path d="M9164.36,341.78L9164.36,465.91L9306.36,465.91C9312.94,465.902 9318.34,460.487 9318.34,453.91C9318.34,451.56 9317.65,449.261 9316.36,447.3L9316.36,414.05C9313.54,415.682 9310.54,416.994 9307.43,417.96L9307.36,417.96C9306.36,418.41 9305.36,418.82 9304.36,419.22L9304.36,441.88L9179.36,441.88L9179.36,342.28C9174.39,343.223 9169.26,343.053 9164.36,341.78Z" style="fill:rgb(155,99,38);fill-rule:nonzero;"/>
            <path d="M9304.36,441.91L9304.36,419.25C9301.44,420.354 9298.43,421.204 9295.36,421.79C9294.36,421.98 9293.36,422.14 9292.36,422.28L9292.36,441.91L9304.36,441.91Z" style="fill:rgb(119,74,34);fill-rule:nonzero;"/>
            <path d="M8918.36,232.92C8918.36,226.85 8926.61,221.92 8936.78,221.92C8944.38,221.92 8950.91,224.68 8953.72,228.6C8957.98,226.437 8962.69,225.326 8967.47,225.36C8981.04,225.36 8992.03,233.83 8992.03,244.27C8992.03,245.183 8991.94,246.094 8991.77,246.99C8995.08,245.405 8998.7,244.591 9002.37,244.61C9013.79,244.61 9023.05,252.15 9023.05,261.46C9023.05,267.94 9018.55,273.56 9011.97,276.38C9020.42,277.3 9026.97,282.89 9026.97,289.64C9026.86,293.318 9025.06,296.748 9022.09,298.92L9055.4,298.92L9055.4,247.5C9053.22,247.769 9051.02,247.906 9048.82,247.91C9027.55,247.91 9010.32,235.6 9010.32,220.42C9010.33,217.038 9011.18,213.71 9012.78,210.73C8997.71,206.02 8987.4,196.5 8987.4,185.5C8987.4,173.37 8999.95,163.03 9017.6,158.97C9016.19,157.624 9015.35,155.779 9015.28,153.83C9015.28,147.2 9026.03,141.83 9039.28,141.83C9048.21,141.83 9056,144.27 9060.13,147.89C9067.18,145.873 9074.49,144.863 9081.82,144.89C9108.14,144.89 9129.48,157.01 9129.48,171.95C9129.48,173.562 9129.23,175.163 9128.74,176.7C9148.74,180.5 9163.4,192.57 9163.4,206.87C9163.4,222.45 9146.04,235.37 9123.26,237.87L9123.26,238.33C9123.26,247.44 9110.73,254.83 9095.26,254.83C9092.96,254.829 9090.66,254.662 9088.38,254.33L9088.38,339.84C9102.5,337.986 9116.14,333.469 9128.58,326.53C9134.07,327.348 9139.67,327.253 9145.13,326.25C9146.57,329.54 9148.7,332.482 9151.38,334.88C9151.71,335.18 9152.04,335.49 9152.38,335.77C9155.89,338.624 9159.99,340.673 9164.38,341.77C9169.28,343.043 9174.41,343.213 9179.38,342.27C9189.38,340.39 9197.57,334.16 9200.97,326C9203.67,326.678 9206.45,327.014 9209.24,327C9219.1,327 9227.77,322.72 9232.79,316.25C9250.01,308.45 9261.38,295.02 9261.38,279.76C9261.38,256.82 9235.72,238.03 9203.13,236.28C9226.87,228.47 9243.13,212.7 9243.13,194.51C9243.13,168.57 9210.13,147.51 9169.35,147.51C9159.94,147.482 9150.57,148.655 9141.46,151C9143.6,147.038 9144.73,142.612 9144.76,138.11C9144.76,113.65 9110.47,93.81 9068.17,93.81C9028.58,93.81 8996.01,111.19 8992,133.48C8982.3,129.42 8971.89,127.342 8961.37,127.37C8922.17,127.37 8890.37,155.32 8890.37,189.8C8890.37,206.86 8898.17,222.32 8910.79,233.58C8913.18,233.067 8915.61,232.809 8918.05,232.81L8918.36,232.92Z" style="fill:rgb(4,175,12);fill-rule:nonzero;"/>
            <path d="M9010.22,322.91C9023.87,331.721 9039.27,337.448 9055.36,339.69L9055.36,322.91L9010.22,322.91Z" style="fill:rgb(4,175,12);fill-rule:nonzero;"/>
            <path d="M8975.41,318.89C8972.75,320.236 8969.81,320.922 8966.83,320.89C8959.65,320.89 8953.66,317.13 8952.27,312.12C8951.51,311.91 8950.76,311.68 8950.02,311.44C8947.7,314.816 8944.43,317.428 8940.63,318.94C8949.56,321.962 8958.93,323.483 8968.36,323.44C8972.71,323.441 8977.06,323.127 8981.36,322.5C8979.07,321.905 8977,320.65 8975.41,318.89Z" style="fill:rgb(4,175,12);fill-rule:nonzero;"/>
            <path d="M8952.36,470.46L8950.84,470.98L8950.84,469.8C8945.8,471.336 8940.61,472.305 8935.36,472.69L8935.36,514.91C8935.35,515.084 8935.34,515.258 8935.31,515.43C8935.05,517.955 8932.9,519.898 8930.36,519.91L9055.36,519.91L9055.36,489.91L8952.36,489.91L8952.36,470.46Z" style="fill:rgb(155,99,38);fill-rule:nonzero;"/>
            <path d="M8925.36,514.91L8925.36,504.91C8925.36,513.2 8922.08,519.91 8930.36,519.91C8927.62,519.91 8925.36,517.653 8925.36,514.91Z" style="fill:rgb(155,99,38);fill-rule:nonzero;"/>
            <path d="M9088.36,441.91L9088.36,254.33C9081.19,253.26 9075.13,250.56 9071.36,246.94L9071.36,647.94C9071.36,650.913 9069.7,653.651 9067.07,655.03C9068.77,655.626 9070.56,655.93 9072.36,655.93C9081.13,655.93 9088.35,648.713 9088.36,639.94L9088.36,465.94L9151.36,465.94L9151.36,441.94L9088.36,441.91Z" style="fill:rgb(155,99,38);fill-rule:nonzero;"/>
            <path d="M9055.36,298.91L9022.05,298.91C9018.44,301.659 9014.01,303.114 9009.48,303.04C9006.13,303.064 9002.82,302.297 8999.82,300.8C8994.7,305.891 8988.4,309.648 8981.49,311.74C8980.6,314.893 8978.38,317.506 8975.41,318.89C8977.7,321.448 8980.98,322.906 8984.41,322.89L9055.41,322.89L9055.36,298.91Z" style="fill:rgb(155,99,38);fill-rule:nonzero;"/>
            <path d="M9055.36,647.91C9055.36,652.299 9058.97,655.91 9063.36,655.91C9067.75,655.91 9071.36,652.299 9071.36,647.91L9071.36,246.91C9070.39,245.996 9069.55,244.957 9068.86,243.82C9064.87,245.55 9060.67,246.731 9056.36,247.33L9055.36,247.47L9055.36,647.91Z" style="fill:rgb(119,74,34);fill-rule:nonzero;"/>
            <path d="M9152.36,335.77C9152.02,335.49 9151.69,335.18 9151.36,334.88L9151.36,465.88L9164.36,465.88L9164.36,341.81C9159.97,340.701 9155.87,338.639 9152.36,335.77Z" style="fill:rgb(119,74,34);fill-rule:nonzero;"/>
            <path d="M8935.31,515.43C8935.34,515.258 8935.35,515.084 8935.36,514.91L8935.36,472.69C8933.36,472.837 8931.36,472.91 8929.36,472.91L8927.12,472.91L8927.12,473.86L8925.39,473.76L8925.39,514.94C8925.48,517.619 8927.71,519.774 8930.39,519.774C8932.87,519.774 8935,517.922 8935.34,515.46L8935.31,515.43Z" style="fill:rgb(119,74,34);fill-rule:nonzero;"/>
            <path d="M8925.36,473.73L8927.09,473.83L8927.09,472.88L8929.33,472.88C8931.38,472.88 8933.38,472.807 8935.33,472.66C8940.58,472.275 8945.77,471.306 8950.81,469.77L8950.81,471L8952.33,470.48C8954.6,469.705 8956.79,468.735 8958.89,467.58C8962.89,465.38 8965.89,462.7 8967.67,459.74C8971.19,463.37 8978.17,465.85 8986.21,465.85C8997.81,465.85 9007.21,460.7 9007.21,454.35C9007.2,453.381 9006.98,452.425 9006.56,451.55C9019.65,446.18 9028.21,437.31 9028.21,427.26C9028.21,415.55 9016.58,405.43 8999.69,400.61C9002.53,399.28 9004.21,397.61 9004.21,395.85C9004.21,391.43 8993.92,387.85 8981.21,387.85C8978.79,387.845 8976.37,387.982 8973.97,388.26C8974.75,387.29 8975.18,386.091 8975.21,384.85C8975.21,377.67 8959.32,371.85 8939.71,371.85C8923.79,371.85 8910.32,375.69 8905.82,380.98C8905.12,380.896 8904.42,380.853 8903.71,380.85L8903.67,380.85C8893.54,380.85 8885.21,389.183 8885.21,399.31C8885.21,401.927 8885.76,404.514 8886.84,406.9C8871.05,408.95 8859.33,416.52 8859.33,425.56C8859.33,436.17 8875.48,444.76 8895.39,444.76L8896.21,444.76C8894.14,446.658 8892.68,449.13 8892.02,451.86C8891.87,452.567 8891.8,453.288 8891.79,454.01C8891.82,464.08 8906.42,472.42 8925.36,473.73ZM8927.95,433.84L8928.05,434.09L8927.69,434.09L8927.95,433.84Z" style="fill:rgb(10,137,10);fill-rule:nonzero;"/>
            <path d="M8950,311.46C8950.74,311.7 8951.49,311.93 8952.25,312.14C8953.64,317.14 8959.63,320.91 8966.81,320.91C8969.79,320.942 8972.73,320.256 8975.39,318.91C8978.36,317.526 8980.58,314.913 8981.47,311.76C8988.38,309.668 8994.68,305.911 8999.8,300.82C9002.8,302.317 9006.11,303.084 9009.46,303.06C9013.99,303.134 9018.42,301.679 9022.03,298.93C9025,296.758 9026.8,293.328 9026.91,289.65C9026.91,282.9 9020.4,277.31 9011.91,276.39C9018.49,273.57 9022.99,267.95 9022.99,261.47C9022.99,252.16 9013.73,244.62 9002.31,244.62C8998.64,244.601 8995.02,245.415 8991.71,247C8991.88,246.104 8991.97,245.193 8991.97,244.28C8991.97,233.84 8980.97,225.37 8967.41,225.37C8962.63,225.336 8957.92,226.447 8953.66,228.61C8950.85,224.69 8944.32,221.93 8936.72,221.93C8926.55,221.93 8918.3,226.86 8918.3,232.93L8918,232.93C8915.56,232.929 8913.13,233.187 8910.74,233.7C8898.74,236.28 8889.89,245.12 8889.89,255.62C8889.89,262.62 8893.78,268.81 8899.89,272.97C8895.35,275.87 8892.46,280.27 8892.46,285.18C8892.46,292.85 8899.46,299.25 8908.82,300.69C8908.69,301.473 8908.62,302.266 8908.62,303.06C8908.62,312.93 8918.45,320.93 8930.62,320.93C8934.05,320.93 8937.45,320.25 8940.62,318.93C8944.42,317.424 8947.68,314.824 8950,311.46Z" style="fill:rgb(8,127,8);fill-rule:nonzero;"/>
            <path d="M9304.36,419.25C9305.36,418.85 9306.36,418.44 9307.36,417.99L9307.43,417.99C9310.54,417.024 9313.54,415.712 9316.36,414.08L9316.36,415.55C9319.08,413.8 9321,411.83 9321.87,409.71C9326.03,412.42 9332.39,414.16 9339.52,414.16C9352.06,414.16 9362.22,408.8 9362.22,402.16C9362.22,399.65 9360.76,397.33 9358.27,395.41C9374.66,394.2 9387.36,385.77 9387.36,375.55C9387.36,364.5 9372.51,355.55 9354.19,355.55C9351.96,355.55 9349.73,355.684 9347.52,355.95C9346.91,350.3 9337.29,345.66 9324.65,344.56C9325.03,343.879 9325.24,343.111 9325.24,342.33C9325.24,336.53 9313.6,331.83 9299.24,331.83C9298.03,331.83 9296.84,331.83 9295.67,331.93L9295.36,331.93C9294.64,331.934 9293.93,332.004 9293.22,332.14C9281.77,333.23 9273.22,337.39 9273.22,342.35C9273.22,342.877 9273.32,343.399 9273.51,343.89C9258.71,344.37 9246.82,349.17 9245.1,355.26C9235.59,356.76 9228.82,360.59 9228.82,365.09C9228.82,367.02 9230.08,368.84 9232.27,370.4C9223.55,373.77 9218.34,378.03 9218.34,382.66C9218.34,389.76 9230.58,395.99 9248.95,399.47C9245.95,401.73 9244.18,404.32 9244.18,407.07C9244.18,415.83 9261.69,422.93 9283.29,422.93L9283.34,422.93C9286.35,422.932 9289.36,422.721 9292.34,422.3C9293.34,422.16 9294.34,422 9295.34,421.81C9298.42,421.218 9301.43,420.362 9304.36,419.25Z" style="fill:rgb(8,127,8);fill-rule:nonzero;"/>
            <path d="M9095.24,254.83C9110.71,254.83 9123.24,247.44 9123.24,238.33L9123.24,237.87C9146.02,235.39 9163.38,222.47 9163.38,206.87C9163.38,192.57 9148.74,180.5 9128.72,176.7C9129.21,175.163 9129.45,173.562 9129.46,171.95C9129.46,157.01 9108.12,144.89 9081.8,144.89C9074.47,144.863 9067.16,145.873 9060.11,147.89C9055.98,144.27 9048.19,141.83 9039.26,141.83C9026.01,141.83 9015.26,147.2 9015.26,153.83C9015.34,155.779 9016.17,157.624 9017.58,158.97C8999.93,163.03 8987.38,173.37 8987.38,185.5C8987.38,196.5 8997.69,206.02 9012.76,210.73C9011.16,213.71 9010.31,217.038 9010.3,220.42C9010.3,235.6 9027.53,247.91 9048.8,247.91C9051,247.906 9053.2,247.769 9055.38,247.5L9056.38,247.36C9060.69,246.761 9064.89,245.58 9068.88,243.85C9069.57,244.987 9070.41,246.026 9071.38,246.94C9075.15,250.56 9081.21,253.26 9088.38,254.33C9090.65,254.661 9092.94,254.828 9095.24,254.83Z" style="fill:rgb(8,127,8);fill-rule:nonzero;"/>
            <path d="M7588.64,336.45L7588.64,460.55L7730.64,460.55C7737.22,460.55 7742.64,455.133 7742.64,448.55C7742.64,446.197 7741.95,443.896 7740.64,441.94L7740.64,408.69C7737.82,410.323 7734.82,411.631 7731.71,412.59L7731.64,412.59C7730.64,413.04 7729.64,413.45 7728.64,413.85L7728.64,436.51L7603.64,436.51L7603.64,337C7601.54,337.394 7599.4,337.595 7597.26,337.6C7594.35,337.585 7591.45,337.198 7588.64,336.45Z" style="fill:rgb(155,99,38);fill-rule:nonzero;"/>
            <path d="M7728.64,436.55L7728.64,413.89C7725.72,414.994 7722.71,415.844 7719.64,416.43C7718.64,416.61 7717.64,416.78 7716.64,416.92L7716.64,436.55L7728.64,436.55Z" style="fill:rgb(119,74,34);fill-rule:nonzero;"/>
            <path d="M7342.64,227.56C7342.64,221.49 7350.88,216.56 7361.06,216.56C7368.66,216.56 7375.19,219.32 7378,223.24C7382.26,221.076 7386.97,219.965 7391.75,220C7405.31,220 7416.31,228.47 7416.31,238.91C7416.31,239.823 7416.22,240.734 7416.05,241.63C7419.36,240.044 7422.98,239.23 7426.65,239.25C7438.07,239.25 7447.33,246.79 7447.33,256.09C7447.33,262.57 7442.83,268.2 7436.24,271.01C7444.7,271.94 7451.24,277.53 7451.24,284.28C7451.13,287.954 7449.33,291.378 7446.37,293.56L7479.68,293.56L7479.68,242.14C7477.5,242.409 7475.3,242.546 7473.1,242.55C7451.83,242.55 7434.6,230.24 7434.6,215.06C7434.61,211.677 7435.46,208.349 7437.06,205.37C7421.99,200.66 7411.68,191.14 7411.68,180.14C7411.68,168.01 7424.23,157.67 7441.87,153.61C7440.46,152.263 7439.63,150.418 7439.56,148.47C7439.56,141.84 7450.31,136.47 7463.56,136.47C7472.49,136.47 7480.28,138.91 7484.41,142.53C7491.46,140.513 7498.77,139.503 7506.1,139.53C7532.42,139.53 7553.76,151.65 7553.76,166.59C7553.76,168.202 7553.51,169.803 7553.02,171.34C7573.02,175.14 7587.68,187.21 7587.68,201.51C7587.68,217.08 7570.32,230.01 7547.54,232.51L7547.54,232.97C7547.54,242.08 7535,249.47 7519.54,249.47C7517.24,249.471 7514.94,249.3 7512.66,248.96L7512.66,334.48C7526.78,332.62 7540.42,328.103 7552.86,321.17C7555.32,321.538 7557.8,321.721 7560.28,321.72C7563.34,321.724 7566.4,321.443 7569.41,320.88C7570.85,324.174 7572.98,327.121 7575.66,329.52C7575.99,329.82 7576.31,330.13 7576.66,330.41C7580.18,333.261 7584.27,335.308 7588.66,336.41C7591.48,337.141 7594.37,337.511 7597.28,337.51C7599.42,337.505 7601.56,337.304 7603.66,336.91C7613.66,335.02 7621.84,328.8 7625.24,320.63C7627.94,321.329 7630.73,321.682 7633.52,321.68C7643.37,321.68 7652.04,317.4 7657.07,310.92C7674.28,303.13 7685.66,289.7 7685.66,274.43C7685.66,251.5 7660,232.71 7627.4,230.95C7651.15,223.15 7667.4,207.38 7667.4,189.19C7667.4,163.24 7634.4,142.19 7593.62,142.19C7584.21,142.164 7574.84,143.334 7565.73,145.67C7567.87,141.711 7569,137.288 7569.03,132.79C7569.03,108.33 7534.74,88.49 7492.44,88.49C7452.85,88.49 7420.28,105.87 7416.27,128.15C7406.57,124.099 7396.15,122.025 7385.64,122.05C7346.44,122.05 7314.64,150.05 7314.64,184.47C7314.64,201.54 7322.44,217 7335.06,228.26C7337.44,227.747 7339.87,227.489 7342.31,227.49L7342.64,227.56Z" style="fill:rgb(4,175,12);fill-rule:nonzero;"/>
            <path d="M7434.5,317.55C7448.14,326.364 7463.55,332.088 7479.64,334.32L7479.64,317.55L7434.5,317.55Z" style="fill:rgb(4,175,12);fill-rule:nonzero;"/>
            <path d="M7399.69,313.53C7397.03,314.877 7394.08,315.564 7391.1,315.53C7383.93,315.53 7377.94,311.77 7376.55,306.76C7375.79,306.55 7375.04,306.32 7374.3,306.08C7371.98,309.459 7368.71,312.071 7364.9,313.58C7373.83,316.596 7383.2,318.116 7392.63,318.08C7396.98,318.066 7401.33,317.731 7405.63,317.08C7403.34,316.51 7401.28,315.274 7399.69,313.53Z" style="fill:rgb(4,175,12);fill-rule:nonzero;"/>
            <path d="M7376.64,484.55L7376.64,465.1C7376.14,465.28 7375.64,465.45 7375.12,465.61L7375.12,464.44C7370.08,465.977 7364.89,466.944 7359.64,467.32L7359.64,509.55C7359.64,509.73 7359.64,509.89 7359.59,510.07C7359.33,512.595 7357.18,514.538 7354.64,514.55L7479.64,514.55L7479.64,484.55L7376.64,484.55Z" style="fill:rgb(155,99,38);fill-rule:nonzero;"/>
            <path d="M7349.64,509.55L7349.64,499.55C7349.64,507.84 7346.35,514.55 7354.64,514.55C7351.9,514.55 7349.64,512.293 7349.64,509.55Z" style="fill:rgb(155,99,38);fill-rule:nonzero;"/>
            <path d="M7575.64,460.55L7575.64,436.55L7512.64,436.55L7512.64,249C7505.47,247.94 7499.4,245.24 7495.64,241.62L7495.64,642.62C7495.64,645.593 7493.98,648.331 7491.35,649.71C7493.05,650.306 7494.84,650.61 7496.64,650.61C7505.41,650.61 7512.63,643.393 7512.64,634.62L7512.64,460.62L7575.64,460.55Z" style="fill:rgb(155,99,38);fill-rule:nonzero;"/>
            <path d="M7479.64,293.55L7446.33,293.55C7442.72,296.298 7438.29,297.753 7433.76,297.68C7430.4,297.704 7427.09,296.933 7424.09,295.43C7418.98,300.531 7412.68,304.289 7405.76,306.37C7404.88,309.529 7402.66,312.148 7399.69,313.53C7401.26,315.299 7403.33,316.559 7405.62,317.15C7406.6,317.414 7407.61,317.548 7408.62,317.55L7479.62,317.55L7479.64,293.55Z" style="fill:rgb(155,99,38);fill-rule:nonzero;"/>
            <path d="M7487.64,650.55C7492.03,650.55 7495.64,646.939 7495.64,642.55L7495.64,241.55C7494.67,240.634 7493.83,239.595 7493.13,238.46C7489.15,240.191 7484.94,241.372 7480.64,241.97L7479.64,242.11L7479.64,642.55C7479.64,646.939 7483.25,650.55 7487.64,650.55Z" style="fill:rgb(119,74,34);fill-rule:nonzero;"/>
            <path d="M7575.64,460.55L7588.64,460.55L7588.64,336.45C7584.25,335.348 7580.15,333.301 7576.64,330.45C7576.29,330.17 7575.97,329.86 7575.64,329.56L7575.64,460.56L7575.64,460.55Z" style="fill:rgb(119,74,34);fill-rule:nonzero;"/>
            <path d="M7359.59,510.07C7359.59,509.89 7359.64,509.73 7359.64,509.55L7359.64,467.32C7357.64,467.47 7355.64,467.55 7353.64,467.55L7351.4,467.55L7351.4,468.55L7349.67,468.45L7349.67,509.63C7349.76,512.309 7351.99,514.464 7354.67,514.464C7357.15,514.464 7359.28,512.612 7359.62,510.15L7359.59,510.07Z" style="fill:rgb(119,74,34);fill-rule:nonzero;"/>
            <path d="M7351.37,467.52L7353.61,467.52C7355.61,467.52 7357.67,467.44 7359.61,467.29C7364.86,466.914 7370.05,465.947 7375.09,464.41L7375.09,465.58C7375.6,465.42 7376.09,465.25 7376.61,465.07C7383.87,462.53 7389.36,458.75 7391.94,454.33C7395.47,457.96 7402.45,460.44 7410.49,460.44C7422.09,460.44 7431.49,455.29 7431.49,448.94C7431.48,447.971 7431.26,447.015 7430.84,446.14C7443.93,440.77 7452.49,431.9 7452.49,421.85C7452.49,410.13 7440.85,400.02 7423.97,395.2C7426.81,393.87 7428.49,392.2 7428.49,390.44C7428.49,386.02 7418.19,382.44 7405.49,382.44C7403.07,382.437 7400.65,382.57 7398.25,382.84C7399.02,381.872 7399.46,380.678 7399.49,379.44C7399.49,372.26 7383.6,366.44 7363.99,366.44C7348.07,366.44 7334.59,370.28 7330.09,375.57C7329.39,375.486 7328.69,375.443 7327.99,375.44C7317.85,375.44 7309.51,383.782 7309.51,393.92C7309.51,396.511 7310.06,399.073 7311.11,401.44C7295.33,403.49 7283.61,411.06 7283.61,420.1C7283.61,430.7 7299.75,439.3 7319.67,439.3L7320.49,439.3C7317.67,442.07 7316.06,445.21 7316.06,448.55C7316.06,458.65 7330.67,466.99 7349.61,468.3L7351.34,468.4L7351.37,467.52ZM7352.23,428.52C7352.26,428.609 7352.29,428.696 7352.33,428.78L7351.97,428.78L7352.23,428.52Z" style="fill:rgb(10,137,10);fill-rule:nonzero;"/>
            <path d="M7374.3,306.1C7375.04,306.34 7375.79,306.57 7376.55,306.78C7377.94,311.78 7383.93,315.55 7391.1,315.55C7394.08,315.584 7397.03,314.897 7399.69,313.55C7402.66,312.168 7404.88,309.549 7405.76,306.39C7412.68,304.309 7418.98,300.551 7424.09,295.45C7427.09,296.953 7430.4,297.724 7433.76,297.7C7438.29,297.773 7442.72,296.318 7446.33,293.57C7449.29,291.388 7451.09,287.964 7451.2,284.29C7451.2,277.54 7444.7,271.95 7436.2,271.02C7442.79,268.21 7447.29,262.58 7447.29,256.1C7447.29,246.8 7438.03,239.26 7426.61,239.26C7422.94,239.24 7419.32,240.054 7416.01,241.64C7416.18,240.744 7416.27,239.833 7416.27,238.92C7416.27,228.48 7405.27,220.01 7391.71,220.01C7386.93,219.975 7382.22,221.086 7377.96,223.25C7375.15,219.33 7368.62,216.57 7361.02,216.57C7350.84,216.57 7342.6,221.5 7342.6,227.57L7342.27,227.57C7339.83,227.569 7337.4,227.827 7335.02,228.34C7323.02,230.92 7314.16,239.76 7314.16,250.26C7314.16,257.26 7318.05,263.45 7324.16,267.61C7319.63,270.51 7316.74,274.91 7316.74,279.82C7316.74,287.49 7323.74,293.88 7333.09,295.33C7332.96,296.114 7332.9,296.906 7332.89,297.7C7332.89,307.57 7342.73,315.57 7354.89,315.57C7358.32,315.588 7361.72,314.925 7364.89,313.62C7368.71,312.108 7371.98,309.488 7374.3,306.1Z" style="fill:rgb(8,127,8);fill-rule:nonzero;"/>
            <path d="M7728.64,413.89C7729.64,413.49 7730.64,413.08 7731.64,412.63L7731.71,412.63C7734.82,411.671 7737.82,410.363 7740.64,408.73L7740.64,410.2C7743.02,408.848 7744.94,406.814 7746.15,404.36C7750.31,407.07 7756.67,408.81 7763.8,408.81C7767.2,408.826 7770.58,408.405 7773.87,407.56C7770.58,394.708 7768.94,381.487 7769,368.22L7769,345.92C7765.18,342.53 7757.81,340.01 7748.93,339.24C7749.31,338.556 7749.51,337.79 7749.52,337.01C7749.52,331.21 7737.88,326.51 7723.52,326.51C7722.31,326.51 7721.12,326.51 7719.95,326.61L7719.64,326.61C7718.92,326.615 7718.21,326.682 7717.5,326.81C7706.04,327.91 7697.5,332.07 7697.5,337.03C7697.5,337.556 7697.6,338.077 7697.78,338.57C7682.98,339.05 7671.1,343.85 7669.38,349.94C7659.86,351.44 7653.09,355.27 7653.09,359.76C7653.09,361.7 7654.36,363.52 7656.55,365.07C7647.83,368.44 7642.62,372.7 7642.62,377.34C7642.62,384.44 7654.85,390.67 7673.22,394.15C7670.22,396.41 7668.46,399 7668.46,401.75C7668.46,410.51 7685.97,417.61 7707.56,417.61L7707.62,417.61C7710.63,417.612 7713.64,417.401 7716.62,416.98C7717.62,416.84 7718.62,416.67 7719.62,416.49C7722.7,415.885 7725.71,415.015 7728.64,413.89Z" style="fill:rgb(8,127,8);fill-rule:nonzero;"/>
            <path d="M7519.52,249.47C7534.98,249.47 7547.52,242.08 7547.52,232.97L7547.52,232.51C7570.3,230.03 7587.66,217.1 7587.66,201.51C7587.66,187.21 7573.02,175.14 7553,171.34C7553.49,169.803 7553.74,168.202 7553.74,166.59C7553.74,151.65 7532.4,139.53 7506.08,139.53C7498.74,139.503 7491.44,140.513 7484.39,142.53C7480.26,138.91 7472.47,136.47 7463.54,136.47C7450.29,136.47 7439.54,141.84 7439.54,148.47C7439.61,150.418 7440.44,152.263 7441.85,153.61C7424.21,157.67 7411.66,168.01 7411.66,180.14C7411.66,191.14 7421.97,200.66 7437.04,205.37C7435.44,208.349 7434.59,211.677 7434.58,215.06C7434.58,230.24 7451.81,242.55 7473.08,242.55C7475.28,242.546 7477.48,242.409 7479.66,242.14L7480.66,242C7484.96,241.402 7489.16,240.221 7493.15,238.49C7493.85,239.625 7494.69,240.664 7495.66,241.58C7499.42,245.2 7505.49,247.9 7512.66,248.96C7514.93,249.299 7517.22,249.47 7519.52,249.47Z" style="fill:rgb(8,127,8);fill-rule:nonzero;"/>
            <g transform="matrix(1,0,0,1,-237,-6)">
                <path d="M12680.7,359.82L12680.7,440.89L12786,440.89C12790.9,440.89 12794.9,437.38 12794.9,433.05C12794.9,431.487 12794.4,429.97 12793.4,428.73L12793.4,407C12791.3,408.073 12789.1,408.927 12786.8,409.55C12786.1,409.85 12785.3,410.12 12784.6,410.38L12784.6,425.18L12691.9,425.18L12691.9,360.15C12690.3,360.408 12688.8,360.539 12687.2,360.54C12685,360.551 12682.8,360.309 12680.7,359.82Z" style="fill:rgb(155,99,38);fill-rule:nonzero;"/>
            </g>
            <g transform="matrix(1,0,0,1,-237,-6)">
                <path d="M12784.5,425.21L12784.5,410.41C12782.3,411.132 12780.1,411.684 12777.8,412.06C12777.1,412.19 12776.3,412.3 12775.6,412.39L12775.6,425.21L12784.5,425.21Z" style="fill:rgb(119,74,34);fill-rule:nonzero;"/>
            </g>
            <g transform="matrix(1,0,0,1,-237,-6)">
                <path d="M12498.4,288.69C12498.4,284.69 12504.5,281.51 12512,281.51C12517.6,281.51 12522.5,283.3 12524.6,285.87C12527.8,284.441 12531.2,283.718 12534.8,283.75C12544.8,283.75 12553,289.28 12553,296.1C12553,296.698 12552.9,297.295 12552.8,297.88C12555.3,296.834 12557.9,296.303 12560.6,296.32C12569.1,296.32 12576,301.25 12576,307.32C12576,311.55 12572.6,315.22 12567.7,317.06C12574,317.67 12578.8,321.32 12578.8,325.73C12578.7,328.222 12577.3,330.494 12575.2,331.79L12599.9,331.79L12599.9,298.22C12598.3,298.397 12596.6,298.487 12595,298.49C12579.3,298.49 12566.5,290.49 12566.5,280.49C12566.5,278.253 12567.1,276.063 12568.3,274.16C12557.1,271.08 12549.5,264.86 12549.5,257.68C12549.5,249.76 12558.8,243 12571.9,240.35C12570.9,239.523 12570.2,238.301 12570.2,236.99C12570.2,232.66 12578.2,229.15 12588,229.15C12594.6,229.15 12600.4,230.75 12603.4,233.15C12608.7,231.836 12614.1,231.185 12619.5,231.21C12639,231.21 12654.8,239.12 12654.8,248.88C12654.8,249.938 12654.6,250.987 12654.3,251.98C12669.1,254.47 12680,262.35 12680,271.69C12680,281.87 12667.1,290.31 12650.2,291.93L12650.2,292.23C12650.2,298.18 12640.9,303.01 12629.5,303.01C12627.8,303.009 12626,302.898 12624.4,302.68L12624.4,358.53C12634.7,357.356 12644.8,354.417 12654.1,349.84C12656,350.083 12657.8,350.203 12659.6,350.2C12661.9,350.201 12664.2,350.021 12666.4,349.66C12667.5,351.856 12669.1,353.782 12671.1,355.3L12671.8,355.88C12674.5,357.782 12677.5,359.122 12680.7,359.82C12682.8,360.302 12684.9,360.544 12687.1,360.54C12688.7,360.539 12690.2,360.408 12691.8,360.15C12699.3,358.92 12705.3,354.85 12707.8,349.52C12709.8,349.974 12711.9,350.202 12713.9,350.2C12721.3,350.2 12727.7,347.41 12731.4,343.2C12744.2,338.1 12752.6,329.33 12752.6,319.36C12752.6,304.36 12733.6,292.1 12709.4,290.96C12727,285.86 12739.1,275.56 12739.1,263.68C12739.1,246.68 12714.6,232.99 12684.4,232.99C12677.4,232.972 12670.5,233.733 12663.7,235.26C12665.3,232.731 12666.1,229.823 12666.1,226.85C12666.1,210.85 12640.7,197.91 12609.4,197.91C12580,197.91 12555.9,209.26 12552.9,223.82C12545.6,221.153 12537.9,219.799 12530.2,219.82C12501.1,219.82 12477.6,238.07 12477.6,260.59C12477.6,271.74 12483.4,281.83 12492.7,289.19C12494.5,288.859 12496.3,288.691 12498.1,288.69L12498.4,288.69Z" style="fill:rgb(4,175,12);fill-rule:nonzero;"/>
            </g>
            <g transform="matrix(1,0,0,1,-237,-6)">
                <path d="M12566.4,347.48C12576.8,353.304 12588.1,357.026 12599.9,358.43L12599.9,347.48L12566.4,347.48Z" style="fill:rgb(4,175,12);fill-rule:nonzero;"/>
            </g>
            <g transform="matrix(1,0,0,1,-237,-6)">
                <path d="M12534.3,346.17C12529,346.17 12524.5,343.71 12523.5,340.44C12522.9,340.3 12522.4,340.16 12521.8,340C12520,342.273 12517.6,343.975 12514.8,344.9C12521.5,346.877 12528.4,347.868 12535.4,347.84C12538.6,347.839 12541.8,347.632 12545,347.22C12543.4,346.854 12541.8,346.033 12540.6,344.85C12538.6,345.736 12536.5,346.186 12534.3,346.17Z" style="fill:rgb(4,175,12);fill-rule:nonzero;"/>
            </g>
            <g transform="matrix(1,0,0,1,-237,-6)">
                <path d="M12523.6,456.57L12523.6,443.86L12522.4,444.2L12522.4,443.43C12518.7,444.437 12514.8,445.067 12511,445.31L12511,473.23C12510.6,474.982 12509.1,476.247 12507.3,476.16L12599.9,476.16L12599.9,456.57L12523.6,456.57Z" style="fill:rgb(155,99,38);fill-rule:nonzero;"/>
            </g>
            <g transform="matrix(1,0,0,1,-237,-6)">
                <path d="M12503.5,472.9L12503.5,466.36C12503.5,471.78 12501.1,476.16 12507.3,476.16C12505.3,476.274 12503.7,474.808 12503.5,472.9Z" style="fill:rgb(155,99,38);fill-rule:nonzero;"/>
            </g>
            <g transform="matrix(1,0,0,1,-237,-6)">
                <path d="M12624.4,425.21L12624.4,302.68C12619.1,301.98 12614.6,300.22 12611.8,297.85L12611.8,559.77C12611.7,561.801 12610.5,563.619 12608.6,564.4C12609.8,564.795 12611.2,564.997 12612.5,565C12619.1,565 12624.4,560.32 12624.4,554.55L12624.4,440.89L12671.1,440.89L12671.1,425.21L12624.4,425.21Z" style="fill:rgb(155,99,38);fill-rule:nonzero;"/>
            </g>
            <g transform="matrix(1,0,0,1,-237,-6)">
                <path d="M12599.9,331.8L12575.2,331.8C12572.5,333.624 12569.2,334.566 12565.9,334.5C12563.4,334.522 12561,334.021 12558.7,333.03C12554.8,336.422 12550.2,338.868 12545.1,340.18C12544.4,342.326 12542.8,344.039 12540.6,344.85C12541.9,346.033 12543.4,346.854 12545,347.22C12545.8,347.389 12546.5,347.476 12547.3,347.48L12599.9,347.48L12599.9,331.8Z" style="fill:rgb(155,99,38);fill-rule:nonzero;"/>
            </g>
            <g transform="matrix(1,0,0,1,-237,-6)">
                <path d="M12605.8,565C12606.8,565.003 12607.7,564.798 12608.6,564.4C12610.5,563.619 12611.7,561.801 12611.8,559.77L12611.8,297.85C12611.1,297.269 12610.4,296.596 12609.9,295.85C12606.9,296.992 12603.8,297.764 12600.6,298.15L12599.9,298.24L12599.9,559.77C12599.9,562.66 12602.6,565 12605.8,565Z" style="fill:rgb(119,74,34);fill-rule:nonzero;"/>
            </g>
            <g transform="matrix(1,0,0,1,-237,-6)">
                <path d="M12671.8,355.88L12671.1,355.3L12671.1,440.89L12680.7,440.89L12680.7,359.82C12677.5,359.122 12674.5,357.782 12671.8,355.88Z" style="fill:rgb(119,74,34);fill-rule:nonzero;"/>
            </g>
            <g transform="matrix(1,0,0,1,-237,-6)">
                <path d="M12510.9,473.23L12510.9,445.31C12509.5,445.41 12508,445.46 12506.4,445.46L12504.8,445.46L12504.8,446.08L12503.5,446.01L12503.5,472.9C12503.8,474.748 12505.4,476.14 12507.2,476.14C12509,476.14 12510.5,474.927 12510.9,473.23Z" style="fill:rgb(119,74,34);fill-rule:nonzero;"/>
            </g>
            <g transform="matrix(1,0,0,1,-237,-6)">
                <path d="M12504.8,445.44L12506.5,445.44C12508,445.44 12509.5,445.39 12511,445.29C12514.8,445.047 12518.7,444.417 12522.4,443.41L12522.4,444.18L12523.6,443.84C12528.9,442.18 12533,439.71 12534.9,436.84C12537.5,439.22 12542.7,440.84 12548.7,440.84C12557.3,440.84 12564.2,437.48 12564.2,433.33C12564.2,432.689 12564.1,432.061 12563.8,431.5C12573.5,428 12579.8,422.2 12579.8,415.64C12579.8,407.99 12571.1,401.38 12558.6,398.23C12560.7,397.36 12562,396.23 12562,395.12C12562,392.23 12554.3,389.89 12544.9,389.89C12543.1,389.89 12541.3,389.98 12539.6,390.16C12540.1,389.549 12540.4,388.758 12540.5,387.93C12540.5,383.24 12528.7,379.44 12514.1,379.44C12502.4,379.44 12492.4,381.95 12489,385.44C12488.5,385.39 12488,385.36 12487.5,385.36C12479.9,385.36 12473.8,390.77 12473.8,397.44C12473.8,399.159 12474.2,400.853 12475,402.38C12463.3,403.72 12454.6,408.66 12454.6,414.57C12454.6,421.49 12466.6,427.11 12481.3,427.11L12481.9,427.11C12479.8,428.92 12478.6,430.97 12478.6,433.11C12478.6,439.71 12489.5,445.16 12503.5,446.01L12504.8,446.08L12504.8,445.44ZM12505.5,419.94L12505.5,420.1L12505.3,420.1L12505.5,419.94Z" style="fill:rgb(10,137,10);fill-rule:nonzero;"/>
            </g>
            <g transform="matrix(1,0,0,1,-237,-6)">
                <path d="M12521.8,340C12522.4,340.16 12522.9,340.3 12523.5,340.44C12524.5,343.71 12529,346.17 12534.3,346.17C12536.5,346.191 12538.6,345.74 12540.6,344.85C12542.8,344.039 12544.4,342.326 12545.1,340.18C12550.2,338.868 12554.8,336.422 12558.7,333.03C12561,334.021 12563.4,334.522 12565.9,334.5C12569.2,334.566 12572.5,333.624 12575.2,331.8C12577.3,330.504 12578.7,328.232 12578.8,325.74C12578.8,321.33 12574,317.68 12567.7,317.07C12572.6,315.23 12576,311.56 12576,307.33C12576,301.25 12569.1,296.33 12560.6,296.33C12557.9,296.313 12555.3,296.844 12552.8,297.89C12552.9,297.305 12553,296.708 12553,296.11C12553,289.29 12544.8,283.76 12534.8,283.76C12531.2,283.728 12527.8,284.451 12524.6,285.88C12522.5,283.31 12517.6,281.52 12512,281.52C12504.5,281.52 12498.4,284.73 12498.4,288.7L12498.1,288.7C12496.3,288.701 12494.5,288.869 12492.7,289.2C12483.8,290.89 12477.3,296.66 12477.3,303.52C12477.3,308.07 12480.2,312.14 12484.7,314.85C12481.3,316.75 12479.2,319.62 12479.2,322.85C12479.2,327.85 12484.4,332.04 12491.3,332.98C12491.2,333.492 12491.2,334.01 12491.2,334.53C12491.2,340.98 12498.5,346.2 12507.5,346.2C12510,346.211 12512.5,345.781 12514.9,344.93C12517.6,343.991 12520,342.279 12521.8,340Z" style="fill:rgb(8,127,8);fill-rule:nonzero;"/>
            </g>
            <g transform="matrix(1,0,0,1,-237,-6)">
                <path d="M12784.5,410.41C12785.2,410.15 12786,409.88 12786.7,409.58C12789,408.957 12791.2,408.103 12793.3,407.03L12793.3,408.03C12795,407.203 12796.5,405.874 12797.4,404.22C12800.5,405.99 12805.2,407.12 12810.5,407.12C12819.8,407.12 12827.3,403.62 12827.3,399.31C12827.3,397.67 12826.2,396.16 12824.4,394.9C12836.5,394.11 12846,388.61 12846,381.9C12846,374.68 12835,368.82 12821.4,368.82C12819.7,368.823 12818.1,368.913 12816.4,369.09C12816,365.4 12808.8,362.37 12799.4,361.65C12799.7,361.215 12799.9,360.709 12799.9,360.19C12799.9,356.4 12791.2,353.33 12780.6,353.33C12779.7,353.33 12778.8,353.33 12778,353.4L12777.7,353.4C12777.2,353.402 12776.7,353.446 12776.1,353.53C12767.6,354.25 12761.3,356.96 12761.3,360.2C12761.3,360.544 12761.4,360.884 12761.5,361.2C12750.5,361.51 12741.8,364.65 12740.5,368.63C12733.5,369.63 12728.4,372.11 12728.4,375.04C12728.4,376.31 12729.3,377.49 12731,378.51C12724.5,380.71 12720.6,383.51 12720.6,386.51C12720.6,391.15 12729.7,395.22 12743.3,397.51C12741.1,398.98 12739.8,400.67 12739.8,402.51C12739.8,408.23 12752.8,412.87 12768.8,412.87C12771,412.873 12773.2,412.736 12775.5,412.46C12776.2,412.37 12777,412.26 12777.7,412.13C12780,411.737 12782.3,411.162 12784.5,410.41Z" style="fill:rgb(8,127,8);fill-rule:nonzero;"/>
            </g>
            <g transform="matrix(1,0,0,1,-237,-6)">
                <path d="M12629.5,303C12640.9,303 12650.2,298.17 12650.2,292.22L12650.2,291.92C12667.1,290.3 12680,281.86 12680,271.68C12680,262.34 12669.1,254.46 12654.3,251.97C12654.6,250.977 12654.8,249.928 12654.8,248.87C12654.8,239.11 12639,231.2 12619.5,231.2C12614.1,231.175 12608.7,231.826 12603.4,233.14C12600.4,230.78 12594.6,229.14 12588,229.14C12578.1,229.14 12570.2,232.65 12570.2,236.98C12570.2,238.291 12570.9,239.513 12571.9,240.34C12558.8,242.99 12549.5,249.75 12549.5,257.67C12549.5,264.85 12557.1,271.07 12568.3,274.15C12567.1,276.053 12566.5,278.243 12566.5,280.48C12566.5,290.4 12579.3,298.48 12595,298.48C12596.7,298.477 12598.3,298.387 12599.9,298.21L12600.6,298.12C12603.8,297.734 12606.9,296.962 12609.9,295.82C12610.4,296.566 12611.1,297.239 12611.8,297.82C12614.6,300.19 12619.1,301.95 12624.4,302.65C12626.1,302.875 12627.8,302.992 12629.5,303Z" style="fill:rgb(8,127,8);fill-rule:nonzero;"/>
            </g>
            <path d="M8614.43,438L8629.12,438L8629.12,352.68C8624.4,354.427 8619.45,355.458 8614.43,355.74L8614.43,438Z" style="fill:rgb(181,135,42);fill-rule:nonzero;"/>
            <path d="M8601.92,438L8614.4,438L8614.4,355.74C8613.4,355.8 8612.4,355.83 8611.47,355.83C8608.26,355.828 8605.07,355.524 8601.92,354.92L8601.92,438Z" style="fill:rgb(153,104,19);fill-rule:nonzero;"/>
            <path d="M8560.84,305.17C8560.84,311.656 8562.08,318.083 8564.5,324.1C8562.03,315.389 8560.8,306.374 8560.84,297.32L8560.84,305.17Z" style="fill:rgb(6,204,11);fill-rule:nonzero;"/>
            <path d="M8560.84,199.84L8560.84,206.84C8560.81,198.806 8561.77,190.799 8563.7,183C8561.8,188.41 8560.83,194.105 8560.84,199.84Z" style="fill:rgb(6,204,11);fill-rule:nonzero;"/>
            <path d="M8614.43,355.74C8641.09,354.231 8662.19,331.868 8662.16,305.17L8662.16,199.83C8662.16,172.044 8639.3,149.18 8611.51,149.18C8607.58,149.18 8603.67,149.636 8599.85,150.54C8614.24,156.23 8625.01,179.28 8625.01,206.86L8625.01,297.32C8625.01,314.32 8620.93,329.56 8614.43,340.12C8610.9,345.86 8606.65,350.2 8601.95,352.67C8600.83,353.262 8599.67,353.751 8598.46,354.13C8599.61,354.44 8600.77,354.7 8601.95,354.92C8605.1,355.524 8608.3,355.828 8611.5,355.83C8612.48,355.83 8613.46,355.8 8614.43,355.74Z" style="fill:rgb(6,204,11);fill-rule:nonzero;"/>
            <path d="M8614.43,340.12C8620.93,329.56 8625.01,314.3 8625.01,297.32L8625.01,206.86C8625.01,179.28 8614.24,156.23 8599.85,150.54C8597.65,149.653 8595.3,149.191 8592.92,149.18C8579.92,149.18 8568.75,163.06 8563.7,183.03C8561.77,190.826 8560.81,198.83 8560.84,206.86L8560.84,297.32C8560.8,306.374 8562.03,315.389 8564.5,324.1C8569.87,342.47 8580.58,355 8592.92,355C8594.8,354.992 8596.67,354.698 8598.46,354.13C8599.67,353.751 8600.83,353.262 8601.95,352.67C8606.65,350.2 8610.9,345.86 8614.43,340.12Z" style="fill:rgb(10,124,13);fill-rule:nonzero;"/>
            <path d="M8785.87,323.19L8785.87,472.86L8800.56,472.86L8800.56,323.12C8795.69,323.869 8790.74,323.893 8785.87,323.19Z" style="fill:rgb(181,135,42);fill-rule:nonzero;"/>
            <path d="M8773.39,472.86L8785.87,472.86L8785.87,323.19C8784.97,323.07 8784.07,322.92 8783.18,322.75C8782.4,322.82 8781.61,322.87 8780.82,322.87C8778.3,322.865 8775.8,322.498 8773.39,321.78L8773.39,472.86Z" style="fill:rgb(153,104,19);fill-rule:nonzero;"/>
            <path d="M8742.27,273C8742.26,282.675 8745.04,292.15 8750.27,300.29C8744.88,289.369 8742.14,277.329 8742.27,265.15L8742.27,273Z" style="fill:rgb(6,204,11);fill-rule:nonzero;"/>
            <path d="M8742.27,167.7L8742.27,174.7C8742.19,163.989 8744.28,153.372 8748.41,143.49C8744.37,150.918 8742.26,159.244 8742.27,167.7Z" style="fill:rgb(6,204,11);fill-rule:nonzero;"/>
            <path d="M8819.37,174.72L8819.37,265.18C8819.37,286.24 8811.82,304.66 8800.56,314.73C8796.44,318.555 8791.37,321.192 8785.87,322.36C8784.98,322.535 8784.08,322.666 8783.18,322.75C8784.07,322.92 8784.97,323.07 8785.87,323.19C8790.74,323.893 8795.69,323.869 8800.56,323.12C8825.19,319.349 8843.56,297.945 8843.56,273.03L8843.56,167.66C8843.56,139.884 8820.72,117.022 8792.94,117C8790.57,117.004 8788.2,117.171 8785.85,117.5C8804.76,121.23 8819.37,145.41 8819.37,174.72Z" style="fill:rgb(6,204,11);fill-rule:nonzero;"/>
            <path d="M8783.18,322.75C8784.08,322.666 8784.98,322.535 8785.87,322.36C8791.37,321.192 8796.44,318.555 8800.56,314.73C8811.82,304.66 8819.37,286.24 8819.37,265.18L8819.37,174.72C8819.37,145.41 8804.76,121.23 8785.85,117.54C8784.2,117.214 8782.53,117.047 8780.85,117.04C8767.25,117.04 8755.3,127.59 8748.44,143.51C8744.31,153.392 8742.22,164.009 8742.3,174.72L8742.3,265.18C8742.17,277.359 8744.91,289.399 8750.3,300.32C8755.91,311.23 8764.06,319.04 8773.43,321.78C8775.84,322.498 8778.34,322.865 8780.86,322.87C8781.61,322.87 8782.4,322.82 8783.18,322.75Z" style="fill:rgb(10,124,13);fill-rule:nonzero;"/>
            <path d="M7832.48,457.11L7832.48,582L7849.87,582L7849.87,453.58C7844.75,455.89 7839.2,457.093 7833.59,457.11L7832.48,457.11Z" style="fill:rgb(181,135,42);fill-rule:nonzero;"/>
            <path d="M7824.41,457.11C7822.16,457.104 7819.91,456.899 7817.7,456.5L7817.7,582L7832.48,582L7832.48,457.11L7824.41,457.11Z" style="fill:rgb(153,104,19);fill-rule:nonzero;"/>
            <path d="M7769,223.39L7769,230.67C7768.9,215.456 7771.07,200.312 7775.45,185.74C7771.12,197.818 7768.94,210.56 7769,223.39Z" style="fill:rgb(6,204,11);fill-rule:nonzero;"/>
            <path d="M7776.74,417C7777.24,418.736 7777.88,420.428 7778.65,422.06C7778,420.41 7777.35,418.71 7776.74,417Z" style="fill:rgb(6,204,11);fill-rule:nonzero;"/>
            <path d="M7860.3,230.67L7860.3,368.18C7860.3,389.37 7856.39,408.81 7849.87,423.97C7845.23,434.75 7839.28,443.37 7832.48,448.91C7828.29,452.503 7823.16,454.834 7817.7,455.63C7816.71,455.767 7815.7,455.841 7814.7,455.85C7815.7,456.11 7816.7,456.33 7817.7,456.5C7819.91,456.899 7822.16,457.104 7824.41,457.11L7833.59,457.11C7839.2,457.093 7844.75,455.89 7849.87,453.58C7872.53,443.49 7889,412.9 7889,376.73L7889,223.39C7889,178.99 7864.19,143 7833.59,143L7824.41,143C7822.58,143.002 7820.74,143.136 7818.93,143.4C7842.13,147.54 7860.3,185 7860.3,230.67Z" style="fill:rgb(6,204,11);fill-rule:nonzero;"/>
            <path d="M7773.87,407.52C7774.73,410.8 7775.69,413.953 7776.74,416.98C7777.35,418.71 7777.98,420.41 7778.65,422.04C7787,442.61 7800.02,455.85 7814.65,455.85C7815.65,455.841 7816.66,455.767 7817.65,455.63C7823.11,454.834 7828.24,452.503 7832.43,448.91C7839.23,443.37 7845.18,434.75 7849.82,423.97C7856.34,408.81 7860.25,389.37 7860.25,368.18L7860.25,230.67C7860.25,185.02 7842.08,147.54 7818.88,143.4C7817.47,143.137 7816.04,143.003 7814.6,143C7797.94,143 7783.37,160.15 7775.4,185.74C7771.02,200.312 7768.85,215.456 7768.95,230.67L7768.95,368.18C7768.91,381.449 7770.56,394.67 7773.87,407.52Z" style="fill:rgb(10,124,13);fill-rule:nonzero;"/>
            <path d="M8699.14,418.76L8699.14,485L8708.32,485L8708.32,416.88C8705.62,418.111 8702.69,418.752 8699.72,418.76L8699.14,418.76Z" style="fill:rgb(181,135,42);fill-rule:nonzero;"/>
            <path d="M8691.33,485L8699.14,485L8699.14,418.76L8694.87,418.76C8693.68,418.755 8692.5,418.647 8691.33,418.44L8691.33,485Z" style="fill:rgb(153,104,19);fill-rule:nonzero;"/>
            <path d="M8665.6,376.12C8665.59,381.13 8666.2,386.123 8667.43,390.98C8666.19,384.592 8665.58,378.098 8665.6,371.59L8665.6,376.12Z" style="fill:rgb(6,204,11);fill-rule:nonzero;"/>
            <path d="M8694.87,418.76L8699.72,418.76C8702.69,418.752 8705.62,418.111 8708.32,416.88C8720.32,411.53 8729,395.31 8729,376.12L8729,294.79C8729,271.24 8715.89,252.15 8699.72,252.15L8694.87,252.15C8692.99,252.152 8691.13,252.414 8689.32,252.93C8698.67,256.93 8705.75,275.85 8705.75,298.65L8705.75,371.59C8705.75,385.27 8703.2,397.59 8699.14,406.09C8696.92,410.72 8694.26,414.22 8691.33,416.21C8690.41,416.845 8689.4,417.337 8688.33,417.67C8689.31,418 8690.31,418.257 8691.33,418.44C8692.5,418.647 8693.68,418.755 8694.87,418.76Z" style="fill:rgb(6,204,11);fill-rule:nonzero;"/>
            <path d="M8665.6,294.79L8665.6,298.65C8665.59,293.155 8666.01,287.667 8666.88,282.24C8666.02,286.368 8665.59,290.574 8665.6,294.79Z" style="fill:rgb(6,204,11);fill-rule:nonzero;"/>
            <path d="M8699.14,406.09C8703.2,397.58 8705.75,385.27 8705.75,371.59L8705.75,298.65C8705.75,275.85 8698.67,256.9 8689.32,252.93C8688.17,252.423 8686.93,252.157 8685.67,252.15C8677.08,252.15 8669.75,264.66 8666.88,282.24C8666.01,287.667 8665.59,293.155 8665.6,298.65L8665.6,371.59C8665.58,378.098 8666.19,384.592 8667.43,390.98C8670.6,406.98 8677.57,418.09 8685.67,418.09C8686.57,418.086 8687.46,417.944 8688.32,417.67C8689.39,417.337 8690.4,416.845 8691.32,416.21C8694.26,414.22 8696.92,410.72 8699.14,406.09Z" style="fill:rgb(10,124,13);fill-rule:nonzero;"/>
            <g transform="matrix(1,0,0,1,-244,-31)">
                <path d="M8763.27,552.38C8762.97,552.379 8762.68,552.506 8762.47,552.73L8762.91,557.05C8763.01,557.514 8763.44,557.835 8763.91,557.79L8783.23,557.79C8783.27,557.796 8783.31,557.798 8783.35,557.798C8783.83,557.798 8784.23,557.401 8784.23,556.918L8784.23,556.87L8783.58,552.98C8783.58,552.88 8783.52,552.67 8783.48,552.39L8763.33,552.39L8763.27,552.38Z" style="fill:rgb(77,81,81);fill-rule:nonzero;"/>
            </g>
            <g transform="matrix(1,0,0,1,-244,-31)">
                <path d="M8823.56,554.51C8823.56,553.9 8819.56,552.92 8819.02,552.92L8800.02,552.92C8799.8,552.92 8799.59,552.99 8799.42,553.12L8799.3,555.01C8799.36,556.559 8800.65,557.802 8802.2,557.802C8802.28,557.802 8802.37,557.798 8802.46,557.79L8818.68,557.79C8818.91,557.8 8819.13,557.733 8819.31,557.6L8823.5,554.6L8823.56,554.51Z" style="fill:rgb(77,81,81);fill-rule:nonzero;"/>
            </g>
            <g transform="matrix(1,0,0,1,-244,-31)">
                <path d="M8751.91,546.62L8751.06,552.62L8751,553.04L8742.33,553.2C8741.49,553.242 8740.73,553.725 8740.33,554.47L8740.1,553.55C8740.05,553.722 8740.02,553.9 8740.02,554.08C8740.02,555.177 8740.92,556.08 8742.02,556.08L8751.02,556.08C8751.58,556.076 8752.11,555.836 8752.49,555.42L8752.65,555.75L8755.87,555.75C8757.3,555.75 8758.34,554.62 8757.98,553.47C8757.17,550.93 8755.86,546.83 8754.86,544.09L8753.59,544.09C8753.1,544.65 8752.51,545.59 8751.91,546.62Z" style="fill:rgb(77,81,81);fill-rule:nonzero;"/>
            </g>
            <g transform="matrix(1,0,0,1,-244,-31)">
                <path d="M8815.31,489.35C8815.06,488.724 8814.43,488.322 8813.76,488.35C8813.25,488.337 8812.76,488.554 8812.42,488.94C8811.88,489.61 8810.98,490.74 8810.13,491.83L8809.77,492.29C8809.12,493.051 8808.54,493.868 8808.03,494.73C8808.62,495.948 8809.29,497.127 8810.03,498.26C8811.03,499.91 8812.03,501.5 8812.03,501.5L8814.81,497.15L8815.74,495.7L8816.37,492.91C8816.39,492.777 8816.39,492.643 8816.37,492.51C8816.38,492.443 8816.38,492.377 8816.37,492.31L8815.31,489.35Z" style="fill:rgb(80,84,83);fill-rule:nonzero;"/>
            </g>
            <g transform="matrix(1,0,0,1,-244,-31)">
                <path d="M8853.38,499L8855.68,498.31C8855.83,498.267 8855.97,498.203 8856.1,498.12C8856.35,497.974 8856.55,497.758 8856.68,497.5L8857.47,495.79L8858.1,494.43C8858.14,494.325 8858.17,494.213 8858.17,494.1C8858.19,493.984 8858.19,493.866 8858.17,493.75C8858.16,493.651 8858.14,493.554 8858.11,493.46L8857.8,492.75L8857.27,491.57C8857.11,491.221 8856.82,490.948 8856.46,490.81C8856.22,490.706 8855.95,490.652 8855.69,490.65C8855.46,490.653 8855.24,490.697 8855.03,490.78C8854.85,490.835 8854.69,490.919 8854.54,491.03L8853.73,491.65L8853.09,492.15C8853.05,492.178 8853.01,492.212 8852.98,492.25C8852.85,492.366 8852.75,492.505 8852.67,492.66L8851.24,495.66C8851.17,495.816 8851.13,495.987 8851.13,496.16L8851.13,496.57C8851.71,496.636 8852.17,497.085 8852.26,497.66L8852.34,499.01C8852.51,499.051 8852.68,499.068 8852.85,499.06C8853.03,499.065 8853.21,499.045 8853.38,499Z" style="fill:rgb(80,84,83);fill-rule:nonzero;"/>
            </g>
            <g transform="matrix(1,0,0,1,-244,-31)">
                <path d="M8869.18,490.62L8866.56,500.41C8866.5,500.602 8866.4,500.777 8866.26,500.92L8860.41,506.66C8860.3,506.772 8860.17,506.864 8860.02,506.93L8855.02,509.24C8854.81,509.356 8854.57,509.417 8854.32,509.417C8853.63,509.417 8853.02,508.922 8852.89,508.24L8852.51,502.1L8852.31,499.02L8852.23,497.67C8852.14,497.095 8851.68,496.646 8851.1,496.58C8850.98,496.565 8850.87,496.565 8850.75,496.58C8850.38,496.576 8850.03,496.708 8849.75,496.95L8839.63,505.8C8839.45,505.952 8839.3,506.131 8839.17,506.33C8839.05,506.504 8838.95,506.696 8838.89,506.9C8838.84,507.091 8838.82,507.287 8838.82,507.483C8838.82,508.66 8839.66,509.68 8840.82,509.9L8846.42,511.57C8846.59,511.623 8846.75,511.705 8846.89,511.81C8846.96,511.861 8847.02,511.918 8847.08,511.98C8847.3,512.203 8847.4,512.514 8847.35,512.82C8847.34,512.899 8847.32,512.976 8847.29,513.05L8846.95,513.89C8846.84,514.139 8846.84,514.421 8846.95,514.67C8847.06,514.919 8846.95,514.73 8846.95,514.76L8847.78,516.21L8851.92,523.48C8852.14,523.836 8852.51,524.075 8852.92,524.13L8859.1,525.13L8861.17,525.46C8861.34,525.48 8861.51,525.48 8861.68,525.46C8861.85,525.431 8862.01,525.381 8862.16,525.31C8862.41,525.2 8862.61,525.009 8862.74,524.77L8864.88,520.77C8864.91,520.719 8864.93,520.665 8864.95,520.61L8871.83,499.89C8871.84,499.787 8871.84,499.683 8871.83,499.58L8871.83,490.91C8871.83,490.734 8871.78,490.561 8871.69,490.41C8871.4,490.056 8870.97,489.851 8870.51,489.851C8869.96,489.851 8869.45,490.145 8869.18,490.62Z" style="fill:rgb(57,66,64);fill-rule:nonzero;"/>
            </g>
            <g transform="matrix(1,0,0,1,-244,-31)">
                <path d="M8861.18,532.86L8856.66,532.86L8856.13,532.76L8838.07,532.76C8837.88,532.745 8837.68,532.745 8837.49,532.76C8836.93,532.827 8836.38,533.007 8835.89,533.29L8830.52,536.58L8829.18,537.4C8828.23,537.807 8827.61,538.747 8827.61,539.781C8827.61,540.301 8827.77,540.81 8828.06,541.24L8828.06,541.3C8828.17,541.456 8828.28,541.603 8828.41,541.74C8828.49,541.828 8828.58,541.908 8828.67,541.98C8828.83,542.127 8829,542.264 8829.17,542.39C8829.3,542.47 8829.41,542.56 8829.55,542.63C8829.87,542.811 8830.2,542.955 8830.55,543.06L8838.31,545.65C8838.95,545.861 8839.64,545.923 8840.31,545.83L8857.12,543.64C8858.22,543.508 8859.21,542.938 8859.88,542.06L8862.15,538.96C8862.77,538.078 8863.11,537.036 8863.15,535.96C8863.38,534.581 8862.53,533.233 8861.18,532.86Z" style="fill:rgb(57,66,64);fill-rule:nonzero;"/>
            </g>
            <g transform="matrix(1,0,0,1,-244,-31)">
                <path d="M8828.71,541.91C8828.62,541.838 8828.53,541.758 8828.45,541.67L8813.78,536.67C8812.19,536.196 8810.94,534.944 8810.47,533.35L8808.18,524.07L8805.63,514.72C8805.26,513.345 8805.47,511.876 8806.21,510.66L8806.95,509.4C8808.75,506.424 8808.44,502.605 8806.18,499.96L8806.04,499.79C8806.03,499.767 8806.03,499.743 8806.04,499.72L8804.38,496.72C8803.92,495.91 8803.88,494.923 8804.28,494.08L8805.75,490.93C8805.96,490.489 8806.24,490.087 8806.58,489.74L8809.74,486.44C8810.35,485.832 8811.13,485.418 8811.98,485.25L8813.45,484.95C8814.68,484.69 8815.97,484.89 8817.06,485.51L8818.34,486.27C8819.15,486.666 8819.66,487.49 8819.66,488.387C8819.66,488.76 8819.57,489.128 8819.4,489.46L8817.95,492.16C8817.68,492.65 8818.5,493.04 8818.88,492.6C8818.98,492.502 8819.1,492.438 8819.24,492.42L8825.73,491.62L8825.87,491.62L8831.02,492.13C8831.29,491.855 8831.29,491.405 8831.02,491.13L8829.55,489.56C8829.4,489.4 8829.2,489.294 8828.98,489.26L8824.98,488.57C8824.8,488.535 8824.63,488.456 8824.48,488.34L8820.04,484.53C8818.24,483.009 8816.19,481.818 8813.98,481.01L8809.9,479.49C8809.13,479.207 8808.33,479 8807.51,478.87L8802.51,478.07C8800.86,477.806 8799.17,478.139 8797.75,479.01L8796.43,479.85C8794.57,481.022 8792.9,482.48 8791.49,484.17L8790.49,485.4C8789.85,486.147 8789.02,486.701 8788.08,487L8784.08,488.3C8782.54,488.802 8780.85,488.577 8779.49,487.69L8773.9,483.85C8772.74,483.064 8771.46,482.489 8770.1,482.15L8768.74,481.81C8768.42,481.727 8768.08,481.789 8767.81,481.98L8765.07,483.98C8764.82,484.153 8764.52,484.222 8764.22,484.17L8763.09,483.96C8761.28,483.63 8759.42,483.908 8757.79,484.75L8751.17,488.24L8751.04,488.3L8743.15,491.18C8742.22,491.513 8741.32,491.931 8740.46,492.43L8734.62,495.81C8733.64,496.371 8732.82,497.182 8732.25,498.16L8731.78,499.02C8731.08,500.265 8730.6,501.616 8730.34,503.02L8729.08,510.11L8729.08,518.29C8729.08,520.925 8729.77,523.514 8731.08,525.8L8733.7,530.41C8733.72,530.455 8733.74,530.502 8733.76,530.55L8737.02,541.14L8740.13,553.5L8740.36,554.42C8740.76,553.675 8741.52,553.192 8742.36,553.15L8751,553L8751.06,552.58L8751.91,546.58C8752.51,545.58 8753.1,544.58 8753.57,543.96L8760.84,543.96C8761.25,543.982 8761.59,544.287 8761.66,544.69L8762.48,552.69C8762.68,552.466 8762.98,552.339 8763.28,552.34L8783.43,552.34C8783.28,551.34 8783.05,549.66 8783.43,549.62L8798.73,549.23C8799.33,549.17 8799.5,550.97 8799.46,551.47L8799.36,553.07C8799.53,552.94 8799.74,552.87 8799.96,552.87L8818.96,552.87C8819.52,552.87 8823.46,553.87 8823.5,554.46L8823.44,554.54L8825.44,553.09C8825.62,552.966 8825.74,552.775 8825.78,552.56L8826.64,545.7C8826.67,545.522 8826.76,545.359 8826.89,545.24L8829.27,543.05C8829.44,542.906 8829.53,542.691 8829.52,542.47C8829.38,542.4 8829.27,542.31 8829.14,542.23C8828.99,542.131 8828.85,542.024 8828.71,541.91Z" style="fill:rgb(111,119,117);fill-rule:nonzero;"/>
            </g>
            <g transform="matrix(1,0,0,1,-244,-31)">
                <path d="M8861.29,525.43L8859.22,525.1L8853.04,524.1C8852.63,524.045 8852.26,523.806 8852.04,523.45L8847.9,516.18L8847.07,514.73L8847.07,514.64C8846.96,514.391 8846.96,514.109 8847.07,513.86L8847.41,513.02C8847.44,512.946 8847.46,512.869 8847.47,512.79C8847.51,512.484 8847.42,512.173 8847.2,511.95C8847.14,511.888 8847.08,511.831 8847.01,511.78C8846.87,511.675 8846.71,511.593 8846.54,511.54L8840.94,509.87C8839.78,509.65 8838.94,508.63 8838.94,507.453C8838.94,507.257 8838.96,507.061 8839.01,506.87C8839.07,506.666 8839.17,506.474 8839.29,506.3C8839.42,506.101 8839.57,505.922 8839.75,505.77L8849.87,496.92C8850.15,496.678 8850.5,496.546 8850.87,496.55C8850.99,496.535 8851.1,496.535 8851.22,496.55L8851.22,496.14C8851.22,495.967 8851.26,495.796 8851.33,495.64L8852.76,492.64C8852.84,492.485 8852.94,492.346 8853.07,492.23C8853.1,492.192 8853.14,492.158 8853.18,492.13L8853.82,491.63L8854.63,491.01C8854.78,490.899 8854.94,490.815 8855.12,490.76C8855.33,490.677 8855.55,490.633 8855.78,490.63C8856.05,490.632 8856.31,490.686 8856.55,490.79C8856.91,490.928 8857.2,491.201 8857.36,491.55L8857.89,492.73L8858.2,493.44C8858.23,493.534 8858.25,493.631 8858.26,493.73C8858.28,493.846 8858.28,493.964 8858.26,494.08C8858.26,494.193 8858.23,494.305 8858.19,494.41L8857.56,495.77L8856.77,497.48C8856.64,497.738 8856.44,497.954 8856.19,498.1C8856.06,498.183 8855.92,498.247 8855.77,498.29L8853.47,498.98C8853.3,499.032 8853.12,499.059 8852.94,499.06C8852.77,499.068 8852.6,499.051 8852.43,499.01L8852.63,502.09L8855.49,501.02C8856.11,500.803 8856.63,500.379 8856.97,499.82L8860.52,493.64C8860.71,493.315 8860.81,492.946 8860.81,492.57L8860.81,489.5C8860.65,488.003 8859.31,486.888 8857.81,487.01C8857.01,486.995 8856.23,487.268 8855.62,487.78L8851.71,491.15C8851.38,491.421 8851.01,491.625 8850.6,491.75L8843.8,493.89C8842.81,494.191 8841.92,494.726 8841.18,495.45L8840.75,494.99C8840.7,494.939 8840.64,494.898 8840.57,494.87L8834.57,492.38C8834.52,492.353 8834.46,492.336 8834.4,492.33L8831.14,492.01L8825.99,491.5L8825.85,491.5L8819.36,492.3C8819.22,492.318 8819.1,492.382 8819,492.48C8818.62,492.92 8817.8,492.48 8818.07,492.04L8819.52,489.34C8819.69,489.008 8819.78,488.64 8819.78,488.267C8819.78,487.37 8819.27,486.546 8818.46,486.15L8817.18,485.39C8816.09,484.77 8814.8,484.57 8813.57,484.83L8812.1,485.13C8811.25,485.298 8810.47,485.712 8809.86,486.32L8806.7,489.62C8806.36,489.967 8806.08,490.369 8805.87,490.81L8804.4,493.96C8804,494.803 8804.04,495.79 8804.5,496.6L8806.16,499.6L8806.16,499.67L8806.3,499.84C8808.56,502.485 8808.87,506.304 8807.07,509.28L8806.33,510.54C8805.59,511.756 8805.38,513.225 8805.75,514.6L8808.3,523.95L8810.59,533.23C8811.06,534.824 8812.31,536.076 8813.9,536.55L8828.57,541.55C8828.44,541.413 8828.33,541.266 8828.22,541.11L8828.22,541.05C8827.93,540.62 8827.77,540.111 8827.77,539.591C8827.77,538.557 8828.39,537.617 8829.34,537.21L8830.68,536.39L8836.05,533.1C8836.54,532.817 8837.09,532.637 8837.65,532.57C8837.84,532.555 8838.04,532.555 8838.23,532.57L8856.29,532.57L8856.82,532.67L8861.34,532.67C8862.66,533.027 8863.52,534.317 8863.34,535.67C8864.5,534.077 8864.82,532.018 8864.19,530.15L8862.76,525.85C8862.67,525.595 8862.56,525.347 8862.43,525.11C8862.28,525.181 8862.12,525.231 8861.95,525.26C8861.74,525.351 8861.52,525.408 8861.29,525.43ZM8816.29,492.92L8815.66,495.71L8814.73,497.16L8811.95,501.51C8811.95,501.51 8810.95,499.92 8809.95,498.27C8809.21,497.137 8808.54,495.958 8807.95,494.74C8808.46,493.878 8809.04,493.061 8809.69,492.3L8810.05,491.84C8810.9,490.75 8811.8,489.62 8812.34,488.95C8812.68,488.564 8813.17,488.347 8813.68,488.36C8814.35,488.332 8814.98,488.734 8815.23,489.36L8816.23,492.36C8816.24,492.427 8816.24,492.493 8816.23,492.56C8816.27,492.676 8816.3,492.797 8816.31,492.92L8816.29,492.92ZM8830.5,524L8830.48,524C8828.56,524 8826.98,522.42 8826.98,520.5C8826.98,518.58 8828.56,517 8830.48,517C8831.28,517 8832.05,517.272 8832.67,517.77C8833.07,518.042 8833.39,518.424 8833.58,518.87C8833.85,519.37 8834,519.93 8834,520.5C8834,522.42 8832.42,524 8830.5,524Z" style="fill:rgb(88,96,94);fill-rule:nonzero;"/>
            </g>
            <g transform="matrix(1,0,0,1,-244,-31)">
                <path d="M8832.67,517.77C8832.06,517.285 8831.29,517.021 8830.51,517.021C8828.59,517.021 8827.02,518.597 8827.02,520.511C8827.02,522.426 8828.59,524.001 8830.51,524.001C8832.43,524.001 8834,522.426 8834,520.511L8834,520.5C8834,519.93 8833.85,519.37 8833.58,518.87C8833.39,518.424 8833.07,518.042 8832.67,517.77Z" style="fill:rgb(57,66,64);fill-rule:nonzero;"/>
            </g>
            <g transform="matrix(1,0,0,1,-699,65)">
                <path d="M11090.4,513.24L11090.4,513.49C11090.4,513.403 11090.4,513.319 11090.5,513.24L11090.4,513.24Z" style="fill:rgb(181,136,71);fill-rule:nonzero;"/>
            </g>
            <g transform="matrix(1,0,0,1,-699,65)">
                <path d="M11008.9,481.83C11009,482.6 11009.1,483.38 11009.2,484.16L11009.1,476.16C11008.8,478.032 11008.7,479.939 11008.9,481.83Z" style="fill:rgb(181,136,71);fill-rule:nonzero;"/>
            </g>
            <g transform="matrix(1,0,0,1,-699,65)">
                <path d="M11094.5,433.19L11095,433.01L11094.2,432.47C11094.3,432.662 11094.4,432.882 11094.4,433.11L11094.5,433.19Z" style="fill:rgb(181,136,71);fill-rule:nonzero;"/>
            </g>
            <g transform="matrix(1,0,0,1,-699,65)">
                <path d="M11112.9,466.14C11111.7,466.37 11110.5,466.37 11109.3,466.14L11102.3,464.78C11101,464.554 11099.9,464.029 11098.8,463.25C11098.1,462.661 11097.4,461.884 11097,460.99L11096.7,460.18C11096.3,459.232 11096.2,458.176 11096.5,457.18C11095.6,455.747 11095.1,454.099 11095.1,452.42L11095.1,445.89C11089.5,449.07 11081.6,446.79 11079.5,446.65C11072.5,445.814 11066,442.25 11061.5,436.72L11045.9,437.1L11045.6,437.1L11036.2,438.1C11035.8,438.137 11035.5,438.218 11035.2,438.34L11026.3,442.17C11025.9,442.356 11025.5,442.669 11025.2,443.07L11013.9,460.44C11013.7,460.734 11013.6,461.084 11013.6,461.44L11013.6,469.6L11014.1,512.19C11015.4,511.942 11016.7,511.818 11018,511.82C11018.8,511.819 11019.6,511.866 11020.5,511.96L11020.5,483.15C11021,482.58 11021.7,482.131 11022.5,481.83C11026.1,480.36 11029.5,483.25 11036.1,486.58L11036.1,486.53L11040.3,487.25L11040.3,512.08C11041.2,511.885 11042.2,511.788 11043.3,511.79C11044.1,511.793 11044.9,511.86 11045.8,511.99L11045.8,490.45C11051.8,492.32 11061.7,495.37 11071,492.18L11071,514.72L11071.1,514.72C11071,514.65 11071,514.58 11071.1,514.51C11071,514.45 11071,514.39 11071.1,514.33L11071.1,492.33L11075.6,492.33L11075.6,512C11076.6,511.864 11077.5,511.798 11078.4,511.8C11079.8,511.788 11081.3,511.959 11082.6,512.31L11082.6,491.45C11085.3,491.769 11087.9,491.678 11090.5,491.18L11094.5,491.18L11094.5,511C11095.5,510.777 11096.6,510.666 11097.7,510.67C11099.2,510.653 11100.6,510.872 11102.1,511.32L11102.1,504.19C11105.8,498.81 11110,499.07 11111.5,494.57C11111.6,494.334 11111.7,494.094 11111.8,493.85C11112.7,490.18 11110.8,489.14 11111.8,485.24C11113.1,480.03 11117.3,479.32 11119.5,474.9C11121.2,471.57 11120.5,468.26 11119.3,464.28C11118.4,464.851 11117.4,465.248 11116.3,465.45L11112.9,466.14Z" style="fill:rgb(181,136,71);fill-rule:nonzero;"/>
            </g>
            <g transform="matrix(1,0,0,1,-699,65)">
                <path d="M11086.3,434.86L11075.8,436.33C11075.7,436.34 11075.5,436.34 11075.4,436.33L11071.4,436.43C11071.9,436.604 11072.3,436.751 11072.8,436.87C11074.7,437.35 11076.3,437.19 11079.5,436.87C11082.7,436.517 11085.8,435.877 11088.9,434.96C11088,434.871 11087.1,434.838 11086.3,434.86Z" style="fill:rgb(181,136,71);fill-rule:nonzero;"/>
            </g>
            <g transform="matrix(1,0,0,1,-699,65)">
                <path d="M11036.1,487.19L11036.1,488.91L11036.1,487.19Z" style="fill:rgb(181,136,71);fill-rule:nonzero;"/>
            </g>
            <g transform="matrix(1,0,0,1,-699,65)">
                <path d="M11128,440.15C11128.7,442.163 11128.8,444.373 11128.1,446.4L11127.4,448.22C11130.8,449.31 11135.6,450.02 11142.1,450.81L11146.4,451.34C11151.3,451.92 11153.1,451.89 11155.3,451.34C11160.7,450 11168.1,445.51 11168.7,438.72C11169.2,433.26 11165.1,428.25 11164.3,428.62C11163.5,428.99 11166.3,434.5 11164.3,438.72C11161.9,443.59 11154.5,443.72 11153.1,443.72C11149.3,443.685 11145.6,442.907 11142.1,441.43C11135.8,438.95 11130,435.17 11125.5,433.71C11125.8,434.228 11126.1,434.781 11126.3,435.36L11128,440.15Z" style="fill:rgb(196,160,87);fill-rule:nonzero;"/>
            </g>
            <g transform="matrix(1,0,0,1,-699,65)">
                <path d="M11071.5,436.46L11075.5,436.36C11075.6,436.37 11075.7,436.37 11075.9,436.36L11086.3,434.89C11087.2,434.876 11088.1,434.919 11089,435.02L11090.7,434.5C11092.3,434.03 11093.5,433.6 11094.5,433.22L11094.5,433.14C11094.5,432.912 11094.4,432.692 11094.3,432.5C11093.5,431.147 11092.3,430.093 11090.8,429.5L11086.1,428.76L11084.6,428.53L11083.9,428.42C11083.3,428.374 11082.7,428.374 11082.1,428.42L11081.4,428.42C11080.6,428.449 11079.7,428.563 11078.9,428.76L11075.1,430.4C11074.8,430.492 11074.6,430.559 11074.4,430.6L11069.1,431.6C11068.9,431.645 11068.7,431.665 11068.4,431.66L11064.9,431.55C11065.1,431.897 11065.4,432.231 11065.6,432.55C11067.2,434.322 11069.2,435.667 11071.5,436.46Z" style="fill:rgb(153,115,65);fill-rule:nonzero;"/>
            </g>
            <g transform="matrix(1,0,0,1,-699,65)">
                <path d="M11059.5,432.39C11059.8,433.977 11060.5,435.463 11061.5,436.7C11066,442.23 11072.5,445.794 11079.6,446.63C11081.6,446.77 11089.5,449.05 11095.2,445.87L11095.2,438.38C11095.2,436.835 11095.6,435.314 11096.3,433.96C11096.7,433.223 11097.2,432.549 11097.8,431.96C11097.1,432.18 11096.2,432.53 11095,432.96L11094.5,433.14C11093.5,433.52 11092.2,433.95 11090.7,434.42L11089,434.94C11085.9,435.857 11082.8,436.497 11079.6,436.85C11076.4,437.17 11074.8,437.33 11072.9,436.85C11072.4,436.731 11071.9,436.584 11071.5,436.41C11069.2,435.616 11067.2,434.26 11065.6,432.47C11065.3,432.151 11065.1,431.817 11064.9,431.47C11064.5,430.863 11064.2,430.207 11064,429.52C11062.7,425.74 11064.6,422.52 11064,422.22C11063.1,421.84 11059.3,426.31 11059.5,431.3L11059.5,432.39Z" style="fill:rgb(196,160,87);fill-rule:nonzero;"/>
            </g>
            <g transform="matrix(1,0,0,1,-699,65)">
                <path d="M11095.1,438.38L11095.1,443.38C11095.2,442.212 11096.2,441.269 11097.3,441.269C11097.3,441.269 11097.4,441.269 11097.4,441.27C11098,441.269 11098.5,441.491 11099,441.89C11099.4,442.278 11099.6,442.817 11099.6,443.38C11099.6,444.567 11098.6,445.513 11097.4,445.48C11097,445.479 11096.6,445.379 11096.3,445.19C11095.6,444.836 11095.2,444.14 11095.1,443.38L11095.1,452.38C11095.1,454.059 11095.6,455.707 11096.5,457.14C11097,455.535 11098.1,454.21 11099.6,453.49L11101.1,452.72C11102.4,452.062 11103.8,451.719 11105.3,451.72L11111.6,451.72C11112.4,451.723 11113.3,451.844 11114.1,452.08C11114.7,452.234 11115.2,452.442 11115.7,452.7L11118.6,454.21C11120.5,455.069 11121.8,456.938 11121.9,459.04L11121.9,460.47C11123.1,459.463 11124,458.133 11124.5,456.63L11127.5,448.18L11128.1,446.36C11128.8,444.333 11128.8,442.123 11128,440.11L11126.3,435.36C11126.1,434.781 11125.8,434.228 11125.4,433.71C11124.3,431.875 11122.5,430.572 11120.4,430.1L11115,429C11113.9,428.761 11112.8,428.64 11111.6,428.64L11109.5,428.64C11109,428.64 11108.6,428.68 11108.1,428.76L11101.9,429.88C11100.3,430.162 11098.9,430.912 11097.8,432.03C11097.2,432.619 11096.7,433.293 11096.3,434.03C11095.6,435.36 11095.2,436.856 11095.1,438.38ZM11124.1,441.24C11125.3,441.298 11126.1,442.231 11126.1,443.347C11126.1,444.505 11125.2,445.457 11124,445.457C11122.9,445.457 11121.9,444.506 11121.9,443.35C11122,442.167 11123,441.218 11124.1,441.24Z" style="fill:rgb(160,119,53);fill-rule:nonzero;"/>
            </g>
            <g transform="matrix(1,0,0,1,-699,65)">
                <path d="M11121.9,459.08C11121.8,456.978 11120.5,455.109 11118.6,454.25L11115.7,452.74C11115.2,452.482 11114.7,452.274 11114.1,452.12C11113.3,451.884 11112.4,451.763 11111.6,451.76L11105.3,451.76C11103.8,451.759 11102.4,452.102 11101.1,452.76L11099.6,453.53C11098.1,454.25 11097,455.575 11096.5,457.18C11096.2,458.176 11096.3,459.232 11096.7,460.18L11097.1,460.99C11097.4,461.884 11098.1,462.661 11098.9,463.25C11099.9,464.029 11101.1,464.554 11102.3,464.78L11109.3,466.14C11110.5,466.37 11111.7,466.37 11112.9,466.14L11116.3,465.49C11117.3,465.288 11118.3,464.891 11119.2,464.32C11120.6,463.49 11121.6,462.1 11121.9,460.51L11121.9,459.08Z" style="fill:rgb(196,160,87);fill-rule:nonzero;"/>
            </g>
            <g transform="matrix(1,0,0,1,-699,65)">
                <path d="M11009.2,484.16L11009.5,515.4L11009.6,515.4L11009.6,515.51C11010.2,517.07 11013.7,518.26 11018,518.26C11022.6,518.26 11026.5,516.81 11026.5,515.01C11026.5,513.55 11023.9,512.31 11020.5,511.9C11019.6,511.806 11018.8,511.759 11018,511.76C11016.7,511.758 11015.3,511.882 11014,512.13L11013.6,469.54L11013.6,461.38C11013.6,461.024 11013.7,460.674 11013.9,460.38L11025.2,443.01C11025.4,442.609 11025.8,442.296 11026.3,442.11L11035.2,438.28C11035.5,438.158 11035.8,438.077 11036.1,438.04L11045.6,437.04L11045.9,437.04L11061.5,436.66C11060.4,435.423 11059.7,433.937 11059.5,432.35C11059.5,432.23 11059.5,432.11 11059.4,432L11059.4,431.34L11034.8,430.56C11034.4,430.549 11034.1,430.58 11033.9,430.65L11023.3,433.21C11022.7,433.331 11022.2,433.637 11021.8,434.08L11002.1,458.08C11001.6,458.657 11001.5,459.508 11001.9,460.16L11008,470.07C11008.1,470.202 11008.1,470.347 11008.2,470.5L11008.3,470.86C11008.4,471.285 11008.7,471.657 11009.1,471.92L11009.1,476.17L11009.2,484.16Z" style="fill:rgb(153,115,65);fill-rule:nonzero;"/>
            </g>
            <g transform="matrix(1,0,0,1,-699,65)">
                <path d="M11040.3,512.08L11040.3,487.25L11036.1,486.53L11036.1,515C11036.3,516.61 11039.4,517.89 11043.2,517.89C11047,517.89 11050.3,516.52 11050.3,514.82C11050.3,513.51 11048.4,512.39 11045.7,511.95C11044.9,511.82 11044.1,511.753 11043.2,511.75C11042.2,511.764 11041.2,511.875 11040.3,512.08Z" style="fill:rgb(153,115,65);fill-rule:nonzero;"/>
            </g>
            <g transform="matrix(1,0,0,1,-699,65)">
                <path d="M11075.6,512L11075.6,492.3L11071,492.3L11071,514.69C11071.3,516.08 11074.5,517.19 11078.3,517.19C11082.4,517.19 11085.7,515.98 11085.7,514.48C11085.7,513.57 11084.4,512.77 11082.6,512.28C11081.2,511.929 11079.7,511.758 11078.3,511.77C11077.4,511.78 11076.5,511.857 11075.6,512Z" style="fill:rgb(153,115,65);fill-rule:nonzero;"/>
            </g>
            <g transform="matrix(1,0,0,1,-699,65)">
                <path d="M11094.4,511L11094.4,491.22L11090.3,491.22L11090.3,513.22L11090.5,513.22C11090.4,513.299 11090.4,513.383 11090.4,513.47C11090.3,513.622 11090.3,513.78 11090.3,513.94C11090.3,515.73 11093.6,517.19 11097.6,517.19C11101.7,517.19 11105,515.73 11105,513.94C11105,512.87 11103.8,511.94 11102,511.34C11100.6,510.892 11099.1,510.673 11097.6,510.69C11096.5,510.682 11095.5,510.786 11094.4,511Z" style="fill:rgb(153,115,65);fill-rule:nonzero;"/>
            </g>
            <g transform="matrix(1,0,0,1,-699,65)">
                <path d="M11124.1,445.45C11125.3,445.392 11126.1,444.459 11126.1,443.343C11126.1,442.185 11125.2,441.233 11124,441.233C11122.9,441.233 11121.9,442.185 11121.9,443.343L11121.9,443.35C11122,444.533 11123,445.478 11124.1,445.45Z" style="fill:rgb(15,15,15);fill-rule:nonzero;"/>
            </g>
            <g transform="matrix(1,0,0,1,-699,65)">
                <path d="M11096.3,445.16C11096.6,445.349 11097,445.449 11097.4,445.45C11098.6,445.483 11099.6,444.537 11099.6,443.35C11099.6,442.787 11099.4,442.248 11099,441.86C11098.5,441.461 11098,441.239 11097.4,441.24C11097.4,441.239 11097.3,441.239 11097.3,441.239C11096.2,441.239 11095.2,442.182 11095.1,443.35C11095.2,444.11 11095.6,444.806 11096.3,445.16Z" style="fill:rgb(15,15,15);fill-rule:nonzero;"/>
            </g>
        </g>
    </g>
    <g id="Rechteck">
        <rect x="0" y="0" width="12948" height="1080" style="fill:none;"/>
    </g>
</svg>
