<svg xmlns="http://www.w3.org/2000/svg" viewBox="0 0 12948 1080"><defs><style>.cls-1{fill:#b9dbcc;}.cls-2{fill:#aad6c4;}.cls-3{fill:#9eccb8;}.cls-4{fill:#94c4ae;}.cls-5{fill:#efab00;}.cls-6{fill:#ffa617;}.cls-7{fill:none;}</style></defs><g id="Sonnenuntergang"><path class="cls-1" d="M11304,23c-288.29,0-522,206-522,460s233.71,460,522,460,522-206,522-460S11592.29,23,11304,23Zm3.23,773c-213.79,0-387.11-146.4-387.11-327s173.32-327,387.11-327,387.11,146.4,387.11,327S11521,796,11307.23,796Z" transform="translate(0 0)"/><path class="cls-2" d="M11307.23,142c-213.79,0-387.11,146.4-387.11,327s173.32,327,387.11,327,387.11-146.4,387.11-327S11521,142,11307.23,142Zm-3.1,586c-147.57,0-267.21-113.94-267.21-254.5S11156.56,219,11304.13,219s267.22,113.94,267.22,254.5S11451.71,728,11304.13,728Z" transform="translate(0 0)"/><path class="cls-3" d="M11304.13,219c-147.57,0-267.21,113.94-267.21,254.5S11156.56,728,11304.13,728s267.22-113.94,267.22-254.5S11451.71,219,11304.13,219Zm1.16,456c-115.83,0-209.72-82.17-209.72-183.54s93.89-183.53,209.72-183.53S11515,390.1,11515,491.46,11421.11,675,11305.29,675Z" transform="translate(0 0)"/><path class="cls-4" d="M11305.29,307.93c-115.83,0-209.72,82.17-209.72,183.53S11189.46,675,11305.29,675,11515,592.83,11515,491.46,11421.11,307.93,11305.29,307.93Zm-.2,326.32c-90.52,0-163.9-63.83-163.9-142.57s73.38-142.57,163.9-142.57,163.9,63.83,163.9,142.57S11395.61,634.25,11305.09,634.25Z" transform="translate(0 0)"/><path class="cls-5" d="M11305.09,349.11c-90.52,0-163.9,63.83-163.9,142.57s73.38,142.57,163.9,142.57,163.9-63.83,163.9-142.57S11395.61,349.11,11305.09,349.11ZM11305,616c-74,0-134-54.85-134-122.5s60-122.5,134-122.5,134,54.85,134,122.5S11379,616,11305,616Z" transform="translate(0 0)"/><ellipse class="cls-6" cx="11305" cy="493.5" rx="134" ry="122.5"/></g><g id="Rechteck"><rect class="cls-7" width="12948" height="1080"/></g></svg>