<svg xmlns="http://www.w3.org/2000/svg" viewBox="0 0 12948 1080"><defs><style>.cls-1{fill:none;}.cls-2{fill:#b9dbcc;}.cls-3{fill:#aad6c4;}.cls-4{fill:#9eccb8;}.cls-5{fill:#94c4ae;}.cls-6{fill:#efab00;}.cls-7{fill:#ffa617;}.cls-8{fill:#c1e5d8;}.cls-9{fill:#c9e2d8;}.cls-10{fill:#d5e2dd;}.cls-11{fill:#e0e2e1;}.cls-12{fill:#f4eb7d;}.cls-13{fill:#f4f425;}</style></defs><g id="Ebene_43" data-name="Ebene 43"><rect class="cls-1" width="12948" height="1080"/></g><g id="Sonne"><path class="cls-2" d="M11794.24,360q0,10.1-.58,20.07-.87,15-3,29.66a350.8,350.8,0,0,1-18.41,72c-15.55,41.83-38.89,80.83-68.65,115.82C11613.4,703.66,11464.36,773,11295.77,773c-275.3,0-498.47-184.91-498.47-413,0-154.49,102.39-289.18,254-360h488.92c82.52,38.54,150.45,96,195.22,165.27.57.86,1.12,1.72,1.66,2.58C11773.6,225.25,11794.24,290.63,11794.24,360Z" transform="translate(0)"/><ellipse class="cls-3" cx="11299.23" cy="345" rx="387.11" ry="327"/><ellipse class="cls-4" cx="11296.14" cy="332.99" rx="267.22" ry="214.99"/><ellipse class="cls-5" cx="11297.29" cy="367.46" rx="209.71" ry="183.54"/><ellipse class="cls-6" cx="11297.09" cy="367.68" rx="163.9" ry="142.57"/><ellipse class="cls-7" cx="11304" cy="375.5" rx="134" ry="122.5"/><ellipse class="cls-8" cx="623.38" cy="444.38" rx="498.47" ry="413"/><ellipse class="cls-9" cx="626.85" cy="429.38" rx="387.11" ry="327"/><ellipse class="cls-10" cx="623.75" cy="417.37" rx="267.22" ry="214.99"/><ellipse class="cls-11" cx="624.9" cy="451.85" rx="209.71" ry="183.54"/><ellipse class="cls-12" cx="624.7" cy="452.06" rx="163.9" ry="142.57"/><ellipse class="cls-13" cx="631.61" cy="459.88" rx="134" ry="122.5"/></g></svg>