<svg xmlns="http://www.w3.org/2000/svg" viewBox="0 0 12948 1080"><defs><style>.cls-1{fill:none;}.cls-2{fill:#f7f4f0;}</style></defs><g id="Ebene_43" data-name="Ebene 43"><rect class="cls-1" width="12948" height="1080"/></g><g id="wolken"><path class="cls-2" d="M1622.67,142c3.63-3.46,5.74-7.47,5.84-11.79.3-13.67-19.68-25.21-44.64-25.77a80.05,80.05,0,0,0-14.16.93l-.47-.09a8.9,8.9,0,0,0,.77-3.4c.32-14.29-35.22-26.68-79.38-27.67s-80.21,9.8-80.53,24.1c-.16,7.27,9,14,23.79,19.09-50.33,1.2-88.2,9.9-88.46,21.3s37.64,21.91,88.33,25.3c-6.86,3.56-10.81,7.74-10.91,12.27-.32,14.3,37.68,26.74,84.88,27.79,28,.63,53-2.9,68.75-8.87a160.47,160.47,0,0,0,34.83,4.43c39.67.89,72.13-11.41,72.49-27.46C1684.13,157.51,1657.53,144.78,1622.67,142Z" transform="translate(0)"/><path class="cls-2" d="M194.57,62.1a95.11,95.11,0,0,0-31.43,5.21C158.84,45,135.7,28,107.79,28c-31,0-56.08,21-56.08,46.8a41,41,0,0,0,8.15,24.31C35.47,106.89,19,121.68,19,138.65,19,163.7,54.87,184,99.11,184c29.9,0,56-9.27,69.73-23a96.59,96.59,0,0,0,25.73,3.42c39.45,0,71.43-22.9,71.43-51.15S234,62.1,194.57,62.1Z" transform="translate(0)"/><path class="cls-2" d="M4102,113.41a124.78,124.78,0,0,0-16.35,1.06,16.26,16.26,0,0,0,1.08-5.78c0-19.71-37.16-35.69-83-35.69-33.34,0-62.07,8.45-75.28,20.64a83.59,83.59,0,0,0-31.22-5.82c-33.74,0-61.08,18.54-61.08,41.41a31,31,0,0,0,6.36,18.42c-22.93,4.47-38.47,13.1-38.47,23,0,14.51,33.31,26.27,74.39,26.27,17.76,0,34.07-2.2,46.86-5.87,17.12,8.62,40.68,13.95,66.69,13.95,40.75,0,75.5-13.08,88.87-31.42a123.92,123.92,0,0,0,21.15,1.79c34.82,0,63-13.87,63-31S4136.78,113.41,4102,113.41Z" transform="translate(0)"/><path class="cls-2" d="M2507,97.06a91.67,91.67,0,0,0-11.69.74,11,11,0,0,0,.78-4c0-13.71-26.54-24.82-59.29-24.82-14.33,0-27.46,2.13-37.71,5.68-11.4-8.34-28.64-13.65-47.93-13.65C2316.82,61,2289,77.81,2289,98.54c0,10.3,6.87,19.64,18,26.42-8,3.2-12.84,7.35-12.84,11.9,0,10.08,23.79,18.26,53.13,18.26a136.3,136.3,0,0,0,28.14-2.77c0,.14,0,.28,0,.41,0,21.12,28.3,38.24,63.21,38.24s63.21-17.12,63.21-38.24a25.13,25.13,0,0,0-3.78-13c2.88.28,5.86.43,8.92.43,24.86,0,45-9.65,45-21.54S2531.84,97.06,2507,97.06Z" transform="translate(0)"/><path class="cls-2" d="M5710.27,162.65a82.09,82.09,0,0,0-10.83.71,10.91,10.91,0,0,0,.72-3.86c0-13.18-24.61-23.86-55-23.86-13.28,0-25.46,2.05-35,5.45-10.56-8-26.54-13.12-44.42-13.12-31.81,0-57.6,16.16-57.6,36.1,0,9.91,6.37,18.89,16.69,25.41-7.42,3.08-11.9,7.08-11.9,11.45,0,9.7,22.05,17.56,49.25,17.56a122.18,122.18,0,0,0,26.08-2.66c0,.13,0,.26,0,.4,0,20.31,26.23,36.77,58.59,36.77s58.59-16.46,58.59-36.77a24.89,24.89,0,0,0-3.51-12.56,82.37,82.37,0,0,0,8.27.41c23,0,41.73-9.27,41.73-20.71S5733.32,162.65,5710.27,162.65Z" transform="translate(0)"/><path class="cls-2" d="M9731.53,120.48a117.84,117.84,0,0,0-28.37,3.35c-3.87-14.35-24.76-25.32-50-25.32-27.95,0-50.61,13.5-50.61,30.15,0,5.73,2.69,11.09,7.35,15.66-22,5-36.88,14.53-36.88,25.47,0,16.13,32.37,29.21,72.3,29.21,27,0,50.52-6,62.94-14.82a120.52,120.52,0,0,0,23.22,2.2c35.61,0,64.47-14.75,64.47-32.95S9767.14,120.48,9731.53,120.48Z" transform="translate(0)"/><path class="cls-2" d="M7089.47,109.39a98.73,98.73,0,0,0-25.31,3.18c-3.46-13.64-22.1-24.06-44.58-24.06-24.94,0-45.16,12.83-45.16,28.65,0,5.45,2.4,10.54,6.56,14.88-19.64,4.76-32.91,13.81-32.91,24.2,0,15.33,28.89,27.76,64.52,27.76,24.08,0,45.07-5.68,56.16-14.09a100.55,100.55,0,0,0,20.72,2.1c31.77,0,57.53-14,57.53-31.31S7121.24,109.39,7089.47,109.39Z" transform="translate(0)"/><path class="cls-2" d="M8650.68,108.08a95.63,95.63,0,0,0-12.54.81,12.28,12.28,0,0,0,.84-4.41c0-15-28.49-27.25-63.63-27.25-25.55,0-47.58,6.45-57.7,15.76a64.39,64.39,0,0,0-23.93-4.45c-25.86,0-46.82,14.16-46.82,31.62a23.58,23.58,0,0,0,4.88,14.06c-17.58,3.41-29.49,10-29.49,17.56,0,11.07,25.53,20.05,57,20.05,13.62,0,26.11-1.68,35.92-4.48,13.12,6.58,31.18,10.65,51.12,10.65,31.24,0,57.87-10,68.12-24a95.06,95.06,0,0,0,16.21,1.37c26.69,0,48.32-10.59,48.32-23.65S8677.37,108.08,8650.68,108.08Z" transform="translate(0)"/></g></svg>