<svg xmlns="http://www.w3.org/2000/svg" viewBox="0 0 12950 1080"><defs><style>.cls-1{fill:#eac296;}.cls-2{fill:none;}</style></defs><g id="Wüste3"><path class="cls-1" d="M6547,863c-33.15-29.23-69.89-13.54-141-27-52.15-9.87-46.48-21-150-61-59.61-23-47.75-14.06-165-53-110.79-36.8-150.85-54.62-181-33-23.08,16.54-14.26,37.48-37,49-31.8,16.11-66.86-15.84-153-49,0,0-12.25-4.71-89-28-83.56-25.35-180.86-23.24-246.14-17.53-34.45,3-60,7-69.86,8.53-25.71,3.92-52.06,7.94-78.87,11.84-68.74,10-140.52,19.17-212.46,23.82-163.25,10.56-327.34-2.2-458.67-81.66q-9.84-6-19.5-12.42C4421,510.46,4320.7,372.57,4252,407c-26.31,13.18-30.14,44.18-67,52-52.85,11.22-82.47-39.27-141-40-57.42-.72-76.93,47.26-135,80-36.94,20.83-79.37,29.78-319-12-235.23-41-309.77-69.76-370-22-32.1,25.45-32.24,50.51-46.13,72.42-5.79,9.14-14,17.74-27.87,25.58-48.17,27.19-91.45,3.88-149.72-9.69-33.53-7.82-72-12.41-119.28-2.31-66.64,14.25-72.72,42.25-132,40-64.35-2.45-90-36.25-147-40-71.75-4.72-96.27,44.59-166,73-30.81,12.56-64.79,18.72-100.44,20h-.37L2235,637.19C2069.69,610.34,1897,514.47,1844,480c-17-11.09-61.31-41.58-116-36-35.67,3.64-36.12,18.59-83,30-14,3.4-80.9,19.7-150-6-33.9-12.61-41-25.15-65-24-37.88,1.82-63.34,35-76,49-27.11,29.89-68.8,52.27-116.35,66.5C1215,545.86,1179.49,534.61,1148,542c-15.32,3.6-23.2,10.08-32.48,15.92l-91.72-6.5c-10.72-5.64-22.49-11.62-36.8-16.42-21.41-7.18-39.77-8.76-56.56-7.48A134.81,134.81,0,0,1,916,514c-24.07-26.2-33.72-59.15-62-61-29.85-1.95-36.31,33.64-85,61a174.68,174.68,0,0,1-25.11,11.56c-18-11.41-27.7-22.51-56.89-27.56-38.63-6.68-74.45,3.65-102.75,17-11.68-7.33-14.6-13.15-30.25-19-28.61-10.62-58.63-5.91-86.74,4.7C452.55,494.79,426,489.87,409,488c-38.41-4.23-45.87,5.12-82,4-62.93-1.95-64.87-31.06-117-28-40.94,2.4-54,21.19-87,11-20.18-6.24-22-15.35-46-21-6.15-1.45-56.85-15.93-74,5-4.95,6-5.32,14.72-4,23.13V589H-2v491H6687S6562.3,876.48,6547,863Z" transform="translate(2)"/></g><g id="Rechteck"><rect class="cls-2" x="2" width="12948" height="1080"/></g></svg>