<svg xmlns="http://www.w3.org/2000/svg" viewBox="0 0 12949 1080"><defs><style>.cls-1{fill:none;}.cls-2{fill:#02aa02;}.cls-3{fill:#076807;}.cls-4{fill:#e2b074;}</style></defs><g id="Wüste2"><g id="Sand"><path class="cls-1" d="M2251.39,654.14v9h18.8v-9.3a5.77,5.77,0,0,1-1.86.32Z" transform="translate(1)"/><path class="cls-2" d="M2186.79,708.6l-.33.11V756l.52.12Z" transform="translate(1)"/><path class="cls-2" d="M2186.46,625.84v60.75l.24.08Z" transform="translate(1)"/><path class="cls-2" d="M2186.46,617.68v8.16l.77-8.16Z" transform="translate(1)"/><path class="cls-2" d="M2187.23,617.68l4.16-8.21C2188.75,611.89,2187.23,614.69,2187.23,617.68Z" transform="translate(1)"/><path class="cls-2" d="M2191.42,609.45l7.26-4.54A26.35,26.35,0,0,0,2191.42,609.45Z" transform="translate(1)"/><path class="cls-2" d="M2198.73,604.89l8.95-2.76A45.44,45.44,0,0,0,2198.73,604.89Z" transform="translate(1)"/><path class="cls-2" d="M2207.68,602.13l6.79-.94A57,57,0,0,0,2207.68,602.13Z" transform="translate(1)"/><path class="cls-3" d="M2187,756.08q5.07,1.23,10.16,2.39,9.27,2.1,18.69,3.94V601l-1.36.19-6.79.94h0l-8.95,2.76h-.05l-7.26,4.54h0l-4.16,8.21-.77,8.16.24,60.83-.24-.08a7.17,7.17,0,0,0-2.19-.34h-19.2v-35c0-6.05-5.57-11-12.45-11h-3.35c-6.87,0-12.45,4.91-12.45,11V689a9.93,9.93,0,0,0,.17,1.72,4.86,4.86,0,0,0-.17,1.27v11.4c0,3.15,2.9,5.7,6.48,5.7h41a7.17,7.17,0,0,0,2.19-.34l.33-.11Z" transform="translate(1)"/><path class="cls-2" d="M2215.83,762.41q17.48,3.42,35.56,5.91V681.71h19v83.66h.71l-.4-111.7-.31.11-.15,0v9.3h-18.8v-9h-20.71a5.93,5.93,0,0,1-5.95-5.9v-11.8a5.66,5.66,0,0,1,.16-1.31,11.55,11.55,0,0,1-.16-1.78V601.24c-1.76-.15-3.57-.24-5.42-.24-1.18,0-2.34,0-3.48.1V762.41Z" transform="translate(1)"/><path class="cls-2" d="M2251.39,630.55V617.68a9.27,9.27,0,0,0-.7-3.47v16.34Z" transform="translate(1)"/><path class="cls-2" d="M2270.34,568.05V630.9l.23.08Z" transform="translate(1)"/><path class="cls-2" d="M2270.34,559.6v8.45l.71-8.45Z" transform="translate(1)"/><path class="cls-2" d="M2274.9,551.08l6.67-4.69A24.44,24.44,0,0,0,2274.9,551.08Z" transform="translate(1)"/><path class="cls-2" d="M2271.05,559.6l3.82-8.49A12.22,12.22,0,0,0,2271.05,559.6Z" transform="translate(1)"/><path class="cls-2" d="M2281.62,546.37l8.22-2.85A38.36,38.36,0,0,0,2281.62,546.37Z" transform="translate(1)"/><path class="cls-2" d="M2289.84,543.52l6.24-1A46.74,46.74,0,0,0,2289.84,543.52Z" transform="translate(1)"/><path class="cls-2" d="M2297.33,759.77v10.47h-11.57l-7.22-1.12a112.39,112.39,0,0,0,22,1.88c16.28,0,29.48-2.52,29.48-5.63V559.6c0-9.53-13.2-17.25-29.48-17.25-1.08,0-2.14,0-3.19.1V759.77Z" transform="translate(1)"/><path class="cls-2" d="M2271.06,765.42c0,.57.49,1.12,1.34,1.64A3,3,0,0,1,2271.06,765.42Z" transform="translate(1)"/><path class="cls-3" d="M2224.89,635.13a5.66,5.66,0,0,0-.16,1.31v11.8a5.93,5.93,0,0,0,5.95,5.9h37.65a5.77,5.77,0,0,0,1.86-.32l.15,0,.31-.11.4,111.7a.18.18,0,0,0,0,0,3,3,0,0,0,1.34,1.64,14.48,14.48,0,0,0,6.14,2.06h0l7.22,1.12h11.57V542.35l-1.25.19-6.24,1h0l-8.22,2.85h0l-6.67,4.69,0,0h0l-3.82,8.49-.71,8.45.23,62.93-.23-.08a6.11,6.11,0,0,0-2-.35h-17.64V594.3A11.39,11.39,0,0,0,2239.25,583h-3.08a11.4,11.4,0,0,0-11.44,11.35v39.05A11.55,11.55,0,0,0,2224.89,635.13Z" transform="translate(1)"/><path class="cls-4" d="M6281.06,948a234.94,234.94,0,0,0-72.21-53.13C6100.92,843.74,5848,717,5743,724c-147.32,9.88-258.52-29.17-358.14-80.53C5221.53,559.27,5089.3,442,4880,453c-160.32,8.44-230.7,79.6-334.5,140.58C4477,633.8,4394,669.59,4261,680c-163.32,12.79-173.44-30.58-490-83-199.36-33-395.6-65.5-597.13-59.58a1448.5,1448.5,0,0,0-177.59,15.89h0A1321.25,1321.25,0,0,0,2826,591c-86.18,25.17-139.81,51.1-180.31,75.27h0l-.64.39h0c-30.13,18-53,35.08-76.67,50.08l-3.12,2c-38.69,24.14-80.49,42.75-160.24,51.3-56.29,6-106.7,4.72-153.61-1.68q-18.1-2.46-35.56-5.91-9.42-1.85-18.69-3.94-5.1-1.15-10.16-2.39l-.52-.12c-65.74-16-126.24-40.81-189.4-67h0c-73.92-30.69-151.5-63.26-245.38-85.68l-1.67-.4h0A1021.29,1021.29,0,0,0,1588,578c-61.38-4.51-110.51-2.92-152.29,2.59h0l-1.11.15h0c-92,12.31-148.38,43.57-222.14,70-59.53,21.32-130.38,39.49-240.4,42h0q-13.59.31-28,.29c-99.65-.15-190.53-12.43-273.31-31.12h0a1501.77,1501.77,0,0,1-157.78-45.2h0c-54.8-18.82-105.19-39.1-151.46-58.32l-8.73-3.64h0c-58.24-24.3-109.83-46.62-155.37-61.78h0l-.12,0c-48.48-16.12-90.11-24.12-125.61-17.72h0a115.72,115.72,0,0,0-24.32,7.09h0a110.8,110.8,0,0,0-24.27,14q-3,2.26-5.94,4.77A124.06,124.06,0,0,0-1,520.08V1080H6403S6326.19,997,6281.06,948Z" transform="translate(1)"/></g></g><g id="Rechteck"><rect class="cls-1" x="1" width="12948" height="1080"/></g></svg>