<?xml version="1.0" encoding="utf-8"?>
<!-- Generator: Adobe Illustrator 24.2.1, SVG Export Plug-In . SVG Version: 6.00 Build 0)  -->
<svg version="1.1" id="Menü" xmlns="http://www.w3.org/2000/svg" xmlns:xlink="http://www.w3.org/1999/xlink" x="0px" y="0px"
	 viewBox="0 0 104 162" style="enable-background:new 0 0 104 162;" xml:space="preserve">
<style type="text/css">
	.st0{fill:#F7931E;stroke:#0071BC;stroke-width:3;stroke-miterlimit:10;}
	.st1{fill:#0071BC;}
</style>
<g id="Menü_-_Europa">
	<g id="Asien_1_">
		<circle class="st0" cx="51.7" cy="52.2" r="50"/>
		<g>
			<path class="st1" d="M23.1,33.6l0.1,6.6l3.1,2.2l-5.4,0.4l1.7,2.9l-2.5,1.8l2.6,3.7c0,0-2.4-1.1-2.5-0.7
				c-0.1,0.4-1.8,0.8-2.5,0.4c-0.7-0.5-3.2-1.1-4.2-1c-0.3,0-2.2,0.1-3.4,0.5c-0.5,0.1,0.2,1.9,0.5,2.3c0.4,0.5,0.6,0.6,0.6,0.6
				c0.1,0.1,0.6,0.5,0.6,0.5s2.2,0,2.3,0.1c0.1,0.1,0.7,0.6,1.4,0.2c0.7-0.4,1.4-0.5,1.4,0s0,1.4,0,2.6s-2.6,1.4-2.6,1.4l0.8,1.9
				l2.1,0.7c0,0.2,1.2,1.3,1.4,2c0.3,0.8,0.6,1.3,0.7,1.5c0.1,0.2,0.6,1.1,0.8,1.4c0.2,0.3,0.9,1,1,1.3s1.2,1.4,1.2,2.1
				s0.5,1.6,0.5,1.9s1,0.5,1,0.5l1.3-0.3c0,0,2-1.3,2.2-1.3s2-0.8,2-0.8s0.7-0.7,1.2-1c0.5-0.4,1-1.1,1.2-1.4s0.3-0.4,0.8-0.9
				c0.4-0.5,1-1,0.7-1.3c-0.4-0.3-0.6-0.2-1.2-0.8c-0.5-0.5-0.5-0.4-0.9-1.2c-0.4-0.7,0.1-1.5-0.8-0.7c-0.8,0.8-0.5,1-1.3,1.2
				c-0.8,0.2-1.2,0.7-1.5,0.2c-0.4-0.5-0.8-0.2-1-1s-0.4-0.9-0.4-1.2c-0.1-0.3,0-0.3-0.4-1.2s-0.1-2.1,0.2-1.4
				c0.3,0.7,0.7,0.8,1.4,1.3c0.7,0.5,1,0.9,1.7,0.9c0.7,0.1,1.2,0,1.3,0.1c0.1,0.1,0.2-0.1,0.5,0.1c0.3,0.1,0.4-0.2,0.5,0.3
				s0.7,0.5,1,0.8c0.3,0.3,0.3,0.2,1,0.3c0.7,0.1,1.7,0.1,1.7,0.1l1-0.1l1.2,0.1c0,0,0.9,0.5,1.1,0.5c0.2,0,0.3,0.6,0.8,0.9
				c0.5,0.3,0.7,0.4,1,0.8s0.3,0.5,0.7,0.9s1.2-0.1,1.3-0.2c0.1-0.2,0.7-0.4,0.5,0s0.5,0.3,0.4,1.3c-0.2,1-0.3,0.8,0,1.5
				c0.3,0.7,1.5,2.9,1.5,3.6s0.4,0.4,0.4,1c0.1,0.6,0.4,0.8,0.4,1.3c0,0.4,0.4,0.5,0.4,0.9c0.1,0.3,0.7,0.1,0.8,0
				c0.2-0.1,0.9-0.8,0.9-0.8s0.3-0.1,0.3-0.7c-0.1-0.5,0-0.4,0-1.3c0-0.8-0.3-0.8-0.2-1.6c0.2-0.8,0.6-1.3,0.7-1.7
				c0.1-0.4,0.5-1,0.8-1.1c0.2-0.1,1.4-0.7,1.7-1s0.7-0.8,1.2-1.3c0.4-0.4,1.2-1,1.4-0.8c0.2,0.2,0.1,0.1,0.4,0.1s0.8,0.2,1.2,0.3
				c0.4,0.1,1.2,1,1.3,1.5c0.2,0.5,0.1,0.4,0.7,1.1c0.6,0.7,1.2,0.3,1.2,1.2s0,0.8,0.3,1.2s0.6-0.6,0.9-0.5s0.4-0.1,0.7,0.8
				s0.4,0.9,0.5,1.8c0.1,0.9-0.1,0.1-0.1,0.8c0,0.7-0.1,0.8,0.1,1.4s0.5,0.9,0.4,1c0,0,0.3-0.9,0.2-1.6c-0.1-0.7,0-1.6,0.3-1.9
				s0.6-0.5,0.8,0.2c0.2,0.7,0.3,0.2,0.8,1c0.5,0.8,0.9,0.7,1,1c0.1,0.4,0.3,0.4,0.7,0.8c0.4,0.3,0.7-0.1,1.2-0.4
				c0.4-0.3,1.6-1.5,1.7-2c0.1-0.5,0.5-0.4-0.3-1.6c-0.9-1.3-0.9-1.7-1.8-2.5c-0.9-0.8-1.5-0.8-0.8-1.8c0.7-1,1-1.6,1.5-1.4
				c0.4,0.3,1.2,0.2,1.2,1.3s-0.2,2.3,0.5,1s1.2-2.1,0.9-1.9c-0.2,0.2,0.5-0.4,0.5-0.4s0.1-0.5,1-0.7c0.9-0.2,1.2-0.3,1.5-0.5
				c0.3-0.2,1.3-1.3,1.4-1.8s0.6-1.4,0.5-1.8c-0.1-0.4-0.7-2.3-0.8-2.2c-0.1,0.1-0.1,0.1-0.8-0.7c-0.7-0.8-1.2-1.3-1.3-1.6
				c-0.1-0.3-0.4-0.4-0.1-0.8c0.3-0.4,0.5-0.4,0.6-0.8c0.1-0.4,0.5-0.7-0.3-0.4c-0.8,0.3-0.2,0.1-0.9,0.1s-2.6,0.4-1.6-0.8
				c0.9-1.2,1.2-1.9,1.4-1.9c0.2,0,1-0.9,1-0.1c0.1,0.9,0.4,0.7,0.4,1.2s1.2-0.6,1.2-0.6s0.4,0.1,0.7,0.4c0.3,0.3,0.3,1.2,0.3,1.2
				s-0.2-0.3,0.4,0.2c0.6,0.4,1.3,0.2,1.3,1.2c0,0.9,0,1,0.4,1.2c0.4,0.2,0.8,0.1,1.1-0.2c0.3-0.3,0.9-1.3,0.9-1.3s0.1-0.4-0.8-0.9
				c-0.9-0.5-1.4-0.9-1.8-1.2c-0.3-0.3-0.2-1.1,0.1-1.4c0.3-0.3,0.5-0.5,0.4-0.9c-0.1-0.4,0.2-0.8,1-0.7c0.8,0.1,1-0.1,1-0.1
				s0.2,0.1,0.2-0.2s1-1.9,0.8-1.9s0.1-0.4-0.1-1c-0.2-0.6,0.5-1.5-0.1-2c-0.6-0.4-0.8-0.7-1.2-1.3c-0.4-0.7-0.3-0.8-1.8-0.9
				s-2.1,0.3-2.4-0.1s-0.5,0.7-0.7-0.7s0.3-2.2,0.3-2.2s0.9-0.5,1.1-0.9s1.1-0.5,1.8-0.3c0.7,0.3,1.8,0.2,2.6,0.4
				c0.9,0.2,0.8,0.7,1.3,0c0.4-0.7,0-1,0.3-1.4c0.3-0.4,0.7-1,1-0.6c0.3,0.4,0.8,0.8,1.3,0.3c0.4-0.5,0.6-0.5,0.6-0.5l0.2,0.2
				c0,0,0.5-0.3,0.5,0.2c0,0.5,0.5,1,0.2,1.4s-0.7,0.3-0.7,1.3c0,0.9,0,0.8,0.6,1.5c0.6,0.8,1,0.1,1.1,0.9c0.1,0.8,0.2,0.7,0.8,1.2
				c0.6,0.6,0.5,0.5,0.9,0.9c0.3,0.3,0.6,0.1,0.7-0.3c0-0.3,0-0.6,0-0.9c-0.1-0.5,0.4-0.9,0.1-1.7c-0.3-0.8-0.1-0.8-0.7-1.4
				c-0.7-0.6-1.1,0.1-1.3-0.8c-0.2-0.9,1-1.3,1.4-1.4s0.8-0.8,0.9-0.3c0.1,0.4-0.8,2,0.8,0.3c1.6-1.7,0.9-1,0.9-1s0.8-0.1,1,0
				c0.2,0.1,0.6-0.5,0.4-0.4c-0.2,0.1-1.8-0.9-1.8-0.9l-1.2-0.7c0,0,0.4-0.3,0.7-0.2s0.3-0.5,0.6-0.6c0.3-0.1,2.1,0.4,2.5,0.6
				c0.4,0.2,1.8,0.3,1.6,0.2c-0.2-0.1-1-0.8-1.1-1c-0.1-0.2-2-0.7-2.6-0.6c-0.6,0.1-1.2,0.2-1.6,0.1c-0.5-0.2-1.2-0.6-1.6-0.6
				c-0.4,0-5.2-0.9-5.4-0.9s-0.6,1.1-0.7,0.9c-0.2-0.2-0.4-0.2-1.2-0.4s-1.8-0.4-3.2-0.5c-1.4-0.1-2.3,0.1-2.7-0.3
				c-0.4-0.4-1.2-0.3-2.1-0.3c-0.9-0.1-2,0-2.5,0s-1.6-0.1-1.9-0.1c-0.3-0.1-0.6-0.4-0.9-0.5c-0.3-0.1-0.3-0.2-0.9-0.3
				s-0.6-0.8-0.8-0.2c-0.2,0.6-0.1,0.4-0.4,0.7s-0.7,0.7-0.9,0.7c-0.2,0-1.1,0.1-1.3-0.1c-0.2-0.1-0.4-0.2-1-0.2s-0.5,0.1-1.3-0.1
				c-0.7-0.1-1.3-0.1-1.9-0.4c-0.7-0.3-0.7-0.5-1.2-0.5c-0.5,0.1-0.5-0.1-1.3-0.1s-1.7,0.4-2.2,0.5c-0.5,0.1-1.6-0.1-2-0.2
				c-0.4-0.2-0.5-0.5-1.9-0.4c-1.4,0.2-2.3,0.2-2-0.3c0.3-0.4,0.6-0.9,0.8-0.9c0.2-0.1,0.5-0.3,0.3-0.4c-0.3-0.1-0.5-0.3-1.2-0.3
				s-0.6,0.2-1.6,0.1c-1-0.1,0.5-0.4-1.5-0.3c-2,0.1-2.5,0.2-2.7,0.2s-0.5-0.4-1,0.2c-0.5,0.7-1.3,1-2.4,1.1
				c-1.1,0.1-1.2-0.1-2.2,0.3s-1.7-0.1-1.5,0.8c0.2,0.9,0.5,1.2,0.5,1.4c0,0.2-0.5,1.3-1.1,0.6c-0.6-0.7-1.7-3.2-1.2-1.5
				c0.5,1.8,1.6,2.4,0.5,2.6c-1,0.3-0.9-0.1-1.1-0.2c-0.2-0.1,0-0.9-0.1-1.3c-0.1-0.4-0.2-0.7-0.4-0.9s-0.2-0.5-0.6-0.7
				c-0.4-0.1-0.1-0.3-0.8-0.3s-1.3-0.4-1.2,0.5s0.3,0.3,0.8,1.3c0.4,0.9,1.3,0.3,0.7,0.9c-0.6,0.7-2.2,0.4-2.6,0.2L23.1,33.6z"/>
			<path class="st1" d="M73.1,76.4c-0.2,0.3-0.9,1.3-1.2,1.4c-0.3,0.1-0.6,0.3-0.8,0.3c-0.2-0.1-0.7,0-0.9,0.7
				c-0.2,0.7-0.4,1.1-0.6,1c-0.2-0.1,0.3,1-0.7,0.6c-0.9-0.4-0.6,0.4-0.7,0.6c-0.1,0.2,0.2,0.8,0.2,1c0.1,0.2,0.2,0.6,0.4,0.9
				c0.2,0.3,0.4,0.7,0.8,0.6c0.4-0.1,1.6,0,1.6,0s0.4,0.2,0.7,0.2c0.3,0,0.3-0.1,0.5-0.1s0.5-0.6,0.4-0.6c-0.1-0.1-0.2-0.2,0.1-0.6
				c0.3-0.3,0.7-0.4,0.8-0.8s-0.1-0.4,0.1-0.6c0.2-0.2,0.5-0.2,0.4-0.4c-0.1-0.2,0.1-0.2-0.1-0.6c-0.2-0.4-0.5-0.6-0.3-1.2
				c0.2-0.5,0.4-0.7,0.4-1s0.3-0.4-0.1-0.8c-0.4-0.4-0.5-0.5-0.8-0.6L73.1,76.4L73.1,76.4z"/>
			<path class="st1" d="M59.1,77.4c0,0,0.3,0.3,0.7,0.2c0.4-0.1,0.8,0.9,1,1.2c0.3,0.3,0.4,0.5,1,0.9c0.6,0.4,0.5-0.3,1.4,0.8
				s0.4,0.4,0.8,1.2c0.4,0.7,0.6,1.1,0.8,1.3c0.2,0.2,0.4,0.6,0.4,0.8c0.1,0.2,0.4,0.7,0.4,0.8s0.1,0.6-0.2,1S65,85.9,65,85.9
				s-0.7-0.3-0.9-0.7c-0.2-0.3-0.5-0.6-0.9-1.3c-0.4-0.7-0.8-1.4-1-1.7c-0.2-0.3-0.5-0.7-0.7-1c-0.2-0.3-0.6-1.3-0.8-1.4
				s-0.3-0.4-0.7-0.8c-0.4-0.4-0.3-0.7-0.5-0.9c-0.2-0.2-0.5-0.7-0.5-0.7L59.1,77.4L59.1,77.4z"/>
		</g>
	</g>
</g>
<g>
	<path class="st1" d="M24.6,118.6c1,0,1.9,0.3,2.6,0.9c0.8,0.6,1.4,1.4,2,2.4c0.6,1,1,2.1,1.4,3.4c0.4,1.3,0.7,2.6,0.9,4
		c0.2,1.4,0.4,2.8,0.6,4.3c0.1,1.4,0.2,2.8,0.3,4c0.1,1.3,0.1,2.4,0.1,3.4c0,1,0,1.8,0,2.4h-1l-1.6-8.7c-0.1-0.1-0.4-0.2-0.9-0.2
		c-0.5,0-1,0-1.7,0c-0.6,0.1-1.3,0.1-2.1,0.2c-0.8,0.1-1.5,0.2-2.1,0.2c-0.7,0-1.3,0.1-1.8,0c-0.5,0-0.9-0.1-1.2-0.3v8.7h-2.1
		c0-0.1,0-0.2,0-0.5c0-0.2,0-0.5,0-0.7s0-0.5,0-0.7c0-0.2,0-0.4,0-0.5c0.2-1.6,0.3-3.2,0.4-4.8c0.1-1.6,0.2-3.2,0.3-4.7
		c0.1-1.5,0.3-3,0.6-4.4c0.2-1.4,0.6-2.7,1-3.8c0.4-1.1,1-2.1,1.6-2.9C22.8,119.6,23.6,119,24.6,118.6z M25.3,120.5
		c-0.7,0-1.3,0.3-1.8,0.8c-0.5,0.5-0.9,1.2-1.2,2c-0.3,0.8-0.5,1.7-0.7,2.7s-0.3,1.9-0.3,2.9c-0.1,0.9-0.1,1.8-0.1,2.6
		c0,0.8,0,1.4,0,1.9c1.3,0,2.7-0.1,4.1-0.3s2.7-0.4,3.9-0.6c0-0.1,0-0.3,0.1-0.5c0-0.2,0-0.5,0-0.8c0-0.3,0-0.6,0-0.9
		c0-0.3,0-0.5,0-0.5c0-0.9,0-1.8-0.1-2.6c-0.1-0.8-0.3-1.6-0.6-2.4s-0.7-1.5-1.2-2.2C26.9,121.7,26.2,121.1,25.3,120.5z"/>
	<path class="st1" d="M36.5,140.8c0.5,0,0.9,0.1,1.4,0.3c0.4,0.2,0.8,0.4,1.3,0.6c0.4,0.2,0.8,0.4,1.3,0.6c0.4,0.2,0.9,0.3,1.4,0.3
		c0.6,0,1.2-0.1,1.8-0.3s1.2-0.5,1.7-0.9c0.5-0.4,0.9-0.8,1.3-1.4s0.5-1.1,0.5-1.7c0-0.2,0-0.4,0-0.7c0-0.3-0.1-0.6-0.3-0.8
		s-0.4-0.6-0.8-0.8c-0.4-0.3-0.9-0.5-1.7-0.6c-0.7-0.1-1.6-0.2-2.7-0.2c-1.1,0-2.4,0.1-4.1,0.3c-0.4,0-0.8-0.1-1.2-0.3
		c-0.4-0.2-0.7-0.5-1-0.9c-0.3-0.3-0.5-0.7-0.7-1.1c-0.2-0.4-0.3-0.8-0.3-1.1c0-1.1,0.2-1.9,0.7-2.6c0.5-0.7,1-1.2,1.7-1.6
		c0.7-0.4,1.5-0.7,2.4-0.8c0.9-0.2,1.8-0.2,2.7-0.2c0.4,0,0.9,0,1.4,0.1s1,0.2,1.5,0.3c0.5,0.2,0.8,0.5,1.1,0.8
		c0.3,0.4,0.5,0.9,0.5,1.6c-0.1,0.5-0.1,0.7-0.2,0.8c-0.1,0.1-0.2,0.1-0.4-0.1c-0.2-0.1-0.4-0.4-0.6-0.6c-0.2-0.3-0.5-0.5-0.9-0.8
		c-0.3-0.3-0.8-0.5-1.2-0.6c-0.5-0.1-1-0.1-1.6,0c-0.6,0-1.3,0.1-1.9,0.2c-0.6,0.1-1.2,0.3-1.7,0.6c-0.5,0.3-0.9,0.7-1.2,1.2
		c-0.3,0.5-0.5,1.2-0.5,2c0,0.4,0.2,0.7,0.6,0.8c0.4,0.2,0.9,0.2,1.5,0.2s1.3,0,2.1-0.1s1.6-0.1,2.4-0.1s1.6,0.1,2.4,0.2
		c0.8,0.1,1.4,0.4,2,0.7c0.6,0.4,1,0.9,1.4,1.6c0.3,0.7,0.5,1.6,0.4,2.7c0,0.8-0.2,1.5-0.7,2.3c-0.5,0.7-1,1.3-1.7,1.9
		s-1.5,1-2.3,1.3c-0.8,0.3-1.7,0.4-2.5,0.3c-0.3,0-0.8-0.1-1.3-0.3c-0.6-0.1-1.1-0.4-1.6-0.6c-0.5-0.3-1-0.6-1.4-1
		C36.7,141.9,36.5,141.4,36.5,140.8z"/>
	<path class="st1" d="M50.1,120.9c0-0.2,0-0.4,0-0.6c0-0.2,0.1-0.4,0.2-0.6c0.1-0.2,0.2-0.4,0.4-0.5c0.1-0.1,0.3-0.2,0.6-0.2
		c0.3,0,0.7,0,1,0c0.3,0,0.6,0.1,0.9,0.2c0.3,0.1,0.5,0.2,0.7,0.5c0.2,0.2,0.3,0.5,0.3,0.9c0,0.7-0.2,1.2-0.7,1.7
		c-0.5,0.5-1.1,0.8-1.8,0.8c-0.5,0-0.9-0.2-1.2-0.6C50.2,121.9,50.1,121.5,50.1,120.9z M52.5,121.1c-0.1,0-0.1,0.1-0.1,0.2
		c0,0.1,0,0.2,0.1,0.2c0.1,0,0.2-0.1,0.2-0.2C52.6,121.2,52.6,121.1,52.5,121.1z M52.5,128.3c0.3,0,0.6,0,0.8,0
		c0.2,0,0.4,0.1,0.6,0.4c0.1,1.2,0.2,2.5,0.3,3.8c0.1,1.3,0.2,2.5,0.3,3.8c0.1,1.3,0.2,2.6,0.2,3.9c0,1.3,0,2.6,0,3.8
		c0,0.2,0,0.3-0.1,0.3s-0.2,0.1-0.3,0c-0.2,0-0.3,0-0.5,0c-0.2,0-0.4,0-0.7,0.1L52.5,128.3z"/>
	<path class="st1" d="M56.7,134.5c0-0.8,0.2-1.7,0.5-2.7c0.4-1,0.8-1.9,1.5-2.8s1.3-1.6,2.1-2.2c0.8-0.6,1.6-0.9,2.4-0.9
		c0.5,0,0.9,0.1,1.4,0.3c0.5,0.2,0.9,0.4,1.3,0.8c0.4,0.3,0.8,0.7,1.1,1.1c0.3,0.4,0.6,0.8,0.8,1.3c0.2,0.4,0.3,0.9,0.3,1.3
		c0,0.4-0.1,0.8-0.3,1.1l-8.7,1.6c-0.1,0-0.2,0.2-0.3,0.4c-0.1,0.2-0.2,0.5-0.2,0.9c-0.1,0.4-0.1,0.7-0.1,1.2c0,0.4-0.1,0.8-0.1,1.2
		c0,0.4,0,0.8,0,1.1c0,0.3,0,0.6,0,0.7c0,0.8,0.2,1.4,0.6,1.9c0.4,0.5,0.8,0.8,1.4,1.1s1.2,0.4,1.9,0.5c0.7,0.1,1.4,0.1,2.2,0.1
		c0.7,0,1.4,0,2-0.1c0.6-0.1,1.1-0.1,1.6-0.1c0,0.1,0,0.2-0.1,0.4c-0.1,0.1-0.2,0.3-0.3,0.4c-0.1,0.1-0.2,0.2-0.3,0.3
		c-0.1,0.1-0.2,0.2-0.2,0.2c-0.2,0.1-0.6,0.1-1,0.2c-0.5,0.1-0.9,0.2-1.4,0.3c-0.5,0.1-1,0.2-1.4,0.2c-0.4,0.1-0.7,0.1-0.9,0.1
		c-0.8,0.2-1.6,0.1-2.2,0c-0.6-0.2-1.2-0.5-1.6-1c-0.4-0.5-0.8-1-1.1-1.7c-0.3-0.7-0.5-1.4-0.6-2.2c-0.1-0.8-0.2-1.6-0.2-2.4
		C56.6,136.1,56.7,135.3,56.7,134.5z M62.7,127.5c-0.2,0-0.6,0.1-1,0.4c-0.4,0.3-0.8,0.6-1.1,1c-0.3,0.4-0.6,0.8-0.9,1.3
		c-0.2,0.5-0.3,0.8-0.2,1.2c0.7,0.1,1.4,0.1,2.2,0c0.8-0.1,1.5-0.3,2.1-0.5c0.6-0.2,1.1-0.5,1.6-0.8c0.4-0.3,0.6-0.6,0.6-1
		c0-0.3-0.3-0.6-0.8-0.9C64.7,127.8,63.9,127.6,62.7,127.5z"/>
	<path class="st1" d="M70.9,144c-0.1-0.4-0.1-1.1-0.1-1.9c0-0.8-0.1-1.8-0.1-2.8c0-1.1-0.1-2.2-0.1-3.3c0-1.1-0.1-2.2-0.1-3.3
		c0-1-0.1-2-0.1-2.8c0-0.8-0.1-1.5-0.2-1.9c0,0,0-0.1,0-0.2c0-0.1,0-0.2,0-0.4c0-0.1,0-0.3,0-0.3c0-0.1,0-0.2,0-0.2
		c0.4-0.3,0.8-0.4,1-0.3c0.3,0.1,0.5,0.3,0.7,0.7c0.2,0.4,0.3,0.8,0.4,1.4c0.1,0.5,0.1,1.1,0.2,1.6c0,0.5,0.1,1,0.1,1.5s0,0.8,0,1
		c0.1-0.5,0.1-1,0.2-1.6c0.1-0.6,0.3-1.3,0.5-1.9c0.2-0.7,0.5-1.3,0.8-1.9c0.3-0.6,0.7-1.2,1.2-1.7c0.5-0.5,1-0.9,1.6-1.1
		c0.6-0.3,1.3-0.4,2-0.3c1.2,0.1,2.2,0.4,3,1c0.8,0.6,1.4,1.4,1.8,2.4c0.5,1,0.8,2.2,1,3.5s0.3,2.7,0.4,4.2c0.1,1.5,0.1,3,0.1,4.5
		c0,1.5,0,3,0,4.4c-0.2,0.1-0.5,0.1-0.7,0.3s-0.5,0.2-0.6,0.2c-0.2,0-0.3-0.1-0.3-0.4c-0.1-0.2,0-0.7,0.1-1.4c0-0.5,0.1-1.3,0.1-2.3
		c0.1-1,0.1-2.2,0.1-3.4c0-1.3-0.1-2.6-0.2-3.9c-0.1-1.3-0.4-2.6-0.8-3.7s-0.9-2-1.6-2.7c-0.7-0.7-1.6-1-2.7-1
		c-1.1,0.5-2.1,1.3-2.8,2.6c-0.8,1.3-1.4,2.8-1.8,4.5s-0.8,3.6-1,5.6s-0.3,4-0.3,5.9c-0.1,0-0.2,0-0.3,0c-0.2,0-0.3,0-0.5,0
		c-0.2,0-0.3,0-0.5-0.1C71,144,70.9,144,70.9,144z"/>
</g>
</svg>
