<?xml version="1.0" encoding="utf-8"?>
<!-- Generator: Adobe Illustrator 24.2.1, SVG Export Plug-In . SVG Version: 6.00 Build 0)  -->
<svg version="1.1" id="Menü" xmlns="http://www.w3.org/2000/svg" xmlns:xlink="http://www.w3.org/1999/xlink" x="0px" y="0px"
	 viewBox="0 0 105 162" style="enable-background:new 0 0 105 162;" xml:space="preserve">
<style type="text/css">
	.st0{fill:#00A99D;stroke:#FCD203;stroke-width:3;stroke-miterlimit:10;}
	.st1{fill:#FCD203;}
</style>
<g id="Menü_-_Europa">
	<g id="Europa_1_">
		<circle class="st0" cx="52.3" cy="52.2" r="50"/>
		<path class="st1" d="M57.2,69.1v-0.7L58,65l1.9-3.1c0,0,1.4-1,2.2-1s0.2,1.7,0.2,1.9c0,0.2,1.4,1.2,1.9,1.4
			c0.5,0.2,1.4-0.7,1.4-0.7s-1-1.7-1-2.2c0-0.5,4.3-1.7,4.3-1.4c0,0.2-1,2.4-1.2,3.6c-0.2,1.2,5.1,3.6,5.6,3.1
			c0.5-0.5,8.9,4.3,9.2,3.9s-3.1-4.6-3.6-6.3c-0.5-1.7,4.6-4.1,4.3-4.3c-0.2-0.2-2.4-4.1-2.7-5.1c-0.2-1,1.7-0.7,3.6-1.2
			c1.9-0.5,4.1,1.2,5.8,1s0.7-5.1,0-4.6c-0.7,0.5-1.4,0.7-2.7,0.7s-0.5-3.6,0-4.8c0.5-1.2-5.1-8.9-2.4-9.7c2.7-0.7,3.6-3.1,3.6-3.1
			c-0.8-0.6,0.5-1.6-0.9-2.6c-1.4-1-1-1.8-2.7-1c-1.7,0.8-2.2,2.2-2.9,1.7c-0.7-0.6-2.2,0.8-2.8,0.1c-0.6-0.7-2.8-0.7-3.2,0
			c-0.4,0.7-1.8,0.6-3.6,1.4c-1.9,0.9-1.3,0.1-3.6,2c-2.3,1.9-3.6,3.4-4.4,2.2c-0.8-1.2-5-3.3-3.3-3.6s2.4-1,3.3-0.2
			c0.9,0.8,2.3,0.6,2.5,0c0.2-0.6,1.2-1.1-0.1-1.8c-1.3-0.7-1.4-0.2-3.5-1c-2.1-0.8,0-0.6-2.9-1c-2.9-0.4-4.1-0.7-4.9-0.9
			c-0.8-0.2-1.9,0-3-0.1c-1.1-0.1-1.9-0.3-2.9-0.2c-1,0.1-1.5-0.1-2.9,0.9c-1.3,1-2.3,1.4-3.2,2.2s-3.2,2.3-3.9,2.9
			c-0.7,0.6-3,2.3-3.2,3c-0.2,0.7,0.2,1.2-0.7,1.7c-0.9,0.4-1.8,0.4-2.4,0.6c-0.7,0.1,0-1-0.7,0.1c-0.7,1.1-0.4,5.1,0.1,4.5
			s0.2-2.3,2.7-0.7s4,1.4,3.9,3c-0.1,1.5,1.7,1.4,1.9,1.8c0.2,0.3,1.3-0.4,1.3-0.4s2.4-1.5,2.4-2.3c0-0.8,1.5-2.5,1.5-2.5
			s-1.1-0.6-1.1-1.7s0.3-1.4,0.6-2.5c0.2-1.1-1.2,0,2.1-2.1c3.3-2.1,3.5-0.7,3.5-0.7s0.4,0.4-0.1,1.1c-0.6,0.7-1.5,2.4-1.8,2.7
			c-0.2,0.2,1,2,1.5,2c0.6,0,1.7-0.4,2.3-0.3c0.7,0.1,1.8-0.3,2.1-0.1c0.3,0.2,1.1,0.9,0.6,1.4c-0.6,0.6-1.8,1.2-2.7,1
			c-0.9-0.2-2.2-1.8-1.4,0.4c0.8,2.2-0.1,2.8-0.8,2.7c-0.7-0.1-2.1-1.2-1.9,0.4c0.2,1.7-1.4,2.8-1.8,2.8s-1-0.1-1-0.1
			s-1-0.1-1.5-0.1c-0.6,0-1.7,0.6-2,1c-0.3,0.4-0.8,0.1-1.3,0.1c-0.6,0,0-0.7-1.1-0.9c-1.1-0.2-1.8-0.4-2.4,0
			c-0.7,0.4-1.7,0.7-2.1,0.3c-0.4-0.3,0.2-1.1-0.7-0.7s-1.5,1.7-1.9,1.8c-0.3,0.1,1,0-0.3,0.1c-1.3,0.1-1.9,0.4-2.5,0.7s0.2,1.5-1,2
			c-1.2,0.4-0.3-0.6-1.5,0.4c-1.2,1-1.4,1.9-1.9,2c-0.4,0.1-0.3,0.3-1.3,0.4c-1,0.1-0.9,0.2-1.4,0.3c-0.6,0.1,0.1,0.3-1.1,0.1
			s-2.1,0.2-1.9,0.7c0.2,0.4,4.3,1.7,1.2,1.5c-3.1-0.1-2.1,0.4-1.4,0.9c0.7,0.4,1,0.9,1.3,1s0.9,1.4,0.9,1.4s0.9-0.1,0.3,0.7
			s0.2,1-0.3,2s-0.6,0.3-1,0.6s-1.1,1-2.3,0.3c-1.2-0.7-2.1-1-3.5-1.1c-1.4-0.1-0.4-0.3-1.4,0.4c-1,0.8-1.2,1.7-1.1,2.7
			c0.1,1,0.2,2.3-0.1,3c-0.3,0.7-0.3,1.3-0.1,2.3c0.2,1,0.9,1.4,0.9,1.4s1.5,0.2,1.9,0.3s1-0.2,1.9,0.3c0.9,0.6,1.8,0.8,2.3,0.1
			s2.8-1.4,3.4-2.1s1.1-0.9,0.8-1.5c-0.3-0.7,0.7-2.3,1.2-2.7s1.8-0.7,1.8-0.7l1.3-2c0,0,1.1-1.2,1.7-1.1c0.6,0.1,3.6,1.2,3.4-0.2
			c-0.2-1.4,0.2-1.9,0.6-1.3c0.3,0.6,1.2,0.3,1.2,0.3s0.4-0.2,0.8,0.1c0.3,0.3,0.8,1.8,1.4,2.1c0.7,0.3,1.2,0.7,1.7,0.9
			s0.9,0,1.8,0.8c0.9,0.8,1.8,1.2,1.9,1.5c0.1,0.3,0.9,1.1,0.9,1.1s0.8,0.2,0.6,0.7s-1.3,1.8-1.9,2c-0.6,0.2-2-0.2-1.4,0.2
			c0.6,0.4,1.3,1,1.7,0.7c0.3-0.3,2.4-2.5,2.4-2.5s-0.1,0.1,0-0.6s0-1.4,0.6-1.1c0.6,0.3,0.9,0.8,1.1,0.3s0.4-0.2-0.1-0.6
			c-0.6-0.3-1.9-2.2-2.5-2.3s-2.3-1.2-2.3-1.2s-0.3-0.3-1.1-1.2c-0.8-0.9-1-0.7-1.2-1.4c-0.2-0.8-0.9-1.8,0.3-1.5
			c1.2,0.2,2,1,3.1,1.7c1.1,0.7,0.9,0.9,1.9,1.5s1.1,1.3,1.9,1.2c0.8-0.1,1.7,0.4,1.7,1.4s0.2,2.1,0.4,2.3c0.2,0.2,0.9,0.7,1.1,1.1
			c0.2,0.4,0.7,1.5,1,2c0.3,0.4,0.7,0.8,1,1.3c0.3,0.6,0.4-0.1,0.8,0.1c0.3,0.2,0.8,0.1,0.8-0.3c0-0.4,0.1-1.2,0.1-1.2
			s1.5-0.4,1.1-0.7c-0.4-0.2-1.8-1.5-1.7-2c0.1-0.4,0-1.3,0.6-1.2c0.6,0.1,1.1,1.1,2.3,0.2"/>
	</g>
</g>
<g>
	<path class="st1" d="M2.8,122.1c0.4-0.6,1-1.2,1.7-1.6c0.7-0.5,1.5-0.8,2.4-1.1c0.9-0.3,1.8-0.5,2.9-0.7s2-0.3,3-0.4
		s1.9-0.1,2.9-0.2c0.9,0,1.7,0,2.5,0c0.1,0,0.2,0,0.4,0c0.2,0,0.4,0,0.6,0c0.2,0,0.4,0,0.6,0c0.2,0,0.3,0,0.4,0c0.1,0.6,0,1-0.2,1.3
		c-0.2,0.2-0.5,0.4-0.9,0.4s-0.8,0-1.2,0c-0.4-0.1-0.7-0.1-0.9,0c-0.3,0-0.7,0.1-1.3,0.2c-0.6,0.1-1.2,0.3-1.9,0.4
		c-0.7,0.2-1.5,0.3-2.3,0.5c-0.8,0.2-1.6,0.3-2.3,0.5c-0.7,0.2-1.4,0.3-1.9,0.4c-0.6,0.1-1,0.2-1.3,0.3c-0.4,0.2-0.7,0.4-0.7,0.6
		c-0.1,0.2-0.1,0.5-0.1,0.9c0,0.6,0,1.2,0.1,1.9c0.1,0.7,0.1,1.4,0.2,2.1c0.1,0.7,0.2,1.3,0.3,1.9c0.1,0.6,0.2,1,0.2,1.3
		c0.1,0,0.3,0,0.6,0c0.3,0,0.5,0,0.6,0c0.6,0,1.2-0.1,1.8-0.2c0.6-0.1,1.2-0.2,1.8-0.4c0.6-0.1,1.2-0.3,1.8-0.3
		c0.6-0.1,1.3-0.1,1.9-0.1v1.5c-0.3,0-0.7,0-1.1,0.1s-1,0.1-1.6,0.2c-0.6,0.1-1.2,0.2-1.8,0.3c-0.6,0.1-1.1,0.3-1.6,0.4
		c-0.5,0.1-0.9,0.3-1.2,0.4c-0.3,0.1-0.5,0.3-0.5,0.4v8.5c1.3,0,2.6,0,3.8-0.1s2.5-0.2,3.8-0.3c1.3-0.1,2.6-0.2,3.9-0.3
		c1.3-0.1,2.6-0.1,3.9-0.1c0,0.3-0.1,0.6-0.3,0.8c-0.2,0.2-0.5,0.4-0.8,0.5s-0.6,0.2-0.9,0.3c-0.3,0.1-0.6,0.1-0.7,0.1
		c-0.1,0-0.5,0.1-1,0.1c-0.6,0.1-1.3,0.1-2.1,0.2c-0.8,0.1-1.8,0.2-2.8,0.3c-1,0.1-2.1,0.2-3.1,0.3c-1,0.1-2,0.2-2.9,0.3
		c-0.9,0.1-1.7,0.2-2.3,0.2c-0.1,0-0.2,0-0.4,0c0-3.7-0.1-7.4-0.3-11.1C4.3,129.4,3.7,125.7,2.8,122.1z"/>
	<path class="st1" d="M23.7,128.3c0-0.1,0.1-0.3,0.3-0.4c0.2-0.1,0.4-0.2,0.7-0.3c0.3-0.1,0.5-0.1,0.8-0.2c0.2,0,0.4,0,0.5,0.1
		c0.2,3.4,0.5,6.1,1,8.1c0.5,2,1,3.5,1.6,4.4c0.6,0.9,1.3,1.4,2,1.4c0.7,0,1.4-0.3,2.1-0.9c0.7-0.6,1.3-1.5,1.9-2.5
		c0.6-1.1,1.1-2.2,1.4-3.4s0.6-2.5,0.7-3.7s0-2.3-0.3-3.3l2.5-0.3c0,0.4,0.1,1.1,0.2,2s0.3,2,0.4,3.2c0.1,1.2,0.3,2.4,0.5,3.7
		c0.2,1.3,0.4,2.5,0.5,3.6c0.1,1.1,0.3,2.1,0.4,2.8c0.1,0.8,0.2,1.3,0.2,1.5h-1.8l-1.9-7.1c-0.4,1-0.8,1.9-1.4,2.7
		c-0.5,0.9-1.1,1.6-1.8,2.3c-0.6,0.7-1.3,1.2-2,1.5c-0.7,0.4-1.4,0.5-2.1,0.5c-0.7-0.1-1.4-0.4-2-1s-1.3-1.5-1.8-2.7
		c-0.6-1.2-1-2.9-1.5-4.8S23.9,131.1,23.7,128.3z"/>
	<path class="st1" d="M42.2,128.2c0.3-0.1,0.6-0.2,0.9-0.1s0.5,0.2,0.6,0.5c0.2,0.2,0.3,0.5,0.4,0.8s0.1,0.6,0.2,0.8
		c0.4-0.6,0.9-1.1,1.5-1.5c0.7-0.4,1.4-0.6,2.2-0.7c0.8-0.1,1.5-0.1,2.3-0.1c0.8,0.1,1.4,0.2,1.9,0.5c0.5,0.3,0.9,0.6,1.1,1.1
		c0.2,0.5,0.2,1-0.2,1.6c-0.7-0.4-1.5-0.7-2.2-1s-1.5-0.3-2.3-0.2s-1.4,0.4-2.1,0.8c-0.6,0.5-1.1,1.2-1.6,2.3
		c-0.4,1-0.7,2.4-0.8,4.1c-0.1,1.7,0,3.8,0.3,6.4h-1.6c-0.1-0.9-0.1-1.7-0.2-2.5s-0.1-1.6-0.2-2.5c-0.1-0.9-0.1-1.8-0.2-2.7
		c-0.1-0.9-0.1-1.8-0.1-2.7s-0.1-1.6-0.1-2.2c0-0.1,0-0.2,0-0.5c0-0.2,0-0.5,0-0.8s0-0.6,0-0.8S42.2,128.3,42.2,128.2z"/>
	<path class="st1" d="M55.2,136.7c0-0.6,0.1-1.4,0.2-2.2c0.1-0.8,0.3-1.7,0.5-2.5c0.2-0.8,0.6-1.7,0.9-2.5s0.8-1.6,1.3-2.2
		c0.5-0.6,1.1-1.2,1.8-1.6c0.7-0.4,1.4-0.6,2.3-0.6c0.9,0,1.7,0.3,2.4,0.9c0.8,0.6,1.4,1.4,1.9,2.3c0.5,1,0.9,2,1.2,3.2
		c0.3,1.2,0.4,2.3,0.3,3.4c0,1.6-0.3,3.1-0.9,4.4c-0.6,1.3-1.4,2.3-2.4,3.1c-1,0.8-2,1.3-3.1,1.6s-2.1,0.2-3.1-0.2
		c-1-0.4-1.8-1.2-2.4-2.4C55.6,140.3,55.2,138.7,55.2,136.7z M56.8,136.8c0.1,1.7,0.4,3,0.9,3.9s1.1,1.5,1.8,1.8s1.5,0.3,2.3,0
		c0.8-0.3,1.6-0.8,2.3-1.5c0.7-0.7,1.3-1.6,1.8-2.6c0.5-1.1,0.8-2.2,0.8-3.5c0.1-1,0-1.9-0.2-2.9c-0.2-0.9-0.5-1.8-0.9-2.5
		c-0.4-0.7-0.8-1.3-1.4-1.7c-0.5-0.4-1.1-0.6-1.8-0.6c-0.7,0-1.2,0.2-1.8,0.5c-0.5,0.3-1,0.8-1.4,1.3c-0.4,0.6-0.8,1.2-1.1,1.9
		c-0.3,0.7-0.6,1.4-0.8,2.1c-0.2,0.7-0.4,1.4-0.5,2.1C56.8,135.8,56.8,136.3,56.8,136.8z"/>
	<path class="st1" d="M71.6,133.5c-0.1,0.1-0.3,0.1-0.5,0.1c-0.2,0-0.4-0.1-0.5-0.1c-0.2-0.1-0.3-0.2-0.4-0.3s-0.2-0.3-0.2-0.4
		c0-0.9,0.3-1.8,0.9-2.6s1.3-1.4,2.1-2c0.8-0.6,1.7-1,2.7-1.3c1-0.3,1.8-0.5,2.6-0.5c1.3,0,2.4,0.2,3.4,0.6c1,0.4,1.9,1,2.6,1.7
		c0.7,0.7,1.3,1.6,1.7,2.6c0.4,1,0.6,2,0.6,3.2c0,1.4-0.3,2.7-1,3.9c-0.7,1.2-1.5,2.2-2.6,3c-1.1,0.8-2.3,1.5-3.6,1.9
		c-1.3,0.4-2.6,0.6-3.9,0.5c0.1,1,0,2.1,0,3.4s-0.2,2.7-0.3,4.2c-0.1,1.5-0.3,3.1-0.5,4.8s-0.4,3.4-0.6,5.2c0,0-0.1,0-0.2,0
		s-0.3,0-0.5-0.1c-0.2,0-0.4-0.1-0.5-0.1c-0.2,0-0.3,0-0.3,0c0.2-2.3,0.3-4.6,0.5-6.9c0.1-2.3,0.1-4.7,0.1-7c0-2.3-0.2-4.7-0.4-7
		C72.5,138,72.1,135.8,71.6,133.5z M77.9,128.7c-0.5,0-1.1,0.1-1.7,0.2c-0.6,0.1-1.1,0.3-1.6,0.6c-0.5,0.2-0.8,0.6-1.1,1
		c-0.3,0.4-0.4,0.9-0.3,1.5c0.1,0.3,0.1,0.7,0.2,1.2c0.1,0.5,0.2,1.1,0.3,1.8s0.2,1.3,0.4,2.1c0.1,0.7,0.2,1.4,0.4,2.1
		s0.2,1.3,0.3,1.8c0.1,0.5,0.2,0.9,0.2,1.2c0.3-0.1,0.8-0.1,1.4-0.2c0.6-0.1,1.2-0.2,1.9-0.3c0.7-0.2,1.4-0.4,2.1-0.7
		c0.7-0.3,1.4-0.7,2-1.2c0.6-0.5,1.2-1.2,1.7-1.9c0.5-0.8,0.8-1.7,1-2.9c0-1.1-0.2-2-0.6-2.7c-0.4-0.8-0.9-1.4-1.6-1.9
		c-0.7-0.5-1.4-0.9-2.3-1.1C79.8,128.8,78.9,128.7,77.9,128.7z"/>
	<path class="st1" d="M88.9,140.6c0-1.6,0.4-2.7,1.3-3.4c0.9-0.7,2-1.1,3.4-1.1c0.5,0,1.1,0,1.5,0c0.5,0,0.9,0.1,1.4,0.2
		c0.4,0.1,0.9,0.3,1.3,0.5c0.4,0.2,0.9,0.5,1.3,0.9c0-0.1,0-0.3,0-0.5c0-0.3,0-0.5,0-0.8c0-0.3,0-0.6,0-0.8c0-0.3,0-0.4,0-0.6
		c0-0.5,0-1.1,0-1.9s-0.1-1.6-0.2-2.4s-0.4-1.6-0.7-2.3s-1-1.3-1.8-1.7c-0.6,0-1.1,0.1-1.6,0.3c-0.5,0.2-1,0.4-1.5,0.6
		c-0.5,0.2-1,0.4-1.5,0.6c-0.5,0.2-1,0.3-1.6,0.3c0-0.7,0.2-1.3,0.6-1.7c0.4-0.5,0.9-0.8,1.5-1c0.6-0.2,1.2-0.4,1.9-0.5
		s1.2-0.1,1.7-0.1c0.5,0.1,0.9,0.2,1.4,0.3c0.4,0.1,0.8,0.3,1.2,0.7s0.7,0.8,1,1.5c0.3,0.7,0.6,1.6,0.8,2.8c0.2,1.2,0.4,2.7,0.6,4.6
		c0.2,1.8,0.3,4.1,0.4,6.8c0.1,0.4-0.1,0.7-0.3,0.9c-0.3,0.3-0.7,0.5-1.2,0.7c-0.5,0.2-1,0.3-1.7,0.5s-1.2,0.2-1.9,0.3
		c-0.6,0.1-1.2,0.1-1.8,0.1c-0.6,0-1.1,0-1.4,0c-0.5,0-1-0.1-1.5-0.2c-0.5-0.2-1-0.4-1.4-0.7c-0.4-0.3-0.8-0.7-1-1.1
		C89,141.7,88.9,141.2,88.9,140.6z M94.2,137.8c-1.4,0.4-2.3,0.8-2.9,1.4c-0.5,0.5-0.8,1-0.7,1.5c0.1,0.5,0.4,0.9,1,1.3
		c0.6,0.4,1.3,0.7,2.1,0.8s1.7,0.1,2.7-0.2c1-0.3,1.9-0.8,2.7-1.5c-0.3-0.8-0.7-1.4-1-1.8c-0.3-0.4-0.7-0.7-1.1-1
		c-0.4-0.2-0.8-0.4-1.3-0.4C95.3,137.8,94.8,137.8,94.2,137.8z"/>
</g>
</svg>
