<?xml version="1.0" encoding="utf-8"?>
<!-- Generator: Adobe Illustrator 24.2.1, SVG Export Plug-In . SVG Version: 6.00 Build 0)  -->
<svg version="1.1" id="Menü" xmlns="http://www.w3.org/2000/svg" xmlns:xlink="http://www.w3.org/1999/xlink" x="0px" y="0px"
	 viewBox="0 0 104 162" style="enable-background:new 0 0 104 162;" xml:space="preserve">
<style type="text/css">
	.st0{fill:#009245;stroke:#F15A24;stroke-width:3;stroke-miterlimit:10;}
	.st1{fill:#F15A24;}
</style>
<g id="Menü_-_Europa">
	<g id="Afrika_1_">
		<circle class="st0" cx="52.3" cy="52.2" r="50"/>
		<g>
			<path class="st1" d="M65.7,24c-0.7-0.1-1.5,0-2.5-0.2c-1-0.2-2.8,0.2-3.5-0.2C59,23.1,58,23.5,57.5,23s-1.2-0.4-1.5-0.7
				c-0.3-0.3-0.4-1.1-0.4,0.1c0,1.2-0.7,1.3-0.8,1.9c-0.1,0.6,0.2,0.3-0.6,0.2c-0.8-0.1-1,0.4-2.2-0.5c-1.2-0.9-1.8-0.9-2.4-1.3
				c-0.6-0.4-1.2,0.7-1.8-0.5c-0.6-1.2-1.4-0.2-1.5-1.2c-0.1-1,0-0.9,0.1-1.5c0.1-0.6,0.9-1.1,0.5-1.3c-0.4-0.2-0.1-0.6-0.6-0.4
				c-0.5,0.2-1.3,0.3-1.9,0.5c-0.6,0.2,1.3,0-1.6,0.2C40,18.7,39.1,19,39.1,19s-0.2-0.1-0.6,0.1c-0.4,0.3-0.9,0.7-1.4,0.5
				c-0.5-0.2-0.8-0.1-1.3-0.1c-0.4,0.1-0.7-0.4-1.3,0c-0.5,0.4-1.1,0.5-1.3,0.4c-0.2-0.2-0.6-0.7-0.6-0.7l0,0l-1.1,1.5l-0.7,0.7
				l-1.5,0.8l-0.2,0.7c0,0-0.6,0.6-0.5,1s0.1,1,0.1,1s-1,1-1.5,1.3c-0.4,0.3-1,1-1,1s-0.4,0.4-0.6,0.6s-0.6,0.6-0.9,1
				c-0.3,0.4-0.6,0.7-0.7,1c-0.1,0.2-0.6,0.7-0.8,1.6c-0.2,0.8-0.8,1.8-0.8,1.8l-0.1,0.4c0.1,1.3,0.1,1.5,0.2,1.9
				c0.1,0.4,0.3,0.3,0.1,1.3c-0.1,1-0.1,1.3-0.3,1.8c-0.1,0.4-0.6,1.3-0.7,1.6c-0.1,0.4,0.3,1,0.3,1s0.2,1,0.1,1.2
				c-0.1,0.2,0.1,0.7,0.1,0.7s0.9,0.5,1.2,0.8c0.3,0.3,0.8,0.7,0.9,1c0.1,0.2,0.7,1.3,0.7,1.5c0.1,0.2,0.7,1,0.8,1.3
				c0.1,0.2,0.9,1,0.9,1s1,0.7,1.2,1c0.2,0.3,0.9,0.4,1.1,0.7c0.2,0.2,0.7,0.1,1,0.4c0.3,0.2,0.9-0.1,1.2,0s1.1-0.1,1.3-0.3
				c0.2-0.1,0.7-0.7,1.1-0.4c0.4,0.2,0.6,0,0.9,0.1c0.3,0.1,0.7-0.3,1-0.3c0.3,0,1-0.3,1.3-0.3c0.2,0,1-0.4,1.3-0.4s0.7-0.3,1-0.1
				s0.2-0.3,0.9-0.1c0.7,0.2,0.9,0,1.1,0.2c0.2,0.2,0.5,0,0.7,0.3c0.2,0.3,0.6,0.5,0.7,0.8c0.1,0.3,0.5,0.6,0.5,0.6l0.4,0.1
				c0,0,0.6-0.4,0.7-0.1s0.8,0.2,0.8,0.2l0.7,0.7l0.2,0.3c0,0,0.4,1.2,0.4,1.6c-0.1,0.4-0.1,1.4-0.3,1.6c-0.2,0.2-0.4,1.2-0.4,1.2
				s-0.3,0.3,0.4,0.9s1.1,1.1,1.3,1.4c0.2,0.3,0.8,1.1,0.9,1.6c0.1,0.5,0.2,0.8,0.5,1.5s0.7,0.7,0.7,1.5c0.1,0.7,0.2,0.7,0.1,1.3
				c-0.1,0.5-0.3,0.6-0.1,1c0.2,0.4,0.5,1,0.4,1.3c-0.1,0.2-0.2,1.2-0.2,1.2l-0.1,0.4l-0.7,1.3l-0.4,0.7c-0.1,0.5-0.4,1-0.4,1.8
				c0.1,0.7-0.4,0.7,0.2,1.5c0.6,0.7,0.9,1.6,1.3,2.2c0.4,0.7,0.6,1.3,0.7,1.8c0.1,0.4,0.4,0.6,0.5,1.2s0.2,0.9,0.2,1.3
				s-0.1,1.3,0.1,1.6s0.2,0.9,0.3,1.2c0.1,0.3-0.2,0.4,0.2,0.9c0.4,0.5,0.7,0.8,1,1.2c0.3,0.4,0.2,0.2,0.4,0.7
				c0.2,0.5,0.5,0.8,0.6,1.3c0.1,0.4,0.1,1.6,0.4,2.1c0.2,0.5,0.5,1,0.5,1s0.8,0.5,1.1,0.4c0.3-0.1,0.9-0.7,1.3-0.5
				c0.4,0.2,0.8,0,1.2,0s0.7-0.4,1.1-0.4c0.4,0,0.9-0.6,1.2-0.4c0.3,0.1,0.7-0.1,1-0.5c0.4-0.4,0.6-0.7,1.3-1.3s0.6-0.6,1-1
				c0.4-0.4,0.9-1.2,1.4-1.3c0.5-0.1,0.7-0.7,0.8-1s0.2-0.6,0.4-0.9c0.2-0.3,0.1,0.1,0.4-0.9s0.8-1.3,1.2-1.6
				c0.4-0.2,0.6-0.7,0.8-0.7c0.2-0.1,0.6,0.2,0.4-0.4c-0.1-0.7,0-1.6-0.1-1.9s-0.4,0.5-0.3-0.6c0.1-1.1,0.9-2.2,0.9-2.2
				s1.1-1.4,1.5-1.6c0.4-0.2,0.4-0.4,1-0.7c0.5-0.3,1.6-1,1.6-1.4c0-0.4,0.4-1.3,0.4-1.6s0-0.4-0.1-1.7c-0.1-1.3,0.1-1-0.3-2.2
				c-0.4-1.2-0.5-2.7-0.8-3.1c-0.3-0.4-0.1-1.3-0.1-1.6c0-0.3,0.5-1,0.7-1.3c0.2-0.3,1.2-1.5,1.2-1.5s1.5-1.7,2-2.5
				c0.5-0.8,1-1.6,1.4-1.9s1.3-1,1.8-1.7c0.5-0.7,1.6-2.2,1.6-2.4c0.1-0.2,0.7-1,0.7-1s0.8-1,1-1.5c0.1-0.5,0.9-3.4,0.7-3.3
				c-0.1,0.1-1,0.3-1.3,0.4c-0.3,0.1,0.4,0.4-1.7,0.2c-2.2-0.1-3.3,0.2-3.3,0.2c-0.7-0.1-1.2,0.6-1.4-0.4c-0.2-1-0.4-1.6-0.8-2.4
				s-0.7-1-1.4-2c-0.7-1-0.6-0.5-1.2-1.3c-0.6-0.7-0.7-0.5-1.1-1.5c-0.4-1-0.7-0.6-1.1-1.9c-0.4-1.3-0.7-1.5-1-2.2
				c-0.2-0.7-0.5-1-0.7-1.6c-0.1-0.7-1.9-4.1-2.1-4.3c-0.2-0.2-0.6-1.4-0.5-1.2L65.7,24z"/>
			<path class="st1" d="M82.4,68.2c-0.2,0.8-1,2-1,2l-1.5,0.7c0,0-0.5,0.4-0.8,0.5c-0.3,0.1-1,0.4-1,0.4s-0.7-0.1-0.4,0.5
				c0.2,0.7,0.3,1.5,0.2,1.7c-0.1,0.2-0.1,0.7-0.1,1.3c0,0.6-0.2,1.3-0.6,1.5c-0.4,0.1-0.7,0.3-0.7,0.8c0.1,0.5,0.1,2.1,0.1,2.1
				l1,1.5c0,0,0.3-0.2,0.9-0.2c0.6,0,1.2-0.5,1.2-0.5s0.7,0.1,0.6-0.7c-0.1-0.8,0.3-1.8,0.2-2c-0.1-0.2,0.7-1.2,0.7-1.4
				c0-0.2,0.7-1.3,0.7-1.6s0.5-1,0.6-1.4c0.1-0.4,0.1-1.5,0.3-1.8c0.1-0.3,0.2-0.6,0.2-0.9s0-0.9,0-0.9L82.4,68.2L82.4,68.2z"/>
		</g>
	</g>
</g>
<g>
	<path class="st1" d="M19.6,118.6c1,0,1.9,0.3,2.6,0.9c0.8,0.6,1.4,1.4,2,2.4c0.6,1,1,2.1,1.4,3.4c0.4,1.3,0.7,2.6,0.9,4
		c0.2,1.4,0.4,2.8,0.6,4.3c0.1,1.4,0.2,2.8,0.3,4c0.1,1.3,0.1,2.4,0.1,3.4c0,1,0,1.8,0,2.4h-1l-1.6-8.7c-0.1-0.1-0.4-0.2-0.9-0.2
		c-0.5,0-1,0-1.7,0c-0.6,0.1-1.3,0.1-2.1,0.2c-0.8,0.1-1.5,0.2-2.1,0.2c-0.7,0-1.3,0.1-1.8,0c-0.5,0-0.9-0.1-1.2-0.3v8.7h-2.1
		c0-0.1,0-0.2,0-0.5c0-0.2,0-0.5,0-0.7s0-0.5,0-0.7c0-0.2,0-0.4,0-0.5c0.2-1.6,0.3-3.2,0.4-4.8c0.1-1.6,0.2-3.2,0.3-4.7
		c0.1-1.5,0.3-3,0.6-4.4c0.2-1.4,0.6-2.7,1-3.8c0.4-1.1,1-2.1,1.6-2.9C17.8,119.6,18.6,119,19.6,118.6z M20.3,120.5
		c-0.7,0-1.3,0.3-1.8,0.8c-0.5,0.5-0.9,1.2-1.2,2c-0.3,0.8-0.5,1.7-0.7,2.7s-0.3,1.9-0.3,2.9c-0.1,0.9-0.1,1.8-0.1,2.6
		c0,0.8,0,1.4,0,1.9c1.3,0,2.7-0.1,4.1-0.3s2.7-0.4,3.9-0.6c0-0.1,0-0.3,0.1-0.5c0-0.2,0-0.5,0-0.8c0-0.3,0-0.6,0-0.9
		c0-0.3,0-0.5,0-0.5c0-0.9,0-1.8-0.1-2.6c-0.1-0.8-0.3-1.6-0.6-2.4s-0.7-1.5-1.2-2.2C21.9,121.7,21.2,121.1,20.3,120.5z"/>
	<path class="st1" d="M33.9,144c0.2-1.7,0.4-3.2,0.5-4.3s0.1-2.1,0.1-3c0-0.8,0-1.6-0.1-2.2c0-0.6,0-1.3,0-2c-0.4,0-0.7,0.1-1.1,0.2
		s-0.8,0.3-1.3,0.6c-0.4,0.2-0.9,0.4-1.3,0.6c-0.4,0.2-0.8,0.2-1.2,0.2c-0.1,0-0.2-0.1-0.3-0.2c0-0.1-0.1-0.2-0.1-0.4
		c0-0.2,0-0.3-0.1-0.5c0-0.2-0.1-0.4-0.1-0.6l5.5-2.4c-0.5-4.1-0.7-7.5-0.6-10.3c0.1-2.7,0.5-5,1.2-6.6c0.6-1.7,1.5-2.9,2.5-3.7
		c1.1-0.8,2.2-1.3,3.5-1.5c1,0,2,0.2,2.9,0.6c0.9,0.4,1.7,0.9,2.4,1.6c0.7,0.7,1.3,1.5,1.7,2.4c0.4,0.9,0.6,1.9,0.6,2.9
		c-0.4,0-0.8-0.1-1.2-0.4s-0.7-0.6-1-1.1c-0.3-0.4-0.7-0.9-1-1.4c-0.3-0.5-0.7-1-1.1-1.4c-0.4-0.4-0.8-0.8-1.3-1.1
		c-0.5-0.3-1-0.4-1.6-0.4c-0.5,0.1-1.1,0.3-1.6,0.7c-0.5,0.3-1,0.8-1.5,1.5c-0.5,0.6-0.9,1.4-1.2,2.4c-0.4,1-0.6,2.2-0.8,3.6
		c-0.2,1.4-0.3,3.1-0.3,5c0,1.9,0.1,4.1,0.3,6.6l5.1,0c0.1,0.4,0.1,0.7,0.1,0.9c0,0.3-0.2,0.5-0.6,0.6c-0.3,0.1-0.7,0.2-1.1,0.3
		c-0.5,0.1-0.9,0.2-1.4,0.2c-0.5,0.1-0.9,0.1-1.3,0.2s-0.7,0.1-0.9,0.1c0,1.3,0,2.5,0,3.7c0.1,1.2,0.1,2.3,0.1,3.3c0,1.1,0,2,0,3
		c0,0.9-0.2,1.8-0.4,2.6c0,0-0.1,0-0.2,0s-0.3,0-0.4,0c-0.1,0-0.3,0-0.6,0c-0.1,0-0.2,0-0.3,0c-0.1,0-0.2,0-0.3,0.1
		c-0.1,0-0.2,0-0.2,0C33.9,144.2,33.9,144.1,33.9,144z"/>
	<path class="st1" d="M44.4,128.2c0.3-0.1,0.6-0.2,0.9-0.1s0.5,0.2,0.6,0.5c0.2,0.2,0.3,0.5,0.4,0.8s0.1,0.6,0.2,0.8
		c0.4-0.6,0.9-1.1,1.5-1.5c0.7-0.4,1.4-0.6,2.2-0.7c0.8-0.1,1.5-0.1,2.3-0.1c0.8,0.1,1.4,0.2,1.9,0.5c0.5,0.3,0.9,0.6,1.1,1.1
		c0.2,0.5,0.2,1-0.2,1.6c-0.7-0.4-1.5-0.7-2.2-1s-1.5-0.3-2.3-0.2s-1.4,0.4-2.1,0.8c-0.6,0.5-1.1,1.2-1.6,2.3
		c-0.4,1-0.7,2.4-0.8,4.1c-0.1,1.7,0,3.8,0.3,6.4h-1.6c-0.1-0.9-0.1-1.7-0.2-2.5s-0.1-1.6-0.2-2.5c-0.1-0.9-0.1-1.8-0.2-2.7
		c-0.1-0.9-0.1-1.8-0.1-2.7s-0.1-1.6-0.1-2.2c0-0.1,0-0.2,0-0.5c0-0.2,0-0.5,0-0.8s0-0.6,0-0.8S44.4,128.3,44.4,128.2z"/>
	<path class="st1" d="M56.8,120.9c0-0.2,0-0.4,0-0.6c0-0.2,0.1-0.4,0.2-0.6c0.1-0.2,0.2-0.4,0.4-0.5c0.1-0.1,0.3-0.2,0.6-0.2
		c0.3,0,0.7,0,1,0c0.3,0,0.6,0.1,0.9,0.2c0.3,0.1,0.5,0.2,0.7,0.5c0.2,0.2,0.3,0.5,0.3,0.9c0,0.7-0.2,1.2-0.7,1.7
		c-0.5,0.5-1.1,0.8-1.8,0.8c-0.5,0-0.9-0.2-1.2-0.6C56.9,121.9,56.8,121.5,56.8,120.9z M59.2,121.1c-0.1,0-0.1,0.1-0.1,0.2
		c0,0.1,0,0.2,0.1,0.2c0.1,0,0.2-0.1,0.2-0.2C59.3,121.2,59.3,121.1,59.2,121.1z M59.2,128.3c0.3,0,0.6,0,0.8,0
		c0.2,0,0.4,0.1,0.6,0.4c0.1,1.2,0.2,2.5,0.3,3.8c0.1,1.3,0.2,2.5,0.3,3.8c0.1,1.3,0.2,2.6,0.2,3.9c0,1.3,0,2.6,0,3.8
		c0,0.2,0,0.3-0.1,0.3s-0.2,0.1-0.3,0c-0.2,0-0.3,0-0.5,0c-0.2,0-0.4,0-0.7,0.1L59.2,128.3z"/>
	<path class="st1" d="M64.7,143.1c0-0.6-0.1-1.5-0.2-2.6c-0.1-1.2-0.2-2.5-0.3-4c-0.1-1.5-0.2-3.1-0.3-4.7c-0.1-1.7-0.2-3.2-0.3-4.7
		c-0.1-1.5-0.2-2.8-0.3-4s-0.1-2.1-0.2-2.6c0-0.2,0-0.7-0.1-1.3c0-0.6,0-1.3-0.1-2c0-0.7,0-1.4-0.1-2c0-0.6,0-1,0-1.3
		c0.4,0,0.7,0.1,1,0.2c0.3,0.2,0.5,0.4,0.7,0.8c0.1,0.6,0.1,1.4,0.2,2.4c0.1,1.1,0.1,2.3,0.2,3.6c0.1,1.4,0.2,2.8,0.3,4.4
		c0.1,1.6,0.2,3.1,0.3,4.6c0.1-0.1,0.2-0.3,0.2-0.4c0.1-0.1,0.1-0.2,0.2-0.2c0.3-0.3,0.7-0.7,1.1-1.1c0.4-0.4,0.8-0.9,1.3-1.4
		c0.5-0.5,0.9-0.9,1.4-1.4s0.9-0.9,1.2-1.2s0.7-0.7,0.9-0.9c0.2-0.2,0.4-0.3,0.5-0.3l1.6,0.8c-0.5,0.4-1,0.9-1.6,1.4
		c-0.6,0.5-1.2,1.1-1.8,1.7s-1.1,1.3-1.7,1.9c-0.5,0.7-1,1.3-1.3,2c0,0,0,0.1,0,0.2c0,0.1,0,0.2,0,0.2c0,0,0,0.1,0,0.2
		c0,0.1,0,0.2,0,0.2l9.5,11c0,0,0,0.1,0,0.2c0,0.1,0,0.2,0,0.2c0,0.5-0.3,0.9-0.8,1.2L66,132.4c0,0-0.1-0.1-0.1-0.1
		c0-0.1-0.1-0.1-0.1-0.2l0.5,8c0,0.1,0,0.4,0,0.8c0,0.4,0,0.8,0,1.3c0,0.5,0,0.9,0,1.3c0,0.4,0,0.7,0,0.8c-0.4,0-0.7-0.1-1-0.2
		C65.1,143.7,64.8,143.4,64.7,143.1z"/>
	<path class="st1" d="M79,140.6c0-1.6,0.4-2.7,1.3-3.4c0.9-0.7,2-1.1,3.4-1.1c0.5,0,1.1,0,1.5,0c0.5,0,0.9,0.1,1.4,0.2
		c0.4,0.1,0.9,0.3,1.3,0.5c0.4,0.2,0.9,0.5,1.3,0.9c0-0.1,0-0.3,0-0.5c0-0.3,0-0.5,0-0.8c0-0.3,0-0.6,0-0.8c0-0.3,0-0.4,0-0.6
		c0-0.5,0-1.1,0-1.9s-0.1-1.6-0.2-2.4s-0.4-1.6-0.7-2.3s-1-1.3-1.8-1.7c-0.6,0-1.1,0.1-1.6,0.3c-0.5,0.2-1,0.4-1.5,0.6
		c-0.5,0.2-1,0.4-1.5,0.6c-0.5,0.2-1,0.3-1.6,0.3c0-0.7,0.2-1.3,0.6-1.7c0.4-0.5,0.9-0.8,1.5-1c0.6-0.2,1.2-0.4,1.9-0.5
		s1.2-0.1,1.7-0.1c0.5,0.1,0.9,0.2,1.4,0.3c0.4,0.1,0.8,0.3,1.2,0.7s0.7,0.8,1,1.5c0.3,0.7,0.6,1.6,0.8,2.8c0.2,1.2,0.4,2.7,0.6,4.6
		c0.2,1.8,0.3,4.1,0.4,6.8c0.1,0.4-0.1,0.7-0.3,0.9c-0.3,0.3-0.7,0.5-1.2,0.7c-0.5,0.2-1,0.3-1.7,0.5s-1.2,0.2-1.9,0.3
		c-0.6,0.1-1.2,0.1-1.8,0.1c-0.6,0-1.1,0-1.4,0c-0.5,0-1-0.1-1.5-0.2c-0.5-0.2-1-0.4-1.4-0.7c-0.4-0.3-0.8-0.7-1-1.1
		C79.2,141.7,79,141.2,79,140.6z M84.4,137.8c-1.4,0.4-2.3,0.8-2.9,1.4c-0.5,0.5-0.8,1-0.7,1.5c0.1,0.5,0.4,0.9,1,1.3
		c0.6,0.4,1.3,0.7,2.1,0.8s1.7,0.1,2.7-0.2c1-0.3,1.9-0.8,2.7-1.5c-0.3-0.8-0.7-1.4-1-1.8c-0.3-0.4-0.7-0.7-1.1-1
		c-0.4-0.2-0.8-0.4-1.3-0.4C85.4,137.8,84.9,137.8,84.4,137.8z"/>
</g>
</svg>
