<?xml version="1.0" encoding="UTF-8" standalone="no"?>
<!DOCTYPE svg PUBLIC "-//W3C//DTD SVG 1.1//EN" "http://www.w3.org/Graphics/SVG/1.1/DTD/svg11.dtd">
<svg width="100%" height="100%" viewBox="0 0 200 200" version="1.1" xmlns="http://www.w3.org/2000/svg" xmlns:xlink="http://www.w3.org/1999/xlink" xml:space="preserve" xmlns:serif="http://www.serif.com/" style="fill-rule:evenodd;clip-rule:evenodd;stroke-linejoin:round;stroke-miterlimit:2;">
    <g transform="matrix(1,0,0,1,-340,-377)">
        <path d="M353.44,466.31C353.44,466.31 352.61,456.87 359,448.86C364.79,441.6 366.8,443.71 370.72,446.25C374.02,448.38 382.84,455.29 384.56,459.19C390.66,473.01 358.31,479.91 353.44,466.31Z" style="fill:rgb(245,211,162);fill-rule:nonzero;"/>
        <path d="M417.3,536.79C417.3,536.79 360.46,541.31 353.43,466.31C353.43,466.31 359.29,473.72 361.68,462.18C362.68,457.38 369.79,474.1 370.96,469.77C372.47,464.17 373.19,460.19 375.74,462.32C378.27,464.43 380.43,465.32 381.93,464.29C383.43,463.26 384.56,459.18 384.56,459.18C384.56,459.18 392.25,469.49 396,493.12C396,493.12 407.04,528.14 419.63,527.01C429.34,526.15 447.68,535.31 417.3,536.79Z" style="fill:rgb(233,78,27);fill-rule:nonzero;"/>
        <path d="M473.93,497.63C473.93,528.03 461.12,539.36 445,539.36C428.88,539.36 415.55,528.03 415.55,497.63C415.55,467.23 428.88,429.29 445,429.29C461.12,429.29 473.93,467.23 473.93,497.63Z" style="fill:rgb(233,78,27);fill-rule:nonzero;"/>
        <g>
            <g>
                <path d="M419.75,419.1L412.73,427.34C412.73,427.34 404.5,408.57 406.55,394.9L406.86,394.54C416.4,394.6 427.09,410.49 427.09,410.49L420.07,418.73" style="fill:rgb(233,78,27);fill-rule:nonzero;"/>
                <path d="M419.79,419.05L414.5,425.26C414.5,425.26 408.3,411.12 409.84,400.83L410.07,400.56C417.26,400.61 425.31,412.57 425.31,412.57L420.02,418.78" style="fill:rgb(202,58,23);fill-rule:nonzero;"/>
            </g>
            <g>
                <path d="M469.87,418.74L462.85,410.5C462.85,410.5 473.53,394.61 483.08,394.55L483.39,394.91C485.44,408.58 477.21,427.35 477.21,427.35L470.19,419.11" style="fill:rgb(233,78,27);fill-rule:nonzero;"/>
                <path d="M469.9,418.78L464.61,412.57C464.61,412.57 472.66,400.6 479.85,400.56L480.08,400.83C481.62,411.13 475.42,425.26 475.42,425.26L470.13,419.05" style="fill:rgb(202,58,23);fill-rule:nonzero;"/>
            </g>
        </g>
        <g>
            <path d="M478.88,421.7C467.51,403.76 441.65,375.16 411.35,421.8C425.25,423.71 436.05,436.9 436.33,453.02L436.34,453.03C439.04,452.14 441.93,451.65 444.93,451.65C447.79,451.65 450.54,452.09 453.13,452.9L453.15,452.89C453.49,436.53 464.66,423.21 478.88,421.7Z" style="fill:rgb(233,78,27);fill-rule:nonzero;"/>
            <path d="M478.88,421.7C464.66,423.22 453.49,436.54 453.15,452.88L483.99,433.6C484.6,433.22 484.83,432.44 484.52,431.79C483.64,429.97 481.71,426.17 478.88,421.7Z" style="fill:rgb(245,211,162);fill-rule:nonzero;"/>
            <path d="M411.35,421.79C409.4,424.8 407.43,428.11 405.44,431.76C405.08,432.41 405.3,433.24 405.92,433.64L436.33,453C436.05,436.9 425.25,423.7 411.35,421.79Z" style="fill:rgb(245,211,162);fill-rule:nonzero;"/>
            <path d="M436.34,453.02L443.04,457.29C443.96,457.88 445.14,457.88 446.06,457.3L453.12,452.89C450.53,452.08 447.78,451.64 444.92,451.64C441.93,451.64 439.05,452.13 436.34,453.02Z" style="fill:rgb(67,41,24);fill-rule:nonzero;"/>
        </g>
        <g>
            <ellipse cx="434.6" cy="427.34" rx="3.23" ry="4.88"/>
            <ellipse cx="455.32" cy="427.34" rx="3.23" ry="4.88"/>
            <g transform="matrix(0.5662,-0.8242,0.8242,0.5662,-161.891,540.932)">
                <ellipse cx="433" cy="424.28" rx="1.28" ry="0.34" style="fill:white;"/>
            </g>
            <g transform="matrix(0.5662,-0.8242,0.8242,0.5662,-152.925,557.971)">
                <ellipse cx="453.67" cy="424.28" rx="1.28" ry="0.34" style="fill:white;"/>
            </g>
        </g>
        <g>
            <path d="M451.96,505.46C451.94,505.3 451.94,505.12 451.95,504.96C452,504.05 452.06,500.42 450.91,492.49C450.1,486.96 449.62,482.81 449.33,480.01C449.1,477.76 451.08,475.91 453.31,476.28L457.2,476.93C458.45,477.14 459.42,478.14 459.57,479.4C460.18,484.53 461.03,497.79 461.43,507.37C461.45,507.74 461.4,508.11 461.29,508.47C460.24,512 454.27,530.57 451.96,505.46Z" style="fill:rgb(202,58,23);fill-rule:nonzero;"/>
            <path d="M450.43,535.28C450.9,532.99 451.14,530.67 451.21,528.34L451.89,501.37L453.11,505.85C453.46,507.28 455.05,507.27 455.9,506.19L456.65,505.24C456.77,505.09 457.01,505.13 457.06,505.31L458.42,507.99C458.91,509.66 460.32,503.34 461.18,501.78L461.49,508.27C462.21,513.84 460.98,527.76 459.3,536.07C458.65,539.28 458.95,542.23 456.83,544.77C453.95,548.21 447.65,548.71 450.43,535.28Z" style="fill:rgb(67,41,24);fill-rule:nonzero;"/>
        </g>
        <g>
            <path d="M439.73,505.19C439.73,505.19 439.4,501.81 440.76,492.49C441.64,486.45 442.14,482.06 442.41,479.26C442.59,477.38 440.94,475.84 439.08,476.15L434.59,476.9C433.26,477.12 432.24,478.2 432.09,479.54C431.49,484.91 430.58,498.56 430.21,507.91C430.21,507.91 437.22,533.2 439.73,505.19Z" style="fill:rgb(202,58,23);fill-rule:nonzero;"/>
            <path d="M441.24,535.28C440.77,532.99 440.53,530.67 440.46,528.34L439.73,505.19L439.09,506.9C438.67,507.85 438.09,510.7 435.87,507.76L435.24,506.35C435.12,506.2 434.88,506.24 434.83,506.42L432.77,510.51C432.28,512.18 431.26,505.34 430.4,503.77L430.19,508.27C429.47,513.84 430.7,527.76 432.38,536.07C433.03,539.28 432.41,542.49 434.54,545.03C437.4,548.47 444.02,548.71 441.24,535.28Z" style="fill:rgb(67,41,24);fill-rule:nonzero;"/>
        </g>
    </g>
</svg>
