<?xml version="1.0" encoding="UTF-8" standalone="no"?>
<!DOCTYPE svg PUBLIC "-//W3C//DTD SVG 1.1//EN" "http://www.w3.org/Graphics/SVG/1.1/DTD/svg11.dtd">
<svg width="100%" height="100%" viewBox="0 0 650 531" version="1.1" xmlns="http://www.w3.org/2000/svg" xmlns:xlink="http://www.w3.org/1999/xlink" xml:space="preserve" xmlns:serif="http://www.serif.com/" style="fill-rule:evenodd;clip-rule:evenodd;stroke-linejoin:round;stroke-miterlimit:2;">
    <g id="Fuchs" transform="matrix(1,0,0,1,-328,-42)">
        <path d="M353.44,466.31C353.44,466.31 352.61,456.87 359,448.86C364.79,441.6 366.8,443.71 370.72,446.25C374.02,448.38 382.84,455.29 384.56,459.19C390.66,473.01 358.31,479.91 353.44,466.31Z" style="fill:rgb(245,211,162);fill-rule:nonzero;"/>
        <path d="M417.3,536.79C417.3,536.79 360.46,541.31 353.43,466.31C353.43,466.31 359.29,473.72 361.68,462.18C362.68,457.38 369.79,474.1 370.96,469.77C372.47,464.17 373.19,460.19 375.74,462.32C378.27,464.43 380.43,465.32 381.93,464.29C383.43,463.26 384.56,459.18 384.56,459.18C384.56,459.18 392.25,469.49 396,493.12C396,493.12 407.04,528.14 419.63,527.01C429.34,526.15 447.68,535.31 417.3,536.79Z" style="fill:rgb(233,78,27);fill-rule:nonzero;"/>
        <path d="M473.93,497.63C473.93,528.03 461.12,539.36 445,539.36C428.88,539.36 415.55,528.03 415.55,497.63C415.55,467.23 428.88,429.29 445,429.29C461.12,429.29 473.93,467.23 473.93,497.63Z" style="fill:rgb(233,78,27);fill-rule:nonzero;"/>
        <g>
            <g>
                <path d="M419.75,419.1L412.73,427.34C412.73,427.34 404.5,408.57 406.55,394.9L406.86,394.54C416.4,394.6 427.09,410.49 427.09,410.49L420.07,418.73" style="fill:rgb(233,78,27);fill-rule:nonzero;"/>
                <path d="M419.79,419.05L414.5,425.26C414.5,425.26 408.3,411.12 409.84,400.83L410.07,400.56C417.26,400.61 425.31,412.57 425.31,412.57L420.02,418.78" style="fill:rgb(202,58,23);fill-rule:nonzero;"/>
            </g>
            <g>
                <path d="M469.87,418.74L462.85,410.5C462.85,410.5 473.53,394.61 483.08,394.55L483.39,394.91C485.44,408.58 477.21,427.35 477.21,427.35L470.19,419.11" style="fill:rgb(233,78,27);fill-rule:nonzero;"/>
                <path d="M469.9,418.78L464.61,412.57C464.61,412.57 472.66,400.6 479.85,400.56L480.08,400.83C481.62,411.13 475.42,425.26 475.42,425.26L470.13,419.05" style="fill:rgb(202,58,23);fill-rule:nonzero;"/>
            </g>
        </g>
        <g>
            <path d="M478.88,421.7C467.51,403.76 441.65,375.16 411.35,421.8C425.25,423.71 436.05,436.9 436.33,453.02L436.34,453.03C439.04,452.14 441.93,451.65 444.93,451.65C447.79,451.65 450.54,452.09 453.13,452.9L453.15,452.89C453.49,436.53 464.66,423.21 478.88,421.7Z" style="fill:rgb(233,78,27);fill-rule:nonzero;"/>
            <path d="M478.88,421.7C464.66,423.22 453.49,436.54 453.15,452.88L483.99,433.6C484.6,433.22 484.83,432.44 484.52,431.79C483.64,429.97 481.71,426.17 478.88,421.7Z" style="fill:rgb(245,211,162);fill-rule:nonzero;"/>
            <path d="M411.35,421.79C409.4,424.8 407.43,428.11 405.44,431.76C405.08,432.41 405.3,433.24 405.92,433.64L436.33,453C436.05,436.9 425.25,423.7 411.35,421.79Z" style="fill:rgb(245,211,162);fill-rule:nonzero;"/>
            <path d="M436.34,453.02L443.04,457.29C443.96,457.88 445.14,457.88 446.06,457.3L453.12,452.89C450.53,452.08 447.78,451.64 444.92,451.64C441.93,451.64 439.05,452.13 436.34,453.02Z" style="fill:rgb(67,41,24);fill-rule:nonzero;"/>
        </g>
        <g>
            <ellipse cx="434.6" cy="427.34" rx="3.23" ry="4.88"/>
            <ellipse cx="455.32" cy="427.34" rx="3.23" ry="4.88"/>
            <g transform="matrix(0.5662,-0.8242,0.8242,0.5662,-161.891,540.932)">
                <ellipse cx="433" cy="424.28" rx="1.28" ry="0.34" style="fill:white;"/>
            </g>
            <g transform="matrix(0.5662,-0.8242,0.8242,0.5662,-152.925,557.971)">
                <ellipse cx="453.67" cy="424.28" rx="1.28" ry="0.34" style="fill:white;"/>
            </g>
        </g>
        <g>
            <path d="M451.96,505.46C451.94,505.3 451.94,505.12 451.95,504.96C452,504.05 452.06,500.42 450.91,492.49C450.1,486.96 449.62,482.81 449.33,480.01C449.1,477.76 451.08,475.91 453.31,476.28L457.2,476.93C458.45,477.14 459.42,478.14 459.57,479.4C460.18,484.53 461.03,497.79 461.43,507.37C461.45,507.74 461.4,508.11 461.29,508.47C460.24,512 454.27,530.57 451.96,505.46Z" style="fill:rgb(202,58,23);fill-rule:nonzero;"/>
            <path d="M450.43,535.28C450.9,532.99 451.14,530.67 451.21,528.34L451.89,501.37L453.11,505.85C453.46,507.28 455.05,507.27 455.9,506.19L456.65,505.24C456.77,505.09 457.01,505.13 457.06,505.31L458.42,507.99C458.91,509.66 460.32,503.34 461.18,501.78L461.49,508.27C462.21,513.84 460.98,527.76 459.3,536.07C458.65,539.28 458.95,542.23 456.83,544.77C453.95,548.21 447.65,548.71 450.43,535.28Z" style="fill:rgb(67,41,24);fill-rule:nonzero;"/>
        </g>
        <g>
            <path d="M439.73,505.19C439.73,505.19 439.4,501.81 440.76,492.49C441.64,486.45 442.14,482.06 442.41,479.26C442.59,477.38 440.94,475.84 439.08,476.15L434.59,476.9C433.26,477.12 432.24,478.2 432.09,479.54C431.49,484.91 430.58,498.56 430.21,507.91C430.21,507.91 437.22,533.2 439.73,505.19Z" style="fill:rgb(202,58,23);fill-rule:nonzero;"/>
            <path d="M441.24,535.28C440.77,532.99 440.53,530.67 440.46,528.34L439.73,505.19L439.09,506.9C438.67,507.85 438.09,510.7 435.87,507.76L435.24,506.35C435.12,506.2 434.88,506.24 434.83,506.42L432.77,510.51C432.28,512.18 431.26,505.34 430.4,503.77L430.19,508.27C429.47,513.84 430.7,527.76 432.38,536.07C433.03,539.28 432.41,542.49 434.54,545.03C437.4,548.47 444.02,548.71 441.24,535.28Z" style="fill:rgb(67,41,24);fill-rule:nonzero;"/>
        </g>
    </g>
    <g id="Wolke" transform="matrix(1,0,0,1,-328,-42)">
        <g transform="matrix(0.543502,0,0,0.561243,344.526,48.2069)">
            <g id="Textfeld_wolke">
                <g>
                    <path d="M719.56,319.51C743.26,292.97 748.92,248.57 731.39,217.86C706.56,174.37 667.8,161.3 620.58,172.91C595.7,79 535.75,56.74 460.1,83.11C394.21,-16.95 321.52,-25.04 229.62,57.47C145.49,50.36 87.98,85.45 71.64,155.4C66.99,175.32 66.42,194.33 69.66,212.05C46.12,214.49 26.62,227.4 12.18,253.06C-4.97,283.53 -2.55,315.33 15.98,344.28C26.16,360.18 38.12,369.45 51.33,374.01C51.17,377.18 51.08,380.39 51.12,383.68C52,457.08 102.66,498.44 199.54,503.17C216.09,535.39 242.09,556.13 281.13,557.82C319.72,559.5 346.89,540.6 367.71,509.87C435.92,599.24 554.31,581.96 587.5,467.72C594.85,467.72 602.62,467.86 610.38,467.7C665.22,466.58 708.97,431.87 721.12,379.92C725.74,360.14 724.39,339.86 717.95,321.23C718.49,320.66 719.03,320.1 719.56,319.51Z" style="fill:rgb(75,196,75);fill-rule:nonzero;"/>
                    <path d="M692.31,316.73C714.16,292.27 719.37,251.33 703.21,223.03C680.32,182.94 644.59,170.9 601.06,181.6C578.13,95.03 522.87,74.51 453.13,98.82C392.4,6.58 325.4,-0.87 240.68,75.18C163.13,68.62 110.11,100.97 95.05,165.46C90.76,183.82 90.23,201.35 93.22,217.68C71.52,219.93 53.55,231.83 40.23,255.49C24.43,283.58 26.65,312.89 43.74,339.58C53.12,354.24 64.15,362.78 76.32,366.99C76.18,369.91 76.09,372.87 76.13,375.9C76.94,443.56 123.64,481.68 212.95,486.05C228.2,515.75 252.18,534.87 288.16,536.43C323.73,537.97 348.78,520.56 367.97,492.22C430.85,574.6 539.98,558.68 570.57,453.37C577.34,453.37 584.51,453.5 591.66,453.35C642.21,452.32 682.54,420.32 693.74,372.43C698,354.2 696.75,335.5 690.82,318.32C691.33,317.79 691.83,317.28 692.31,316.73Z" style="fill:rgb(161,226,161);fill-rule:nonzero;"/>
                </g>
            </g>
        </g>
        <g transform="matrix(0.0277535,0,0,0.0277535,462.526,362.35)">
            <g id="Textfeld_wolke1" serif:id="Textfeld_wolke">
                <g>
                    <path d="M719.56,319.51C743.26,292.97 748.92,248.57 731.39,217.86C706.56,174.37 667.8,161.3 620.58,172.91C595.7,79 535.75,56.74 460.1,83.11C394.21,-16.95 321.52,-25.04 229.62,57.47C145.49,50.36 87.98,85.45 71.64,155.4C66.99,175.32 66.42,194.33 69.66,212.05C46.12,214.49 26.62,227.4 12.18,253.06C-4.97,283.53 -2.55,315.33 15.98,344.28C26.16,360.18 38.12,369.45 51.33,374.01C51.17,377.18 51.08,380.39 51.12,383.68C52,457.08 102.66,498.44 199.54,503.17C216.09,535.39 242.09,556.13 281.13,557.82C319.72,559.5 346.89,540.6 367.71,509.87C435.92,599.24 554.31,581.96 587.5,467.72C594.85,467.72 602.62,467.86 610.38,467.7C665.22,466.58 708.97,431.87 721.12,379.92C725.74,360.14 724.39,339.86 717.95,321.23C718.49,320.66 719.03,320.1 719.56,319.51Z" style="fill:rgb(75,196,75);fill-rule:nonzero;"/>
                    <path d="M692.31,316.73C714.16,292.27 719.37,251.33 703.21,223.03C680.32,182.94 644.59,170.9 601.06,181.6C578.13,95.03 522.87,74.51 453.13,98.82C392.4,6.58 325.4,-0.87 240.68,75.18C163.13,68.62 110.11,100.97 95.05,165.46C90.76,183.82 90.23,201.35 93.22,217.68C71.52,219.93 53.55,231.83 40.23,255.49C24.43,283.58 26.65,312.89 43.74,339.58C53.12,354.24 64.15,362.78 76.32,366.99C76.18,369.91 76.09,372.87 76.13,375.9C76.94,443.56 123.64,481.68 212.95,486.05C228.2,515.75 252.18,534.87 288.16,536.43C323.73,537.97 348.78,520.56 367.97,492.22C430.85,574.6 539.98,558.68 570.57,453.37C577.34,453.37 584.51,453.5 591.66,453.35C642.21,452.32 682.54,420.32 693.74,372.43C698,354.2 696.75,335.5 690.82,318.32C691.33,317.79 691.83,317.28 692.31,316.73Z" style="fill:rgb(161,226,161);fill-rule:nonzero;"/>
                </g>
            </g>
        </g>
        <g transform="matrix(0.0169806,0,0,0.0169806,455.526,384.406)">
            <g id="Textfeld_wolke2" serif:id="Textfeld_wolke">
                <g>
                    <path d="M719.56,319.51C743.26,292.97 748.92,248.57 731.39,217.86C706.56,174.37 667.8,161.3 620.58,172.91C595.7,79 535.75,56.74 460.1,83.11C394.21,-16.95 321.52,-25.04 229.62,57.47C145.49,50.36 87.98,85.45 71.64,155.4C66.99,175.32 66.42,194.33 69.66,212.05C46.12,214.49 26.62,227.4 12.18,253.06C-4.97,283.53 -2.55,315.33 15.98,344.28C26.16,360.18 38.12,369.45 51.33,374.01C51.17,377.18 51.08,380.39 51.12,383.68C52,457.08 102.66,498.44 199.54,503.17C216.09,535.39 242.09,556.13 281.13,557.82C319.72,559.5 346.89,540.6 367.71,509.87C435.92,599.24 554.31,581.96 587.5,467.72C594.85,467.72 602.62,467.86 610.38,467.7C665.22,466.58 708.97,431.87 721.12,379.92C725.74,360.14 724.39,339.86 717.95,321.23C718.49,320.66 719.03,320.1 719.56,319.51Z" style="fill:rgb(75,196,75);fill-rule:nonzero;"/>
                    <path d="M692.31,316.73C714.16,292.27 719.37,251.33 703.21,223.03C680.32,182.94 644.59,170.9 601.06,181.6C578.13,95.03 522.87,74.51 453.13,98.82C392.4,6.58 325.4,-0.87 240.68,75.18C163.13,68.62 110.11,100.97 95.05,165.46C90.76,183.82 90.23,201.35 93.22,217.68C71.52,219.93 53.55,231.83 40.23,255.49C24.43,283.58 26.65,312.89 43.74,339.58C53.12,354.24 64.15,362.78 76.32,366.99C76.18,369.91 76.09,372.87 76.13,375.9C76.94,443.56 123.64,481.68 212.95,486.05C228.2,515.75 252.18,534.87 288.16,536.43C323.73,537.97 348.78,520.56 367.97,492.22C430.85,574.6 539.98,558.68 570.57,453.37C577.34,453.37 584.51,453.5 591.66,453.35C642.21,452.32 682.54,420.32 693.74,372.43C698,354.2 696.75,335.5 690.82,318.32C691.33,317.79 691.83,317.28 692.31,316.73Z" style="fill:rgb(161,226,161);fill-rule:nonzero;"/>
                </g>
            </g>
        </g>
        <g transform="matrix(1.79617,0,0,1.41191,502.47,205.254)">
            <g>
                <g transform="matrix(12,0,0,12,0,0)">
                    <path d="M0.061,-0.656L0.098,-0.037C0.156,-0.037 0.214,-0.041 0.272,-0.048C0.33,-0.056 0.39,-0.063 0.451,-0.069L0.455,-0.037C0.454,-0.037 0.448,-0.036 0.437,-0.035C0.426,-0.033 0.411,-0.031 0.392,-0.029C0.374,-0.027 0.353,-0.024 0.329,-0.021C0.306,-0.019 0.282,-0.016 0.259,-0.014C0.235,-0.011 0.213,-0.008 0.191,-0.006C0.17,-0.003 0.151,-0.001 0.136,0L0.122,0.001L0.104,0.001C0.09,0.001 0.078,-0.007 0.069,-0.022C0.06,-0.037 0.053,-0.058 0.047,-0.084C0.041,-0.111 0.037,-0.141 0.034,-0.175C0.032,-0.209 0.03,-0.245 0.028,-0.282C0.027,-0.319 0.027,-0.357 0.027,-0.395C0.027,-0.432 0.027,-0.468 0.027,-0.501C0.027,-0.535 0.027,-0.565 0.027,-0.593C0.027,-0.62 0.025,-0.641 0.023,-0.656L0.061,-0.656Z" style="fill-rule:nonzero;"/>
                </g>
                <g transform="matrix(12,0,0,12,5.74219,0)">
                    <path d="M0.023,-0.179C0.023,-0.194 0.025,-0.211 0.027,-0.231C0.03,-0.251 0.034,-0.271 0.04,-0.291C0.046,-0.311 0.053,-0.331 0.062,-0.351C0.071,-0.37 0.081,-0.388 0.094,-0.403C0.106,-0.418 0.12,-0.431 0.137,-0.44C0.153,-0.449 0.171,-0.454 0.191,-0.454C0.212,-0.454 0.232,-0.447 0.25,-0.433C0.267,-0.418 0.283,-0.4 0.295,-0.377C0.308,-0.354 0.318,-0.329 0.324,-0.301C0.331,-0.273 0.333,-0.245 0.332,-0.219C0.332,-0.18 0.325,-0.145 0.31,-0.114C0.295,-0.084 0.276,-0.059 0.252,-0.04C0.229,-0.021 0.205,-0.008 0.178,-0.002C0.152,0.005 0.127,0.003 0.104,-0.007C0.081,-0.017 0.062,-0.036 0.046,-0.064C0.031,-0.092 0.023,-0.131 0.023,-0.179ZM0.06,-0.175C0.062,-0.135 0.068,-0.104 0.08,-0.083C0.092,-0.062 0.106,-0.047 0.123,-0.041C0.139,-0.034 0.157,-0.034 0.177,-0.04C0.196,-0.047 0.215,-0.058 0.231,-0.075C0.248,-0.091 0.263,-0.112 0.275,-0.137C0.287,-0.162 0.294,-0.19 0.295,-0.222C0.296,-0.245 0.294,-0.268 0.29,-0.29C0.285,-0.312 0.278,-0.332 0.269,-0.349C0.26,-0.366 0.25,-0.38 0.237,-0.39C0.224,-0.4 0.21,-0.405 0.193,-0.405C0.178,-0.405 0.164,-0.401 0.151,-0.394C0.139,-0.386 0.128,-0.375 0.118,-0.362C0.108,-0.348 0.099,-0.333 0.092,-0.316C0.085,-0.299 0.079,-0.283 0.074,-0.266C0.069,-0.249 0.065,-0.232 0.063,-0.216C0.061,-0.2 0.06,-0.187 0.06,-0.175Z" style="fill-rule:nonzero;"/>
                </g>
                <g transform="matrix(12,0,0,12,10.0898,0)">
                    <path d="M0.07,-0.079C0.082,-0.079 0.093,-0.077 0.103,-0.072C0.113,-0.068 0.123,-0.063 0.133,-0.057C0.143,-0.052 0.153,-0.047 0.163,-0.042C0.173,-0.038 0.184,-0.036 0.195,-0.036C0.209,-0.036 0.223,-0.039 0.238,-0.043C0.252,-0.048 0.266,-0.055 0.278,-0.064C0.291,-0.073 0.301,-0.083 0.309,-0.096C0.316,-0.109 0.32,-0.123 0.32,-0.138C0.321,-0.142 0.321,-0.148 0.321,-0.154C0.32,-0.161 0.318,-0.167 0.314,-0.174C0.311,-0.181 0.304,-0.188 0.295,-0.194C0.286,-0.2 0.273,-0.205 0.255,-0.208C0.238,-0.211 0.216,-0.213 0.19,-0.213C0.164,-0.214 0.132,-0.211 0.094,-0.206C0.084,-0.206 0.075,-0.209 0.065,-0.214C0.056,-0.22 0.048,-0.227 0.041,-0.235C0.034,-0.243 0.028,-0.252 0.023,-0.261C0.019,-0.271 0.017,-0.28 0.017,-0.288C0.017,-0.313 0.022,-0.334 0.033,-0.35C0.043,-0.366 0.057,-0.379 0.074,-0.388C0.091,-0.398 0.11,-0.404 0.131,-0.408C0.152,-0.412 0.173,-0.414 0.194,-0.414C0.204,-0.414 0.215,-0.414 0.228,-0.413C0.241,-0.412 0.252,-0.409 0.263,-0.405C0.274,-0.401 0.283,-0.394 0.291,-0.385C0.298,-0.376 0.302,-0.363 0.302,-0.347C0.3,-0.336 0.299,-0.329 0.296,-0.327C0.294,-0.324 0.291,-0.325 0.287,-0.329C0.282,-0.332 0.277,-0.337 0.271,-0.344C0.266,-0.35 0.259,-0.357 0.25,-0.363C0.242,-0.369 0.233,-0.374 0.221,-0.377C0.21,-0.38 0.197,-0.38 0.183,-0.377C0.168,-0.377 0.153,-0.375 0.138,-0.373C0.123,-0.37 0.109,-0.365 0.097,-0.357C0.085,-0.35 0.075,-0.34 0.068,-0.328C0.06,-0.316 0.057,-0.3 0.057,-0.281C0.057,-0.271 0.061,-0.265 0.07,-0.261C0.079,-0.258 0.09,-0.256 0.105,-0.256C0.12,-0.256 0.136,-0.256 0.155,-0.257C0.173,-0.258 0.192,-0.259 0.212,-0.259C0.231,-0.259 0.25,-0.257 0.269,-0.254C0.287,-0.251 0.303,-0.246 0.317,-0.237C0.331,-0.228 0.342,-0.215 0.35,-0.199C0.357,-0.183 0.36,-0.162 0.358,-0.136C0.358,-0.117 0.353,-0.099 0.342,-0.082C0.332,-0.065 0.318,-0.05 0.301,-0.038C0.285,-0.025 0.266,-0.015 0.246,-0.008C0.226,-0.001 0.206,0.002 0.188,0C0.18,-0.001 0.169,-0.003 0.156,-0.006C0.142,-0.01 0.129,-0.015 0.117,-0.021C0.104,-0.028 0.093,-0.036 0.084,-0.045C0.075,-0.055 0.07,-0.066 0.07,-0.079Z" style="fill-rule:nonzero;"/>
                </g>
                <g transform="matrix(12,0,0,12,19.207,0)">
                    <path d="M-0.119,0.231C-0.119,0.214 -0.116,0.201 -0.11,0.191C-0.104,0.182 -0.091,0.178 -0.069,0.178C-0.071,0.187 -0.074,0.196 -0.077,0.205C-0.08,0.214 -0.082,0.223 -0.084,0.23C-0.087,0.238 -0.088,0.244 -0.087,0.249C-0.087,0.254 -0.085,0.255 -0.08,0.254C-0.059,0.268 -0.036,0.277 -0.012,0.283C0.013,0.289 0.037,0.292 0.062,0.292C0.098,0.291 0.129,0.284 0.156,0.27C0.182,0.255 0.204,0.237 0.221,0.214C0.238,0.191 0.252,0.165 0.261,0.135C0.271,0.106 0.277,0.075 0.279,0.043C0.281,0.012 0.28,-0.02 0.276,-0.052C0.272,-0.084 0.266,-0.113 0.258,-0.14C0.247,-0.127 0.236,-0.114 0.224,-0.101C0.213,-0.087 0.201,-0.075 0.188,-0.064C0.174,-0.053 0.161,-0.044 0.146,-0.037C0.131,-0.03 0.115,-0.026 0.097,-0.026C0.078,-0.026 0.064,-0.03 0.054,-0.036C0.045,-0.043 0.038,-0.052 0.035,-0.063C0.032,-0.074 0.03,-0.088 0.031,-0.103C0.031,-0.118 0.031,-0.133 0.031,-0.15C0.031,-0.166 0.032,-0.184 0.033,-0.203C0.034,-0.223 0.036,-0.242 0.04,-0.262C0.043,-0.282 0.048,-0.302 0.054,-0.321C0.06,-0.34 0.069,-0.357 0.079,-0.373C0.09,-0.388 0.103,-0.4 0.118,-0.409C0.134,-0.418 0.152,-0.423 0.174,-0.423C0.188,-0.423 0.201,-0.422 0.213,-0.419C0.226,-0.417 0.238,-0.413 0.249,-0.407C0.259,-0.401 0.269,-0.394 0.276,-0.384C0.284,-0.374 0.29,-0.362 0.295,-0.347C0.298,-0.317 0.301,-0.286 0.305,-0.251C0.309,-0.217 0.312,-0.182 0.314,-0.145C0.317,-0.108 0.318,-0.071 0.318,-0.034C0.318,0.003 0.316,0.039 0.311,0.073C0.306,0.108 0.298,0.14 0.287,0.17C0.275,0.201 0.259,0.227 0.239,0.25C0.218,0.274 0.193,0.292 0.162,0.306C0.132,0.32 0.095,0.328 0.052,0.329C0.034,0.329 0.014,0.328 -0.006,0.326C-0.026,0.323 -0.045,0.319 -0.062,0.312C-0.078,0.305 -0.092,0.295 -0.103,0.283C-0.114,0.27 -0.119,0.253 -0.119,0.231ZM0.068,-0.15C0.068,-0.143 0.068,-0.135 0.067,-0.126C0.067,-0.117 0.067,-0.108 0.068,-0.099C0.07,-0.09 0.072,-0.082 0.077,-0.075C0.081,-0.069 0.088,-0.065 0.098,-0.064C0.113,-0.064 0.128,-0.068 0.141,-0.075C0.154,-0.082 0.167,-0.092 0.177,-0.104C0.188,-0.117 0.197,-0.131 0.206,-0.146C0.214,-0.161 0.221,-0.177 0.226,-0.193C0.232,-0.21 0.236,-0.225 0.239,-0.241C0.242,-0.256 0.243,-0.27 0.243,-0.281C0.245,-0.294 0.245,-0.306 0.244,-0.318C0.242,-0.331 0.238,-0.342 0.232,-0.352C0.227,-0.361 0.219,-0.369 0.209,-0.375C0.199,-0.382 0.188,-0.385 0.174,-0.385C0.158,-0.385 0.145,-0.38 0.133,-0.372C0.121,-0.363 0.111,-0.352 0.104,-0.338C0.096,-0.324 0.09,-0.309 0.085,-0.292C0.08,-0.274 0.077,-0.257 0.075,-0.24C0.072,-0.222 0.071,-0.206 0.07,-0.19C0.069,-0.174 0.068,-0.161 0.068,-0.15Z" style="fill-rule:nonzero;"/>
                </g>
                <g transform="matrix(12,0,0,12,23.3672,0)">
                    <path d="M0.025,-0.229C0.025,-0.249 0.03,-0.271 0.038,-0.294C0.047,-0.318 0.058,-0.34 0.073,-0.361C0.087,-0.381 0.104,-0.399 0.123,-0.413C0.141,-0.427 0.16,-0.434 0.181,-0.434C0.192,-0.434 0.203,-0.431 0.213,-0.427C0.224,-0.422 0.235,-0.416 0.245,-0.409C0.255,-0.401 0.264,-0.393 0.272,-0.383C0.28,-0.374 0.286,-0.364 0.291,-0.354C0.296,-0.343 0.298,-0.333 0.298,-0.323C0.299,-0.313 0.296,-0.305 0.29,-0.298L0.084,-0.26C0.081,-0.259 0.079,-0.256 0.077,-0.25C0.075,-0.245 0.074,-0.238 0.072,-0.229C0.071,-0.221 0.07,-0.212 0.069,-0.202C0.068,-0.192 0.067,-0.182 0.066,-0.172C0.066,-0.163 0.065,-0.154 0.065,-0.147L0.065,-0.13C0.065,-0.112 0.07,-0.097 0.079,-0.085C0.087,-0.074 0.099,-0.065 0.112,-0.06C0.126,-0.054 0.141,-0.05 0.159,-0.048C0.176,-0.046 0.193,-0.045 0.21,-0.045C0.227,-0.045 0.243,-0.046 0.258,-0.047C0.273,-0.048 0.285,-0.049 0.295,-0.049C0.295,-0.046 0.294,-0.043 0.292,-0.04C0.29,-0.037 0.288,-0.034 0.285,-0.031C0.283,-0.028 0.28,-0.025 0.277,-0.023C0.275,-0.021 0.273,-0.019 0.272,-0.019C0.267,-0.017 0.259,-0.015 0.249,-0.013C0.238,-0.011 0.226,-0.009 0.214,-0.007C0.202,-0.005 0.191,-0.003 0.181,-0.002C0.17,-0.001 0.163,0 0.159,0C0.139,0.004 0.121,0.004 0.106,-0.001C0.091,-0.006 0.079,-0.013 0.068,-0.024C0.058,-0.035 0.049,-0.049 0.043,-0.065C0.036,-0.081 0.032,-0.098 0.028,-0.116C0.025,-0.134 0.023,-0.153 0.023,-0.173C0.023,-0.192 0.023,-0.211 0.025,-0.229ZM0.167,-0.396C0.161,-0.396 0.153,-0.393 0.144,-0.387C0.135,-0.381 0.126,-0.373 0.118,-0.364C0.11,-0.354 0.103,-0.344 0.097,-0.333C0.092,-0.323 0.09,-0.313 0.092,-0.306C0.109,-0.304 0.126,-0.304 0.145,-0.307C0.163,-0.309 0.179,-0.313 0.194,-0.319C0.209,-0.324 0.222,-0.331 0.231,-0.338C0.241,-0.346 0.246,-0.354 0.246,-0.361C0.245,-0.369 0.239,-0.376 0.227,-0.382C0.215,-0.389 0.195,-0.393 0.167,-0.396Z" style="fill-rule:nonzero;"/>
                </g>
                <g transform="matrix(12,0,0,12,27.3164,0)">
                    <path d="M0.059,-0.67L0.084,-0.35C0.089,-0.354 0.094,-0.359 0.102,-0.367C0.109,-0.375 0.117,-0.382 0.127,-0.389C0.137,-0.396 0.147,-0.402 0.159,-0.407C0.171,-0.412 0.184,-0.414 0.197,-0.413C0.224,-0.41 0.245,-0.4 0.261,-0.381C0.277,-0.362 0.289,-0.339 0.297,-0.312C0.306,-0.284 0.311,-0.254 0.313,-0.222C0.316,-0.19 0.317,-0.159 0.316,-0.13C0.315,-0.101 0.313,-0.075 0.311,-0.052C0.309,-0.029 0.307,-0.013 0.306,-0.005L0.271,-0.01C0.271,-0.016 0.271,-0.025 0.271,-0.038C0.271,-0.05 0.272,-0.065 0.272,-0.083C0.273,-0.1 0.273,-0.118 0.273,-0.137C0.273,-0.156 0.274,-0.173 0.274,-0.19C0.274,-0.207 0.274,-0.221 0.274,-0.234C0.274,-0.247 0.273,-0.257 0.272,-0.262C0.273,-0.28 0.27,-0.298 0.262,-0.314C0.254,-0.331 0.243,-0.344 0.23,-0.353C0.217,-0.362 0.202,-0.365 0.184,-0.362C0.165,-0.359 0.146,-0.346 0.125,-0.323C0.107,-0.296 0.093,-0.269 0.085,-0.243C0.076,-0.216 0.071,-0.19 0.068,-0.165C0.066,-0.139 0.065,-0.112 0.065,-0.085C0.066,-0.058 0.066,-0.03 0.065,0L0.027,-0.006C0.029,-0.013 0.031,-0.026 0.032,-0.045C0.033,-0.065 0.034,-0.088 0.034,-0.115C0.035,-0.142 0.035,-0.172 0.036,-0.205C0.036,-0.238 0.036,-0.273 0.036,-0.308C0.035,-0.344 0.035,-0.379 0.034,-0.415C0.034,-0.451 0.033,-0.485 0.032,-0.518C0.031,-0.55 0.03,-0.58 0.029,-0.607C0.028,-0.635 0.027,-0.657 0.026,-0.675L0.059,-0.67Z" style="fill-rule:nonzero;"/>
                </g>
                <g transform="matrix(12,0,0,12,31.3594,0)">
                    <path d="M0.139,-0.354C0.133,-0.356 0.125,-0.357 0.115,-0.357C0.105,-0.357 0.094,-0.356 0.083,-0.355C0.071,-0.354 0.06,-0.353 0.05,-0.352C0.039,-0.35 0.031,-0.35 0.023,-0.35C0.02,-0.35 0.018,-0.354 0.017,-0.364C0.016,-0.373 0.015,-0.386 0.013,-0.402L0.15,-0.412C0.152,-0.435 0.154,-0.451 0.154,-0.461C0.155,-0.471 0.155,-0.479 0.155,-0.486C0.154,-0.493 0.154,-0.5 0.154,-0.509C0.153,-0.518 0.153,-0.532 0.153,-0.551C0.17,-0.553 0.183,-0.554 0.192,-0.553C0.201,-0.552 0.207,-0.55 0.21,-0.546C0.213,-0.542 0.215,-0.536 0.214,-0.529C0.214,-0.521 0.213,-0.512 0.211,-0.501C0.21,-0.49 0.208,-0.477 0.208,-0.461C0.207,-0.445 0.207,-0.428 0.209,-0.408L0.326,-0.412L0.326,-0.364C0.321,-0.364 0.313,-0.364 0.302,-0.363L0.231,-0.359C0.22,-0.359 0.212,-0.357 0.207,-0.355C0.202,-0.332 0.196,-0.307 0.19,-0.28C0.185,-0.254 0.181,-0.227 0.179,-0.201C0.177,-0.175 0.177,-0.151 0.181,-0.128C0.184,-0.106 0.192,-0.087 0.205,-0.073C0.218,-0.058 0.237,-0.048 0.261,-0.042C0.285,-0.037 0.317,-0.039 0.356,-0.048C0.355,-0.038 0.351,-0.03 0.345,-0.024C0.339,-0.018 0.332,-0.013 0.324,-0.009C0.316,-0.006 0.307,-0.003 0.298,-0.001C0.289,0 0.281,0.001 0.273,0.001C0.24,0.001 0.214,-0.005 0.194,-0.017C0.175,-0.029 0.16,-0.045 0.15,-0.064C0.141,-0.084 0.134,-0.106 0.132,-0.131C0.129,-0.156 0.128,-0.182 0.129,-0.208C0.13,-0.234 0.132,-0.26 0.135,-0.285C0.137,-0.311 0.139,-0.334 0.139,-0.354Z" style="fill-rule:nonzero;"/>
                </g>
                <g transform="matrix(12,0,0,12,35.8125,0)">
                    <path d="M0.014,-0.675C0.014,-0.678 0.016,-0.682 0.021,-0.687C0.027,-0.691 0.031,-0.693 0.033,-0.693C0.049,-0.683 0.06,-0.669 0.064,-0.652C0.069,-0.635 0.071,-0.617 0.071,-0.599C0.071,-0.595 0.071,-0.59 0.072,-0.584C0.072,-0.579 0.072,-0.573 0.071,-0.568C0.071,-0.562 0.069,-0.557 0.066,-0.553C0.063,-0.548 0.058,-0.545 0.052,-0.543C0.047,-0.545 0.042,-0.552 0.037,-0.564C0.033,-0.577 0.028,-0.59 0.025,-0.605C0.021,-0.62 0.019,-0.635 0.017,-0.648C0.015,-0.662 0.014,-0.671 0.014,-0.675Z" style="fill-rule:nonzero;"/>
                </g>
                <g transform="matrix(12,0,0,12,36.8789,0)">
                    <path d="M0.07,-0.079C0.082,-0.079 0.093,-0.077 0.103,-0.072C0.113,-0.068 0.123,-0.063 0.133,-0.057C0.143,-0.052 0.153,-0.047 0.163,-0.042C0.173,-0.038 0.184,-0.036 0.195,-0.036C0.209,-0.036 0.223,-0.039 0.238,-0.043C0.252,-0.048 0.266,-0.055 0.278,-0.064C0.291,-0.073 0.301,-0.083 0.309,-0.096C0.316,-0.109 0.32,-0.123 0.32,-0.138C0.321,-0.142 0.321,-0.148 0.321,-0.154C0.32,-0.161 0.318,-0.167 0.314,-0.174C0.311,-0.181 0.304,-0.188 0.295,-0.194C0.286,-0.2 0.273,-0.205 0.255,-0.208C0.238,-0.211 0.216,-0.213 0.19,-0.213C0.164,-0.214 0.132,-0.211 0.094,-0.206C0.084,-0.206 0.075,-0.209 0.065,-0.214C0.056,-0.22 0.048,-0.227 0.041,-0.235C0.034,-0.243 0.028,-0.252 0.023,-0.261C0.019,-0.271 0.017,-0.28 0.017,-0.288C0.017,-0.313 0.022,-0.334 0.033,-0.35C0.043,-0.366 0.057,-0.379 0.074,-0.388C0.091,-0.398 0.11,-0.404 0.131,-0.408C0.152,-0.412 0.173,-0.414 0.194,-0.414C0.204,-0.414 0.215,-0.414 0.228,-0.413C0.241,-0.412 0.252,-0.409 0.263,-0.405C0.274,-0.401 0.283,-0.394 0.291,-0.385C0.298,-0.376 0.302,-0.363 0.302,-0.347C0.3,-0.336 0.299,-0.329 0.296,-0.327C0.294,-0.324 0.291,-0.325 0.287,-0.329C0.282,-0.332 0.277,-0.337 0.271,-0.344C0.266,-0.35 0.259,-0.357 0.25,-0.363C0.242,-0.369 0.233,-0.374 0.221,-0.377C0.21,-0.38 0.197,-0.38 0.183,-0.377C0.168,-0.377 0.153,-0.375 0.138,-0.373C0.123,-0.37 0.109,-0.365 0.097,-0.357C0.085,-0.35 0.075,-0.34 0.068,-0.328C0.06,-0.316 0.057,-0.3 0.057,-0.281C0.057,-0.271 0.061,-0.265 0.07,-0.261C0.079,-0.258 0.09,-0.256 0.105,-0.256C0.12,-0.256 0.136,-0.256 0.155,-0.257C0.173,-0.258 0.192,-0.259 0.212,-0.259C0.231,-0.259 0.25,-0.257 0.269,-0.254C0.287,-0.251 0.303,-0.246 0.317,-0.237C0.331,-0.228 0.342,-0.215 0.35,-0.199C0.357,-0.183 0.36,-0.162 0.358,-0.136C0.358,-0.117 0.353,-0.099 0.342,-0.082C0.332,-0.065 0.318,-0.05 0.301,-0.038C0.285,-0.025 0.266,-0.015 0.246,-0.008C0.226,-0.001 0.206,0.002 0.188,0C0.18,-0.001 0.169,-0.003 0.156,-0.006C0.142,-0.01 0.129,-0.015 0.117,-0.021C0.104,-0.028 0.093,-0.036 0.084,-0.045C0.075,-0.055 0.07,-0.066 0.07,-0.079Z" style="fill-rule:nonzero;"/>
                </g>
                <g transform="matrix(12,0,0,12,41.4961,0)">
                    <path d="M0.099,0.002C0.083,-0.008 0.072,-0.018 0.066,-0.029C0.061,-0.04 0.058,-0.051 0.059,-0.061C0.06,-0.071 0.064,-0.08 0.07,-0.087C0.077,-0.094 0.084,-0.098 0.093,-0.1C0.102,-0.101 0.111,-0.098 0.121,-0.092C0.131,-0.086 0.14,-0.074 0.147,-0.057C0.147,-0.05 0.146,-0.043 0.144,-0.037C0.142,-0.03 0.139,-0.024 0.134,-0.018C0.13,-0.013 0.125,-0.008 0.119,-0.004C0.112,0 0.106,0.002 0.099,0.002ZM0.107,-0.057C0.105,-0.057 0.103,-0.056 0.102,-0.054C0.1,-0.052 0.1,-0.049 0.1,-0.046C0.1,-0.043 0.1,-0.041 0.102,-0.039C0.103,-0.037 0.105,-0.036 0.107,-0.037C0.113,-0.038 0.116,-0.042 0.116,-0.046C0.116,-0.051 0.113,-0.055 0.107,-0.057ZM0.013,-0.635C0.013,-0.641 0.013,-0.645 0.014,-0.647C0.015,-0.649 0.017,-0.651 0.02,-0.651C0.023,-0.651 0.027,-0.652 0.032,-0.652C0.037,-0.652 0.044,-0.654 0.052,-0.656L0.107,-0.206C0.106,-0.205 0.103,-0.204 0.099,-0.203C0.094,-0.202 0.091,-0.201 0.089,-0.201C0.081,-0.201 0.075,-0.203 0.07,-0.206C0.066,-0.208 0.062,-0.213 0.06,-0.218C0.058,-0.224 0.056,-0.23 0.055,-0.238C0.054,-0.245 0.053,-0.253 0.052,-0.262C0.051,-0.265 0.05,-0.273 0.049,-0.287C0.048,-0.301 0.046,-0.318 0.043,-0.338C0.04,-0.358 0.038,-0.38 0.035,-0.405C0.033,-0.429 0.03,-0.453 0.027,-0.478C0.025,-0.502 0.022,-0.524 0.02,-0.546C0.017,-0.567 0.015,-0.585 0.014,-0.6C0.014,-0.6 0.014,-0.601 0.013,-0.605C0.013,-0.609 0.013,-0.612 0.013,-0.617L0.013,-0.635Z" style="fill-rule:nonzero;"/>
                </g>
            </g>
        </g>
    </g>
</svg>
