<?xml version="1.0" encoding="utf-8"?>
<!-- Generator: Adobe Illustrator 24.2.1, SVG Export Plug-In . SVG Version: 6.00 Build 0)  -->
<svg version="1.1" xmlns="http://www.w3.org/2000/svg" xmlns:xlink="http://www.w3.org/1999/xlink" x="0px" y="0px"
	 viewBox="0 0 1920 1080" style="enable-background:new 0 0 1920 1080;" xml:space="preserve">
<style type="text/css">
	.st0{fill:#10272D;}
	.st1{fill:#B3B3B3;}
	.st2{fill:#1B383F;}
	.st3{fill:#FCD203;}
	.st4{fill:#FF1D25;}
</style>
<g id="Ebene_20">
	<rect class="st0" width="1920" height="1080"/>
</g>
<g id="Weltkarte_grau">
	<g>
		<path class="st1" d="M1139.6,776.3c-1.3,4.6-5.8,11.3-5.8,11.3l-8.4,4.2c0,0-2.9,2.5-4.6,2.9c-1.7,0.4-5.8,2.5-5.8,2.5
			s-3.8-0.8-2.5,2.9c1.3,3.8,1.7,8.4,1.3,9.6c-0.4,1.3-0.4,3.8-0.4,7.1c0,3.3-1.3,7.5-3.3,8.3c-2.1,0.8-4.2,1.7-3.8,4.6
			s0.4,11.7,0.4,11.7l5.4,8.4c0,0,1.7-1.3,5-1.3s6.7-2.9,6.7-2.9s3.8,0.8,3.3-3.8c-0.4-4.6,1.7-10,1.3-11.3
			c-0.4-1.3,3.8-6.7,3.8-7.9c0-1.3,4.2-7.1,4.2-9.2s2.9-5.4,3.3-7.9s0.8-8.4,1.7-10s1.3-3.3,1.3-5s0-5,0-5L1139.6,776.3
			L1139.6,776.3z"/>
		<path class="st1" d="M1494.3,489.4c0,0,0-0.2,0-0.6C1493.7,488.6,1494.3,489.4,1494.3,489.4z"/>
		<path class="st1" d="M1640.9,342.4c-1.3-0.8-7.9-5.8-8.4-7.5c-0.4-1.7-15-5-19.6-4.6c-4.6,0.4-8.8,1.7-12.5,0.4s-9.2-4.6-12.1-4.6
			c-2.9,0-39.7-7.1-41.3-6.7c-1.7,0.4-4.2,8.4-5.4,7.1s-3.3-1.3-9.2-2.9s-13.8-2.9-24.2-3.8c-10.4-0.8-17.5,0.8-20.5-2.5
			c-2.9-3.3-9.2-2.1-16.3-2.5c-7.1-0.4-15.5,0-19.2,0s-12.5-0.4-14.6-0.8c-2.1-0.4-4.6-3.3-7.1-3.8c-2.5-0.4-2.1-1.3-7.1-2.1
			s-4.6-6.3-6.3-1.7c-1.7,4.6-0.8,3.3-3.3,5s-5,5-6.7,5s-8.3,0.4-9.6-0.4s-3.3-1.7-7.5-1.7c-4.2,0-4.2,0.4-9.6-0.4
			c-5.4-0.8-9.6-0.4-14.6-2.9s-5-4.2-9.2-3.8s-4.2-0.8-10-0.8c-5.9,0-12.9,3.3-16.7,3.8c-3.8,0.4-12.1-0.4-15-1.7
			c-2.9-1.3-3.8-4.2-14.6-2.9c-10.9,1.3-17.1,1.3-15-2.1c2.1-3.3,4.6-6.7,5.8-7.1c1.3-0.4,4.2-2.5,2.1-3.3c-2.1-0.8-4.2-2.1-9.2-2.5
			c-5-0.4-4.6,1.7-12.1,0.8s4.2-2.9-11.3-2.5c-15.5,0.4-19.2,1.7-20.9,1.7c-1.7,0-3.8-3.3-7.9,1.7c-4.2,5-10,7.9-18.4,8.4
			s-8.8-0.8-16.7,2.1c-7.9,2.9-12.9-0.8-11.3,5.8s3.8,9.2,3.8,10.4s-3.8,9.6-8.4,4.6c-4.6-5-12.9-24.6-9.2-11.3
			c3.8,13.4,12.1,18,4.2,20c-7.9,2.1-7.1-0.8-8.4-1.7c-1.3-0.8,0-6.7-0.4-10c-0.4-3.3-1.3-5.4-2.9-7.1c-1.7-1.7-1.3-4.2-4.6-5
			c-3.3-0.8-0.4-2.5-5.8-2.5c-5.4,0-10-3.3-8.8,4.2s2.5,2.5,5.8,9.6c3.3,7.1,9.6,2.1,5,7.1c-4.6,5-16.7,3.3-19.6,1.3l-5.4,3.1
			c0.2-2,0.9-4.4-2.5-6.7c-5.4-3.8-3.8-6.7-10-3.8c-6.3,2.9-8.4,8.4-10.9,6.3c-2.5-2.1-8.4,2.9-10.4,0.4c-2.1-2.5-10.4-2.5-12.1,0
			c-1.7,2.5-6.7,2.1-13.8,5.4c-7.1,3.3-5,0.4-13.8,7.5s-13.8,12.9-16.7,8.4c-2.9-4.6-18.8-12.5-12.5-13.8c6.3-1.3,9.2-3.8,12.5-0.8
			c3.3,2.9,8.8,2.1,9.6,0c0.8-2.1,4.6-4.2-0.4-6.7s-5.4-0.8-13.4-3.8c-7.9-2.9,0-2.1-10.9-3.8c-10.9-1.7-15.5-2.5-18.4-3.3
			c-2.9-0.8-7.1,0-11.3-0.4c-4.2-0.4-7.1-1.3-10.9-0.8c-3.8,0.4-5.8-0.4-10.9,3.3s-8.8,5.4-12.1,8.4s-12.1,8.8-14.6,10.9
			c-2.5,2.1-11.3,8.8-12.1,11.3c-0.8,2.5,0.8,4.6-2.5,6.3c-3.3,1.7-6.7,1.7-9.2,2.1c-2.5,0.4,0-3.8-2.5,0.4s-1.7,19.2,0.4,17.1
			c2.1-2.1,0.8-8.8,10-2.5c9.2,6.3,15,5.4,14.6,11.3c-0.4,5.8,6.3,5.4,7.1,6.7c0.8,1.3,5-1.7,5-1.7s9.2-5.8,9.2-8.8s5.8-9.6,5.8-9.6
			s-4.2-2.1-4.2-6.3c0-4.2,1.3-5.4,2.1-9.6c0.8-4.2-4.6,0,7.9-7.9c12.5-7.9,13.4-2.5,13.4-2.5s1.7,1.7-0.4,4.2s-5.8,9.2-6.7,10
			c-0.8,0.8,3.8,7.5,5.8,7.5c2.1,0,6.3-1.7,8.8-1.3c2.5,0.4,6.7-1.3,7.9-0.4c1.3,0.8,4.2,3.3,2.1,5.4c-2.1,2.1-6.7,4.6-10,3.8
			c-3.3-0.8-8.4-6.7-5.4,1.7c2.9,8.4-0.4,10.4-2.9,10c-2.5-0.4-7.9-4.6-7.1,1.7c0.8,6.3-5.4,10.4-6.7,10.4s-3.8-0.4-3.8-0.4
			s-3.8-0.4-5.8-0.4c-2.1,0-6.3,2.1-7.5,3.8c-1.3,1.7-2.9,0.4-5,0.4c-2.1,0,0-2.5-4.2-3.3c-4.2-0.8-6.7-1.7-9.2,0
			c-2.5,1.7-6.3,2.5-7.9,1.3c-1.7-1.3,0.8-4.2-2.5-2.5s-5.8,6.3-7.1,6.7c-1.3,0.4,3.8,0-1.3,0.4c-5,0.4-7.1,1.7-9.6,2.5
			c-2.5,0.8,0.8,5.8-3.8,7.5s-1.3-2.1-5.8,1.7c-4.6,3.8-5.4,7.1-7.1,7.5c-1.7,0.4-1.3,1.3-5,1.7s-3.3,0.8-5.4,1.3
			c-2.1,0.4,0.4,1.3-4.2,0.4c-4.6-0.8-7.9,0.8-7.1,2.5c0.8,1.7,16.3,6.3,4.6,5.8c-11.7-0.4-7.9,1.7-5.4,3.3s3.8,3.3,5,3.8
			c1.3,0.4,3.3,5.4,3.3,5.4s3.3-0.4,1.3,2.5c-2.1,2.9,0.8,3.8-1.3,7.5s-2.1,1.3-3.8,2.1s-4.2,3.8-8.8,1.3c-4.6-2.5-7.9-3.8-13.4-4.2
			c-5.4-0.4-1.7-1.3-5.4,1.7c-3.8,2.9-4.6,6.3-4.2,10c0.4,3.8,0.8,8.8-0.4,11.3c-1.3,2.5-1.3,5-0.4,8.8c0.8,3.8,3.3,5.4,3.3,5.4
			s5.8,0.8,7.1,1.3c1.3,0.4,3.8-0.8,7.1,1.3c3.3,2.1,6.7,2.9,8.8,0.4c2.1-2.5,10.4-5.4,12.9-7.9s4.2-3.3,2.9-5.8
			c-1.3-2.5,2.5-8.8,4.6-10c2.1-1.3,6.7-2.5,6.7-2.5l5-7.5c0,0,4.2-4.6,6.3-4.2s13.8,4.6,12.9-0.8c-0.8-5.4,0.8-7.1,2.1-5
			s4.6,1.3,4.6,1.3s1.7-0.8,2.9,0.4c1.3,1.3,2.9,6.7,5.4,7.9c2.5,1.3,4.6,2.5,6.3,3.3c1.7,0.8,3.3,0,6.7,2.9
			c3.3,2.9,6.7,4.6,7.1,5.8c0.4,1.3,3.3,4.2,3.3,4.2s2.9,0.8,2.1,2.5c-0.8,1.7-5,6.7-7.1,7.5s-7.5-0.8-5.4,0.8
			c2.1,1.7,5,3.8,6.3,2.5c1.3-1.3,9.2-9.6,9.2-9.6s-0.4,0.4,0-2.1c0.4-2.5,0-5.4,2.1-4.2c2.1,1.3,3.3,2.9,4.2,1.3
			c0.8-1.7,1.7-0.8-0.4-2.1s-7.1-8.4-9.6-8.8s-8.8-4.6-8.8-4.6s-1.3-1.3-4.2-4.6c-2.9-3.3-3.8-2.5-4.6-5.4c-0.8-2.9-3.3-6.7,1.3-5.8
			s7.5,3.8,11.7,6.3c4.2,2.5,3.3,3.3,7.1,5.8c3.8,2.5,4.2,5,7.1,4.6c2.9-0.4,6.3,1.7,6.3,5.4c0,3.8,0.8,7.9,1.7,8.8
			c0.8,0.8,3.3,2.5,4.2,4.2s2.5,5.8,3.8,7.5c1.3,1.7,2.5,2.9,3.8,5c1.3,2.1,1.7-0.4,2.9,0.4c1.3,0.8,2.9,0.4,2.9-1.3
			c0-1.7,0.4-4.6,0.4-4.6s5.9-1.7,4.2-2.5c-1.7-0.8-6.7-5.8-6.3-7.5c0.4-1.7,0-5,2.1-4.6c2.1,0.4,4.2,4.2,8.8,0.8l3.6-2.6
			c-0.6,4,3,13.2,4.8,15.6c2.7,3.6,4.5,4.5,4.6,4.6c0.9,0.9,4.6,3.6,4.6,3.6s16.4,0,17.3,0.9s5.5,4.6,10.9,1.8
			c5.5-2.7,10.9-3.6,10.9,0s0,10.9,0,20.1c0,8.4-16.9,10.6-19.7,10.9c-3.7-0.3-8.1,0-13.3-1.2c-5.4-1.3-15.5,1.3-19.6-1.3
			c-4.2-2.5-10-0.4-12.5-3.3c-2.5-2.9-6.7-2.5-8.4-4.2c-1.7-1.7-2.5-6.3-2.5,0.4c0,6.7-3.8,7.1-4.6,10.4c-0.8,3.3,1.3,1.7-3.3,1.3
			c-4.6-0.4-5.8,2.1-12.5-2.9s-10-5-13.4-7.1s-6.7,3.8-10-2.9c-3.3-6.7-7.9-1.3-8.4-6.7c-0.4-5.4,0-5,0.4-8.4s5-6.3,2.9-7.5
			c-2.1-1.3-0.4-3.3-3.3-2.1c-2.9,1.3-7.1,1.7-10.4,2.9c-3.3,1.3,7.5,0-8.8,1.3c-16.3,1.3-20.9,2.9-20.9,2.9s-1.3-0.8-3.3,0.8
			s-5,4.2-7.9,2.9c-2.9-1.3-4.6-0.8-7.1-0.4c-2.5,0.4-4.2-2.1-7.1,0c-2.9,2.1-6.3,2.9-7.5,2.1c-1.3-0.8-3.3-4.2-3.3-4.2l0,0
			l-6.3,8.4l-4.2,4.2l-8.4,4.6l-1.3,3.8c0,0-3.3,3.3-2.9,5.4c0.4,2.1,0.4,5.8,0.4,5.8s-5.8,5.4-8.4,7.1s-5.8,5.4-5.8,5.4
			s-2.1,2.5-3.3,3.3s-3.3,3.3-5,5.8c-1.7,2.5-3.3,4.2-4.2,5.4c-0.8,1.3-3.3,4.2-4.6,8.8c-1.3,4.6-4.6,10-4.6,10l-0.8,2.1
			c0.4,7.1,0.4,8.4,1.3,10.9c0.8,2.5,1.7,1.7,0.8,7.1c-0.8,5.4-0.8,7.5-1.7,10c-0.8,2.5-3.3,7.1-4.2,9.2s1.7,5.8,1.7,5.8
			s1.3,5.4,0.4,6.7c-0.8,1.3,0.4,3.8,0.4,3.8s5,2.9,6.7,4.6c1.7,1.7,4.6,4.2,5,5.4c0.4,1.3,3.8,7.1,4.2,8.4c0.4,1.3,3.8,5.8,4.6,7.1
			c0.8,1.3,5,5.8,5,5.8s5.4,4.2,6.7,5.8c1.3,1.7,5,2.5,6.3,3.8c1.3,1.3,4.2,0.8,5.8,2.1s5-0.8,6.7,0c1.7,0.8,6.3-0.8,7.5-1.7
			s4.2-3.8,6.3-2.5c2.1,1.3,3.3,0,5,0.4c1.7,0.4,4.2-1.7,5.8-1.7c1.7,0,5.8-1.7,7.1-1.7s5.4-2.5,7.1-2.5c1.7,0,3.8-1.7,5.8-0.8
			c2.1,0.8,1.3-1.7,5-0.4c3.8,1.3,5,0,6.3,1.3c1.3,1.3,2.9,0,4.2,1.7c1.3,1.7,3.3,2.9,3.8,4.6c0.4,1.7,2.9,3.3,2.9,3.3l2.5,0.4
			c0,0,3.3-2.5,4.2-0.8c0.8,1.7,4.6,1.3,4.6,1.3l3.8,4.2l1.3,1.7c0,0,2.5,6.7,2.1,9.2c-0.4,2.5-0.4,7.9-1.7,9.2
			c-1.3,1.3-2.1,6.7-2.1,6.7s-1.7,1.7,2.1,5c3.8,3.3,6.3,6.3,7.5,7.9c1.3,1.7,4.6,6.3,5,9.2c0.4,2.9,1.3,4.6,2.9,8.4
			c1.7,3.8,3.8,4.2,4.2,8.4c0.4,4.2,1.3,4.2,0.8,7.1c-0.4,2.9-1.7,3.3-0.4,5.4c1.3,2.1,2.9,5.8,2.5,7.1c-0.4,1.3-1.3,6.7-1.3,6.7
			l-0.8,2.5l-3.8,7.1l-2.5,3.8c-0.8,2.9-2.5,5.8-2.1,10c0.4,4.2-2.1,4.2,1.3,8.3c3.3,4.2,5,8.8,7.1,12.5c2.1,3.8,3.3,7.5,3.8,10
			c0.4,2.5,2.1,3.3,2.9,6.7c0.8,3.3,1.3,5,1.3,7.1s-0.4,7.5,0.4,8.8c0.8,1.3,1.3,5,1.7,6.7c0.4,1.7-1.3,2.1,1.3,5s4.2,4.6,5.8,6.7
			s1.3,1.3,2.5,4.2s2.9,4.6,3.3,7.1c0.4,2.5,0.8,8.8,2.1,11.7c1.3,2.9,2.9,5.8,2.9,5.8s4.6,2.9,6.3,2.5c1.7-0.4,5-4.2,7.5-2.9
			c2.5,1.3,4.6,0,6.7,0s4.2-2.5,6.3-2.5s5-3.3,6.7-2.5c1.7,0.8,3.8-0.8,5.8-2.9c2.1-2.1,3.3-3.8,7.1-7.1s3.3-3.3,5.8-5.4
			s5-6.7,7.9-7.5c2.9-0.8,3.8-3.8,4.6-5.8c0.8-2.1,1.3-3.3,2.5-5c1.3-1.7,0.4,0.4,2.5-5c2.1-5.4,4.6-7.5,6.7-8.8s3.3-3.8,4.6-4.2
			s3.3,1.3,2.5-2.5c-0.8-3.8,0-9.2-0.8-10.4s-2.1,2.9-1.7-3.3c0.4-6.3,5-12.5,5-12.5s6.3-7.9,8.4-9.2c2.1-1.3,2.5-2.5,5.4-4.2
			c2.9-1.7,9.2-5.8,9.2-7.9s2.5-7.5,2.5-8.8c0-1.3,0-2.5-0.8-9.6s0.8-5.4-1.7-12.1c-2.5-6.7-2.9-15-4.6-17.1
			c-1.7-2.1-0.8-7.5-0.8-9.2s2.9-5.8,4.2-7.5c1.3-1.7,6.7-8.4,6.7-8.4s8.4-9.6,11.3-14.2c2.9-4.6,5.8-8.8,7.9-10.4s7.1-5.4,10-9.6
			c2.9-4.2,8.8-12.1,9.2-13.4c0.4-1.3,3.8-5.4,3.8-5.4s4.6-5.4,5.4-8.4c0.8-2.9,5-19.2,4.2-18.4s-5.8,1.7-7.5,2.1
			c-1.7,0.4,2.5,2.1-9.6,1.3c-12.1-0.8-18.4,1.3-18.4,1.3c-3.8-0.8-6.7,3.3-7.9-2.5s-2.1-9.2-4.6-13.4c-2.5-4.2-4.2-5.8-7.9-11.3
			c-3.8-5.4-3.3-2.9-6.7-7.1c-3.3-4.2-4.2-2.9-6.3-8.4c-2.1-5.4-3.8-3.3-6.3-10.9c-2.5-7.5-4.2-8.4-5.4-12.5
			c-1.3-4.2-2.9-5.4-3.8-9.2c-0.8-3.8-10.4-23-11.7-24.2c-0.2-0.2-0.4-0.5-0.6-1l14.8,4.7c0,1.7,8.8,9.6,10.9,15.5
			c2.1,5.8,4.6,10,5,11.7c0.4,1.7,4.6,8.4,6.3,10.9c1.7,2.5,7.1,7.5,7.9,10c0.8,2.5,8.8,10.9,8.8,16.3c0,5.4,3.8,12.5,4.2,14.2
			c0.4,1.7,7.9,3.8,7.9,3.8l10-2.5c0,0,15-9.6,16.7-9.6c1.7,0,15-6.3,15-6.3s5.4-5,9.2-7.9c3.8-2.9,7.9-8.4,8.8-10.9
			c0.8-2.5,2.5-2.9,5.8-6.7c3.3-3.8,7.9-7.5,5-10c-2.9-2.5-4.6-1.7-8.8-5.8c-4.2-4.2-3.8-3.3-6.7-8.8c-2.9-5.4,0.4-11.7-5.8-5.4
			s-3.8,7.9-10,9.2c-6.3,1.3-8.8,5.4-11.7,1.3c-2.9-4.2-5.8-1.7-7.5-7.9s-2.9-6.7-3.3-9.2s0-2.5-3.3-8.8c-3.3-6.3-0.8-15.9,1.3-10.4
			s5.4,6.3,10.9,10c5.4,3.8,7.9,6.7,12.9,7.1c5,0.4,9.2,0,10,0.8c0.8,0.8,1.7-0.4,3.8,0.4s2.9-1.3,3.8,2.1c0.8,3.3,5.4,3.8,7.5,5.8
			s2.1,1.3,7.5,2.1s12.9,0.8,12.9,0.8l7.9-0.4l9.2,0.8c0,0,6.7,3.8,8.4,3.8c1.7,0,2.1,4.6,6.3,7.1c4.2,2.5,5,2.9,7.5,5.8
			c2.5,2.9,2.1,4.2,5.4,7.1c3.3,2.9,8.8-0.4,9.6-1.7c0.8-1.3,5-3.3,4.2,0c-0.8,3.3,4.2,2.1,2.9,10c-1.3,7.9-2.1,5.8,0,11.3
			s11.3,22.1,11.7,27.1c0.4,5,2.9,3.3,3.3,7.9c0.4,4.6,2.9,6.3,2.9,9.6s2.9,4.2,3.3,6.7c0.4,2.5,5,0.4,6.3,0
			c1.3-0.4,7.1-5.8,7.1-5.8s2.5-0.8,2.1-5c-0.4-4.2,0-3.3,0-9.6c0-6.3-2.5-6.3-1.3-12.5c1.3-6.3,4.6-10,5.4-12.9s4.2-7.9,5.8-8.4
			c1.7-0.4,10.9-5,12.9-7.9c2.1-2.9,5.4-6.3,8.8-9.6c3.3-3.3,9.2-7.5,10.4-6.3c1.3,1.3,0.8,0.8,2.9,0.8c2.1,0,5.8,1.7,8.8,2.1
			c2.9,0.4,8.8,7.5,10,11.3c1.3,3.8,0.4,2.9,5,8.4c4.6,5.4,8.8,2.1,8.8,8.8c0,6.7,0,6.3,2.1,8.8c2.1,2.5,4.6-4.6,7.1-3.8
			c2.5,0.8,2.9-0.8,5,5.8s3.3,6.7,3.8,13.4c0.4,6.7-0.4,0.4-0.4,5.8c0,5.4-0.4,5.8,0.4,10.9c0.8,5,3.8,6.7,3.3,7.5
			c0,0,2.5-7.1,1.7-12.1s0-12.1,2.1-14.2s4.2-4.2,5.8,1.3c1.7,5.4,2.5,1.3,6.3,7.5c3.8,6.3,7.1,5,7.5,7.9c0.4,2.9,2.5,3.3,5.4,5.8
			c2.9,2.5,5.4-0.4,8.8-2.9c3.3-2.5,12.5-11.7,12.9-15.5c0.4-3.8,4.2-2.9-2.5-12.5c-6.7-9.6-6.7-12.9-13.8-18.8
			c-7.1-5.8-11.3-6.3-5.8-13.8c5.4-7.5,7.9-12.5,11.3-10.4s9.2,1.7,9.2,10c0,8.4-1.7,17.5,4.2,7.5c5.1-8.8,8-14.4,7.5-14.5
			c1.2-1,3.4-3.1,3.4-3.1s0.4-3.8,7.5-5.4s9.2-2.5,11.7-3.8c2.5-1.3,9.6-9.6,10.9-13.4c1.3-3.8,4.6-10.4,3.8-13.4s-5-17.1-5.8-16.7
			c-0.8,0.4-0.4,0.4-5.8-5.4c-5.4-5.8-9.2-10-10-12.5s-2.9-2.9-0.4-6.3c2.5-3.3,3.8-2.9,4.2-5.8s3.8-5.4-2.5-3.3
			c-6.3,2.1-1.7,0.8-7.1,0.4c-5.4-0.4-19.6,2.9-12.5-5.8c7.1-8.8,9.2-14.2,10.4-14.2c1.3,0,7.5-7.1,7.9-0.4c0.4,6.7,2.9,5,3.3,9.2
			c0.4,4.2,8.8-4.6,8.8-4.6s2.9,0.8,5,2.9c1.7,1.7,2,6.5,2.1,8.2c0.4,0.1,1.2,0.6,2.9,1.9c4.6,3.3,9.6,1.7,9.6,8.8s0,7.5,2.9,9.2
			c2.9,1.7,5.8,0.8,8.4-1.3c2.5-2.1,6.7-9.6,6.7-9.6s0.4-2.9-6.3-7.1s-10.9-7.1-13.4-9.2c-2.5-2.1-1.7-8.4,0.8-10.9s3.8-3.8,2.9-7.1
			s1.3-5.8,7.5-5.4s7.5-0.4,7.5-0.4s1.3,0.8,1.3-1.7s7.9-14.2,5.8-14.2s0.4-2.9-0.8-7.5s4.2-11.7-0.4-15c-4.6-3.3-5.8-5-8.8-10
			c-2.9-5-2.5-5.8-13.4-7.1c-10.9-1.3-15.9,2.5-18.4-0.8c-2.5-3.3-3.8,5-5.4-5c-1.7-10,2.5-16.7,2.5-16.7s6.7-4.2,8.3-7.1
			c1.7-2.9,8.4-4.2,13.8-2.1c5.4,2.1,13.4,1.7,20,2.9c6.7,1.3,6.3,5.4,9.6,0c3.3-5.4,0-7.9,2.5-10.9c2.5-2.9,5.4-7.5,7.5-4.6
			c2.1,2.9,6.3,5.8,9.6,2.1c3.3-3.8,4.6-4.2,4.6-4.2l1.7,1.7c0,0,3.8-2.1,3.8,1.7c0,3.8,3.8,7.9,1.7,10.9c-2.1,2.9-5,2.5-5,9.6
			s0,5.8,4.6,11.7c4.6,5.8,7.5,0.8,8.4,7.1c0.8,6.3,1.7,5,6.3,9.2c4.6,4.2,3.7,4.2,7.2,6.8c2.6,1.9,4.8,0.9,5-2.4
			c0.1-2.4,0.2-4.2-0.1-6.9c-0.4-3.8,3.3-6.7,0.8-12.9s-0.4-5.8-5.4-10.4c-5-4.6-8.4,0.8-10-5.8s7.9-9.6,10.4-10.4
			c2.5-0.8,6.3-5.8,7.1-2.5c0.8,3.3-6.3,15.5,5.9,2.5c3.9-4.1,5.9-6.4,7-7.6c1.3-0.2,6.1-0.7,7.2,0c1.3,0.8,4.6-3.8,3.3-3.3
			c-1.3,0.4-13.4-6.7-13.4-6.7l-8.8-5c0,0,2.9-2.1,5-1.7c2.1,0.4,2.5-4.2,4.6-4.6c2.1-0.4,16.3,2.9,19.2,4.6
			C1631.7,342.8,1642.2,343.3,1640.9,342.4z M1089.6,470.3c-0.9,2.7-13.7,6.4-19.2,2.7s-24.6-8.2-31.9-7.3c-2.2,0.3-16.8,1-25.5,3.6
			v-1.8l2.7-12.8l7.3-11.9c0,0,5.5-3.6,8.2-3.6s0.9,6.4,0.9,7.3s5.5,4.6,7.3,5.5s5.5-2.7,5.5-2.7s-3.6-6.4-3.6-8.2
			s16.4-6.4,16.4-5.5s-3.6,9.1-4.6,13.7c-0.9,4.6,19.2,13.7,21,11.9c1.1-1.1,13.7,5.4,23.4,10.1C1093.6,470,1090,469.1,1089.6,470.3
			z"/>
		<path class="st1" d="M1499.7,673.2c-2.9-2.9-4.2-3.8-6.3-4.6l-2.1-0.8h0c-1.7,2.5-7.1,10-9.2,10.4c-2.1,0.4-4.2,2.5-5.8,2.1
			c-1.7-0.4-5.4,0-6.7,5.4c-1.3,5.4-3.3,8.4-4.6,7.9c-1.3-0.4,2.1,7.9-5,4.6c-7.1-3.3-4.6,2.9-5.4,4.6c-0.8,1.7,1.3,6.3,1.7,7.9
			c0.4,1.7,1.7,4.6,3.3,7.1c1.7,2.5,2.9,5.4,5.8,4.6s12.1,0,12.1,0s3.3,1.3,5.4,1.3c2.1,0,2.5-0.8,3.8-0.8c1.3,0,3.8-4.2,3.3-4.6
			c-0.4-0.4-1.7-1.7,0.8-4.2c2.5-2.5,5.4-3.3,5.8-6.3c0.4-2.9-0.8-2.9,0.4-4.6c1.3-1.7,4.2-1.2,3.3-2.9c-0.8-1.7,0.8-1.3-0.8-4.6
			s-3.8-4.6-2.1-8.8s3.3-5,2.9-7.5S1502.7,676.1,1499.7,673.2z"/>
		<path class="st1" d="M1432.9,722.9c-0.4-1.3-1.7-4.6-3.3-5.8c-1.7-1.3-3.3-4.2-6.3-9.6c-2.9-5.4,0,0-6.3-8.8
			c-6.3-8.8-5.8-3.3-10.4-6.3c-4.6-2.9-5.8-4.2-7.9-6.7c-2.1-2.5-4.6-9.6-7.9-9.2c-3.3,0.4-5.4-1.7-5.4-1.7l0,0l-1.3,0.4
			c0,0,2.9,3.8,4.2,5.4s0.8,4.2,3.8,7.1c2.9,2.9,3.3,5.4,5,6.3c1.7,0.8,5,8.4,6.3,10.9c1.3,2.5,3.8,5,5.4,7.5
			c1.7,2.5,5,7.9,7.9,12.9c2.9,5,5,7.1,6.7,9.6c1.7,2.5,6.7,5,6.7,5s2.1-0.4,4.6-3.3c2.5-2.9,1.7-6.3,1.7-7.5
			S1433.3,724.1,1432.9,722.9z"/>
	</g>
	<g>
		<path class="st2" d="M464.9,661.1L462,657c0,0-1.3-2.5-3.3-2.9c-2.1-0.4-6.7-5.8-6.7-5.8s-2.1-1.7-2.1-4.6c0-2.9-1.7-7.5-0.4-12.5
			s1.7-11.3,1.3-12.9c-0.4-1.7,2.1-2.1-0.8-3.8s-8.8-2.1-12.5-2.1c-3.8,0-8.3,1.3-9.2,1.7c-0.8,0.4,4.6-12.5,5.4-14.6
			s4.6-11.3,4.6-12.5c0-1.3,1.3-1.7-1.3-3.3c-2.5-1.7-6.7-2.5-9.2-1.3c-2.5,1.3-2.1-1.7-4.2,3.3c-2.1,5-4.2,10.4-6.7,11.3
			s-7.5,3.3-7.5,3.3s-6.3-0.4-8.3-0.8c-2.1-0.4-10.9-5-12.5-7.9c-1.7-2.9-2.5-9.2-2.5-12.1c0-2.9,4.6-11.7,4.2-13.8
			c-0.4-2.1,4.6-10.4,4.2-11.7c-0.4-1.3,0.8-5.4,2.1-7.1s7.5-3.8,9.2-5.4c1.7-1.7,4.6-3.8,7.5-4.6c2.9-0.8,5.4-1.7,7.5-1.7
			c2.1,0,7.5-4.6,8.3,0c0.8,4.6,4.6,2.9,6.7,3.3s2.5,2.5,5.8-2.9c3.3-5.4,6.7-7.1,6.7-5.8c0,1.3,5.4-0.4,6.3,0.8
			c0.8,1.3,2.5-0.8,5.4,1.7s7.1,2.9,6.7,4.2c-0.4,1.3,1.7,1.3,1.7,2.5c0,1.3,1.7-2.9,1.7,4.6s2.1,12.1,2.1,12.1s2.9,6.3,4.2,5
			c1.3-1.3,3.8-4.6,3.8-4.6s4.2-2.5,1.3-11.3c-2.9-8.8-0.8-11.3-1.7-14.2c-0.8-2.9-0.8-4.6,4.2-8.3c5-3.8,17.1-12.1,20-13.8
			c2.9-1.7,9.6-6.3,9.6-6.3s2.5-1.3,2.9-4.6c0.4-3.3,8.3-9.2,8.8-10.9c0.4-1.7,5.8-5.8,5.8-5.8s5.8-3.3,5.4-5.4
			c-0.4-2.1,7.5-5.8,8.8-5.8s7.9,2.1,7.9-1.7c0-3.8,0-4.6,4.2-7.9c4.2-3.3,9.6-8.3,11.7-8.3c2.1,0,9.2-3.8,12.1-4.6
			c2.9-0.8,12.1-5,3.8,0s-2.9,2.1-4.6,6.3s-2.9,9.6,5,3.3c7.9-6.3,7.5-7.5,10.4-7.9c2.9-0.4,0.8,1.3,7.1-0.8s6.7-2.9,6.7-2.9
			s2.9-2.5,1.3-3.8c-1.7-1.3,1.7-2.9-4.6-0.4c-6.3,2.5-5.8,2.9-10,1.7c-4.2-1.3-10.4-0.8-5.8-5c4.6-4.2,10.4-5.4,6.7-7.1
			c-3.8-1.7-13.4,0.4-14.6,0.8c-1.3,0.4-4.2-0.4-6.7,0s-1.7-3.3,0-4.2c1.7-0.8,7.1-3.3,13.8-5c6.7-1.7,23-2.1,26.7-2.1
			c3.8,0,8.8,0.8,11.7-1.3c2.9-2.1,8.8-5.4,9.6-7.1c0.8-1.7,4.2-4.2,4.2-4.2s3.8-3.8,1.7-5.4c-2.1-1.7-4.2-5.4-5.8-4.6
			c-1.7,0.8-0.4,5.8-3.8,0.4c-3.3-5.4-2.9-6.3-4.6-7.5c-1.7-1.3-3.3-0.4-2.1-6.3s0.8-8.3,0.8-8.3s1.3-5,0-5.4
			c-1.3-0.4-2.1-1.7-4.2-0.4c-2.1,1.3-13.8,7.1-16.3,8.3c-2.5,1.3-5.8-5-4.6-7.9c1.3-2.9,0.4-1.3-1.3-5.4c-1.7-4.2-8.3-5-10.9-5
			c-2.5,0-8.3-3.8-10-1.3c-1.7,2.5-10.4,10.4-12.1,11.3c-1.7,0.8-4.2-7.1-5.4,5.8c-1.3,12.9,4.6,16.7-2.1,17.5
			c-6.7,0.8-12.5,4.6-12.5,4.6s-5.4,0.4-5.4,3.8c0,3.3-2.1,11.3-4.6,12.1s-8.8-0.4-10.9-2.9c-2.1-2.5,0.4-11.7,0.4-11.7l3.8-3.8
			c0,0-26.7-4.2-26.3-5.8c0.4-1.7-7.9-4.6-8.8-7.1c-0.8-2.5-1.3-7.9-0.4-10c0.8-2.1,12.1-12.1,17.9-14.2c5.8-2.1,15.9-6.7,18.8-7.5
			c2.9-0.8,7.9-0.4,9.6-2.5c1.7-2.1,2.1-5.8,2.1-5.8s-0.8-5.8,0.8-5c1.7,0.8,4.6,2.1,5,3.3c0.4,1.3,0.4,4.2,3.3,0.8
			c2.9-3.3,6.7-4.6,10-6.3c3.3-1.7,8.3-1.3,11.3-2.9c2.9-1.7,7.9-3.3,8.3-7.5c0.4-4.2-1.3-2.9-3.3-3.3c-2.1-0.4,0.8,0.4-6.3,3.8
			c-7.1,3.3-5,0.8-10,3.3c-5,2.5-5.4,2.9-5.8,0.8c-0.4-2.1,0.8-5.4,0.8-5.4s0.4-0.4-2.5-1.3c-2.9-0.8-2.9,0.4-3.3-3.3
			c-0.4-3.8,2.1-9.2-2.1-7.5c-4.2,1.7-7.9-1.3-10.9,7.1c-2.9,8.3-12.9,17.1-15.4,15c-2.5-2.1-2.9-2.5-5-2.5c-2.1,0-5-2.5-8.8-2.9
			c-3.8-0.4-15-0.4-17.9,0c-2.9,0.4-6.3-1.7-8.8,0.8c-2.5,2.5-6.3,5.8-6.3,7.1c0,1.3-3.8-4.6-5-4.2s-4.6-1.7-8.3-1.7
			c-3.8,0-6.3-2.1-7.5-2.1c-1.3,0,1.3-3.3,0-3.8c-1.3-0.4-28.4-1.3-28.4-1.3s-8.8-3.3-12.1-2.9c-3.3,0.4-12.5,0.8-19.6,2.1
			c-7.1,1.3-17.5,5.4-20.9,5.8c-3.3,0.4-10.9,0.4-12.1-1.7c-1.3-2.1,0.4-1.7-1.3-2.1c-1.7-0.4-0.4-1.3-4.2-4.2
			c-3.8-2.9,1.7-5.4-5.8-5.4c-7.5,0-12.1-0.4-18.8,0c-6.7,0.4-20.5,3.8-22.1,3.3c-1.7-0.4-15,2.1-17.1,0.8
			c-2.1-1.3-12.5,4.6-14.6,4.2c-2.1-0.4-10,0.4-12.1,1.7s-12.1,3.8-8.8,5.8c3.3,2.1,2.9,4.2,3.3,5.4c0.4,1.3-3.3,4.2-3.3,4.2
			s-0.8,0-5.4-1.7s-9.6-2.5-11.7-1.3c-2.1,1.3-5.8,3.8-5,5.4c0.8,1.7,6.7,5.4,7.5,4.2c0.8-1.3,2.9-3.8,5.4-3.3
			c2.5,0.4,6.3-1.7,2.9,2.5s-6.3,6.3-8.3,6.7c-2.1,0.4-7.1,0.8-11.7,1.3c-4.6,0.4-4.2-1.7-8.3,2.5s-5.8,1.7-6.7,6.3
			c-0.8,4.6-1.7,4.6,0,5.8c1.7,1.3-3.3,1.7,0.4,2.9c3.8,1.3,8.3,2.5,7.9,3.8c-0.4,1.3,4.2-1.7,1.7,1.7s-4.2,6.3,0.8,2.9
			c5-3.3,7.9-0.8,12.1-2.9s8.3-2.5,10.9-4.2c2.5-1.7,3.8-4.2,7.5-5.4c3.8-1.3,1.3,0.4,1.7,2.5c0.4,2.1,0,2.5,2.5,0.8
			c2.5-1.7,2.5-0.4,5.8-2.5c3.3-2.1,7.1-4.2,9.6-2.9c2.5,1.3,3.3,1.3,5,1.3c1.7,0-2.1-0.4,1.7,0c3.8,0.4-1.7-1.3,10.9,1.7
			c12.5,2.9,15.9,0.8,16.7,5.4s2.5-0.4,4.6,2.5c2.1,2.9,3.3,0.4,4.6,5.4s0,18.8-0.8,20.5s-1.3,1.7-0.8,5.4c0.4,3.8,5.4,21.7,3.8,23
			c-1.7,1.3-5.4,1.7-5.4,1.7l-2.1,7.5c0,0-3.3,6.3-6.3,9.6c-2.9,3.3-6.7,7.5-8.8,10.4c-2.1,2.9-3.8,7.9-6.7,10.9
			c-2.9,2.9-5.4,1.7-4.6,7.9c0.8,6.3,0,12.9,0.8,17.5c0.8,4.6,2.9,10.9,4.6,13.4c1.7,2.5,2.9,2.5,5.8,4.6c2.9,2.1,6.7,4.6,6.3,6.7
			s0.4,15,0.4,15s2.5,4.2,2.9,8.8c0.4,4.6,3.3,9.2,3.3,9.2l2.5,5.4c0,0,1.3,0.4,2.9,3.8c1.7,3.3,1.7,3.3,2.1,5
			c0.4,1.7,0.4,1.3,0.4,1.7c0,0.4-0.4-7.1-1.3-9.2c-0.8-2.1-0.8-4.6-1.7-7.1c-0.8-2.5,0.4-5.4-2.1-9.2c-2.5-3.8-2.5-4.2-3.8-7.9
			c-1.3-3.8-2.9-7.9-1.3-8.8c1.7-0.8,2.9-6.3,6.3,0s3.8,4.6,4.2,9.6c0.4,5,1.7,6.7,2.9,8.8c1.3,2.1,4.2,9.2,5.8,12.1
			c1.7,2.9,0-1.7,3.8,4.2c3.8,5.8,4.2,7.1,6.3,11.7c2.1,4.6,3.3,4.6,4.6,7.9c1.3,3.3,0.4,2.5-0.4,6.3s0.8,7.9,0.8,7.9
			s5.8,2.1,6.3,3.3s6.3,3.3,7.1,5s6.3,3.8,6.3,3.8s4.6,2.9,6.3,3.8c1.7,0.8,6.7,1.7,6.7,1.7s3.3,0.8,4.6,1.3c1.3,0.4,5,0.4,5,0.4
			s3.3-2.5,4.6-1.7c1.3,0.8,4.2-1.7,5.4,0.4s3.8,2.1,5,3.8c1.3,1.7,2.5,1.7,4.6,3.8c2.1,2.1,4.2,1.7,6.3,3.3
			c2.1,1.7,3.8,1.7,6.3,1.7s2.5,0,4.2,0.4c1.7,0.4,2.5-1.3,4.2,0.8c1.7,2.1,2.9,3.3,4.2,5.4c1.3,2.1,4.2,2.1,4.6,5.4
			c0.4,3.3,1.3,2.9,1.3,5.8c0,2.9,1.7,4.2,2.9,5c1.3,0.8,5.8,5,5.8,5l6.3,1.3l5,3.8L464.9,661.1L464.9,661.1z"/>
		<path class="st2" d="M598.7,273.4l25-3.1c0,0,8.8,0,13.1-3.1c4.4-3.1,0-3.1,13.1-5.6c13.1-2.5,9.4-3.8,16.3-2.5
			c6.9,1.3,8.8,1.3,16.3,2.5c7.5,1.3,9.4-0.6,16.3,1.3c6.9,1.9,10,1.3,15.7,1.3h17.5c8.8,0,16.9-5,20-1.9s5,1.9,15.7,3.1
			s15-1.3,19.4,0c4.4,1.3,11.9-0.6,20.7,0c8.8,0.6,13.1-0.6,16.3-0.6s6.3-4.4,10.6-0.6c4.4,3.8,10-1.3,10.6,3.8c0.6,5,8.8,1.3,0.6,5
			c-8.1,3.8-6.9,3.1-12.5,8.1c-5.6,5,3.8,9.4-8.1,13.8c-11.9,4.4-13.8-2.5-16.9,5c-3.1,7.5,0,9.4-0.6,13.1c-0.6,3.8-1.9,4.4-5.6,7.5
			c-3.8,3.1-3.8,0-12.5,1.9c-8.8,1.9-15,3.8-18.8,3.8c-3.8,0-11.9,3.1-14.4,4.4c-2.5,1.3,4.4,3.1-8.8,6.9s-16.3,3.1-20,8.1
			c-3.8,5-2.5,5.6-5,8.8c-2.5,3.1-10,15.7-13.8,12.5c-3.8-3.1-5.6-2.5-8.8-5.6c-3.1-3.1-5-7.5-6.9-10c-1.9-2.5-2.5-8.8-3.1-12.5
			c-0.6-3.8-6.3-12.5,0-11.3c6.3,1.3,10,0.6,11.9-0.6c1.9-1.3,3.8-5.6,3.8-5.6s-0.6-6.9-2.5-10.6s-0.6-6.9-3.8-10.6
			c-3.1-3.8-3.1-3.1-7.5-6.9c-4.4-3.8-3.1-5.6-10-6.3c-6.9-0.6-8.8-2.5-11.3-1.9c-2.5,0.6-10.6-4.4-1.9-5c8.8-0.6,16.9,0.6,16.9,0.6
			s11.3-5,7.5-5.6c-3.8-0.6,5.6-6.3-3.1-4.4c-8.8,1.9-18.8,4.4-21.3,5c-2.5,0.6-8.8,1.3-15,3.1c-6.3,1.9-13.8,1.3-17.5,5.6
			c-3.8,4.4,0,5-3.8,4.4c-3.8-0.6,3.1-4.4-5.6,0c-8.8,4.4-6.3,3.8-10.6,2.5c-4.4-1.3-7.5-3.1-7.5-3.1s5.6-0.6-2.5-1.3
			c-8.1-0.6-8.1-0.6-11.3-4.4s-1.3-3.8,0.6-5C597.4,275.9,598.7,273.4,598.7,273.4L598.7,273.4z"/>
		<path class="st2" d="M584.9,301.5c-3.1,3.1-10.6,7.5-8.8,9.4c1.9,1.9,3.1,8.8,6.9,6.9c3.8-1.9-0.6-8.1,13.8-3.1
			c14.4,5,13.1-0.6,16.3,6.9c3.1,7.5,5.6,13.1,3.8,15c-1.9,1.9-2.5,3.8-8.8,5.6c-6.3,1.9-8.8,4.4-4.4,7.5c4.4,3.1,12.5,6.3,16.3,8.1
			c3.8,1.9,15,2.5,9.4-3.8c-5.6-6.3,1.3-8.1,1.3-8.1s10.6,8.1,6.9-1.3s-6.3-9.4-3.8-9.4s7.5,3.1,7.5,3.1l2.5-5l-2.5-8.1l-8.1-8.1
			c0,0,6.9-6.3-2.5-7.5c-9.4-1.3-8.8-1.3-13.8-4.4c-5-3.1-5.6-4.4-15-2.5s-12.5,3.1-12.5,3.1L584.9,301.5z"/>
		<path class="st2" d="M445.3,309c3.8-3.8,13.8-12.5,17.5-10c3.8,2.5,9.4-1.9,13.8,1.9c4.4,3.8,9.4,8.1,13.1,9.4s8.1-3.1,11.9-1.3
			c3.8,1.9,16.9-9.4,14.4-0.6c-2.5,8.8,3.1,11.3-3.8,11.9c-6.9,0.6-14.4,5.6-17.5,3.8s-5.6-3.8-10.6-1.3c-5,2.5-2.5,2.5-8.1,1.3
			c-5.6-1.3-6.9,1.3-8.1-0.6c-1.3-1.9-5-1.3-4.4-6.9c0.6-5.6,2.5-5-1.3-5c-3.8,0-6.9,0.6-9.4-1.3S445.3,309,445.3,309L445.3,309z"/>
		<path class="st2" d="M572.6,1000.9c-2.9-1.7-9.2-4.6-11.3-6.3c-2.1-1.7-8.3-10.9-8.3-10.9l-4.6-8.8c0,0-5.4-6.7-4.2-9.2
			c1.3-2.5,3.8-4.2,3.8-5.4c0-1.3,2.5-4.6,0.4-5.8c-2.1-1.3-2.1-1.7-3.3-5.4c-1.3-3.8-1.3-7.1-2.9-7.9c-1.7-0.8-2.9-6.3-4.6-6.7
			c-1.7-0.4-3.3-3.3-3.3-3.3l-2.5-33.8c0,0-0.8-15.4-1.7-18.8c-0.8-3.3,1.3-10.4-0.8-16.7c-2.1-6.3,0.4-13.8-0.8-16.3
			c-1.3-2.5,0.8-9.6-0.4-16.3s5-15,0-17.5s-1.3-6.3-5.4-6.3c-4.2,0-7.1-2.1-10.9-5c-3.8-2.9-10.9-8.4-12.9-10.4
			c-2.1-2.1-8.8-7.5-10.9-9.2c-2.1-1.7-4.2-8.8-5.8-10.9c-1.7-2.1-2.5-8.3-5-12.1c-2.5-3.8-5.8-10-6.7-11.3
			c-0.8-1.3-10-12.1-10-12.1l0.8-6.7c0,0,6.3-3.8,5.4-5c-0.8-1.3,0.4-2.5-2.5-5c-2.9-2.5-2.5-7.1,0-9.2c2.5-2.1,6.3-8.8,6.3-8.8
			l6.3-10.4c0,0,5-5.4,5-9.2s7.1-6.3,2.9-9.6c-4.2-3.3-2.1-6.3-3.3-8.8c-1.3-2.5-0.4-4.2,3.3-6.7c3.8-2.5,10.4-11.7,10.4-11.7
			s5-1.3,6.3-1.3c1.3,0,3.3-13.4,7.1-4.6c3.8,8.8,5,4.2,3.8,10.4s1.7,5,3.3,3.3c1.7-1.7-0.8,1.3,2.5-6.3c3.3-7.5,2.1-10,4.2-7.9
			c2.1,2.1,2.9,2.5,6.7,3.8c3.8,1.3,5,0.8,6.3,3.3c1.3,2.5,0.8-0.8,7.9,0.4s17.1-2.5,15.9,1.7c-1.3,4.2-3.8-0.4,2.1,4.2
			c5.8,4.6,6.7,5.4,10,6.3c3.3,0.8,6.3,0.4,11.3,5.4c5,5,6.3,5.4,7.5,7.9c1.3,2.5,3.3,0.8,5.4,3.3c2.1,2.5,5,2.5,7.9,2.5
			c2.9,0,0-2.5,4.6,0.8c4.6,3.3,7.9,3.8,10,10.4s6.3,6.3,2.9,12.9c-3.3,6.7-10,9.6-7.1,9.2c2.9-0.4,8.3-2.9,10-2.5
			c1.7,0.4,2.5-1.3,5,0s2.9-1.7,2.5,1.3c-0.4,2.9-0.4,0-0.4,2.9c0,2.9-0.8-2.9,4.2-1.7c5,1.3,2.1-2.5,7.9,2.9
			c5.8,5.4,5.8,3.8,7.9,6.7c2.1,2.9,4.2-1.7,5.4-0.4c1.3,1.3,5,0.4,8.8,1.3c3.8,0.8,1.3-2.5,7.1,1.3c5.8,3.8,11.7,2.5,12.9,5.8
			s4.6,2.1,6.3,4.2c1.7,2.1,2.5-0.8,4.2,2.1c1.7,2.9,6.7,2.1,5.8,5c-0.8,2.9,1.3,1.3,0.4,5.4c-0.8,4.2-3.8,10.9-6.3,12.5
			c-2.5,1.7-2.5,3.8-4.2,5.8c-1.7,2.1-1.3-2.1-3.3,3.8s-1.7,6.7-3.3,12.1c-1.7,5.4-0.4,0-1.7,5.4c-1.3,5.4-0.4,8.8-1.7,15
			c-1.3,6.3-0.8,6.3-1.7,10.9c-0.8,4.6,2.1-2.1-1.7,7.5c-3.8,9.6-4.2,9.2-5.4,13.4c-1.3,4.2,0.4,0.8-4.2,3.3
			c-4.6,2.5-2.1,1.7-7.5,3.3c-5.4,1.7-12.1,3.3-14.2,3.8c-2.1,0.4-10.4,2.9-7.9,7.9s2.5,5.8,0,12.1s-6.3,8.3-6.3,11.3
			c0,2.9-1.7,5.8-2.1,7.9c-0.4,2.1,3.8-2.1-1.3,4.2c-5,6.3-5.4,4.6-7.1,8.3c-1.7,3.8,0,0.8-1.7,3.8c-1.7,2.9-5.8,4.2-5.8,4.2
			s0.4,2.1-1.3,1.3c-1.7-0.8-1.3,0.4-7.5-1.3s-7.1-5.8-7.9-2.9c-0.8,2.9,0.4,4.6,4.2,7.5c3.8,2.9,10,3.8,8.3,6.7
			c-1.7,2.9-1.7,2.9-2.9,4.6c-1.3,1.7,1.7,0.4-1.3,1.7c-2.9,1.3-4.6,6.7-5.8,6.7s-2.1,2.1-3.8,1.3s-5.8-3.8-6.7-2.1
			c-0.8,1.7-2.5-2.1-2.1,3.8c0.4,5.8,1.3,9.2-0.8,10.4s-7.1,0-7.1,0l-0.8-2.1l-2.9,0.8c0,0-1.3,5,0.8,5.8c2.1,0.8,1.7,1.7,3.8,4.2
			c2.1,2.5,0.8,7.1,0.8,7.1s0,1.3-2.1,3.3c-2.1,2.1-2.9,3.8-3.3,5c-0.4,1.3-2.9,6.7,0.8,6.3c3.8-0.4,6.7-2.5,6.7,4.2s1.7,5-0.4,9.6
			c-2.1,4.6-3.8,5-4.2,9.2c-0.4,4.2,0.4,4.6,1.3,7.1c0.8,2.5,2.9,1.3,0.8,2.5C578.9,1002.2,572.6,1000.9,572.6,1000.9L572.6,1000.9z
			"/>
		<path class="st2" d="M1465.9,833.1c-1.3,1.7-2.1,19.6-2.9,21.7c-0.8,2.1-2.5,12.9-1.7,15.4s2.1,11.7,1.3,14.6
			c-0.8,2.9,0.4,12.1-1.7,11.7c-2.1-0.4-2.9,0.4-2.9,1.7c0,1.3,2.9,3.8,2.9,3.8s5,0,7.1-0.4c2.1-0.4,6.3-2.5,9.6-2.5
			c3.3,0,5.4-2.5,8.3-2.5c2.9,0,9.2-2.1,10.9-1.3c1.7,0.8,4.2-5,7.1-3.8s9.2-2.9,12.1-2.9c2.9,0,4.2-4.6,7.5-3.8
			c3.3,0.8,9.6-1.7,12.5-0.4c2.9,1.3,7.5-4.2,9.6,0c2.1,4.2,8.4,5.8,8.4,7.9c0,2.1-0.4,6.7-0.4,6.7l5-0.4c0,0,7.9-5,9.2-5
			s4.2-4.2,4.2-2.1c0,2.1-2.5,6.7-3.3,8.8c-0.8,2.1,0.8,4.6,0.8,4.6s4.2,2.1,2.5,5.8c-1.7,3.8,0.4,2.9,0,5.8c-0.4,2.9,0,1.7,1.7,3.3
			c1.7,1.7,4.6,4.6,7.1,4.2c2.5-0.4,3.3-2.9,5.4-1.7c2.1,1.3,6.3,0.4,7.5,2.1c1.3,1.7-7.9,5.8,7.9-1.3c15.9-7.1,17.5-8.8,19.6-11.3
			c2.1-2.5,4.6-5,6.3-6.7c1.7-1.7,0.4-1.3,5.4-5c5-3.8,5-2.1,9.6-9.2s7.9-9.6,8.8-10.9s2.5-1.7,2.9-6.7c0.4-5,3.8-9.6,3.8-11.3
			c0-1.7,1.3-4.2,0.8-7.1c-0.4-2.9,1.7-7.1-0.8-11.3c-2.5-4.2,1.3-5.8-2.5-7.5c-3.8-1.7-6.3-0.8-7.1-3.8s-4.2-2.5-5.4-10.4
			c-1.3-7.9-6.3-8.8-6.3-8.8s-5-2.1-3.8-2.9c1.3-0.8,1.7-6.7,1.3-8.4c-0.4-1.7-0.4-5.4-1.7-7.9c-1.3-2.5-2.1-5.8-3.3-8.8
			c-1.3-2.9-3.3-3.8-4.2-7.1c-0.8-3.3-2.1-4.6-2.5-5.4c-0.4-0.8-1.3-5-2.1-0.4c-0.8,4.6-2.5,13.4-2.5,13.4s-3.3,7.1-4.6,9.2
			c-1.3,2.1-2.5,7.5-4.6,7.1c-2.1-0.4-3.3,2.1-5,1.7c-1.7-0.4-4.2,0.4-5.4-0.8c-1.3-1.3-4.6-4.6-6.3-5c-1.7-0.4-2.9-3.8-4.2-3.8
			c-1.3,0-3.3-2.9-2.9-4.6c0.4-1.7,0.8-5.4,1.3-7.1c0.4-1.7,2.9-5.4,2.9-5.4s0-2.5-2.1-2.5c-2.1,0-2.5,0-7.1-0.4
			c-4.6-0.4-5.8-0.8-7.5-0.8s1.7-0.8-2.9,0.4c-4.6,1.3-6.7,4.6-9.6,7.5c-2.9,2.9-0.4,2.1-2.9,2.9s-2.1-2.1-3.8,2.5s0.8,5.8-0.4,6.7
			s-10-2.9-10-2.9s2.1-0.4,0.4-2.5c-1.7-2.1-3.3-5-5.8-3.8c-2.5,1.3-4.6,2.1-6.3,4.2s-1.7,3.8-2.9,5.4s-4.6,1.7-5,3.3
			s-0.4,5.8-1.7,6.3c-1.3,0.4-1.7-1.7-2.9-2.1c-1.3-0.4-0.8-3.8-1.7-1.7c-0.8,2.1-1.7,1.7-2.9,5c-1.3,3.3-1.7,6.3-2.9,6.7
			c-1.3,0.4,0,0.8-3.8,2.9c-3.8,2.1-4.6,2.1-10,4.6c-5.4,2.5-4.2,2.5-7.9,2.9c-3.8,0.4-4.6,1.7-7.1,2.1c-2.5,0.4-4.2,0.8-6.7,3.3
			s-4.6,3.3-6.3,3.8C1467.6,831.5,1465.9,833.1,1465.9,833.1L1465.9,833.1z"/>
	</g>
	<path class="st2" d="M1573.4,709c1.7-0.4,7.5-4.6,7.9,2.9s0.8,5.4,3.3,9.6c2.5,4.2,4.2,5.4,7.1,3.3c2.9-2.1,6.3-2.1,7.1-5.8
		c0.8-3.8,0.8-3.8,3.3-3.8s3.3-0.4,4.6,1.3c1.3,1.7,2.1,0,7.5,2.9c5.4,2.9,10,2.1,13.4,5c3.3,2.9,5,2.5,9.6,4.2
		c4.6,1.7,2.5-0.8,6.7,3.8c4.2,4.6,2.5,5.8,4.6,7.9c2.1,2.1,3.8-1.7,2.9,3.3c-0.8,5-6.7,0,2.1,7.1c8.8,7.1,10,8.4,12.9,10.4
		c2.9,2.1,5,4.6,2.5,4.6s-10.4,0-11.3-1.3s-4.6-2.1-7.1-5c-2.5-2.9-7.9-5-9.2-7.5c-1.3-2.5-2.9-3.3-5-3.3c-2.1,0-4.2,2.5-7.1,5.4
		c-2.9,2.9-1.7-1.7-5.4-0.4c-3.8,1.3-7.9-0.4-10-2.1s-1.7-4.2-5-2.9c-3.3,1.3-5.4,0.4-4.2-2.1c1.3-2.5,0.4-5.8,0.4-5.8
		s1.3-4.2-1.7-5c-2.9-0.8-2.9-3.8-5.8-4.6c-2.9-0.8-7.5-2.9-7.5-2.9s-0.4,0-1.7-0.4s-1.3-0.4-4.6-1.3s-5.8,0-7.5-2.1
		c-1.7-2.1-0.8-5-0.8-5s6.7,0.8,0-4.2l-6.7-5c0,0,0.8-0.4,0.4-1.3C1568.8,708.1,1573.4,709,1573.4,709L1573.4,709z"/>
</g>
<g id="Weltkarte">
	<g id="Europa">
		<path class="st3" d="M1013,470v-2.7l2.7-12.8l7.3-11.9c0,0,5.5-3.6,8.2-3.6c2.7,0,0.9,6.4,0.9,7.3c0,0.9,5.5,4.6,7.3,5.5
			c1.8,0.9,5.5-2.7,5.5-2.7s-3.6-6.4-3.6-8.2s16.4-6.4,16.4-5.5c0,0.9-3.6,9.1-4.6,13.7c-0.9,4.6,19.2,13.7,21,11.9
			c1.8-1.8,33.7,16.4,34.7,14.6s-11.9-17.3-13.7-23.7c-1.8-6.4,17.3-15.5,16.4-16.4c-0.9-0.9-9.1-15.5-10-19.2s6.4-2.7,13.7-4.6
			s15.5,4.6,21.9,3.6c6.4-0.9,2.7-19.2,0-17.3s-5.5,2.7-10,2.7c-4.6,0-1.8-13.7,0-18.2c1.8-4.6-19.2-33.7-9.1-36.5
			s13.7-11.9,13.7-11.9c-2.9-2.1,1.9-6-3.5-9.7s-3.8-6.7-10-3.8c-6.3,2.9-8.3,8.3-10.9,6.3c-2.5-2.1-8.3,2.9-10.4,0.4
			c-2.1-2.5-10.4-2.5-12.1,0c-1.7,2.5-6.7,2.1-13.8,5.4s-5,0.4-13.8,7.5c-8.8,7.1-13.8,12.9-16.7,8.3c-2.9-4.6-18.8-12.5-12.5-13.8
			c6.3-1.3,9.2-3.8,12.5-0.8c3.3,2.9,8.8,2.1,9.6,0c0.8-2.1,4.6-4.2-0.4-6.7s-5.4-0.8-13.4-3.8c-7.9-2.9,0-2.1-10.9-3.8
			c-10.9-1.7-15.4-2.5-18.4-3.3s-7.1,0-11.3-0.4s-7.1-1.3-10.9-0.8c-3.8,0.4-5.8-0.4-10.9,3.3c-5,3.8-8.8,5.4-12.1,8.3
			c-3.3,2.9-12.1,8.8-14.6,10.9c-2.5,2.1-11.3,8.8-12.1,11.3c-0.8,2.5,0.8,4.6-2.5,6.3c-3.3,1.7-6.7,1.7-9.2,2.1
			c-2.5,0.4,0-3.8-2.5,0.4c-2.5,4.2-1.7,19.2,0.4,17.1c2.1-2.1,0.8-8.8,10-2.5c9.2,6.3,15,5.4,14.6,11.3s6.3,5.4,7.1,6.7
			c0.8,1.3,5-1.7,5-1.7s9.2-5.8,9.2-8.8c0-2.9,5.8-9.6,5.8-9.6s-4.2-2.1-4.2-6.3s1.3-5.4,2.1-9.6c0.8-4.2-4.6,0,7.9-7.9
			s13.4-2.5,13.4-2.5s1.7,1.7-0.4,4.2c-2.1,2.5-5.8,9.2-6.7,10c-0.8,0.8,3.8,7.5,5.8,7.5c2.1,0,6.3-1.7,8.8-1.3
			c2.5,0.4,6.7-1.3,7.9-0.4c1.3,0.8,4.2,3.3,2.1,5.4c-2.1,2.1-6.7,4.6-10,3.8s-8.4-6.7-5.4,1.7s-0.4,10.4-2.9,10
			c-2.5-0.4-7.9-4.6-7.1,1.7c0.8,6.3-5.4,10.4-6.7,10.4s-3.8-0.4-3.8-0.4s-3.8-0.4-5.8-0.4c-2.1,0-6.3,2.1-7.5,3.8
			c-1.3,1.7-2.9,0.4-5,0.4s0-2.5-4.2-3.3s-6.7-1.7-9.2,0c-2.5,1.7-6.3,2.5-7.9,1.3c-1.7-1.3,0.8-4.2-2.5-2.5
			c-3.3,1.7-5.8,6.3-7.1,6.7c-1.3,0.4,3.8,0-1.3,0.4c-5,0.4-7.1,1.7-9.6,2.5c-2.5,0.8,0.8,5.8-3.8,7.5c-4.6,1.7-1.3-2.1-5.8,1.7
			c-4.6,3.8-5.4,7.1-7.1,7.5c-1.7,0.4-1.3,1.3-5,1.7c-3.8,0.4-3.3,0.8-5.4,1.3s0.4,1.3-4.2,0.4c-4.6-0.8-7.9,0.8-7.1,2.5
			c0.8,1.7,16.3,6.3,4.6,5.8s-7.9,1.7-5.4,3.3c2.5,1.7,3.8,3.3,5,3.8c1.3,0.4,3.3,5.4,3.3,5.4s3.3-0.4,1.3,2.5s0.8,3.8-1.3,7.5
			c-2.1,3.8-2.1,1.3-3.8,2.1c-1.7,0.8-4.2,3.8-8.8,1.3s-7.9-3.8-13.4-4.2c-5.4-0.4-1.7-1.3-5.4,1.7c-3.8,2.9-4.6,6.3-4.2,10
			c0.4,3.8,0.8,8.8-0.4,11.3c-1.3,2.5-1.3,5-0.4,8.8c0.8,3.8,3.3,5.4,3.3,5.4s5.8,0.8,7.1,1.3c1.3,0.4,3.8-0.8,7.1,1.3
			c3.3,2.1,6.7,2.9,8.8,0.4c2.1-2.5,10.4-5.4,12.9-7.9c2.5-2.5,4.2-3.3,2.9-5.8c-1.3-2.5,2.5-8.8,4.6-10s6.7-2.5,6.7-2.5l5-7.5
			c0,0,4.2-4.6,6.3-4.2c2.1,0.4,13.8,4.6,12.9-0.8c-0.8-5.4,0.8-7.1,2.1-5c1.3,2.1,4.6,1.3,4.6,1.3s1.7-0.8,2.9,0.4
			c1.3,1.3,2.9,6.7,5.4,7.9c2.5,1.3,4.6,2.5,6.3,3.3c1.7,0.8,3.3,0,6.7,2.9s6.7,4.6,7.1,5.8c0.4,1.3,3.3,4.2,3.3,4.2
			s2.9,0.8,2.1,2.5c-0.8,1.7-5,6.7-7.1,7.5c-2.1,0.8-7.5-0.8-5.4,0.8c2.1,1.7,5,3.8,6.3,2.5c1.3-1.3,9.2-9.6,9.2-9.6s-0.4,0.4,0-2.1
			s0-5.4,2.1-4.2c2.1,1.3,3.3,2.9,4.2,1.3c0.8-1.7,1.7-0.8-0.4-2.1c-2.1-1.3-7.1-8.3-9.6-8.8c-2.5-0.4-8.8-4.6-8.8-4.6
			s-1.3-1.3-4.2-4.6s-3.8-2.5-4.6-5.4c-0.8-2.9-3.3-6.7,1.3-5.8c4.6,0.8,7.5,3.8,11.7,6.3c4.2,2.5,3.3,3.3,7.1,5.8
			c3.8,2.5,4.2,5,7.1,4.6c2.9-0.4,6.3,1.7,6.3,5.4c0,3.8,0.8,7.9,1.7,8.8c0.8,0.8,3.3,2.5,4.2,4.2c0.8,1.7,2.5,5.8,3.8,7.5
			c1.3,1.7,2.5,2.9,3.8,5c1.3,2.1,1.7-0.4,2.9,0.4c1.3,0.8,2.9,0.4,2.9-1.3s0.4-4.6,0.4-4.6s5.8-1.7,4.2-2.5
			c-1.7-0.8-6.7-5.8-6.3-7.5c0.4-1.7,0-5,2.1-4.6c2.1,0.4,4.2,4.2,8.8,0.8"/>
	</g>
</g>
<g id="Pin">
	<g>
		<g>
			<g>
				<path class="st4" d="M925,408.8c-5.3,0-9.6,4.3-9.6,9.6c0,6.6,8.6,16.2,8.9,16.6c0.3,0.4,0.9,0.4,1.3,0c0.4-0.4,8.9-10,8.9-16.6
					C934.5,413,930.3,408.8,925,408.8z M925,423.1c-2.7,0-4.8-2.2-4.8-4.8c0-2.7,2.2-4.8,4.8-4.8c2.7,0,4.8,2.2,4.8,4.8
					S927.6,423.1,925,423.1z"/>
			</g>
		</g>
	</g>
	<g>
		<g>
			<g>
				<path class="st4" d="M1275.3,421.8c-5.3,0-9.6,4.3-9.6,9.6c0,6.6,8.6,16.2,8.9,16.6c0.3,0.4,0.9,0.4,1.3,0
					c0.4-0.4,8.9-10,8.9-16.6C1284.9,426.1,1280.6,421.8,1275.3,421.8z M1275.3,436.2c-2.7,0-4.8-2.2-4.8-4.8c0-2.7,2.2-4.8,4.8-4.8
					s4.8,2.2,4.8,4.8S1277.9,436.2,1275.3,436.2z"/>
			</g>
		</g>
	</g>
	<g>
		<g>
			<g>
				<path class="st4" d="M985.5,630.5c-5.3,0-9.6,4.3-9.6,9.6c0,6.6,8.6,16.2,8.9,16.6c0.3,0.4,0.9,0.4,1.3,0
					c0.4-0.4,8.9-10,8.9-16.6C995.1,634.8,990.8,630.5,985.5,630.5z M985.5,644.9c-2.7,0-4.8-2.2-4.8-4.8c0-2.7,2.2-4.8,4.8-4.8
					c2.7,0,4.8,2.2,4.8,4.8C990.4,642.7,988.2,644.9,985.5,644.9z"/>
			</g>
		</g>
	</g>
	<g>
		<g>
			<g>
				<path class="st0" d="M398.6,441.4c-5.3,0-9.6,4.3-9.6,9.6c0,6.6,8.6,16.2,8.9,16.6c0.3,0.4,0.9,0.4,1.3,0
					c0.4-0.4,8.9-10,8.9-16.6C408.1,445.7,403.9,441.4,398.6,441.4z M398.6,455.8c-2.7,0-4.8-2.2-4.8-4.8s2.2-4.8,4.8-4.8
					s4.8,2.2,4.8,4.8C403.4,453.6,401.2,455.8,398.6,455.8z"/>
			</g>
		</g>
	</g>
	<g>
		<g>
			<g>
				<path class="st0" d="M1573.4,839.2c-5.3,0-9.6,4.3-9.6,9.6c0,6.6,8.6,16.2,8.9,16.6c0.3,0.4,0.9,0.4,1.3,0
					c0.4-0.4,8.9-10,8.9-16.6C1583,843.5,1578.7,839.2,1573.4,839.2z M1573.4,853.6c-2.7,0-4.8-2.2-4.8-4.8c0-2.7,2.2-4.8,4.8-4.8
					c2.7,0,4.8,2.2,4.8,4.8C1578.2,851.4,1576.1,853.6,1573.4,853.6z"/>
			</g>
		</g>
	</g>
	<g>
		<g>
			<g>
				<path class="st0" d="M565.3,761.9c-5.3,0-9.6,4.3-9.6,9.6c0,6.6,8.6,16.2,8.9,16.6c0.3,0.4,0.9,0.4,1.3,0
					c0.4-0.4,8.9-10,8.9-16.6C574.9,766.2,570.6,761.9,565.3,761.9z M565.3,776.2c-2.7,0-4.8-2.2-4.8-4.8s2.2-4.8,4.8-4.8
					c2.7,0,4.8,2.2,4.8,4.8C570.2,774.1,568,776.2,565.3,776.2z"/>
			</g>
		</g>
	</g>
</g>
</svg>
