<?xml version="1.0" encoding="utf-8"?>
<!-- Generator: Adobe Illustrator 24.1.3, SVG Export Plug-In . SVG Version: 6.00 Build 0)  -->
<svg version="1.1" id="Ebene_1" xmlns="http://www.w3.org/2000/svg" xmlns:xlink="http://www.w3.org/1999/xlink" x="0px" y="0px"
	 viewBox="0 0 59.27 59.27" style="enable-background:new 0 0 59.27 59.27;" xml:space="preserve">
<style type="text/css">
	.st0{fill:#ED6D1D;}
	.st1{fill:#D31128;}
</style>
<g>
	<path class="st0" d="M37.51,56.14H21.75c-10.24,0-18.63-8.38-18.63-18.63V21.76c0-10.24,8.38-18.63,18.63-18.63h15.76
		c10.24,0,18.63,8.38,18.63,18.63v15.76C56.13,47.76,47.75,56.14,37.51,56.14z"/>
	<path class="st1" d="M44.52,59.26H14.74c-8.12,0-14.73-6.61-14.73-14.73V14.75c0-8.12,6.61-14.73,14.73-14.73h29.78
		c8.12,0,14.73,6.61,14.73,14.73v29.78C59.25,52.65,52.64,59.26,44.52,59.26z M14.74,6.25c-4.68,0-8.5,3.81-8.5,8.5v29.78
		c0,4.68,3.81,8.5,8.5,8.5h29.78c4.68,0,8.5-3.81,8.5-8.5V14.75c0-4.68-3.81-8.5-8.5-8.5H14.74z"/>
</g>
<g>
	<path class="st1" d="M39.54,42.8c-0.83,0-1.67-0.32-2.3-0.95L17.42,22.03c-1.27-1.27-1.27-3.33,0-4.61c1.27-1.27,3.33-1.27,4.61,0
		l19.82,19.82c1.27,1.27,1.27,3.33,0,4.61C41.21,42.48,40.37,42.8,39.54,42.8z"/>
	<path class="st1" d="M19.72,42.8c-0.83,0-1.67-0.32-2.3-0.95c-1.27-1.27-1.27-3.33,0-4.61l19.82-19.82c1.27-1.27,3.33-1.27,4.61,0
		c1.27,1.27,1.27,3.33,0,4.61L22.02,41.85C21.39,42.48,20.55,42.8,19.72,42.8z"/>
</g>
</svg>
