<?xml version="1.0" encoding="utf-8"?>
<!-- Generator: Adobe Illustrator 24.1.3, SVG Export Plug-In . SVG Version: 6.00 Build 0)  -->
<svg version="1.1" id="Button" xmlns="http://www.w3.org/2000/svg" xmlns:xlink="http://www.w3.org/1999/xlink" x="0px" y="0px"
	 viewBox="0 0 106 105" style="enable-background:new 0 0 106 105;" xml:space="preserve">
<style type="text/css">
	.st0{fill:#A3D6EF;}
	.st1{fill:#E57200;}
</style>
<g>
	<g>
		<path class="st0" d="M52.89,100.66c-26.51,0-48.08-21.57-48.08-48.08S26.38,4.5,52.89,4.5s48.08,21.57,48.08,48.08
			S79.4,100.66,52.89,100.66z"/>
		<path class="st1" d="M52.89,8c24.58,0,44.58,20,44.58,44.58c0,24.58-20,44.58-44.58,44.58s-44.58-20-44.58-44.58
			C8.31,28,28.31,8,52.89,8 M52.89,1C24.41,1,1.31,24.09,1.31,52.58s23.09,51.58,51.58,51.58s51.58-23.09,51.58-51.58
			S81.38,1,52.89,1L52.89,1z"/>
	</g>
	<g>
		<path class="st1" d="M35.3,41.25c0-2.24,0.72-4.51,2.16-6.81s3.54-4.21,6.3-5.72s5.98-2.27,9.66-2.27c3.42,0,6.44,0.63,9.06,1.89
			c2.62,1.26,4.64,2.98,6.07,5.15c1.43,2.17,2.14,4.53,2.14,7.08c0,2.01-0.41,3.76-1.22,5.27c-0.81,1.51-1.78,2.81-2.9,3.91
			c-1.12,1.1-3.13,2.94-6.04,5.54c-0.8,0.73-1.45,1.38-1.93,1.93c-0.48,0.55-0.84,1.06-1.08,1.52c-0.24,0.46-0.42,0.92-0.55,1.38
			s-0.32,1.27-0.58,2.42c-0.45,2.45-1.85,3.68-4.21,3.68c-1.23,0-2.26-0.4-3.1-1.2c-0.84-0.8-1.26-1.99-1.26-3.58
			c0-1.98,0.31-3.7,0.92-5.15c0.61-1.45,1.43-2.73,2.44-3.82c1.01-1.1,2.38-2.4,4.11-3.91c1.51-1.32,2.6-2.32,3.27-2.99
			c0.67-0.67,1.24-1.42,1.7-2.25c0.46-0.83,0.69-1.72,0.69-2.69c0-1.89-0.7-3.48-2.11-4.78s-3.21-1.95-5.43-1.95
			c-2.6,0-4.51,0.66-5.73,1.96c-1.23,1.31-2.27,3.24-3.12,5.79c-0.8,2.67-2.33,4-4.57,4c-1.32,0-2.44-0.47-3.34-1.4
			C35.75,43.35,35.3,42.34,35.3,41.25z M52.57,80.05c-1.44,0-2.7-0.47-3.77-1.4c-1.07-0.93-1.61-2.24-1.61-3.91
			c0-1.49,0.52-2.74,1.56-3.75c1.04-1.01,2.31-1.52,3.82-1.52c1.49,0,2.74,0.51,3.75,1.52c1.01,1.02,1.52,2.27,1.52,3.75
			c0,1.65-0.53,2.95-1.59,3.89C55.19,79.57,53.97,80.05,52.57,80.05z"/>
	</g>
</g>
</svg>
