<svg xmlns="http://www.w3.org/2000/svg" viewBox="0 0 665.36 807.41"><defs><style>.cls-1{fill:#e2d7aa;}.cls-2{fill:#ede2b4;}.cls-24,.cls-3,.cls-4{fill:#bab18e;}.cls-24,.cls-4{stroke:#a09570;stroke-miterlimit:10;}.cls-4{stroke-width:4.71px;}.cls-5{fill:#eae1b9;}.cls-6{fill:#c6c1b0;}.cls-7{fill:#bcb396;}.cls-8{fill:#e2d8af;}.cls-9{fill:#b2a98e;}.cls-10{fill:#d1c79f;}.cls-11{fill:#c4bca3;}.cls-12{fill:#f7efd0;}.cls-13{fill:#a8a188;}.cls-14{fill:#676e66;}.cls-15{fill:#a8a8a1;}.cls-16{fill:#88aaa9;}.cls-17{fill:#d1d16d;}.cls-18{fill:#64a09d;}.cls-19{fill:#8fb7b4;}.cls-20{fill:#6c9393;}.cls-21{fill:#70756f;}.cls-22{fill:#636662;}.cls-23{fill:#5b605a;}.cls-24{stroke-width:5px;}</style></defs><title>BrandenburgerTor</title><g id="Ebene_2" data-name="Ebene 2"><g id="BrandenburgertorSchräg"><g id="hinten"><polygon class="cls-1" points="127.61 666.63 48.51 666.63 48.57 227.13 127.61 227.13 127.61 666.63"/><polygon class="cls-2" points="48.47 666.63 20.87 657.32 20.83 224.16 48.52 232.57 48.47 666.63"/><rect class="cls-3" x="64.3" y="404.36" width="133.7" height="45.91"/><polygon class="cls-1" points="185.83 687.21 106.59 687.21 106.81 227.87 185.83 227.87 185.83 687.21"/><polygon class="cls-2" points="106.6 687.21 77.28 677.58 77.28 243.39 106.82 251.8 106.6 687.21"/><rect class="cls-3" x="127.04" y="430.35" width="133.7" height="45.91"/><polygon class="cls-1" points="370.29 712.6 176.45 712.6 176.59 288.49 370.29 288.49 370.29 712.6"/><polygon class="cls-2" points="176.45 712.6 145.13 702.64 145.13 269.42 176.51 277.83 176.45 712.6"/><rect class="cls-3" x="212.03" y="456.07" width="133.7" height="45.91"/><circle class="cls-4" cx="278.88" cy="387.03" r="31.05"/><rect class="cls-5" x="228.62" y="541.26" width="82.52" height="171.65"/></g><g id="vorne"><rect class="cls-6" x="26.61" y="211.72" width="65.71" height="7.34"/><rect class="cls-1" x="285.13" y="289.59" width="103.3" height="460.8"/><polygon class="cls-2" points="285.14 750.4 255.61 740.26 255.61 274.11 285.14 282.6 285.14 750.4"/><rect class="cls-3" x="303.95" y="486.97" width="141.92" height="48.73"/><rect class="cls-1" x="361.51" y="314.8" width="110.92" height="463.22"/><polygon class="cls-2" points="361.49 778.02 326.41 764.8 326.41 296.11 361.49 304.52 361.49 778.02"/><rect class="cls-3" x="383.92" y="511.34" width="141.92" height="48.73"/><polygon class="cls-1" points="638.54 341.75 638.54 807.17 443.97 807.17 443.98 802.78 443.98 802.72 444.01 782.5 444.02 778.02 444.02 773.36 444.03 770.43 444.08 737.76 444.08 737.39 444.17 682.46 444.63 384.68 444.65 375.87 444.66 366.52 444.66 366.3 444.67 359.62 444.68 354.94 444.69 350.18 444.69 349.32 444.7 341.75 638.54 341.75"/><polygon class="cls-2" points="443.97 807.17 407.05 793.67 407.05 311.73 443.97 320.51 443.97 807.17"/><rect class="cls-7" x="443.83" y="366.51" width="221.53" height="18.16"/><polygon class="cls-8" points="13.74 217.03 443.98 368.71 443.98 384.67 13.74 232.99 13.74 217.03"/><polygon class="cls-7" points="0 211.81 438.49 366.33 438.49 375.88 0 221.36 0 211.81"/><polygon class="cls-9" points="438.49 366.33 660.01 364.87 660.01 375.87 438.49 375.87 438.49 366.33"/><rect class="cls-10" x="425.23" y="291.78" width="221.53" height="58.39"/><polygon class="cls-8" points="68.18 164.46 447.25 291.78 447.25 351.07 68.18 218.95 68.18 164.46"/><polygon class="cls-6" points="47.17 211.72 451.88 351.8 438.49 366.33 0 211.81 47.17 211.72"/><polygon class="cls-11" points="447.25 350.19 660.02 350.21 660.02 366.33 438.49 366.33 447.25 350.19"/><polygon class="cls-12" points="286.94 302.96 146.6 253.63 146.6 201.34 286.94 246.3 286.94 302.96"/><rect class="cls-10" x="287.02" y="246.18" width="24.55" height="56.74"/><polygon class="cls-11" points="49.27 156.4 213.03 211.35 213.03 220.9 49.27 165.95 49.27 156.4"/><polygon class="cls-11" points="312.91 248.49 443.74 294.17 443.74 303.72 284.09 248.37 312.91 248.49"/><polygon class="cls-7" points="112.02 194 275.77 248.95 275.77 258.5 112.02 203.54 112.02 194"/><polygon class="cls-9" points="275.78 248.97 312.91 248.49 313.13 258.52 275.78 258.52 275.78 248.97"/><polygon class="cls-9" points="443.69 294.17 665.22 292.7 665.22 303.7 443.69 303.7 443.69 294.17"/><polygon class="cls-13" points="239.4 156.4 49.27 156.4 443.74 294.17 665.22 292.7 239.4 156.4"/><polygon class="cls-13" points="339.51 198.42 112.02 194 275.77 248.95 407.92 247.52 339.51 198.42"/><g id="Statue"><polygon class="cls-14" points="360.03 18.94 356.45 18.6 355.31 37.93 358.89 38.26 360.03 18.94"/><polygon class="cls-14" points="366.99 32.48 367.2 28.84 348.19 27.07 347.98 30.71 366.99 32.48"/><path class="cls-14" d="M359.8,23h0v.24h0a6.93,6.93,0,0,1,1.45.75A5.42,5.42,0,0,0,359.8,23Zm1.65-2.67h0a10.52,10.52,0,0,0-1.46-.52h0a10.35,10.35,0,0,0-1.78-.31,9.21,9.21,0,0,0-1.8,0h0a8.83,8.83,0,0,0-1.48.25h0a9.87,9.87,0,0,0-7.43,9.14,10.74,10.74,0,0,0,7.83,10.95h0a9.8,9.8,0,0,0,3.26.33h0a9.86,9.86,0,0,0,9.14-9.39A10.74,10.74,0,0,0,361.45,20.28ZM359,36.58h0l-.31.06a6.29,6.29,0,0,1-1.49,0,6.72,6.72,0,0,1-1.78-.42h0A7.25,7.25,0,0,1,350.93,31a7,7,0,0,1-.17-1.53c0-.12,0-.25,0-.38a6.56,6.56,0,0,1,.32-1.75,6.69,6.69,0,0,1,3.59-4,6.24,6.24,0,0,1,1.51-.47h0a6.4,6.4,0,0,1,1.8-.08,6.61,6.61,0,0,1,1.78.42h0a6.93,6.93,0,0,1,1.45.75h0a7.28,7.28,0,0,1,3.06,4.62h0a7.15,7.15,0,0,1,.12,1.79,6.47,6.47,0,0,1-.35,1.85A6.66,6.66,0,0,1,359,36.58ZM359.8,23v.24a6.93,6.93,0,0,1,1.45.75A5.42,5.42,0,0,0,359.8,23Z"/><path class="cls-14" d="M355.59,151.52l-3.32-.19,3-111.61.09-3.47h0a6.72,6.72,0,0,0,1.78.42,6.29,6.29,0,0,0,1.48,0l-.09,3.41Z"/><path class="cls-14" d="M362.31,5.57l-1.08,18.37a5.55,5.55,0,0,0-3.22-1.5,5.21,5.21,0,0,0-3.32.83L355.75,5A5.89,5.89,0,0,1,356.2,3,3.26,3.26,0,0,1,359.3.72a3.06,3.06,0,0,1,2.26,1.59A5.85,5.85,0,0,1,362.31,5.57Z"/><path class="cls-14" d="M343.16,0c5.35,7,14.54,9,14.54,9l-.46,7.84S345.91,13.77,344.18,5.5A12,12,0,0,1,343.16,0Z"/><path class="cls-14" d="M376.61,1.88c-6.12,6-15.43,6.23-15.43,6.23l-.46,7.84S372.29,15,375,7.12C376.41,5.24,376.61,1.88,376.61,1.88Z"/><path class="cls-15" d="M359.39,29.91a1.89,1.89,0,0,0-1.66-2,1.73,1.73,0,0,0-1.9,1.56s0,.07,0,.1a1.89,1.89,0,0,0,1.66,2,1.73,1.73,0,0,0,1.9-1.56A.56.56,0,0,1,359.39,29.91Z"/><path class="cls-16" d="M375.27,94.71a19.9,19.9,0,0,0-7.86.61,8.85,8.85,0,0,1,8-3.59,9.62,9.62,0,0,1,7.53,5A20.61,20.61,0,0,0,375.27,94.71Z"/><path class="cls-16" d="M384.17,102a9,9,0,0,1-9.37,8.58l-.45,0a9.75,9.75,0,0,1-8.71-10.27,8.84,8.84,0,0,1,.27-1.75,7.22,7.22,0,0,1,.25-.83,9.06,9.06,0,0,1,.63-1.38c1.38-.9,4.66-1.32,8.46-1s7,1.37,8.26,2.49a9.91,9.91,0,0,1,.45,1.48c.07.29.11.58.15.88A9.22,9.22,0,0,1,384.17,102Z"/><path class="cls-17" d="M383,96.79a9.74,9.74,0,0,1,.51,1.09,1.4,1.4,0,0,1,.57,1.08.84.84,0,0,1-.12.4c-.72,1.27-4.51,1.93-9,1.52s-8.19-1.78-8.76-3.17a.83.83,0,0,1-.07-.42,1.31,1.31,0,0,1,.7-1,8.75,8.75,0,0,1,.64-1c-1.32.45-2.1,1.09-2.15,1.87a1.77,1.77,0,0,0,.65,1.34c1.39,1.38,4.86,2.57,9,3s7.68-.17,9.22-1.26a1.66,1.66,0,0,0,.79-1.2C384.92,98.26,384.17,97.47,383,96.79Z"/><path class="cls-16" d="M383.49,97.88c-1.26-1.15-4.46-2.17-8.26-2.49s-7.09.07-8.46,1a8.75,8.75,0,0,1,.64-1,19.89,19.89,0,0,1,7.86-.61,20.61,20.61,0,0,1,7.7,2.05A11.47,11.47,0,0,1,383.49,97.88Z"/><path class="cls-18" d="M380.81,111.16s7.7,3.43,6.65-1.85A61.79,61.79,0,0,0,383,103s8.5-5.07,13,.08c3.15,4.79,6.9,27.67-.58,43.87-2.44-1.8-6.28-20-11.12-18.42S380.81,111.16,380.81,111.16Z"/><path class="cls-16" d="M364.07,118.52s-.76-5.14-3.32-6.42a6.31,6.31,0,0,1-3.2-3.41c-2.28-6.28-4.77-19.17-.43-15.19,5.46,5,3.88,17.39,12,18.82Z"/><path class="cls-16" d="M384.13,132.52c.83-14.29-3.41-26.33-9.5-26.9s-11.71,10.56-12.54,24.81,3.41,26.33,9.5,26.9S383.29,146.81,384.13,132.52Z"/><ellipse class="cls-19" cx="370.54" cy="102.98" rx="1.33" ry="1.38" transform="translate(-2.77 195.42) rotate(-29.44)"/><ellipse class="cls-19" cx="377.6" cy="103.64" rx="1.33" ry="1.38" transform="translate(-2.18 198.97) rotate(-29.44)"/><polygon class="cls-20" points="368.32 173.07 295.08 202.72 298.21 210.14 371.47 180.49 368.32 173.07"/><path class="cls-20" d="M407.13,173a8.82,8.82,0,0,0-4,.57h0a13.16,13.16,0,0,0-4.86,3.41h0a22.83,22.83,0,0,0-3.25,4.53v0a41,41,0,0,0-4.66,17.26,47.73,47.73,0,0,0,0,6h0a41.75,41.75,0,0,0,1.49,8.81h0c0,.08,0,.18.08.26v0a29.82,29.82,0,0,0,1,2.88h0c.35.87.72,1.69,1.12,2.47h0l.14.25h0c2.44,4.6,5.85,7.58,9.77,7.95,5.93.55,11.43-5.07,14.46-13.7a41.11,41.11,0,0,0,1.43-5.16h0l0-.07h0a47.35,47.35,0,0,0,.91-6.86C421.63,186.59,415.53,173.75,407.13,173Zm8.21,36.29h0a25.36,25.36,0,0,1-1.17,3.09,15.25,15.25,0,0,1-5.44,6.83h0a7,7,0,0,1-4.38,1.11v0h0a8.15,8.15,0,0,1-5.39-3.13,15,15,0,0,1-1.71-2.52,20.87,20.87,0,0,1-1-2.06h0c-.29-.71-.55-1.47-.78-2.25h0a28.17,28.17,0,0,1-.92-4.27,34.59,34.59,0,0,1-.33-4.58c0-.76,0-1.54.06-2.32,0-.57.08-1.15.14-1.71a30,30,0,0,1,2.63-9.77h0c.21-.44.42-.87.65-1.27v0a17.44,17.44,0,0,1,1.5-2.28h0c2.06-2.66,4.59-4.18,7.25-4h.23l.33,0h0a7.44,7.44,0,0,1,3.88,1.88h0c2.36,2.06,4.19,5.61,5.16,10h0a32.38,32.38,0,0,1,.64,4.44h0a30.06,30.06,0,0,1,.1,3.08c0,.57,0,1.14-.05,1.72,0,.79-.12,1.56-.21,2.31,0,.29-.08.59-.12.88h0A31.16,31.16,0,0,1,415.34,209.25Z"/><path class="cls-20" d="M362.12,184.28a41.57,41.57,0,0,0-1.47-8.1c-1.79-6.17-4.95-10.87-8.86-12.8a9.46,9.46,0,0,0-2.51-.83c-.23,0-.47-.07-.7-.09-3.4-.32-6.65,1.39-9.38,4.53h0c-3.67,4.23-6.4,11.06-7.24,19-.07.61-.12,1.21-.16,1.83h0c0,.13,0,.25,0,.38a46.9,46.9,0,0,0,.22,8.22h0c.07.61.15,1.21.24,1.8,1.12,7.12,3.89,13,7.62,16.14a11,11,0,0,0,3.26,1.94,8.81,8.81,0,0,0,2.27.52,8.62,8.62,0,0,0,2.56-.14c2.77-.57,5.38-2.46,7.59-5.31.24-.32.48-.64.72-1a33.16,33.16,0,0,0,4.57-10.5,44.47,44.47,0,0,0,.9-4.38c.22-1.45.38-2.94.48-4.47A48.22,48.22,0,0,0,362.12,184.28Zm-5.2,14.1a20.4,20.4,0,0,1-5,8.94,9.31,9.31,0,0,1-3.27,2.1,4.88,4.88,0,0,1-.55.17,6.48,6.48,0,0,1-2.29.2v0a7,7,0,0,1-3.25-1.19,10.29,10.29,0,0,1-2.12-1.91,20.15,20.15,0,0,1-3.89-8.35,28.51,28.51,0,0,1-.61-3.48,34.4,34.4,0,0,1-.19-6.23c0-.46.07-.92.11-1.37h0c0-.37.07-.74.12-1.1a29.63,29.63,0,0,1,2.67-9.27h0c2.34-4.75,5.81-7.64,9.51-7.3,3.54.33,6.51,3.54,8.3,8.29h0a29.15,29.15,0,0,1,1.71,8,35.31,35.31,0,0,1-.34,8.43A30.6,30.6,0,0,1,356.91,198.38Z"/><path class="cls-20" d="M413.29,200.89a5.75,5.75,0,0,0-5.13-6.05,5.29,5.29,0,0,0-5.8,4.73,2.24,2.24,0,0,0,0,.3,5.75,5.75,0,0,0,5.13,6.05,5.29,5.29,0,0,0,5.8-4.73Z"/><polygon class="cls-20" points="411.09 179.07 407.12 178.71 406.05 196.85 410.02 197.21 411.09 179.07"/><polygon class="cls-20" points="407.94 198.71 419.84 199.81 419.61 203.85 407.7 202.74 407.94 198.71"/><polygon class="cls-20" points="409.69 202.93 405.39 202.52 404.14 223.82 408.43 224.22 409.69 202.93"/><polygon class="cls-20" points="407.94 198.71 392.4 197.27 392.16 201.29 407.7 202.74 407.94 198.71"/><polygon class="cls-20" points="410.29 203.3 407.43 199.93 391.74 213.61 394.6 216.98 410.29 203.3"/><polygon class="cls-20" points="411.97 199.14 397.93 182.57 394.93 185.17 408.98 201.74 411.97 199.14"/><path class="cls-20" d="M387.08,220.6l-41.44-12.06a11.79,11.79,0,0,1-8.11-11.36l2.81-50.77c.27-4.88,4-.35,8.69,1l41.43,12.09c4.73,1.38,8.8-.9,8.53,4l-2.81,50.77C395.91,219.12,391.82,222,387.08,220.6Z"/><path class="cls-20" d="M396.24,160.14l13.68,26.66c5.72,11.12,1.41,24.58-9.5,29.69l-7.72,3.63Z"/><polygon class="cls-20" points="418.97 194.49 416.53 191.61 409.88 197.4 412.32 200.29 418.97 194.49"/><polygon class="cls-20" points="411.95 199.16 419.87 208.49 416.89 211.08 408.98 201.74 411.95 199.16"/><path class="cls-21" d="M248.58,199c-1.35-3.13-.94-12.2-.66-13.59h-.33c4.06-1.3,2.26-10.8-1.66-20.14-4-9.56-24-5.48-35-6.36s-10.49-15.54-14.31-21.55c-9.86-4.16-13.53-4.42-15.92-3.8l.07-1.2a1.67,1.67,0,0,0-1.43-1.66,1.49,1.49,0,0,0-1.61,1.34s0,0,0,.07l-.17,2.72a9.37,9.37,0,0,1-2.68.55,1.93,1.93,0,0,0-.34.05l-.22-1.53a1.44,1.44,0,0,0-1.57-1.24,1.37,1.37,0,0,0-1.18,1.52s0,0,0,0l.49,3.37.05.2h0c-3.23,6.47-2.66,23.65-2.66,23.65.06.35.11.68.18,1a1,1,0,0,0,1.22.81,1.07,1.07,0,0,0,.63-.4,1.21,1.21,0,0,1,.91-.55c.49,0,.94.45,1.33,1.23a1.55,1.55,0,0,0,2.08.66,1.47,1.47,0,0,0,.41-.31c2.7-2.72,5.75-6.84,8.35-8.25,5.6-3,.83,9.69.83,9.69s-3.25,5.5-1.34,8.5c4,5.57,1.71,8.54-1.57,11.21-2.34,1.91-5.2,3.67-6.65,6.12-3.54,5.89,13.47,19.35,13.47,19.35s2,0,.39-4.21c-21.39-18.72,5.72-16,6.38-16.35-2.9,11.73,2.93,16.51,5.74,23.14s-7.71,8-1.93,9.14,6-4.4,6.35-6.34,0-11.87-1.47-15.27c-1.35-3.13-.94-12.2-.66-13.59,0-.12.05-.18.07-.18,3.73.72,10.24.83,17.14.66a10.47,10.47,0,0,0-1.66,2.05c-3.55,5.89,13.47,19.35,13.47,19.35s1.95,0,.38-4.21c-21.39-18.71,5.72-16,6.38-16.34-2.9,11.73,2.93,16.51,5.74,23.13s-7.7,8-1.93,9.14,6-4.4,6.36-6.34S250.05,202.36,248.58,199Z"/><path class="cls-14" d="M294,198.12h.11c4-.91,2.86-10.28-.36-19.62s-21.7-5.69-31.66-6.71-8.85-15.22-12.05-21.1c-6.39-3-9.89-4-12.19-4.16l.45-1.66a1.49,1.49,0,0,0-1-1.8,1.37,1.37,0,0,0-1.71.89l0,.06-.83,3a16.39,16.39,0,0,1-3.24,1.19l-3.24-4.83a1.42,1.42,0,0,0-2-.42h0a1.44,1.44,0,0,0-.35,2l2.78,4.16c-4.33,4.16-4.7,24.46-4.7,24.46a17.61,17.61,0,0,0,.28,2,.77.77,0,0,0,.9.62.79.79,0,0,0,.55-.4c.26-.48.55-.75.83-.72s.67.48.88,1.15a1.07,1.07,0,0,0,1.74.56c2.77-2.49,6.13-7.19,8.86-8.65,5.27-2.83.28,9.4.28,9.4s-3.23,5.28-1.66,8.22c5.76,9.35-4.85,11-8.38,16.67s11.39,19,11.39,19,1.78.07.55-4.06C221.32,198.59,247,202,246.9,201.54c-3.23,11.34,1.88,16.06,4.16,22.53s-7.43,7.68-2.2,8.84,5.67-4.16,6.12-6,.57-11.51-.61-14.82-.12-13.38.12-13.35c3,.68,8.16.93,13.76.92a8.11,8.11,0,0,0-.79,1.09c-3.32,5.55,12.69,18.22,12.69,18.22s1.84,0,.36-4c-20.38-17.84,6-15,6-15.41-2.74,11.06,2.75,15.56,5.4,21.8s-7.26,7.57-1.82,8.62,5.61-4.16,6-6,0-11.18-1.38-14.37C293.71,207.23,293.8,200.95,294,198.12Z"/><path class="cls-22" d="M313.83,170.16a59.54,59.54,0,0,1-10.05,2c2.41-6.31,3.61-13.6,1.45-17.38-.18-.32-.38-.62-.58-.91A8.64,8.64,0,0,0,301.5,151h0a6,6,0,0,0-5.85.15h0a8.74,8.74,0,0,0-3.17,3.26h0a14.16,14.16,0,0,0-1.6,4.4c-1.12,5.71-1.69,13.89-.41,19.29l-.22.23a15,15,0,0,0-3.63,5.73c-.12.35-.23.7-.33,1.06a14.6,14.6,0,0,0-.42,2.48,51,51,0,0,0,0,9.84,4.9,4.9,0,0,0,.25,1.61,15.94,15.94,0,0,0,.61,2.26c.38,1.28.81,2.68,1.19,3.86s.68,2.1.86,2.53c2.17,5.31,6.16,16,5.61,21.89v0a6.29,6.29,0,0,1-.69,2.5c-3.45,6-6.56,7.45.05,7.45,3.5,0,5.19-2.16,5.25-7a2.85,2.85,0,0,0,3.51-.49c3.38-5.5.75-13.36.22-18.58-.23-2.34,0-4.15,1.28-5a16.47,16.47,0,0,0,3.47-2.94,14.76,14.76,0,0,0,1-1.25h0a10.92,10.92,0,0,0,1.88-4.18c1.54.45,3.22,1.25,4.91,1.69a6.85,6.85,0,0,0,3.78.07,21.1,21.1,0,0,1,.88,3.89c.06.42.12.88.16,1.35h0c.07.79.12,1.65.12,2.57A25.44,25.44,0,0,1,315,225.25c-1.5,2,6.67,5.38,7.34,1s-1.72-6.69,1.1-8.65c.56-1-.08-6.17-.39-11.6h0c0-.07,0-.14,0-.21A59.74,59.74,0,0,1,323,199h0c0-.42.06-.83.11-1.23a18.63,18.63,0,0,0,.94-2.8c.11-.44.19-.88.27-1.33C326.13,183.49,322.51,167.45,313.83,170.16Zm-14.94,60.11c-.28-4.22-1.46-10-3.46-17.57,0-.15,0-.3,0-.45v0a15.72,15.72,0,0,1,.29-3.28h0a16.35,16.35,0,0,1,.76-2.71,11.47,11.47,0,0,0,1.85-.34c-.08.77-.15,1.5-.2,2.17-.18,2.2-.22,3.73-.22,3.73s.29,1.29.66,3.19C299.58,220.2,301.17,230,298.89,230.27Z"/><path class="cls-23" d="M370.28,199.38a20.05,20.05,0,0,0,1.36-4.71c2-11.37-2-29.43-11.63-26.37a65,65,0,0,1-8.21,1.88c-1,.16-1.95.29-2.93.41.14-.39.29-.78.42-1.17a38.24,38.24,0,0,0,2.42-13.15,11.56,11.56,0,0,0-1.24-5.24h0a11,11,0,0,0-3.24-3.73h0a6.73,6.73,0,0,0-8.59.51h0a11.87,11.87,0,0,0-3.35,5.14v0a17.15,17.15,0,0,0-.7,2.6c-1.24,6.42-1.88,15.64-.46,21.72l-.24.26A16.71,16.71,0,0,0,329,188c-.07.68-.12,1.36-.16,2.05h0c-.08,1.24-.11,2.49-.1,3.74,0,1.76.09,3.52.26,5.28a5.59,5.59,0,0,0,.28,1.82c0,.21.08.42.13.63h0l.16.65c.12.42.24.84.38,1.26.83,2.85,1.87,6.21,2.27,7.2,2.81,7,8.37,22.25,5.46,27.46-3.82,6.8-7.27,8.39.06,8.39,3.88,0,5.76-2.43,5.82-7.92a3.12,3.12,0,0,0,3.89-.55c3.33-5.51,1.39-13.1.51-18.85-.42-2.76-.61-5.09.15-6.56a2.14,2.14,0,0,1,.15-.26,2.76,2.76,0,0,1,.85-.85,18.1,18.1,0,0,0,2-1.49h0a14.6,14.6,0,0,0,5-7.93l.78.26c1.25.43,2.57,1,3.91,1.43a8.2,8.2,0,0,0,4.95.3,28.6,28.6,0,0,1,1.29,8.8,30.93,30.93,0,0,1-.32,4.44c-.13.87-.3,1.76-.52,2.67h0a28.56,28.56,0,0,1-4.9,10.4c-1.66,2.29,7.39,6.06,8.13,1.16.67-4.44-1.44-7,.49-9.11h0a4.23,4.23,0,0,1,.73-.63,8.71,8.71,0,0,0,.21-3.38c-.17-4-.93-10.77-.78-16.2C370.13,201.21,370.18,200.26,370.28,199.38ZM343.46,236c-.3-4.59-1.54-10.82-3.61-18.92l-.22-.86a18.77,18.77,0,0,1,.8-6.21q.16-.54.35-1.06h.07a11.69,11.69,0,0,0,2-.37c-.07.62-.12,1.21-.17,1.77h0c0,.5-.08,1-.11,1.42-.15,2.07-.18,3.45-.18,3.45s.33,1.48.75,3.65C344.23,224.7,346,235.65,343.46,236Z"/><path class="cls-22" d="M292.44,145.46h0a2,2,0,0,1,2.29,1.41l1.33,6.31a1.78,1.78,0,0,1-1.56,2.07h0a2,2,0,0,1-2.29-1.41l-1.33-6.31A1.79,1.79,0,0,1,292.44,145.46Z"/><path class="cls-22" d="M306.62,145.19l.25.11a1.7,1.7,0,0,1,1,2.35l-3.28,6.46a2,2,0,0,1-2.6.87l-.25-.11a1.7,1.7,0,0,1-1-2.35l3.28-6.46A2,2,0,0,1,306.62,145.19Z"/><path class="cls-23" d="M335.65,144.12h0a2.16,2.16,0,0,1,2.53,1.58l1.47,7.1a2,2,0,0,1-1.73,2.33h0a2.16,2.16,0,0,1-2.53-1.58l-1.47-7.1A2,2,0,0,1,335.65,144.12Z"/><path class="cls-23" d="M351.35,143.81l.28.12a1.93,1.93,0,0,1,1.06,2.64l-3.64,7.27a2.25,2.25,0,0,1-2.88,1l-.28-.12a1.93,1.93,0,0,1-1.06-2.64l3.64-7.27A2.25,2.25,0,0,1,351.35,143.81Z"/></g><rect class="cls-3" x="470.3" y="534.48" width="141.92" height="48.73"/><circle class="cls-24" cx="541.26" cy="461.2" r="32.96"/><rect class="cls-5" x="493.3" y="623.22" width="95.92" height="184.19"/></g></g></g></svg>