<svg xmlns="http://www.w3.org/2000/svg" viewBox="0 0 1097.6 324.4"><defs><style>.cls-1{fill:#bcbbb8;}.cls-2{fill:#87847e;}.cls-12,.cls-3{fill:none;stroke-miterlimit:10;}.cls-3{stroke:#020202;stroke-width:0.86px;}.cls-4{fill:#51504f;}.cls-5{fill:#1e1e1d;}.cls-6{fill:#fff;}.cls-7{fill:#dd7f3e;}.cls-8{fill:#c14717;}.cls-9{fill:#2a7fd3;}.cls-10{fill:#7f7c37;}.cls-11{fill:#b7b449;}.cls-12{stroke:#fffef3;}</style></defs><title>Element 5</title><g id="Ebene_2" data-name="Ebene 2"><g id="Ebene_1-2" data-name="Ebene 1"><g id="Ebene_2-2" data-name="Ebene 2"><g id="EbeneBoden"><g id="Sehenswürdigkeiten"><g id="EastSideGallery"><polygon class="cls-1" points="53.8 41.7 53.8 43.5 52.1 55.4 0 324.4 53.8 324.4 1082.1 324.4 1082.1 41.7 53.8 41.7"/><rect class="cls-2" x="36.2" width="1061.4" height="43.5"/><line class="cls-3" x1="225.2" y1="322.7" x2="225.2" y2="43.5"/><line class="cls-3" x1="53.8" y1="321" x2="53.8" y2="41.7"/><line class="cls-3" x1="381" y1="322.7" x2="381" y2="43.5"/><line class="cls-3" x1="567" y1="322.7" x2="567" y2="43.5"/><line class="cls-3" x1="739.3" y1="323.6" x2="739.3" y2="44.3"/><line class="cls-3" x1="910.7" y1="323.6" x2="910.7" y2="44.3"/><line class="cls-3" x1="1082.1" y1="323.6" x2="1082.1" y2="44.3"/><line class="cls-3" x1="53.8" y1="43.5" x2="225.2" y2="43.5"/><line class="cls-3" x1="225.2" y1="43.5" x2="396.6" y2="43.5"/><line class="cls-3" x1="396.6" y1="43.5" x2="568" y2="43.5"/><line class="cls-3" x1="568" y1="43.5" x2="739.3" y2="43.5"/><line class="cls-3" x1="739.3" y1="43.5" x2="910.7" y2="43.5"/><line class="cls-3" x1="910.7" y1="43.5" x2="1082.1" y2="43.5"/><rect class="cls-4" x="52.1" y="41.7" width="1030" height="13.6"/><path d="M117,149.5H91v-40h25.7v6H98.2v10.8h14.9v5.8H98.2v11.2H117Z"/><path d="M154.6,149.5h-7.7l-3.2-9.5H128.3l-3.1,9.5h-6.1l13.3-40h8.9Zm-12.9-15.3-5.8-17.8-5.8,17.8Z"/><path d="M155.2,139.9l7-1.5c.8,4,4.1,6,9.7,6a10.22,10.22,0,0,0,5.9-1.5,4.53,4.53,0,0,0,2.1-3.8,5.29,5.29,0,0,0-.9-3,6.78,6.78,0,0,0-4-2.2l-7.6-2a18,18,0,0,1-5.8-2.3,9.12,9.12,0,0,1-3-3.7,11.17,11.17,0,0,1-1.1-5.1,10.7,10.7,0,0,1,4-8.6,15.53,15.53,0,0,1,10.2-3.2,17.49,17.49,0,0,1,9.2,2.3,10.43,10.43,0,0,1,5.2,6.4l-6.9,1.7c-1.1-3-3.5-4.5-7.4-4.5a8.39,8.39,0,0,0-5.1,1.4,4.55,4.55,0,0,0-1.8,3.6c0,2.3,1.9,3.9,5.6,4.8l6.8,1.7c4.1,1,6.9,2.6,8.3,4.6a11.56,11.56,0,0,1,2.1,6.7,11.28,11.28,0,0,1-4.4,9.3c-3,2.3-6.8,3.4-11.5,3.4a21,21,0,0,1-10.4-2.5A12.9,12.9,0,0,1,155.2,139.9Z"/><path d="M207.6,149.5h-7.7V115.7H189.3v-6.2h29v6.2H207.7Z"/><path d="M128,191.4v20.5h-3.2l-2.2-5.4q-3.45,6-10.8,6c-5.4,0-9.5-2.1-12.2-6.2a26.11,26.11,0,0,1-4-14.4,23.21,23.21,0,0,1,4.5-14.6q4.5-6,12.6-6a14.33,14.33,0,0,1,9.9,3.5,15,15,0,0,1,4.9,8.7l-6.3,1.1c-1.2-4.9-4-7.3-8.4-7.3a8.31,8.31,0,0,0-6.9,3.5c-1.8,2.3-2.7,5.9-2.7,10.6,0,10.1,3.2,15.2,9.5,15.2a8.23,8.23,0,0,0,6.1-2.5,9.25,9.25,0,0,0,2.4-6.7h-8.3v-5.8H128Z"/><path d="M167.8,211.9h-7.7l-3.2-9.5H141.5l-3.1,9.5h-6.1l13.3-40h8.9ZM155,196.6l-5.8-17.9-5.8,17.8Z"/><path d="M197.3,211.9H172.7v-40h7.5v33.5h17Z"/><path d="M227.2,211.9H202.6v-40h7.6v33.5h17Z"/><path d="M258.5,211.9h-26v-40h25.7v6H239.7v10.8h14.9v5.8H239.7v11.2h18.8Z"/><path d="M295.8,211.9h-7.6L282,195.5H271.9v16.4h-7.2v-40H282c4.8,0,8.4,1.1,10.6,3.3a11.23,11.23,0,0,1,3.4,8.5,10.57,10.57,0,0,1-7.2,10.6Zm-24-22.2h9c2.6,0,4.5-.5,5.8-1.6a5.51,5.51,0,0,0,1.9-4.5,5.25,5.25,0,0,0-1.9-4.3,7.66,7.66,0,0,0-5.2-1.6h-9.5Z"/><path d="M318.3,211.9h-7.6V195l-13.6-23.1h8.7l9.5,16.5,9.1-16.5h6.9l-13,23.1Z"/><path d="M252.6,139.2l7-1.5c.8,4,4.1,6,9.7,6a9.42,9.42,0,0,0,5.9-1.6,4.53,4.53,0,0,0,2.1-3.8,5.29,5.29,0,0,0-.9-3,6.78,6.78,0,0,0-4-2.2l-7.6-2a18,18,0,0,1-5.8-2.3,9.12,9.12,0,0,1-3-3.7,11.17,11.17,0,0,1-1.1-5.1,10.7,10.7,0,0,1,4-8.6,15.53,15.53,0,0,1,10.2-3.2,17.49,17.49,0,0,1,9.2,2.3,10.43,10.43,0,0,1,5.2,6.4l-6.9,1.7c-1.1-3-3.5-4.5-7.4-4.5a8.39,8.39,0,0,0-5.1,1.4,4.55,4.55,0,0,0-1.8,3.6c0,2.3,1.9,3.9,5.6,4.8l6.8,1.7c4.1,1,6.9,2.6,8.3,4.6a11.56,11.56,0,0,1,2.1,6.7,11.28,11.28,0,0,1-4.4,9.3c-3,2.3-6.8,3.4-11.5,3.4a21,21,0,0,1-10.4-2.5A12.47,12.47,0,0,1,252.6,139.2Z"/><path d="M298.3,148.9h-7.2v-40h7.2Z"/><path d="M306.8,148.9v-40h14.7a16.12,16.12,0,0,1,13.1,5.8,21.37,21.37,0,0,1,5,14.3,20.54,20.54,0,0,1-5.1,14.2c-3.4,3.8-8.3,5.7-14.6,5.7Zm7.5-5.9h6a11.13,11.13,0,0,0,8.2-3.6c2.2-2.4,3.4-6,3.4-10.8a16.65,16.65,0,0,0-2.9-9.9,9.32,9.32,0,0,0-7.8-4.1h-6.9Z"/><path d="M372.3,148.9h-26v-40H372v6H353.5v10.8h14.9v5.8H353.5v11.2h18.8Z"/><path class="cls-5" d="M952.2,193.1a50.83,50.83,0,0,0-7.1-25.8,40.35,40.35,0,0,0-34-62A44,44,0,0,0,835.2,79a25,25,0,0,0-28.2-.3,43.92,43.92,0,0,0-62.1-1.5c-.6.6-1.2,1.1-1.7,1.7a25,25,0,0,0-34.8,6.3,31,31,0,0,0-2.6,4.7,38.23,38.23,0,0,0-14.3.3,43.85,43.85,0,0,0-61.6-7.8,45.11,45.11,0,0,0-5.1,4.7A25,25,0,0,0,590,93.4a31,31,0,0,0-2.6,4.7,37.62,37.62,0,0,0-30.4,8.1A32.52,32.52,0,0,0,527.1,141a29.26,29.26,0,0,0,1.6,7.8,37,37,0,0,0-6,20.2v.6A32.5,32.5,0,0,0,508.2,208a37.36,37.36,0,0,0,6.6,48.2,38.35,38.35,0,0,0,50.6,47.7,50,50,0,0,0,57.4,14.3,34,34,0,0,0,32.3-10.4,50.29,50.29,0,0,0,46.2-7.5,49.85,49.85,0,0,0,56.8,13.6,34,34,0,0,0,32.3-10.4c1.3.4,2.7.8,4,1.2a49.94,49.94,0,0,0,42.7,2.2,34,34,0,0,0,32.3-10.4,50.12,50.12,0,0,0,63.3-64A49.07,49.07,0,0,0,952.2,193.1Z"/><path class="cls-6" d="M668.4,264.9V231.6h13a20.75,20.75,0,0,1,5.5.7,7.26,7.26,0,0,1,3.8,2.9,8.57,8.57,0,0,1,1.6,5.1,7.71,7.71,0,0,1-1.6,4.8,7.19,7.19,0,0,1-4.4,2.6,8.26,8.26,0,0,1,5.3,2.9,8.49,8.49,0,0,1,1.8,5.3,9.31,9.31,0,0,1-2.5,6.5c-1.7,1.8-4.3,2.6-7.8,2.6Zm5.7-19.4h7.3a4.58,4.58,0,0,0,4.9-4.2v-.5a4,4,0,0,0-1.5-3.4,6.06,6.06,0,0,0-3.5-1.1h-7.2Zm0,14.3h7.8a5.59,5.59,0,0,0,3.9-1.3,4.89,4.89,0,0,0,0-6.9h0a5.44,5.44,0,0,0-3.9-1.3h-7.8Z"/><path class="cls-6" d="M720.4,264.9H698.7V231.6h21.5v5H704.8v9h12.4v4.8H704.8v9.3h15.6Z"/><path class="cls-6" d="M751.6,264.9h-6.4L740,251.2h-8.5v13.7h-6V231.6H740c4,0,7,.9,8.9,2.7a9.2,9.2,0,0,1,2.8,7,8.66,8.66,0,0,1-6,8.8Zm-20-18.6h7.5a7.52,7.52,0,0,0,4.8-1.4,4.48,4.48,0,0,0,1.6-3.8,4.18,4.18,0,0,0-1.6-3.5,6.22,6.22,0,0,0-4.4-1.3h-8Z"/><path class="cls-6" d="M778.2,264.9H757.7V231.6H764v27.9h14.2Z"/><path class="cls-6" d="M788.6,264.9h-6V231.6h6Z"/><path class="cls-6" d="M821.1,264.9h-5.8l-12.6-21.3-1-1.6-.9-1.5v24.4H796V231.6h6.6l11.7,19.6,2.1,3.6V231.6h4.7Z"/><rect class="cls-6" x="744.57" y="187.61" width="6.5" height="47.8" transform="translate(11.6 460.41) rotate(-34.47)"/><rect class="cls-6" x="750.75" y="208.32" width="46.9" height="6.5" transform="translate(161.58 730.07) rotate(-55.53)"/><path class="cls-7" d="M735.4,175.7a38.4,38.4,0,0,0,1.6,11.2,7.1,7.1,0,0,1-1-1.4,32,32,0,0,1,26-50.4,29.62,29.62,0,0,1,6.6.7A40.52,40.52,0,0,0,735.4,175.7Z"/><path class="cls-8" d="M793.9,167.1A31.89,31.89,0,0,1,737,186.9a40.51,40.51,0,0,1,27.8-50.1,23.4,23.4,0,0,1,3.8-.9,31.9,31.9,0,0,1,25.3,31.2Z"/><circle class="cls-9" cx="892.9" cy="126" r="14"/><path class="cls-6" d="M843.2,166.5h-3.9V149.6H834v-3.1h14.5v3.1h-5.3v16.9Z"/><path class="cls-6" d="M857.6,166.8a7.24,7.24,0,0,1-6.2-3,12,12,0,0,1-2.2-7.4,10.9,10.9,0,0,1,2.4-7.3,8.08,8.08,0,0,1,12.4,0,12.83,12.83,0,0,1-.1,14.8A7.72,7.72,0,0,1,857.6,166.8Zm0-2.9a4.22,4.22,0,0,0,3.3-1.6c.9-1.1,1.4-3,1.4-5.8a11.15,11.15,0,0,0-1.1-5.4,3.66,3.66,0,0,0-3.5-2c-3.1,0-4.6,2.5-4.6,7.5a10.55,10.55,0,0,0,1.2,5.5,3.76,3.76,0,0,0,3.3,1.8Z"/><path class="cls-6" d="M885.3,166.5h-4l-4.2-10.2-3.9,5.1v5h-3.6v-20h3.6v10.5c.5-.7.8-1.2,1-1.5l6.6-9h3.6l-4.8,6.6Z"/><path class="cls-6" d="M896,166.5h-3.8v-8.4l-6.8-11.6h4.4l4.8,8.3,4.5-8.3h3.5l-6.5,11.6v8.4Z"/><path class="cls-6" d="M910.7,166.8a7.24,7.24,0,0,1-6.2-3,12,12,0,0,1-2.2-7.4,10.9,10.9,0,0,1,2.4-7.3,8.08,8.08,0,0,1,12.4,0,12.83,12.83,0,0,1-.1,14.8A7.85,7.85,0,0,1,910.7,166.8Zm0-2.9a4.22,4.22,0,0,0,3.3-1.6c.9-1.1,1.4-3,1.4-5.8a11.15,11.15,0,0,0-1.1-5.4,3.66,3.66,0,0,0-3.5-2c-3.1,0-4.6,2.5-4.6,7.5a10.55,10.55,0,0,0,1.2,5.5,3.55,3.55,0,0,0,3.3,1.8Z"/><polygon class="cls-6" points="902.2 147 905.2 141.2 901.9 141.2 898.6 147.4 902.2 147"/><polygon class="cls-6" points="885.8 147.1 882.1 141.2 886.5 141.4 890.6 147.9 885.8 147.1"/><circle class="cls-10" cx="630.4" cy="140" r="17.6"/><path class="cls-6" d="M566.7,148.8h-3.5L555.6,136l-.6-1-.5-.9v14.7h-2.9v-20h4l7,11.8,1.3,2.2V128.9h2.8Z"/><path class="cls-6" d="M584.1,148.8h-13v-20H584v3h-9.3v5.4h7.5v2.9h-7.4v5.6h9.4Z"/><path class="cls-6" d="M611.2,128.8l-5.4,20H602l-4-14.7-3.6,14.7h-3.7l-5.5-20h3.9l3.9,14.6,3.6-14.6h3.6l4,14.6,3.8-14.6Z"/><path class="cls-6" d="M631.7,184.8h-3.8v-8.4l-6.8-11.6h4.4l4.8,8.3,4.5-8.3h3.5l-6.5,11.6Z"/><path class="cls-6" d="M646.3,185.1a7.24,7.24,0,0,1-6.2-3,12,12,0,0,1-2.2-7.4,10.9,10.9,0,0,1,2.4-7.3,8.08,8.08,0,0,1,12.4,0,12.83,12.83,0,0,1-.1,14.8A7.86,7.86,0,0,1,646.3,185.1Zm0-2.9a4.22,4.22,0,0,0,3.3-1.6c.9-1.1,1.4-3,1.4-5.8a11.15,11.15,0,0,0-1.1-5.4,3.66,3.66,0,0,0-3.5-2c-3.1,0-4.6,2.5-4.6,7.5a10.55,10.55,0,0,0,1.2,5.5,3.55,3.55,0,0,0,3.3,1.8Z"/><path class="cls-6" d="M673.8,184.8H670l-3.1-8.2h-5.1v8.2h-3.6v-20h8.7c2.4,0,4.2.5,5.3,1.6a5.51,5.51,0,0,1,1.7,4.2,5.28,5.28,0,0,1-3.6,5.3Zm-12-11.1h4.5a4.28,4.28,0,0,0,2.9-.8,2.9,2.9,0,0,0,1-2.3,2.72,2.72,0,0,0-.9-2.1,3.53,3.53,0,0,0-2.6-.8h-4.8Z"/><path class="cls-6" d="M693.2,184.8h-4L685,174.6l-3.9,5.1v5h-3.6v-20h3.6v10.5c.5-.7.8-1.2,1-1.5l6.6-9h3.6l-4.8,6.6Z"/><polygon class="cls-6" points="637.7 165.6 640.7 159.9 637.4 159.9 634.1 166 637.7 165.6"/><polygon class="cls-6" points="621.7 165.9 618 159.9 622.5 160.2 626.6 166.6 621.7 165.9"/><path class="cls-11" d="M616.1,145.1a22.31,22.31,0,0,0,.9,6.3c-.2-.3-.4-.5-.6-.8a18.09,18.09,0,0,1,4.4-25.2,18.34,18.34,0,0,1,10.4-3.3,15,15,0,0,1,3.7.4A23.11,23.11,0,0,0,616.1,145.1Z"/><path class="cls-12" d="M796.3,167.5s24-89.3,89.5-55.5"/><path class="cls-12" d="M729.8,155.5s-89-74.5-102.5-38"/><path class="cls-12" d="M796.8,181.5s241,88,112-45.5"/><path class="cls-12" d="M726.3,180S538.8,290,604.8,168"/><path d="M84.3,156.2H375.8a1.32,1.32,0,0,1,1.3,1.3h0a1.32,1.32,0,0,1-1.3,1.3H84.3a1.32,1.32,0,0,1-1.3-1.3h0A1.32,1.32,0,0,1,84.3,156.2Z"/><path d="M82.5,215.2H374a1.32,1.32,0,0,1,1.3,1.3h0a1.32,1.32,0,0,1-1.3,1.3H82.5a1.32,1.32,0,0,1-1.3-1.3h0A1.4,1.4,0,0,1,82.5,215.2Z"/></g></g></g></g></g></g></svg>