<svg xmlns="http://www.w3.org/2000/svg" viewBox="0 0 458.1 835.3"><defs><style>.cls-1{fill:#a8a19a;}.cls-2{fill:#918e8a;}</style></defs><title>Element 9</title><g id="Ebene_2" data-name="Ebene 2"><g id="Ebene_1-2" data-name="Ebene 1"><g id="Ebene_2-2" data-name="Ebene 2"><g id="EbeneBoden"><g id="Sehenswürdigkeiten"><g id="Eiffelturm"><g id="Eiffelturm-2"><path class="cls-1" d="M181.2,664.8H115.9a2.25,2.25,0,0,0-2.2,1.7c-8.5,32.2-71.2,124.3-84.6,143.7a2.26,2.26,0,0,0,.6,3.2,2,2,0,0,0,1.3.4h84a2.46,2.46,0,0,0,1.5-.5c17.3-14.4,59.4-125.3,66.9-145.4a2.28,2.28,0,0,0-1.3-3C181.8,664.9,181.5,664.8,181.2,664.8ZM115,692.2l7.2-14.5a2.33,2.33,0,0,1,3.1-1,1.39,1.39,0,0,1,.4.3l17.2,14.5a2.31,2.31,0,0,1-1.5,4.1H117a2.33,2.33,0,0,1-2.3-2.3c.1-.4.2-.8.3-1.1ZM94.5,731.3l7.4-13.9a2.29,2.29,0,0,1,3.1-.9c.1,0,.2.1.3.2l19.1,13.9a2.34,2.34,0,0,1-1.4,4.2H96.5a2.33,2.33,0,0,1-2.3-2.3,10.56,10.56,0,0,1,.3-1.2ZM72.3,769.8l8.3-13.2a2.29,2.29,0,0,1,3.2-.7c.1,0,.1.1.2.1l17.2,13.2a2.25,2.25,0,0,1,.4,3.2,2.14,2.14,0,0,1-1.8.9H74.2a2.35,2.35,0,0,1-2.3-2.4,7.63,7.63,0,0,1,.4-1.1ZM42,812.7l13.1-17.6a2.33,2.33,0,0,1,3-.6l32.1,18.2Zm70.9-21.9L106.3,803a2.29,2.29,0,0,1-3.1.9.1.1,0,0,1-.1-.1L82.9,791.6a2.4,2.4,0,0,1-.8-3.2,2.31,2.31,0,0,1,2-1.1h26.8a2.26,2.26,0,0,1,2.3,2.3,2.14,2.14,0,0,1-.3,1.2Zm19-38.7-6,11.4a2.33,2.33,0,0,1-3.1,1c-.1,0-.2-.1-.3-.2l-15.7-11.4a2.34,2.34,0,0,1,1.4-4.2H130a2.35,2.35,0,0,1,2.3,2.4,10.38,10.38,0,0,0-.4,1Zm19.5-39.9-5.8,13.5a2.24,2.24,0,0,1-3,1.2,2.17,2.17,0,0,1-.5-.3l-16.9-13.5a2.26,2.26,0,0,1-.4-3.2,2.43,2.43,0,0,1,1.8-.9h22.6a2.26,2.26,0,0,1,2.3,2.3,1.4,1.4,0,0,1-.1.9Zm12.2-26.3a2.32,2.32,0,0,1-2.9,1.5,2.51,2.51,0,0,1-.7-.4l-23.5-18h32.8Z"/><path class="cls-1" d="M166.8,522.8c-.7,24.5-38.6,107.9-38.6,107.9h67.5c6.3-9.3,25.6-107.9,25.6-107.9Zm3.4,27,3.4-14.8a1.35,1.35,0,0,1,1.6-1,1.61,1.61,0,0,1,.7.4l13.6,14.8a1.3,1.3,0,0,1-.1,1.9,1.79,1.79,0,0,1-.9.4h-17a1.35,1.35,0,0,1-1.3-1.4v-.3Zm-12.4,38.5,3-12.9a1.35,1.35,0,0,1,1.6-1l.6.3,14.2,12.9a1.3,1.3,0,0,1,.1,1.9,1.28,1.28,0,0,1-1,.4H159a1.42,1.42,0,0,1-1.4-1.3C157.8,588.5,157.8,588.4,157.8,588.3Zm5.8,40.5H144.2a1.37,1.37,0,0,1-1.4-1.4.75.75,0,0,1,.1-.5l5.5-13.2a1.36,1.36,0,0,1,1.8-.7c.1.1.3.1.4.3l13.9,13.3a1.4,1.4,0,0,1,.1,1.9A2.93,2.93,0,0,1,163.6,628.8Zm26.1-24.1-4.2,18.9a1.35,1.35,0,0,1-1.6,1,1.61,1.61,0,0,1-.7-.4l-18.9-18.9a1.39,1.39,0,0,1,0-1.9,1.28,1.28,0,0,1,1-.4h23.1a1.29,1.29,0,0,1,1.3,1.4C189.8,604.6,189.7,604.6,189.7,604.7Zm10.7-37.9L198,585.5a1.42,1.42,0,0,1-1.5,1.2,1.23,1.23,0,0,1-.8-.4L177,567.6a1.39,1.39,0,0,1,0-1.9,1.28,1.28,0,0,1,1-.4h21.1a1.34,1.34,0,0,1,1.3,1.4.75.75,0,0,1,0,.1Zm5.7-21.7a1.39,1.39,0,0,1-1.6,1.1,2,2,0,0,1-.8-.4l-15.9-18a1.3,1.3,0,0,1,1-2.2h19a1.37,1.37,0,0,1,1.4,1.4v.2Z"/><path class="cls-2" d="M115.8,810.7H23.5c-7.6,0-14.6,4.8-18.1,12.6L0,835.3H139.4l-5.4-12C130.4,815.5,123.4,810.7,115.8,810.7Z"/><path class="cls-1" d="M429,810.3c-13.4-19.4-76-111.5-84.6-143.7a2.34,2.34,0,0,0-2.2-1.7H276.9a2.26,2.26,0,0,0-2.3,2.3,2.21,2.21,0,0,0,.1.8c7.5,20.1,49.6,131,66.9,145.4a1.74,1.74,0,0,0,1.5.5h84a2.33,2.33,0,0,0,2.3-2.3A2.5,2.5,0,0,0,429,810.3Zm-51.5-53.7,8.3,13.2a2.28,2.28,0,0,1-.7,3.2,2.84,2.84,0,0,1-1.3.4H358.3a2.26,2.26,0,0,1-2.3-2.3,2.14,2.14,0,0,1,.9-1.8l17.2-13.2a2.24,2.24,0,0,1,3.2.4A.34.34,0,0,0,377.5,756.6Zm-24.8-40a2.26,2.26,0,0,1,3.2.5c.1.1.1.2.2.3l7.4,13.9a2.29,2.29,0,0,1-.9,3.1,2,2,0,0,1-1.1.3H335a2.26,2.26,0,0,1-2.3-2.3,2.58,2.58,0,0,1,1-1.9Zm-16.9-38.9,7.2,14.5a2.33,2.33,0,0,1-1,3.1,1.8,1.8,0,0,1-1,.2H316.6a2.26,2.26,0,0,1-2.3-2.3,2.5,2.5,0,0,1,.8-1.8l17.2-14.5a2.37,2.37,0,0,1,3.3.3c.1.2.2.3.2.5Zm-41.3,8.2L288.9,669h32.7l-23.5,18a2.24,2.24,0,0,1-3.2-.4,5.8,5.8,0,0,1-.4-.7Zm17.9,39.8-5.7-13.5a2.32,2.32,0,0,1,1.2-3,2.92,2.92,0,0,1,.9-.2h22.6a2.33,2.33,0,0,1,2.3,2.3,2.27,2.27,0,0,1-.9,1.8l-16.9,13.5a2.29,2.29,0,0,1-3.5-.9Zm23.2,38.5a2.35,2.35,0,0,1-3.2-.5c-.1-.1-.1-.2-.2-.3l-6-11.4a2.24,2.24,0,0,1,1-3.1,1.93,1.93,0,0,1,1-.3H350a2.26,2.26,0,0,1,2.3,2.3,2.58,2.58,0,0,1-1,1.9ZM351.7,803l-6.6-12.2a2.29,2.29,0,0,1,.9-3.1,2,2,0,0,1,1.1-.3h26.8a2.26,2.26,0,0,1,2.3,2.3,2.31,2.31,0,0,1-1.1,2l-20.2,12.2a2.35,2.35,0,0,1-3.2-.9Zm16.1,9.7,32.1-18.2a2.33,2.33,0,0,1,3,.6L416,812.7Z"/><path class="cls-1" d="M291.3,522.8H236.8s19.3,98.6,25.6,107.9h67.5S292.1,547.3,291.3,522.8Zm3.7,51.9a1.3,1.3,0,0,1,1.9.1.86.86,0,0,1,.3.6l3.1,12.9a1.3,1.3,0,0,1-1,1.6H281.7a1.24,1.24,0,0,1-1.3-1.4,1.78,1.78,0,0,1,.4-1ZM284.6,535l3.4,14.8a1.3,1.3,0,0,1-1,1.6H269.7a1.37,1.37,0,0,1-1.4-1.4,1.08,1.08,0,0,1,.4-.9l13.6-14.8a1.3,1.3,0,0,1,1.9-.1A6.19,6.19,0,0,1,284.6,535ZM252,545.1l-3.1-18a1.51,1.51,0,0,1,1.1-1.6h19.2a1.35,1.35,0,0,1,1.3,1.4,1.61,1.61,0,0,1-.3.9l-15.9,18a1.3,1.3,0,0,1-1.9.1,1.24,1.24,0,0,1-.4-.8Zm10.4,41.1a1.39,1.39,0,0,1-1.9,0,1.23,1.23,0,0,1-.4-.8l-2.4-18.7a1.34,1.34,0,0,1,1.2-1.5h21.3a1.35,1.35,0,0,1,1.4,1.3,1.28,1.28,0,0,1-.4,1Zm10.1,37.4-4.2-18.9a1.3,1.3,0,0,1,1-1.6h23.4a1.35,1.35,0,0,1,1.4,1.3,1.28,1.28,0,0,1-.4,1l-18.9,18.9a1.3,1.3,0,0,1-1.9.1,3.06,3.06,0,0,1-.4-.8Zm41.4,5.1H294.5a1.42,1.42,0,0,1-1.4-1.3,1.28,1.28,0,0,1,.4-1l13.9-13.3a1.3,1.3,0,0,1,1.9.1,1.38,1.38,0,0,1,.3.4l5.5,13.2a1.36,1.36,0,0,1-.7,1.8c-.1.2-.3.2-.5.1Z"/><path class="cls-2" d="M342.3,810.7h92.3c7.6,0,14.6,4.8,18.1,12.6l5.4,12H318.7l5.4-12C327.7,815.5,334.7,810.7,342.3,810.7Z"/><path class="cls-2" d="M348.8,655.2H344V640.3h4.8a4.8,4.8,0,0,0,4.8-4.8,4.87,4.87,0,0,0-4.8-4.8H109.2a4.87,4.87,0,0,0-4.8,4.8,4.8,4.8,0,0,0,4.8,4.8h4.9v14.9h-4.9a4.87,4.87,0,0,0-4.8,4.8,4.8,4.8,0,0,0,4.8,4.8H348.8a4.8,4.8,0,0,0,4.8-4.8A4.87,4.87,0,0,0,348.8,655.2Z"/><path class="cls-2" d="M299.5,513.2h-5.2V499.6h4.8c2.7.1,4.9-2.2,5-5.2s-1.9-5.6-4.6-5.7h-141c-2.7.1-4.7,2.6-4.6,5.7s2.3,5.3,5,5.2h4.9v13.6h-5.3a4.8,4.8,0,0,0,.4,9.6H299.1a4.8,4.8,0,0,0,.4-9.6Z"/><path class="cls-2" d="M268.9,91H255.7V89.3a28.38,28.38,0,0,0-15.4-23.6V56.2a12.88,12.88,0,0,0-4.7-9.9V6.8A6.9,6.9,0,0,0,229,0a7,7,0,0,0-6.6,6.8V46.4a13.35,13.35,0,0,0-4.7,9.8v9.5a28.38,28.38,0,0,0-15.4,23.6V91H189.2v16.9h79.7Z"/><path class="cls-2" d="M278.3,132.4H278V117.5h.3a4.8,4.8,0,0,0,0-9.6H179.7a4.8,4.8,0,0,0,0,9.6h.4v14.9h-.4a4.87,4.87,0,0,0-4.8,4.8,4.8,4.8,0,0,0,4.8,4.8h98.6a4.8,4.8,0,0,0,4.8-4.8A4.87,4.87,0,0,0,278.3,132.4Z"/><path class="cls-1" d="M278.4,142H179.7c39.7,159.4-10.8,346.7-10.8,346.7H289.2C289.1,488.7,238.7,301.4,278.4,142ZM203.8,275.9a1.54,1.54,0,0,1,1.5-1.5,1.43,1.43,0,0,1,1.2.6l7.5,10.8a1.46,1.46,0,0,1-.4,2.1.91.91,0,0,1-.8.4h-7.5a1.54,1.54,0,0,1-1.5-1.5Zm-.2-28.4V236.6a1.54,1.54,0,0,1,1.5-1.5,1.21,1.21,0,0,1,1.2.7l7.5,10.8a1.48,1.48,0,0,1-.4,2.1,1.61,1.61,0,0,1-.9.3h-7.4A1.54,1.54,0,0,1,203.6,247.5Zm11.3,60.8h4.4a1.54,1.54,0,0,1,1.5,1.5v7.4a1.54,1.54,0,0,1-1.5,1.5,1.71,1.71,0,0,1-1.3-.7l-4.4-7.4a1.58,1.58,0,0,1,.5-2.1A1.08,1.08,0,0,1,214.9,308.3Zm-11.1,9a1.62,1.62,0,0,1,1.5-1.6,1.83,1.83,0,0,1,1.3.8l6,9.3a1.51,1.51,0,0,1-.5,2.1,1.08,1.08,0,0,1-.8.2h-6a1.54,1.54,0,0,1-1.5-1.5Zm9,31.4a2.35,2.35,0,0,1,.8-.2h6.1a1.54,1.54,0,0,1,1.5,1.5v8.8a1.54,1.54,0,0,1-1.5,1.5,1.21,1.21,0,0,1-1.2-.7l-6.1-8.8A1.48,1.48,0,0,1,212.8,348.7Zm6.8-66.7a2.08,2.08,0,0,1-1.2-.5l-7.5-10.8a1.48,1.48,0,0,1,.4-2.1,1.61,1.61,0,0,1,.9-.3h7.5a1.54,1.54,0,0,1,1.5,1.5v10.8A1.43,1.43,0,0,1,219.6,282Zm.3-40.2a2.28,2.28,0,0,1-1.2-.6l-6.9-10.1a1.46,1.46,0,0,1,.4-2.1,1.4,1.4,0,0,1,.9-.3H220a1.54,1.54,0,0,1,1.5,1.5v10.1A1.56,1.56,0,0,1,219.9,241.8Zm-1.5-40.2-6.6-9.6a1.48,1.48,0,0,1,.4-2.1,1.61,1.61,0,0,1,.9-.3h6.6a1.54,1.54,0,0,1,1.5,1.5v9.6a1.42,1.42,0,0,1-1.6,1.4A2.08,2.08,0,0,1,218.4,201.6Zm-6.2-52.2a1.49,1.49,0,0,1,.9-.2h6.8a1.54,1.54,0,0,1,1.5,1.5v10.6a1.54,1.54,0,0,1-1.5,1.5,1.71,1.71,0,0,1-1.3-.7l-6.8-10.6A1.48,1.48,0,0,1,212.2,149.4Zm-8.5,8.6a1.54,1.54,0,0,1,1.5-1.5,1.43,1.43,0,0,1,1.2.6l6.6,9.5a1.48,1.48,0,0,1-.4,2.1,1.61,1.61,0,0,1-.9.3h-6.6a1.54,1.54,0,0,1-1.5-1.5Zm-.1,39.6a1.54,1.54,0,0,1,1.5-1.5,1.21,1.21,0,0,1,1.2.7l6.9,10.1a1.48,1.48,0,0,1-.4,2.1,1.61,1.61,0,0,1-.9.3H205a1.54,1.54,0,0,1-1.5-1.5Zm-1.3,158a1.54,1.54,0,0,1,1.5-1.5,1.21,1.21,0,0,1,1.2.7l7.7,11.2a1.48,1.48,0,0,1-.4,2.1,1.61,1.61,0,0,1-.9.3h-7.7a1.54,1.54,0,0,1-1.5-1.5Zm-2,38.5a1.54,1.54,0,0,1,1.5-1.5,1.43,1.43,0,0,1,1.2.6l8.3,10.5a1.46,1.46,0,0,1-.3,2.1,1.61,1.61,0,0,1-.9.3h-8.3a1.54,1.54,0,0,1-1.5-1.5Zm-4.7,39.3a1.54,1.54,0,0,1,1.5-1.5,1.6,1.6,0,0,1,1.1.5l10,11.4a1.45,1.45,0,0,1-.1,2.1,1.77,1.77,0,0,1-1,.4h-10a1.54,1.54,0,0,1-1.5-1.5Zm10.3,52.1a2.1,2.1,0,0,1-1.1.4H190.9a1.54,1.54,0,0,1-1.5-1.5V471.1a1.54,1.54,0,0,1,1.5-1.5,1.5,1.5,0,0,1,1.1.4l13.9,13.3A1.57,1.57,0,0,1,205.9,485.5Zm12-13.8a1.54,1.54,0,0,1-1.5,1.5,2.09,2.09,0,0,1-1.1-.4L205,462.7a1.45,1.45,0,0,1,0-2.1,1.61,1.61,0,0,1,1.1-.5h10.3a1.54,1.54,0,0,1,1.5,1.5Zm3.7-39a1.54,1.54,0,0,1-1.5,1.5,1.6,1.6,0,0,1-1.1-.5l-10.1-11.5a1.45,1.45,0,0,1,.1-2.1,1.77,1.77,0,0,1,1-.4h10.1a1.54,1.54,0,0,1,1.5,1.5Zm1.8-40a1.54,1.54,0,0,1-1.5,1.5,1.43,1.43,0,0,1-1.2-.6l-8.3-10.5a1.46,1.46,0,0,1,.3-2.1,1.61,1.61,0,0,1,.9-.3h8.3a1.54,1.54,0,0,1,1.5,1.5Zm38.5,39.6a1.61,1.61,0,0,1,.5,1.1v11.4a1.54,1.54,0,0,1-1.5,1.5h-10a1.54,1.54,0,0,1-1.5-1.5,1.28,1.28,0,0,1,.4-1l10-11.4A1.45,1.45,0,0,1,261.9,432.3ZM257.2,393a1.29,1.29,0,0,1,.5,1.1v10.5a1.54,1.54,0,0,1-1.5,1.5h-8.3a1.54,1.54,0,0,1-1.5-1.5,1.39,1.39,0,0,1,.3-.9l8.3-10.5A1.48,1.48,0,0,1,257.2,393Zm-1.5-37.4v11.2a1.54,1.54,0,0,1-1.5,1.5h-7.7a1.54,1.54,0,0,1-1.5-1.5,1.61,1.61,0,0,1,.3-.9l7.7-11.2a1.46,1.46,0,0,1,2.1-.3A1.74,1.74,0,0,1,255.7,355.6Zm-3-67.3h-7.5a1.54,1.54,0,0,1-1.5-1.5,1.61,1.61,0,0,1,.3-.9l7.5-10.8a1.48,1.48,0,0,1,2.1-.4,1.52,1.52,0,0,1,.7,1.2v10.8A1.81,1.81,0,0,1,252.7,288.3Zm1.5,29v9.3a1.54,1.54,0,0,1-1.5,1.5h-6a1.54,1.54,0,0,1-1.5-1.5,1.88,1.88,0,0,1,.2-.8l6-9.3a1.58,1.58,0,0,1,2.1-.5A1.28,1.28,0,0,1,254.2,317.3Zm-9.5-7.5a1.2,1.2,0,0,1-.2.8l-4.4,7.4a1.58,1.58,0,0,1-2.1.5,1.46,1.46,0,0,1-.7-1.3v-7.4a1.54,1.54,0,0,1,1.5-1.5h4.4A1.54,1.54,0,0,1,244.7,309.8Zm8.2-60.9h-7.5a1.54,1.54,0,0,1-1.5-1.5,1.61,1.61,0,0,1,.3-.9l7.5-10.8a1.57,1.57,0,0,1,2.1-.4,1.42,1.42,0,0,1,.6,1.2v10.8A1.45,1.45,0,0,1,252.9,248.9Zm-7.1,19.3a1.54,1.54,0,0,1,1.5,1.5,1.61,1.61,0,0,1-.3.9l-7.5,10.8a1.48,1.48,0,0,1-2.1.4,1.52,1.52,0,0,1-.7-1.2V269.8a1.54,1.54,0,0,1,1.5-1.5Zm-7.5,80.3h6.1a1.54,1.54,0,0,1,1.5,1.5,1.61,1.61,0,0,1-.3.9l-6.1,8.8a1.48,1.48,0,0,1-2.1.4,1.52,1.52,0,0,1-.7-1.2V350A1.71,1.71,0,0,1,238.3,348.5Zm16.1-140.8a1.54,1.54,0,0,1-1.5,1.5H246a1.54,1.54,0,0,1-1.5-1.5,1.61,1.61,0,0,1,.3-.9l6.9-10.1a1.48,1.48,0,0,1,2.1-.4,1.71,1.71,0,0,1,.7,1.3Zm-14.8-6.2a1.48,1.48,0,0,1-2.1.4,1.52,1.52,0,0,1-.7-1.2v-9.6a1.54,1.54,0,0,1,1.5-1.5h6.6a1.62,1.62,0,0,1,1.6,1.5,1.93,1.93,0,0,1-.3,1Zm14.1-44.8a1.61,1.61,0,0,1,.6,1.3v9.5a1.54,1.54,0,0,1-1.5,1.5h-6.6a1.54,1.54,0,0,1-1.5-1.5,1.61,1.61,0,0,1,.3-.9l6.6-9.5A1.48,1.48,0,0,1,253.7,156.7Zm-17.1-6a1.54,1.54,0,0,1,1.5-1.5h6.8a1.54,1.54,0,0,1,1.5,1.5,1.88,1.88,0,0,1-.2.8l-6.8,10.6a1.6,1.6,0,0,1-2.1.5,1.71,1.71,0,0,1-.7-1.3Zm0,79.5a1.54,1.54,0,0,1,1.5-1.5H245a1.54,1.54,0,0,1,1.5,1.5,1.61,1.61,0,0,1-.3.9l-6.9,10.1a1.48,1.48,0,0,1-2.1.4,1.52,1.52,0,0,1-.7-1.2Zm-1.3,163.6a1.31,1.31,0,0,1-.6-1.2V382.1a1.54,1.54,0,0,1,1.5-1.5h8.3a1.54,1.54,0,0,1,1.5,1.5,1.39,1.39,0,0,1-.3.9l-8.3,10.5A1.47,1.47,0,0,1,235.3,393.8Zm1.7,40.1a1.9,1.9,0,0,1-.5-1.3V421.2a1.54,1.54,0,0,1,1.5-1.5h10a1.54,1.54,0,0,1,1.5,1.5,1.28,1.28,0,0,1-.4,1l-10,11.5A1.38,1.38,0,0,1,237,433.9Zm3.5,38.9a2.1,2.1,0,0,1-.4-1.1V461.6a1.54,1.54,0,0,1,1.5-1.5h10.3a1.54,1.54,0,0,1,1.5,1.5,1.61,1.61,0,0,1-.5,1.1l-10.3,10.1A1.45,1.45,0,0,1,240.5,472.8Zm26.7,13.1H253.3a1.56,1.56,0,0,1-1.5-1.6,1.61,1.61,0,0,1,.5-1.1l13.9-13.3a1.45,1.45,0,0,1,2.1,0,1.5,1.5,0,0,1,.4,1.1v13.3A1.44,1.44,0,0,1,267.2,485.9Z"/></g></g></g></g></g></g></g></svg>