<svg xmlns="http://www.w3.org/2000/svg" viewBox="0 0 123.9 872.6"><defs><style>.cls-1{fill:#cdd1d3;}.cls-2{fill:#b5b5b5;}.cls-3{fill:#b0c7d6;}.cls-4{fill:#bfc0c1;}.cls-5{fill:#6ea3ba;}.cls-6{fill:#76aecc;}.cls-7{fill:#7fbbd6;}.cls-8{fill:#6fa0c1;}</style></defs><title>Element 7</title><g id="Ebene_2" data-name="Ebene 2"><g id="Ebene_1-2" data-name="Ebene 1"><g id="Ebene_2-2" data-name="Ebene 2"><g id="EbeneBoden"><g id="Sehenswürdigkeiten"><g id="Fernsehturm"><g id="Fernsehturm-2"><polygon class="cls-1" points="80.2 852.1 80.3 852.1 80.3 207.7 42 207.7 42 852.1 25.6 872.6 96.6 872.6 80.2 852.1"/><path class="cls-2" d="M83.9,358.9a3.59,3.59,0,0,1-3.6,3.6H42a3.6,3.6,0,1,1,0-7.2H80.3A3.72,3.72,0,0,1,83.9,358.9Z"/><path class="cls-2" d="M83.9,348a3.59,3.59,0,0,1-3.6,3.6H42a3.6,3.6,0,1,1,0-7.2H80.3A3.65,3.65,0,0,1,83.9,348Z"/><rect class="cls-2" x="60.2" width="3.6" height="105.7"/><path class="cls-3" d="M72.9,102v87.4a10.9,10.9,0,0,1-21.8-.1V101.9A10.9,10.9,0,0,1,63.8,91.1,11.13,11.13,0,0,1,72.9,102Z"/><path class="cls-4" d="M123.9,240.5c0,1.2,0,2.4-.1,3.6a66.81,66.81,0,0,1-2.6,14.6A61.78,61.78,0,0,1,62,302.4H60.2A62.84,62.84,0,0,1,42,299.1,62,62,0,0,1,2.8,258.7,59.64,59.64,0,0,1,.2,244.1c-.1-1.2-.1-2.4-.1-3.6a62,62,0,0,1,51-61,56.11,56.11,0,0,1,9.1-.9H62a61.82,61.82,0,0,1,61.9,61.9Z"/><path class="cls-5" d="M121.2,258.7a61.21,61.21,0,0,1-13.6,23.7H16.4A62.5,62.5,0,0,1,2.8,258.7Z"/><path class="cls-6" d="M123.9,240.5c0,1.2,0,2.4-.1,3.6H.1c-.1-1.2-.1-2.4-.1-3.6a61.32,61.32,0,0,1,9.4-32.8H114.5A60.46,60.46,0,0,1,123.9,240.5Z"/><path class="cls-7" d="M123.8,244.1a66.81,66.81,0,0,1-2.6,14.6H2.8A59.64,59.64,0,0,1,.2,244.1Z"/><path class="cls-8" d="M114.6,207.7H9.5a62,62,0,0,1,41.6-28.2,56.11,56.11,0,0,1,9.1-.9H62a62,62,0,0,1,52.6,29.1Z"/><path class="cls-8" d="M107.6,282.4a61.77,61.77,0,0,1-45.6,20H60.2a62,62,0,0,1-43.8-20Z"/></g></g></g></g></g></g></g></svg>