<svg xmlns="http://www.w3.org/2000/svg" viewBox="0 0 350.6 689.1"><defs><style>.cls-1{fill:#b78d6e;}.cls-2{fill:#b7845a;}.cls-3{fill:#a97a4e;}.cls-4{fill:#a67e5b;}.cls-5{fill:#e2c84b;}.cls-6{fill:#f2d55a;}.cls-7{fill:#e5ca45;}.cls-8{fill:#eace47;}.cls-9{fill:#7c5d46;}</style></defs><title>Element 11</title><g id="Ebene_2" data-name="Ebene 2"><g id="Ebene_1-2" data-name="Ebene 1"><g id="Ebene_2-2" data-name="Ebene 2"><g id="EbeneBoden"><g id="Sehenswürdigkeiten"><g id="Siegessäule"><g id="Statue"><rect class="cls-1" x="134.6" y="542.1" width="76.2" height="66"/><polygon class="cls-2" points="332.4 641.25 332.4 639.31 291.7 639.31 291.7 635.89 59 635.89 59 639.31 18.3 639.31 18.3 641.25 0 641.25 0 689.1 18.3 689.1 59 689.1 291.7 689.1 332.4 689.1 350.6 689.1 350.6 641.25 332.4 641.25"/><polygon class="cls-3" points="332.4 633.4 332.4 631.7 291.7 631.7 291.7 628.7 59 628.7 59 631.7 18.3 631.7 18.3 633.4 0 633.4 0 647.1 18.3 647.1 18.3 645.4 61.9 645.4 61.9 642.4 291.7 642.4 291.7 645.4 332.3 645.4 332.3 647.1 350.6 647.1 350.6 633.4 332.4 633.4"/><path class="cls-4" d="M245.1,608.1V539.4h20.1a4,4,0,0,0,4-4V522.7a4,4,0,0,0-4-4H213.3V499.1a4,4,0,0,0-4-4H191.9v-361c-20-20-39.2,0-39.2,0v361H136a4,4,0,0,0-4,4v19.6H80.2a4,4,0,0,0-4,4v12.7a4,4,0,0,0,4,4h20.1v68.7H78.5v20.7h193V608.1Zm-121.8,0H111.6V539.4h11.7Zm23,0H134.6V539.4h11.7Zm41.5,0H157.6V539.4h30.2Zm23,0H199.1V539.4h11.7Zm23,0H222.1V539.4h11.7Z"/><path class="cls-5" d="M179.2,48.5a6.54,6.54,0,0,1-3,5.6,6.67,6.67,0,0,1-3.9,1.2h0a3.4,3.4,0,0,1-1-.1,6.88,6.88,0,0,1-5.9-6.8,6.78,6.78,0,0,1,4.7-6.5,7.8,7.8,0,0,1,2.2-.4h0a5.7,5.7,0,0,1,2.2.4A7,7,0,0,1,179.2,48.5Z"/><path class="cls-6" d="M210.6,47.7v.2a1.79,1.79,0,0,1-1.8,1.8H192.4a1.76,1.76,0,0,1-1.5-.8,1.69,1.69,0,0,1-.3-1v-.2a1.79,1.79,0,0,1,1.8-1.8h16.3A2,2,0,0,1,210.6,47.7Z"/><path class="cls-7" d="M144.6,15.3a7.15,7.15,0,0,0,0,14.3h.9c.2,0,.4-.1.6-.1l.5-.1a6.89,6.89,0,0,0,.8-.3l.5-.3a2.19,2.19,0,0,0,.5-.3h0a8.13,8.13,0,0,0,1.9-1.8c.1-.1.2-.2.2-.3l.1-.1.3-.6c.1-.1.1-.3.2-.4s.1-.4.2-.5l.1-.2c.1-.4.2-.9.3-1.3v-.7a7.17,7.17,0,0,0-7.1-7.3Zm0-1.6a8.7,8.7,0,0,0,0,17.4h.1a7.92,7.92,0,0,0,4-1h0a8.61,8.61,0,0,0,3.5-11.7,8.74,8.74,0,0,0-7.6-4.7Z"/><path class="cls-7" d="M192.3,12a7.17,7.17,0,0,1-6.4,7.2c-.3,0-.6.1-.9.1a2.77,2.77,0,0,1-.9-.1A7.31,7.31,0,1,1,186,4.7a7.43,7.43,0,0,1,6.3,7.3Z"/><polygon class="cls-7" points="183.7 5.8 185.3 0 186.6 5.7 183.7 5.8"/><path class="cls-5" d="M172.3,40.2v2.5h0a18,18,0,0,1-2.2-.6c-1.1-.5-2.3-1.3-2-2.4.7-2.1,4.1.4,4.2.5Z"/><path class="cls-5" d="M174.5,42a7.94,7.94,0,0,1-2.2.6V40.1s3.5-2.6,4.1-.5C176.8,40.8,175.6,41.5,174.5,42Z"/><path class="cls-6" d="M151,46.7v.2a1.69,1.69,0,0,1-.3,1c-.1.2-.3.3-.5.5a1.69,1.69,0,0,1-1,.3H132.9a1.79,1.79,0,0,1-1.8-1.8v-.2a1.79,1.79,0,0,1,1.8-1.8h16.3a1.79,1.79,0,0,1,1.8,1.8Z"/><path class="cls-6" d="M152.7,49.8a1.8,1.8,0,0,1-.2,1,1.76,1.76,0,0,1-.9.8,1.27,1.27,0,0,1-.6.1l-8.8.8-9.2.8a1.81,1.81,0,0,1-2-1.6h0v-.2a1.81,1.81,0,0,1,1.6-2h0l9.1-.8,8.1-.7.7-.1h.1a1.81,1.81,0,0,1,2,1.6h0l.1.3Z"/><path class="cls-6" d="M153.5,53.4a1.8,1.8,0,0,1-.5.7,1.08,1.08,0,0,1-.7.3l-6.9,1.4L134.6,58a1.82,1.82,0,0,1-2.1-1.4v-.2a1.74,1.74,0,0,1,1.4-2.1h0l8.5-1.7,9-1.8h.2a1.86,1.86,0,0,1,2.2,1.4v.2A2.66,2.66,0,0,1,153.5,53.4Z"/><path class="cls-6" d="M155.6,55.4a1.9,1.9,0,0,1-.8,1.5.76.76,0,0,1-.5.2l-10.1,3L137,62.2a1.66,1.66,0,0,1-2.2-1.2h0v-.2a1.66,1.66,0,0,1,1.2-2.2h0l9.4-2.8,7.4-2.2.5-.1a.37.37,0,0,0,.3-.1,1.85,1.85,0,0,1,2,1.3l.1.2A.75.75,0,0,0,155.6,55.4Z"/><path class="cls-6" d="M156.9,59l-.2.1-11.3,4.6-5.2,2.1a1.88,1.88,0,0,1-2.4-1h0l-.1-.2a1.88,1.88,0,0,1,1-2.4h0l5.4-2.2,9.9-4.1,1.4-.6h.1a1.86,1.86,0,0,1,2.3,1l.1.1h0a2,2,0,0,1-1,2.6Z"/><path class="cls-6" d="M159.2,59.9l-.6.4-5,2.9-9.2,5.3a1.84,1.84,0,0,1-1.8-3.2l2.8-1.6,10.1-5.9,1.9-1.1c.2-.1.3-.2.5-.2h.4a1.9,1.9,0,0,1,1.5.8l.1.1A2,2,0,0,1,159.2,59.9Z"/><path class="cls-6" d="M161.8,60.2l-.4.4-2.6,2.5-9.3,9a1.87,1.87,0,0,1-2.6,0h0a1.87,1.87,0,0,1,0-2.6h0l6.5-6.4,3.7-3.6,2-2a2.19,2.19,0,0,1,.5-.3,1.85,1.85,0,0,1,2.1.3c.1.1.2.2.2.3A1.81,1.81,0,0,1,161.8,60.2Z"/><path class="cls-6" d="M164.6,60.4l-1.9,3.3-6.6,11.5a1.84,1.84,0,1,1-3.2-1.8l5.9-10.3,1.6-2.7,1-1.8a2.34,2.34,0,0,1,.7-.7,3.18,3.18,0,0,1,.9-.3,1.79,1.79,0,0,1,1.8,1.8,2.51,2.51,0,0,1-.2,1Z"/><path class="cls-6" d="M210.5,52.4v.2a2,2,0,0,1-2,1.7h0l-9.2-.8-8.8-.8a2,2,0,0,1-1.7-2h0v-.2a2,2,0,0,1,2-1.7h.1l8.9.8,9.1.8a1.81,1.81,0,0,1,1.6,2Z"/><path class="cls-6" d="M209.3,57.3v.2a1.74,1.74,0,0,1-2.1,1.4h0l-10.8-2.2-7-1.4a1.79,1.79,0,0,1-1.4-2.1V53a1.63,1.63,0,0,1,1.1-1.3,1.38,1.38,0,0,1,1.1-.1l9.2,1.9,8.5,1.7a1.72,1.72,0,0,1,1.4,2.1Z"/><path class="cls-6" d="M207,61.7l-.1.2a1.8,1.8,0,0,1-2.3,1.2L197.4,61l-10.1-3a1.83,1.83,0,0,1-1.3-1.7,1.27,1.27,0,0,1,.1-.6v-.2a1.85,1.85,0,0,1,2-1.3h.3l8,2.4,9.4,2.8a1.88,1.88,0,0,1,1.2,2.3Z"/><path class="cls-6" d="M203.9,65.6l-.1.2a1.84,1.84,0,0,1-2.4,1l-5.2-2.1-10.4-4.3-.2-.1-1-.4a3,3,0,0,1-.7-.5,1.68,1.68,0,0,1-.3-1.9h0l.1-.1a1.63,1.63,0,0,1,1.3-1.1,1.1,1.1,0,0,1,.8,0h.3l11.3,4.6,5.4,2.2A2.09,2.09,0,0,1,203.9,65.6Z"/><path class="cls-6" d="M199.7,68.7a1.7,1.7,0,0,1-1.6.9,2.92,2.92,0,0,1-.9-.2L188,64.1,186.1,63l-.2-.1-1.8-1-.1-.1-1.5-.9-.1-.1a1.88,1.88,0,0,1-.6-2.4l.1-.1a1.76,1.76,0,0,1,1.5-.8h.4c.1,0,.2.1.3.1l.2.1,1.2.7.4.3,10.4,6,2.8,1.6A1.73,1.73,0,0,1,199.7,68.7Z"/><path class="cls-6" d="M194.6,73a1.54,1.54,0,0,1-1.3.5A2.11,2.11,0,0,1,192,73l-5.6-5.4-.6-.6-.7-.7L184,65.2l-1.3-1.3-1.6-1.6L179.8,61a1.82,1.82,0,0,1-.3-2.2c.1-.1.1-.2.2-.3A1.3,1.3,0,0,1,181,58a1.88,1.88,0,0,1,.8.2c.2.1.3.2.5.3l1.7,1.7,1.8,1.8.1.1,2,2,6.6,6.4A1.74,1.74,0,0,1,194.6,73Z"/><path class="cls-6" d="M188,76.8a1.49,1.49,0,0,1-.9.2,1.7,1.7,0,0,1-1.6-.9l-4.2-7.3L177,61.3a1.82,1.82,0,0,1,.7-2.5,1.49,1.49,0,0,1,.9-.2,1.61,1.61,0,0,1,.9.3,1.7,1.7,0,0,1,.6.6l1.2,2.1,1.4,2.3,1.3,2.3,1.8,3.2,2.8,4.9A1.71,1.71,0,0,1,188,76.8Z"/><rect class="cls-7" x="184.1" y="18.6" width="1.8" height="54.2"/><path class="cls-5" d="M185.4,94.2c3.1,2.2,2.6-4.3,2.6-4.3s-4.8-12.3-6.4-21a17.81,17.81,0,0,1-.3-6.5,6.89,6.89,0,0,1,.3-.8,2,2,0,0,1,.9-.9,2,2,0,0,1,1.1-.1c.1,0,.3.4.5,1l.1.4c.3,1.1.7,2.6,1.1,4.3.1.3.1.6.2.9a.82.82,0,0,0,.5.5.66.66,0,0,0,.6-.1.73.73,0,0,0,.2-.6l-.6-4.1-.1-.9-.1-.6-.2-1.2-.3-1.9-.3-1.7c0-.1-.1-.3-.1-.4A2.16,2.16,0,0,0,184,55a2,2,0,0,0-1.5-.2,10.76,10.76,0,0,1-6.4-.7,17.94,17.94,0,0,1-3.9-2V51a4,4,0,0,1-.9.3h-.1a23.41,23.41,0,0,1-4.6.9c-3.8.3-8.5-.1-10.9-3.8-4.2-6.2-6.7-11.8-7.2-18.6,0-.5-.1-1.1-.1-1.6h-.1a3.77,3.77,0,0,0-3,1.1,2.67,2.67,0,0,0-.7,1.4,4.1,4.1,0,0,0-.1,1.1s1.7,6.2,4.2,12.8c.4,1,.9,2.1,1.3,3.1l.2.4a16,16,0,0,0,1,2.3c.1.3.3.6.4.9a12.46,12.46,0,0,0,1,2,2.19,2.19,0,0,0,.3.5c.4.7.8,1.4,1.2,2,.2.3.3.5.6.9a8.74,8.74,0,0,0,.8,1l1.2,1.2c.2.2.4.3.6.5a5.39,5.39,0,0,0,1.3.7,3,3,0,0,0,1.6.2h.3a1.8,1.8,0,0,1,1,.2c.8.4,1.1,1.5,1.2,3.1.3,7.6-6.9,25.9-6.9,25.9s-.6,6.5,2.6,4.3-11.6,25.3-11.6,25.3.8,10.7,24.5,7.6h0v.2l1,.1c23.7,3.1,24.5-7.6,24.5-7.6S182.3,92,185.4,94.2Z"/><rect class="cls-8" x="150.9" y="144.4" width="42.9" height="13"/><rect class="cls-8" x="150.9" y="320.7" width="42.9" height="13"/><rect class="cls-8" x="150.8" y="248.2" width="42.9" height="13"/><rect class="cls-8" x="150.9" y="387.1" width="42.9" height="13"/><rect class="cls-8" x="150.9" y="451.9" width="42.9" height="13"/><rect class="cls-9" x="78.5" y="624.6" width="193" height="4.2"/><rect class="cls-9" x="111.6" y="539.4" width="11.7" height="2.7"/><path class="cls-9" d="M76.2,533.4h24.1v8.7H79.4a3.16,3.16,0,0,1-3.2-3.2v-5.5Z"/><path class="cls-9" d="M266,542.1H245.1v-8.7h24.1v5.5A3.22,3.22,0,0,1,266,542.1Z"/><rect class="cls-9" x="134.6" y="539.4" width="11.7" height="2.7"/><rect class="cls-9" x="157.6" y="539.4" width="30.2" height="2.7"/><rect class="cls-9" x="78.5" y="624.1" width="193" height="4.7"/><rect class="cls-9" x="199.1" y="539.4" width="11.7" height="2.7"/><rect class="cls-9" x="222.1" y="539.4" width="11.7" height="2.7"/></g></g></g></g></g></g></g></svg>