<svg xmlns="http://www.w3.org/2000/svg" viewBox="0 0 350.67 689.04"><defs><style>.cls-1{fill:#b78d6e;}.cls-2{fill:#a67e5b;}.cls-3{fill:#b7845a;}.cls-4{fill:#a97a4e;}.cls-5{fill:#e2c84b;}.cls-6{fill:#f2d55a;}.cls-7{fill:#e5ca45;}.cls-8{fill:#eace47;}.cls-9{fill:#7c5d46;}</style></defs><title>Friedenssäule</title><g id="Ebene_2" data-name="Ebene 2"><g id="Siegessäule"><g id="Statue"><rect class="cls-1" x="134.61" y="542.04" width="76.2" height="66"/><rect class="cls-2" x="78.5" y="608.04" width="193" height="20.67"/><rect class="cls-3" y="647.04" width="18.33" height="42"/><rect class="cls-3" x="332.33" y="647.04" width="18.33" height="42"/><rect class="cls-3" x="18.33" y="645.37" width="40.67" height="43.67"/><rect class="cls-3" x="291.67" y="645.37" width="40.67" height="43.67"/><rect class="cls-3" x="59" y="642.37" width="232.67" height="46.67"/><rect class="cls-4" x="59" y="628.71" width="232.67" height="13.67"/><rect class="cls-4" x="18.33" y="631.71" width="40.67" height="13.67"/><rect class="cls-4" x="291.67" y="631.71" width="40.67" height="13.67"/><rect class="cls-4" y="633.37" width="18.33" height="13.67"/><rect class="cls-4" x="332.33" y="633.37" width="18.33" height="13.67"/><rect class="cls-2" x="76.17" y="518.71" width="193" height="20.67" rx="4" ry="4"/><rect class="cls-2" x="100.27" y="539.37" width="11.33" height="68.67"/><rect class="cls-2" x="123.27" y="539.37" width="11.33" height="68.67"/><rect class="cls-2" x="146.27" y="539.37" width="11.33" height="68.67"/><rect class="cls-2" x="187.81" y="539.37" width="11.33" height="68.67"/><rect class="cls-2" x="210.81" y="539.37" width="11.33" height="68.67"/><rect class="cls-2" x="233.81" y="539.37" width="11.33" height="68.67"/><path class="cls-2" d="M136,495h73.3a4,4,0,0,1,4,4v19.68a0,0,0,0,1,0,0H132a0,0,0,0,1,0,0V499A4,4,0,0,1,136,495Z"/><rect class="cls-2" x="152.73" y="134.04" width="39.22" height="361"/><path class="cls-2" d="M152.73,134s19.19-20,39.22,0Z"/><path class="cls-5" d="M179.2,48.5a6.86,6.86,0,0,1-3,5.65,6.75,6.75,0,0,1-3.91,1.23h0a6.14,6.14,0,0,1-1-.08,6.91,6.91,0,0,1-5.89-6.8A6.86,6.86,0,0,1,170.16,42a6.7,6.7,0,0,1,2.16-.35h0a6.7,6.7,0,0,1,2.16.35A6.87,6.87,0,0,1,179.2,48.5Z"/><path class="cls-6" d="M210.58,47.62v.18a1.82,1.82,0,0,1-1.81,1.82H192.45a1.81,1.81,0,0,1-1.49-.78,1.88,1.88,0,0,1-.32-1v-.18a1.82,1.82,0,0,1,1.81-1.81h16.32A1.82,1.82,0,0,1,210.58,47.62Z"/><path class="cls-7" d="M144.58,15.23a7.15,7.15,0,0,0,0,14.3,4.93,4.93,0,0,0,.67,0,.58.58,0,0,0,.19,0h0a4.08,4.08,0,0,0,.61-.1l.51-.13a6,6,0,0,0,.84-.29l.52-.25c.19-.1.36-.21.53-.32h0a7,7,0,0,0,1.89-1.8,1.94,1.94,0,0,0,.23-.33.24.24,0,0,0,.06-.11,3.5,3.5,0,0,0,.32-.56c.07-.14.14-.28.2-.42s.14-.35.2-.53l.06-.19a6.52,6.52,0,0,0,.26-1.33,5.84,5.84,0,0,0,0-.73A7.15,7.15,0,0,0,144.58,15.23Zm0-1.52a8.67,8.67,0,0,0,0,17.34h.11a8.58,8.58,0,0,0,4-1h0a8.67,8.67,0,0,0-4.09-16.31Z"/><path class="cls-7" d="M192.3,11.94a7.28,7.28,0,0,1-6.39,7.24,5.61,5.61,0,0,1-.92.07,6.84,6.84,0,0,1-.91-.06,7.31,7.31,0,1,1,8.22-7.25Z"/><polygon class="cls-7" points="183.68 5.75 185.32 0 186.64 5.63 183.68 5.75"/><path class="cls-5" d="M172.33,40.13v2.5h0a12,12,0,0,1-2.16-.65c-1.15-.48-2.28-1.25-2-2.35.62-2.08,4,.39,4.12.5Z"/><path class="cls-5" d="M174.49,42a11.82,11.82,0,0,1-2.16.65v-2.5s3.5-2.63,4.12-.5C176.78,40.73,175.65,41.5,174.49,42Z"/><path class="cls-6" d="M151,46.69v.18a1.77,1.77,0,0,1-.33,1,2.07,2.07,0,0,1-.5.48,1.82,1.82,0,0,1-1,.29H132.92a1.82,1.82,0,0,1-1.82-1.81v-.18a1.82,1.82,0,0,1,1.82-1.81h16.32A1.82,1.82,0,0,1,151,46.69Z"/><path class="cls-6" d="M152.76,49.72a1.82,1.82,0,0,1-.21,1,1.78,1.78,0,0,1-.88.81,1.73,1.73,0,0,1-.55.15l-8.84.78-9.16.8a1.82,1.82,0,0,1-2-1.65v-.18a1.81,1.81,0,0,1,1.65-2l9.11-.8L150,48l.68-.06h.06a1.82,1.82,0,0,1,2,1.64Z"/><path class="cls-6" d="M153.5,53.33A1.63,1.63,0,0,1,153,54a1.7,1.7,0,0,1-.73.34l-6.88,1.39-10.83,2.19a1.82,1.82,0,0,1-2.14-1.41l0-.18a1.8,1.8,0,0,1,1.42-2.13l8.5-1.72,9-1.82.24,0a1.71,1.71,0,0,1,1.07.13A1.79,1.79,0,0,1,153.62,52l0,.18A1.68,1.68,0,0,1,153.5,53.33Z"/><path class="cls-6" d="M155.61,55.36a1.85,1.85,0,0,1-.84,1.47,1.75,1.75,0,0,1-.46.21l-10.1,3L137,62.16a1.8,1.8,0,0,1-2.25-1.22l0-.17a1.8,1.8,0,0,1,1.22-2.25l9.45-2.8,7.35-2.18.52-.15a1.32,1.32,0,0,1,.27-.06,1.82,1.82,0,0,1,2,1.28l.05.17A1.67,1.67,0,0,1,155.61,55.36Z"/><path class="cls-6" d="M156.95,58.92l-.24.1L145.4,63.65l-5.17,2.12a1.81,1.81,0,0,1-2.36-1l-.07-.17a1.81,1.81,0,0,1,1-2.36L144.21,60l9.95-4.07,1.35-.56a.3.3,0,0,1,.1,0,1.81,1.81,0,0,1,2.26,1l.06.15v0A1.83,1.83,0,0,1,156.95,58.92Z"/><path class="cls-6" d="M159.22,59.86l-.62.36-5,2.86-9.18,5.3a1.81,1.81,0,0,1-1.81-3.14l2.75-1.59,10.13-5.85,1.88-1.08a1.63,1.63,0,0,1,.52-.19,1.2,1.2,0,0,1,.38,0,1.83,1.83,0,0,1,1.49.76l.09.14A1.83,1.83,0,0,1,159.22,59.86Z"/><path class="cls-6" d="M161.86,60.17l-.38.37L158.91,63l-9.29,9a1.81,1.81,0,0,1-2.56,0,1.81,1.81,0,0,1,0-2.56l6.54-6.35,3.67-3.56,2-2a1.46,1.46,0,0,1,.47-.32,1.7,1.7,0,0,1,.79-.19,1.85,1.85,0,0,1,1.31.55,1.41,1.41,0,0,1,.24.32A1.83,1.83,0,0,1,161.86,60.17Z"/><path class="cls-6" d="M164.62,60.39l-1.9,3.3L156.1,75.15A1.81,1.81,0,0,1,153,73.33L158.91,63l1.55-2.68,1-1.77a1.9,1.9,0,0,1,.66-.66,1.87,1.87,0,0,1,.92-.25,1.81,1.81,0,0,1,1.56,2.72Z"/><path class="cls-6" d="M210.55,52.38l0,.18a1.83,1.83,0,0,1-2,1.65l-9.17-.81-8.83-.78a1.83,1.83,0,0,1-1.65-2l0-.18a1.82,1.82,0,0,1,2-1.65H191l8.88.78,9.06.8A1.81,1.81,0,0,1,210.55,52.38Z"/><path class="cls-6" d="M209.33,57.26l0,.17a1.81,1.81,0,0,1-2.13,1.42l-10.74-2.17-7-1.41A1.84,1.84,0,0,1,188,53.13l0-.17a1.77,1.77,0,0,1,1.06-1.3,1.7,1.7,0,0,1,1.07-.12l9.2,1.86,8.51,1.72A1.82,1.82,0,0,1,209.33,57.26Z"/><path class="cls-6" d="M207,61.7l-.05.18a1.82,1.82,0,0,1-2.25,1.22L197.51,61l-10.14-3a1.82,1.82,0,0,1-1.29-1.67,1.65,1.65,0,0,1,.07-.58l0-.17a1.8,1.8,0,0,1,2-1.28,1.28,1.28,0,0,1,.27,0l8,2.36,9.36,2.77A1.82,1.82,0,0,1,207,61.7Z"/><path class="cls-6" d="M203.89,65.55l-.07.17a1.82,1.82,0,0,1-2.37,1l-5.18-2.12-10.36-4.25-.17-.07-1-.41a2,2,0,0,1-.66-.46,1.82,1.82,0,0,1-.33-1.9v0l.06-.14a1.83,1.83,0,0,1,1.31-1.09,1.71,1.71,0,0,1,.78,0,.48.48,0,0,1,.17.05.29.29,0,0,1,.1,0L197.51,61l5.39,2.21A1.83,1.83,0,0,1,203.89,65.55Z"/><path class="cls-6" d="M199.7,68.65a1.82,1.82,0,0,1-1.57.9,1.88,1.88,0,0,1-.91-.24L188,64l-1.91-1.11-.21-.12-1.83-1-.12-.07-1.5-.87-.11-.08a1.8,1.8,0,0,1-.55-2.39,1,1,0,0,1,.09-.13,1.8,1.8,0,0,1,1.49-.78,1.24,1.24,0,0,1,.38,0,1.91,1.91,0,0,1,.32.09l.2.1,1.19.69.44.25,10.36,6L199,66.17A1.82,1.82,0,0,1,199.7,68.65Z"/><path class="cls-6" d="M194.63,72.93a1.85,1.85,0,0,1-1.31.55,1.81,1.81,0,0,1-1.26-.51l-5.55-5.39-.6-.58-.7-.67-1.13-1.11-1.32-1.28-1.63-1.57-1.3-1.27a1.81,1.81,0,0,1-.28-2.24,1.41,1.41,0,0,1,.24-.32,1.77,1.77,0,0,1,1.3-.55,1.64,1.64,0,0,1,.8.2,1.55,1.55,0,0,1,.46.31l1.73,1.68,1.83,1.77L186,62l2,2,6.56,6.35A1.84,1.84,0,0,1,194.63,72.93Z"/><path class="cls-6" d="M188.06,76.75a1.81,1.81,0,0,1-.9.24,1.83,1.83,0,0,1-1.58-.91l-4.19-7.25-4.33-7.5a1.81,1.81,0,0,1,1.57-2.72,1.87,1.87,0,0,1,.92.25,1.76,1.76,0,0,1,.65.65l1.21,2.09,1.35,2.34,1.32,2.29,1.83,3.17,2.81,4.87A1.82,1.82,0,0,1,188.06,76.75Z"/><path class="cls-5" d="M196.83,119.38s-.82,10.68-24.5,7.62h0l-1-.14s0,0,0-.13c.25-2.6.06-56.51,0-71.43,0-2.14,0-3.47,0-3.75V51.5a.12.12,0,0,1,0,0h0c.12.09.45.32.93.63h0a22.2,22.2,0,0,0,3.91,2,11,11,0,0,0,6.36.73,2.08,2.08,0,0,1,1.48.17,2,2,0,0,1,1.05,1.18,2.34,2.34,0,0,1,.09.38l.25,1.73.27,1.92.17,1.17.09.6.12.87.59,4.11a.62.62,0,0,1-.2.57.69.69,0,0,1-.6.15.62.62,0,0,1-.47-.48c-.08-.31-.15-.62-.23-.92-.41-1.68-.8-3.23-1.13-4.29l-.12-.38c-.2-.63-.38-1-.5-1a2.11,2.11,0,0,0-1.11.08,1.8,1.8,0,0,0-.94.89,3.85,3.85,0,0,0-.28.77,17.19,17.19,0,0,0,.26,6.46c1.57,8.66,6.44,21,6.44,21s.5,6.5-2.63,4.25S196.83,119.38,196.83,119.38Z"/><rect class="cls-7" x="184.08" y="18.54" width="1.83" height="54.17"/><path class="cls-5" d="M172.32,126.58a0,0,0,0,0,0,0h0l-1,.13c-23.71,3.08-24.52-7.6-24.52-7.6s14.75-27.5,11.62-25.25-2.62-4.25-2.62-4.25,7.18-18.26,6.89-25.94c-.06-1.58-.43-2.71-1.24-3.15a1.83,1.83,0,0,0-1-.19,1.24,1.24,0,0,0-.27,0,3.11,3.11,0,0,1-1.59-.16,5.13,5.13,0,0,1-1.29-.7,6.62,6.62,0,0,1-.6-.5,10.58,10.58,0,0,1-1.18-1.22c-.26-.3-.51-.63-.76-1s-.41-.57-.61-.88c-.41-.61-.81-1.27-1.19-2-.09-.15-.18-.3-.26-.45-.35-.64-.7-1.31-1-2-.14-.29-.29-.59-.43-.89-.35-.74-.69-1.49-1-2.26L150,48c-.44-1-.85-2.06-1.25-3.09-2.54-6.58-4.21-12.75-4.21-12.75a4.16,4.16,0,0,1,.11-1.08,3.39,3.39,0,0,1,.76-1.58,3.48,3.48,0,0,1,3-1.09.4.4,0,0,1,.11,0c0,.55.05,1.1.09,1.64.54,6.75,3,12.36,7.16,18.61,2.44,3.67,7.1,4.12,10.85,3.77a27.73,27.73,0,0,0,4.65-.85h.06c.53-.15.87-.27.93-.29h0s0,.32,0,.92v.57c0,.68,0,1.57,0,2.64C172.25,71,172,125.68,172.32,126.58Z"/><rect class="cls-8" x="150.87" y="144.37" width="42.95" height="13"/><rect class="cls-8" x="150.87" y="320.71" width="42.95" height="13"/><rect class="cls-8" x="150.85" y="248.21" width="42.95" height="13"/><rect class="cls-8" x="150.87" y="387.04" width="42.95" height="13"/><rect class="cls-8" x="150.87" y="451.87" width="42.95" height="13"/><rect class="cls-9" x="78.5" y="624.54" width="193" height="4.17"/><rect class="cls-9" x="111.61" y="539.37" width="11.67" height="2.67"/><path class="cls-9" d="M76.17,533.35h24.11a0,0,0,0,1,0,0V542a0,0,0,0,1,0,0H79.36a3.2,3.2,0,0,1-3.2-3.2v-5.49A0,0,0,0,1,76.17,533.35Z"/><path class="cls-9" d="M248.26,533.35h20.91a0,0,0,0,1,0,0V542a0,0,0,0,1,0,0H245.06a0,0,0,0,1,0,0v-5.49A3.2,3.2,0,0,1,248.26,533.35Z" transform="translate(514.23 1075.39) rotate(-180)"/><rect class="cls-9" x="134.61" y="539.37" width="11.67" height="2.67"/><rect class="cls-9" x="157.64" y="539.37" width="30.17" height="2.67"/><rect class="cls-9" x="78.5" y="624.04" width="193" height="4.67"/><rect class="cls-9" x="199.14" y="539.37" width="11.67" height="2.67"/><rect class="cls-9" x="222.14" y="539.37" width="11.67" height="2.67"/></g></g></g></svg>