<svg xmlns="http://www.w3.org/2000/svg" viewBox="0 0 1066 515"><defs><style>.cls-1{fill:#8e6032;}.cls-2{fill:#59361d;}.cls-3{fill:#caa369;}.cls-4{fill:#855832;}.cls-5{fill:#b38550;}</style></defs><title>Element 2</title><g id="Ebene_2" data-name="Ebene 2"><g id="Ebene_1-2" data-name="Ebene 1"><g id="Ebene_2-2" data-name="Ebene 2"><g id="EbeneBoden"><g id="Sehenswürdigkeiten"><g id="Kolosseum"><path class="cls-1" d="M1043.9,114.7H768.5a6.06,6.06,0,0,0-6.1,6.1v10.1a6.06,6.06,0,0,0,6.1,6.1h1.9v4.3a13.49,13.49,0,0,0,8.3,12.5v37a13.49,13.49,0,0,0-8.3,12.5v4.8H716.9v15a13.65,13.65,0,0,0-8.4-9.1V106h-6l-4.3,54.4v54a13.42,13.42,0,0,0-7.8,12.2v.9h-9V263H610.9V202.5l-35.5,25V263H456.7V491h580.7V201.7a13.48,13.48,0,0,0-8.4-12.5V155.4a13.48,13.48,0,0,0,8.4-12.5V137h6.5a6.06,6.06,0,0,0,6.1-6.1V120.8A6.06,6.06,0,0,0,1043.9,114.7Zm-185,75.4a13.42,13.42,0,0,0-8.5,12.5V208h-53v-4.8a13.48,13.48,0,0,0-8.4-12.5V153.8a13.48,13.48,0,0,0,8.4-12.5V137h53v5a13.32,13.32,0,0,0,8.5,12.5Zm79.8-.3a13.49,13.49,0,0,0-8.3,12.5V208h-53v-5.4a13.42,13.42,0,0,0-8.2-12.4V154.4a13.42,13.42,0,0,0,8.2-12.4v-5h53v5.2a13.49,13.49,0,0,0,8.3,12.5Zm80-.6a13.39,13.39,0,0,0-8.3,12.5V208h-53v-5.7a13.48,13.48,0,0,0-8.4-12.5V154.7a13.48,13.48,0,0,0,8.4-12.5V137h53v5.9a13.49,13.49,0,0,0,8.3,12.5Z"/><path class="cls-2" d="M495,284.3h0a21,21,0,0,1,21,21v44H474v-44A21,21,0,0,1,495,284.3Z"/><path class="cls-2" d="M556,411h0a21,21,0,0,1,21,21v44H535V432A21,21,0,0,1,556,411Z"/><path class="cls-3" d="M366.7,17l-1.6-4.7H56.7L57,388.7V491H12a12,12,0,0,0,0,24H1054a12,12,0,0,0,0-24H565"/><path class="cls-4" d="M105,411h0a21,21,0,0,1,21,21v44H84V432A21,21,0,0,1,105,411Z"/><path class="cls-4" d="M172,411h0a21,21,0,0,1,21,21v44H151V432A21,21,0,0,1,172,411Z"/><path class="cls-4" d="M237,411h0a21,21,0,0,1,21,21v44H216V432A21,21,0,0,1,237,411Z"/><path class="cls-4" d="M304,411h0a21,21,0,0,1,21,21v44H283V432A21,21,0,0,1,304,411Z"/><path class="cls-4" d="M367,411h0a21,21,0,0,1,21,21v44H346V432A21,21,0,0,1,367,411Z"/><path class="cls-4" d="M434,411h0a21,21,0,0,1,21,21v44H413V432A21,21,0,0,1,434,411Z"/><path class="cls-4" d="M493,411h0a21,21,0,0,1,21,21v44H472V432A21,21,0,0,1,493,411Z"/><path class="cls-5" d="M56.2,371.7h460a8.49,8.49,0,0,1,8.5,8.5h0a8.49,8.49,0,0,1-8.5,8.5H56.2a8.49,8.49,0,0,1-8.5-8.5h0A8.49,8.49,0,0,1,56.2,371.7Z"/><path class="cls-4" d="M105,286h0a21,21,0,0,1,21,21h0v44H84V307a21,21,0,0,1,21-21Z"/><path class="cls-4" d="M172,286h0a21,21,0,0,1,21,21h0v44H151V307a21,21,0,0,1,21-21Z"/><path class="cls-4" d="M237,286h0a21,21,0,0,1,21,21h0v44H216V307a21,21,0,0,1,21-21Z"/><path class="cls-4" d="M304,286h0a21,21,0,0,1,21,21h0v44H283V307a21,21,0,0,1,21-21Z"/><path class="cls-4" d="M367,286h0a21,21,0,0,1,21,21h0v44H346V307a21,21,0,0,1,21-21Z"/><path class="cls-4" d="M434,286h0a21,21,0,0,1,21,21h0v44H413V307a21,21,0,0,1,21-21Z"/><path class="cls-5" d="M54.5,246H460.2a8.49,8.49,0,0,1,8.5,8.5h0a8.49,8.49,0,0,1-8.5,8.5H54.5a8.49,8.49,0,0,1-8.5-8.5h0A8.49,8.49,0,0,1,54.5,246Z"/><path class="cls-4" d="M105,155.7h0a21,21,0,0,1,21,21v44H84v-44A21,21,0,0,1,105,155.7Z"/><path class="cls-4" d="M172,155.7h0a21,21,0,0,1,21,21v44H151v-44A21,21,0,0,1,172,155.7Z"/><path class="cls-4" d="M237,155.7h0a21,21,0,0,1,21,21v44H216v-44A21,21,0,0,1,237,155.7Z"/><path class="cls-4" d="M304,155.7h0a21,21,0,0,1,21,21v44H283v-44A21,21,0,0,1,304,155.7Z"/><path class="cls-4" d="M367,155.7h0a21,21,0,0,1,21,21v44H346v-44A21,21,0,0,1,367,155.7Z"/><path class="cls-5" d="M55.2,120H412.5a8.49,8.49,0,0,1,8.5,8.5h0a8.49,8.49,0,0,1-8.5,8.5H55.2a8.49,8.49,0,0,1-8.5-8.5h0A8.49,8.49,0,0,1,55.2,120Z"/><path class="cls-5" d="M55.2,0h316a8.49,8.49,0,0,1,8.5,8.5h0a8.49,8.49,0,0,1-8.5,8.5H55.2a8.49,8.49,0,0,1-8.5-8.5h0A8.49,8.49,0,0,1,55.2,0Z"/><path class="cls-2" d="M611,411h0a21,21,0,0,1,21,21v44H590V432A21,21,0,0,1,611,411Z"/><path class="cls-2" d="M678,411h0a21,21,0,0,1,21,21v44H657V432A21,21,0,0,1,678,411Z"/><path class="cls-2" d="M743,411h0a21,21,0,0,1,21,21v44H722V432A21,21,0,0,1,743,411Z"/><path class="cls-2" d="M810,411h0a21,21,0,0,1,21,21v44H789V432A21,21,0,0,1,810,411Z"/><path class="cls-2" d="M873,411h0a21,21,0,0,1,21,21v44H852V432A21,21,0,0,1,873,411Z"/><path class="cls-2" d="M940,411h0a21,21,0,0,1,21,21v44H919V432A21,21,0,0,1,940,411Z"/><path class="cls-2" d="M999,411h0a21,21,0,0,1,21,21v44H978V432A21,21,0,0,1,999,411Z"/><path class="cls-2" d="M556,286h0a21,21,0,0,1,21,21h0v44H535V307a21,21,0,0,1,21-21Z"/><path class="cls-2" d="M611,286h0a21,21,0,0,1,21,21h0v44H590V307a21,21,0,0,1,21-21Z"/><path class="cls-2" d="M678,286h0a21,21,0,0,1,21,21h0v44H657V307a21,21,0,0,1,21-21Z"/><path class="cls-2" d="M743,286h0a21,21,0,0,1,21,21h0v44H722V307a21,21,0,0,1,21-21Z"/><path class="cls-2" d="M810,286h0a21,21,0,0,1,21,21h0v44H789V307a21,21,0,0,1,21-21Z"/><path class="cls-2" d="M873,286h0a21,21,0,0,1,21,21h0v44H852V307a21,21,0,0,1,21-21Z"/><path class="cls-2" d="M940,286h0a21,21,0,0,1,21,21h0v44H919V307a21,21,0,0,1,21-21Z"/><path class="cls-2" d="M999,286h0a21,21,0,0,1,21,21h0v44H978V307a21,21,0,0,1,21-21Z"/></g></g></g></g></g></g></svg>