<svg xmlns="http://www.w3.org/2000/svg" viewBox="0 0 1871.4 635.2"><defs><style>.cls-1{fill:#b2b2b2;}.cls-2{fill:#a5a1a0;}.cls-15,.cls-26,.cls-27,.cls-3{fill:#a4ddea;}.cls-4{fill:#adacac;}.cls-18,.cls-19,.cls-20,.cls-21,.cls-22,.cls-23,.cls-25,.cls-5,.cls-7{fill:none;}.cls-25,.cls-5{stroke:#b5b5b5;}.cls-15,.cls-18,.cls-19,.cls-20,.cls-21,.cls-22,.cls-23,.cls-25,.cls-26,.cls-27,.cls-5,.cls-7{stroke-miterlimit:10;}.cls-5{stroke-width:2px;}.cls-6{fill:#c4c2c2;}.cls-7{stroke:#666;stroke-width:0.51px;}.cls-8{fill:#777571;}.cls-9{fill:#dddbdb;}.cls-10{fill:#e8df38;}.cls-11{fill:#191919;}.cls-12{fill:#e23333;}.cls-13{fill:#bab6b5;}.cls-14{fill:#666461;}.cls-15,.cls-26,.cls-27{stroke:#f4f4f4;}.cls-15{stroke-width:0.25px;}.cls-16{fill:#7a7a7a;}.cls-17{fill:#add8db;}.cls-18,.cls-19,.cls-20,.cls-21,.cls-22,.cls-23{stroke:#515151;}.cls-19{stroke-width:0.75px;}.cls-20{stroke-width:1.04px;}.cls-21{stroke-width:0.91px;}.cls-22{stroke-width:0.94px;}.cls-23{stroke-width:0.88px;}.cls-24{fill:#afa6a1;}.cls-25{stroke-width:3px;}.cls-26{stroke-width:0.23px;}.cls-27{stroke-width:0.21px;}</style></defs><title>Element 6</title><g id="Ebene_2" data-name="Ebene 2"><g id="Ebene_1-2" data-name="Ebene 1"><g id="Ebene_2-2" data-name="Ebene 2"><g id="EbeneBoden"><g id="Sehenswürdigkeiten"><g id="Reichstag"><path class="cls-1" d="M1669.6,246.2v-5.3h188.8V169.7H1626.5v50.5h-418V133.8H935.8v-.1H663v86.4H245V169.6H13.1v71.2H64.9v.7h89.8v-.7h47.2v5.3H13.1V525.6H201.9v12.5H657.1V523.6h557.3v14.6h455.2V525.7h188.8V246.2Zm-733.8.1H657.1v-4.4h6v-6.6H935.7v.1h272.8V242h5.9v4.3H935.8Z"/><polygon class="cls-2" points="935.7 124.4 687.5 221 703.1 221 935.7 221 935.8 221 1168.4 221 1184 221 935.7 124.4"/><path class="cls-3" d="M1120.2,127.2c-.9-69.4-82.9-125.4-184.4-126.1V1c-101.5.7-183.6,56.8-184.5,126.1H935.7v.1Z"/><path class="cls-3" d="M1037.4,287.3H834.1a11.91,11.91,0,0,0-12,12V500.2a12,12,0,0,0,12,12h203.3a12,12,0,0,0,12-12V299.3A12,12,0,0,0,1037.4,287.3Z"/><path class="cls-2" d="M935.8,229.4h0l-239.5-.1v68.1a7.38,7.38,0,0,0,7.4,7.4h24.5a7.38,7.38,0,0,0,7.4-7.4V276.6h46.2v20.8a7.38,7.38,0,0,0,7.4,7.4h24.5a7.38,7.38,0,0,0,7.4-7.4V276.6h45.3v20.8a7.38,7.38,0,0,0,7.4,7.4h24.5a7.38,7.38,0,0,0,7.4-7.4V276.6h30v.1h30.1v20.8a7.38,7.38,0,0,0,7.4,7.4h24.5a7.49,7.49,0,0,0,7.4-7.3V276.7h45.3v20.8a7.38,7.38,0,0,0,7.4,7.4h24.5a7.49,7.49,0,0,0,7.4-7.3V276.7h46.2v20.8a7.38,7.38,0,0,0,7.4,7.4h24.5a7.49,7.49,0,0,0,7.4-7.3V229.4Z"/><path class="cls-1" d="M711.8,40.4h-2.9v-19a7.5,7.5,0,1,0-15,0v19h-3a12,12,0,0,0-12,12V78.7h44.9V52.4A12,12,0,0,0,711.8,40.4Z"/><rect class="cls-4" x="673" y="71.6" width="56.8" height="56.8"/><path class="cls-5" d="M780.7,127.1S785.2,8.4,935.8,1C755.2,9.1,751.3,127.1,751.3,127.1"/><path class="cls-5" d="M934.4,2.6C828.6,2.3,811.2,128.4,811.2,128.4"/><path class="cls-5" d="M935.8,1c-66.3,9.4-83.4,126.1-83.4,126.1"/><path class="cls-5" d="M902.1,127.1s4.6-102,33.7-124.5"/><rect class="cls-6" x="701.5" y="529.2" width="234.3" height="105.5"/><line class="cls-7" x1="701.5" y1="538.1" x2="935.8" y2="538.1"/><line class="cls-7" x1="701.5" y1="550.4" x2="935.8" y2="550.4"/><line class="cls-7" x1="701.5" y1="564" x2="935.8" y2="564"/><line class="cls-7" x1="701.5" y1="575.9" x2="935.8" y2="575.9"/><line class="cls-7" x1="701.5" y1="588.2" x2="935.8" y2="588.2"/><line class="cls-7" x1="701.5" y1="601.8" x2="935.8" y2="601.8"/><line class="cls-7" x1="701.5" y1="615.4" x2="935.8" y2="615.4"/><line class="cls-7" x1="701.5" y1="627.7" x2="935.8" y2="627.7"/><rect class="cls-8" x="655.5" y="523.2" width="280.3" height="6"/><rect class="cls-1" x="25.6" y="68" width="213.6" height="95.7"/><rect class="cls-6" x="54.3" y="79.9" width="7.9" height="68.9"/><rect class="cls-6" x="104.4" y="79.9" width="7.9" height="68.9"/><rect class="cls-6" x="150.1" y="83.9" width="7.9" height="68.9"/><rect class="cls-6" x="195.8" y="86.7" width="7.9" height="68.9"/><rect class="cls-6" x="19.5" y="248.3" width="35.2" height="39.3"/><rect class="cls-6" x="164.2" y="247.3" width="35.2" height="39.3"/><rect class="cls-6" x="315.1" y="249.1" width="35.2" height="45.6"/><rect class="cls-6" x="396.7" y="248.9" width="35.2" height="45.6"/><rect class="cls-6" x="481.3" y="249.3" width="35.2" height="45.6"/><rect class="cls-6" x="565.6" y="249.3" width="35.2" height="45.6"/><polygon class="cls-8" points="685.8 229.3 679.7 219.5 935.8 114.8 935.8 125.6 685.8 229.3"/><path class="cls-8" d="M729.8,205.3h0a4.06,4.06,0,0,1,4.1,4.1v6.7a4.06,4.06,0,0,1-4.1,4.1h0a4.06,4.06,0,0,1-4.1-4.1v-6.7A4.06,4.06,0,0,1,729.8,205.3Z"/><path class="cls-8" d="M700.4,225.1h0a4.06,4.06,0,0,1,4.1,4.1v6.7a4.06,4.06,0,0,1-4.1,4.1h0a4.06,4.06,0,0,1-4.1-4.1v-6.7A4.12,4.12,0,0,1,700.4,225.1Z"/><path class="cls-8" d="M713.9,225.1h0a4.06,4.06,0,0,1,4.1,4.1v6.7a4.06,4.06,0,0,1-4.1,4.1h0a4.06,4.06,0,0,1-4.1-4.1v-6.7A4.12,4.12,0,0,1,713.9,225.1Z"/><path class="cls-8" d="M729.1,225.1h0a4.06,4.06,0,0,1,4.1,4.1v6.7a4.06,4.06,0,0,1-4.1,4.1h0a4.06,4.06,0,0,1-4.1-4.1v-6.7A4.26,4.26,0,0,1,729.1,225.1Z"/><path class="cls-8" d="M743.8,225.1h0a4.06,4.06,0,0,1,4.1,4.1v6.7a4.06,4.06,0,0,1-4.1,4.1h0a4.06,4.06,0,0,1-4.1-4.1v-6.7A4.12,4.12,0,0,1,743.8,225.1Z"/><path class="cls-8" d="M759.1,225.1h0a4.06,4.06,0,0,1,4.1,4.1v6.7a4.06,4.06,0,0,1-4.1,4.1h0a4.06,4.06,0,0,1-4.1-4.1v-6.7A4.26,4.26,0,0,1,759.1,225.1Z"/><path class="cls-8" d="M773.3,225.1h0a4.06,4.06,0,0,1,4.1,4.1v6.7a4.06,4.06,0,0,1-4.1,4.1h0a4.06,4.06,0,0,1-4.1-4.1v-6.7A4.12,4.12,0,0,1,773.3,225.1Z"/><path class="cls-8" d="M787.9,225.1h0a4.06,4.06,0,0,1,4.1,4.1v6.7a4.06,4.06,0,0,1-4.1,4.1h0a4.06,4.06,0,0,1-4.1-4.1v-6.7A4.12,4.12,0,0,1,787.9,225.1Z"/><path class="cls-8" d="M817,225.1h0a4.06,4.06,0,0,1,4.1,4.1v6.7A4.06,4.06,0,0,1,817,240h0a4.06,4.06,0,0,1-4.1-4.1v-6.7A4.19,4.19,0,0,1,817,225.1Z"/><path class="cls-8" d="M846.4,225.6h0a4.06,4.06,0,0,1,4.1,4.1v6.7a4.06,4.06,0,0,1-4.1,4.1h0a4.06,4.06,0,0,1-4.1-4.1v-6.7A4.26,4.26,0,0,1,846.4,225.6Z"/><path class="cls-8" d="M860.9,225.6h0a4.06,4.06,0,0,1,4.1,4.1v6.7a4.06,4.06,0,0,1-4.1,4.1h0a4.06,4.06,0,0,1-4.1-4.1v-6.7A4.26,4.26,0,0,1,860.9,225.6Z"/><path class="cls-8" d="M876.4,225.6h0a4.06,4.06,0,0,1,4.1,4.1v6.7a4.06,4.06,0,0,1-4.1,4.1h0a4.06,4.06,0,0,1-4.1-4.1v-6.7A4.26,4.26,0,0,1,876.4,225.6Z"/><path class="cls-8" d="M891.4,225.6h0a4.06,4.06,0,0,1,4.1,4.1v6.7a4.06,4.06,0,0,1-4.1,4.1h0a4.06,4.06,0,0,1-4.1-4.1v-6.7A4.26,4.26,0,0,1,891.4,225.6Z"/><path class="cls-8" d="M905.7,225.6h0a4.06,4.06,0,0,1,4.1,4.1v6.7a4.06,4.06,0,0,1-4.1,4.1h0a4.06,4.06,0,0,1-4.1-4.1v-6.7A4.12,4.12,0,0,1,905.7,225.6Z"/><path class="cls-8" d="M935.8,225.6v14.8a4.06,4.06,0,0,1-4.1-4.1v-6.7A4.1,4.1,0,0,1,935.8,225.6Z"/><path class="cls-8" d="M920.7,225.6h0a4.06,4.06,0,0,1,4.1,4.1v6.7a4.06,4.06,0,0,1-4.1,4.1h0a4.06,4.06,0,0,1-4.1-4.1v-6.7A4.26,4.26,0,0,1,920.7,225.6Z"/><path class="cls-8" d="M831.7,225.6h0a4.06,4.06,0,0,1,4.1,4.1v6.7a4.06,4.06,0,0,1-4.1,4.1h0a4.06,4.06,0,0,1-4.1-4.1v-6.7A4.19,4.19,0,0,1,831.7,225.6Z"/><path class="cls-8" d="M802.5,225.1h0a4.06,4.06,0,0,1,4.1,4.1v6.7a4.06,4.06,0,0,1-4.1,4.1h0a4.06,4.06,0,0,1-4.1-4.1v-6.7A4.12,4.12,0,0,1,802.5,225.1Z"/><path class="cls-8" d="M742.9,199.6h0a4.06,4.06,0,0,1,4.1,4.1v6.7a4.06,4.06,0,0,1-4.1,4.1h0a4.06,4.06,0,0,1-4.1-4.1v-6.7A4.26,4.26,0,0,1,742.9,199.6Z"/><path class="cls-8" d="M757.8,194h0a4.06,4.06,0,0,1,4.1,4.1v6.7a4.06,4.06,0,0,1-4.1,4.1h0a4.06,4.06,0,0,1-4.1-4.1v-6.7A4.06,4.06,0,0,1,757.8,194Z"/><path class="cls-8" d="M771.4,187.6h0a4.06,4.06,0,0,1,4.1,4.1v6.7a4.06,4.06,0,0,1-4.1,4.1h0a4.06,4.06,0,0,1-4.1-4.1v-6.7A4.26,4.26,0,0,1,771.4,187.6Z"/><path class="cls-8" d="M787.1,181h0a4.06,4.06,0,0,1,4.1,4.1v6.7a4.06,4.06,0,0,1-4.1,4.1h0a4.06,4.06,0,0,1-4.1-4.1v-6.7A4.06,4.06,0,0,1,787.1,181Z"/><path class="cls-8" d="M801.9,174.8h0a4.06,4.06,0,0,1,4.1,4.1v6.7a4.06,4.06,0,0,1-4.1,4.1h0a4.06,4.06,0,0,1-4.1-4.1v-6.7A4.18,4.18,0,0,1,801.9,174.8Z"/><path class="cls-8" d="M815.8,169h0a4.06,4.06,0,0,1,4.1,4.1v6.7a4.06,4.06,0,0,1-4.1,4.1h0a4.06,4.06,0,0,1-4.1-4.1v-6.7A4.06,4.06,0,0,1,815.8,169Z"/><path class="cls-8" d="M830.9,164.3h0a4.06,4.06,0,0,1,4.1,4.1v6.7a4.06,4.06,0,0,1-4.1,4.1h0a4.06,4.06,0,0,1-4.1-4.1v-6.7A4.18,4.18,0,0,1,830.9,164.3Z"/><path class="cls-8" d="M846.4,157.8h0a4.06,4.06,0,0,1,4.1,4.1v6.7a4.06,4.06,0,0,1-4.1,4.1h0a4.06,4.06,0,0,1-4.1-4.1v-6.7A4.18,4.18,0,0,1,846.4,157.8Z"/><path class="cls-8" d="M860.9,151.1h0a4.06,4.06,0,0,1,4.1,4.1v6.7a4.06,4.06,0,0,1-4.1,4.1h0a4.06,4.06,0,0,1-4.1-4.1v-6.7A4.26,4.26,0,0,1,860.9,151.1Z"/><path class="cls-8" d="M875.4,143.7h0a4.06,4.06,0,0,1,4.1,4.1v6.7a4.06,4.06,0,0,1-4.1,4.1h0a4.06,4.06,0,0,1-4.1-4.1v-6.7A4.26,4.26,0,0,1,875.4,143.7Z"/><path class="cls-8" d="M890.1,137.2h0a4.06,4.06,0,0,1,4.1,4.1V148a4.06,4.06,0,0,1-4.1,4.1h0A4.06,4.06,0,0,1,886,148v-6.7A4.19,4.19,0,0,1,890.1,137.2Z"/><path class="cls-8" d="M904.3,130.6h0a4.06,4.06,0,0,1,4.1,4.1v6.7a4.06,4.06,0,0,1-4.1,4.1h0a4.06,4.06,0,0,1-4.1-4.1v-6.7A4.06,4.06,0,0,1,904.3,130.6Z"/><path class="cls-8" d="M919.8,124.4h0a4.06,4.06,0,0,1,4.1,4.1v6.7a4.06,4.06,0,0,1-4.1,4.1h0a4.06,4.06,0,0,1-4.1-4.1v-6.7A4.06,4.06,0,0,1,919.8,124.4Z"/><path class="cls-8" d="M935.8,118.9v14.8a4.17,4.17,0,0,1-4-4.1v-6.7A4,4,0,0,1,935.8,118.9Z"/><rect class="cls-8" x="685.8" y="221" width="250" height="8.3"/><rect class="cls-6" x="703.7" y="304.9" width="24.5" height="188.5"/><rect class="cls-6" x="789.2" y="304.9" width="24.5" height="188.7"/><rect class="cls-6" x="874.1" y="304.9" width="24.5" height="188.7"/><rect class="cls-8" x="659.4" y="127.1" width="246.3" height="6.6"/><rect class="cls-8" x="640.7" y="235.3" width="55.6" height="11"/><rect class="cls-8" x="209.4" y="240.8" width="431.3" height="10.7"/><path class="cls-2" d="M565.6,294.6h35.2v17.9a7.38,7.38,0,0,1-7.4,7.4H573a7.38,7.38,0,0,1-7.4-7.4V294.6Z"/><path class="cls-2" d="M481.3,294.6h35.2v17.9a7.38,7.38,0,0,1-7.4,7.4H488.7a7.38,7.38,0,0,1-7.4-7.4V294.6Z"/><path class="cls-2" d="M397.5,294.6h35.1v17.9a7.38,7.38,0,0,1-7.4,7.4H404.8a7.38,7.38,0,0,1-7.4-7.4l.1-17.9Z"/><path class="cls-2" d="M315.1,294.6h35.2v17.9a7.38,7.38,0,0,1-7.4,7.4H322.5a7.38,7.38,0,0,1-7.4-7.4V294.6Z"/><path class="cls-2" d="M351.8,537.9H313.7V515.8a7.38,7.38,0,0,1,7.4-7.4h23.4a7.38,7.38,0,0,1,7.4,7.4l-.1,22.1Z"/><path class="cls-2" d="M434.9,537.9H396.8V515.8a7.38,7.38,0,0,1,7.4-7.4h23.4a7.38,7.38,0,0,1,7.4,7.4l-.1,22.1Z"/><path class="cls-2" d="M517.9,537.9H479.8V515.8a7.38,7.38,0,0,1,7.4-7.4h23.4a7.38,7.38,0,0,1,7.4,7.4l-.1,22.1Z"/><path class="cls-2" d="M602.3,537.9H564.2V515.8a7.38,7.38,0,0,1,7.4-7.4H595a7.38,7.38,0,0,1,7.4,7.4l-.1,22.1Z"/><path class="cls-2" d="M735,523.2H696.9V501a7.38,7.38,0,0,1,7.4-7.4h23.4a7.38,7.38,0,0,1,7.4,7.4l-.1,22.2Z"/><path class="cls-2" d="M821.1,523.2H783V501a7.38,7.38,0,0,1,7.4-7.4h23.4a7.38,7.38,0,0,1,7.4,7.4l-.1,22.2Z"/><path class="cls-2" d="M905.7,523.2H867.6V501a7.38,7.38,0,0,1,7.4-7.4h23.4a7.38,7.38,0,0,1,7.4,7.4l-.1,22.2Z"/><path class="cls-2" d="M171.6,500.4H192a7.38,7.38,0,0,1,7.4,7.4v17.9H164.2V507.8a7.38,7.38,0,0,1,7.4-7.4Z"/><path class="cls-2" d="M26.9,500.4H47.3a7.38,7.38,0,0,1,7.4,7.4v17.9H19.5V507.8a7.38,7.38,0,0,1,7.4-7.4Z"/><path class="cls-8" d="M657.4,240.5h0a4.06,4.06,0,0,1,4.1,4.1v6.7a4.06,4.06,0,0,1-4.1,4.1h0a4.06,4.06,0,0,1-4.1-4.1v-6.7A4.18,4.18,0,0,1,657.4,240.5Z"/><path class="cls-8" d="M625.3,245.6h0a4.06,4.06,0,0,1,4.1,4.1v6.7a4.06,4.06,0,0,1-4.1,4.1h0a4.06,4.06,0,0,1-4.1-4.1v-6.7A4.06,4.06,0,0,1,625.3,245.6Z"/><path class="cls-8" d="M609.8,246.3h0a4.06,4.06,0,0,1,4.1,4.1v6.7a4.06,4.06,0,0,1-4.1,4.1h0a4.06,4.06,0,0,1-4.1-4.1v-6.7A4.06,4.06,0,0,1,609.8,246.3Z"/><path class="cls-8" d="M594.9,246.3h0a4.06,4.06,0,0,1,4.1,4.1v6.7a4.06,4.06,0,0,1-4.1,4.1h0a4.06,4.06,0,0,1-4.1-4.1v-6.7A4.18,4.18,0,0,1,594.9,246.3Z"/><path class="cls-8" d="M580.9,246.3h0a4.06,4.06,0,0,1,4.1,4.1v6.7a4.06,4.06,0,0,1-4.1,4.1h0a4.06,4.06,0,0,1-4.1-4.1v-6.7A4.18,4.18,0,0,1,580.9,246.3Z"/><path class="cls-8" d="M567.3,246.3h0a4.06,4.06,0,0,1,4.1,4.1v6.7a4.06,4.06,0,0,1-4.1,4.1h0a4.06,4.06,0,0,1-4.1-4.1v-6.7A4.06,4.06,0,0,1,567.3,246.3Z"/><path class="cls-8" d="M552.8,246.3h0a4.06,4.06,0,0,1,4.1,4.1v6.7a4.06,4.06,0,0,1-4.1,4.1h0a4.06,4.06,0,0,1-4.1-4.1v-6.7A4.06,4.06,0,0,1,552.8,246.3Z"/><path class="cls-8" d="M538.8,246.3h0a4.06,4.06,0,0,1,4.1,4.1v6.7a4.06,4.06,0,0,1-4.1,4.1h0a4.06,4.06,0,0,1-4.1-4.1v-6.7A4.06,4.06,0,0,1,538.8,246.3Z"/><path class="cls-8" d="M525.4,246.3h0a4.06,4.06,0,0,1,4.1,4.1v6.7a4.06,4.06,0,0,1-4.1,4.1h0a4.06,4.06,0,0,1-4.1-4.1v-6.7A4.18,4.18,0,0,1,525.4,246.3Z"/><path class="cls-8" d="M511.3,246.3h0a4.06,4.06,0,0,1,4.1,4.1v6.7a4.06,4.06,0,0,1-4.1,4.1h0a4.06,4.06,0,0,1-4.1-4.1v-6.7A4.06,4.06,0,0,1,511.3,246.3Z"/><path class="cls-8" d="M496.9,246.3h0a4.06,4.06,0,0,1,4.1,4.1v6.7a4.06,4.06,0,0,1-4.1,4.1h0a4.06,4.06,0,0,1-4.1-4.1v-6.7A4.18,4.18,0,0,1,496.9,246.3Z"/><path class="cls-8" d="M482.4,246.3h0a4.06,4.06,0,0,1,4.1,4.1v6.7a4.06,4.06,0,0,1-4.1,4.1h0a4.06,4.06,0,0,1-4.1-4.1v-6.7A4.18,4.18,0,0,1,482.4,246.3Z"/><path class="cls-8" d="M468.4,246.3h0a4.06,4.06,0,0,1,4.1,4.1v6.7a4.06,4.06,0,0,1-4.1,4.1h0a4.06,4.06,0,0,1-4.1-4.1v-6.7A4.18,4.18,0,0,1,468.4,246.3Z"/><path class="cls-8" d="M454.4,246.3h0a4.06,4.06,0,0,1,4.1,4.1v6.7a4.06,4.06,0,0,1-4.1,4.1h0a4.06,4.06,0,0,1-4.1-4.1v-6.7A4.18,4.18,0,0,1,454.4,246.3Z"/><path class="cls-8" d="M440.3,246.3h0a4.06,4.06,0,0,1,4.1,4.1v6.7a4.06,4.06,0,0,1-4.1,4.1h0a4.06,4.06,0,0,1-4.1-4.1v-6.7A4.06,4.06,0,0,1,440.3,246.3Z"/><path class="cls-8" d="M425.8,246.3h0a4.06,4.06,0,0,1,4.1,4.1v6.7a4.06,4.06,0,0,1-4.1,4.1h0a4.06,4.06,0,0,1-4.1-4.1v-6.7A4.06,4.06,0,0,1,425.8,246.3Z"/><path class="cls-8" d="M412.3,246.3h0a4.06,4.06,0,0,1,4.1,4.1v6.7a4.06,4.06,0,0,1-4.1,4.1h0a4.06,4.06,0,0,1-4.1-4.1v-6.7A4.06,4.06,0,0,1,412.3,246.3Z"/><path class="cls-8" d="M397.5,246.3h0a4.06,4.06,0,0,1,4.1,4.1v6.7a4.06,4.06,0,0,1-4.1,4.1h0a4.06,4.06,0,0,1-4.1-4.1v-6.7A4.06,4.06,0,0,1,397.5,246.3Z"/><path class="cls-8" d="M383.6,246.3h0a4.06,4.06,0,0,1,4.1,4.1v6.7a4.06,4.06,0,0,1-4.1,4.1h0a4.06,4.06,0,0,1-4.1-4.1v-6.7A4.18,4.18,0,0,1,383.6,246.3Z"/><path class="cls-8" d="M369.5,246.3h0a4.06,4.06,0,0,1,4.1,4.1v6.7a4.06,4.06,0,0,1-4.1,4.1h0a4.06,4.06,0,0,1-4.1-4.1v-6.7A4.06,4.06,0,0,1,369.5,246.3Z"/><path class="cls-8" d="M355.5,246.3h0a4.06,4.06,0,0,1,4.1,4.1v6.7a4.06,4.06,0,0,1-4.1,4.1h0a4.06,4.06,0,0,1-4.1-4.1v-6.7A4.06,4.06,0,0,1,355.5,246.3Z"/><path class="cls-8" d="M341.6,246.3h0a4.06,4.06,0,0,1,4.1,4.1v6.7a4.06,4.06,0,0,1-4.1,4.1h0a4.06,4.06,0,0,1-4.1-4.1v-6.7A4.18,4.18,0,0,1,341.6,246.3Z"/><path class="cls-8" d="M326.9,246.3h0a4.06,4.06,0,0,1,4.1,4.1v6.7a4.06,4.06,0,0,1-4.1,4.1h0a4.06,4.06,0,0,1-4.1-4.1v-6.7A4.06,4.06,0,0,1,326.9,246.3Z"/><path class="cls-8" d="M314.1,246.3h0a4.06,4.06,0,0,1,4.1,4.1v6.7a4.06,4.06,0,0,1-4.1,4.1h0a4.06,4.06,0,0,1-4.1-4.1v-6.7A4.18,4.18,0,0,1,314.1,246.3Z"/><path class="cls-8" d="M298.5,246.3h0a4.06,4.06,0,0,1,4.1,4.1v6.7a4.06,4.06,0,0,1-4.1,4.1h0a4.06,4.06,0,0,1-4.1-4.1v-6.7A4.06,4.06,0,0,1,298.5,246.3Z"/><path class="cls-8" d="M283.5,246.3h0a4.06,4.06,0,0,1,4.1,4.1v6.7a4.06,4.06,0,0,1-4.1,4.1h0a4.06,4.06,0,0,1-4.1-4.1v-6.7A4.06,4.06,0,0,1,283.5,246.3Z"/><path class="cls-8" d="M267.5,246.3h0a4.06,4.06,0,0,1,4.1,4.1v6.7a4.06,4.06,0,0,1-4.1,4.1h0a4.06,4.06,0,0,1-4.1-4.1v-6.7A4.06,4.06,0,0,1,267.5,246.3Z"/><path class="cls-8" d="M250.8,246.3h0a4.06,4.06,0,0,1,4.1,4.1v6.7a4.06,4.06,0,0,1-4.1,4.1h0a4.06,4.06,0,0,1-4.1-4.1v-6.7A4.12,4.12,0,0,1,250.8,246.3Z"/><path class="cls-8" d="M235.1,245.3h0a4.06,4.06,0,0,1,4.1,4.1v6.7a4.06,4.06,0,0,1-4.1,4.1h0a4.06,4.06,0,0,1-4.1-4.1v-6.7A4.18,4.18,0,0,1,235.1,245.3Z"/><path class="cls-8" d="M217.9,246.1h0a4.06,4.06,0,0,1,4.1,4.1v6.7a4.06,4.06,0,0,1-4.1,4.1h0a4.06,4.06,0,0,1-4.1-4.1v-6.7A4.19,4.19,0,0,1,217.9,246.1Z"/><path class="cls-8" d="M686.2,240.5h0a4.06,4.06,0,0,1,4.1,4.1v6.7a4.06,4.06,0,0,1-4.1,4.1h0a4.06,4.06,0,0,1-4.1-4.1v-6.7A4.06,4.06,0,0,1,686.2,240.5Z"/><path class="cls-8" d="M671.8,240.5h0a4.06,4.06,0,0,1,4.1,4.1v6.7a4.06,4.06,0,0,1-4.1,4.1h0a4.06,4.06,0,0,1-4.1-4.1v-6.7A4.06,4.06,0,0,1,671.8,240.5Z"/><rect class="cls-8" x="154.7" y="236.3" width="55.6" height="11"/><path class="cls-8" d="M171.5,241.5h0a4.06,4.06,0,0,1,4.1,4.1v6.7a4.06,4.06,0,0,1-4.1,4.1h0a4.06,4.06,0,0,1-4.1-4.1v-6.7A4.06,4.06,0,0,1,171.5,241.5Z"/><path class="cls-8" d="M200.2,241.5h0a4.06,4.06,0,0,1,4.1,4.1v6.7a4.06,4.06,0,0,1-4.1,4.1h0a4.06,4.06,0,0,1-4.1-4.1v-6.7A4.12,4.12,0,0,1,200.2,241.5Z"/><path class="cls-8" d="M185.8,241.5h0a4.06,4.06,0,0,1,4.1,4.1v6.7a4.06,4.06,0,0,1-4.1,4.1h0a4.06,4.06,0,0,1-4.1-4.1v-6.7A4.18,4.18,0,0,1,185.8,241.5Z"/><rect class="cls-8" x="9.3" y="237.3" width="55.6" height="11"/><path class="cls-8" d="M19.5,242.5h0a4.06,4.06,0,0,1,4.1,4.1v6.7a4.06,4.06,0,0,1-4.1,4.1h0a4.06,4.06,0,0,1-4.1-4.1v-6.7A4.06,4.06,0,0,1,19.5,242.5Z"/><path class="cls-8" d="M54.7,242.5h0a4.06,4.06,0,0,1,4.1,4.1v6.7a4.06,4.06,0,0,1-4.1,4.1h0a4.06,4.06,0,0,1-4.1-4.1v-6.7A4.06,4.06,0,0,1,54.7,242.5Z"/><path class="cls-8" d="M37.1,242.5h0a4.06,4.06,0,0,1,4.1,4.1v6.7a4.06,4.06,0,0,1-4.1,4.1h0a4.06,4.06,0,0,1-4.1-4.1v-6.7A4.06,4.06,0,0,1,37.1,242.5Z"/><rect class="cls-6" x="486.6" y="319.9" width="24.5" height="188.5"/><rect class="cls-6" x="403.5" y="319.9" width="24.5" height="188.5"/><rect class="cls-6" x="320.5" y="319.9" width="24.5" height="188.5"/><rect class="cls-6" x="169.5" y="311.9" width="24.5" height="188.5"/><path class="cls-2" d="M19.5,287.6H54.7v17.9a7.38,7.38,0,0,1-7.4,7.4H26.9a7.38,7.38,0,0,1-7.4-7.4V287.6Z"/><path class="cls-2" d="M164.2,286.6h35.2v17.9a7.38,7.38,0,0,1-7.4,7.4H171.6a7.38,7.38,0,0,1-7.4-7.4V286.6Z"/><rect class="cls-6" x="24.8" y="312.9" width="24.5" height="188.5"/><rect class="cls-6" x="570.9" y="319.9" width="24.5" height="188.5"/><rect class="cls-8" x="244.9" y="208.8" width="418.1" height="12.2"/><path class="cls-8" d="M333.2,180.9h0a7.17,7.17,0,0,1,7.2,7.2v19.7a7.17,7.17,0,0,1-7.2,7.2h0a7.17,7.17,0,0,1-7.2-7.2V188.1A7.17,7.17,0,0,1,333.2,180.9Z"/><path class="cls-8" d="M417,182.5h0a7.17,7.17,0,0,1,7.2,7.2v19.7a7.17,7.17,0,0,1-7.2,7.2h0a7.17,7.17,0,0,1-7.2-7.2V189.7A7.3,7.3,0,0,1,417,182.5Z"/><path class="cls-8" d="M500,183.7h0a7.17,7.17,0,0,1,7.2,7.2v19.7a7.17,7.17,0,0,1-7.2,7.2h0a7.17,7.17,0,0,1-7.2-7.2V190.9A7.3,7.3,0,0,1,500,183.7Z"/><path class="cls-8" d="M584,183.7h0a7.17,7.17,0,0,1,7.2,7.2v19.7a7.17,7.17,0,0,1-7.2,7.2h0a7.17,7.17,0,0,1-7.2-7.2V190.9A7.3,7.3,0,0,1,584,183.7Z"/><path class="cls-9" d="M394.6,101.9h1.3a3,3,0,0,1,3,3V208.8h-7.3v-104A3,3,0,0,1,394.6,101.9Z"/><path class="cls-10" d="M442.5,155.8a12,12,0,0,1-15.7,6.5c-.1,0-.2-.1-.3-.1l-27.7-12.4V135.1c0,3.7,6.4,4.8,10.3,3.9s7.5,2.1,9.9,5.3,8.5,6.9,11.6,6.7,1.5,4.4,5.9,6.7C440.4,159.6,442.1,156.7,442.5,155.8Z"/><path class="cls-11" d="M445,149.4l-.6,1.7c1.2-3.5-6.4-4-8.8-3.7s-6.3-5.6-8-9.3-5.8-.6-10.2-.6-9.1-6.7-11.6-10.1a24,24,0,0,0-6.9-5.8V110.9l10.6,6.2,30.4,17.8A12,12,0,0,1,445,149.4Z"/><path class="cls-12" d="M444.3,151h0l-1.7,4.5-.1.3c-.4.9-2.1,3.8-5.9,1.9-4.4-2.3-9-6.9-12.1-6.7s-5-.4-7.4-3.7-6.8-6.8-10.8-5.9-7.6.4-7.6-3.3V121.5s3.1-1.3,5.6,2.1,8.6,7.9,13,7.9,11.3,2,13,5.7,4,5.6,6.4,5.3S445.6,147.6,444.3,151Z"/><rect class="cls-8" x="64.9" y="241.5" width="92.6" height="11"/><path class="cls-8" d="M151.4,246.6h0a4.06,4.06,0,0,1,4.1,4.1v6.7a4.06,4.06,0,0,1-4.1,4.1h0a4.06,4.06,0,0,1-4.1-4.1v-6.7A4.19,4.19,0,0,1,151.4,246.6Z"/><path class="cls-8" d="M138.7,246.6h0a4.06,4.06,0,0,1,4.1,4.1v6.7a4.06,4.06,0,0,1-4.1,4.1h0a4.06,4.06,0,0,1-4.1-4.1v-6.7A4.12,4.12,0,0,1,138.7,246.6Z"/><path class="cls-8" d="M124.9,246.6h0a4.06,4.06,0,0,1,4.1,4.1v6.7a4.06,4.06,0,0,1-4.1,4.1h0a4.06,4.06,0,0,1-4.1-4.1v-6.7A4.19,4.19,0,0,1,124.9,246.6Z"/><path class="cls-8" d="M110.7,246.6h0a4.06,4.06,0,0,1,4.1,4.1v6.7a4.06,4.06,0,0,1-4.1,4.1h0a4.06,4.06,0,0,1-4.1-4.1v-6.7A4.12,4.12,0,0,1,110.7,246.6Z"/><path class="cls-8" d="M96.2,246.6h0a4.06,4.06,0,0,1,4.1,4.1v6.7a4.06,4.06,0,0,1-4.1,4.1h0a4.06,4.06,0,0,1-4.1-4.1v-6.7A4.12,4.12,0,0,1,96.2,246.6Z"/><path class="cls-8" d="M82.7,246.6h0a4.06,4.06,0,0,1,4.1,4.1v6.7a4.06,4.06,0,0,1-4.1,4.1h0a4.06,4.06,0,0,1-4.1-4.1v-6.7A4.12,4.12,0,0,1,82.7,246.6Z"/><path class="cls-8" d="M70.9,246.6h0a4.06,4.06,0,0,1,4.1,4.1v6.7a4.06,4.06,0,0,1-4.1,4.1h0a4.06,4.06,0,0,1-4.1-4.1v-6.7A4.26,4.26,0,0,1,70.9,246.6Z"/><path class="cls-13" d="M114.7,305Z"/><rect class="cls-8" x="271.3" y="377.3" width="46.3" height="4.2"/><rect class="cls-14" x="271.3" y="381.5" width="46.3" height="2"/><rect class="cls-8" x="0.1" y="525.7" width="214.3" height="10.2"/><rect class="cls-8" x="201.9" y="538.1" width="455.6" height="7"/><path class="cls-2" d="M97.2,78.7h22.3v8.5a7.38,7.38,0,0,1-7.4,7.4h-7.5a7.38,7.38,0,0,1-7.4-7.4V78.7Z"/><path class="cls-2" d="M143.9,78.7h22.3v8.5a7.38,7.38,0,0,1-7.4,7.4h-7.5a7.38,7.38,0,0,1-7.4-7.4V78.7Z"/><path class="cls-2" d="M47.1,78.1H69.4v8.5A7.38,7.38,0,0,1,62,94H54.5a7.38,7.38,0,0,1-7.4-7.4V78.1Z"/><path class="cls-2" d="M188.6,78.7h22.3v8.5a7.38,7.38,0,0,1-7.4,7.4H196a7.38,7.38,0,0,1-7.4-7.4V78.7Z"/><path class="cls-2" d="M104.6,148.1h7.5a7.38,7.38,0,0,1,7.4,7.4V164H97.2v-8.5A7.38,7.38,0,0,1,104.6,148.1Z"/><path class="cls-2" d="M151.3,148.1h7.5a7.38,7.38,0,0,1,7.4,7.4V164H143.9v-8.5A7.38,7.38,0,0,1,151.3,148.1Z"/><path class="cls-2" d="M54.5,148.7H62a7.38,7.38,0,0,1,7.4,7.4v8.5H47.1v-8.5A7.38,7.38,0,0,1,54.5,148.7Z"/><path class="cls-2" d="M196,148.1h7.5a7.38,7.38,0,0,1,7.4,7.4V164H188.6v-8.5A7.38,7.38,0,0,1,196,148.1Z"/><rect class="cls-8" x="13.1" y="163.7" width="231.9" height="6"/><rect class="cls-6" x="47.1" y="67.1" width="22.3" height="10.9"/><rect class="cls-6" x="97.2" y="67.8" width="22.3" height="10.9"/><rect class="cls-6" x="143.9" y="67.8" width="22.3" height="10.9"/><rect class="cls-6" x="188.6" y="67.8" width="22.3" height="10.9"/><path class="cls-8" d="M243.6,62.8,225.1,34.6H204.8a5,5,0,0,0,.2-1.2V30.5a5,5,0,0,0-5-5,5.08,5.08,0,0,0-5,5v2.9a5,5,0,0,0,.2,1.2H158a5,5,0,0,0,.2-1.2V30.5a5,5,0,0,0-5-5,5.08,5.08,0,0,0-5,5v2.9a5,5,0,0,0,.2,1.2H112c0-.2.1-.5.1-.7V31a5,5,0,0,0-5-5,5,5,0,0,0-5,5v2.9a1.7,1.7,0,0,0,.1.7H65.9V31.8a5,5,0,0,0-5-5,5,5,0,0,0-5,5v2.8H41.2L22.6,62.8V68h4.9v4.6a2.8,2.8,0,1,0,5.6,0V68h2.4v4.6a2.8,2.8,0,1,0,5.6,0V68h2.5v4.6a2.8,2.8,0,1,0,5.6,0V68h2.4v4.6a2.8,2.8,0,1,0,5.6,0V68h3v4.6a2.8,2.8,0,1,0,5.6,0V68h2.5v4.6a2.8,2.8,0,1,0,5.6,0V68h2.4v4.6a2.8,2.8,0,1,0,5.6,0V68h2.5v4.6a2.8,2.8,0,1,0,5.6,0V68h3.5v4.6a2.8,2.8,0,1,0,5.6,0V68h2.4v4.6a2.8,2.8,0,1,0,5.6,0V68h2.5v4.6a2.8,2.8,0,1,0,5.6,0V68h2.4v4.6a2.8,2.8,0,1,0,5.6,0V68h3v4.6a2.8,2.8,0,1,0,5.6,0V68h2.5v4.6a2.8,2.8,0,1,0,5.6,0V68h2.4v4.6a2.8,2.8,0,1,0,5.6,0V68h2.5v4.6a2.8,2.8,0,1,0,5.6,0V68h3.2v4.6a2.8,2.8,0,1,0,5.6,0V68h2.5v4.6a2.8,2.8,0,1,0,5.6,0V68h2.5v4.6a2.8,2.8,0,1,0,5.6,0V68h2.4v4.6a2.8,2.8,0,1,0,5.6,0V68h3v4.6a2.8,2.8,0,1,0,5.6,0V68H200v4.6a2.8,2.8,0,1,0,5.6,0V68h2.5v4.6a2.8,2.8,0,1,0,5.6,0V68h2.4v4.6a2.8,2.8,0,1,0,5.6,0V68h3.5v4.6a2.8,2.8,0,1,0,5.6,0V68h2.8v4.6a2.8,2.8,0,1,0,5.6,0V68h4.4V62.8Z"/><rect class="cls-2" x="69.4" y="145" width="27.9" height="1.9"/><path class="cls-15" d="M97.2,111.3V145H69.3V111.3c0-6.6,6.2-11.9,13.9-11.9S97.2,104.7,97.2,111.3Z"/><rect class="cls-16" x="69.4" y="146.9" width="27.9" height="1.9"/><rect class="cls-2" x="117.3" y="144.3" width="27.9" height="1.9"/><path class="cls-15" d="M145.1,110.6v33.7H117.2V110.6c0-6.6,6.2-11.9,13.9-11.9S145.1,104,145.1,110.6Z"/><rect class="cls-16" x="117.3" y="146.2" width="27.9" height="1.9"/><rect class="cls-2" x="164.2" y="144.3" width="27.9" height="1.9"/><path class="cls-15" d="M192.1,110.6v33.7H164.2V110.6c0-6.6,6.2-11.9,13.9-11.9S192.1,104,192.1,110.6Z"/><rect class="cls-16" x="164.2" y="146.2" width="27.9" height="1.9"/><path class="cls-3" d="M155.5,349.6v29.8H63.4V349.6c0-20.3,20.6-36.7,46.1-36.7S155.5,329.3,155.5,349.6Z"/><rect class="cls-8" x="63.4" y="379.4" width="92.1" height="4.1"/><rect class="cls-14" x="63.4" y="383.5" width="92.1" height="1.8"/><path class="cls-8" d="M109.4,396.3,77.1,426h64.5Zm0,5.9L132.3,423H86.6Z"/><rect class="cls-14" x="77.2" y="426" width="64.5" height="2.4"/><rect class="cls-3" x="77.2" y="433.4" width="64.5" height="75.8"/><rect class="cls-8" x="77.2" y="509.2" width="64.5" height="3.9"/><rect class="cls-14" x="77.2" y="513.1" width="64.5" height="1.8"/><polygon class="cls-6" points="86.5 423 109.4 402.2 132.3 423 86.5 423"/><path class="cls-17" d="M393.3,435.2v85.7h-38V435.2c0-11.6,8.5-21.1,19-21.1S393.3,423.6,393.3,435.2Z"/><path class="cls-17" d="M310.3,435.2v85.7h-38V435.2c0-11.6,8.5-21.1,19-21.1S310.3,423.6,310.3,435.2Z"/><path class="cls-17" d="M476.3,435.2v85.7h-38V435.2c0-11.6,8.5-21.1,19-21.1S476.3,423.6,476.3,435.2Z"/><path class="cls-17" d="M560,438v85.7H522V438c0-11.6,8.5-21.1,19-21.1S560,426.4,560,438Z"/><path class="cls-17" d="M647.2,438v85.7h-38V438c0-11.6,8.5-21.1,19-21.1S647.2,426.4,647.2,438Z"/><rect class="cls-3" x="279.1" y="324.6" width="30.5" height="52.3"/><path class="cls-8" d="M294.4,301.2l-6.6,6.1-14.5,13.3h42.1Zm-14.9,17.5,8.3-7.6,6.6-6,14.9,13.6Z"/><rect class="cls-14" x="273.3" y="320.6" width="42.1" height="1.6"/><polygon class="cls-6" points="279.5 318.7 294.4 305.1 309.3 318.7 279.5 318.7"/><path class="cls-8" d="M388.7,314.7l-14.5-13.3L355,319.1l-1.8,1.7h42.1Zm-29.4,4.2,14.9-13.6,14.5,13.1.5.4-29.9.1Z"/><rect class="cls-14" x="353.2" y="320.8" width="42.1" height="1.6"/><polygon class="cls-6" points="359.3 318.9 374.3 305.3 389.2 318.9 359.3 318.9"/><rect class="cls-8" x="351.1" y="377.3" width="46.3" height="4.2"/><rect class="cls-14" x="351.1" y="381.5" width="46.3" height="2"/><rect class="cls-3" x="359" y="324.6" width="30.5" height="52.3"/><path class="cls-8" d="M458.5,302.3l-19,17.4-2.1,1.9h42.2Zm-14.9,17.4h0l14.9-13.6,14.9,13.6Z"/><rect class="cls-14" x="437.5" y="321.6" width="42.1" height="1.6"/><polygon class="cls-6" points="443.6 319.7 458.5 306.2 473.4 319.7 443.6 319.7"/><rect class="cls-8" x="435.4" y="378.2" width="46.3" height="4.2"/><rect class="cls-14" x="435.4" y="382.3" width="46.3" height="2"/><rect class="cls-3" x="443.3" y="325.5" width="30.5" height="52.3"/><path class="cls-8" d="M541,301.2l-19.6,18-1.4,1.3h42.1Zm0,3.9,14.9,13.6H526Z"/><rect class="cls-14" x="520" y="320.6" width="42.1" height="1.6"/><polygon class="cls-6" points="526.1 318.7 541 305.1 555.9 318.7 526.1 318.7"/><rect class="cls-8" x="517.9" y="377.1" width="46.3" height="4.2"/><rect class="cls-14" x="517.9" y="381.3" width="46.3" height="2"/><rect class="cls-3" x="525.8" y="324.5" width="30.5" height="52.3"/><path class="cls-8" d="M638,312.9l-12.7-11.7-7.3,6.7-.9.8-12.9,11.8h42.1Zm-27.7,5.8,6.7-6.1.9-.8,7.3-6.7,12.7,11.6,2.2,2Z"/><rect class="cls-14" x="604.2" y="320.6" width="42.1" height="1.6"/><polygon class="cls-6" points="610.3 318.7 625.3 305.1 640.2 318.7 610.3 318.7"/><rect class="cls-8" x="602.1" y="377.1" width="46.3" height="4.2"/><rect class="cls-14" x="602.1" y="381.3" width="46.3" height="2"/><rect class="cls-3" x="610" y="324.5" width="30.5" height="52.3"/><rect class="cls-1" x="0.5" y="535.9" width="214.3" height="98.8"/><line class="cls-18" x1="0.1" y1="550.9" x2="214.4" y2="550.9"/><line class="cls-18" x1="0.1" y1="565.9" x2="214.4" y2="565.9"/><rect class="cls-1" x="0.1" y="580.9" width="214.3" height="53.8"/><line class="cls-18" x1="0.1" y1="595.9" x2="214.4" y2="595.9"/><line class="cls-18" x1="0.1" y1="580.9" x2="214.4" y2="580.9"/><line class="cls-18" x1="0.1" y1="610.9" x2="214.4" y2="610.9"/><line class="cls-18" x1="0.1" y1="624.9" x2="214.4" y2="624.9"/><line class="cls-18" x1="0.1" y1="535.9" x2="214.4" y2="535.9"/><line class="cls-18" x1="0.5" y1="535.9" x2="0.5" y2="634.6"/><line class="cls-19" x1="214.4" y1="536.4" x2="214.4" y2="635.1"/><line class="cls-18" x1="93" y1="610.9" x2="93" y2="624.9"/><line class="cls-18" x1="72.4" y1="624.9" x2="72.4" y2="634.6"/><line class="cls-18" x1="137.5" y1="624.9" x2="137.5" y2="634.6"/><line class="cls-18" x1="196.7" y1="624.9" x2="196.7" y2="634.6"/><line class="cls-18" x1="35.7" y1="624.9" x2="35.7" y2="634.6"/><line class="cls-18" x1="30.3" y1="610.9" x2="30.3" y2="624.9"/><line class="cls-18" x1="167.7" y1="610.9" x2="167.7" y2="624.9"/><line class="cls-20" x1="107.6" y1="595.9" x2="107.6" y2="610.9"/><line class="cls-20" x1="119.2" y1="580.9" x2="119.2" y2="595.9"/><line class="cls-20" x1="147.9" y1="565.9" x2="147.9" y2="580.9"/><line class="cls-20" x1="193.7" y1="550.9" x2="193.7" y2="565.9"/><line class="cls-20" x1="110.7" y1="550.9" x2="110.7" y2="565.9"/><line class="cls-20" x1="163.2" y1="535.9" x2="163.2" y2="550.9"/><line class="cls-20" x1="19.9" y1="595.9" x2="19.9" y2="610.9"/><line class="cls-20" x1="38.4" y1="580.9" x2="38.4" y2="595.9"/><line class="cls-20" x1="54.9" y1="595.9" x2="54.9" y2="610.9"/><line class="cls-20" x1="70.8" y1="565.9" x2="70.8" y2="580.9"/><line class="cls-20" x1="49.9" y1="550.9" x2="49.9" y2="565.9"/><line class="cls-20" x1="18.9" y1="535.9" x2="18.9" y2="550.9"/><line class="cls-20" x1="87.5" y1="535.9" x2="87.5" y2="550.9"/><line class="cls-20" x1="179.4" y1="595.9" x2="179.4" y2="610.9"/><line class="cls-20" x1="193.7" y1="580.9" x2="193.7" y2="595.9"/><line class="cls-20" x1="183.7" y1="565.9" x2="183.7" y2="580.9"/><rect class="cls-1" x="214.8" y="545.1" width="194.3" height="89.5"/><line class="cls-21" x1="214.8" y1="558.7" x2="409.1" y2="558.7"/><line class="cls-21" x1="214.8" y1="572.3" x2="409.1" y2="572.3"/><rect class="cls-1" x="214.8" y="585.9" width="194.3" height="48.7"/><line class="cls-21" x1="214.8" y1="599.5" x2="409.1" y2="599.5"/><line class="cls-21" x1="214.8" y1="585.9" x2="409.1" y2="585.9"/><line class="cls-21" x1="214.8" y1="613.1" x2="409.1" y2="613.1"/><line class="cls-21" x1="214.8" y1="625.8" x2="409.1" y2="625.8"/><line class="cls-21" x1="296" y1="613.1" x2="296" y2="625.8"/><line class="cls-21" x1="280.3" y1="625.8" x2="280.3" y2="634.7"/><line class="cls-21" x1="329.1" y1="625.3" x2="329.1" y2="634.7"/><line class="cls-21" x1="393" y1="625.8" x2="393" y2="634.7"/><line class="cls-21" x1="247" y1="625.8" x2="247" y2="634.7"/><line class="cls-21" x1="242.2" y1="613.1" x2="242.2" y2="625.8"/><line class="cls-21" x1="366.7" y1="613.1" x2="366.7" y2="625.8"/><line class="cls-22" x1="320.5" y1="599.5" x2="320.5" y2="613.1"/><line class="cls-22" x1="334.4" y1="585.9" x2="334.4" y2="599.5"/><line class="cls-22" x1="324.1" y1="572.3" x2="324.1" y2="585.9"/><line class="cls-22" x1="390.3" y1="558.7" x2="390.3" y2="572.3"/><line class="cls-22" x1="340.8" y1="558.7" x2="340.8" y2="572.3"/><line class="cls-22" x1="385.9" y1="545.1" x2="385.9" y2="558.7"/><line class="cls-22" x1="232.7" y1="599.5" x2="232.7" y2="613.1"/><line class="cls-22" x1="225.2" y1="572.3" x2="225.2" y2="585.9"/><line class="cls-22" x1="249.5" y1="585.9" x2="249.5" y2="599.5"/><line class="cls-22" x1="276.6" y1="599.5" x2="276.6" y2="613.1"/><line class="cls-22" x1="291.3" y1="572.3" x2="291.3" y2="585.9"/><line class="cls-22" x1="259.9" y1="558.7" x2="259.9" y2="572.3"/><line class="cls-22" x1="231.8" y1="545.1" x2="231.8" y2="558.7"/><line class="cls-22" x1="306" y1="545.1" x2="306" y2="558.7"/><line class="cls-22" x1="377.3" y1="599.5" x2="377.3" y2="613.1"/><line class="cls-22" x1="390.3" y1="585.9" x2="390.3" y2="599.5"/><line class="cls-22" x1="381.2" y1="572.3" x2="381.2" y2="585.9"/><rect class="cls-1" x="409.1" y="545.1" width="194.3" height="89.5"/><line class="cls-21" x1="409.1" y1="558.7" x2="603.3" y2="558.7"/><line class="cls-21" x1="409.1" y1="572.3" x2="603.3" y2="572.3"/><rect class="cls-1" x="409.1" y="585.9" width="194.3" height="48.7"/><line class="cls-21" x1="409.1" y1="599.5" x2="603.3" y2="599.5"/><line class="cls-21" x1="409.1" y1="585.9" x2="603.3" y2="585.9"/><line class="cls-21" x1="409.1" y1="613.1" x2="603.3" y2="613.1"/><line class="cls-21" x1="409.1" y1="625.8" x2="603.3" y2="625.8"/><line class="cls-21" x1="490.3" y1="613.1" x2="490.3" y2="625.8"/><line class="cls-21" x1="474.6" y1="625.8" x2="474.6" y2="634.7"/><line class="cls-21" x1="523.4" y1="625.3" x2="523.4" y2="634.7"/><line class="cls-21" x1="587.3" y1="625.8" x2="587.3" y2="634.7"/><line class="cls-21" x1="441.3" y1="625.8" x2="441.3" y2="634.7"/><line class="cls-21" x1="436.5" y1="613.1" x2="436.5" y2="625.8"/><line class="cls-21" x1="561" y1="613.1" x2="561" y2="625.8"/><line class="cls-22" x1="514.7" y1="599.5" x2="514.7" y2="613.1"/><line class="cls-22" x1="528.6" y1="585.9" x2="528.6" y2="599.5"/><line class="cls-22" x1="518.4" y1="572.3" x2="518.4" y2="585.9"/><line class="cls-22" x1="584.6" y1="558.7" x2="584.6" y2="572.3"/><line class="cls-22" x1="535.1" y1="558.7" x2="535.1" y2="572.3"/><line class="cls-22" x1="551.9" y1="545.1" x2="551.9" y2="558.7"/><line class="cls-22" x1="427" y1="599.5" x2="427" y2="613.1"/><line class="cls-22" x1="419.5" y1="572.3" x2="419.5" y2="585.9"/><line class="cls-22" x1="443.7" y1="585.9" x2="443.7" y2="599.5"/><line class="cls-22" x1="470.9" y1="599.5" x2="470.9" y2="613.1"/><line class="cls-22" x1="485.5" y1="572.3" x2="485.5" y2="585.9"/><line class="cls-22" x1="454.2" y1="558.7" x2="454.2" y2="572.3"/><line class="cls-22" x1="426.1" y1="545.1" x2="426.1" y2="558.7"/><line class="cls-22" x1="479.8" y1="545.1" x2="479.8" y2="558.7"/><line class="cls-22" x1="571.6" y1="599.5" x2="571.6" y2="613.1"/><line class="cls-22" x1="584.6" y1="585.9" x2="584.6" y2="599.5"/><line class="cls-22" x1="575.5" y1="572.3" x2="575.5" y2="585.9"/><polygon class="cls-1" points="785.9 634.6 785.9 634.7 602.3 634.7 602.3 545.1 674.1 545.1 674.1 634.6 785.9 634.6"/><line class="cls-23" x1="674.1" y1="558.7" x2="602.3" y2="558.7"/><line class="cls-23" x1="674.1" y1="572.3" x2="602.3" y2="572.3"/><rect class="cls-1" x="602.3" y="585.9" width="71.9" height="48.7"/><line class="cls-23" x1="674.1" y1="599.5" x2="602.3" y2="599.5"/><line class="cls-23" x1="674.1" y1="585.9" x2="602.3" y2="585.9"/><line class="cls-23" x1="674.1" y1="613.1" x2="602.3" y2="613.1"/><line class="cls-23" x1="674.1" y1="625.8" x2="602.3" y2="625.8"/><line class="cls-23" x1="657.4" y1="625.6" x2="657.4" y2="634.9"/><line class="cls-23" x1="641.4" y1="613.6" x2="641.4" y2="626.3"/><line class="cls-22" x1="619.3" y1="599.1" x2="619.3" y2="612.7"/><line class="cls-21" x1="635.3" y1="585.9" x2="635.3" y2="599.5"/><line class="cls-21" x1="651.5" y1="572.3" x2="651.5" y2="585.9"/><line class="cls-21" x1="657.1" y1="558.4" x2="657.1" y2="572"/><line class="cls-21" x1="641.4" y1="545.1" x2="641.4" y2="558.7"/><rect class="cls-24" x="655.5" y="570" width="47.5" height="64.7"/><rect class="cls-8" x="651.5" y="566.3" width="55.5" height="7.3"/><rect class="cls-24" x="657.1" y="521.9" width="44.4" height="44.4"/><rect class="cls-8" x="654.2" y="519.8" width="50.2" height="4.3"/><path class="cls-25" d="M846.4,126.3"/><line class="cls-5" x1="935.8" y1="15.6" x2="850.9" y2="15.6"/><line class="cls-5" x1="935.8" y1="36.1" x2="810.4" y2="36.1"/><line class="cls-5" x1="936.6" y1="71.6" x2="774.1" y2="71.6"/><rect class="cls-8" x="935.4" y="125.5" width="0.3" height="8.1"/><path class="cls-1" d="M1180.5,40.4h-2.9V21.3a7.5,7.5,0,1,0-15,0V40.4h-3a12,12,0,0,0-12,12V78.8h44.9V52.4A12,12,0,0,0,1180.5,40.4Z"/><rect class="cls-4" x="1141.7" y="71.6" width="56.8" height="56.8"/><path class="cls-5" d="M1090.8,127.2S1086.3,8.5,935.7,1.1c180.6,8.1,184.5,126.1,184.5,126.1"/><path class="cls-5" d="M937.1,2.7c105.8-.3,123.2,125.8,123.2,125.8"/><path class="cls-5" d="M935.7,1.1c66.3,9.4,83.4,126.1,83.4,126.1"/><path class="cls-5" d="M969.4,127.2s-4.6-102-33.7-124.5"/><rect class="cls-6" x="935.7" y="529.2" width="234.3" height="105.5"/><line class="cls-7" x1="1170" y1="538.2" x2="935.7" y2="538.2"/><line class="cls-7" x1="1170" y1="550.4" x2="935.7" y2="550.4"/><line class="cls-7" x1="1170" y1="564.1" x2="935.7" y2="564.1"/><line class="cls-7" x1="1170" y1="576" x2="935.7" y2="576"/><line class="cls-7" x1="1170" y1="588.2" x2="935.7" y2="588.2"/><line class="cls-7" x1="1170" y1="601.8" x2="935.7" y2="601.8"/><line class="cls-7" x1="1170" y1="615.5" x2="935.7" y2="615.5"/><line class="cls-7" x1="1170" y1="627.7" x2="935.7" y2="627.7"/><rect class="cls-8" x="935.7" y="523.2" width="280.3" height="6"/><rect class="cls-1" x="1632.3" y="68" width="213.6" height="95.7"/><rect class="cls-6" x="1809.2" y="79.9" width="7.9" height="68.9"/><rect class="cls-6" x="1759.1" y="79.9" width="7.9" height="68.9"/><rect class="cls-6" x="1713.4" y="83.9" width="7.9" height="68.9"/><rect class="cls-6" x="1667.8" y="86.7" width="7.9" height="68.9"/><rect class="cls-6" x="1816.8" y="248.3" width="35.2" height="39.3"/><rect class="cls-6" x="1672.1" y="247.3" width="35.2" height="39.3"/><rect class="cls-6" x="1521.2" y="249.1" width="35.2" height="45.6"/><rect class="cls-6" x="1439.6" y="248.9" width="35.2" height="45.6"/><rect class="cls-6" x="1355" y="249.3" width="35.2" height="45.6"/><rect class="cls-6" x="1270.7" y="249.3" width="35.2" height="45.6"/><polygon class="cls-8" points="1185.7 229.4 1191.8 219.6 935.7 114.8 935.7 125.6 1185.7 229.4"/><path class="cls-8" d="M1141.7,220.2h0a4.06,4.06,0,0,1-4.1-4.1v-6.7a4.06,4.06,0,0,1,4.1-4.1h0a4.06,4.06,0,0,1,4.1,4.1v6.7A4.12,4.12,0,0,1,1141.7,220.2Z"/><path class="cls-8" d="M1171.1,240h0a4.06,4.06,0,0,1-4.1-4.1v-6.7a4.06,4.06,0,0,1,4.1-4.1h0a4.06,4.06,0,0,1,4.1,4.1v6.7A4.12,4.12,0,0,1,1171.1,240Z"/><path class="cls-8" d="M1157.6,240h0a4.06,4.06,0,0,1-4.1-4.1v-6.7a4.06,4.06,0,0,1,4.1-4.1h0a4.06,4.06,0,0,1,4.1,4.1v6.7A4.12,4.12,0,0,1,1157.6,240Z"/><path class="cls-8" d="M1142.3,240h0a4.06,4.06,0,0,1-4.1-4.1v-6.7a4.06,4.06,0,0,1,4.1-4.1h0a4.06,4.06,0,0,1,4.1,4.1v6.7A4.06,4.06,0,0,1,1142.3,240Z"/><path class="cls-8" d="M1127.7,240h0a4.06,4.06,0,0,1-4.1-4.1v-6.7a4.06,4.06,0,0,1,4.1-4.1h0a4.06,4.06,0,0,1,4.1,4.1v6.7A4.12,4.12,0,0,1,1127.7,240Z"/><path class="cls-8" d="M1112.3,240h0a4.06,4.06,0,0,1-4.1-4.1v-6.7a4.06,4.06,0,0,1,4.1-4.1h0a4.06,4.06,0,0,1,4.1,4.1v6.7A4.06,4.06,0,0,1,1112.3,240Z"/><path class="cls-8" d="M1098.2,240h0a4.06,4.06,0,0,1-4.1-4.1v-6.7a4.06,4.06,0,0,1,4.1-4.1h0a4.06,4.06,0,0,1,4.1,4.1v6.7A4.12,4.12,0,0,1,1098.2,240Z"/><path class="cls-8" d="M1083.6,240h0a4.06,4.06,0,0,1-4.1-4.1v-6.7a4.06,4.06,0,0,1,4.1-4.1h0a4.06,4.06,0,0,1,4.1,4.1v6.7A4.12,4.12,0,0,1,1083.6,240Z"/><path class="cls-8" d="M1054.4,240h0a4.06,4.06,0,0,1-4.1-4.1v-6.7a4.06,4.06,0,0,1,4.1-4.1h0a4.06,4.06,0,0,1,4.1,4.1v6.7A4.06,4.06,0,0,1,1054.4,240Z"/><path class="cls-8" d="M1025,240.5h0a4.06,4.06,0,0,1-4.1-4.1v-6.6a4.06,4.06,0,0,1,4.1-4.1h0a4.06,4.06,0,0,1,4.1,4.1v6.7A4,4,0,0,1,1025,240.5Z"/><path class="cls-8" d="M1010.5,240.5h0a4.06,4.06,0,0,1-4.1-4.1v-6.6a4.06,4.06,0,0,1,4.1-4.1h0a4.06,4.06,0,0,1,4.1,4.1v6.7A4,4,0,0,1,1010.5,240.5Z"/><path class="cls-8" d="M995,240.5h0a4.06,4.06,0,0,1-4.1-4.1v-6.6a4.06,4.06,0,0,1,4.1-4.1h0a4.06,4.06,0,0,1,4.1,4.1v6.7A4,4,0,0,1,995,240.5Z"/><path class="cls-8" d="M980,240.5h0a4.06,4.06,0,0,1-4.1-4.1v-6.6a4.06,4.06,0,0,1,4.1-4.1h0a4.06,4.06,0,0,1,4.1,4.1v6.7A4,4,0,0,1,980,240.5Z"/><path class="cls-8" d="M965.8,240.5h0a4.06,4.06,0,0,1-4.1-4.1v-6.6a4.06,4.06,0,0,1,4.1-4.1h0a4.06,4.06,0,0,1,4.1,4.1v6.7A4.1,4.1,0,0,1,965.8,240.5Z"/><path class="cls-8" d="M935.7,225.7v14.8a4.06,4.06,0,0,0,4.1-4.1v-6.6a4.12,4.12,0,0,0-4.1-4.1Z"/><path class="cls-8" d="M950.7,240.5h0a4.06,4.06,0,0,1-4.1-4.1v-6.6a4.06,4.06,0,0,1,4.1-4.1h0a4.06,4.06,0,0,1,4.1,4.1v6.7A4,4,0,0,1,950.7,240.5Z"/><path class="cls-8" d="M1039.7,240.5h0a4.06,4.06,0,0,1-4.1-4.1v-6.6a4.06,4.06,0,0,1,4.1-4.1h0a4.06,4.06,0,0,1,4.1,4.1v6.7A4,4,0,0,1,1039.7,240.5Z"/><path class="cls-8" d="M1069,240h0a4.06,4.06,0,0,1-4.1-4.1v-6.7a4.06,4.06,0,0,1,4.1-4.1h0a4.06,4.06,0,0,1,4.1,4.1v6.7A4.06,4.06,0,0,1,1069,240Z"/><path class="cls-8" d="M1128.5,214.5h0a4.06,4.06,0,0,1-4.1-4.1v-6.6a4.06,4.06,0,0,1,4.1-4.1h0a4.06,4.06,0,0,1,4.1,4.1v6.7A4,4,0,0,1,1128.5,214.5Z"/><path class="cls-8" d="M1113.7,208.8h0a4.06,4.06,0,0,1-4.1-4.1V198a4.06,4.06,0,0,1,4.1-4.1h0a4.06,4.06,0,0,1,4.1,4.1v6.7A4.12,4.12,0,0,1,1113.7,208.8Z"/><path class="cls-8" d="M1100,202.5h0a4.06,4.06,0,0,1-4.1-4.1v-6.6a4.06,4.06,0,0,1,4.1-4.1h0a4.06,4.06,0,0,1,4.1,4.1v6.7A4,4,0,0,1,1100,202.5Z"/><path class="cls-8" d="M1084.4,195.8h0a4.06,4.06,0,0,1-4.1-4.1V185a4.06,4.06,0,0,1,4.1-4.1h0a4.06,4.06,0,0,1,4.1,4.1v6.7A4.12,4.12,0,0,1,1084.4,195.8Z"/><path class="cls-8" d="M1069.5,189.7h0a4.06,4.06,0,0,1-4.1-4.1v-6.7a4.06,4.06,0,0,1,4.1-4.1h0a4.06,4.06,0,0,1,4.1,4.1v6.7A4.06,4.06,0,0,1,1069.5,189.7Z"/><path class="cls-8" d="M1055.7,183.8h0a4.06,4.06,0,0,1-4.1-4.1V173a4.06,4.06,0,0,1,4.1-4.1h0a4.06,4.06,0,0,1,4.1,4.1v6.7A4.12,4.12,0,0,1,1055.7,183.8Z"/><path class="cls-8" d="M1040.5,179.2h0a4.06,4.06,0,0,1-4.1-4.1v-6.7a4.06,4.06,0,0,1,4.1-4.1h0a4.06,4.06,0,0,1,4.1,4.1v6.7A4.06,4.06,0,0,1,1040.5,179.2Z"/><path class="cls-8" d="M1025,172.7h0a4.06,4.06,0,0,1-4.1-4.1v-6.7a4.06,4.06,0,0,1,4.1-4.1h0a4.06,4.06,0,0,1,4.1,4.1v6.7A4.06,4.06,0,0,1,1025,172.7Z"/><path class="cls-8" d="M1010.5,166h0a4.06,4.06,0,0,1-4.1-4.1v-6.7a4.06,4.06,0,0,1,4.1-4.1h0a4.06,4.06,0,0,1,4.1,4.1v6.7A4.06,4.06,0,0,1,1010.5,166Z"/><path class="cls-8" d="M996,158.6h0a4.06,4.06,0,0,1-4.1-4.1v-6.7a4.06,4.06,0,0,1,4.1-4.1h0a4.06,4.06,0,0,1,4.1,4.1v6.7A4.06,4.06,0,0,1,996,158.6Z"/><path class="cls-8" d="M981.4,152.1h0a4.06,4.06,0,0,1-4.1-4.1v-6.7a4.06,4.06,0,0,1,4.1-4.1h0a4.06,4.06,0,0,1,4.1,4.1V148A4.18,4.18,0,0,1,981.4,152.1Z"/><path class="cls-8" d="M967.2,145.4h0a4.06,4.06,0,0,1-4.1-4.1v-6.7a4.06,4.06,0,0,1,4.1-4.1h0a4.06,4.06,0,0,1,4.1,4.1v6.7A4.12,4.12,0,0,1,967.2,145.4Z"/><path class="cls-8" d="M951.7,139.3h0a4.06,4.06,0,0,1-4.1-4.1v-6.7a4.06,4.06,0,0,1,4.1-4.1h0a4.06,4.06,0,0,1,4.1,4.1v6.7A4.19,4.19,0,0,1,951.7,139.3Z"/><path class="cls-8" d="M935.7,118.9l.1,14.8a4.08,4.08,0,0,0,4-4V123A4.26,4.26,0,0,0,935.7,118.9Z"/><rect class="cls-8" x="935.7" y="221" width="250" height="8.3"/><rect class="cls-6" x="1143.3" y="304.9" width="24.5" height="188.5"/><rect class="cls-6" x="1057.8" y="304.9" width="24.5" height="188.8"/><rect class="cls-6" x="972.9" y="304.9" width="24.5" height="188.8"/><rect class="cls-8" x="965.8" y="127.1" width="246.3" height="6.6"/><rect class="cls-8" x="1175.2" y="235.4" width="55.6" height="11"/><rect class="cls-8" x="1230.8" y="240.8" width="431.3" height="10.7"/><path class="cls-2" d="M1298.5,320h-20.4a7.38,7.38,0,0,1-7.4-7.4V294.7h35.2v17.9A7.45,7.45,0,0,1,1298.5,320Z"/><path class="cls-2" d="M1382.8,320h-20.4a7.38,7.38,0,0,1-7.4-7.4V294.7h35.2v17.9A7.38,7.38,0,0,1,1382.8,320Z"/><path class="cls-2" d="M1466.6,320h-20.4a7.38,7.38,0,0,1-7.4-7.4V294.7H1474v17.9A7.38,7.38,0,0,1,1466.6,320Z"/><path class="cls-2" d="M1548.9,320h-20.4a7.38,7.38,0,0,1-7.4-7.4V294.7h35.2v17.9A7.38,7.38,0,0,1,1548.9,320Z"/><path class="cls-2" d="M1527.1,508.5h23.4a7.38,7.38,0,0,1,7.4,7.4V538h-38.1V515.8A7.15,7.15,0,0,1,1527.1,508.5Z"/><path class="cls-2" d="M1444,508.5h23.4a7.38,7.38,0,0,1,7.4,7.4V538h-38.2V515.8A7.3,7.3,0,0,1,1444,508.5Z"/><path class="cls-2" d="M1360.9,508.5h23.4a7.38,7.38,0,0,1,7.4,7.4V538h-38.1V515.8A7.34,7.34,0,0,1,1360.9,508.5Z"/><path class="cls-2" d="M1276.6,508.5H1300a7.38,7.38,0,0,1,7.4,7.4V538h-38.1V515.8A7.15,7.15,0,0,1,1276.6,508.5Z"/><path class="cls-2" d="M1143.8,493.7h23.4a7.38,7.38,0,0,1,7.4,7.4v22.1h-38.1V501.1A7.24,7.24,0,0,1,1143.8,493.7Z"/><path class="cls-2" d="M1057.8,493.7h23.4a7.38,7.38,0,0,1,7.4,7.4v22.1h-38.1V501.1A7.24,7.24,0,0,1,1057.8,493.7Z"/><path class="cls-2" d="M973.2,493.7h23.4a7.38,7.38,0,0,1,7.4,7.4v22.1H965.9V501.1A7.24,7.24,0,0,1,973.2,493.7Z"/><path class="cls-2" d="M1707.3,525.7h-35.2V507.8a7.38,7.38,0,0,1,7.4-7.4h20.4a7.38,7.38,0,0,1,7.4,7.4v17.9Z"/><path class="cls-2" d="M1852,525.7h-35.2V507.8a7.38,7.38,0,0,1,7.4-7.4h20.4a7.38,7.38,0,0,1,7.4,7.4v17.9Z"/><path class="cls-8" d="M1214,255.4h0a4.06,4.06,0,0,1-4.1-4.1v-6.7a4.06,4.06,0,0,1,4.1-4.1h0a4.06,4.06,0,0,1,4.1,4.1v6.7A4.12,4.12,0,0,1,1214,255.4Z"/><path class="cls-8" d="M1246.2,260.4h0a4.06,4.06,0,0,1-4.1-4.1v-6.7a4.06,4.06,0,0,1,4.1-4.1h0a4.06,4.06,0,0,1,4.1,4.1v6.7A4.12,4.12,0,0,1,1246.2,260.4Z"/><path class="cls-8" d="M1261.7,261.2h0a4.06,4.06,0,0,1-4.1-4.1v-6.7a4.06,4.06,0,0,1,4.1-4.1h0a4.06,4.06,0,0,1,4.1,4.1v6.7A4.12,4.12,0,0,1,1261.7,261.2Z"/><path class="cls-8" d="M1276.5,261.2h0a4.06,4.06,0,0,1-4.1-4.1v-6.7a4.06,4.06,0,0,1,4.1-4.1h0a4.06,4.06,0,0,1,4.1,4.1v6.7A4.06,4.06,0,0,1,1276.5,261.2Z"/><path class="cls-8" d="M1290.5,261.2h0a4.06,4.06,0,0,1-4.1-4.1v-6.7a4.06,4.06,0,0,1,4.1-4.1h0a4.06,4.06,0,0,1,4.1,4.1v6.7A4.06,4.06,0,0,1,1290.5,261.2Z"/><path class="cls-8" d="M1304.2,261.2h0a4.06,4.06,0,0,1-4.1-4.1v-6.7a4.06,4.06,0,0,1,4.1-4.1h0a4.06,4.06,0,0,1,4.1,4.1v6.7A4.12,4.12,0,0,1,1304.2,261.2Z"/><path class="cls-8" d="M1318.7,261.2h0a4.06,4.06,0,0,1-4.1-4.1v-6.7a4.06,4.06,0,0,1,4.1-4.1h0a4.06,4.06,0,0,1,4.1,4.1v6.7A4.12,4.12,0,0,1,1318.7,261.2Z"/><path class="cls-8" d="M1332.7,261.2h0a4.06,4.06,0,0,1-4.1-4.1v-6.7a4.06,4.06,0,0,1,4.1-4.1h0a4.06,4.06,0,0,1,4.1,4.1v6.7A4.12,4.12,0,0,1,1332.7,261.2Z"/><path class="cls-8" d="M1346,261.2h0a4.06,4.06,0,0,1-4.1-4.1v-6.7a4.06,4.06,0,0,1,4.1-4.1h0a4.06,4.06,0,0,1,4.1,4.1v6.7A4.06,4.06,0,0,1,1346,261.2Z"/><path class="cls-8" d="M1360.2,261.2h0a4.06,4.06,0,0,1-4.1-4.1v-6.7a4.06,4.06,0,0,1,4.1-4.1h0a4.06,4.06,0,0,1,4.1,4.1v6.7A4.12,4.12,0,0,1,1360.2,261.2Z"/><path class="cls-8" d="M1374.5,261.2h0a4.06,4.06,0,0,1-4.1-4.1v-6.7a4.06,4.06,0,0,1,4.1-4.1h0a4.06,4.06,0,0,1,4.1,4.1v6.7A4.06,4.06,0,0,1,1374.5,261.2Z"/><path class="cls-8" d="M1389,261.2h0a4.06,4.06,0,0,1-4.1-4.1v-6.7a4.06,4.06,0,0,1,4.1-4.1h0a4.06,4.06,0,0,1,4.1,4.1v6.7A4.06,4.06,0,0,1,1389,261.2Z"/><path class="cls-8" d="M1403,261.2h0a4.06,4.06,0,0,1-4.1-4.1v-6.7a4.06,4.06,0,0,1,4.1-4.1h0a4.06,4.06,0,0,1,4.1,4.1v6.7A4.06,4.06,0,0,1,1403,261.2Z"/><path class="cls-8" d="M1417,261.2h0a4.06,4.06,0,0,1-4.1-4.1v-6.7a4.06,4.06,0,0,1,4.1-4.1h0a4.06,4.06,0,0,1,4.1,4.1v6.7A4.06,4.06,0,0,1,1417,261.2Z"/><path class="cls-8" d="M1431.2,261.2h0a4.06,4.06,0,0,1-4.1-4.1v-6.7a4.06,4.06,0,0,1,4.1-4.1h0a4.06,4.06,0,0,1,4.1,4.1v6.7A4.12,4.12,0,0,1,1431.2,261.2Z"/><path class="cls-8" d="M1445.7,261.2h0a4.06,4.06,0,0,1-4.1-4.1v-6.7a4.06,4.06,0,0,1,4.1-4.1h0a4.06,4.06,0,0,1,4.1,4.1v6.7A4.12,4.12,0,0,1,1445.7,261.2Z"/><path class="cls-8" d="M1459.2,261.2h0a4.06,4.06,0,0,1-4.1-4.1v-6.7a4.06,4.06,0,0,1,4.1-4.1h0a4.06,4.06,0,0,1,4.1,4.1v6.7A4.12,4.12,0,0,1,1459.2,261.2Z"/><path class="cls-8" d="M1474,261.2h0a4.06,4.06,0,0,1-4.1-4.1v-6.7a4.06,4.06,0,0,1,4.1-4.1h0a4.06,4.06,0,0,1,4.1,4.1v6.7A4.12,4.12,0,0,1,1474,261.2Z"/><path class="cls-8" d="M1487.8,261.2h0a4.06,4.06,0,0,1-4.1-4.1v-6.7a4.06,4.06,0,0,1,4.1-4.1h0a4.06,4.06,0,0,1,4.1,4.1v6.7A4.06,4.06,0,0,1,1487.8,261.2Z"/><path class="cls-8" d="M1502,261.2h0a4.06,4.06,0,0,1-4.1-4.1v-6.7a4.06,4.06,0,0,1,4.1-4.1h0a4.06,4.06,0,0,1,4.1,4.1v6.7A4.12,4.12,0,0,1,1502,261.2Z"/><path class="cls-8" d="M1516,261.2h0a4.06,4.06,0,0,1-4.1-4.1v-6.7a4.06,4.06,0,0,1,4.1-4.1h0a4.06,4.06,0,0,1,4.1,4.1v6.7A4.12,4.12,0,0,1,1516,261.2Z"/><path class="cls-8" d="M1529.8,261.2h0a4.06,4.06,0,0,1-4.1-4.1v-6.7a4.06,4.06,0,0,1,4.1-4.1h0a4.06,4.06,0,0,1,4.1,4.1v6.7A4.06,4.06,0,0,1,1529.8,261.2Z"/><path class="cls-8" d="M1544.6,261.2h0a4.06,4.06,0,0,1-4.1-4.1v-6.7a4.06,4.06,0,0,1,4.1-4.1h0a4.06,4.06,0,0,1,4.1,4.1v6.7A4.12,4.12,0,0,1,1544.6,261.2Z"/><path class="cls-8" d="M1557.3,261.2h0a4.06,4.06,0,0,1-4.1-4.1v-6.7a4.06,4.06,0,0,1,4.1-4.1h0a4.06,4.06,0,0,1,4.1,4.1v6.7A4.06,4.06,0,0,1,1557.3,261.2Z"/><path class="cls-8" d="M1573,261.2h0a4.06,4.06,0,0,1-4.1-4.1v-6.7a4.06,4.06,0,0,1,4.1-4.1h0a4.06,4.06,0,0,1,4.1,4.1v6.7A4.12,4.12,0,0,1,1573,261.2Z"/><path class="cls-8" d="M1588,261.2h0a4.06,4.06,0,0,1-4.1-4.1v-6.7a4.06,4.06,0,0,1,4.1-4.1h0a4.06,4.06,0,0,1,4.1,4.1v6.7A4.12,4.12,0,0,1,1588,261.2Z"/><path class="cls-8" d="M1604,261.2h0a4.06,4.06,0,0,1-4.1-4.1v-6.7a4.06,4.06,0,0,1,4.1-4.1h0a4.06,4.06,0,0,1,4.1,4.1v6.7A4.12,4.12,0,0,1,1604,261.2Z"/><path class="cls-8" d="M1620.7,261.2h0a4.06,4.06,0,0,1-4.1-4.1v-6.7a4.06,4.06,0,0,1,4.1-4.1h0a4.06,4.06,0,0,1,4.1,4.1v6.7A4.18,4.18,0,0,1,1620.7,261.2Z"/><path class="cls-8" d="M1636.3,260.2h0a4.06,4.06,0,0,1-4.1-4.1v-6.7a4.06,4.06,0,0,1,4.1-4.1h0a4.06,4.06,0,0,1,4.1,4.1v6.7A4.06,4.06,0,0,1,1636.3,260.2Z"/><path class="cls-8" d="M1653.5,261h0a4.06,4.06,0,0,1-4.1-4.1v-6.7a4.06,4.06,0,0,1,4.1-4.1h0a4.06,4.06,0,0,1,4.1,4.1v6.7A4.06,4.06,0,0,1,1653.5,261Z"/><path class="cls-8" d="M1185.3,255.4h0a4.06,4.06,0,0,1-4.1-4.1v-6.7a4.06,4.06,0,0,1,4.1-4.1h0a4.06,4.06,0,0,1,4.1,4.1v6.7A4.12,4.12,0,0,1,1185.3,255.4Z"/><path class="cls-8" d="M1199.7,255.4h0a4.06,4.06,0,0,1-4.1-4.1v-6.7a4.06,4.06,0,0,1,4.1-4.1h0a4.06,4.06,0,0,1,4.1,4.1v6.7A4.26,4.26,0,0,1,1199.7,255.4Z"/><rect class="cls-8" x="1661.1" y="236.3" width="55.6" height="11"/><path class="cls-8" d="M1700,256.4h0a4.06,4.06,0,0,1-4.1-4.1v-6.7a4.06,4.06,0,0,1,4.1-4.1h0a4.06,4.06,0,0,1,4.1,4.1v6.7A4.19,4.19,0,0,1,1700,256.4Z"/><path class="cls-8" d="M1671.3,256.4h0a4.06,4.06,0,0,1-4.1-4.1v-6.7a4.06,4.06,0,0,1,4.1-4.1h0a4.06,4.06,0,0,1,4.1,4.1v6.7A4.26,4.26,0,0,1,1671.3,256.4Z"/><path class="cls-8" d="M1685.6,256.4h0a4.06,4.06,0,0,1-4.1-4.1v-6.7a4.06,4.06,0,0,1,4.1-4.1h0a4.06,4.06,0,0,1,4.1,4.1v6.7A4.12,4.12,0,0,1,1685.6,256.4Z"/><rect class="cls-8" x="1806.6" y="237.3" width="55.6" height="11"/><path class="cls-8" d="M1852,257.3h0a4.06,4.06,0,0,1-4.1-4.1v-6.7a4.06,4.06,0,0,1,4.1-4.1h0a4.06,4.06,0,0,1,4.1,4.1v6.7A4.12,4.12,0,0,1,1852,257.3Z"/><path class="cls-8" d="M1816.8,257.3h0a4.06,4.06,0,0,1-4.1-4.1v-6.7a4.06,4.06,0,0,1,4.1-4.1h0a4.06,4.06,0,0,1,4.1,4.1v6.7A4.06,4.06,0,0,1,1816.8,257.3Z"/><path class="cls-8" d="M1834.4,257.3h0a4.06,4.06,0,0,1-4.1-4.1v-6.7a4.06,4.06,0,0,1,4.1-4.1h0a4.06,4.06,0,0,1,4.1,4.1v6.7A4.12,4.12,0,0,1,1834.4,257.3Z"/><rect class="cls-6" x="1360.4" y="320" width="24.5" height="188.5"/><rect class="cls-6" x="1443.4" y="320" width="24.5" height="188.5"/><rect class="cls-6" x="1526.5" y="320" width="24.5" height="188.5"/><rect class="cls-6" x="1677.5" y="312" width="24.5" height="188.5"/><path class="cls-2" d="M1844.6,313h-20.4a7.38,7.38,0,0,1-7.4-7.4V287.7H1852v17.9A7.65,7.65,0,0,1,1844.6,313Z"/><path class="cls-2" d="M1699.9,312h-20.4a7.38,7.38,0,0,1-7.4-7.4V286.7h35.2v17.9A7.38,7.38,0,0,1,1699.9,312Z"/><rect class="cls-6" x="1822.1" y="313" width="24.5" height="187.5"/><rect class="cls-6" x="1276" y="320" width="24.5" height="188.5"/><rect class="cls-8" x="1208.5" y="208.8" width="418" height="12.2"/><path class="cls-8" d="M1538.3,214.9h0a7.17,7.17,0,0,1-7.2-7.2V188a7.17,7.17,0,0,1,7.2-7.2h0a7.17,7.17,0,0,1,7.2,7.2v19.8A7.28,7.28,0,0,1,1538.3,214.9Z"/><path class="cls-8" d="M1454.4,216.6h0a7.17,7.17,0,0,1-7.2-7.2V189.7a7.17,7.17,0,0,1,7.2-7.2h0a7.17,7.17,0,0,1,7.2,7.2v19.7A7.17,7.17,0,0,1,1454.4,216.6Z"/><path class="cls-8" d="M1371.4,217.8h0a7.17,7.17,0,0,1-7.2-7.2V190.9a7.17,7.17,0,0,1,7.2-7.2h0a7.17,7.17,0,0,1,7.2,7.2v19.7A7.17,7.17,0,0,1,1371.4,217.8Z"/><path class="cls-8" d="M1287.4,217.8h0a7.17,7.17,0,0,1-7.2-7.2V190.9a7.17,7.17,0,0,1,7.2-7.2h0a7.17,7.17,0,0,1,7.2,7.2v19.7A7.17,7.17,0,0,1,1287.4,217.8Z"/><path class="cls-9" d="M1428.7,101.9h1.3a3,3,0,0,1,3,3V208.8h-7.3v-104A3.13,3.13,0,0,1,1428.7,101.9Z"/><path class="cls-10" d="M1476.6,155.9a12,12,0,0,1-15.7,6.5c-.1,0-.2-.1-.3-.1l-27.7-12.4V135.1c0,3.7,6.4,4.8,10.3,3.9s7.5,2.1,9.9,5.3,8.5,6.9,11.6,6.7,1.5,4.4,5.9,6.7C1474.5,159.7,1476.2,156.8,1476.6,155.9Z"/><path class="cls-11" d="M1479.1,149.4l-.6,1.7c1.2-3.5-6.4-4-8.8-3.7s-6.3-5.6-8-9.3-5.8-.6-10.2-.6-9.1-6.7-11.6-10.1a24,24,0,0,0-6.9-5.8V110.9l10.6,6.2,30.4,17.7A12.12,12.12,0,0,1,1479.1,149.4Z"/><path class="cls-12" d="M1478.4,151.1h0l-1.7,4.5-.1.3c-.4.9-2.1,3.8-5.9,1.9-4.4-2.3-9-6.9-12.1-6.7s-5-.4-7.4-3.7-6.8-6.8-10.8-5.9-7.6.4-7.6-3.3V121.6s3.1-1.3,5.6,2.1,8.6,7.9,13,7.9,11.3,2,13,5.7,4,5.6,6.4,5.3S1479.7,147.6,1478.4,151.1Z"/><rect class="cls-1" x="1716.7" y="240.8" width="89.8" height="0.7"/><rect class="cls-8" x="1714" y="241.5" width="92.6" height="11"/><path class="cls-8" d="M1720.1,261.5h0a4.06,4.06,0,0,1-4.1-4.1v-6.6a4.06,4.06,0,0,1,4.1-4.1h0a4.06,4.06,0,0,1,4.1,4.1v6.7A4.17,4.17,0,0,1,1720.1,261.5Z"/><path class="cls-8" d="M1732.8,261.5h0a4.06,4.06,0,0,1-4.1-4.1v-6.6a4.06,4.06,0,0,1,4.1-4.1h0a4.06,4.06,0,0,1,4.1,4.1v6.7A4,4,0,0,1,1732.8,261.5Z"/><path class="cls-8" d="M1746.6,261.5h0a4.06,4.06,0,0,1-4.1-4.1v-6.6a4.06,4.06,0,0,1,4.1-4.1h0a4.06,4.06,0,0,1,4.1,4.1v6.7A4.17,4.17,0,0,1,1746.6,261.5Z"/><path class="cls-8" d="M1760.8,261.5h0a4.06,4.06,0,0,1-4.1-4.1v-6.6a4.06,4.06,0,0,1,4.1-4.1h0a4.06,4.06,0,0,1,4.1,4.1v6.7A4,4,0,0,1,1760.8,261.5Z"/><path class="cls-8" d="M1775.3,261.5h0a4.06,4.06,0,0,1-4.1-4.1v-6.6a4.06,4.06,0,0,1,4.1-4.1h0a4.06,4.06,0,0,1,4.1,4.1v6.7A4,4,0,0,1,1775.3,261.5Z"/><path class="cls-8" d="M1788.8,261.5h0a4.06,4.06,0,0,1-4.1-4.1v-6.6a4.06,4.06,0,0,1,4.1-4.1h0a4.06,4.06,0,0,1,4.1,4.1v6.7A4.1,4.1,0,0,1,1788.8,261.5Z"/><path class="cls-8" d="M1800.5,261.5h0a4.06,4.06,0,0,1-4.1-4.1v-6.6a4.06,4.06,0,0,1,4.1-4.1h0a4.06,4.06,0,0,1,4.1,4.1v6.7A4,4,0,0,1,1800.5,261.5Z"/><path class="cls-13" d="M1756.7,305.1Z"/><rect class="cls-8" x="1553.9" y="377.3" width="46.3" height="4.2"/><rect class="cls-14" x="1553.9" y="381.5" width="46.3" height="2"/><rect class="cls-8" x="1657.1" y="525.7" width="214.3" height="10.2"/><rect class="cls-8" x="1214" y="538.2" width="455.6" height="7"/><path class="cls-2" d="M1766.8,94.7h-7.5a7.38,7.38,0,0,1-7.4-7.4V78.8h22.3v8.5A7.38,7.38,0,0,1,1766.8,94.7Z"/><path class="cls-2" d="M1720.2,94.7h-7.5a7.38,7.38,0,0,1-7.4-7.4V78.8h22.3v8.5A7.38,7.38,0,0,1,1720.2,94.7Z"/><path class="cls-2" d="M1816.9,94h-7.5a7.38,7.38,0,0,1-7.4-7.4V78.1h22.3v8.5a7.38,7.38,0,0,1-7.4,7.4Z"/><path class="cls-2" d="M1675.5,94.7H1668a7.38,7.38,0,0,1-7.4-7.4V78.8h22.3v8.5a7.38,7.38,0,0,1-7.4,7.4Z"/><path class="cls-2" d="M1774.2,164h-22.3v-8.5a7.38,7.38,0,0,1,7.4-7.4h7.5a7.38,7.38,0,0,1,7.4,7.4V164Z"/><path class="cls-2" d="M1727.6,164h-22.3v-8.5a7.38,7.38,0,0,1,7.4-7.4h7.5a7.38,7.38,0,0,1,7.4,7.4V164Z"/><path class="cls-2" d="M1824.3,164.7H1802v-8.5a7.38,7.38,0,0,1,7.4-7.4h7.5a7.38,7.38,0,0,1,7.4,7.4v8.5Z"/><path class="cls-2" d="M1682.9,164h-22.3v-8.5a7.38,7.38,0,0,1,7.4-7.4h7.5a7.38,7.38,0,0,1,7.4,7.4V164Z"/><rect class="cls-8" x="1626.5" y="163.7" width="231.9" height="6"/><rect class="cls-6" x="1802.1" y="67.2" width="22.3" height="10.9"/><rect class="cls-6" x="1752" y="67.8" width="22.3" height="10.9"/><rect class="cls-6" x="1705.3" y="67.8" width="22.3" height="10.9"/><rect class="cls-6" x="1660.6" y="67.8" width="22.3" height="10.9"/><path class="cls-8" d="M1848.9,62.8l-18.5-28.1h-14.8V31.8a5,5,0,1,0-10,0v2.9h-36.2c0-.3.1-.5.1-.8V31a5,5,0,0,0-10,0v2.9a2.2,2.2,0,0,0,.1.8h-36.5a5.06,5.06,0,0,0,.2-1.3V30.5a5,5,0,0,0-10,0v2.9a5.06,5.06,0,0,0,.2,1.3h-37.2a5.06,5.06,0,0,0,.2-1.3V30.5a5,5,0,0,0-10,0v2.9a5.06,5.06,0,0,0,.2,1.3h-20.2L1628,62.8V68h4.4v4.5a2.8,2.8,0,1,0,5.6,0V68h2.7v4.5a2.8,2.8,0,1,0,5.6,0V68h3.6v4.5a2.79,2.79,0,0,0,2.8,2.8,2.86,2.86,0,0,0,2.8-2.8V68h2.4v4.5a2.8,2.8,0,1,0,5.6,0V68h2.5v4.5a2.79,2.79,0,0,0,2.8,2.8,2.86,2.86,0,0,0,2.8-2.8V68h2.4v4.5a2.8,2.8,0,1,0,5.6,0V68h3v4.5a2.8,2.8,0,1,0,5.6,0V68h2.4v4.5a2.8,2.8,0,1,0,5.6,0V68h2.5v4.5a2.8,2.8,0,1,0,5.6,0V68h2.4v4.5a2.8,2.8,0,1,0,5.6,0V68h3.3v4.5a2.8,2.8,0,1,0,5.6,0V68h2.4v4.5a2.79,2.79,0,0,0,2.8,2.8,2.73,2.73,0,0,0,2.8-2.8V68h2.5v4.5a2.8,2.8,0,1,0,5.6,0V68h2.4v4.5a2.79,2.79,0,0,0,2.8,2.8,2.73,2.73,0,0,0,2.8-2.8V68h3v4.5a2.79,2.79,0,0,0,2.8,2.8,2.73,2.73,0,0,0,2.8-2.8V68h2.5v4.5a2.79,2.79,0,0,0,2.8,2.8,2.86,2.86,0,0,0,2.8-2.8V68h2.5v4.5a2.79,2.79,0,0,0,2.8,2.8,2.86,2.86,0,0,0,2.8-2.8V68h2.4v4.5a2.79,2.79,0,0,0,2.8,2.8,2.86,2.86,0,0,0,2.8-2.8V68h3.5v4.5a2.8,2.8,0,1,0,5.6,0V68h2.4v4.5a2.79,2.79,0,0,0,2.8,2.8,2.73,2.73,0,0,0,2.8-2.8V68h2.5v4.5a2.8,2.8,0,1,0,5.6,0V68h2.4v4.5a2.79,2.79,0,0,0,2.8,2.8,2.73,2.73,0,0,0,2.8-2.8V68h3v4.5a2.79,2.79,0,0,0,2.8,2.8,2.73,2.73,0,0,0,2.8-2.8V68h2.5v4.5a2.79,2.79,0,0,0,2.8,2.8,2.86,2.86,0,0,0,2.8-2.8V68h2.5v4.5a2.79,2.79,0,0,0,2.8,2.8,2.86,2.86,0,0,0,2.8-2.8V68h2.4v4.5a2.79,2.79,0,0,0,2.8,2.8,2.86,2.86,0,0,0,2.8-2.8V68h4.9V62.8Z"/><rect class="cls-2" x="1774.2" y="145.1" width="27.9" height="1.9"/><path class="cls-15" d="M1774.2,111.4v33.7h27.9V111.4c0-6.6-6.2-11.9-13.9-11.9S1774.2,104.8,1774.2,111.4Z"/><rect class="cls-16" x="1774.2" y="146.9" width="27.9" height="1.9"/><rect class="cls-2" x="1726.3" y="144.3" width="27.9" height="1.9"/><path class="cls-15" d="M1726.3,110.6v33.7h27.9V110.6c0-6.6-6.2-11.9-13.9-11.9S1726.3,104,1726.3,110.6Z"/><rect class="cls-16" x="1726.3" y="146.2" width="27.9" height="1.9"/><rect class="cls-2" x="1679.4" y="144.3" width="27.9" height="1.9"/><path class="cls-15" d="M1679.4,110.6v33.7h27.9V110.6c0-6.6-6.2-11.9-13.9-11.9S1679.4,104,1679.4,110.6Z"/><rect class="cls-16" x="1679.4" y="146.2" width="27.9" height="1.9"/><path class="cls-26" d="M1716,349.7v29.8h92.1V349.7c0-20.3-20.6-36.7-46.1-36.7S1716,329.4,1716,349.7Z"/><rect class="cls-8" x="1716" y="379.4" width="92.1" height="4.1"/><rect class="cls-14" x="1716" y="383.5" width="92.1" height="1.8"/><path class="cls-8" d="M1762,396.4l-22.8,21-9.5,8.7h64.5Zm-22.8,26.7h0l22.9-20.8,22.9,20.8Z"/><rect class="cls-14" x="1729.8" y="426" width="64.5" height="2.4"/><rect class="cls-26" x="1729.8" y="433.4" width="64.5" height="75.8"/><rect class="cls-8" x="1729.8" y="509.2" width="64.5" height="3.9"/><rect class="cls-14" x="1729.8" y="513.1" width="64.5" height="1.8"/><polygon class="cls-6" points="1784.9 423.1 1762 402.3 1739.2 423.1 1784.9 423.1"/><path class="cls-17" d="M1478.2,435.3V521h38V435.3c0-11.6-8.5-21.1-19-21.1S1478.2,423.6,1478.2,435.3Z"/><path class="cls-17" d="M1561.2,435.3V521h38V435.3c0-11.6-8.5-21.1-19-21.1S1561.2,423.6,1561.2,435.3Z"/><path class="cls-17" d="M1395.2,435.3V521h38V435.3c0-11.6-8.5-21.1-19-21.1S1395.2,423.6,1395.2,435.3Z"/><path class="cls-17" d="M1311.5,438v85.7h38V438c0-11.6-8.5-21.1-19-21.1S1311.5,426.4,1311.5,438Z"/><path class="cls-17" d="M1224.2,438v85.7h38V438c0-11.6-8.5-21.1-19-21.1S1224.2,426.4,1224.2,438Z"/><rect class="cls-27" x="1561.8" y="324.7" width="30.5" height="52.3"/><path class="cls-8" d="M1583.6,307.3l-6.5-6-4.1,3.8-16.9,15.5h42.1Zm-7.9-.9,1.4-1.3,2.4,2.2,12.5,11.4h-29.9Z"/><rect class="cls-14" x="1556" y="320.6" width="42.1" height="1.6"/><polygon class="cls-6" points="1592 318.7 1577.1 305.1 1562.1 318.7 1592 318.7"/><path class="cls-8" d="M1497.2,301.5l-7.8,7.2-13.2,12.1h42.1Zm-14.9,17.4,7.1-6.5,7.8-7.1,14.9,13.6Z"/><rect class="cls-14" x="1476.2" y="320.8" width="42.1" height="1.6"/><polygon class="cls-6" points="1512.1 318.9 1497.2 305.3 1482.3 318.9 1512.1 318.9"/><rect class="cls-8" x="1474.1" y="377.3" width="46.3" height="4.2"/><rect class="cls-14" x="1474.1" y="381.5" width="46.3" height="2"/><rect class="cls-27" x="1482" y="324.7" width="30.5" height="52.3"/><path class="cls-8" d="M1424.3,312.8l-11.4-10.5-19.5,18-1.5,1.4H1434Zm-26.3,7,14.9-13.6,11.4,10.3,3.6,3.2-29.9.1Z"/><rect class="cls-14" x="1391.9" y="321.7" width="42.1" height="1.6"/><polygon class="cls-6" points="1427.9 319.8 1412.9 306.2 1398 319.8 1427.9 319.8"/><rect class="cls-8" x="1389.8" y="378.2" width="46.3" height="4.2"/><rect class="cls-14" x="1389.8" y="382.4" width="46.3" height="2"/><rect class="cls-27" x="1397.7" y="325.5" width="30.5" height="52.3"/><path class="cls-8" d="M1344.5,314.1l-7.1-6.5-6.9-6.4-6.7,6.2-14.4,13.2h42.1Zm-29,4.6,8.2-7.5,6.7-6.1,6.9,6.3,7.1,6.5.9.8Z"/><rect class="cls-14" x="1309.4" y="320.6" width="42.1" height="1.6"/><polygon class="cls-6" points="1345.4 318.7 1330.5 305.1 1315.5 318.7 1345.4 318.7"/><rect class="cls-8" x="1307.3" y="377.2" width="46.3" height="4.2"/><rect class="cls-14" x="1307.3" y="381.3" width="46.3" height="2"/><rect class="cls-27" x="1315.2" y="324.5" width="30.5" height="52.3"/><path class="cls-8" d="M1260.8,314.7l-14.6-13.5-16.9,15.5-4.2,3.8h42.1Zm-29.5,4,14.9-13.6,14.6,13.3.3.3Z"/><rect class="cls-14" x="1225.2" y="320.6" width="42.1" height="1.6"/><polygon class="cls-6" points="1261.1 318.7 1246.2 305.1 1231.3 318.7 1261.1 318.7"/><rect class="cls-8" x="1223.1" y="377.2" width="46.3" height="4.2"/><rect class="cls-14" x="1223.1" y="381.3" width="46.3" height="2"/><rect class="cls-27" x="1230.9" y="324.5" width="30.5" height="52.3"/><rect class="cls-1" x="1656.7" y="535.9" width="214.3" height="98.8"/><line class="cls-18" x1="1871.4" y1="550.9" x2="1657.1" y2="550.9"/><line class="cls-18" x1="1871.4" y1="565.9" x2="1657.1" y2="565.9"/><rect class="cls-1" x="1657.1" y="580.9" width="214.3" height="53.8"/><line class="cls-18" x1="1871.4" y1="595.9" x2="1657.1" y2="595.9"/><line class="cls-18" x1="1871.4" y1="580.9" x2="1657.1" y2="580.9"/><line class="cls-18" x1="1871.4" y1="610.9" x2="1657.1" y2="610.9"/><line class="cls-18" x1="1871.4" y1="624.9" x2="1657.1" y2="624.9"/><line class="cls-18" x1="1871.4" y1="535.9" x2="1657.1" y2="535.9"/><line class="cls-18" x1="1870.9" y1="535.9" x2="1870.9" y2="634.7"/><line class="cls-19" x1="1657.1" y1="536.4" x2="1657.1" y2="635.2"/><line class="cls-18" x1="1778.4" y1="610.9" x2="1778.4" y2="624.9"/><line class="cls-18" x1="1799.1" y1="624.9" x2="1799.1" y2="634.7"/><line class="cls-18" x1="1733.9" y1="624.9" x2="1733.9" y2="634.7"/><line class="cls-18" x1="1674.8" y1="624.9" x2="1674.8" y2="634.7"/><line class="cls-18" x1="1835.8" y1="624.9" x2="1835.8" y2="634.7"/><line class="cls-18" x1="1841.1" y1="610.9" x2="1841.1" y2="624.9"/><line class="cls-18" x1="1703.8" y1="610.9" x2="1703.8" y2="624.9"/><line class="cls-20" x1="1763.8" y1="595.9" x2="1763.8" y2="610.9"/><line class="cls-20" x1="1752.3" y1="580.9" x2="1752.3" y2="595.9"/><line class="cls-20" x1="1723.6" y1="565.9" x2="1723.6" y2="580.9"/><line class="cls-20" x1="1677.8" y1="550.9" x2="1677.8" y2="565.9"/><line class="cls-20" x1="1760.8" y1="550.9" x2="1760.8" y2="565.9"/><line class="cls-20" x1="1708.3" y1="535.9" x2="1708.3" y2="550.9"/><line class="cls-20" x1="1851.6" y1="595.9" x2="1851.6" y2="610.9"/><line class="cls-20" x1="1833.1" y1="580.9" x2="1833.1" y2="595.9"/><line class="cls-20" x1="1816.6" y1="595.9" x2="1816.6" y2="610.9"/><line class="cls-20" x1="1800.7" y1="565.9" x2="1800.7" y2="580.9"/><line class="cls-20" x1="1821.6" y1="550.9" x2="1821.6" y2="565.9"/><line class="cls-20" x1="1852.6" y1="535.9" x2="1852.6" y2="550.9"/><line class="cls-20" x1="1783.9" y1="535.9" x2="1783.9" y2="550.9"/><line class="cls-20" x1="1692.1" y1="595.9" x2="1692.1" y2="610.9"/><line class="cls-20" x1="1677.8" y1="580.9" x2="1677.8" y2="595.9"/><line class="cls-20" x1="1687.8" y1="565.9" x2="1687.8" y2="580.9"/><rect class="cls-1" x="1462.4" y="545.2" width="194.3" height="89.5"/><line class="cls-21" x1="1656.7" y1="558.8" x2="1462.4" y2="558.8"/><line class="cls-21" x1="1656.7" y1="572.4" x2="1462.4" y2="572.4"/><rect class="cls-1" x="1462.4" y="586" width="194.3" height="48.7"/><line class="cls-21" x1="1656.7" y1="599.6" x2="1462.4" y2="599.6"/><line class="cls-21" x1="1656.7" y1="586" x2="1462.4" y2="586"/><line class="cls-21" x1="1656.7" y1="613.2" x2="1462.4" y2="613.2"/><line class="cls-21" x1="1656.7" y1="625.9" x2="1462.4" y2="625.9"/><line class="cls-21" x1="1575.4" y1="613.2" x2="1575.4" y2="625.9"/><line class="cls-21" x1="1591.2" y1="625.9" x2="1591.2" y2="634.7"/><line class="cls-21" x1="1542.4" y1="625.4" x2="1542.4" y2="634.7"/><line class="cls-21" x1="1478.4" y1="625.9" x2="1478.4" y2="634.7"/><line class="cls-21" x1="1624.4" y1="625.9" x2="1624.4" y2="634.7"/><line class="cls-21" x1="1629.3" y1="613.2" x2="1629.3" y2="625.9"/><line class="cls-21" x1="1504.7" y1="613.2" x2="1504.7" y2="625.9"/><line class="cls-22" x1="1551" y1="599.6" x2="1551" y2="613.2"/><line class="cls-22" x1="1537.1" y1="586" x2="1537.1" y2="599.6"/><line class="cls-22" x1="1547.3" y1="572.4" x2="1547.3" y2="586"/><line class="cls-22" x1="1481.2" y1="558.8" x2="1481.2" y2="572.4"/><line class="cls-22" x1="1530.7" y1="558.8" x2="1530.7" y2="572.4"/><line class="cls-22" x1="1485.6" y1="545.2" x2="1485.6" y2="558.8"/><line class="cls-22" x1="1638.8" y1="599.6" x2="1638.8" y2="613.2"/><line class="cls-22" x1="1646.3" y1="572.4" x2="1646.3" y2="586"/><line class="cls-22" x1="1622" y1="586" x2="1622" y2="599.6"/><line class="cls-22" x1="1594.9" y1="599.6" x2="1594.9" y2="613.2"/><line class="cls-22" x1="1580.2" y1="572.4" x2="1580.2" y2="586"/><line class="cls-22" x1="1611.6" y1="558.8" x2="1611.6" y2="572.4"/><line class="cls-22" x1="1639.7" y1="545.2" x2="1639.7" y2="558.8"/><line class="cls-22" x1="1565.4" y1="545.2" x2="1565.4" y2="558.8"/><line class="cls-22" x1="1494.2" y1="599.6" x2="1494.2" y2="613.2"/><line class="cls-22" x1="1481.2" y1="586" x2="1481.2" y2="599.6"/><line class="cls-22" x1="1490.2" y1="572.4" x2="1490.2" y2="586"/><rect class="cls-1" x="1268.1" y="545.2" width="194.3" height="89.5"/><line class="cls-21" x1="1462.4" y1="558.8" x2="1268.1" y2="558.8"/><line class="cls-21" x1="1462.4" y1="572.4" x2="1268.1" y2="572.4"/><rect class="cls-1" x="1268.1" y="586" width="194.3" height="48.7"/><line class="cls-21" x1="1462.4" y1="599.6" x2="1268.1" y2="599.6"/><line class="cls-21" x1="1462.4" y1="586" x2="1268.1" y2="586"/><line class="cls-21" x1="1462.4" y1="613.2" x2="1268.1" y2="613.2"/><line class="cls-21" x1="1462.4" y1="625.9" x2="1268.1" y2="625.9"/><line class="cls-21" x1="1381.1" y1="613.2" x2="1381.1" y2="625.9"/><line class="cls-21" x1="1396.9" y1="625.9" x2="1396.9" y2="634.7"/><line class="cls-21" x1="1348.1" y1="625.4" x2="1348.1" y2="634.7"/><line class="cls-21" x1="1284.2" y1="625.9" x2="1284.2" y2="634.7"/><line class="cls-21" x1="1430.1" y1="625.9" x2="1430.1" y2="634.7"/><line class="cls-21" x1="1435" y1="613.2" x2="1435" y2="625.9"/><line class="cls-21" x1="1310.4" y1="613.2" x2="1310.4" y2="625.9"/><line class="cls-22" x1="1356.7" y1="599.6" x2="1356.7" y2="613.2"/><line class="cls-22" x1="1342.8" y1="586" x2="1342.8" y2="599.6"/><line class="cls-22" x1="1353.1" y1="572.4" x2="1353.1" y2="586"/><line class="cls-22" x1="1286.9" y1="558.8" x2="1286.9" y2="572.4"/><line class="cls-22" x1="1336.4" y1="558.8" x2="1336.4" y2="572.4"/><line class="cls-22" x1="1319.5" y1="545.2" x2="1319.5" y2="558.8"/><line class="cls-22" x1="1444.5" y1="599.6" x2="1444.5" y2="613.2"/><line class="cls-22" x1="1452" y1="572.4" x2="1452" y2="586"/><line class="cls-22" x1="1427.7" y1="586" x2="1427.7" y2="599.6"/><line class="cls-22" x1="1400.6" y1="599.6" x2="1400.6" y2="613.2"/><line class="cls-22" x1="1385.9" y1="572.4" x2="1385.9" y2="586"/><line class="cls-22" x1="1417.3" y1="558.8" x2="1417.3" y2="572.4"/><line class="cls-22" x1="1445.4" y1="545.2" x2="1445.4" y2="558.8"/><line class="cls-22" x1="1391.7" y1="545.2" x2="1391.7" y2="558.8"/><line class="cls-22" x1="1299.9" y1="599.6" x2="1299.9" y2="613.2"/><line class="cls-22" x1="1286.9" y1="586" x2="1286.9" y2="599.6"/><line class="cls-22" x1="1295.9" y1="572.4" x2="1295.9" y2="586"/><polygon class="cls-1" points="1269.2 545.2 1269.2 634.7 1085.6 634.7 1085.6 634.7 1197.4 634.7 1197.4 545.2 1269.2 545.2"/><line class="cls-23" x1="1269.2" y1="558.8" x2="1197.4" y2="558.8"/><line class="cls-23" x1="1269.2" y1="572.4" x2="1197.4" y2="572.4"/><rect class="cls-1" x="1197.4" y="586" width="71.9" height="48.7"/><line class="cls-23" x1="1269.2" y1="599.6" x2="1197.4" y2="599.6"/><line class="cls-23" x1="1269.2" y1="586" x2="1197.4" y2="586"/><line class="cls-23" x1="1269.2" y1="613.2" x2="1197.4" y2="613.2"/><line class="cls-23" x1="1269.2" y1="625.9" x2="1197.4" y2="625.9"/><line class="cls-23" x1="1214" y1="625.6" x2="1214" y2="635"/><line class="cls-23" x1="1230.1" y1="613.6" x2="1230.1" y2="626.3"/><line class="cls-22" x1="1252.1" y1="599.1" x2="1252.1" y2="612.7"/><line class="cls-21" x1="1236.2" y1="586" x2="1236.2" y2="599.6"/><line class="cls-21" x1="1219.9" y1="572.4" x2="1219.9" y2="586"/><line class="cls-21" x1="1214.4" y1="558.4" x2="1214.4" y2="572.1"/><line class="cls-21" x1="1230.1" y1="545.2" x2="1230.1" y2="558.8"/><rect class="cls-24" x="1168.4" y="570" width="47.5" height="64.7"/><rect class="cls-8" x="1164.4" y="566.4" width="55.5" height="7.3"/><rect class="cls-24" x="1170" y="521.9" width="44.4" height="44.4"/><rect class="cls-8" x="1167.1" y="519.8" width="50.2" height="4.3"/><path class="cls-25" d="M1025,126.4"/><line class="cls-5" x1="935.7" y1="15.7" x2="1020.6" y2="15.7"/><line class="cls-5" x1="935.7" y1="36.2" x2="1061.1" y2="36.2"/><line class="cls-5" x1="934.8" y1="71.6" x2="1097.4" y2="71.6"/><rect class="cls-8" x="935.1" y="124.8" width="1.6" height="3.3"/></g></g></g></g></g></g></svg>