<svg xmlns="http://www.w3.org/2000/svg" viewBox="0 0 379.45 863.58"><defs><style>.cls-1{fill:#aaa6a2;}.cls-2{fill:#c4c3c2;}.cls-3{fill:#6d6966;}.cls-4{fill:#9e9993;}.cls-5{fill:#afadac;}.cls-6{fill:#bcb9b7;}.cls-7{fill:#54514e;}.cls-8{fill:#ef3737;}.cls-9{fill:none;}.cls-10{fill:#ad2323;}.cls-11{fill:#96928f;}</style></defs><title>Element 3</title><g id="Ebene_2" data-name="Ebene 2"><g id="Ebene_1-2" data-name="Ebene 1"><g id="Ebene_2-2" data-name="Ebene 2"><g id="EbeneBoden"><g id="Sehenswürdigkeiten"><g id="Turm_von_Pisa" data-name="Turm von Pisa"><polygon class="cls-1" points="214.75 193.88 198.35 66.98 107.55 78.78 107.55 78.78 16.75 90.58 33.15 217.38 123.95 205.68 123.95 205.58 214.75 193.88"/><polygon class="cls-1" points="324.65 849.68 324.35 847.28 308.75 726.08 307.85 719.68 307.35 715.78 307.05 713.28 306.15 706.18 291.05 589.18 289.35 575.58 274.25 458.58 272.45 445.08 257.35 328.08 255.65 314.48 240.55 197.48 239.65 190.78 123.75 205.68 32.95 217.38 7.75 220.68 8.65 227.38 23.75 344.38 25.55 357.98 40.55 474.98 42.35 488.48 57.45 605.48 59.15 619.08 74.25 736.08 75.15 743.18 75.55 745.68 76.05 749.58 76.85 755.98 88.65 847.28 90.65 863.28 208.55 863.28 213.55 863.28 219.15 863.28 225.25 863.28 324.75 850.48 324.65 849.68"/><path class="cls-2" d="M193.45,190.28l-52.1,6.7h0l-9.9-76.5a26.18,26.18,0,0,1,22.7-29.4h0a26.19,26.19,0,0,1,29.4,22.7h0l9.9,76.5Z"/><path class="cls-3" d="M187.75,191l-40.7,5.3h0l-9.5-74a20.57,20.57,0,0,1,17.7-23h0a20.57,20.57,0,0,1,23,17.7h0l9.5,74Z"/><path class="cls-2" d="M65.15,101.68h0a26.19,26.19,0,0,1,29.4,22.7h0l9.9,76.5h0l-52.1,6.7h0l-9.9-76.5A26.29,26.29,0,0,1,65.15,101.68Z"/><path class="cls-3" d="M66.15,110h0a20.57,20.57,0,0,1,23,17.7h0l9.5,74h0L57.95,207h0l-9.5-74A20.53,20.53,0,0,1,66.15,110Z"/><polygon class="cls-4" points="197.85 56.08 197.45 53.38 105.55 65.18 105.55 65.28 13.65 77.08 14.05 79.88 15.65 79.68 16.55 86.78 18.85 86.48 17.95 79.38 25.55 78.38 26.45 85.48 28.75 85.18 27.85 78.08 35.45 77.08 36.35 84.18 38.65 83.88 37.75 76.78 45.35 75.78 46.25 82.88 48.55 82.58 47.65 75.48 55.25 74.58 56.15 81.68 58.45 81.38 57.55 74.28 65.25 73.28 66.15 80.38 68.45 80.08 67.55 72.98 75.15 71.98 76.05 79.08 78.35 78.78 77.45 71.68 85.05 70.68 85.95 77.78 88.25 77.48 87.35 70.38 94.95 69.38 95.85 76.58 98.15 76.28 97.25 69.18 105.95 67.98 105.95 67.98 114.75 66.78 115.75 74.78 118.05 74.48 117.05 66.58 124.75 65.58 125.75 73.48 128.05 73.18 127.05 65.28 134.65 64.28 135.65 72.28 137.95 71.98 136.95 63.98 144.55 62.98 145.55 70.98 147.85 70.68 146.85 62.68 154.45 61.68 155.45 69.68 157.75 69.38 156.75 61.38 165.75 60.28 166.75 68.08 168.95 67.78 167.95 59.98 174.35 59.18 175.35 67.08 177.65 66.78 176.65 58.88 184.25 57.88 185.25 65.88 187.55 65.58 186.55 57.58 194.15 56.58 195.15 64.58 197.45 64.28 196.45 56.28 197.85 56.08"/><rect class="cls-5" x="101.71" y="-0.24" width="1.1" height="75.7" transform="translate(-3.97 13.39) rotate(-7.35)"/><path class="cls-2" d="M246.25,316.18l-52.2,6.7h0l-9.9-76.5a26.18,26.18,0,0,1,22.7-29.4h0a26.19,26.19,0,0,1,29.4,22.7h0l10,76.5Z"/><path class="cls-6" d="M219.15,863.28l1.5-.2,33.8-4.4,6.3-.8-1.4-10.6-7.2-55.6a12.37,12.37,0,0,0-13.9-10.5l-22.6,2.9a12.37,12.37,0,0,0-10.7,13.8l6.4,49.4h0l2.1,16Z"/><path class="cls-7" d="M254.55,859.18l-33.8,4.4h0l-5.6-43.8a12.39,12.39,0,0,1,10.7-13.9h0l9.2-1.2a12.39,12.39,0,0,1,13.9,10.7l5.6,43.8Z"/><path class="cls-3" d="M240.55,316.88l-40.7,5.3h0l-9.5-74a20.57,20.57,0,0,1,17.7-23h0a20.57,20.57,0,0,1,23,17.7h0l9.5,74Z"/><path class="cls-2" d="M263.15,446.68l-52.1,6.7h0l-9.9-76.5a26.18,26.18,0,0,1,22.7-29.4h0a26.19,26.19,0,0,1,29.4,22.7h0l9.9,76.5Z"/><path class="cls-3" d="M257.35,447.48l-40.7,5.3h0l-9.5-74a20.57,20.57,0,0,1,17.7-23h0a20.57,20.57,0,0,1,23,17.7h0l9.5,74Z"/><path class="cls-2" d="M279.95,577.28l-52.1,6.7h0l-9.9-76.5a26.18,26.18,0,0,1,22.7-29.4h0a26.19,26.19,0,0,1,29.4,22.7h0l9.9,76.5Z"/><path class="cls-3" d="M274.25,578l-40.7,5.3h0l-9.5-74a20.57,20.57,0,0,1,17.7-23h0a20.57,20.57,0,0,1,23,17.7h0l9.5,74Z"/><path class="cls-2" d="M296.75,707.78l-52.1,6.7h0l-9.9-76.5a26.18,26.18,0,0,1,22.7-29.4h0a26.19,26.19,0,0,1,29.4,22.7h0l9.9,76.5Z"/><path class="cls-3" d="M291.05,708.58l-40.7,5.3h0l-9.5-74a20.57,20.57,0,0,1,17.7-23h0a20.57,20.57,0,0,1,23,17.7h0l9.5,74Z"/><rect class="cls-8" x="98.32" y="5.59" width="16.4" height="8.3" transform="translate(-0.2 17.04) rotate(-9.14)"/><polygon class="cls-8" points="121.45 5.58 122.65 13.28 111.25 15.08 111.15 14.38 115.35 11.58 110.85 12.28 110.05 7.38 121.45 5.58"/><line class="cls-9" x1="122.85" y1="198.88" x2="121.65" y2="189.18"/><polygon class="cls-10" points="115.35 11.58 111.15 14.38 110.85 12.28 115.35 11.58"/><path class="cls-2" d="M45.95,236.88h0a26.19,26.19,0,0,1,29.4,22.7h0l9.9,76.5h0l-52.1,6.7h0l-9.9-76.5a26.24,26.24,0,0,1,22.7-29.4Z"/><path class="cls-2" d="M264.15,321.78l-.4-3.1a5.21,5.21,0,0,0-5.9-4.5l-118.2,15.3-118.4,15.3a5.28,5.28,0,0,0-4.5,5.9l.4,3.1a5.28,5.28,0,0,0,5.9,4.5L141.35,343l118.3-15.3A5.21,5.21,0,0,0,264.15,321.78Z"/><path class="cls-2" d="M281.05,452.28l-.4-3.1a5.21,5.21,0,0,0-5.9-4.5L156.55,460l-118.4,15.3a5.28,5.28,0,0,0-4.5,5.9l.4,3.1a5.28,5.28,0,0,0,5.9,4.5l118.3-15.3,118.3-15.3A5.21,5.21,0,0,0,281.05,452.28Z"/><path class="cls-2" d="M297.85,582.88l-.4-3.1a5.21,5.21,0,0,0-5.9-4.5l-118.2,15.3-118.4,15.2a5.28,5.28,0,0,0-4.5,5.9l.4,3.1a5.28,5.28,0,0,0,5.9,4.5L175,604.08l118.3-15.3A5.21,5.21,0,0,0,297.85,582.88Z"/><path class="cls-2" d="M206.35,67.18l-.3-2.1a3.59,3.59,0,0,0-4-3.1l-95.3,12.2-95.3,12.3a3.59,3.59,0,0,0-3.1,4l.3,2.1a3.59,3.59,0,0,0,4,3.1L108,83.48l95.3-12.3A3.59,3.59,0,0,0,206.35,67.18Z"/><polygon class="cls-11" points="237.65 177.18 237.25 173.88 124.05 188.48 124.05 188.38 121.85 188.68 121.85 188.78 121.35 188.88 121.35 188.88 5.45 203.88 5.85 207.08 15.25 205.88 16.25 213.48 18.95 213.08 17.95 205.58 25.65 204.58 26.65 212.38 29.35 212.08 28.35 204.18 38.95 202.88 39.95 210.38 42.65 209.98 41.65 202.48 49.35 201.48 50.35 209.28 53.05 208.98 52.05 201.18 62.55 199.78 63.55 207.28 66.25 206.88 65.25 199.48 73.05 198.48 74.15 206.28 76.75 205.98 75.75 198.08 86.15 196.78 87.15 204.18 89.85 203.78 88.85 196.38 98.05 195.18 99.05 202.58 101.75 202.18 100.75 194.88 108.55 193.88 109.65 201.68 112.25 201.38 111.25 193.48 121.75 192.18 121.75 192.08 122.35 192.08 123.65 202.48 125.85 202.18 124.45 191.78 132.95 190.68 133.85 197.78 136.55 197.38 135.55 190.38 144.55 189.18 145.75 197.88 148.35 197.58 147.25 188.88 156.45 187.68 157.55 196.28 160.25 195.98 159.15 187.28 168.25 186.08 169.35 194.78 172.05 194.48 170.95 185.78 180.15 184.58 181.35 193.28 183.95 192.98 182.85 184.28 191.95 183.08 193.15 191.78 195.75 191.48 194.65 182.68 203.75 181.58 204.85 190.18 207.55 189.88 206.45 181.18 215.65 179.98 216.75 188.68 219.45 188.38 218.35 179.68 227.45 178.48 228.65 187.18 231.25 186.88 230.15 178.18 237.65 177.18"/><path class="cls-3" d="M47.05,245.08h0a20.57,20.57,0,0,1,23,17.7h0l9.5,74h0l-40.7,5.3h0l-9.5-73.9a20.53,20.53,0,0,1,17.7-23.1Z"/><path class="cls-2" d="M155.85,249.58a26.26,26.26,0,0,0-29.4-22.7,26.55,26.55,0,0,0-22.8,29.5l9.9,76.5,26.1-3.4,26.1-3.4Z"/><path class="cls-3" d="M150.65,252.88a20.64,20.64,0,0,0-23.1-17.7,20.41,20.41,0,0,0-17.7,22.9l9.5,74,20.4-2.6,20.4-2.6Z"/><path class="cls-2" d="M62.85,367.38h0a26.19,26.19,0,0,1,29.4,22.7h0l9.9,76.5h0l-52.1,6.7h0l-9.9-76.5A26.29,26.29,0,0,1,62.85,367.38Z"/><path class="cls-3" d="M63.85,375.68h0a20.57,20.57,0,0,1,23,17.7h0l9.5,74h0l-40.7,5.3h0l-9.5-74a20.51,20.51,0,0,1,17.7-23Z"/><path class="cls-2" d="M172.75,380.18a26.32,26.32,0,0,0-52.2,6.8l9.9,76.5,26.1-3.4,26.1-3.4Z"/><path class="cls-3" d="M167.45,383.38a20.57,20.57,0,0,0-40.8,5.2l9.5,74,20.4-2.6,20.4-2.6Z"/><path class="cls-2" d="M79.65,498h0a26.19,26.19,0,0,1,29.4,22.7h0l9.9,76.5h0l-52.1,6.7h0L57,527.38A26.24,26.24,0,0,1,79.65,498Z"/><path class="cls-3" d="M80.45,507.28h0a20.49,20.49,0,0,1,23,17.7h0l9.7,73.8h0l-40.6,5.3h0l-9.7-73.8a20.35,20.35,0,0,1,17.6-23Z"/><path class="cls-2" d="M189.55,510.68a26.32,26.32,0,0,0-52.2,6.8l9.9,76.5,26.1-3.4,26.1-3.4Z"/><path class="cls-3" d="M184.35,514a20.64,20.64,0,0,0-23.1-17.7,20.34,20.34,0,0,0-17.7,22.9l9.5,74,20.4-2.6,20.4-2.6Z"/><path class="cls-2" d="M96.45,628.48h0a26.19,26.19,0,0,1,29.4,22.7h0l9.9,76.5h0l-52.1,6.7h0l-9.9-76.5a26.37,26.37,0,0,1,22.7-29.4Z"/><path class="cls-3" d="M97.55,636.78h0a20.57,20.57,0,0,1,23,17.7h0l9.5,74h0l-40.7,5.3h0l-9.5-74a20.46,20.46,0,0,1,17.7-23Z"/><path class="cls-2" d="M206.35,641.18a26.18,26.18,0,0,0-29.4-22.6,26.46,26.46,0,0,0-22.8,29.4l9.9,76.5,26.1-3.4,26.1-3.4Z"/><path class="cls-3" d="M201.15,644.48a20.79,20.79,0,0,0-23.1-17.7,20.45,20.45,0,0,0-17.7,22.9l9.5,74,20.4-2.6,20.4-2.6Z"/><line class="cls-9" x1="121.65" y1="190.18" x2="122.85" y2="199.88"/><path class="cls-2" d="M371.45,847.28h-40.9l-15.7-121.6a6.54,6.54,0,0,0,4.7-7c0-.2-.1-.4-.1-.6l2.5-.3a5.21,5.21,0,0,0,4.5-5.9l-.4-3.1a5.21,5.21,0,0,0-5.9-4.5l-129.9,16.8-129.8,16.7a5.28,5.28,0,0,0-4.5,5.9l.4,3.2a5.28,5.28,0,0,0,5.9,4.5l2.5-.3a6.08,6.08,0,0,0,0,1.9,6.44,6.44,0,0,0,6.3,5.6l11.5,88.7H50.15a8,8,0,1,0,0,16h321.3a8,8,0,0,0,0-16Zm-109.7-121.2c0-.2-.1-.3-.1-.5l34.6-4.5v.5a6.43,6.43,0,0,0,6.6,5.7l15.5,120h-46.7l-14.7-114.2A6.39,6.39,0,0,0,261.75,726.08Zm-69.7,8.5Zm-97.4,112.7L82.95,757a6.44,6.44,0,0,0,4.8-7.1,4.79,4.79,0,0,0-.5-1.7l34.9-4.5a6.34,6.34,0,0,0,6.4,5.2l.1.4,12.7,98H94.65Zm58.8,0-12.9-99.5-.1-.4a6.3,6.3,0,0,0,4.9-6.7l36-4.7a6.39,6.39,0,0,0,6.4,5.6v.1l13.6,105.6h-47.9Zm58.1,0-6.4-49.4-7.4-57.5v-.1h.1a6.29,6.29,0,0,0,4.8-7.1l35.8-4.6v.4a6.43,6.43,0,0,0,6.6,5.7l14.5,112.6h-48Z"/><path class="cls-2" d="M247.45,191.18l-.4-3.1a5.21,5.21,0,0,0-5.9-4.5l-118.3,15.3L4.55,214.08A5.28,5.28,0,0,0,0,220l.4,3.1a5.28,5.28,0,0,0,5.9,4.5l118.3-15.2,118.3-15.3A5.21,5.21,0,0,0,247.45,191.18Z"/></g></g></g></g></g></g></svg>